<svg xmlns="http://www.w3.org/2000/svg" viewBox="0 0 600 600"><!-- Source: https://football-logos.cc --><path d="M299.39 0C134.223 0 .408 133.68.408 299.034S134.283 600 299.452 600s300.955-135.531 300.955-300.885S464.56 0 299.391 0" style="fill:#7fc8ef;fill-rule:evenodd;stroke-width:1" transform="translate(-.407)" data-source="https://football-logos.cc"></path><path d="M23.228 300c0-76.54 31.024-145.835 81.184-195.995S223.867 22.82 300.407 22.82s145.835 31.025 195.995 81.185S577.587 223.46 577.587 300s-31.025 145.835-81.185 195.995-119.455 81.185-195.995 81.185-145.835-31.025-195.995-81.185S23.228 376.54 23.228 300" style="fill:#fff;fill-rule:evenodd;stroke-width:1" transform="translate(-.407)"></path><path d="M299.515 36.663c-144.984 0-262.445 117.342-262.445 262.489 0 145.146 117.515 264.185 262.499 264.185S563.745 444.37 563.745 299.223c0-145.147-119.246-262.56-264.23-262.56" style="fill:#7fc8ef;fill-rule:evenodd;stroke-width:1" transform="translate(-.407)"></path><g style="stroke-width:.921346"><path d="m186.01 320.964-46.012-47.203 14.81-14.445 45.973 47.146zM231.054 217.898c-3.444-.092-7.181.638-10.998 1.853-2.771.883-7.162 2.934-12.939 5.504l-25.986 11.558 27.017 60.333 27.82-12.757c6.155-2.822 10.623-4.7 13.117-6.296 9.06-5.794 15.96-13.839 11.313-24.288-3.251-7.31-8.778-10.492-19.535-9.27 4.241-4.334 7.151-11.386 3.977-17.77-3.121-6.276-8.046-8.713-13.786-8.867m-7.679 17.595c1.873.05 3.497.823 4.493 2.89 2.35 4.873-4.012 8.101-7.865 9.867l-9.936 4.554-4.74-10.473 7.225-3.18c2.764-1.215 7.248-3.755 10.823-3.658m12.588 21.01c2.024.009 3.738.771 4.68 2.89 2.31 5.194-3.515 8.344-9.38 10.95l-11.066 4.917-4.967-10.6 11.311-5.255c2.842-1.32 6.464-2.916 9.422-2.902M296.983 270.835l-20.557 1.473-4.537-65.822 20.404-1.249zM306.776 267.985l3.569-12.97 45.086-25.731-34.017-9.504 4.143-15.008 61.245 17.012-3.661 13.005-45.089 25.627 35.202 9.686-3.967 15.145zM439.566 257.842 371.82 284.17l15.34 15.073 11.988-5 20.124 19.133-4.243 12.343 15.587 15.345 23.734-69.632zm-7.715 22.339-6.89 18.928-11.625-11.201z" style="fill:#fff;fill-rule:evenodd;stroke-width:.921346" transform="matrix(1.08537 0 0 1.08537 -22.742 -156.744)"></path></g><path d="M92.764 230.664c1.157-3.373 4.464-5.678 7.836-4.521 3.373 1.157 5.374 4.402 4.095 8.426-3.583 10.404-6.546 21.05-8.342 31.783a198 198 0 0 0-2.716 32.688c0 11.558.8 23.054 2.794 34.364a198 198 0 0 0 8.915 33.317 6.443 6.443 0 0 1-12.114 4.392 211 211 0 0 1-9.52-35.488c-2.13-12.07-2.809-24.334-2.809-36.61 0-11.623 1.209-23.216 3.137-34.742 1.927-11.515 4.937-22.61 8.724-33.609M490.06 230.664c-1.158-3.373-4.465-5.678-7.837-4.521-3.373 1.157-5.373 4.402-4.095 8.426 3.583 10.404 6.546 21.05 8.342 31.783a198 198 0 0 1 2.717 32.688c0 11.558-.8 23.054-2.795 34.364a198 198 0 0 1-8.915 33.317 6.443 6.443 0 0 0 12.114 4.392 211 211 0 0 0 9.521-35.488c2.128-12.07 2.808-24.334 2.808-36.61 0-11.623-1.209-23.216-3.137-34.742-1.927-11.515-4.937-22.61-8.724-33.609" style="fill:#edb34c;fill-opacity:1;fill-rule:evenodd;stroke-width:1" data-source="https://football-logos.cc"></path><g style="stroke-width:.921346"><path d="M256.488 504.108a93.42 18.617 0 0 0-53.708 3.47 239.2 239.2 0 0 0 73.226 11.451c19.599 0 38.665-2.42 56.97-6.87a93.42 18.617 0 0 0-76.488-8.05M259.824 463.317c-40.953.246-72.007 5.928-111.766 18.67a241 241 0 0 0 28.56 15.418c28.976-7.174 59.664-11.622 88.03-11.345 28.094.275 75.47 8.231 92.65 18.83a242 242 0 0 0 27.818-12.004c-33.103-20.522-79.06-29.1-116.453-29.541-3.001-.036-5.945-.045-8.84-.028" style="fill:#1d71b7;fill-opacity:1;stroke:none;stroke-width:.276404;stroke-dasharray:none" transform="matrix(1.08537 0 0 1.08537 -.407 0)"></path><path d="M266.88 423.23c-47.209-.758-99.584 11.39-150.785 34.689a244 244 0 0 0 20.251 16.172c51.448-22.004 92.29-26.675 128.303-27.03 64.902-.643 108.916 21.258 131.754 39.723a245 245 0 0 0 21.606-13.968c-31.52-24.065-82.723-48.488-151.13-49.586" style="fill:#1d71b7;fill-opacity:1;stroke:none;stroke-width:.276404;stroke-dasharray:none" transform="matrix(1.08537 0 0 1.08537 -.407 0)"></path><path d="M266.433 382.244c-44.262-.753-118.64 19.095-172.841 52.819a245 245 0 0 0 16.469 17.292c51.348-31.747 113.566-46.578 154.143-46.281 67.57.493 120.203 24.059 159.802 62.266a247 247 0 0 0 18.078-15.385c-51.831-45.786-106.713-69.54-175.65-70.711M474.384 354.504l22.706 22.367a242 242 0 0 0 9.015-22.367zM433.115 354.504c28.404 27.16 33.338 33.435 49.944 48.486a244 244 0 0 0 11.487-20.711c-7.389-7.91-14.368-14.255-27.422-27.775zM379.115 354.504c44.586 28.245 63.763 49.7 87.152 72.247a246 246 0 0 0 13.592-18.79c-18.096-18.376-39.456-38.573-59.235-53.457zM109.919 354.504C93.982 365.86 78.625 377.73 62.745 390.16a245 245 0 0 0 11.877 19.938c24.449-21.977 49.813-38.92 81.671-55.594zM47.304 354.504c4.156 12.141 9.211 23.867 15.142 35.068 22.152-20.906 28.497-26.402 38.649-35.068z" style="fill:#1d71b7;fill-opacity:1;stroke:none;stroke-width:.276404;stroke-dasharray:none" transform="matrix(1.08537 0 0 1.08537 -.407 0)"></path><path d="M266.433 344.744c-44.913-.588-108.224 9.213-190.548 67.27a245 245 0 0 0 14.234 19.007c67.19-50.066 135.914-66.093 177.205-65.792 68.717.502 123.326 27.043 179.932 82.793a247 247 0 0 0 15.434-16.83c-76.796-71.023-122.415-85.482-196.257-86.448" style="fill:#1d71b7;fill-opacity:1;stroke:none;stroke-width:.276404;stroke-dasharray:none" transform="matrix(1.08537 0 0 1.08537 -.407 0)"></path></g><g style="stroke-width:.921346"><path d="m460.44 399.02 3.375-4.624-31.183-7.17-3.033 3.886 15.653 27.9 3.412-4.482-3.793-6.565 8.19-10.863zm-18.12 4.655-6.201-10.423.131-.177 11.881 2.772zM433.467 431.488l3.276-3.285-12.36-29.488-4.15 4.219 9.811 21.701-.153.159-21.837-9.5-4.133 4.236zM397.239 460.225l4.46-2.988-13.447-20.124 7.687-5.151-2.59-4.04-19.979 13.12 2.834 4.149 7.708-5.202zM385.033 468.016l-11.941-6.546c3.528-2.846 4.195-7.248 2.235-11.24-2.86-5.826-9.096-5.692-15.855-2.46l-9.68 4.631 12.592 26.405 4.856-2.461-4.587-8.906 5.76-2.835 11.053 6.194zm-28.357-13.332 4.288-2.159c5.253-2.645 8.33-2.905 9.704.455 1.34 3.277.138 5.373-4.544 7.694l-5.18 2.568zM299.206 480.3l-1.391-10.249 3.929-.54c5.822-.801 8.266.654 8.787 3.843.59 3.612-1.755 5.78-7.376 6.465zm-3.551 14.459 5.245-.579-1.015-9.259 4.72-.653c7.64-1.059 12.293-5.36 11.38-11.494-1.03-6.902-5.996-9.212-14.356-8.054l-9.611 1.331zM265.928 495.316l21.83-.082-.017-4.414-16.713-.016-.031-7.814 14.635-.011-.016-4.541-14.635.012-.028-7.544 16.536.017-.017-4.545-21.653.082zM236.64 487.01l2.974-19.484 2.94.386c7.112.935 12.257 4.152 11.069 11.812-1.122 7.236-6.679 8.86-14.26 7.702zm-5.902 3.904 8.642 1.516c10.528 1.845 18.444-2.59 19.712-11.717 1.321-9.512-3.94-15.6-15.35-17.382l-8.541-1.334zM184.374 432.552l-6.976 2.662 3.075 2.175 7.238-.675zm-14.473 3.195c-5.07-.128-9.777 2.514-12.997 7.762-4.008 6.533-2.248 15.901 5.55 20.517 7.092 4.197 16.438 2.607 20.843-4.708 4.37-7.255 2.677-16.297-5.294-21.066-2.692-1.61-5.446-2.438-8.102-2.505m.548 5.177c1.728-.02 3.472.452 5.074 1.435 4.538 2.784 5.875 8.808 2.967 13.927-2.792 4.913-8.951 6.34-13.462 3.662-4.88-2.897-6.127-8.711-3.185-13.669 2.071-3.489 5.308-5.318 8.606-5.355M138.97 446.999l4.275 3.319 17.89-22.887-4.209-3.413zM113.174 423.24l3.758 3.832 14.124-14.599.157.155-3.007 25.422 3.29 3.132 20.284-20.813-3.742-3.657-13.717 14.236-.158-.155 2.942-24.794-3.534-3.357zM101.646 388.455c-7.733 5.619-5.982 13.32-3.117 17.244 4.652 6.37 11.436 8.068 18.248 2.98l13.49-10.075-3.28-4.186-13.473 9.9c-5.089 3.738-8.437 1.74-10.84-1.394-1.904-2.483-2.645-6.53 2.435-10.281l13.342-9.852-3.221-4.204zM184.012 475.319l4.96 1.99 7.332-19.013.205.08 7.186 24.736 4.155 1.59 10.669-27.128-4.96-1.933-7.013 18.563-.205-.081-7.027-24.089-4.567-1.863zM415.025 447.527l4.056-3.497-18.32-22.414-4.198 3.393zM337.985 482.396c-4.538 1.548-10.286-1.696-12.148-7.39-1.787-5.468 2.272-11.048 6.723-12.232 4.716-1.254 10.398 1.134 12.056 6.694 1.889 6.33-1.312 11.114-6.63 12.928m1.383 4.608c8.498-2.521 13.093-10.48 10.594-19.28-2.394-8.43-11.274-11.893-19.14-9.572-8.72 2.572-12.475 11.196-10.292 18.477 2.544 8.485 10.757 12.772 18.838 10.375" style="fill:#fff;fill-rule:evenodd;stroke-width:.921346" transform="matrix(1.08537 0 0 1.08537 -.407 0)"></path></g><g style="stroke-width:.921346" data-source="https://football-logos.cc"><path d="M255.07 290.163h19.5v47.1c0 12.012-3.737 20.03-8.546 26.926-5.601 8.032-12.95 14.873-22.827 19.99l-22.224-11.221c9.842-4.134 18.936-9.104 25.547-16.645 5.247-5.984 8.55-12.463 8.55-19.05zM298.442 290.163h-19.5v47.1c0 12.012 3.737 20.03 8.546 26.926 5.601 8.032 12.95 14.873 22.827 19.99l22.224-11.221c-9.842-4.134-18.936-9.104-25.547-16.645-5.247-5.984-8.55-12.463-8.55-19.05z" style="fill:none;stroke-width:.921346" transform="matrix(1.08537 0 0 1.08537 -.407 0)"></path><path d="M198.967 354.567a108.6 108.6 0 0 0 23.352 17.816c9.172-3.99 17.987-8.982 24.201-16.07 5.247-5.984 8.55-12.463 8.55-19.05v-47.1h19.5v47.1c0 12.012-3.287 19.805-8.546 26.926-3.677 5.272-8.106 10.031-13.51 14.126l-.005.005a60 60 0 0 1-5.989 4.145c9.51 2.67 19.566 4.096 29.99 4.096 10.562 0 20.79-1.473 30.484-4.222-8.23-4.872-14.551-11.045-19.506-18.15-4.809-6.896-8.546-14.913-8.546-26.926v-47.1h19.642v47.1c0 6.587 3.765 12.518 9.027 18.488 6.175 7.005 14.91 12.33 23.903 16.314a111.3 111.3 0 0 0 23.445-17.805c20.026-19.898 32.448-47.395 32.448-77.848 0-30.426-12.417-57.835-32.43-77.662-20.114-19.926-47.92-32.205-78.524-32.205-30.456 0-57.77 12.23-77.478 32.06-19.778 19.9-31.92 47.477-31.92 78.051 0 30.553 12.141 58.063 31.913 77.912zm16.277-79.102v-37.2h21.226v14.4h18.6v-14.4h43.479v14.4h18.6v-14.4h21.095v37.2h-39.3v8.925H255.37v-8.925zm54.798-48.813v-20.784h4.718v20.784zm-36.104 0h-15.799v-20.784h15.65v4.074h-11.214v4.181h9.873v4.035h-9.873v4.278h11.363zm4.073 0v-20.784h4.718v20.784zm16.287 0-8.34-20.784h5.182l5.447 14.566 5.252-14.566h5.009l-8.386 20.784zm47.793-9.154c-2.44-.95-4.242-2.22-4.299-5.456-.08-4.668 3.257-6.347 7.394-6.347 2.896 0 5.315.46 7.833 2.423l-2.541 3.689c-.81-.982-3.352-2.234-5.285-2.253-1.89-.019-2.835.763-2.835 1.914 0 1.306 1.303 1.852 2.313 2.114.601.155 1.42.418 2.216.602 3.315.762 6.663 1.934 6.663 6.237 0 4.872-4.258 6.465-8.329 6.465-3.182 0-5.614-1.22-8.283-3.326l2.808-3.248c1.137 1.29 4.173 2.541 6.21 2.523 1.87-.017 2.924-.892 2.935-2.02.014-1.581-2.058-2.103-4.01-2.525-.683-.148-2.023-.494-2.79-.792m-15.436 9.388c-3.183 0-5.615-1.22-8.284-3.326l2.808-3.248c1.137 1.29 4.173 2.541 6.21 2.523 1.87-.017 2.925-.892 2.935-2.02.014-1.581-2.058-2.103-4.01-2.525-.683-.148-2.023-.494-2.79-.792-2.44-.95-4.242-2.22-4.298-5.456-.082-4.668 3.257-6.347 7.393-6.347 2.896 0 5.315.46 7.833 2.423l-2.541 3.689c-.81-.982-3.352-2.234-5.285-2.253-1.89-.019-2.835.763-2.835 1.914 0 1.306 1.303 1.852 2.313 2.114.601.155 1.42.418 2.216.602 3.315.762 6.663 1.934 6.663 6.237 0 4.872-4.258 6.465-8.328 6.465m28.405-.234 8.914-20.784h4.486l8.63 20.784h-4.705l-2.056-4.655h-8.54l-1.882 4.655z" style="fill:#fff;fill-rule:evenodd;stroke-width:.921346" transform="matrix(1.08537 0 0 1.08537 -.407 0)"></path><path d="M190.105 190.085C211.985 168.07 242.27 154.49 276 154.49c33.831 0 64.603 13.609 86.895 35.693 22.194 21.988 35.965 52.37 35.965 86.08 0 33.73-13.775 64.2-35.983 86.266-22.27 22.127-53.008 35.788-86.82 35.788-33.747 0-64.06-13.541-85.96-35.527-21.932-22.018-35.401-52.487-35.401-86.283 0-33.81 13.469-64.347 35.408-86.422" style="fill:#edb34c;fill-rule:evenodd;stroke-width:.921346" transform="matrix(1.08537 0 0 1.08537 -.407 0)"></path><path d="M274.12 337.114v-47.1h-19.501v47.1c0 6.587-3.304 13.066-8.55 19.05-6.214 7.088-15.03 12.08-24.202 16.07a108.6 108.6 0 0 1-23.351-17.815c-19.772-19.849-31.914-47.36-31.914-77.912 0-30.575 12.143-58.15 31.92-78.05 19.709-19.83 47.023-32.061 77.479-32.061 30.605 0 58.41 12.279 78.524 32.205 20.013 19.827 32.43 47.236 32.43 77.662 0 30.453-12.422 57.95-32.448 77.848a111.3 111.3 0 0 1-23.444 17.805c-8.994-3.984-17.73-9.31-23.904-16.315-5.262-5.97-9.027-11.9-9.027-18.487v-47.1H278.49v47.1c0 12.012 4.07 19.907 9.072 26.664 5.055 6.827 11.016 13.38 18.998 18.407a111.6 111.6 0 0 1-30.503 4.227c-10.423 0-20.479-1.427-29.988-4.096 8.037-4.855 14.445-11.426 19.504-18.276 5.259-7.12 8.546-14.913 8.546-26.926" style="fill:#fff;fill-rule:evenodd;stroke-width:.921346" transform="matrix(1.08537 0 0 1.08537 -.407 0)"></path><path d="M215.244 238.265h21.226v14.4h18.6v-14.4h43.479v14.4h18.6v-14.4h21.095v37.2h-39.3v8.925H255.37v-8.925h-40.125z" style="fill:#edb34c;fill-opacity:1;fill-rule:evenodd;stroke-width:.921346" transform="matrix(1.08537 0 0 1.08537 -.407 0)"></path><g style="fill:#edb34c;fill-opacity:1;stroke-width:.921346"><path d="m344.552 350.284-8.914 20.783h4.847l1.883-4.654h8.538l2.057 4.654h4.705l-8.63-20.783zm2.102 5.474 2.692 6.523h-5.357zM312.489 356.223c-.81-.982-3.352-2.234-5.285-2.253-1.89-.019-2.835.763-2.835 1.914 0 1.305 1.303 1.852 2.313 2.114.601.155 1.42.418 2.216.601 3.315.763 6.663 1.935 6.663 6.238 0 4.872-4.258 6.464-8.328 6.464-3.183 0-5.615-1.218-8.284-3.325l2.808-3.249c1.137 1.291 4.173 2.542 6.21 2.524 1.87-.018 2.925-.893 2.935-2.02.014-1.581-2.058-2.103-4.01-2.526-.683-.147-2.023-.493-2.79-.791-2.44-.95-4.242-2.22-4.298-5.456-.082-4.668 3.257-6.348 7.393-6.348 2.896 0 5.315.461 7.833 2.424zM271.718 350.284l5.447 14.566 5.252-14.566h5.009l-8.386 20.783h-4.164l-8.34-20.783zM258.589 371.067v-20.783h4.718v20.783zM254.516 366.852v4.215h-15.799v-20.783h15.65v4.073h-11.215v4.182h9.874v4.035h-9.874v4.278zM290.62 371.067v-20.783h4.718v20.783zM331.056 356.223c-.81-.982-3.352-2.234-5.285-2.253-1.89-.019-2.835.763-2.835 1.914 0 1.305 1.303 1.852 2.313 2.114.601.155 1.42.418 2.216.601 3.315.763 6.663 1.935 6.663 6.238 0 4.872-4.258 6.464-8.329 6.464-3.182 0-5.614-1.218-8.283-3.325l2.808-3.249c1.137 1.291 4.173 2.542 6.21 2.524 1.87-.018 2.924-.893 2.935-2.02.014-1.581-2.058-2.103-4.01-2.526-.683-.147-2.023-.493-2.79-.791-2.44-.95-4.242-2.22-4.299-5.456-.08-4.668 3.257-6.348 7.394-6.348 2.896 0 5.315.461 7.833 2.424z" style="fill:#edb34c;fill-opacity:1;fill-rule:evenodd;stroke-width:.921346" transform="matrix(1.08537 0 0 1.08537 -22.742 -156.744)"></path></g></g><!-- source: https://football-logos.cc --></svg>