<svg xmlns="http://www.w3.org/2000/svg" xml:space="preserve" style="fill-rule:evenodd" viewBox="-6104.24 7.98 17018 20001.35"><!-- Source: https://football-logos.cc --><defs id="defs4" data-source="https://football-logos.cc"><style id="style6" type="text/css">.fil1{fill:#000}.fil3{fill:#fff}.fil0{fill:#029ce4}</style></defs><g transform="matrix(17.00055 0 0 17.11096 -6107.382 -40.082)" data-source="https://football-logos.cc"><path id="path45" d="M420.01 18c70.66 0 141.32 0 211.99.01-.01 2.66 0 5.32 0 7.98 11.33.02 22.66 0 34 .02.01 5.33-.02 10.66.01 15.99 27.33.01 54.65-.01 81.98 0 .03 7.97-.02 15.94.03 23.91q35.985-.03 71.97 0c.02 4.66-.01 9.33.02 13.99 11.33 0 22.65-.01 33.98.01.03 5.99-.02 11.99.02 17.99 17.33 0 34.65-.01 51.98.01.04 7.3-.04 14.6.04 21.9 6.65-.02 13.3-.02 19.96 0 .12 10.31-.21 20.63.17 30.93 9.05 4.85 15.6 14.08 17.03 24.27 1.03 6.03-.03 12.2-2.07 17.92.63 1.26.99 2.62.9 4.05-.04 8.33-.02 16.66-.02 25 .03 4.35-.35 8.77.79 13.02 1.46 5.47.2 11.13.79 16.68 3.47.02 6.94.02 10.41.02.05 7.35-.06 14.69.06 22.03 3.31-.04 6.62-.04 9.94-.02.07 25.11-.1 50.23.09 75.34 2.48 2.75 5.78 4.79 7.91 7.93 5.8 7.54 8.06 17.63 6.05 26.93-1.06 4 .68 8.04.06 12.08-.4 2.97-.9 5.99-.26 8.98.99 5.77-.15 11.68-2.16 17.11 2.08 4.37 3.91 9 4.02 13.91.14 6.29 1.85 12.59.55 18.86-.35 2.33-1.58 4.73-.51 7.05 1.9 5.84 2.41 12.2 1.01 18.22-.47 2.23-1.51 4.55-.45 6.8 2.1 6.18 1.52 12.79.43 19.1 1.95 7.14 2.46 14.83-.18 21.88-1.51 3.58.48 7.33.11 11.04.16 4.11-1.54 7.99-1.55 12.08.05 7.4-1.98 14.61-2 22.02-.27 8.78-.03 17.57-.11 26.36-2.99.01-5.96.01-8.93-.05-.17 10.61-.02 21.23-.08 31.85-2.66 0-5.33 0-7.98-.01-.03 14.64 0 29.27-.01 43.91-3.03.03-6.05-.11-9.06.06-2.54 4.64-1.42 10.03-2.45 15.02-1.46 7.89-5.95 15.11-12.26 20.04-1.86 1.18-2.18 3.42-2.83 5.35.58 5.36-.22 10.72-1.75 15.87-.19 4.38.03 8.87-1.43 13.11-.92 2.37-1.12 4.9-1 7.44-.08 10.81-5.97 21.05-14.79 27.17-.5 8.1-3.45 16.17-9.14 22.08-2.76 3.28-7 4.99-9.27 8.71-2.15 3.2-5.31 5.43-8.08 8.04-2.06 2.66-3.75 5.63-6.3 7.89-3.58 3.18-4.84 8.09-8.24 11.45-3.37 4.14-8.26 6.47-12.65 9.2a38.74 38.74 0 0 1-10.44 18.46c-.31 4.57.08 9.17-.2 13.76-4.08-.1-8.14-.02-12.21-.06-3.26 2.29-4.7 6.11-6.92 9.28-2.76 4.56-2.32 10-2.28 15.1-1.84.01-3.67.05-5.49.11-3.66 4.2-8.25 7.63-13.51 9.54-2.57.81-4.56 2.65-6.64 4.27-.34 10.76-.05 21.54-.15 32.31-7.44.06-14.88-.13-22.31.1-2.37 4.25-6.53 6.93-9.67 10.5-4.68 7.95-12.55 13.98-21.59 16.01-.1 6.46-.02 12.92-.05 19.39-7.9.1-15.8-.19-23.68.15-.06 11.8-7.13 23.17-17.57 28.61-3.25 1.92-7.21 2.34-10.2 4.71-2.87 2.22-6.56 3.26-8.92 6.13-3.11 3.69-7.99 5.26-10.85 9.19-4.95 6.07-12.3 9.45-19.75 11.23-4.17 7.32-10.57 13.55-18.68 16.27-2.82.54-3.92 3.35-5.72 5.22-4.45 4.9-10.44 8.3-16.85 9.87-2.27.17-3.16 2.42-4.55 3.86-4.57 5.53-11.08 9.15-17.98 10.93-3.12 9.95-10.76 18.42-20.67 21.91-3.77 1.67-8.33 1.01-11.64 3.75-4.01 2.81-8.75 4.26-13.47 5.38-3.48 6.9-9.37 12.57-16.5 15.6-2.95 1.39-6.26 2.22-8.69 4.5-7.76 7.37-19.27 10.46-29.69 8.11-7.93-1.64-15.1-6.39-19.84-12.93-1.01-1.35-1.87-2.96-3.55-3.52-5.4-2.3-9.93-6.21-13.54-10.78-12.42-.27-24.48-7.69-29.69-19.07-8.7-1.19-17.29-4.93-22.88-11.92-2.39-3.39-6.51-4.73-9.38-7.59-2.68-2.3-4.39-5.64-7.57-7.34-4.21-2.32-7.01-6.32-10.4-9.56-4.21-1.8-7.93-4.43-11.49-7.26-10.25-1.22-18.48-7.83-26.08-14.23-2.72-3.25-7.03-4.2-10.27-6.76-3.91-2.76-6.78-6.62-9.51-10.47-3.28-2.95-6.91-5.65-9.34-9.41-3.92-6.78-10.02-13.53-18.34-14.12-9.11-.82-17.3-6.03-22.99-13.02h-2.7c-.33-2.68-3.18-3.54-4.83-5.25-2.95-2.39-4.62-6.08-7.94-8.03-2.86-1.74-4.95-4.56-8.07-5.87-8.29-3.74-14.83-11.08-17.64-19.71-.89-2.68-1.09-5.63-2.76-7.99-3.64-5.36-3.96-12.51-8.89-17.04-8.55-.13-17.11-.02-25.67-.04-.03-5.13 0-10.25-.02-15.36-3.98-2.59-6.65-6.53-9.92-9.83-6.23-3.85-11.06-9.6-14.08-16.24-3.48-3.88-7.26-7.69-9.12-12.68-1.52-4.72-5.64-7.91-7.37-12.52-.47-1.85-2.33-2.4-3.84-3.09-5.56-2.33-10.33-6.38-13.78-11.29-2.94-5.6-8.79-8.97-11.27-14.89-1.53-4.45-5.74-6.99-7.9-11.05-2.17-4.03-6.47-6.21-9-9.97-2.85-3.4-3.75-8.03-7.05-11.09-3.47-3.56-5.15-8.27-7.29-12.63-5.03-5.95-8.28-13.43-8.52-21.28-.51-6.99-6.81-11.35-8.75-17.81-2.46-5.7-2.05-11.97-2.11-18-.83-8.08-9.49-10.96-13.01-17.5-3.17-4.29-3.51-9.96-6.98-14.05-5.32-7.63-6.54-17.42-4.84-26.42-.91-.01-2.74-.01-3.66-.01-.09-8.74.16-17.49-.11-26.22-1.14-3.89-2.79-7.7-2.73-11.83.27-8.74-3.13-17.66-9.47-23.74-6.28-6.8-8.77-16.19-8.51-25.28-3.61-9.78-2.82-21 2.56-29.99-2.22-4.31-3.67-8.98-4.17-13.81-.04-62.16 1.12-124.65 11.23-186.13 6.85-42.18 18.26-83.54 32.75-123.71 2.24-4.82.94-10.25 2.12-15.32-.22-4.69-1.14-9.36-.54-14.08-1-4.89-2.23-9.87-1.41-14.89.88-4.08-.75-8.07-.81-12.15-.28-4.04 1.43-8.01.5-12.03-.96-5.17-.48-10.54 1.12-15.54 1.17-3.39.38-7.02.86-10.51 1.12-9.56 6.77-18.47 14.89-23.63 3.25-2.02 5.23-5.44 8.23-7.77 4.26-3.39 7.16-8.26 11.9-11.09 6.61-4.53 14.76-5.98 22.64-5.57 4.23-.98 8.47-1.82 12.81-2.09 3.56-1.2 7.27-1.99 10.85-3.05 3.87-3.06 8-5.96 12.84-7.25 3.71-.73 6.25-3.71 9.49-5.4 3.01-1.75 6.66-2.32 9.29-4.73 5.98-5.06 13.83-7.63 21.62-7.64.03-1.25.05-2.5.09-3.74 16.31-.08 32.63.1 48.94-.1 4.72-14.71 20.6-24.65 35.91-22.25 3.98 1.14 7.35-1.68 11.11-2.35 3.67-1.06 7.75-.18 11.14-2.2 5.44-2.96 11.68-3.49 17.75-3.68 5.47-1.78 11.29-3.2 17.08-2.19 6.04 1.32 12.09-1.32 18.17.09 5.38-2.4 10.88-4.76 16.87-5.11 3.52-2.54 6.83-5.53 10.99-7.03 10.34-4.44 22.8-3.02 31.99 3.42-.01-2.17 0-4.34.02-6.51" style="fill:#fff"></path></g><g transform="translate(-8095.242 -4841.664)" data-source="https://football-logos.cc"><path id="path11" d="M3127 6641c2497-1181 4922-1773 7298-1791 2529-19 5242 731 7425 1782 843 2380 1309 5105 748 7990 141-2017-100-4196-950-6210-2437-1039-4759-1599-7180-1597-2377 2-4999 618-7194 1616-800 2030-960 3374-950 5895-452-2704-22-5249 803-7686z" class="fil0" style="fill:#029ce4"></path><path id="path13" d="m1991 14285 609-83c487 3212 2486 6039 5023 8171l-351 462c-2688-2041-4852-5213-5281-8550" class="fil1" style="fill:#000"></path><path id="path15" d="m19009 14650-607-98c-639 3217-2540 5608-4667 7576l340 470c2257-1717 4526-5038 4934-7948" class="fil1" style="fill:#000"></path><path id="path17" d="M10514 24568c1192-704 2335-1534 3413-2400l94-76 152 189-94 76c-1106 889-2280 1739-3505 2457l-63 37-62-38c-1097-679-2172-1417-3179-2224l-94-76 151-189 94 76c980 786 2025 1506 3093 2169z" class="fil1" style="fill:#000"></path><path id="path19" d="m2878 11721 2202 1-24 1296c-23 1247 204 2516 591 3723l-619 969-1565-1158c-606-1540-843-3186-585-4832zm13123 7 2198 1c201 1667-24 3244-552 4682l-1502 1373-716-1050c365-1164 572-2375 572-3602v-1405z" class="fil0" style="fill:#029ce4"></path><path id="path21" d="M5416 11728h884v5730c-591-1519-894-3044-889-4433zm2121 0h1166v9856c-429-531-818-1082-1166-1646v-8209zm2403 0h1182v11231c-198 188-395 365-591 529q-304.5-267-591-546zm2419 0h1166v8264c-364 583-758 1127-1166 1627zm2403 0h884v1405c0 1545-339 3041-884 4420v-5826z" style="fill:#e5111d"></path><g id="g23"><path id="path25" d="m3257 15980 1623 1422 671-976c65 221 136 439 211 656 64 182 131 362 201 541l-316 452 848 743c267 536 565 1059 891 1563l-2082-1816-407 582c-213-294-413-595-598-903l238-347-793-691c-189-401-353-810-489-1226z" class="fil1" style="fill:#000"></path><path id="path27" d="m17810 15931-1679 1471-627-912c-119 405-256 804-412 1196l271 389-721 631c-105 216-215 429-329 640-170 313-354 624-549 931l1946-1705 434 621c213-291 413-591 599-901l-268-389 875-766c177-391 331-793 460-1206" class="fil1" style="fill:#000"></path></g><path id="path29" d="M3640 13463h835c1 263-109 488-294 651l3 295 439 253-2 122H3494v-122l445-254 2-282c-186-177-288-381-299-664z" class="fil3" style="fill:#fff"></path><path id="path31" d="M4057 13463h417c1 263-109 488-294 651l3 295 439 253-2 122h-563z" class="fil1" style="fill:#000"></path><circle cx="4057" cy="13015" r="293" class="fil3" style="fill:#fff"></circle><circle cx="17020" cy="14178" r="590" class="fil3" style="fill:#fff"></circle><circle cx="17020" cy="14178" r="452" class="fil3" style="fill:#fff"></circle><path id="path39" d="M17020 13725c250 0 452 203 452 452 0 250-203 452-452 452h-2v-905h2z" class="fil1" style="fill:#000"></path><path id="rect41" d="M16695 13202h659v402h-659z" class="fil3" style="fill:#fff"></path><path id="polygon43" d="M17264 13180h-489l-199-373 279 188 38-311 127 247 127-252 37 315 279-187z" class="fil3" style="fill:#fff"></path><g id="g45"><path id="polygon47" d="M4207 8966v1988l784 192h1500l557-1378-844 79-5 204-311 476-624 44V8381z" class="fil1" style="fill:#000"></path><path id="path49" d="m7882 8065-1064 424v1566c0 720 436 1145 1580 1138 544-3 1542-134 1542-1119V8232l-799-295v2180c0 283-318 399-575 406-210 6-684 21-684-397z" class="fil1" style="fill:#000"></path><path id="path51" d="M12470 9212h590l-221-720c-355-357-791-495-1291-507-787-19-1630 631-1642 1628-10 802 542 1575 1707 1587 584 6 1411-298 1587-941 3-295-3-457 0-752-504-22-1009-43-1513-65v676h581c-9 274-323 423-627 408-317-16-519-158-583-429-56-238-45-595-26-837 24-298 189-594 637-556 369 32 617 191 803 507z" class="fil1" style="fill:#000"></path><path id="path53" d="M14647 8258c1154 15 2223 826 2223 1628 0 788-857 1324-1891 1324s-1850-624-1896-1476c-45-840 567-1489 1564-1476m1075 1370v337c0 510-321 614-707 606-367-8-762-134-762-597v-470c0-473 312-599 679-584s790 212 790 709z" class="fil1" style="fill:#000"></path></g><g id="g55"><path id="path57" d="m8202 5662 206-105 225-21c461-43 541 243 529 407-26 368-324 531-639 547l-189 10-182-54zm730 300c20-183-54-344-314-328l-197 22-46 745 143-10c334-24 395-259 414-429" class="fil3" style="fill:#fff"></path><path id="path59" d="m5544 6236 235-120-66 591c-17 157-8 224 183 201 216-25 346-186 362-356l57-614 154 27-54 553c-36 367-339 487-532 520-221 37-426 16-405-184l65-619z" class="fil3" style="fill:#fff"></path><path id="polygon61" d="m4852 6402-159 892 207-60 253-317 8-62 153-19-225 468-487 145-144-70 133-794z" class="fil3" style="fill:#fff"></path><path id="polygon63" d="m9575 5451 493-23 185 315-150 2-4-27-121-180-394 14-10 297 327-5-2 105-329 6-9 315 428-12 127-222 1-39 160-5-136 355-657 24-148-94 20-722z" class="fil3" style="fill:#fff"></path><path id="path65" d="m6648 5951 205-112 280-61c286-62 429-20 412 144-9 88-94 208-235 252 252 16 262 170 230 250-73 185-260 251-573 310l-210 40-177-32zm195 285 200-36c61-11 128-29 185-71 44-33 86-84 96-139 21-110-42-160-202-123l-255 60zm234 48-243 49-34 345 153-27c226-39 326-93 362-213 52-173-65-190-239-155z" class="fil3" style="fill:#fff"></path><path id="path67" d="m10466 5551 195-111 283-4c281-4 399 140 394 287-7 185-142 254-379 255h-275l2 388-217-69zm219 330 197-1c153-1 245 7 252-167 5-108-55-194-212-188l-239 9 1 348z" class="fil3" style="fill:#fff"></path><path id="path69" d="m12813 5698 199-55 286 35c284 34 415 193 416 338 0 91-111 145-197 144 78 30 203 112 231 247l55 259-219-19-53-268c-28-145-135-172-257-188l-223-29 23 401-222-98-38-767zm234 368 205 26c155 20 248 40 249-131 0-106-63-183-222-199l-253-24z" class="fil3" style="fill:#fff"></path><path id="polygon71" d="m13908 5790 983 240 8 89-386-94 64 823-236-119-53-759-372-91z" class="fil3" style="fill:#fff"></path><path id="polygon73" d="m15294 6166 118 954-243-143-106-883z" class="fil3" style="fill:#fff"></path><path id="polygon75" d="m16128 7377-197-66-451-1078 232 22 333 896 145-705 173 81z" class="fil3" style="fill:#fff"></path><path id="path77" d="M12018 5465c332 18 596 241 624 531s-196 488-528 470-588-219-619-508c-34-323 190-510 522-492zm31 101c159 15 255 102 299 240 34 107 60 269 30 384-34 130-158 178-283 165-143-14-275-86-313-245-22-95-36-198-23-310 17-147 109-251 291-234z" class="fil3" style="fill:#fff"></path><path id="path79" d="M17002 6727c328 132 603 445 650 745s-160 421-488 290c-328-132-594-420-643-720-55-335 153-446 481-314zm37 111c158 69 257 189 310 342 41 119 77 290 55 394-25 119-143 124-268 68-141-63-277-181-324-352-28-102-49-210-44-318 7-142 91-214 270-135z" class="fil3" style="fill:#fff"></path><path id="path81" d="M4076 6733c-294 67-582 417-634 717s143 446 467 301c175-79 349-310 433-541l-99 11c-107 245-243 372-359 423-82 36-171 45-194-74-20-104 13-236 56-355 55-153 192-336 332-375 119-34 197 71 190 176l91-17-15-191c-57-86-179-93-267-73z" class="fil3" style="fill:#fff"></path></g></g><!-- source: https://football-logos.cc --></svg>