<svg xmlns="http://www.w3.org/2000/svg" xml:space="preserve" viewBox="0 0 460.14 770.59"><!-- Source: https://football-logos.cc --><path d="M1499.7 5686.2c2.7-42.4 5.5-84.8 8.3-127.1-15.7-1.5-31.4-3-47-4.4-4 42.2-7.5 84.4-10.2 126.7-68.9-4.3-137.6-11.2-206.5-16.6 2.1-41.3 4.2-82.5 6.3-123.8-14.7-1.2-29.4-2.5-44.1-3.7-4 45.1-8.1 90.2-12.2 135.3-69.1-9.3-138.2-19.5-207.499-28.1 6-104 12.097-208 18.499-312 22.4 1.8 44.9 3.5 67.3 5.2 5.7-81.5 12.6-162.9 17.8-244.4-50-8.8-99.599-19.7-149.201-30.9-29.097 75.4-57.301 151.2-86.5 226.7 20.903 7.3 41.801 14.5 62.699 21.8-34.796 100.9-72.699 200.7-108.597 301.2-63.801-23.4-127.5-47-191.403-70.1 12.403-40.6 26.704-80.5 40.5-120.7-14.699-5.7-29.5-11.4-44.199-17.1-14.898 40.1-29.398 80.3-43.801 120.5q-97.195-34.95-194.398-70.2c12.898-39.1 25.5-78.3 38.301-117.4-13.801-5.2-27.602-10.5-41.403-15.7-16 42.4-31.699 85-47 127.7-64.796-26.4-129.097-54-193.5-81.2 33.204-98.5 65.602-197.3 99-295.8 21.301 7.4 42.5 14.7 63.801 21.9 24.5-69.8 48.903-139.5 73.102-209.4-21.5-8.4-42.903-16.7-64.403-25 27.301-61.1 53.602-122.8 82.801-183.2 5.699.5 17.102 1.5 22.801 1.9 23.699-.5-1.602-22.3-11.602-22.6 25.204-61.3 49.903-122.9 74.602-184.5 5.801-13.3 10.699-28.8 25.699-34.9-34.898-75.2-78.097-148.2-140.199-204.2-80.5-74.6-185.5-117.6-292-138.9-.102-891.3.2-1782.6-.102-2673.8C62 1286.6 96.7 1156.2 142.2 1032.6 212.602 849.199 317 676.199 460.102 540.398 562.699 442.801 694.898 364.898 839.801 362c196.599-.398 393.199.102 589.699-.199 43.8-.199 87.4-14.102 123-39.602 81-57.597 130.9-146.199 180.8-229.8 42.6 75.499 86.5 153.601 155.2 208.8 47.6 39.903 109.4 60.602 171.3 60.602 190.2.398 380.5-.301 570.8.301 134.1 4.398 257.6 73.699 353.7 163.699 133.2 124.699 228.1 285 297.9 452.301 64 158.998 109.5 329.098 104.5 501.698-1 874.5 1.2 1749-.1 2623.5-65 9-130.3 23.6-188.6 54.7-112.7 58-187.5 168.5-231.2 284.5 32.8 70.9 65.1 142.1 98.2 213l-31.2 14.4c4.3 2.6 12.8 7.7 17 10.3l17.7-3.3c31.5 61.1 61.9 122.7 93 184-19.4 8-38.9 15.9-58.3 23.8 24.4 69.7 48.9 139.3 72.9 209.2 21.4-7.1 42.7-14.4 64.1-21.8 33.5 98.5 66.1 197.3 99.1 296-64.4 27.1-128.8 54.3-193.3 81.3-16-42.5-30.6-85.5-47.6-127.7-13.5 5-27.1 10-40.6 14.9 11.8 39.5 25 78.7 38.2 117.7-64.8 23.8-129.7 47.3-194.7 70.3-14.4-40.1-29.2-80.1-43.3-120.3-15.1 5.8-30 11.8-44.9 17.9 14.6 39.5 27.8 79.6 41.2 119.6-64.2 22.9-127.7 47.9-192.3 69.7-36-100.2-73-200-108.5-300.5 21.1-7.1 42.2-14.4 63.1-22.2-29.2-74.3-56.5-149.3-85.8-223.6-49.9 11.5-100 21.7-150.2 31.4 5.9 80.4 11.7 160.8 17.9 241.1 22.3-1.7 44.6-3.4 66.9-5.2 7 104 13.7 208 18.3 312.1-69.2 9.1-138.3 19.2-207.6 27.8-3-45.1-7-90.1-11.6-135-14.7 1.1-29.3 2.3-43.9 3.5 2 41.3 4.1 82.5 7.1 123.7-68.8 6-137.6 12-206.4 17.1-4.1-42.2-7.6-84.5-10.8-126.9-15.9 1.4-31.8 2.8-47.6 4.2 2.7 42.5 6.1 84.9 8.7 127.3-68 5.9-135.9 12.4-203.9 18.5-9.5-106-18.1-212.1-28-318.1 22.4-2.2 44.7-4.1 67.1-5.9-7.2-74.8-16.2-149.4-22.1-224.4-32.4.1-64.9.1-97.3-.5-8.1 74.9-15.1 149.9-23.1 224.9 22.3 1.7 44.6 3.6 66.9 5.6-9.3 106.1-18.7 212.3-27.5 318.5-68-6.5-136-13-204-18.7m245.4 93.2h8.7c235.1-26 471.3-42.5 706.9-64.2 31.3-3.6 75.9 1 89.7-35.3 4.6-63.5-6.8-126.9-7.1-190.4 24.1 56.7 40.3 116.5 65.2 172.9 10.3 25.8 43.2 31.4 66.3 20 234.6-85.4 469.3-170.3 703.6-256.3 26.3-7.6 40.4-39.1 29.3-64-36.9-110.7-72.8-221.8-111.6-331.8-10.5-34.4-52.1-28.8-79.7-23.8-9-26.4-18.1-52.7-27.3-79 30.6-11.3 62.6-42.4 41.4-76.9-62.9-135.8-126.3-271.3-190.3-406.6 39.4-94.3 104.5-182.7 198.4-228 53.7-28.7 114.5-36.2 173.6-46.2 24.6-2.1 40.7-26.4 38.7-50 .3-893.3-.1-1786.6.1-2679.9-.7-187.6-53.4-371.6-130.3-541.599-72-157.403-167.1-306.801-294.8-424.903-108.3-99.097-247.1-173.5-396.4-177.199-192.9-1.597-385.9-.301-578.9-.898-51.4-.301-100.3-24.102-136.8-59.5-58.8-54.699-93.7-128.199-134.1-196.2C1768.8 21 1752.4 1.302 1729.2 0c-17.8 7.3-33.1 19.898-42.2 36.898-44.5 73.5-84.2 152.301-148.3 211.301-29.4 27.301-67.4 48.602-108.6 47.199-196.7.301-393.5-.597-590.202.602-147.597 2.398-285.597 73.398-395.5 168-122.398 106.699-219.5 240.301-294 384C68.5 1007.5 9.699 1181.4 0 1361.5v2752c1.602 22.6 17 42.6 39.898 45.6 80.204 17.6 161 42.1 228.102 91.1 63.699 45.1 112.5 108.3 148.199 177.2-59.801 136.9-118.699 274.2-178.597 410.9-6 16-14.903 34-7.301 51 7.398 22.1 32.097 28.4 50.5 38.3-9.199 26.3-18.403 52.6-27.5 79-19.5-1.7-40.5-9-59.199.2-18.704 8.1-22.301 30.3-29.204 47.2-34.898 105.4-71.5 210.3-104.699 316.3-9.5 27.1 13.5 52.6 38.7 58.6 234.402 84.8 468.8 169.9 702.999 255.5 24.602 11.4 55.5-3.3 63-29.1 21.204-54.2 40.602-109.2 59.903-164.1-.102 56.4-4.301 112.6-8.199 168.8-1.801 26.5 21.199 50.8 47.699 51 260.299 22.4 520.499 45.7 780.799 68.4" style="fill:#fff;fill-opacity:1;fill-rule:nonzero;stroke:none" transform="matrix(.13333 0 0 -.13333 0 770.587)" data-source="https://football-logos.cc"></path><path d="M1738.14 5376.75c17.17-1.69 35.12-3.29 57.13-5.09-2.37-24.13-4.93-48.48-7.42-72.12-4.58-43.57-9.31-88.53-12.96-133.11-6.33.01-12.66.02-18.99.02-22.97 0-42.35-.13-60.12-.4-3.9 36.43-7.6 73.34-11.19 109.12-3.18 31.62-6.45 64.2-9.85 96.46 17.24 1.35 35.92 2.94 56.77 4.81l5.1.46zm1657.97-3896.66c-.47 417.53-.22 842.33.03 1253.14.27 449.05.55 913.39-.13 1370.08l-.01 8.7-8.61 1.2c-79.17 10.96-136.31 27.49-185.27 53.61-122.7 63.15-189.97 183.73-225.07 275.3 12.69 27.45 25.31 54.95 37.94 82.45 19.08 41.56 38.8 84.54 58.48 126.7l4.25 9.1-9.12 4.21-7.34 3.39 4.82-.9 7.31-1.36 3.41 6.61c19.34 37.52 38.58 75.83 57.18 112.89 11.91 23.73 23.83 47.47 35.85 71.17l4.89 9.64-10 4.12c-15.02 6.2-30.11 12.34-45.16 18.46l-4.36 1.78 10.29 29.39c18.53 52.88 37.66 107.46 56.26 161.51 19.62-6.57 38.42-13.03 54.59-18.63l9.5-3.29 3.24 9.52c23.43 68.88 46.8 139.06 69.4 206.92 9.89 29.71 19.78 59.43 29.72 89.13l2.94 8.79-8.55 3.6-56.47 23.78c-45.59 19.2-91.19 38.42-136.84 57.53l-9.57 4-3.65-9.7c-5.95-15.79-11.7-31.64-17.45-47.49-8.47-23.36-17.2-47.42-26.48-70.98-7.53 2.78-15.08 5.56-22.62 8.31 10.63 34.92 22.36 69.88 35.38 108.32l3.12 9.24-9.15 3.36c-70.45 25.87-134.17 48.88-194.81 70.34l-9.38 3.32-3.37-9.37c-5.17-14.4-10.39-28.79-15.62-43.18-8.02-22.09-16.28-44.83-24.27-67.45-8 3.13-16.5 6.53-26.19 10.47 11.56 31.77 22.39 64.2 32.9 95.64l5.07 15.17 3.12 9.3-9.24 3.29c-25.31 9.03-50.97 18.55-75.78 27.76-38.09 14.15-77.47 28.77-116.68 42l-9.29 3.13-3.32-9.23c-14.23-39.61-28.62-79.15-43.01-118.71-21.64-59.5-44.03-121.04-65.51-181.84l-3.38-9.57 9.62-3.24c20.94-7.04 37.81-12.92 53.26-18.57-13.02-33.33-25.82-67.14-38.25-99.93-13.19-34.85-26.81-70.81-40.67-106.15-39.22 8.92-82.06 17.86-133.42 27.86l2.87 39.23c4.39 60 8.92 121.95 13.61 183.01 18.97-1.45 37.93-2.91 56.89-4.44l10.1-.81.68 10.11c6.36 94.46 13.54 204.28 18.31 312.33l.41 9.16-9.09 1.2c-27.6 3.62-55.17 7.41-82.75 11.2-40.91 5.62-83.21 11.43-124.93 16.6l-10.5 1.31-.7-10.57c-2.6-38.92-6.06-79.89-10.59-124.95-8.18.64-16.33 1.3-24.48 1.96 1.79 36.66 3.81 75.31 6.62 113.81l.71 9.83-9.82.85c-67.67 5.9-137.64 12.01-206.53 17.11l-9.75.72-.94-9.72c-3.42-35.24-6.72-73.61-10.05-117.02l-27.79 2.45c1.1 16.67 2.29 33.32 3.47 49.96 1.59 22.16 3.22 45.07 4.6 67.63l.6 9.73-9.71.84c-40.65 3.53-81.26 7.27-121.88 11.01-27.33 2.52-54.65 5.04-81.99 7.49l-9.96.89-.9-9.96c-3.89-43.42-7.63-86.86-11.37-130.3-3.51-40.77-7.1-82.44-10.82-124.12-7.35 83.74-14.86 169.73-21.88 254.46l-.84 10.09-10.08-.96-.36-.04c-66.72-6.37-135.7-12.97-203.52-18.66l-9.77-.81.62-9.79c2.5-39.17 5.08-78.34 7.66-117.43-9.15-.87-18.27-1.74-27.35-2.57-3.89 41.83-6.92 80.03-9.25 116.48l-.63 9.96-9.97-.62c-43.73-2.73-88.07-6.56-130.94-10.27-25.23-2.18-50.46-4.36-75.72-6.34l-9.7-.76.49-9.72 2.13-41.71 3.68-72.42c-4.14-.34-8.27-.7-12.42-1.05l-12.12-1.02c-3.72 41.8-7.52 83.61-11.32 125.42l-.94 10.39-10.35-1.39c-24.62-3.31-49.23-6.74-73.85-10.17-43.75-6.09-88.99-12.39-133.55-17.92l-9.292-1.15.542-9.35c7.262-125.91 12.969-222.15 18.5-312.03l.625-10.18 10.155.82c19.05 1.53 38.17 2.99 57.23 4.44 2.17-30.43 4.48-60.84 6.79-91.25 3.35-43.97 6.8-89.34 9.73-134.15-45.82-8.29-91.799-18.37-132.42-27.52-13.09 34.01-26.176 68.51-38.86 101.97-13.308 35.1-27.035 71.3-40.816 107.04 7.117 2.48 14.234 4.94 21.352 7.41 10.531 3.66 21.062 7.31 31.593 10.99l9.403 3.29-3.246 9.41c-21.192 61.44-43.887 123.45-65.836 183.42-14.129 38.61-28.742 78.53-42.801 117.88l-3.391 9.5-9.468-3.47c-18.68-6.85-37.348-13.72-56.02-20.59-44.332-16.31-90.168-33.17-135.336-49.5l-8.941-3.23 2.777-9.09c9.723-31.83 20.762-63.69 31.441-94.51 2.012-5.8 4.028-11.61 6.032-17.42l-13.035-5.04-12.723-4.92c-14.395 38.91-28.34 77.67-40.238 110.88l-3.375 9.43-9.422-3.39a75177 75177 0 0 1-194.426-70.21l-9.129-3.31 3.039-9.22c7.594-23.01 15.078-46.05 22.563-69.08 4.25-13.08 8.496-26.15 12.761-39.22-3.925-1.48-7.855-2.98-11.781-4.47-3.773-1.44-7.543-2.87-11.316-4.3-15.09 40.13-29.68 79.84-43.414 118.17l-3.52 9.83-9.668-3.94c-49.375-20.11-99.238-41.26-147.461-61.7-15.383-6.53-30.765-13.05-46.156-19.55l-8.551-3.61 2.965-8.79c14.937-44.32 29.711-88.7 44.488-133.08 17.77-53.36 36.141-108.54 54.52-162.74l3.234-9.54 9.516 3.3a8641 8641 0 0 0 54.359 18.71c20.152-57.42 43.387-123.78 66.66-190.94-18.476-7.21-36.902-14.35-55.402-21.49l-9.824-3.79 4.297-9.62c7.277-16.29 14.492-32.63 21.703-48.98 19.539-44.28 39.742-90.06 61.222-134.49l3.004-6.22 6.875.61c3.492.3 9.133.8 14.278 1.23-1.711-1.06-3.336-1.83-4.43-1.99l-14.441-.43 5.668-13.35c25.214-61.33 50.304-123.91 74.566-184.42.766-1.77 1.402-3.29 2.047-4.82 4.285-10.19 9.402-22.36 19.992-30.41-40.598-85.65-83.297-147.04-133.953-192.72-72.231-66.94-168.848-112.84-287.262-136.52l-8.039-1.61v-8.2c-.039-356.52-.016-713.04.008-1069.56.035-534.77.07-1069.52-.11-1604.24-2.937-114.69 21.657-238.78 77.415-390.25 76.921-200.388 184.703-367.228 320.402-496.002C537.574 452.34 673.57 355.309 839.012 352c62.562-.129 124.976-.16 187.358-.16l125.09.031 125.05.027c50.81 0 101.59-.019 152.39-.097 41.86-.192 83.49-13.59 117.19-37.731 74.72-53.129 122.92-134.172 169.54-212.531l8.5-14.27 8.83-14.789 8.46 15.012.57.996c41.93 74.321 85.29 151.16 152.19 204.91 44.98 37.711 103.53 58.403 165.03 58.403 47.59.097 95.17.129 142.75.129 39.63 0 79.28-.02 118.92-.039 39.66-.02 79.32-.051 118.97-.051 63.41 0 126.79.058 190.19.262 122.28 4.007 250.21 63.097 360.51 166.398 119.93 112.281 220.96 265.621 300.29 455.75 75.3 187.05 109.71 352.47 105.27 505.84" style="fill:#100f0d;fill-opacity:1;fill-rule:nonzero;stroke:none" transform="matrix(.13333 0 0 -.13333 0 770.587)"></path><path d="M1559.7 5636.7c31.2 2.6 62.4 5 93.7 7.2 6.5-68.9 11.9-137.9 18.1-206.9-204.8-16.1-409.7-29.6-614.5-45.9-4 68.5-8.3 136.9-12.2 205.4 33.2 4.7 66.4 9.3 99.8 13.4 3.8-44 7.8-87.9 12-131.9 50.5 3.8 101 8.3 151.5 12.2-1.7 41.4-3.9 82.8-6 124.1 32.5 2.3 65 5.1 97.5 8.3 4.4-42.6 7.2-85.4 11.6-128 51.6 4.3 103.2 9.8 154.8 14.5-2.3 42.5-5.2 85-6.3 127.6M1799.8 5437c5.7 68.8 12.7 137.5 17.2 206.4 32-1.5 64-3.7 95.9-7-2.9-42.4-6-84.8-8.4-127.2 52-4.4 103.8-10 155.8-14.4 3.7 42.5 7.6 85.1 11.2 127.6 32.6-2.6 65.2-5.5 97.7-8.3-2.7-41.2-4.7-82.5-6.5-123.7 50.5-3.7 101-8.3 151.5-12.5 4.4 44.1 8.2 88.2 12.7 132.3 32.8-4.2 65.6-8.7 98.4-13-2.1-68.8-6.8-137.5-11.4-206.2-204.6 16.7-409.4 30.3-614.1 46M686.398 5508.6c29.801 11 59.704 22 89.602 32.7 23.602-65.6 47.801-131 71.199-196.6-194-67.2-387.801-135.1-581.699-202.4-21.801 65-44.301 129.7-64.699 195.1 30.801 13 61.699 25.9 92.597 38.8 15.301-41.5 30.5-83.1 46-124.6 47.704 16.9 95.301 34.1 143.102 51.1-12.301 39.5-25.199 78.7-38.102 118 30.403 11.6 61 23 92.204 32.5 15.398-39.3 29.199-79.2 43.296-119 49.301 16.3 97.5 35.7 146.301 53.4-11.801 40.8-26.5 80.7-39.801 121M2624.5 5344.5c22.7 66.2 46.6 131.8 71.5 197.2 29.5-11.3 59-22.2 88.7-32.9-13-40.4-27.3-80.4-40.4-120.8 48.8-18 97.6-36.4 146.5-54.4 14.5 40.3 28.9 80.7 43.8 120.9 30.6-11.2 61.3-22.3 92-33.6-12.3-39.4-25.5-78.5-38.1-117.8 47.9-17.4 95.7-34.9 144.1-51 14.8 41.5 29.8 82.9 45.4 124.1 31.1-12.9 62.1-26 93.1-39.1-21.2-64.6-44.5-128.4-63.6-193.7-195.3 64-388.4 135-583 201.1M1126.7 5357.5c160.3 11.6 320.5 24.6 480.9 35 9-84.8 18.1-169.5 25.8-254.5-163.1-3.2-326.4-13.7-487.7-39.1-6.2 86.2-12.8 172.4-19 258.6M1863.4 5392.5c160.7-10.5 321.1-22.8 481.6-35.2-7.2-86.2-12.8-172.6-19.6-258.8-161.5 24.2-324.7 33.9-487.7 40.1 8.7 84.6 16.9 169.3 25.7 253.9M341.699 5127.7c152 52.4 303.403 106.6 455.801 157.9 31.102-83.8 63.801-167.1 95-250.9-158.699-39.1-314.602-88.8-467.602-146.1-27.796 79.7-56.097 159.2-83.199 239.1M2579.5 5037.8c31.8 82.6 62.9 165.6 94.8 248.3 152-52.4 303.8-105.5 455.6-158.6-28-79.5-55.6-159-83.5-238.6-152.4 59.2-308.4 108.9-466.9 148.9M1248 5064.7c455.7 66.7 925 40.8 1370.2-77.6 158.8-41.2 314.7-93.4 467-154.5-14.3-29.7-29.1-59.1-44.5-88.3-344.8 137.7-708.9 231-1079.7 258.1-526.5 40.5-1058.5-58.8-1545.898-257.8-12.903 28.1-25.602 56.4-38.204 84.7 280.704 109.4 572.704 191.8 871.102 235.4" style="fill:#e8d90a;fill-opacity:1;fill-rule:nonzero;stroke:none" transform="matrix(.13333 0 0 -.13333 0 770.587)"></path><path d="M455.199 4718.2C936.301 4910.4 1460.3 5006 1978.2 4961.9c350.3-28.6 695.1-113.8 1021.4-243.6-6.8-15.1-13.5-30.3-20.3-45.5-395.3 161.9-821.8 251-1249.5 248.1-429.6-2.2-855.499-96.2-1255.101-251z" style="fill:#e8d90a;fill-opacity:1;fill-rule:nonzero;stroke:none" transform="matrix(.13333 0 0 -.13333 0 770.587)"></path><path d="M468.898 4626.8C952 4816.8 1476.3 4916.1 1995.7 4871.9c342.3-27 678.6-113.4 995.4-244.7-17.6-38.9-35.6-77.6-53.6-116.3-400.1 165-834.3 249.9-1267.4 237.3-395-11-785.401-98.4-1154.498-237.4-15.704 38.6-31.403 77.2-46.704 116" style="fill:#e8d90a;fill-opacity:1;fill-rule:nonzero;stroke:none" transform="matrix(.13333 0 0 -.13333 0 770.587)"></path><path d="M741.5 4525c454.9 147 942.5 204.1 1417.2 136.9 192.3-27.9 382.9-71 566-136.4-661-1.1-1322.1-.5-1983.2-.5" style="fill:#fff;fill-opacity:1;fill-rule:nonzero;stroke:none" transform="matrix(.13333 0 0 -.13333 0 770.587)"></path><path d="M565.398 4465.2c21.403 2.6 43 3.6 64.602 3.2 256.199-1.9 512.3.5 768.4-1.2 3.9-183.4 1.1-366.9 1.6-550.3-426.5.2-853-.5-1279.5.5 0 44 0 87.9.102 131.8 135.5 34 263.597 109.1 346.097 223.6 43.903 57.7 76.903 123.3 98.699 192.4" style="fill:#dd1938;fill-opacity:1;fill-rule:nonzero;stroke:none" transform="matrix(.13333 0 0 -.13333 0 770.587)"></path><path d="M1553.5 4096.4c.7-38.9-1.4-78 .8-116.9 13.9-34.5 54.5-58.9 49.9-99.5-.3-46.3-.1-92.6-.3-138.9-30.7-37.4-58.5-82-56.4-132.4 3.9-27.3-18-47.2-24.3-72-4.4-38.6-1.2-77.5-1.6-116.3H1681c1.8 44.3-6.1 89.9 4.3 133.3 26.4 18.4 62.9 16.6 90 .6 9.3-43.9 2.5-89.3 4.1-133.9 53-.1 106 .2 159-.2-.8 55.4 12 117.6-24.6 165 5.1 58-19.6 113.8-57.7 156.4.2 53.3-1 106.7.4 160.1 12.4 28.2 35.9 49.9 49.6 77.4 2.4 39.2.2 78.5.9 117.8-117.8.4-235.7-.9-353.5-.5m-114 370h590.4c.2-195.8 0-391.7.1-587.5 433.8-.1 867.6 0 1301.5 0v-392.5H2030c-.1-116 0-232 0-348h-590.5c-.1 116 0 232 0 348H120.602c-.102 130.8 0 261.7-.102 392.5 439.699 0 879.301-.1 1319 0 0 195.8-.1 391.7 0 587.5" style="fill:#fff;fill-opacity:1;fill-rule:nonzero;stroke:none" transform="matrix(.13333 0 0 -.13333 0 770.587)"></path><path d="M2067.7 4467.3c277.5.6 555.1 1 832.6-.1 41.4-131.2 116.2-257.7 233.4-334.3 59.5-39.3 127.9-63.4 197.7-76.9.1-46.2.1-92.4.1-138.6-421.4-1-842.9-.4-1264.3-.4.1 183.4-.3 366.9.5 550.3" style="fill:#dd1938;fill-opacity:1;fill-rule:nonzero;stroke:none" transform="matrix(.13333 0 0 -.13333 0 770.587)"></path><path d="M1591.5 4057.1c6.4.3 19.1.9 25.4 1.3.9-14.7 1.7-29.4 2.7-44.1 24.6.1 49.2.1 73.9.2v43.4h73c.2-14.5.4-28.9.7-43.4 24.7-.1 49.5-.1 74.3 0 .3 14.2.6 28.4 1 42.6 6.4.2 19.1.6 25.5.7 0-22.6 4.1-46.1-2.5-68.2-12.3-28.5-39.1-49.3-47.6-79.4-3.3-61-.5-122.2-1.4-183.2 21.6-26.7 46.7-53.2 54.6-87.8 3.5-21.7 2.3-43.8 2.7-65.7 28.6-31 28.3-74.5 26.2-114-27.2-.1-54.5-.1-81.7-.1-2 42.1 14 95.7-22.6 127.1-40.3 26.3-100 26.8-137.2-5.4-28.5-33.7-14.7-81.5-16.4-121.7-27.4 0-54.7 0-81.9.2-2.2 39.5-2.1 82.7 26 113.9.4 22-.9 44.3 3.1 66 8.1 34 32.4 60.4 53.7 86.8.5 57.9 1.1 115.8.1 173.7-1.6 39.1-41.4 61.3-50.9 97.4-2.2 19.8-1 39.8-.7 59.7" style="fill:#e8d90a;fill-opacity:1;fill-rule:nonzero;stroke:none" transform="matrix(.13333 0 0 -.13333 0 770.587)" data-source="https://football-logos.cc"></path><path d="M120.602 3447.9H1400v-310H120.5c0 103.4 0 206.7.102 310M2069.1 3447.9h1262.4v-310H2069.1c-.7 103.4-1.1 206.7 0 310" style="fill:#dd1938;fill-opacity:1;fill-rule:nonzero;stroke:none" transform="matrix(.13333 0 0 -.13333 0 770.587)"></path><path d="M3092.9 3012.4c-37.7-104-75.9-207.9-113.4-312h79.6c5 15.5 10.1 31 15.1 46.4 32.2.1 64.5.1 96.7.1 4.9-15.5 9.9-30.9 14.8-46.4 26.4-.1 52.9-.1 79.4-.1-37.6 104.1-75.6 208-113.4 312zm-656.4 0v-312h212v68.5H2513c0 18.4 0 36.7.1 55H2629v68c-38.7.1-77.4.1-116 0v53h135.5v67.5zm-286.2-72.7c-11.9-52.6-10.4-108.6-1.5-161.6 21.8-87.1 149.1-107.2 205.5-42.2 35.4 39.1 27.8 95.5 28.2 144-40.4.1-80.7.1-121 0v-63.2c16.7-.3 33.5-.7 50.3-1.3-5.3-15.5-9.1-33.7-24.4-42.9-21.5-15.8-58.6-6.3-64.1 21.5-6.6 34.9-4.1 71-3.2 106.4.1 22.4 14.3 47.7 39.4 47.4 23.7 2 40-16.3 50.2-35.2 25.5-.1 51-.6 76.5-.6-10.7 25.7-18.2 54.7-40.5 73.3-58 53.8-171.7 34.1-195.4-45.6m-197.8 72.7c-37.7-104-75.9-207.9-113.4-312h79.6c5 15.5 10 30.9 15 46.3 32.2.6 64.4.8 96.5.7 5.2-15.6 10.4-31.2 15.7-46.9 26.2-.1 52.5-.1 78.8-.1-37.6 104.1-75.5 208.1-113.6 312zm-331 0v-67.5h76.4c1.1-81.5.4-163 .6-244.5h75.9c1.4 81.6-2.3 163.4 2.3 244.9 25.1-.4 50.2-.3 75.3.1v67zm-267.5-312h76c0 38.9-.1 77.8.2 116.7 6.6-.1 19.9-.3 26.5-.5 18.4-38.7 36.7-77.5 55.4-116.2h88c-21.3 42.8-44.7 84.5-65.5 127.6 18.2 18 41.2 35 46.6 61.7 14.5 53.1-25.5 114.5-80.7 120.5-48.6 5.3-97.7 1.2-146.5 2.2-.1-104 .1-208 0-312m-318.2 0c26.3 0 52.7 0 79 .1 5.4 15.5 10.8 31 16.1 46.4 32.2 0 64.4 0 96.5-.1 4.8-15.4 9.6-30.9 14.4-46.4h79.7c-37.5 104.1-76 207.9-113.2 312h-59c-38-103.9-75.9-207.9-113.5-312m-222.198 264.8c-22.5-33.9-18.602-76.5-19.301-115.2.398-35.8-.699-75.5 21.801-105.7 40.898-56.7 133.398-62.5 182.199-13 18.899 17.8 25.699 43.6 33.799 67.3-24.5.4-48.998 1.9-73.401-.3-15-23.8-46.898-46.1-73.199-23.6-21.602 30.3-13.199 70.2-14.602 105 .301 24.3 1.403 58.8 30.102 66.6 25.199 9 44.602-12.9 56-32.3 25-.2 50.1-.1 75.1.2-7.9 22.7-14.1 47.5-31.6 65.1-48.801 53.3-147 46.7-186.898-14.1m-371.204-10.9c-15-36.1-14-76.5-13.199-115 2.301-30.4.403-63.9 18.699-90.2 37.5-56.9 125.903-69.2 177.602-25.1 22.699 18.9 33.898 47.1 42.398 74.5-25.199.6-50.296 1-75.5.8-11-22.2-36.699-43.7-62.398-30.1-31.199 18.4-22.398 60.8-24.301 91.1 1.403 29.1-5.301 70.9 27.699 85 25.704 11.4 47.403-11.1 59.301-31.3 24.801-.2 49.699-.2 74.5.3-7.898 23.8-14.898 49.6-33.699 67.6-52.5 54.1-157.102 40.9-191.102-27.6M186.5 3012.4v-312c25.5 0 51 0 76.602.1-.102 40.3-.102 80.6-.102 120.9h116v68c-38.699.1-77.301.1-116 0v55.5h135.5v67.5zm2684.6.1c-.4-52.3.4-104.6-.7-156.9-33.6 52.2-66.7 104.6-100.2 156.8-22.2 0-44.5 0-66.7.1-.1-104 .1-208.1 0-312.1h76.5c.1 52.7-.1 105.3.1 158 33.5-52.8 66.7-105.7 101-158h65.9c-.1 104 .1 208 0 312-25.4 0-50.7 0-75.9.1m-2750.6 86.9c1070.3-.1 2140.7 0 3211 0v-485.9c-1070.3-.2-2140.6 0-3210.898-.1-.102 162 0 324-.102 486" style="fill:#fff;fill-opacity:1;fill-rule:nonzero;stroke:none" transform="matrix(.13333 0 0 -.13333 0 770.587)"></path><path d="M1430.6 2945.3c22.4-1.4 47.2 3.3 67.3-9.3 15.5-14.6 11.5-44.4-8.6-53-19.6-3.7-39.6-2.4-59.4-2.9.1 21.8.3 43.5.7 65.2M1152.2 2810.6c8.2 27 17.2 53.9 29.7 79.3 8.9-26.1 17-52.5 25.3-78.9-18.4-.1-36.7-.2-55-.4M1955.3 2810.3c9.5 28.2 18.8 56.5 28.5 84.6 9.1-27.9 17.9-55.9 27.1-83.8-18.5-.2-37.1-.4-55.6-.8M3124.7 2895c8.6-28.2 17.4-56.5 26.3-84.7-18.5.4-36.9.6-55.3.8 9.5 28 19.2 56 29 83.9M506 2567.9h341c0-442.7-.102-885.3 0-1327.9-113.602-.1-227.301 0-341 0zM1207.5 2567.3c113.7 1 227.3.4 341 .6-.1-49.5.4-99-.1-148.5-117.9-48.7-215.6-144.8-263.3-263.4-53-128.4-45.8-280.2 19.8-402.7 51.8-99 139.9-177.7 243-220.2 2.2-97.7-.7-195.4 1.2-293.1-113.8-.1-227.7 0-341.6 0 0 442.4.4 884.9 0 1327.3M1909.5 2567.9H2250v-1328c-113.5.1-227 0-340.5.1-.2 97.4.3 194.9-.3 292.4 117.6 49.7 215.6 145.4 263 264.3 51.9 126.6 45.3 275.4-17.6 396.9-51.6 101.1-140.5 181.8-245.1 225.6-.1 49.5 0 99.1 0 148.7M2611 2567.9c113.8-.3 227.7.6 341.5-.6-.2-442.5.3-884.9-.3-1327.3-113.7-.1-227.5 0-341.2-.1z" style="fill:#fff;fill-opacity:1;fill-rule:nonzero;stroke:none" transform="matrix(.13333 0 0 -.13333 0 770.587)"></path><path d="M1556.3 2381.2c101 43.1 218.6 45.6 321.3 6.6 84.8-31 157.6-90.4 209.2-164.2-118.1 69.4-262.6 99-396.8 65.6-32.2-7.7-60.1-26.1-86.6-45-55.3 19.1-81.1 88.1-47.1 137M1360.7 2218.3c34.6 51.7 80.2 95.1 131 130.7-4.5-60.5 30.2-120 85.2-145.4-21.6-64.1-9.1-139.9 38-189.7 24.7-27.9 59.9-42.8 94.6-54.4-.3-45.5-21.1-94-63.3-115.1-55.7-23.1-120.8-1.5-161.4 40.5-87.6 87.9-103.5 217-124.1 333.4" style="fill:#fff;fill-opacity:1;fill-rule:nonzero;stroke:none" transform="matrix(.13333 0 0 -.13333 0 770.587)"></path><path d="M1620.8 2178.5c13.7 37.8 53 58.1 89.9 66.9 121.7 24.9 253.5.7 357.4-68 23.3-16.4 48-32.6 65-55.9 20.2-32.3 19.3-72.2 25.9-108.5-57.1 41.8-137.2 33.8-193-6.1-37.7 53-107.5 87.6-172.1 66.4-35.5-9.7-58.4-39.7-83.5-64.1-69.7 18.7-114.5 101-89.6 169.3M1419 1672.5c-122.2 121.2-163.6 317.3-94.5 476 19.1-136.5 74-288.8 206.3-353-14.2-56.7-57.8-102-111.8-123" style="fill:#fff;fill-opacity:1;fill-rule:nonzero;stroke:none" transform="matrix(.13333 0 0 -.13333 0 770.587)"></path><path d="M1754.5 1985.6c16.8 20.7 37.9 40.1 65.2 44.8 63.1 12.5 126.6-48.3 118.7-111.8-9-65.1-48.1-120.5-85.7-172.5-65.3-81.7-156.3-138.7-250.2-182.3-50.8 17.6-98.7 42.3-143 72.6 56.4 32.6 103.6 84.5 116.9 149.9 42.2.7 88.8 4.8 120.8 35.7 46.4 39.8 65.4 104 57.3 163.6" style="fill:#fff;fill-opacity:1;fill-rule:nonzero;stroke:none" transform="matrix(.13333 0 0 -.13333 0 770.587)"></path><path d="M1985.7 1961.9c38.9 30.3 97.5 47.2 139.7 13.6 13.1-12.8 36.9-25 30.9-46.8-14.4-120.7-82.4-234.1-182.6-303.1-84.3-59.4-190-85.9-292.5-76.3 90.1 52.3 179.1 114.5 235.2 204.3 41.4 61.3 77.6 132 69.3 208.3M1527 1130.4c-.5-60.3.9-120.6-.3-181.002.9-25.398-33.5-12.199-48.7-15.398 0-18.699-.1-37.398-.1-56.199C1227 853.398 972.699 838 729.301 767.5c-32.199-10.301-68-18.301-92-44-14-14.102-6.301-37.301 7.5-48.5 33.398-24.102 73.398-37.199 112.898-47.301C1007.1 569.301 1264.1 544.398 1520 552.801c273.5 2 547-1.199 820.5 1.801 119.2 19.796 236.9 48.699 353.3 81.398 10.9-21.801 20.3-46.199 40.5-61.301 25.5-19.699 66.1-23.301 90.6-.199 18.8 20.102 18.8 49.398 19.2 75.102-.4 63.296.5 126.5-.4 189.699.5 29-21.7 61.699-53.6 59.097-50.8-2-83.4-48.597-102.9-90.5-87.2 10-172.1 32.602-257.5 51.704-119.5 33.597-244.3 13.199-366.4 19.398-43.5 40.602-87.3 80.801-130.7 121.5-84.8-.1-169.5-.2-254.2 0-17.8-25.801-29.7-59.898-62.7-70.102-1.2 66.5-.9 133.002-.2 199.402-29.5.9-59 .8-88.5.6m-1380.898 70c1050.898.6 2101.798.9 3152.698 0-47.9-185.4-127.4-364.099-243.1-517.298C2951.2 545.699 2801.2 420.5 2620.5 416.5c-160.1-.301-320.3.199-480.4-.199-60.8-1.699-123.4 5.398-182-15.301-99.6-31.5-171.4-114.5-225.5-200.102-64.2 98.903-151.9 204.801-278.4 214.403-208 3.097-416.2-.602-624.302 1.801-151.097 10.5-280.699 105.296-380.796 212.796-146 161.204-248.801 360.204-303 570.502" style="fill:#fff;fill-opacity:1;fill-rule:nonzero;stroke:none" transform="matrix(.13333 0 0 -.13333 0 770.587)"></path><path d="M1567.4 1092.3c5.7-6.2 8.3-13.7 7.7-22.3 1.8-58-.3-116 .4-174.102 26.8 0 53.6 0 80.4.403 14.4 22.199 29.4 44 44.6 65.597 71.5.301 142.9-.597 214.4.602 30.1-26.102 58.9-53.602 88.2-80.5-161.8.199-323.8-2.602-485.5 1.5a520 520 0 0 1-5 10.801c17.6 1 35.2 1.699 52.9 2 .9 65.398-2.9 130.799 1.9 195.999M2723.2 770.602c4.8 41.097 30 90.898 77.7 89.398 7.5-43.301 3.6-87.301 4.1-131-1-44.5 4.6-89.801-7.3-133.5-51-4.102-67.6 50.699-76.9 90.102-98.9-31.903-200.2-55.102-301.6-76.903-36-7.5-71.9-17.801-109-17.301-293.3-.199-586.7.602-880-.5C1208.5 589 986.898 614.699 771 664.602c-35.199 8-69.5 20.398-99.898 40.199C777.301 749 891.898 767.699 1004.8 786.602c160.6 24.699 322.6 39.5 484.6 51.398 270.5 3.301 541-.5 811.4 1.5 57.9.898 113-18.602 169.2-29.301 84-15.597 166.6-45.801 253.2-39.597" style="fill:#e8d90a;fill-opacity:1;fill-rule:nonzero;stroke:none" transform="matrix(.13333 0 0 -.13333 0 770.587)" data-source="https://football-logos.cc"></path><!-- source: https://football-logos.cc --></svg>