<svg xmlns="http://www.w3.org/2000/svg" viewBox="98.2 29.08 1576.95 1715.26"><!-- Source: https://football-logos.cc --><path fill-rule="evenodd" d="M158.78 35.83a.365.353-68.254 0 1 .49-.22q13.69 6.23 27.56 11.29c18.39 6.71 36.58 13.36 56.96 19.24q31.48 9.09 64.98 16.9 16.57 3.86 35.41 6.87c24.61 3.93 52.54 8.34 78.3 10.44 29 2.37 54.85 4.2 82.75 4.18 45.71-.03 92.05-2.81 137.85-9.01 23.07-3.13 34.03-4.61 53.98-7.74q8.25-1.3 21.14-4.17 42.16-9.41 53.21-12.5 35.78-9.99 47.77-14.25c20.89-7.41 46.2-17.09 66.72-27.62a1.517 1.507-46.111 0 1 1.31-.03c13.72 6.35 23.45 10.86 36.74 16.16q45.31 18.04 93.83 29.53 27.75 6.57 45.96 10.33c23.05 4.76 43.56 7.4 70.49 10.85q70.89 9.06 139.77 8.4c25.85-.25 49.73-1.84 76.15-4 22.79-1.86 41.06-4.53 66.9-8.41 33.03-4.97 64.61-12.29 96.47-21.11q45.64-12.62 84.24-28.27 9.32-3.78 16.77-7.34a.368.363 67.977 0 1 .51.22q5.27 16.86 11.56 38.8 12.68 44.3 22.32 88.87c5.44 25.18 9.22 48.22 13.47 75.27q1.92 12.3 3.64 29.36 5.2 51.78 7.23 101.88.55 13.54 1.38 46.66.67 26.78.46 46.67-.72 65.89-3.81 109.67-1.14 16.2-4.98 58.42-1.04 11.45-4.1 31.58-.72 4.73-4.67 31.51-5.37 36.36-11.76 66.26c-2.99 14.02-7.6 37.32-12.85 56.25-4.65 16.77-8.83 34.29-14.16 51.8-3.27 10.75-6.71 24.1-10.23 34.53q-4.58 13.55-8.93 27.04c-4.11 12.74-9.39 26.85-14.22 40.3q-1.65 4.59-6.12 15.94-16.98 43.09-22.48 55.21-20.64 45.51-25.18 54.53-7.52 14.92-8.06 15.93c-7.87 14.63-20.97 39.37-31.6 57.26q-16.79 28.26-34.59 55.64-11.03 16.96-22.12 32.37c-10.07 13.99-19.92 28.47-30.57 42.39q-22.22 29.07-41.37 51.84-5.1 6.07-26.59 30.51-9.18 10.43-15.79 17.53c-7.8 8.38-13.59 14.92-21.35 23.09q-30.82 32.43-63.67 63.95-12.9 12.38-23.06 21.47c-12.79 11.44-20.98 19.28-31.27 28.03-38.91 33.1-61.26 52.22-93.06 76.11-17.11 12.86-29.22 22.15-41.42 30.9-13.6 9.76-26.15 19.19-39.85 28.32q-24.23 16.16-37.71 24.81-21.23 13.62-49.63 30.4c-3.05 1.8-7.17 3.73-10.82 5.88q-15.29 8.97-20.85 11.58-1.33.62-3.49-.59-17.28-9.77-17.92-10.15-9.89-5.87-19.74-11.41c-5.01-2.82-12.98-8-18.29-11.06q-16.84-9.7-55.72-35.75-57.06-38.24-125.25-92.58-7.58-6.04-58.69-49.8-3.68-3.15-7.7-6.9c-6.73-6.28-13.69-11.88-18.86-17.03-4.21-4.21-9.59-8.34-14.32-12.84q-36.09-34.26-62.79-62.22-29.98-31.37-62.17-68.27c-12.38-14.2-20.6-24.64-36.69-44.38-23.74-29.14-45.05-60.08-67.83-93.91q-17.16-25.5-31.78-50.44-24.53-41.83-37.96-68.79-17.6-35.3-30.64-64.6-9.41-21.13-26.6-64.92-1.48-3.76-9.93-27.13-4.79-13.23-9.38-27.32-9.19-28.21-11.21-34.79-13.57-44.06-27.84-104.79c-3.31-14.12-5.82-28.41-8.96-43.02q-2.21-10.24-4.3-23.55c-2.2-13.95-3.44-20.87-4.86-31.48q-2.85-21.27-5.98-41.92-1.24-8.16-3.38-31.27-2.32-25-2.88-31.37c-4.23-48.26-5.35-97.72-4.69-146.28.09-6.2.51-13.42.63-20.09q1.28-66.05 8.1-136.4 1.67-17.31 4.7-36.85c3.32-21.49 7-49.82 12.74-76.48q14.01-65.11 34.23-129.92m1441.86 27.26q-2.64 1.59-6.19 3.09-11.61 4.92-25.05 9.42-13.44 4.51-42.85 13.4-24.62 7.45-57.07 14.15-37.13 7.66-44.92 8.92-103.61 16.69-207.17 12.06c-23.13-1.03-50.34-3.37-73.13-5.91q-34.62-3.85-47.49-6.19-29.63-5.37-43.3-7.96-54.16-10.26-114.78-31.22-2.79-.97-25.02-9.28c-9.05-3.38-17.32-7.33-25.51-11.15a2.75 2.75-45.905 0 0-2.32 0q-33.34 15.36-71.47 27.37-6.76 2.13-13.32 4.21-37.89 11.97-78.32 19.64-30.22 5.74-39.28 7.3c-22.76 3.92-42.22 6.1-66.01 8.49q-50.04 5.02-97.7 5.64-81.44 1.06-163.49-12.09-32.01-5.13-74.15-15.1-6.99-1.65-37.66-9.57-6.61-1.7-40.64-13.1-15.35-5.13-31.08-11.73a.793.786 19.261 0 0-1.07.51q-11.77 41.71-22.09 85.5-3.31 14.06-6.67 32.15c-5.61 30.3-10.07 53.95-12.49 79.24q-1.17 12.14-4.42 46.41-2.34 24.68-3.53 46.48-5.23 95.12-.89 189.38c1.4 30.53 4.24 54.74 8.04 90.34q3.41 32.03 7.7 57 6.68 38.91 9.18 52.77c2.69 14.95 6.26 28.66 9.79 44.24q4.31 18.98 9.14 37.46.83 3.16 1.68 6.37c21.13 79.07 47.75 153.52 81.21 226.14q14.55 31.58 34.85 69.59c7.31 13.68 14.91 26.04 22.7 39.89q7.45 13.27 18.11 29.19c9.19 13.72 16.64 25.89 27.02 40.96q15.8 22.92 22.04 31.13 7.4 9.75 19.07 25.35c9.87 13.22 23.44 29.79 30.37 38.24q33.14 40.43 73.32 82.4 25.55 26.69 39.55 40.27 19.45 18.88 47.53 44.73 12.33 11.35 49.89 43.53 14.37 12.3 32.84 27.06 30.01 23.98 33.08 26.31 12.34 9.35 39.75 29.4 13.73 10.04 36.92 25.72 29.57 19.98 37.4 25 27.39 17.57 61.46 37.31 4.07 2.35 9.96 6.3c1.85 1.24 3.7 1.24 5.77-.01q14.6-8.8 31.88-18.83c19.1-11.08 35.63-21.82 53.8-33.5 7-4.5 12.86-8.88 19.49-13.2q6.22-4.05 14.55-9.95c10.88-7.71 20.51-14.39 30.38-21.94q4.76-3.65 15.93-11.72c12.48-9.01 26.86-19.85 40.9-31.16 13.96-11.26 30.23-23.96 46.36-37.83q28.87-24.84 51.24-44.99 9.4-8.47 39.94-37.8 17.56-16.85 35.24-35.29 26.78-27.93 34.25-36.25 11.76-13.12 30.06-34.05 6.71-7.67 11.16-13.06c10.22-12.35 18.46-21.82 27.26-33.27q19.67-25.63 34.77-46.65c9.56-13.3 18.81-27.59 26.32-38.35q9.97-14.28 19.22-29.14 16.97-27.25 32.39-54.52c13.58-24.02 23.74-45.33 36.8-71.81 6.4-12.97 10.27-23.44 17.01-38.11q3.77-8.21 13.99-32.99 5.43-13.16 23.3-62.3c4.84-13.3 8.48-26.3 13.36-41.71q5.9-18.66 9.58-31.44 6.13-21.31 6.43-22.28 3.49-11.35 6.05-22.39 7.13-30.71 12.58-55.61 3.08-14.08 5.69-29.5 1.19-6.98 5.42-29.53 2.27-12.04 7.06-50.49 2.15-17.26 5.02-46.93 2.6-26.89 3.63-47.06 2.74-53.63 3.13-102.99c.11-13.78-.42-28.07-.58-41.78q-.15-13.75-.96-31.33-1.9-41.42-2.66-52.84-1.69-25.56-2.62-34c-3.27-29.81-6.25-63.21-11.96-91.39-5.39-26.63-8.5-43.66-13.99-65.68q-9.9-39.65-18.61-68.92-.76-2.55-1.35-3.92a.532.524 63.029 0 0-.75-.25" data-source="https://football-logos.cc"></path><path fill="#fff" fill-rule="evenodd" d="M1600.64 63.09a.532.524 63.029 0 1 .75.25q.59 1.37 1.35 3.92 8.71 29.27 18.61 68.92c5.49 22.02 8.6 39.05 13.99 65.68 5.71 28.18 8.69 61.58 11.96 91.39q.93 8.44 2.62 34 .76 11.42 2.66 52.84.81 17.58.96 31.33c.16 13.71.69 28 .58 41.78q-.39 49.36-3.13 102.99-1.03 20.17-3.63 47.06-2.87 29.67-5.02 46.93-4.79 38.45-7.06 50.49-4.23 22.55-5.42 29.53-2.61 15.42-5.69 29.5-5.45 24.9-12.58 55.61-2.56 11.04-6.05 22.39-.3.97-6.43 22.28-3.68 12.78-9.58 31.44c-4.88 15.41-8.52 28.41-13.36 41.71q-17.87 49.14-23.3 62.3-10.22 24.78-13.99 32.99c-6.74 14.67-10.61 25.14-17.01 38.11-13.06 26.48-23.22 47.79-36.8 71.81q-15.42 27.27-32.39 54.52-9.25 14.86-19.22 29.14c-7.51 10.76-16.76 25.05-26.32 38.35q-15.1 21.02-34.77 46.65c-8.8 11.45-17.04 20.92-27.26 33.27q-4.45 5.39-11.16 13.06-18.3 20.93-30.06 34.05-7.47 8.32-34.25 36.25-17.68 18.44-35.24 35.29-30.54 29.33-39.94 37.8-22.37 20.15-51.24 44.99c-16.13 13.87-32.4 26.57-46.36 37.83-14.04 11.31-28.42 22.15-40.9 31.16q-11.17 8.07-15.93 11.72c-9.87 7.55-19.5 14.23-30.38 21.94q-8.33 5.9-14.55 9.95c-6.63 4.32-12.49 8.7-19.49 13.2-18.17 11.68-34.7 22.42-53.8 33.5q-17.28 10.03-31.88 18.83c-2.07 1.25-3.92 1.25-5.77.01q-5.89-3.95-9.96-6.3-34.07-19.74-61.46-37.31-7.83-5.02-37.4-25-23.19-15.68-36.92-25.72-27.41-20.05-39.75-29.4-3.07-2.33-33.08-26.31-18.47-14.76-32.84-27.06-37.56-32.18-49.89-43.53-28.08-25.85-47.53-44.73-14-13.58-39.55-40.27-40.18-41.97-73.32-82.4c-6.93-8.45-20.5-25.02-30.37-38.24q-11.67-15.6-19.07-25.35-6.24-8.21-22.04-31.13c-10.38-15.07-17.83-27.24-27.02-40.96q-10.66-15.92-18.11-29.19c-7.79-13.85-15.39-26.21-22.7-39.89q-20.3-38.01-34.85-69.59c-33.46-72.62-60.08-147.07-81.21-226.14q-.85-3.21-1.68-6.37-4.83-18.48-9.14-37.46c-3.53-15.58-7.1-29.29-9.79-44.24q-2.5-13.86-9.18-52.77-4.29-24.97-7.7-57c-3.8-35.6-6.64-59.81-8.04-90.34q-4.34-94.26.89-189.38 1.19-21.8 3.53-46.48 3.25-34.27 4.42-46.41c2.42-25.29 6.88-48.94 12.49-79.24q3.36-18.09 6.67-32.15 10.32-43.79 22.09-85.5a.793.786 19.261 0 1 1.07-.51q15.73 6.6 31.08 11.73 34.03 11.4 40.64 13.1 30.67 7.92 37.66 9.57 42.14 9.97 74.15 15.1 82.05 13.15 163.49 12.09 47.66-.62 97.7-5.64c23.79-2.39 43.25-4.57 66.01-8.49q9.06-1.56 39.28-7.3 40.43-7.67 78.32-19.64 6.56-2.08 13.32-4.21 38.13-12.01 71.47-27.37a2.75 2.75-5.963 0 1 2.32 0c8.19 3.82 16.46 7.77 25.51 11.15q22.23 8.31 25.02 9.28 60.62 20.96 114.78 31.22 13.67 2.59 43.3 7.96 12.87 2.34 47.49 6.19c22.79 2.54 50 4.88 73.13 5.91q103.56 4.63 207.17-12.06 7.79-1.26 44.92-8.92 32.45-6.7 57.07-14.15 29.41-8.89 42.85-13.4 13.44-4.5 25.05-9.42 3.55-1.5 6.19-3.09M199.39 114.07q-7.37 24.6-10.8 39.91c-7.26 32.4-13.97 62.88-17.31 93.03q-1.04 9.47-4.86 45.95-2.42 23.1-3.86 46.02-4.6 73.57-3.51 142.77.09 5.51.35 19.75.67 36.13 4.55 86.75c.81 10.58 3.09 25.18 4.27 36.68q2.27 22.03 6.21 49.65 2.75 19.27 5.67 33.75c3.9 19.34 8.09 43.51 13.3 65.57 4.68 19.83 9.03 39.39 12.21 50.47q8.02 27.91 8.21 28.62 4.09 15 8.66 28.51c3.75 11.1 9.06 29.34 14.71 45.09 4.13 11.48 6.99 20 11.8 32.26q3.52 8.98 11.41 29.51 2.82 7.32 22.41 51.59 5.66 12.78 14.54 30.48c24.22 48.31 49.7 93.66 80.15 138.11q16.5 24.08 22.17 32.05 1.25 1.75 17.33 23.64 8.62 11.74 17.86 23.25c33.25 41.45 68.63 82.47 106.3 120.38 15.13 15.22 29.04 29.45 44.53 43.64 1.94 1.78 4.65 4.63 7.79 7.52q29.12 26.86 45.57 41.05 44.66 38.5 86.32 70.24c25.84 19.69 49.99 36.65 77.86 55.95 26.38 18.26 54.89 35.76 79.92 51.08q1.93 1.18 2.93 1.54a3.485 3.466 39.443 0 0 2.96-.28q27.62-16.48 54.47-33.6 31.72-20.23 79.73-55.5c12.84-9.43 24.66-18.48 34.03-25.62q15.85-12.08 28.73-22.55 36.34-29.55 64.69-54.89c3.4-3.03 7.52-7 10.46-9.55q2.7-2.34 7.91-7.08 38.56-35.15 77.69-75.81 9.43-9.79 28.26-30.49 44.51-48.94 82.43-99.35c10.12-13.45 18.23-25.25 29.57-41.12q9.44-13.22 21.69-32.01 9.14-14.03 17.52-28 15.59-25.96 16.95-28.36 14.05-24.86 22.01-40.72c2.02-4.03 4.45-8.13 6.58-12.39q13.65-27.34 27.41-58.13 6.17-13.81 18.39-44.66 14.66-37.02 22.15-60.28 5-15.55 9.48-29.01 5.69-17.09 9.03-29.15 4.21-15.26 8.65-30.69c4.22-14.69 7.92-32.44 11.01-44.31q3.72-14.3 6.53-28.51 8.84-44.64 11.12-59.3 7.24-46.53 9.48-70.47.31-3.33 1.36-12.57c3.18-28.16 5.3-57.64 6.72-91.21q4.37-103.28-3.04-203.7-1.64-22.23-3.98-43.58c-3.27-29.87-5.8-52.13-10.49-75.85q-4.35-22.01-11.96-54.06-2.98-12.55-9.02-31.96a.513.51 73.19 0 0-.63-.34q-43.53 12.96-51.1 14.86c-24.16 6.06-38.49 10.16-57.45 13.8q-33.37 6.4-49.94 8.95-68.52 10.56-138.23 10.96-85.24.49-160.12-10.04c-22.44-3.15-50.63-6.91-74.68-11.96q-36.41-7.66-72.96-17.83c-27.69-7.7-55.84-18-81.24-28.6a4.392 4.37 44.354 0 0-3.42.03q-27.1 11.82-56.37 21.22-37.04 11.89-76.73 21.03-22.15 5.1-43.26 8.54c-28.92 4.72-56.13 9.2-83.97 11.78-15.05 1.4-44.57 4.05-65.7 4.77q-60.25 2.03-101.8-.09-55.5-2.84-106.25-11.22-30.44-5.02-38.02-6.68-13.21-2.87-35.55-8.2-20.97-5.01-35.3-9.13-13.05-3.75-42.17-12.08a.26.26 9.473 0 0-.32.18"></path><path fill-rule="evenodd" d="M199.39 114.07a.26.26 51.858 0 1 .32-.18q29.12 8.33 42.17 12.08 14.33 4.12 35.3 9.13 22.34 5.33 35.55 8.2 7.58 1.66 38.02 6.68Q401.5 158.36 457 161.2q41.55 2.12 101.8.09c21.13-.72 50.65-3.37 65.7-4.77 27.84-2.58 55.05-7.06 83.97-11.78q21.11-3.44 43.26-8.54 39.69-9.14 76.73-21.03 29.27-9.4 56.37-21.22a4.392 4.37 44.354 0 1 3.42-.03c25.4 10.6 53.55 20.9 81.24 28.6q36.55 10.17 72.96 17.83c24.05 5.05 52.24 8.81 74.68 11.96q74.88 10.53 160.12 10.04 69.71-.4 138.23-10.96 16.57-2.55 49.94-8.95c18.96-3.64 33.29-7.74 57.45-13.8q7.57-1.9 51.1-14.86a.513.51 73.19 0 1 .63.34q6.04 19.41 9.02 31.96 7.61 32.05 11.96 54.06c4.69 23.72 7.22 45.98 10.49 75.85q2.34 21.35 3.98 43.58 7.41 100.42 3.04 203.7c-1.42 33.57-3.54 63.05-6.72 91.21q-1.05 9.24-1.36 12.57-2.24 23.94-9.48 70.47-2.28 14.66-11.12 59.3-2.81 14.21-6.53 28.51c-3.09 11.87-6.79 29.62-11.01 44.31q-4.44 15.43-8.65 30.69-3.34 12.06-9.03 29.15-4.48 13.46-9.48 29.01-7.49 23.26-22.15 60.28-12.22 30.85-18.39 44.66-13.76 30.79-27.41 58.13c-2.13 4.26-4.56 8.36-6.58 12.39q-7.96 15.86-22.01 40.72-1.36 2.4-16.95 28.36-8.38 13.97-17.52 28-12.25 18.79-21.69 32.01c-11.34 15.87-19.45 27.67-29.57 41.12q-37.92 50.41-82.43 99.35-18.83 20.7-28.26 30.49-39.13 40.66-77.69 75.81-5.21 4.74-7.91 7.08c-2.94 2.55-7.06 6.52-10.46 9.55q-28.35 25.34-64.69 54.89-12.88 10.47-28.73 22.55c-9.37 7.14-21.19 16.19-34.03 25.62q-48.01 35.27-79.73 55.5-26.85 17.12-54.47 33.6a3.485 3.466 39.443 0 1-2.96.28q-1-.36-2.93-1.54c-25.03-15.32-53.54-32.82-79.92-51.08-27.87-19.3-52.02-36.26-77.86-55.95q-41.66-31.74-86.32-70.24-16.45-14.19-45.57-41.05c-3.14-2.89-5.85-5.74-7.79-7.52-15.49-14.19-29.4-28.42-44.53-43.64-37.67-37.91-73.05-78.93-106.3-120.38q-9.24-11.51-17.86-23.25-16.08-21.89-17.33-23.64-5.67-7.97-22.17-32.05c-30.45-44.45-55.93-89.8-80.15-138.11q-8.88-17.7-14.54-30.48-19.59-44.27-22.41-51.59-7.89-20.53-11.41-29.51c-4.81-12.26-7.67-20.78-11.8-32.26-5.65-15.75-10.96-33.99-14.71-45.09q-4.57-13.51-8.66-28.51-.19-.71-8.21-28.62c-3.18-11.08-7.53-30.64-12.21-50.47-5.21-22.06-9.4-46.23-13.3-65.57q-2.92-14.48-5.67-33.75-3.94-27.62-6.21-49.65c-1.18-11.5-3.46-26.1-4.27-36.68q-3.88-50.62-4.55-86.75-.26-14.24-.35-19.75-1.09-69.2 3.51-142.77 1.44-22.92 3.86-46.02 3.82-36.48 4.86-45.95c3.34-30.15 10.05-60.63 17.31-93.03q3.43-15.31 10.8-39.91m522.09 787.9q1.25-16.64 1.7-31.47.07-2.09.78-3.77c2.42-5.65 4.15-9.64 6.69-14.78q13.13-26.55 19.35-46.9c21.33-69.76 27.26-143.85 16.02-215.83q-4.12-26.37-11.31-52.74c-7.35-26.95-18.87-52.07-33.01-76.41q-8.09-13.93-10.36-19.81-5.08-13.18-6.46-21.4-6.24-37.24 14.02-69 9.68-15.18 22.77-25.95c16.54-13.61 33.52-25.71 52.56-34.87q7.58-3.64 18.03-7.23 13.19-4.53 18.58-5.73c24.93-5.59 52.11-6.23 78.16-4.32q20.56 1.51 31 2.7 20.79 2.37 39.79-4.88 7.1-2.71 11.74-6.21c6.04-4.56 10.85-9.22 12.95-16.12 3.41-11.18 3.93-25.29-2.93-34.91-5.8-8.14-14.38-12.71-23.92-15.47-14.19-4.1-24.2-4.68-42.29-6.35-21.55-1.98-44.47-1.04-65.09.8q-14.12 1.25-36.3 5.29-46.7 8.51-89 30c-18.67 9.49-36.66 21.86-52.37 34.72q-23.81 19.5-43.15 44.91-3.49 4.59-8.08 11.71-6.19 9.61-7.59 12.03c-5.07 8.77-11.77 22.07-15.01 33.17-5.69 19.55-8.21 35.38-7.19 54.1.97 17.67 5.75 33.87 14.58 48.99 5 8.56 10.8 18.8 15.11 28.41q1.59 3.53 6.97 16.17 10.81 25.4 18.57 54.4 2.81 10.5 5.86 26.38 4.01 20.92 6.34 41.35 6.39 55.88-1.19 113.57-3.88 29.54-9.25 50.63c-3.68 14.43-8.83 30.06-14.01 43.19q-15.93 40.38-43.06 74.64-10.63 13.43-31.43 34.37c-6.15 6.19-11.54 12-14.98 18.49q-8.05 15.16-12.55 32.94c-2.6 10.28-2.68 22.5 1.88 32.41 2.79 6.07 7.8 9.2 14.11 10.08q17.7 2.48 35.78-1.28c10.28-2.13 18.28-6.42 24.32-13.9q13.18-16.34 27.46-29.01 11.61-10.3 31.34-21.3c4.91-2.74 9.8-4.45 15.16-6.95 14.9-6.94 30.83-11.82 47.29-15.48q50.92-11.31 104.15-8.26 26.8 1.53 50.98 6.73 20.88 4.49 42.47 12.81c11.89 4.59 28.54 13.37 39.47 17.66 26.86 10.53 55.51 16.67 84.91 15.79q32.27-.98 62.57-10.92c14.06-4.61 28.19-11.36 39.88-18.37q13.79-8.28 28.03-20.21 5.3-4.44 11.17-10.86 7.59-8.31 10.24-11.73 10.06-12.99 17.57-29.48c3.51-7.72 6.61-15.42 8.49-23.47q6.88-29.53 2.1-59.41-3.25-20.29-10.36-37.49-3.98-9.64-7.68-14.91c-14.99-21.32-39.65-32.69-65.28-32.15-13.62.28-28.23 5.16-39.47 11.66q-23.75 13.74-34.21 39.75-9.92 24.68-1.52 50.42 5.53 16.94 17.55 30.56c4.82 5.47 12.79 11.67 17.45 15.88q6.46 5.84 8.36 13.86c4.21 17.71-13.64 27.35-26.96 33.03q-11.83 5.05-12.1 5.15-15.01 5.9-32.1 8.62c-23.76 3.79-49.63-.14-73.05-8.3q-5.13-1.79-11.65-5c-10.97-5.39-15.07-7.14-28.58-13.77-13.41-6.59-29.6-13.7-44.3-17.6q-41.19-10.93-81.74-8.98-26.84 1.29-60.03 7.02c-13.16 2.27-30.22 5.2-44.37 8.89a.293.29-5.688 0 1-.37-.3m356.83 289.2q-3.21-9.6-6.26-19.46-5.73-18.51-17.39-36.83-12.87-20.24-25.06-32.01c-17.14-16.56-33.75-29.56-52.85-39.34q-6.38-3.27-19.32-8.83c-22.17-9.51-44.8-15.37-69.04-17.29q-7.1-.56-15.13-.14-4.29.23-7.39 1.58c-5.62 2.46-10.91 4.9-15.23 8.97-10.48 9.89-15.03 23.05-11.59 36.98 2.7 10.91 9.51 18.3 18.78 24.45 6.62 4.39 14.64 5.42 22.3 5.89 6.76.42 18.31.27 26.8 1q29.95 2.58 55.54 9.45 16.18 4.34 24.97 8.05 15.41 6.52 19.5 8.44 20.18 9.5 34.54 19.69c7.18 5.1 16.73 13.3 26.26 20.98 3.48 2.81 6.43 6.08 10.17 8.71a.262.258 8.708 0 0 .4-.29m-234.34-71.65q-.44-.82-.8-1.17c-11.36-11.11-19.38-23.83-20-40.08q-.84-22.32 14.13-38.12a.476.473 22.155 0 0-.34-.8q-1.75-.04-3.69.21-7.66 1.02-22.77 4.69-31.86 7.74-59.97 25.76c-10.28 6.58-23.36 15.7-27.43 27.61-7.94 23.2-8.56 49.16-3.7 72.74q4.47 21.72 10.39 37.24 8.06 21.15 23.73 48.41 5.22 9.08 10.4 15.56 6.29 7.87 13.35 11.73c11.7 6.4 26.68 7.7 38.89 2.18 10.48-4.73 19.49-14.01 21.76-25.31q2.73-13.61-7.72-23.82c-5.38-5.24-11.97-10.65-16.15-16.12q-7.76-10.14-12.68-23.24-1.85-4.92-2.24-11.71c-1.24-21.3 8.57-42.41 25.67-54.82 5.48-3.98 11.92-6.55 18.91-10.13a.604.595-27.624 0 0 .26-.81m-139.69-8.56a1.037 1.034 66.881 0 0-1.86-.75q-4.31 5.86-7.09 9.42c-10.82 13.84-19.55 29.36-25.86 45.32-8.36 21.13-13.14 41.46-13.47 64.05-.28 19.7 2.25 39.89 8.67 58.38q4.49 12.92 7.44 19.56 5.77 12.98 14.94 25.78 2.9 4.06 6.94 7.55c6.41 5.54 13.21 6.73 21.76 6.96q13.63.37 25.57-6.6 17.1-9.99 18.68-29.72 1.15-14.49-6.51-26.98-.53-.87-10.08-15.71-4.6-7.14-10.14-17.57c-5.66-10.65-11.22-23.77-14.43-31.22q-4.88-11.34-8.71-25.12c-6.46-23.24-9.68-46.31-7.87-70.33.32-4.2 1.64-10.08 2.02-13.02m360.02 204.23a.345.345 48.554 0 0 .64.04q11.4-23.9 16.45-49.99 2.42-12.53 1.51-28.87-.18-3.3-1.28-6.89c-3.27-10.7-9.69-20.32-17.38-28.71q-7.32-7.99-13.4-13.12-29.2-24.59-66.34-39.27-8.47-3.34-21.31-7.08-16.3-4.74-21.69-5.83-34.59-6.96-69.23-5.82-13.3.43-27.95 7.13c-10.9 4.98-19.54 13.09-25.09 23.08q-10.33 18.62-1.84 37.42 4.52 10 12.16 17.65 15.85 15.89 37.56 12.16c4.16-.72 9.12-2.69 13.5-3.71 18.84-4.43 39.07-2.42 54.2 10.04q22.32 18.39 22.73 47.72a.255.251 72.913 0 0 .39.21q5.25-3.4 10.46-5.98c21.97-10.9 45.04-10.12 66.05 2.18q6.17 3.61 9.91 6.69c9.9 8.16 16.09 18.86 19.95 30.95m-357.66 48.13q1.95 1.48 3.23 2.82 9.47 9.96 16.14 15.88c7.46 6.63 14.25 11.41 21.84 16.14q18.34 11.43 40.11 8.38 12.19-1.7 23.7-5.19 20.07-6.07 38.72-15.01 17.72-8.5 35.91-21.8c17.51-12.79 33.79-29.42 44.61-48.31 9.11-15.91 16.37-31.81 9.48-50.41-6.59-17.79-22.27-30.64-41.62-30.49-9.73.08-21.84 2.49-29.77 8.72-9.83 7.71-13.33 16.24-19.45 28.97q-8.93 18.57-27.27 26.06c-5.3 2.16-11.52 4.32-17.74 4.64q-9.32.48-15.74-.79-6.53-1.29-12.81-3.35a.466.464 6.685 0 0-.61.48q2.31 28.69-16.95 46.68c-13.76 12.85-33.52 17-51.62 16.13a.251.249 64.762 0 0-.16.45m88.88 58.32q.46.39 1.93.95 1.19.46 13.27 3.7 31.62 8.46 64.28 6.9 36.27-1.72 70.3-12.98c18.61-6.15 36.43-15.16 53.36-26.39 15.21-10.09 28.48-22.11 39.11-35.29q6.85-8.49 8.58-11.78 6.02-11.4 4.49-23.88c-1.89-15.31-14.61-28.33-28.31-35.07-26.42-12.99-56.05-1.11-70.6 22.61q-3.19 5.19-6.52 10.78-20.23 33.98-52.43 56.51c-15.29 10.7-27.87 18.62-43.21 25.29q-22.15 9.65-45.15 16.07c-2.73.76-6.49 1.31-8.99 2.06a.302.299-33.317 0 0-.11.52"></path><path fill="#fff" fill-rule="evenodd" d="M721.48 901.97a.293.29-5.688 0 0 .37.3c14.15-3.69 31.21-6.62 44.37-8.89q33.19-5.73 60.03-7.02 40.55-1.95 81.74 8.98c14.7 3.9 30.89 11.01 44.3 17.6 13.51 6.63 17.61 8.38 28.58 13.77q6.52 3.21 11.65 5c23.42 8.16 49.29 12.09 73.05 8.3q17.09-2.72 32.1-8.62.27-.1 12.1-5.15c13.32-5.68 31.17-15.32 26.96-33.03q-1.9-8.02-8.36-13.86c-4.66-4.21-12.63-10.41-17.45-15.88q-12.02-13.62-17.55-30.56-8.4-25.74 1.52-50.42 10.46-26.01 34.21-39.75c11.24-6.5 25.85-11.38 39.47-11.66 25.63-.54 50.29 10.83 65.28 32.15q3.7 5.27 7.68 14.91 7.11 17.2 10.36 37.49 4.78 29.88-2.1 59.41c-1.88 8.05-4.98 15.75-8.49 23.47q-7.51 16.49-17.57 29.48-2.65 3.42-10.24 11.73-5.87 6.42-11.17 10.86-14.24 11.93-28.03 20.21c-11.69 7.01-25.82 13.76-39.88 18.37q-30.3 9.94-62.57 10.92c-29.4.88-58.05-5.26-84.91-15.79-10.93-4.29-27.58-13.07-39.47-17.66q-21.59-8.32-42.47-12.81-24.18-5.2-50.98-6.73-53.23-3.05-104.15 8.26c-16.46 3.66-32.39 8.54-47.29 15.48-5.36 2.5-10.25 4.21-15.16 6.95q-19.73 11-31.34 21.3-14.28 12.67-27.46 29.01c-6.04 7.48-14.04 11.77-24.32 13.9q-18.08 3.76-35.78 1.28c-6.31-.88-11.32-4.01-14.11-10.08-4.56-9.91-4.48-22.13-1.88-32.41q4.5-17.78 12.55-32.94c3.44-6.49 8.83-12.3 14.98-18.49q20.8-20.94 31.43-34.37 27.13-34.26 43.06-74.64c5.18-13.13 10.33-28.76 14.01-43.19q5.37-21.09 9.25-50.63 7.58-57.69 1.19-113.57-2.33-20.43-6.34-41.35-3.05-15.88-5.86-26.38-7.76-29-18.57-54.4-5.38-12.64-6.97-16.17c-4.31-9.61-10.11-19.85-15.11-28.41-8.83-15.12-13.61-31.32-14.58-48.99-1.02-18.72 1.5-34.55 7.19-54.1 3.24-11.1 9.94-24.4 15.01-33.17q1.4-2.42 7.59-12.03 4.59-7.12 8.08-11.71 19.34-25.41 43.15-44.91c15.71-12.86 33.7-25.23 52.37-34.72q42.3-21.49 89-30 22.18-4.04 36.3-5.29c20.62-1.84 43.54-2.78 65.09-.8 18.09 1.67 28.1 2.25 42.29 6.35 9.54 2.76 18.12 7.33 23.92 15.47 6.86 9.62 6.34 23.73 2.93 34.91-2.1 6.9-6.91 11.56-12.95 16.12q-4.64 3.5-11.74 6.21-19 7.25-39.79 4.88-10.44-1.19-31-2.7c-26.05-1.91-53.23-1.27-78.16 4.32q-5.39 1.2-18.58 5.73-10.45 3.59-18.03 7.23c-19.04 9.16-36.02 21.26-52.56 34.87q-13.09 10.77-22.77 25.95-20.26 31.76-14.02 69 1.38 8.22 6.46 21.4 2.27 5.88 10.36 19.81c14.14 24.34 25.66 49.46 33.01 76.41q7.19 26.37 11.31 52.74c11.24 71.98 5.31 146.07-16.02 215.83q-6.22 20.35-19.35 46.9c-2.54 5.14-4.27 9.13-6.69 14.78q-.71 1.68-.78 3.77-.45 14.83-1.7 31.47M1078.31 1191.17a.262.258 8.708 0 1-.4.29c-3.74-2.63-6.69-5.9-10.17-8.71-9.53-7.68-19.08-15.88-26.26-20.98q-14.36-10.19-34.54-19.69-4.09-1.92-19.5-8.44-8.79-3.71-24.97-8.05-25.59-6.87-55.54-9.45c-8.49-.73-20.04-.58-26.8-1-7.66-.47-15.68-1.5-22.3-5.89-9.27-6.15-16.08-13.54-18.78-24.45-3.44-13.93 1.11-27.09 11.59-36.98 4.32-4.07 9.61-6.51 15.23-8.97q3.1-1.35 7.39-1.58 8.03-.42 15.13.14c24.24 1.92 46.87 7.78 69.04 17.29q12.94 5.56 19.32 8.83c19.1 9.78 35.71 22.78 52.85 39.34q12.19 11.77 25.06 32.01 11.66 18.32 17.39 36.83 3.05 9.86 6.26 19.46"></path><path fill="#fff" fill-rule="evenodd" d="M843.97 1119.52a.604.595-27.624 0 1-.26.81c-6.99 3.58-13.43 6.15-18.91 10.13-17.1 12.41-26.91 33.52-25.67 54.82q.39 6.79 2.24 11.71 4.92 13.1 12.68 23.24c4.18 5.47 10.77 10.88 16.15 16.12q10.45 10.21 7.72 23.82c-2.27 11.3-11.28 20.58-21.76 25.31-12.21 5.52-27.19 4.22-38.89-2.18q-7.06-3.86-13.35-11.73-5.18-6.48-10.4-15.56-15.67-27.26-23.73-48.41-5.92-15.52-10.39-37.24c-4.86-23.58-4.24-49.54 3.7-72.74 4.07-11.91 17.15-21.03 27.43-27.61q28.11-18.02 59.97-25.76 15.11-3.67 22.77-4.69 1.94-.25 3.69-.21a.476.473 22.155 0 1 .34.8q-14.97 15.8-14.13 38.12c.62 16.25 8.64 28.97 20 40.08q.36.35.8 1.17" data-source="https://football-logos.cc"></path><path fill="#fff" fill-rule="evenodd" d="M704.28 1110.96c-.38 2.94-1.7 8.82-2.02 13.02-1.81 24.02 1.41 47.09 7.87 70.33q3.83 13.78 8.71 25.12c3.21 7.45 8.77 20.57 14.43 31.22q5.54 10.43 10.14 17.57 9.55 14.84 10.08 15.71 7.66 12.49 6.51 26.98-1.58 19.73-18.68 29.72-11.94 6.97-25.57 6.6c-8.55-.23-15.35-1.42-21.76-6.96q-4.04-3.49-6.94-7.55-9.17-12.8-14.94-25.78-2.95-6.64-7.44-19.56c-6.42-18.49-8.95-38.68-8.67-58.38.33-22.59 5.11-42.92 13.47-64.05 6.31-15.96 15.04-31.48 25.86-45.32q2.78-3.56 7.09-9.42a1.037 1.034 66.881 0 1 1.86.75M1064.3 1315.19c-3.86-12.09-10.05-22.79-19.95-30.95q-3.74-3.08-9.91-6.69c-21.01-12.3-44.08-13.08-66.05-2.18q-5.21 2.58-10.46 5.98a.255.251 72.913 0 1-.39-.21q-.41-29.33-22.73-47.72c-15.13-12.46-35.36-14.47-54.2-10.04-4.38 1.02-9.34 2.99-13.5 3.71q-21.71 3.73-37.56-12.16-7.64-7.65-12.16-17.65-8.49-18.8 1.84-37.42c5.55-9.99 14.19-18.1 25.09-23.08q14.65-6.7 27.95-7.13 34.64-1.14 69.23 5.82 5.39 1.09 21.69 5.83 12.84 3.74 21.31 7.08 37.14 14.68 66.34 39.27 6.08 5.13 13.4 13.12c7.69 8.39 14.11 18.01 17.38 28.71q1.1 3.59 1.28 6.89.91 16.34-1.51 28.87-5.05 26.09-16.45 49.99a.345.345 48.554 0 1-.64-.04"></path><path fill="#fff" fill-rule="evenodd" d="M706.64 1363.32a.251.249 64.762 0 1 .16-.45c18.1.87 37.86-3.28 51.62-16.13q19.26-17.99 16.95-46.68a.466.464 6.685 0 1 .61-.48q6.28 2.06 12.81 3.35 6.42 1.27 15.74.79c6.22-.32 12.44-2.48 17.74-4.64q18.34-7.49 27.27-26.06c6.12-12.73 9.62-21.26 19.45-28.97 7.93-6.23 20.04-8.64 29.77-8.72 19.35-.15 35.03 12.7 41.62 30.49 6.89 18.6-.37 34.5-9.48 50.41-10.82 18.89-27.1 35.52-44.61 48.31q-18.19 13.3-35.91 21.8-18.65 8.94-38.72 15.01-11.51 3.49-23.7 5.19-21.77 3.05-40.11-8.38c-7.59-4.73-14.38-9.51-21.84-16.14q-6.67-5.92-16.14-15.88-1.28-1.34-3.23-2.82"></path><path fill="#fff" fill-rule="evenodd" d="M795.52 1421.64a.302.299-33.317 0 1 .11-.52c2.5-.75 6.26-1.3 8.99-2.06q23-6.42 45.15-16.07c15.34-6.67 27.92-14.59 43.21-25.29q32.2-22.53 52.43-56.51 3.33-5.59 6.52-10.78c14.55-23.72 44.18-35.6 70.6-22.61 13.7 6.74 26.42 19.76 28.31 35.07q1.53 12.48-4.49 23.88-1.73 3.29-8.58 11.78c-10.63 13.18-23.9 25.2-39.11 35.29-16.93 11.23-34.75 20.24-53.36 26.39q-34.03 11.26-70.3 12.98-32.66 1.56-64.28-6.9-12.08-3.24-13.27-3.7-1.47-.56-1.93-.95" data-source="https://football-logos.cc"></path><!-- source: https://football-logos.cc --></svg>