<svg xmlns="http://www.w3.org/2000/svg" xml:space="preserve" viewBox="29.66 11.66 197.68 234.33"><!-- Source: https://football-logos.cc --><path d="M963.781 85.04s798.849 273.89 737.989 1517.82c-376.61 0-486.93 30.43-737.989 239.66-251.07-209.23-361.39-239.66-737.992-239.66C164.922 358.93 963.781 85.04 963.781 85.04" style="fill:#fff;fill-opacity:1;fill-rule:nonzero;stroke:none" transform="matrix(.13333 0 0 -.13333 0 257.333)" data-source="https://football-logos.cc"></path><path d="M1326.27 409.543c-154.31-181.531-315.39-258.336-362.489-278.113-47.109 19.777-208.179 96.582-362.48 278.113-220.586 259.48-335.598 625.247-335.598 1063.437 0 28.56 1.172 57.86 2.152 87.03 348.125 2.73 469.223 42.17 695.926 226.8 226.699-184.63 347.789-224.07 695.919-226.8.98-29.17 2.16-58.47 2.16-87.03 0-438.19-115.02-803.957-335.59-1063.437m354.45 1171.887c-365.04 1.37-481.59 39.28-716.939 233.23-235.347-193.95-351.91-231.86-716.961-233.23-1.539-37.27-2.718-74.14-2.718-109.6 0-555.611 182.699-891.166 342.507-1078.303 166.942-195.5 341.504-271.336 377.172-285.41 35.657 14.074 210.219 89.91 377.169 285.41 159.79 187.137 342.51 522.692 342.51 1078.303 0 35.46-1.19 72.33-2.74 109.6" style="fill:#00017c;fill-opacity:1;fill-rule:nonzero;stroke:none" transform="matrix(.13333 0 0 -.13333 0 257.333)"></path><path d="M301.516 1525.77c-.368-17.57-1.313-35.48-1.313-52.8 0-428.01 111.262-784.954 324.668-1037.884 138.145-163.707 282.098-240.16 338.91-265.973 56.809 25.813 200.749 102.266 338.899 265.973 213.4 252.93 324.67 609.874 324.67 1037.884 0 17.32-.95 35.23-1.31 52.8-303.48 4.34-439.37 40.19-662.259 216.67-222.89-176.48-358.781-212.33-662.265-216.67" style="fill:#00017c;fill-opacity:1;fill-rule:nonzero;stroke:none" transform="matrix(.13333 0 0 -.13333 0 257.333)"></path><path d="M1007.25 1340.8c-5.37-19.05-22.73-33.12-43.469-33.12-12.121 0-23.519 4.71-32.093 13.29-8.571 8.57-13.29 19.97-13.29 32.09s4.719 23.51 13.29 32.08c8.574 8.58 19.972 13.3 32.093 13.3 3.403 0 6.684-.44 9.867-1.15 6.188 2.93 13.547 5.35 21.473 7.37-9.187 5.59-19.84 9-31.34 9-16.183 0-31.41-6.31-42.851-17.75-11.45-11.45-17.75-26.67-17.75-42.85 0-16.19 6.3-31.41 17.75-42.85 11.441-11.45 26.668-17.75 42.851-17.75 30.223 0 55.139 22.31 59.659 51.29-6.38-.41-11.75-1.48-16.19-2.95" style="fill:#fff;fill-opacity:1;fill-rule:nonzero;stroke:none" transform="matrix(.13333 0 0 -.13333 0 257.333)"></path><path d="M806.547 1207.49h16.398c-22.73-22.03-29.8-45.28-31.89-59.08-20.317 5.07-43.09 17.97-43.09 28.39 0 13.25 36.848 30.69 58.582 30.69m48.051 0h197.242v-61.38H810.664c2.156 13.48 10.758 39.69 43.934 61.38m127.086 39.4c13.734 0 26.446-5.12 36.166-13.63h-72.342c9.73 8.51 22.43 13.63 36.176 13.63m89.946-39.4h49.38c21.74 0 58.57-17.44 58.57-30.69 0-13.24-36.83-30.69-58.57-30.69h-49.38zm-265.083-81.15h101.695V844.691c6.156-3.89 12.77-7.625 19.738-11.23l.04 292.879h51.925V810.141c4.785-1.946 9.571-3.907 14.36-5.84 8.245-3.34 16.605-6.738 24.975-10.25l.04 332.289h101.69c23.94 0 78.37 19.06 78.37 50.46 0 21.99-26.68 37.9-50.9 45.48-6.61 2.07-12.96 3.44-18.6 4.24-3.21.44-6.27.75-8.87.75h-75.06c-4.75 18.66-15.56 34.72-30.34 46.15 18.49 12.07 32.39 30.44 38.99 51.98-3.73 5.78-7.86 10.37-12.33 13.62-4.45-24.54-20.16-45.1-41.58-56.38-11.202 5.43-23.624 8.76-36.909 8.76-13.308 0-25.73-3.34-36.953-8.79-7.051 3.71-13.742 8.16-19.539 13.96-15.09 15.09-23.398 35.15-23.398 56.49 0 21.33 8.308 41.39 23.398 56.49 15.09 15.08 35.149 23.39 56.492 23.39 22.524 0 42.809-9.45 57.349-24.49 2.49.13 4.7.54 7.32.54 4.46 0 8.68-.41 12.82-.99-17.25 24.26-45.532 40.16-77.489 40.16-25.41 0-49.293-9.89-67.25-27.86-17.968-17.96-27.855-41.84-27.855-67.24s9.887-49.29 27.855-67.25c4.723-4.74 9.891-8.86 15.356-12.43-14.754-11.43-25.532-27.49-30.285-46.11h-75.055c-23.938 0-78.363-19.06-78.363-50.47 0-31.4 54.425-50.46 78.363-50.46M1004.05 662.797l13.07-10.922c.3-.234 25.93-21.219 56.62-25.797 1.81 7.074 4.02 20.074 4.02 44.785 0 1.207-.23 2.395-.41 3.567-32.47 7.472-46.94 30.015-53.28 46.422-13.66 6.593-28.789 12.961-44.125 19.203v-1.996c0-35.547 8.235-60.821 21.275-78.52z" style="fill:#fff;fill-opacity:1;fill-rule:nonzero;stroke:none" transform="matrix(.13333 0 0 -.13333 0 257.333)" data-source="https://football-logos.cc"></path><path d="M1278.32 708.594c-2.61 2.824-5.19 5.644-5.19 5.644h-36.52c13.1 16.719 47.11 63.2 66.1 116.578-1.85-38.668-8.22-82.918-24.39-122.222m-64.5 50.312s-3.22 1.043-6.42 2.047c26.71 21.504 50.42 42.5 70.92 61.731-15.98-37.965-38.75-71.399-51.86-89.051-6.41 12.824-12.64 25.273-12.64 25.273M963.781 510.973c-.547.465-1.133.836-1.679 1.281l1.679-.328 1.672.328c-.547-.445-1.144-.816-1.672-1.281M713.727 758.906s-6.223-12.449-12.637-25.273c-13.113 17.652-35.879 51.086-51.84 89.051 20.484-19.231 44.199-40.227 70.902-61.731-3.195-1.004-6.425-2.047-6.425-2.047m-59.305-44.668s-2.582-2.82-5.18-5.644c-16.187 39.304-22.543 83.554-24.406 122.222 18.992-53.378 53.004-99.859 66.102-116.578zm679.618 216.563s-78.63-96.363-200.36-182.594l55.8-17.754 7.66-15.308c-5.87-12.375-20.19-30.551-54.81-38.86.11-1.812.37-3.543.37-5.422 0-7.558-.04-19.48-1.26-32.66 5.04 2.035 9.93 4.203 14.5 6.551-4.82-4.356-10.01-8.227-15.08-12.27-3.92-33.3-16.29-72.07-55.35-72.07-23.17 0-44.33 5.766-61.8 13.031-18.51-5.57-38.323-10.519-59.929-14.879-21.73 4.387-41.664 9.348-60.242 14.969 24.254 4.145 42.289 13.414 60.242 25.406 17.68-11.812 35.481-20.953 59.179-25.168-28.347 11.946-46.835 27.696-48.05 28.766l-12.937 11.234 12.418 14.516c-.625.434-1.239.848-1.875 1.293a15.2 15.2 0 0 1-17.485 0c-31.047-21.797-54.414-34.355-116.91-24.977l-14.168 2.125c-30.535 17.282-56.406 38.817-79.933 65.754 17.847-11.531 43.988-20.398 82.808-20.398 91.582 0 101.055 84.148 101.145 84.996v24.594a578 578 0 0 0-19.731 9.164v-32.781c-.246-1.719-7.976-66.184-81.414-66.184-65.812 0-88.59 26.773-96.418 43.258l7.668 15.32 55.789 17.754C672.137 834.438 593.52 930.801 593.52 930.801s-25.364-177.524 48.183-281.496l27.899 30.433h10.878c55.903-79.758 122.04-125.863 223.743-153.98a725 725 0 0 1 10.539-4.961c16.191-7.449 31.488-14.477 43.101-26.078l5.918-5.918 5.91 5.918c11.622 11.601 26.914 18.629 43.089 26.078 3.42 1.574 6.99 3.254 10.54 4.949 101.72 28.129 167.86 74.234 223.76 153.992h10.88l27.89-30.433c73.55 103.972 48.19 281.496 48.19 281.496" style="fill:#fff;fill-opacity:1;fill-rule:nonzero;stroke:none" transform="matrix(.13333 0 0 -.13333 0 257.333)"></path><path d="m1086.8 577.813-14.65 31.117c4.05-.563 8.16-1.082 12.36-1.117.63.433 1.48 1.625 2.39 3.39l26.85-14.012c-5.71-11.07-14.23-18.859-26.95-19.378m-80.81 60.878c.12-.105 4.39-3.546 11.18-8.003l-12.02-28.446c-11.31 6.899-18.236 12.719-18.935 13.328zm32.47-52.457c-8.94 3.2-17 6.954-24 10.704l11.91 28.191c4.53-2.559 9.47-5.141 15.09-7.566zm13.35 27.512c2.38-.805 4.81-1.461 7.3-2.129l15.78-33.476c-9.14.773-17.85 2.515-26.04 4.816zm-76.517 146.817 3.121 31.574c3.121-1.262 6.238-2.543 9.363-3.809 2.899-1.168 5.805-2.355 8.723-3.547v-32.886a2710 2710 0 0 1-20.156 8.234c-.352.133-.692.281-1.051.434M823.547 870l30.73 5.523c3.387-7.261 8.043-13.98 13.696-20.25l-25.629-17.089c-8.098 9.527-14.492 20.078-18.797 31.816m25.746 106.688 22.879-17.008a128 128 0 0 1-8.973-11.344l-28.59 9.328c4.43 6.789 9.391 13.133 14.684 19.024m46.785 6.296-14.476 22.916c3.441 2.57 6.711 4.91 9.703 6.94zm-39.41 1.481a225 225 0 0 0 16.504 14.84l15.098-23.891a183 183 0 0 1-8.672-7.98zm-6.973-64.344h-30.781c1.871 9.957 5.445 19.348 10.141 28.141l28.332-9.239c-3.313-5.972-6.028-12.277-7.692-18.902m-32.375-15.305c0 1.594.27 3.102.364 4.664h30.367c-.121-1.542-.297-3.089-.297-4.664 0-6.777 1.027-13.109 2.758-19.14l-30.129-5.422c-1.891 7.711-3.063 15.809-3.063 24.562m80.309-73.839-21.938-21.934c-9.574 6.48-18.39 13.48-26.093 21.18l26.031 17.351c6.488-5.91 13.902-11.41 22-16.597m22.891-47c-12.461 5.878-24.465 12.226-35.692 19.136l22.156 22.176c6.746-3.91 13.829-7.641 21.204-11.234zm17.476 25.41c9.777-4.489 19.906-8.801 30.133-13.016L965 764.746c-11.551 4.711-23.176 9.586-34.625 14.731zm155.684-168.274c.36 3.629.65 7.684.87 12.035l30.72 3.692c-.18-6.602-.61-14.145-1.52-21.981zm-1.37-10.593 29.93-6.239c-1.04-5.929-2.45-11.773-4.3-17.254l-27.5 14.356c.65 2.617 1.29 5.586 1.87 9.137m33.14 40.343v-3.265l-30.58-3.676c.04 2.336.15 4.433.15 6.941 0 2.547-.22 5.012-.66 7.43l28.06 13.73c1.96-6.597 3.03-13.625 3.03-21.16m-19.99 50.864c5.36-6.094 9.85-12.602 13.17-19.692l-27.59-13.519c-2.38 5.25-5.74 10.195-10.02 14.875zM1075 747.035c8.5-5.441 16.26-11.265 23-17.582l-24.72-18.539c-4.16 3.531-8.86 6.938-13.94 10.219zm-33.96 18.504c8.67-4.121 16.99-8.43 24.85-12.976l-15.64-25.883c-5.18 2.957-10.7 5.82-16.45 8.644zm-17.08-25.551a598 598 0 0 1-16.82 7.43v32.992c9.79-4.043 19.48-8.172 28.86-12.492l-5.07 1.199zm-29.655 64.313c-63.621 25.785-129.301 52.414-129.301 100.515 0 25.911 24.543 50.43 43.238 64.641v21.074c-.707-.465-1.523-1.023-2.328-1.57l-4.828 30.199c3.922 2.4 6.637 3.92 7.156 4.21v23.37l-17.476-10.94c-9.289-5.23-90.7-53.425-90.7-130.984 0-91.867 94.145-130.023 169.805-160.675 53.049-21.489 107.889-43.719 107.889-73.278 0-24.711-2.21-37.711-4.02-44.785-30.69 4.578-56.32 25.563-56.62 25.797l-13.07 10.922-11.163-12.883-30.914-36.141 12.937-11.234c1.977-1.723 49.26-42.125 110.6-42.125 57.19 0 57.19 83.137 57.19 110.449 0 73.289-78.84 105.25-148.395 133.438M1097.66 1246.8c-.8 5.16-1.81 10.86-3.03 16.93h31.18c1.16-6.19 2.03-11.81 2.76-16.93zm-85.1 113-18.556 26.88c9.686 3.03 21.116 5.06 34.446 5.06 6.19 0 11.92-.94 17.39-2.33l-7.55-29.35a39 39 0 0 1-9.84 1.24c-5.91 0-11.06-.64-15.89-1.5m-36.525-18.92-24.644 17.85c.308.43 3.172 4.08 8.265 8.68l21.477-21.48c-3.133-2.69-4.903-4.79-5.098-5.05m7.77 41.83 17.735-25.69c-4.415-1.48-8.278-3.17-11.474-4.97l-21.968 21.97c4.343 3.02 9.527 5.97 15.707 8.69m99.735-17.33-23.99-18.59c-3.51 3.61-7.25 6.73-11.34 9.08l7.77 30.18c10.63-4.6 19.69-11.83 27.56-20.67m-9.04-39.7c-2.46 4.67-5.21 8.92-8.1 12.93l23.95 18.56c4.3-5.88 8.04-12.32 11.49-19zm32 2.91c3.13-7.02 5.86-14.2 8.25-21.42l-29.41-7.8c-1.88 5.68-3.94 11.29-6.28 16.69zm-17.99-39.41 29.41 7.8c2.24-7.74 4.2-15.36 5.76-22.6h-31.35c-1.13 4.87-2.4 9.8-3.82 14.8m41.35-62.66c5.65-.79 12.01-2.17 18.62-4.24l-.13 2.15c-.46 7.54-12.41 184.56-119.9 184.56-60.618 0-88.157-36.11-91.102-40.23l-9.957-13.94 51.734-37.49 10.539 12.96c.457.57 11.496 13.76 38.786 13.76 32.67 0 50.26-75.7 54.47-116.78h17.3c-.24 2.3-.61 5.43-1.06 8.88h30.78c.45-4.04.79-7.54.97-9.72-.39.06-.68.03-1.05.09M738.066 1337.85c-13.945 0-57.058-45.65-57.058-45.65s-7.617 87.49-129.34 87.49c-114.129 0-114.125-87.49-114.125-87.49v-201.61s5.074-110.324 143.297-110.324c119.18 0 138.203 93.824 138.203 93.824 0 26.63-20.914 20.93-20.914 20.93s-45.008-60.23-91.934-60.23c-64.672 0-77.351 102.71-77.351 102.71v135.68s1.285 55.79 48.191 55.79c54.512 0 64.668-100.18 64.668-100.18s17.742-10.15 27.891 0c29.168 41.85 81.156 69.75 81.156 69.75s11.414 39.31-12.684 39.31M1176.8 1019.58H1296v31.7h-43.11v237.11l81.15-254.87 82.42 275.17v-257.41h-41.84v-31.7h143.29v31.7h-34.24V1348h34.24v31.69H1391.1l-53.26-162.3-41.84 162.3h-119.2V1348h43.11v-296.72h-43.11z" style="fill:#fff;fill-opacity:1;fill-rule:nonzero;stroke:none" transform="matrix(.13333 0 0 -.13333 0 257.333)"></path><path d="M835.852 1192.43h224.928M800.653 1213.39c-15.985-15.98-21.371-40.39-21.371-40.39M790.254 1213.39c-15.98-15.98-21.367-40.39-21.367-40.39M1117.83 1210.11c45.63-19.63 56.3-56.31 56.3-56.31M1102.61 1210.11c45.64-19.63 56.31-56.31 56.31-56.31M1089.22 1207.09c45.64-19.63 56.3-56.31 56.3-56.31" style="fill:none;stroke:#fff;stroke-width:6.08709002;stroke-linecap:butt;stroke-linejoin:miter;stroke-miterlimit:2.61310005;stroke-dasharray:none;stroke-opacity:1" transform="matrix(.13333 0 0 -.13333 0 257.333)" data-source="https://football-logos.cc"></path><!-- source: https://football-logos.cc --></svg>