<svg xmlns="http://www.w3.org/2000/svg" viewBox="33.54 125.74 528.2 590.41"><!-- Source: https://football-logos.cc --><path d="m102.63 155.414 16.574 18.075-10.612 9.9-4.988-5.212c-19.186 10.085-18.202 31.581-6.225 44.55 13.567 14.689 29.877 7.98 42.45-5.194l-4.874-5.175 10.875-9.825 16.5 18.076-10.725 9.824-2.1-2.025c-20.391 22.72-45.835 22.394-64.426 2.438-16.86-19.112-17.46-47.991 8.887-63.3l-2.175-2.325zM479.05 165.345l9.397-10.63 9.851 8.712-.664.75 22.815 20.143.648-.732 10.518 9.303-12.414 14.023-10.509-9.281 2.119-2.392-19.5-17.24-14.19 16.021 6.99 6.183 1.386-1.578 10.824 9.578-12.974 14.68-10.782-9.534 2.13-2.422-7.067-6.245-15.566 17.57 5.7 4.987-9.394 10.781-20.589-18.21 9.44-10.683 4.324 3.811 40.05-45.324z" style="fill:#c31b28;fill-rule:evenodd" data-source="https://football-logos.cc"></path><path d="m119.758 282.406 364.178 411.328-4.23 3.742L115.528 286.15ZM486.72 684.705 126.5 278.115l4.23-3.743 360.22 406.59zM485.939 641.82 148.917 261.417l4.23-3.743 337.02 380.405zM142.054 265.587 487.621 655.89l-3.105 5.805-346.69-392.367ZM486.392 601.23 171.215 245.483l4.23-3.743 315.177 355.749zM164.215 249.514l323.406 365.276-2.87 5.196-324.766-366.73zM485.89 558.427 222.068 260.645l4.23-3.743L490.12 554.684ZM188.01 234.153l299.61 338.4-2.918 5.195-300.922-339.852ZM487.008 518.87l-192.607-217.4 4.23-3.743 192.607 217.4zM263.845 278.987l223.776 252.748-3.011 5.36-224.995-254.365zM486.237 475.764 319.659 287.743l4.23-3.743 166.578 188.02zM310.95 289.954l176.67 199.543-3.105 5.185L306.72 293.697ZM486.895 435.263 343.48 273.387l4.23-3.743L491.125 431.52zM335.382 276.305l152.239 171.948-2.73 5.384-153.739-173.59ZM490.405 397.13 368.448 259.474l4.23-3.743L493.35 391.937zM360.452 262.526l127.169 143.633-2.707 5.57-128.692-145.46ZM486.37 350.48 393.333 245.47l4.23-3.743 93.035 105.011zM385.426 248.64l102.194 115.424-2.906 5.314-103.518-116.995ZM487.745 311.215l-41.61-46.967 4.23-3.743 41.61 46.967zm-78.539-76.536 78.415 88.566-2.812 5.43-79.833-90.253z" style="fill:#375a39;fill-rule:evenodd"></path><path d="M111.295 304.192v377.044c0 3.71 1.456 7.066 3.831 9.48a12.84 12.84 0 0 0 9.208 3.843h142.853l.846.354 27.22 11.408 26.671-11.39.871-.372H451.15zM463.172 694.56h7.785c3.658 0 6.988-1.5 9.405-3.917s3.917-5.747 3.917-9.406V294.023l-74.373-54.092-114.165 64.677-2.313 1.31-2.257-1.363-106.284-64.206-71.384 52.571zm30.178-402.455v389.132c0 6.163-2.518 11.763-6.574 15.82-4.057 4.056-9.656 6.574-15.82 6.574h-146.36l-27.559 11.768-1.758.751-1.75-.733-28.123-11.786H124.334c-6.15 0-11.665-2.516-15.657-6.571a22.5 22.5 0 0 1-6.453-15.823V292.77c-2.253-9.641-5.87-19.515-11.814-28.67-5.963-9.186-14.314-17.71-26.052-24.64l-1.928-1.137-.27-2.228c-1.185-9.808-3.69-18.62-7.718-26.66-4.03-8.046-9.625-15.41-16.99-22.327l-3.915-3.674 4.286-3.235 68.626-51.797 3.527-2.662 2.744 3.477c13.034 16.51 27.61 28.808 43.137 37.051 15.976 8.483 32.946 12.659 50.257 12.7 17.515.04 35.494-2.929 51.235-9.123 14.008-5.512 26.184-13.565 34.548-24.298l3.258-4.18 3.616 3.88c11.663 12.51 25.703 20.74 41.362 25.887 15.906 5.227 33.49 7.307 51.967 7.46 16.782.138 32.728-4.253 47.521-12.223 15.943-8.587 30.555-21.325 43.453-37.036l2.746-3.345 3.455 2.6 68.415 51.493 4.048 3.047-3.464 3.668c-8.19 8.671-13.779 16.03-17.595 23.657-3.791 7.576-5.92 15.582-7.21 25.583l-.287 2.231-1.945 1.117c-10.735 6.17-19.051 13.923-25.198 22.53-6.675 9.347-10.799 19.726-12.689 30.188m-395.357-32.93c5.336 8.22 8.966 16.89 11.463 25.487l72.512-53.402 2.431-1.79 2.582 1.56 106.61 64.402 114.394-64.807 2.543-1.441 2.347 1.706 72.998 53.092a83.4 83.4 0 0 1 12.796-27.31c6.488-9.085 15.124-17.308 26.138-23.977 1.45-10.011 3.796-18.292 7.793-26.278 3.684-7.363 8.709-14.355 15.67-22.114l-60.999-45.91c-12.953 15.096-27.514 27.415-43.362 35.952-16.083 8.664-33.486 13.437-51.88 13.285-19.383-.16-37.878-2.358-54.696-7.884-15.508-5.097-29.586-13-41.624-24.696-9.163 10.135-21.354 17.834-35.065 23.23-16.78 6.602-35.913 9.768-54.53 9.724-18.833-.044-37.24-4.558-54.51-13.727-15.467-8.212-30.033-20.173-43.182-36.016l-60.967 46.016c6.294 6.555 11.272 13.545 15.066 21.12 4.219 8.423 6.94 17.495 8.35 27.425 12.044 7.484 20.772 16.572 27.122 26.353" style="fill:#1f1b1a;fill-rule:evenodd"></path><path d="M354.921 371.56c-5.782-4.311-12.624-7.81-19.327-10.233-10.25-3.705-24.898-5.512-35.802-6.009-13.534-.616-26.478 3.232-36.705 12.278-8.47 7.491-14.54 18.026-16.6 29.159a43 43 0 0 0-.681 5.834c-.378 8.29 1.134 16.543 5.422 23.728 4.298 7.202 10.844 12.443 18.328 16.068l.529.264.065.035c8.204 4.417 17.624 6.978 26.732 8.73 11.143 2.142 22.517 3.248 33.81 4.263 8.388.754 16.795 1.835 25.004 3.752 8.74 2.04 17.168 5.003 25.097 9.234 17.75 9.47 34.562 22.088 46.703 38.286 11.139 14.862 17.717 31.893 18.04 50.536.29 16.654-3.938 32.515-10.37 47.754-6.117 14.493-14.02 28.05-26.404 38.06-14.79 11.954-31.741 21.47-49.535 28.153-17.385 6.529-36.223 10.576-54.823 10.897-34.073.587-66.642-12.581-93.996-32.231-27.458-19.725-51.556-47.55-62.41-79.96l-1.531-4.57 28.969-9.697 1.53 4.569c8.834 26.378 28.183 49.742 50.598 65.844 22.1 15.874 48.921 25.986 76.346 25.514 15.095-.26 30.453-3.676 44.554-8.972 14.764-5.545 28.856-13.429 41.13-23.349 8.396-6.786 14.677-15.676 18.862-25.593 4.772-11.307 6.762-23.689 6.55-35.924-.21-12.1-4.724-23.09-11.937-32.714-9.408-12.552-22.912-22.337-36.645-29.663-5.548-2.96-11.563-4.96-17.672-6.386-6.812-1.59-13.765-2.503-20.726-3.128-12.318-1.108-24.744-2.308-36.897-4.645-12.19-2.343-24.299-5.86-35.283-11.742-12.83-6.3-23.035-15.672-30.36-27.946-7.376-12.358-10.858-26.102-10.202-40.507.153-3.36.547-6.71 1.16-10.017 3.29-17.777 13.075-34.167 26.569-46.102 7.478-6.615 16.02-11.853 25.38-15.353 10.5-3.927 21.554-5.49 32.74-4.98 4.643.21 9.267.762 13.837 1.608 10.09 1.868 20.095 3.968 29.884 7.087 3.43 1.093 6.835 2.378 10.067 3.99v-2.426h30.488v47.738h-30.488z" style="fill:#fff;fill-rule:evenodd"></path><path d="M359.74 339.875h20.85v38.1h-20.85V369.2c-6.132-4.953-14.184-9.396-22.508-12.405-10.37-3.749-26.212-5.79-37.22-6.29-16.851-.768-30.345 4.837-40.118 13.481-9.844 8.707-16.029 20.454-18.146 31.892a48 48 0 0 0-.756 6.492c-.452 9.92 1.612 18.9 6.098 26.417 4.394 7.362 11.21 13.5 20.366 17.935l.41.204c8.183 4.407 17.773 7.233 28.106 9.22 11.045 2.123 22.638 3.283 34.288 4.33 8.323.749 16.52 1.82 24.34 3.646 8.2 1.914 16.221 4.682 23.925 8.792 18.924 10.096 34.365 22.582 45.115 36.926 10.71 14.288 16.777 30.36 17.078 47.729.288 16.583-4.1 31.84-9.991 45.796-5.95 14.096-13.438 26.847-24.994 36.186-14.565 11.773-31.162 20.99-48.2 27.39-17.749 6.665-36.085 10.295-53.212 10.59-33.115.57-64.592-12.284-91.102-31.327-28.03-20.136-50.562-47.448-60.652-77.577l19.83-6.637c8.71 26.009 27.792 50.582 52.356 68.227 23.066 16.57 50.847 26.909 79.24 26.42 14.692-.254 30.599-3.434 46.165-9.28 15.038-5.647 29.661-13.763 42.465-24.112 8.824-7.131 15.665-16.55 20.273-27.467 4.768-11.298 7.166-24.203 6.928-37.882-.221-12.75-4.804-24.72-12.9-35.52-8.886-11.857-21.977-22.354-38.232-31.025-5.83-3.11-12.18-5.27-18.845-6.827-7.043-1.644-14.206-2.59-21.39-3.235-12.493-1.123-24.891-2.36-36.418-4.577-12.2-2.346-23.73-5.79-33.993-11.298-12.797-6.266-21.998-15.364-28.422-26.127-6.624-11.099-10.165-23.799-9.526-37.819.14-3.092.504-6.224 1.084-9.36 2.91-15.725 11.546-31.447 25.024-43.369 13.549-11.984 31.881-20.168 54.707-19.129 4.254.194 8.65.695 13.18 1.534 8.735 1.616 19.032 3.668 29.299 6.94 5.601 1.784 11.514 4.221 16.348 8.102z" style="fill:#c31b28;fill-rule:evenodd"></path><path d="m305.108 329.186 153.714 360.976h-56.157v-27.809h11.992l-27.385-65.19h-188.66l-27.81 65.19h11.73v27.81h-58.229v-27.81h14.468l141.21-333.167H268.68v-23.317h49.754v23.317zM374.5 566.758 293.671 374.34l-82.088 192.418z" style="fill:#fff;fill-rule:evenodd" data-source="https://football-logos.cc"></path><path d="M272.932 310.121h41.25v14.813h-15.506L452.39 685.91h-45.473v-19.305h14.138l-30.957-73.695H195.804l-31.44 73.695h13.915v19.305h-49.724v-19.305h13.032l144.814-341.671h-13.47Zm107.966 260.89-87.196-207.578-88.555 207.577Z" style="fill:#1f1b1a;fill-rule:evenodd"></path><path d="m293.537 194.025 10.348 20.857 23.034 3.397-16.638 16.287 3.887 22.956-20.631-10.79-20.631 10.79 3.887-22.956-16.638-16.287 23.034-3.397z" style="fill:#d0be2e;fill-rule:evenodd"></path><path d="m294.824 176.666-.075 10.5-2.4-.01.075-10.5zM275 180.13l3.978 9.718-2.218.916-3.978-9.718zM258.044 190.966l7.415 7.435-1.694 1.7-7.415-7.435zM246.572 207.5l9.708 4.003-.908 2.222-9.708-4.003zM242.359 227.178l10.5-.047.018 2.4-10.5.047zM246.054 246.96l9.67-4.09.942 2.207-9.67 4.09zM257.087 263.79l7.348-7.502 1.72 1.674-7.348 7.502zM273.754 275.068l3.889-9.754 2.232.882-3.89 9.753zM293.48 279.051l-.17-10.499 2.399-.046.17 10.5zM313.216 275.126l-4.202-9.623 2.196-.967 4.203 9.622zM329.916 263.897l-7.586-7.26 1.654-1.739 7.586 7.26zM341 247.1l-9.799-3.775.856-2.242 9.798 3.775zM344.753 227.33l-10.497.292-.074-2.4 10.496-.291zM340.597 207.64l-9.573 4.314-.993-2.185 9.573-4.314zM329.175 191.072l-7.171 7.67-1.758-1.633 7.17-7.67zM312.25 180.185l-3.661 9.842-2.252-.83 3.66-9.841z" style="fill:#d2bf23;fill-rule:evenodd"></path><path d="m263.765 200.101-7.415-7.434 1.693-1.7 7.416 7.434zm42.572-10.903 3.66-9.843 2.253.83-3.661 9.842zm-50.965 24.527-9.708-4.003.908-2.221 9.707 4.002zm21.388-22.96-3.978-9.719 2.219-.916 3.977 9.718zm15.59-3.609.074-10.5 2.4.01-.075 10.5zm-9.162 27.726 10.349-20.857 10.348 20.857 23.034 3.397-16.638 16.287 3.887 22.956-20.631-10.791-20.631 10.79 3.887-22.955-16.638-16.287zm-96.207 16.147 106.61 64.402 114.394-64.807 2.543-1.441 2.347 1.706 72.998 53.092a83.4 83.4 0 0 1 12.796-27.31c6.488-9.085 15.124-17.308 26.138-23.977 1.45-10.011 3.796-18.292 7.793-26.278 3.684-7.363 8.709-14.355 15.67-22.114l-60.999-45.91c-12.953 15.096-27.514 27.415-43.362 35.952-16.083 8.664-33.486 13.437-51.88 13.285-19.383-.16-37.878-2.358-54.696-7.884-15.508-5.097-29.586-13-41.624-24.696-9.163 10.135-21.354 17.834-35.065 23.23-16.78 6.602-35.913 9.768-54.53 9.724-18.833-.044-37.24-4.558-54.51-13.727-15.467-8.212-30.033-20.173-43.182-36.016l-60.967 46.016c6.294 6.555 11.272 13.545 15.066 21.12 4.219 8.423 6.94 17.495 8.35 27.425 12.044 7.484 20.772 16.573 27.122 26.354 5.336 8.219 8.966 16.89 11.463 25.486l72.511-53.402 2.432-1.79zm-41.151-28.496 16.5 18.076-10.725 9.824-2.1-2.025c-20.391 22.72-45.835 22.394-64.426 2.438-16.86-19.112-17.46-47.991 8.887-63.3l-2.175-2.325 10.838-9.807 16.575 18.075-10.612 9.9-4.988-5.212c-19.186 10.085-18.202 31.581-6.225 44.55 13.567 14.689 29.877 7.98 42.45-5.194l-4.874-5.175zm185.194 9.421-.993-2.185 9.573-4.314.994 2.184zm110.52.986 40.049-45.324-2.544-2.271 9.398-10.63 9.851 8.712-.664.75 22.815 20.143.648-.732 10.518 9.303-12.414 14.023-10.509-9.281 2.119-2.392-19.5-17.24-14.19 16.021 6.99 6.183 1.386-1.578 10.824 9.578-12.974 14.68-10.782-9.534 2.13-2.422-7.067-6.245-15.566 17.57 5.7 4.987-9.394 10.781-20.59-18.21 9.44-10.683zM340.998 247.1l-9.798-3.775.856-2.242 9.798 3.775zm-98.64-19.922 10.5-.047.018 2.4-10.5.047zm87.557 36.72-7.586-7.26 1.654-1.74 7.586 7.26zm-16.7 11.228-4.202-9.623 2.196-.968 4.202 9.623zm-67.162-28.166 9.67-4.09.943 2.207-9.671 4.09zm47.425 32.091-.17-10.499 2.4-.046.17 10.499zm-36.392-15.261 7.348-7.502 1.72 1.674-7.348 7.501zm16.667 11.277 3.89-9.753 2.231.882-3.89 9.753zm60.503-47.445-.075-2.399 10.496-.292.075 2.398zm-14.011-30.513 7.17-7.671 1.76 1.633-7.172 7.671zM111.295 304.192v377.044c0 3.71 1.456 7.066 3.831 9.48a12.84 12.84 0 0 0 9.208 3.843h142.85299999999998l.846.354 27.22 11.408 26.671-11.39.871-.372H451.15l-3.828-4.397h-44.657v-27.809h11.992l-7.474-17.793c-14.413 11.364-30.792 20.446-47.956 26.892-17.385 6.529-36.223 10.576-54.823 10.896-34.073.588-66.642-12.58-93.996-32.23-8.864-6.368-17.377-13.579-25.208-21.516l-14.399 33.751h11.73v27.81h-58.228v-27.81h14.468l25.289-59.664c-6.721-10.166-12.221-21.062-16.063-32.531l-1.53-4.57 28.969-9.697 1.53 4.569a109 109 0 0 0 2.326 6.29l50.339-118.77a75 75 0 0 1-4.145-6.224 73.4 73.4 0 0 1-6.411-13.764z" style="fill:#fff;fill-rule:evenodd"></path><path d="M366.356 597.162H198.613l-.525 1.23c8.553 10.677 18.658 20.14 29.476 27.912 22.1 15.874 48.921 25.986 76.346 25.514 15.095-.26 30.453-3.676 44.554-8.972 13.872-5.21 27.15-12.484 38.884-21.572zM211.583 566.758h128.303L255.04 469.3a76 76 0 0 1-1.538-.8zM445.47 658.81l12.852 30.178 4.85 5.57h7.784c1.848 0 3.612-.382 5.217-1.072zM438.48 642.394l42.316 47.793a13.28 13.28 0 0 0 3.465-8.257l-55.733-62.907zM437.536 599.322l46.743 52.795v-12.169l-43.741-49.372a145 145 0 0 1-3.002 8.746M445.227 566.906l39.052 44.109v-12.17l-38.822-43.82q.058 1.226.08 2.46a95 95 0 0 1-.31 9.421M484.28 661.429l-49.287-55.78a155 155 0 0 1-3.665 8.016l52.951 59.768zM442.344 584.097l41.935 47.334v-11.978l-39.945-45.107c-.516 3.28-1.186 6.53-1.99 9.75M444.419 545.337l39.86 44.992v-13.06l-45.843-51.773c2.799 6.336 4.825 12.96 5.983 19.84M335.647 400.903 484.279 568.78v-12.17L325.76 377.685ZM318.776 361.284l165.503 186.808V536.72L326.93 358.83c-3.217-.743-6.6-1.36-9.991-1.862zM355.754 382.795 484.279 527.96v-12.17L366.451 382.796ZM373.997 382.795l110.282 124.478v-12.858l-98.87-111.766v.145zM385.41 374.053l98.87 111.67v-12.168l-98.87-111.598ZM385.41 353.44l98.87 111.597v-12.09L385.41 341.31ZM338.829 280.198l145.45 164.282v-12.17L345.944 276.167ZM350.968 273.32l133.311 150.473v-12.78l-125.655-142.03ZM363.649 266.137l120.63 136.248v-12.17L370.775 262.1ZM375.799 259.253 484.279 381.7v-12.814L383.444 254.922ZM388.469 252.075l95.81 108.216v-12.17l-88.674-100.088ZM400.63 245.186l83.65 94.418v-11.527l-76.769-86.79zM421 247.999l63.28 71.473v-12.17l-33.083-37.34zM472.415 285.394l11.864 13.391v-4.762zM379.87 335.057l-46.064-52.013-7.167 4.06 42.483 47.953zM361.577 335.057l-39.962-45.107-7.105 4.025 37.22 42.039q1.619.686 3.191 1.468v-2.426zM340.846 332.273l-22.412-25.335v13.141l7.53 8.5c4.999 1.069 9.965 2.268 14.882 3.694M305.844 305.869h11.644l-8.003-9.047-7.76 4.397zM293.346 305.869l-2.175-1.314-10.079-6.088 6.554 7.402zM295.741 304.608l-2.226 1.261h4.784l-1.599-1.804zM280.083 305.869l-15.219-17.206-22.433-13.551 27.25 30.757zM268.68 313.256l-42.484-47.952-22.799-13.773 65.283 73.735zM265.978 330.726l-78.798-88.991-2.293-1.386-6.459 4.757 79.351 89.566a79 79 0 0 1 8.199-3.946M252.856 337.632l-78.994-89.163-6.399 4.712 78.91 89.127a83 83 0 0 1 6.483-4.677M242.085 345.963l-79.188-89.42-6.506 4.792 80.017 90.317a85 85 0 0 1 5.677-5.689M232.717 356.003l-80.892-91.305-6.39 4.706 82.534 93.219a85 85 0 0 1 4.748-6.62M224.861 367.832l-83.996-95.063-6.993 5.15 87.024 98.225a81 81 0 0 1 3.965-8.312M218.706 382.19l-89.4-100.908-6.382 4.7 93.462 105.563.057-.313a76 76 0 0 1 2.263-9.042M215.424 398.979l-97.067-109.634-4.854 3.575 101.893 117.037a74 74 0 0 1 .028-10.978M253.311 379.248a53 53 0 0 0-3.887 7.608l4.135 4.67 3.44-8.116zM251.043 397.462l-3.76-4.254a48 48 0 0 0-.796 3.547 43 43 0 0 0-.681 5.834q-.037.809-.05 1.616l1.643 1.854zM256.63 374.477l2.81 3.172 3.465-8.175-.84-.949a51.7 51.7 0 0 0-5.435 5.952M290.976 380.659l-3.462 8.115 23.254 26.265-9.619-22.897zM317.546 431.175l-32.476-36.673-3.477 8.15 45.586 51.456zM320.136 454.674l-40.996-46.272-3.46 8.11 32.54 36.751c3.96.546 7.937 1.002 11.915 1.411M299.073 451.821l-25.934-29.351-3.641 8.533 15.618 17.629c3.9 1.131 7.862 2.03 11.766 2.782q1.095.21 2.191.407M273.977 444.576l-6.932-7.824-1.486 3.484a53 53 0 0 0 3.997 2.149l.529.264.065.034a63 63 0 0 0 3.827 1.893M353.406 442.609l19.935 22.5a93 93 0 0 1 7.452 3.554 175 175 0 0 1 15.642 9.398l-53.81-60.772ZM408.683 534.088l-23.491-26.526a123 123 0 0 0-5.946-4.271l7.86 18.458 27.549 31.095c-.795-6.631-2.881-12.898-5.972-18.756M415.001 561.752l-20.91-23.603 9.928 23.317 10.115 11.425c.509-3.692.792-7.417.867-11.14M343.62 493.248l-2.314-5.51q-1.484-.248-2.974-.463zM350.82 510.386l-21.35-24.163q-.723-.068-1.444-.134c-3.531-.318-7.07-.643-10.61-1l43.316 48.892zM367.536 550.178l-58.478-66.005a284 284 0 0 1-12.172-1.706l74.629 84.291h2.985zM363.971 566.758l-76.118-85.973c-4.69-.988-9.353-2.167-13.931-3.603l77.986 89.576z" style="fill:#fff;fill-rule:evenodd" data-source="https://football-logos.cc"></path><!-- source: https://football-logos.cc --></svg>