<svg xmlns="http://www.w3.org/2000/svg" xml:space="preserve" style="fill-rule:evenodd;clip-rule:evenodd;stroke-linejoin:round;stroke-miterlimit:2" viewBox="0.01 0.01 436.06 483.8"><!-- Source: https://football-logos.cc --><path d="M77.274-453.227a2 2 0 0 0-1.516-1.249c-.888-.158-21.898-3.733-35.157 7.913-6.84 6.007-10.285 14.899-10.257 26.459-8.668-1.985-36.041-6.194-45.778 16.818a2 2 0 0 0 1.035 2.609c3.618 1.596 5.941 4.276 6.544 7.543.622 3.379-.709 6.986-3.652 9.898-6.684 6.613-15.584 6.825-24.12 6.476-6.761-.276-16.253-2.258-23.081-10.129-5.34-6.153-7.259-16.558-1.226-23.318 6.708-7.516 18.923-7.865 27.23-.777a2 2 0 0 0 3.274-1.214c.09-.582 2.116-14.349-6.277-23.567-4.881-5.36-12.19-7.982-21.716-7.828.527-7.977 1.195-31.993-9.211-37.67-1.902-1.036-4.006-1.184-6.254-.438-9.716 3.224-20.233 23.466-23.567 30.345-3.75-2.043-12.229-5.688-21.178-2.917-8.111 2.509-14.445 9.592-18.827 21.052a2 2 0 0 0 2.352 2.655l1.056-.264c8.293-2.08 16.129-4.044 22.247 2.008 8.377 8.283 5.142 17.552 2.467 22.34-7.522 13.463-36.174 13.021-52.465 9.58-7.589-1.602-19.369-7.579-21.798-15.846-1.652-5.625-1.316-12.245-.991-18.647.131-2.57.266-5.228.266-7.765 0-1.469.036-2.963.071-4.467.194-8.163.396-16.603-4.703-23.304-2.871-3.774-5.448-5.994-8.996-7.641 2.808-6.876 3.067-12.002.801-15.63-2.095-3.351-6.261-5.135-12.439-5.305-5.795 0-9.788 1.745-11.868 5.187-3.072 5.084-.749 12.311.689 15.768-3.527 1.644-6.094 3.862-8.955 7.621-5.098 6.701-4.897 15.141-4.703 23.304.035 1.504.072 2.998.072 4.467 0 2.537.134 5.195.265 7.765.325 6.402.661 13.022-.991 18.647-2.429 8.267-14.209 14.244-21.798 15.846-16.291 3.442-44.944 3.885-52.465-9.58-2.675-4.788-5.91-14.057 2.467-22.34 6.119-6.051 13.954-4.089 22.247-2.008l1.057.264a2 2 0 0 0 2.351-2.655c-4.381-11.46-10.715-18.543-18.827-21.052-8.95-2.768-17.428.873-21.177 2.917-3.334-6.877-13.85-27.121-23.568-30.345-2.248-.745-4.351-.599-6.254.438-10.406 5.677-9.737 29.693-9.211 37.67-9.51-.148-16.834 2.469-21.716 7.828-8.392 9.218-6.367 22.985-6.277 23.567a2 2 0 0 0 3.275 1.214c8.305-7.087 20.52-6.74 27.229.777 6.033 6.76 4.114 17.165-1.226 23.319-6.828 7.87-16.32 9.852-23.081 10.128-8.536.348-17.433.137-24.12-6.476-2.942-2.912-4.273-6.519-3.651-9.898.602-3.267 2.926-5.947 6.544-7.543a2 2 0 0 0 1.034-2.609c-9.736-23.015-37.11-18.803-45.777-16.817.027-11.561-3.417-20.453-10.257-26.46-13.26-11.645-34.27-8.07-35.157-7.913a2 2 0 0 0-1.233 3.192l73.617 95.212a10.95 10.95 0 0 0-3.035 7.565c0 6.066 4.935 11 11 11 1.756 0 3.412-.424 4.886-1.159l8.842 11.948c-18.64 60.333-49.861 346.607 189.772 465.288C21.142 20.812-.843-237.165-18.522-326.718l8.179-12.126a10.93 10.93 0 0 0 5.251 1.337c6.066 0 11-4.934 11-11 0-2.787-1.051-5.327-2.765-7.268l73.847-95.509c.428-.553.536-1.29.284-1.943" style="fill:#f7c321" transform="matrix(.763 0 0 .763 377 378.08)" data-source="https://football-logos.cc"></path><path d="M81.902 134.828c4.038 4.578 110.693 134.809 110.693 134.809-7.576 7.95-40.064 47.493 25.25 80.26v126.38c44.12-23.908 79.615-54.498 104.013-96.088 19.506-33.253 32.472-71.896 38.537-114.855 10.318-73.08-3.29-132.896-3.29-132.896"></path><path d="M-381.14-326.007c53.151-16.864 108.355-25.158 172.522-26 63.914.838 120.821 9.363 173.517 26z" style="fill:#ed1c24" transform="matrix(.7735 0 0 .763 379.184 378.809)"></path><path d="m-112.537-252.944-1.234-6.789 3.929-5.895v-11.629h-12.5v9h-4.5v-9h-11.5v9h-3.5v-9h-11.5v11.629l3.956 5.933-2.82 24.438h-24.936l-9.55-34.382 3.85-3.85v-14.018h-12.5v9.25h-5.5v-9.25h-15v9.25h-5.5v-9.25h-12.5v14.018l3.851 3.85-9.551 34.382h-24.936l-2.82-24.438 3.956-5.933v-11.629h-11.5v9h-3.5v-9h-11.5v9h-4.5v-9h-12.5v11.629l3.93 5.895-1.326 7.293-34.954-43.067h261.201z" style="fill:#00aeef" transform="matrix(.763 0 0 .763 377 378.08)"></path><path d="M-208.592-152.507c12.718 0 24.199 5.372 32.316 13.956-.118.115-.227.232-.344.348-23.121 11.978-44.089 11.959-64.097-.069l-.051.084c-.084-.083-.163-.167-.248-.251 8.124-8.649 19.65-14.068 32.424-14.068M-178.209-75.537c-7.96 7.454-18.644 12.031-30.383 12.031-11.796 0-22.526-4.623-30.498-12.14 18.836-14.457 38.788-14.42 60.881.109" style="fill:#ab785a" transform="matrix(.74053 0 0 .74053 372.313 375.65)"></path><path d="M251.071 281.215a36.3 36.3 0 0 0-5.587-8.95l.046-.056c1.139 1.165 3.673 4.129 5.541 9.006"></path><path d="M-237.345-203.257c0-1.539.275-11.579 7.234-18.775 4.958-5.126 12.198-7.725 21.519-7.725 9.097 0 16.214 2.589 21.155 7.695 6.28 6.49 7.363 15.396 7.542 18.805z" style="fill:#00aeef" transform="matrix(.763 0 0 .763 377 378.08)"></path><path d="M-174.403-140.932a48 48 0 0 0-5.872-5.187l46.717-57.311a7.5 7.5 0 0 0 2.466.423 7.5 7.5 0 0 0 7.5-7.5 7.45 7.45 0 0 0-1.066-3.84l72.357-88.766c.395.064.796.106 1.209.106a7.5 7.5 0 0 0 7.5-7.5c0-.944-.18-2.082-.628-3-1.25-2.561-3.798-4.5-6.872-4.5a7.5 7.5 0 0 0-6.872 4.5H-201.72a7.5 7.5 0 0 0-6.872-4.5 7.5 7.5 0 0 0-6.872 4.5H-360.22a7.499 7.499 0 0 0-14.372 3 7.5 7.5 0 0 0 7.5 7.5 7.5 7.5 0 0 0 1.996-.277l72.117 89.807a7.5 7.5 0 0 0 6.887 10.47c.483 0 .954-.05 1.411-.137l46.556 57.976a48 48 0 0 0-4.771 4.357l-147.14-181.196 365.179-1.311z" style="fill:#f7c321" transform="matrix(.763 0 0 .763 377 378.08)"></path><path d="M-345.007 4.097c-25.951-43.547-43.181-94.185-51.212-150.509-12.093-84.814.959-156.045 8.149-171.081l144.454 177.627c-6.96 8.265-12.476 20.234-12.476 31.86 0 26.191 21.309 47.5 47.5 47.5v189.207C-266.789 97.455-312.797 58.147-345.007 4.097" style="fill:#fff" transform="matrix(.763 0 0 .763 377 378.08)"></path><path d="M-103.381-202.007s36.007 29.196 12.652 58.39c-24.538 30.671-63.257 1.947-63.257 1.947zm4.826 31.84c-1.271-4.324-4.021-7.109-4.138-7.225l-.743-.743-24.77 28.898.946.602c.061.039 3.391 2.092 8.339 2.092 4.242 0 9.674-1.51 15.256-7.09 6.37-6.371 6.295-12.508 5.11-16.534" style="fill:#fff" transform="matrix(.763 0 0 .763 396 358.08)"></path><path d="M-242.616-136.644c19.676 19.396 20.179 38.71 1.508 58.973-7.426-7.955-11.984-18.62-11.984-30.335 0-10.901 3.946-20.892 10.476-28.638M-176.186-77.557c-18.817-20.346-18.315-39.733 1.516-59.205 6.59 7.762 10.578 17.8 10.578 28.756 0 11.771-4.603 22.482-12.094 30.449" style="fill:#ab785a" transform="matrix(.74053 0 0 .74053 372.313 375.65)"></path><path d="M-152.866-203.257h-10.592c.24-8.041 2.812-14.269 7.662-18.514 7.618-6.666 18.931-6.771 23.26-6.534z" style="fill:#00aeef" transform="matrix(.763 0 0 .763 377 378.08)"></path><path d="M-304.342-266.385v-8.372h7.5v9h9.5v-9h6.5v9h8.5v-9h6.5v8.372l-4.044 6.066 3.18 27.562h29.064l10.45-37.618-4.15-4.149v-10.483h7.5v9.25h10.5v-9.25h10v9.25h10.5v-9.25h7.5v10.483l-4.149 4.149 10.449 37.618h29.064l3.18-27.562-4.044-6.066v-8.372h6.5v9h8.5v-9h6.5v9h9.5v-9h7.5v8.372l-4.07 6.105 1.799 9.893-16.01 19.726c-1.939-.231-16.88-1.677-26.808 6.998-5.419 4.737-8.28 11.601-8.527 20.406h-11.424c-.158-3.673-1.26-13.296-8.241-20.526-5.43-5.623-13.158-8.474-22.969-8.474-10.037 0-17.888 2.863-23.336 8.508-7.643 7.921-7.931 18.569-7.918 20.492h-11.52c-.247-8.805-3.108-15.669-8.527-20.406-9.723-8.499-24.268-7.281-26.68-7.013l-15.59-19.207 1.892-10.397z" style="fill:#f7c321" transform="matrix(.763 0 0 .763 377 378.08)"></path><path d="M-261.527-221.771c4.85 4.245 7.421 10.473 7.661 18.514h-10.452l-20.336-25.055c4.425-.228 15.586-.059 23.127 6.541" style="fill:#00aeef" transform="matrix(.763 0 0 .763 377 378.08)"></path><path d="M-286.092-218.007a7.45 7.45 0 0 0-3.438.84l-71.46-88.989a7.5 7.5 0 0 0 1.12-2.351h144.056c.877 3.17 3.773 5.5 7.222 5.5 3.448 0 6.346-2.33 7.222-5.5h143.056a7.5 7.5 0 0 0 1.575 2.925l-71.768 88.042a7.5 7.5 0 0 0-2.585-.467 7.5 7.5 0 0 0-7.5 7.5 7.45 7.45 0 0 0 1.133 3.949l-47.002 57.661a47.4 47.4 0 0 0-6.168-3.072l118.937-146.538h-273.799l118.936 146.538a47.4 47.4 0 0 0-7.494 3.891l-46.28-57.631a7.5 7.5 0 0 0-5.763-12.298" style="fill:#f7c321" transform="matrix(.763 0 0 .763 377 378.08)" data-source="https://football-logos.cc"></path><path d="m-223.583-153.069-7.718-9.508h11.468v-2h-13.091l-3.015-3.715h5.347v-2h-6.97l-3.015-3.714h21.744v-2H-242.2l-3.015-3.714h15.129v-2h-16.752l-7.653-9.429h24.405v-2h-26.028l-3.015-3.714h12.537v-2h-14.16l-1.537-1.894h107.394l-1.537 1.894h-14.16v2h12.537l-3.015 3.714h-26.534v2h24.911l-7.653 9.429h-17.258v2h15.635l-3.015 3.714h-23.367v2h21.744l-3.015 3.714h-9.982v2h8.359l-3.015 3.715h-15.091v2h13.468l-7.718 9.508a47.3 47.3 0 0 0-29.982 0" style="fill:#8dd8f8" transform="matrix(.763 0 0 .763 377 378.08)"></path><path d="M-5.092-341.507c-3.859 0-7-3.14-7-7s3.141-7 7-7 7 3.14 7 7-3.14 7-7 7" style="fill:#ed1c24" transform="matrix(.763 0 0 .763 377 378.08)"></path><path d="M-209.782-127.216c9.448 0 19.191-2.304 29.322-6.901-15.435 17.696-15.716 35.919-.841 54.31-19.371-11.313-37.191-11.595-54.126-.844 14.094-17.98 13.686-35.795-1.209-53.108 8.735 4.357 17.655 6.543 26.854 6.543" style="fill:#ab785a" transform="matrix(.70493 0 0 .70493 364.888 371.842)"></path><path d="M-419.092-348.507c0-3.86 3.141-7 7-7s7 3.14 7 7-3.14 7-7 7-7-3.14-7-7" style="fill:#ed1c24" transform="matrix(.763 0 0 .763 377 378.08)"></path><path d="M210.03 235.065h-20.996v1.526h20.996zM225.658 235.065h20.997v1.526h-20.997zM228.343 230.705h-20.996v1.526h20.996zM226.815 248.145h-20.996v1.526h20.996zM228.343 239.425h-20.996v1.526h20.996zM227.581 256.864h-20.996v1.526h20.996zM215.176 226.345h-20.997v1.526h20.997zM241.51 226.345h-20.996v1.526h20.996z"></path><path d="M0 44.127c-5.707 0-11.364-2.215-15.691-8.705C-30.226 13.62-5.728-2.442-5.728-2.442l-9.869-11.767s-36.007 29.195-12.651 58.39C-19.708 54.857-9.45 58.336.296 58.336c18.254 0 34.712-12.209 34.712-12.209L24.753 33.9S12.263 44.127 0 44.127" style="fill-rule:nonzero" transform="matrix(.763 0 0 .763 128.5 214.788)"></path><path d="m0-63 2.621 13.379C6.425-50.709 16.743-54.902 39-56V8h10v-79c-29.983 0-49 8-49 8" style="fill-rule:nonzero" transform="matrix(.763 0 0 .763 180.459 411.646)"></path><path d="m0-63 2.621 13.379C6.425-50.709 16.743-54.902 39-56V8h10v-79c-29.983 0-49 8-49 8" style="fill:#fff;fill-rule:nonzero" transform="matrix(-.763 0 0 .763 255.23 411.646)"></path><path d="M0 14c-3.859 0-7-3.14-7-7s3.141-7 7-7 7 3.14 7 7-3.141 7-7 7" style="fill:#00aeef" transform="matrix(1.19158 0 0 1.199 217.846 80.121)"></path><path d="M0 14c-3.859 0-7-3.14-7-7s3.141-7 7-7 7 3.14 7 7-3.141 7-7 7" style="fill:#00a152" transform="matrix(.90586 0 0 .90586 133.913 90.563)"></path><path d="M0 14c-3.859 0-7-3.14-7-7s3.141-7 7-7 7 3.14 7 7-3.141 7-7 7" style="fill:#00a152" transform="matrix(.90586 0 0 .90586 301.776 90.563)"></path><path d="M0 7c2.761 0 5-1.567 5-3.5S2.761 0 0 0s-5 1.566-5 3.5S-2.762 7 0 7" style="fill-rule:nonzero" transform="matrix(.563 0 0 .763 217.846 284.988)"></path><path d="M0 7c2.761 0 5-1.567 5-3.5S2.761 0 0 0s-5 1.566-5 3.5S-2.762 7 0 7" style="fill-rule:nonzero" transform="matrix(.563 0 0 .763 217.846 293.263)"></path><path d="M0 7c2.761 0 5-1.567 5-3.5S2.761 0 0 0s-5 1.566-5 3.5S-2.762 7 0 7" style="fill-rule:nonzero" transform="matrix(.563 0 0 .763 217.846 301.534)" data-source="https://football-logos.cc"></path><!-- source: https://football-logos.cc --></svg>