<svg xmlns="http://www.w3.org/2000/svg" viewBox="12.53 15.29 566.99 664.73"><!-- Source: https://football-logos.cc --><path d="M295.945 155.794c90.548 34.678 182.489 40.912 278.137-31.53 13.395 255.82-77.861 441.229-278.138 551.753C95.668 565.493 4.422 380.084 17.817 124.264c95.649 72.442 187.58 66.208 278.128 31.53" style="fill-rule:evenodd;fill:#fff" data-source="https://football-logos.cc"></path><path d="M397.86 307.68v297.663c-32.447 27.947-66.473 51.195-101.688 70.901l-8.675-4.97v-325.08zM571.98 246.916c-9.921 125.016-53.498 228.542-127.72 312.505V291.487zM239.607 362.907v278.047c-39.281-27.3-75.776-60.37-107.557-100.006V400.442z" style="fill-rule:evenodd;fill:#009035"></path><path d="m37.762 350.525 537.586-183.814c.716 24.658-.904 50.777-3.369 80.205L62.911 424.57c-10.577-25.252-16.692-43.062-25.149-74.045Z" style="stroke-width:7.9999;stroke:#1b1918;stroke-dasharray:none;stroke-linecap:butt;stroke-linejoin:miter;fill:none"></path><path d="M295.945 155.794c90.548 34.678 182.489 40.912 278.137-31.53 13.395 255.82-77.861 441.229-278.138 551.753C95.668 565.493 4.422 380.084 17.817 124.264c95.649 72.442 187.58 66.208 278.128 31.53Z" style="stroke-width:7.9999;stroke:#1b1918;stroke-dasharray:none;stroke-linecap:butt;stroke-linejoin:miter;fill:none"></path><text x="-35.185" y="406.263" transform="rotate(-19.293)"><tspan fill="#1b1918" font-family="Arial" font-size="66">C</tspan><tspan fill="#1b1918" font-family="Arial" font-size="66">.</tspan><tspan fill="#1b1918" font-family="Arial" font-size="66">D</tspan><tspan fill="#1b1918" font-family="Arial" font-size="66">.</tspan><tspan fill="#1b1918" font-family="Arial" font-size="66">G</tspan><tspan fill="#1b1918" font-family="Arial" font-size="66">U</tspan><tspan fill="#1b1918" font-family="Arial" font-size="66">I</tspan><tspan fill="#1b1918" font-family="Arial" font-size="66">J</tspan><tspan fill="#1b1918" font-family="Arial" font-size="66">U</tspan><tspan fill="#1b1918" font-family="Arial" font-size="66">E</tspan><tspan fill="#1b1918" font-family="Arial" font-size="66">L</tspan><tspan fill="#1b1918" font-family="Arial" font-size="66">O</tspan></text><path d="M295.945 17.417A113.6 113.6 0 0 0 182.343 131.02 113.602 113.602 0 1 0 295.945 17.417Z" style="stroke-width:4.252;stroke:#000;stroke-dasharray:none;stroke-linecap:butt;stroke-linejoin:miter;fill-rule:evenodd;fill:#b58003"></path><path d="M283.237 18.12c26.536 17.374 12.519 55.658-18.64 55.658-29.081 0-81.368 46.38-81.368 71.493" style="stroke-width:4.252;stroke:#000;stroke-dasharray:none;stroke-linecap:butt;stroke-linejoin:miter;fill-rule:evenodd;fill:#b58003" data-source="https://football-logos.cc"></path><path d="M198.816 189.845c2.256-8.877 9.826-12.246 17.048-16.274 9.575-5.341 19.053-4.192 27.361-3.74 2.287-1.568 1.416-33.188 53.074-37.772 38.016-3.374 13.92-58.857-15.795-62.106M399.098 178.668c-25.625 10.888-41.174-16.81-34.173-41.934 11.145-39.99-13.707-88.581-35.725-114.37" style="stroke-width:4.252;stroke:#000;stroke-dasharray:none;stroke-linecap:butt;stroke-linejoin:miter;fill-rule:evenodd;fill:#b58003"></path><path d="M363.319 151.577c-18.363 27.773-60.832 6.693-66.902-19.518M243.388 169.826c16.98 33.339 82.948 53.827 118.324 53.827" style="stroke-width:4.252;stroke:#000;stroke-dasharray:none;stroke-linecap:butt;stroke-linejoin:miter;fill-rule:evenodd;fill:#b58003"></path><path d="m142.443 203.673-6.052-5.827c14.76 3.49 26.899 8.793 31.794 19.102l-.106-14.525c9.95 3.016 24.393 22.55 25.398 34.285v45.155l-140.943-.002v-44.966c1.005-11.735 15.447-31.456 25.398-34.472l-.106 14.525c6.667-11.119 18.593-15.883 31.795-19.104-4.379 3.671-8.653 8.32-12.813 14.04 1.365 5.295 7.912 9.516 16.333 13.349 9.673-13.475 19.433-21.067 29.302-21.56Z" style="stroke-width:2.8346;stroke:#1b1918;stroke-dasharray:none;stroke-linecap:butt;stroke-linejoin:miter;fill-rule:evenodd;fill:#5c6b6f"></path><path d="M122.989 187.91c16.448 10.286 32.814 26.972 34.479 44.111v49.841H88.509v-49.84c1.665-17.14 18.031-33.826 34.48-44.112Z" style="stroke-width:2.8346;stroke:#1b1918;stroke-dasharray:none;stroke-linecap:butt;stroke-linejoin:miter;fill:none"></path><path d="m168.079 202.423.106 14.525c3.72 21.529 2.315 43.22 2.315 64.914h8.326c0-32.513 3.144-53.467-3.318-74.974-2.637-2.314-5.104-3.752-7.429-4.465ZM77.826 216.948c-3.268 21.337-2.319 43.416-2.319 64.914h-8.326c0-24.242-3.865-51.2 3.253-74.89 2.647-2.252 5.081-3.644 7.498-4.55z" style="stroke-width:.216;stroke:#1b1918;stroke-dasharray:none;stroke-linecap:butt;stroke-linejoin:miter;fill-rule:evenodd;fill:#1b1918" data-source="https://football-logos.cc"></path><!-- source: https://football-logos.cc --></svg>