<svg xmlns="http://www.w3.org/2000/svg" fill="none" viewBox="0 -0.05 425.92 721.29"><!-- Source: https://football-logos.cc --><g clip-path="url(#a)" data-source="https://football-logos.cc"><path fill="#DDA820" d="m371.976 53.716-4.835-8.367s-5.928 18.049-18.893 25.53l8.572-1.758s-5.336 8.23-13.31 11.355a9.03 9.03 0 0 1-9.873-2.208 27.98 27.98 0 0 1-7.799-19.272s-11.419 12.104-21.09 10.346c-5.504-1.003-11.419-.88-9.001-19.806l6.369 4.837s3.516-18.23 13.181-28.387l-10.549 2.637-1.755-13.673-9.443 8.803-9.229-7.488s3.074 19.813-3.516 31.904l8.345-.222s-5.927 12.983-18.451 12.983-17.548-18.927-17.548-18.927-9.008 13.21-19.991 13.21-16.249-17.826-16.249-17.826l9.229 6.602s0-29.3 5.492-33.896l-10.106 4.18L213.395-.05l-8.137 14.324-10.106-4.18c5.492 4.623 5.492 33.896 5.492 33.896l9.229-6.602s-5.278 17.826-16.248 17.826-19.992-13.21-19.992-13.21-5.05 18.927-17.548 18.927-18.451-12.983-18.451-12.983l8.345.222c-6.59-12.104-3.516-31.903-3.516-31.903l-9.222 7.487-9.45-8.803-1.755 13.673-10.548-2.637c9.671 10.125 13.18 28.388 13.18 28.388l6.376-4.838c2.418 18.927-3.497 18.803-9.008 19.806-9.671 1.758-21.09-10.346-21.09-10.346a27.92 27.92 0 0 1-7.799 19.26 9.04 9.04 0 0 1-9.892 2.213c-7.968-3.132-13.29-11.348-13.29-11.348l8.565 1.758c-12.959-7.482-18.893-25.53-18.893-25.53l-4.835 8.367c-7.247-5.28-19.77-2.865-19.77-2.865 6.369 1.543 20.725 16.375 27.68 27.072 5.348 8.224 22.59 12.762 30.318 10.125 9.665-3.301 12.082-17.384 12.082-17.384s9.703 9.623 18.672 7.48c9.229-2.2 14.948-14.525 14.948-14.525s7.026 9.024 20.648 6.602c13.077-2.325 15.82-15.405 15.82-15.405s9.228 11.004 19.335 10.346c9.482-.651 18.594-14.728 18.9-15.196.311.488 9.417 14.577 18.899 15.196 10.106.651 19.329-10.346 19.329-10.346s2.742 13.08 15.819 15.405c13.648 2.422 20.648-6.602 20.648-6.602s5.713 12.325 14.948 14.526c8.969 2.142 18.672-7.481 18.672-7.481s2.418 14.083 12.082 17.384c7.728 2.604 23.436-1.264 30.319-10.125 7.799-10.072 21.311-25.529 27.68-27.072-.071 0-12.608-2.415-19.855 2.865"></path><path fill="#DDA820" d="M363.261 103.34c-17.892-8.125-81.975-34.924-148.877-34.924h-1.45c-66.896 0-130.985 26.799-148.87 34.924a5.465 5.465 0 0 0-2.717 7.208 5.434 5.434 0 0 0 7.15 2.767c22.454-9.766 82.233-32.958 144.444-32.958h1.449c62.217 0 121.997 23.179 144.445 32.958a5.44 5.44 0 0 0 4.143.089 5.45 5.45 0 0 0 3.006-2.856 5.456 5.456 0 0 0-2.723-7.208"></path><path fill="#DDA820" d="M352.192 125.061c-25.295-10.607-81.026-31.253-139.675-30.758-58.649-.514-114.561 20.184-139.856 30.758a5.52 5.52 0 0 0-2.905 7.337l.22.222a5.17 5.17 0 0 0 2.884 2.778 5.16 5.16 0 0 0 4-.122c26.899-10.918 80.401-28.954 135.592-29.826 55.192.872 108.634 18.882 135.535 29.826a5.19 5.19 0 0 0 3.997.109 5.2 5.2 0 0 0 2.892-2.765l.221-.222a5.53 5.53 0 0 0-1.101-6.112 5.5 5.5 0 0 0-1.804-1.225"></path><path fill="#DDA820" d="M127.306 104.734c29.247-7.943 57.843-11.973 84.945-11.973h1.612c27.095 0 55.672 4.03 84.945 11.973a423 423 0 0 1 54.066 18.823l3.763-9.356c-17.047-7.742-76.359-32.242-143.093-32.242h-.974c-66.734 0-126.046 24.5-143.093 32.242l3.763 9.356a424 424 0 0 1 54.066-18.823"></path><path fill="#343E89" d="M303.499 96.974c-6.947-1.953-14.252-3.854-21.844-5.56a2.51 2.51 0 0 0-2.983 1.797l-.689 2.604a2.523 2.523 0 0 0 .98 2.695c.278.196.592.334.925.404a409 409 0 0 1 21.584 5.333 2.52 2.52 0 0 0 1.915-.24 2.52 2.52 0 0 0 1.178-1.531l.65-2.435a2.51 2.51 0 0 0-1.716-3.067"></path><path fill="#B72520" d="m213.065 82.531-8.872 4.87 8.943 4.805 8.794-4.805z"></path><path fill="#343E89" d="M122.692 96.953a415 415 0 0 1 21.72-5.528 2.597 2.597 0 0 1 3.048 1.856l.65 2.468a2.61 2.61 0 0 1-1.95 3.183 405 405 0 0 0-21.447 5.294 2.596 2.596 0 0 1-3.172-1.817l-.617-2.305a2.601 2.601 0 0 1 1.768-3.15M373.828 72.63c4.009 0 7.26-3.256 7.26-7.272 0-4.017-3.251-7.273-7.26-7.273s-7.26 3.256-7.26 7.273 3.251 7.272 7.26 7.272"></path><path fill="#D6D6D6" d="M325.35 64.177a5.17 5.17 0 0 0 5.167-5.176 5.17 5.17 0 0 0-5.167-5.176 5.17 5.17 0 0 0-5.166 5.176 5.17 5.17 0 0 0 5.166 5.176"></path><path fill="#343E89" d="M296.143 42.238c4.009 0 7.259-3.256 7.259-7.273s-3.25-7.273-7.259-7.273-7.26 3.256-7.26 7.273 3.25 7.273 7.26 7.273"></path><path fill="#D6D6D6" d="M253.235 47.198a5.17 5.17 0 0 0 5.167-5.176 5.17 5.17 0 0 0-5.167-5.176 5.17 5.17 0 0 0-5.167 5.176 5.17 5.17 0 0 0 5.167 5.176"></path><path fill="#343E89" d="M213.726 28.98c4.01 0 7.26-3.256 7.26-7.273s-3.25-7.272-7.26-7.272-7.259 3.256-7.259 7.272c0 4.017 3.25 7.273 7.259 7.273"></path><path fill="#D6D6D6" d="M173.64 47.198a5.17 5.17 0 0 0 5.166-5.176 5.17 5.17 0 0 0-5.166-5.176 5.17 5.17 0 0 0-5.167 5.176 5.17 5.17 0 0 0 5.167 5.176"></path><path fill="#343E89" d="M131.519 42.238c4.01 0 7.26-3.256 7.26-7.273s-3.25-7.273-7.26-7.273-7.259 3.256-7.259 7.273 3.25 7.273 7.259 7.273"></path><path fill="#D6D6D6" d="M101.499 64.177a5.17 5.17 0 0 0 5.167-5.176 5.17 5.17 0 0 0-5.167-5.176 5.17 5.17 0 0 0-5.167 5.176 5.17 5.17 0 0 0 5.167 5.176"></path><path fill="#343E89" d="M50.98 72.63c4.01 0 7.26-3.256 7.26-7.272 0-4.017-3.25-7.273-7.26-7.273s-7.26 3.256-7.26 7.273 3.25 7.272 7.26 7.272"></path><path fill="#DDA820" d="m0 141.717 213.57 579.518 212.355-578.294zm213.57 539.17L90.196 340.09h246.736zM85.426 326.951 21.661 154.563h383.823L341.41 326.951z"></path><path fill="#fff" d="m21.662 154.555 63.77 172.388h255.985l64.069-172.388z"></path><path fill="#C76432" d="M237.48 224.547v24.377h-15.312v-19.637a8.4 8.4 0 0 0-2.389-5.89 8.37 8.37 0 0 0-5.826-2.522h-.396a8.24 8.24 0 0 0-5.73 2.49 8.28 8.28 0 0 0-2.349 5.798v19.767h-15.195v-24.142c.011-3.102.943-6.13 2.678-8.699 9.203-13.738 3.899-49.651 3.899-49.651h8.176v4.557h4.413v-4.557h8.826v4.557h4.14v-4.421h8.274c-3.555 31.76 1.124 44.749 4.289 49.711a15.4 15.4 0 0 1 2.502 8.262"></path><path fill="#1D1E1C" d="M222.169 229.288v19.597h-16.69v-19.728a8.27 8.27 0 0 1 2.348-5.798 8.25 8.25 0 0 1 5.73-2.49h.397a8.37 8.37 0 0 1 5.828 2.524 8.4 8.4 0 0 1 2.387 5.895M223.339 188.413h-4.874a.1.1 0 0 0-.098.098v9.72c0 .054.044.098.098.098h4.874a.1.1 0 0 0 .098-.098v-9.72a.1.1 0 0 0-.098-.098M208.71 188.413h-4.874a.1.1 0 0 0-.098.098v9.72c0 .054.044.098.098.098h4.874a.1.1 0 0 0 .098-.098v-9.72a.1.1 0 0 0-.098-.098"></path><path fill="#008B3F" d="M225.256 285.71c0-.039-3.301-3.965-10.321-7.748-7.012 3.783-10.281 7.709-10.314 7.748l-.227.273-3.042-2.715.215-.26c.117-.137 2.853-3.347 9.475-6.934a61.2 61.2 0 0 0-13.537-4.076 19.6 19.6 0 0 1-6.5 6.472 10.53 10.53 0 0 1-5.576 1.4 16 16 0 0 1-4.341-.593l-.371-.117.156-.358c.111-.248 2.769-6.075 7.403-7.963a10.5 10.5 0 0 1 2.833-.651 63 63 0 0 1-5.446-2.253 19.35 19.35 0 0 1-7.26 4.981 9.3 9.3 0 0 1-3.386.599 15.5 15.5 0 0 1-6.323-1.51l-.351-.183.221-.325c.149-.222 3.704-5.391 8.5-6.427a8.7 8.7 0 0 1 1.788-.169c.377 0 .78 0 1.202.052a74 74 0 0 1-5.108-3.32 19 19 0 0 1-7.994 3.678 8.6 8.6 0 0 1-1.644.157c-3.965 0-7.436-2.605-7.579-2.696l-.312-.234.273-.287c.182-.182 4.498-4.557 9.301-4.753h.227c1.026.029 2.042.197 3.022.502a86 86 0 0 1-4.809-4.402 18.5 18.5 0 0 1-8.384 2.214h-.188c-4.504 0-8.137-3.861-8.293-4.024l-.267-.286.318-.235c.176-.123 4.316-3.079 8.618-3.079q.591-.001 1.177.078c1.044.179 2.054.517 2.996 1.003a73 73 0 0 1-4.029-5.157c-1.825.6-3.734.903-5.655.898a19 19 0 0 1-2.782-.208c-4.439-.651-7.376-5.137-7.5-5.326l-.214-.332.357-.169a18.1 18.1 0 0 1 7.039-1.66 9.6 9.6 0 0 1 2.925.423 10.2 10.2 0 0 1 2.599 1.387 68 68 0 0 1-2.996-5.684q-1.18.166-2.372.162a18 18 0 0 1-5.784-.95c-4.179-1.407-6.253-6.224-6.337-6.426l-.156-.365.377-.104a18.7 18.7 0 0 1 4.673-.606 11 11 0 0 1 5.16 1.114 9.6 9.6 0 0 1 2.178 1.692 63 63 0 0 1-1.827-6.048 17.5 17.5 0 0 1-7.838-2.155c-3.789-2.071-4.978-7.078-5.024-7.286l-.091-.384.39-.039s.553-.059 1.391-.059c1.95 0 5.531.293 8.02 2.227a10 10 0 0 1 1.872 2.084 65 65 0 0 1-.878-6.511 17.14 17.14 0 0 1-7.149-3.405c-3.314-2.65-3.607-7.683-3.62-7.898v-.391h.39c.234 0 5.791.463 8.716 3.705a9.3 9.3 0 0 1 1.443 2.305c.001-2.286.121-4.57.357-6.843a16.8 16.8 0 0 1-6.408-4.558c-2.749-3.125-2.178-8.034-2.152-8.243l.046-.384.383.091c.221.059 5.512 1.433 7.799 5.059a9.5 9.5 0 0 1 1.079 2.768 77 77 0 0 1 1.625-7.104 16.6 16.6 0 0 1-5.531-5.547c-2.125-3.483-.741-8.132-.65-8.327l.111-.378.357.163c.208.091 5.083 2.324 6.662 6.218a9.7 9.7 0 0 1 .585 3.118 78 78 0 0 1 2.892-7.018 16.1 16.1 0 0 1-4.393-6.29c-1.456-3.731.65-7.982.76-8.158l.182-.352.325.222c.176.124 4.413 3.047 5.336 7.019v.045l-.267 5.072a6.1 6.1 0 0 1-.091 1.686 13.4 13.4 0 0 1 4.062-3.112 9 9 0 0 1 3.354-.586 16.6 16.6 0 0 1 5.557 1.061l.364.15-.189.339c-.097.176-2.424 4.323-6.33 5.208a16.2 16.2 0 0 1-3.588.397 15.5 15.5 0 0 1-4.042-.52 74 74 0 0 0-2.6 7.018 10.2 10.2 0 0 1 2.444-2.343 10.9 10.9 0 0 1 5.81-1.394c1.09-.006 2.178.092 3.25.293l.383.078-.13.371c-.065.196-1.67 4.766-5.44 6.335a16.7 16.7 0 0 1-6.375 1.303c-.416 0-.819 0-1.203-.046a73 73 0 0 0-1.423 7.403 10.8 10.8 0 0 1 2.086-2.865c2.873-2.604 7.722-2.715 8.664-2.715h.598l-.059.391c-.032.208-.838 5.085-4.341 7.325a16.6 16.6 0 0 1-7.435 2.604 67 67 0 0 0-.085 7.461 11.1 11.1 0 0 1 1.625-3.372c2.691-3.438 8.202-4.258 8.449-4.298l.383-.052v.391c0 .215.052 5.254-3.067 8.126a17.1 17.1 0 0 1-7 3.906 62 62 0 0 0 1.183 6.687c.143-1.165.477-2.298.988-3.353 2.099-3.907 7.487-5.736 7.714-5.815l.371-.117.078.384c.039.209.988 5.268-1.638 8.705a17.55 17.55 0 0 1-6.239 5.131 62 62 0 0 0 2.223 6.355c-.065-1.21.069-2.422.396-3.588 1.417-4.317 6.499-7.084 6.72-7.201l.351-.189.137.371c.078.202 1.949 5.111-.104 9.031a17.9 17.9 0 0 1-5.343 6.25 68 68 0 0 0 3.178 5.522 10.6 10.6 0 0 1-.162-3.334c.65-4.558 5.277-8.269 5.472-8.425l.306-.241.208.339c.117.189 2.833 4.792 1.488 9.115a18.3 18.3 0 0 1-4.14 7.103 84 84 0 0 0 3.9 4.708 10.3 10.3 0 0 1-.65-3.054c-.15-4.72 3.841-9.245 4.01-9.434l.266-.293.254.299c.149.17 3.698 4.31 3.1 8.861a18.8 18.8 0 0 1-2.847 7.813 87 87 0 0 0 4.504 3.907 10.5 10.5 0 0 1-1.144-2.832c-.988-4.714 2.229-9.968 2.366-10.19l.208-.332.299.248c.182.143 4.478 3.672 4.686 8.347a19.2 19.2 0 0 1-1.489 8.333 71 71 0 0 0 5.245 3.152 11.1 11.1 0 0 1-1.846-2.891c-1.826-4.558.468-10.417.572-10.652l.143-.364.345.188c.208.118 5.141 2.898 6.181 7.56a19.4 19.4 0 0 1-.052 8.737 56 56 0 0 0 5.576 2.018 11.3 11.3 0 0 1-2.333-2.539c-2.639-4.251-1.365-10.534-1.3-10.801l.078-.384.37.13c.234.078 5.681 1.999 7.546 6.511a20.2 20.2 0 0 1 1.514 8.418 66 66 0 0 1 9.561 2.604 66 66 0 0 1 5.374 2.162 72 72 0 0 1 5.375-2.162 67 67 0 0 1 9.561-2.604 20 20 0 0 1 1.514-8.418c1.865-4.493 7.312-6.414 7.546-6.511l.37-.13.078.384c.058.267 1.332 6.55-1.3 10.801a11.3 11.3 0 0 1-2.333 2.539 54 54 0 0 0 5.576-2.018 19.4 19.4 0 0 1-.045-8.737c1.033-4.662 5.966-7.442 6.18-7.56l.338-.188.15.364c.097.248 2.392 6.094.572 10.652a11.1 11.1 0 0 1-1.859 2.891 67 67 0 0 0 5.251-3.152 19.24 19.24 0 0 1-1.488-8.333c.208-4.675 4.504-8.204 4.686-8.347l.306-.248.201.332c.136.222 3.354 5.476 2.366 10.19a10.7 10.7 0 0 1-1.144 2.839 67 67 0 0 0 4.51-3.907 18.7 18.7 0 0 1-2.853-7.813c-.591-4.558 2.951-8.692 3.1-8.861l.26-.3.26.293c.169.189 4.166 4.714 4.017 9.435a10.6 10.6 0 0 1-.65 3.06 73 73 0 0 0 3.932-4.714 18.4 18.4 0 0 1-4.14-7.104c-1.339-4.29 1.378-8.893 1.495-9.115l.201-.338.312.24c.195.157 4.816 3.842 5.472 8.425a10.7 10.7 0 0 1-.175 3.347 65 65 0 0 0 3.191-5.534 17.9 17.9 0 0 1-5.349-6.251c-2.028-3.906-.182-8.828-.104-9.03l.143-.371.345.189c.214.117 5.303 2.884 6.72 7.201.33 1.167.464 2.382.396 3.594a59 59 0 0 0 2.223-6.361 17.5 17.5 0 0 1-6.233-5.131c-2.599-3.438-1.683-8.464-1.644-8.705l.078-.384.37.117c.228.078 5.616 1.882 7.715 5.814.512 1.058.847 2.193.994 3.36a62 62 0 0 0 1.183-6.693 17 17 0 0 1-7-3.907c-3.126-2.871-3.074-7.911-3.067-8.125v-.391l.383.052c.234.039 5.746.859 8.449 4.297a11.5 11.5 0 0 1 1.625 3.386 65 65 0 0 0-.091-7.475 16.9 16.9 0 0 1-7.435-2.604c-3.503-2.24-4.309-7.116-4.341-7.325l-.059-.39h.598c.942 0 5.797.13 8.67 2.715.849.837 1.553 1.81 2.086 2.877a72 72 0 0 0-1.423-7.415q-.585.046-1.209.045a16.7 16.7 0 0 1-6.376-1.302c-3.763-1.569-5.375-6.14-5.44-6.335l-.13-.371.384-.078a17 17 0 0 1 3.25-.293c2.028-.085 4.04.397 5.81 1.393a10.4 10.4 0 0 1 2.457 2.363 74 74 0 0 0-2.639-7.038c-1.32.348-2.678.523-4.043.521a16.2 16.2 0 0 1-3.587-.397c-3.9-.866-6.233-5.013-6.33-5.209l-.189-.338.364-.15a16.6 16.6 0 0 1 5.557-1.061 9 9 0 0 1 3.353.586 11.5 11.5 0 0 1 3.419 2.467l.507.58c0-.651 0-1.4.039-1.622a12.7 12.7 0 0 1-.28-5c.865-4.03 5.2-7.012 5.369-7.162l.325-.221.182.351c.091.176 2.222 4.428.767 8.159a16.2 16.2 0 0 1-4.4 6.289 75 75 0 0 1 2.892 7.019c.03-1.064.228-2.117.585-3.119 1.579-3.907 6.453-6.127 6.661-6.218l.358-.163.117.378c.058.195 1.443 4.844-.683 8.327a16.5 16.5 0 0 1-5.53 5.548 76 76 0 0 1 1.624 7.096 9.6 9.6 0 0 1 1.079-2.76c2.269-3.627 7.559-5 7.799-5.059l.377-.091.046.384c0 .208.604 5.117-2.145 8.243a16.7 16.7 0 0 1-6.408 4.557c.234 2.273.351 4.558.357 6.837.366-.83.85-1.602 1.437-2.292 2.924-3.256 8.481-3.685 8.715-3.705h.39v.391c0 .215-.305 5.248-3.613 7.898a17.14 17.14 0 0 1-7.15 3.405 65 65 0 0 1-.871 6.478 9.5 9.5 0 0 1 1.872-2.077c2.483-1.953 6.09-2.227 8.02-2.227.832 0 1.365.059 1.385.059l.39.039-.085.384c-.052.209-1.241 5.209-5.037 7.286a17.4 17.4 0 0 1-7.831 2.155 63 63 0 0 1-1.82 6.035 9.7 9.7 0 0 1 2.171-1.679 11 11 0 0 1 5.16-1.114c1.577.004 3.147.208 4.673.606l.377.104-.156.365c-.085.201-2.158 5.02-6.337 6.426-1.864.63-3.817.951-5.784.95a16.4 16.4 0 0 1-2.366-.162 69 69 0 0 1-2.996 5.684 10 10 0 0 1 2.6-1.387 9.6 9.6 0 0 1 2.918-.423c2.434.073 4.828.638 7.039 1.66l.357.169-.214.332c-.124.189-3.062 4.649-7.501 5.326-.92.138-1.85.208-2.781.208a18 18 0 0 1-5.655-.898 74 74 0 0 1-4.023 5.156c.94-.484 1.948-.822 2.99-1.002q.586-.08 1.176-.078c4.303 0 8.449 2.956 8.618 3.079l.319.235-.267.286c-.156.163-3.789 4.024-8.286 4.024h-.189a18.45 18.45 0 0 1-8.384-2.214 77 77 0 0 1-4.809 4.395 11.4 11.4 0 0 1 3.016-.495h.227c4.809.183 9.099 4.558 9.3 4.753l.273.287-.312.234c-.143.111-3.607 2.696-7.571 2.696a8.6 8.6 0 0 1-1.651-.157 18.9 18.9 0 0 1-7.987-3.678 74 74 0 0 1-5.109 3.32c.416 0 .813-.052 1.19-.052a8.7 8.7 0 0 1 1.793.169c4.797 1.036 8.352 6.205 8.501 6.427l.221.325-.351.182a15.5 15.5 0 0 1-6.324 1.511 9.3 9.3 0 0 1-3.386-.599 19.4 19.4 0 0 1-7.259-4.981 59 59 0 0 1-5.44 2.253c.968.085 1.919.304 2.827.651 4.628 1.888 7.292 7.715 7.403 7.963l.156.358-.371.117a16 16 0 0 1-4.341.592 10.5 10.5 0 0 1-5.576-1.399 19.5 19.5 0 0 1-6.5-6.472 61.2 61.2 0 0 0-13.538 4.076c6.623 3.587 9.353 6.797 9.47 6.934l.214.26-3.035 2.722z"></path><path fill="#000" d="m114.62 312.157-2.386 7.253h-3.074l7.799-23.055h3.581l7.858 23.055h-3.178l-2.457-7.253zm7.545-2.324-2.249-6.635c-.513-1.504-.858-2.871-1.195-4.206h-.072a70 70 0 0 1-1.157 4.174l-2.255 6.667zM131.791 296.347h2.97v20.561h9.833v2.494h-12.803zM164.099 318.381a21.4 21.4 0 0 1-7.071 1.27c-3.484 0-6.35-.892-8.605-3.047-1.95-1.914-3.204-4.994-3.204-8.581.032-6.876 4.744-11.909 12.459-11.909a14.3 14.3 0 0 1 5.738 1.061l-.721 2.429a11.9 11.9 0 0 0-5.082-.99c-5.603 0-9.255 3.49-9.255 9.272 0 5.781 3.516 9.304 8.878 9.304a9.6 9.6 0 0 0 3.958-.651v-6.843h-4.706V307.3h7.585zM180.534 308.6h-8.943v8.314h9.97v2.494h-12.92v-23.061h12.426v2.5h-9.456v7.266h8.923zM201.521 318.654a14.6 14.6 0 0 1-6.077 1.1c-6.499 0-11.374-4.108-11.374-11.667 0-7.214 4.881-12.111 12.017-12.111a12.34 12.34 0 0 1 5.466 1.029l-.715 2.429a10.84 10.84 0 0 0-4.647-.957c-5.394 0-8.982 3.457-8.982 9.506 0 5.644 3.25 9.271 8.846 9.271a11.9 11.9 0 0 0 4.848-.957zM208.209 296.347v23.055h-2.977v-23.055zM213.4 296.66a31 31 0 0 1 5.7-.475c3.178 0 5.2.579 6.662 1.881a5.755 5.755 0 0 1 1.807 4.376 6.05 6.05 0 0 1-4.335 5.86v.104c1.774.612 2.833 2.252 3.379 4.648.754 3.217 1.3 5.437 1.774 6.329h-3.074c-.37-.651-.883-2.604-1.533-5.508-.683-3.177-1.911-4.375-4.608-4.48h-2.802v9.988h-2.97zm2.97 10.502h3.042c3.172 0 5.2-1.745 5.2-4.375 0-2.976-2.152-4.278-5.291-4.31a12.2 12.2 0 0 0-2.938.273zM235.661 312.157l-2.392 7.253h-3.068L238 296.355h3.627l7.857 23.055h-3.178l-2.457-7.253zm7.545-2.324-2.255-6.635c-.507-1.504-.852-2.871-1.19-4.206h-.084a66 66 0 0 1-1.163 4.174l-2.249 6.667zM252.428 315.785a10.5 10.5 0 0 0 5.323 1.504c3.042 0 4.816-1.609 4.816-3.907 0-2.155-1.228-3.386-4.335-4.558-3.756-1.302-6.077-3.255-6.077-6.51 0-3.594 2.97-6.264 7.442-6.264a10.4 10.4 0 0 1 5.089 1.133l-.819 2.429a9.2 9.2 0 0 0-4.374-1.094c-3.139 0-4.335 1.881-4.335 3.451 0 2.155 1.397 3.216 4.549 4.446 3.9 1.505 5.85 3.386 5.85 6.772 0 3.561-2.633 6.641-8.059 6.641a11.9 11.9 0 0 1-5.85-1.471zM292.972 318.653a14.6 14.6 0 0 1-6.077 1.101c-6.499 0-11.374-4.109-11.374-11.668 0-7.214 4.888-12.11 12.024-12.11a12.3 12.3 0 0 1 5.459 1.029l-.715 2.428a10.8 10.8 0 0 0-4.646-.957c-5.395 0-8.976 3.458-8.976 9.506 0 5.645 3.25 9.272 8.839 9.272a11.9 11.9 0 0 0 4.848-.958zM295.889 317.632a2.02 2.02 0 0 1 .555-1.528 2.02 2.02 0 0 1 1.499-.627 2.15 2.15 0 0 1 2.066 1.261 2.16 2.16 0 0 1-1.506 3.011 2.16 2.16 0 0 1-2.614-2.117M303.779 296.347h12.394v2.5h-9.424v7.657h8.709v2.467h-8.709v10.418h-2.97zM316.278 317.633a2.016 2.016 0 0 1 2.047-2.155 2.163 2.163 0 0 1-.032 4.31 2.02 2.02 0 0 1-1.475-.638 2 2 0 0 1-.428-.702 2 2 0 0 1-.112-.815"></path><path fill="#fff" d="M123.72 340.09H90.178l33.542 92.636z"></path><path fill="#E41038" d="M123.719 340.09v92.643l35.7 98.587V340.09z"></path><path fill="#fff" d="M159.418 340.09v191.237l35.7 102.051V340.09z"></path><path fill="#E41038" d="m195.119 633.378 18.458 47.51 17.236-47.64V340.09h-35.694z"></path><path fill="#fff" d="m230.82 633.241 35.694-98.639V340.09H230.82z"></path><path fill="#E41038" d="m266.514 534.608 35.7-98.639V340.09h-35.7z"></path><path fill="#fff" d="m302.207 435.982 34.706-95.892h-34.706z"></path></g><defs data-source="https://football-logos.cc"><clipPath id="a"><path fill="#fff" d="M0 0h425.926v721.234H0z"></path></clipPath></defs><!-- source: https://football-logos.cc --></svg>