<svg xmlns="http://www.w3.org/2000/svg" viewBox="267.8 140.98 264.4 318.04"><!-- Source: https://football-logos.cc --><path d="M497.785 236.07v-.011c6.207 0 6.156.675 3.863 5.726l-94.554 211.621c-.696 1.555-1.989 5.559-3.84 5.614-1.856-.055-3.149-4.06-3.84-5.614l-94.559-211.62c-2.293-5.052-2.343-5.727 3.864-5.727v.011" style="stroke:none;fill-rule:nonzero;fill:#e6f41d;fill-opacity:1" data-source="https://football-logos.cc"></path><path d="M403.254 453.719c-.48-.016-.988-.883-1.246-1.469l-94.559-211.621c-.582-1.305-.597-1.723 1.27-1.723h189.066c1.867 0 1.856.418 1.274 1.723L404.5 452.25c-.262.586-.77 1.453-1.246 1.469" style="stroke:none;fill-rule:nonzero;fill:#1f0e81;fill-opacity:1"></path><path d="M399.676 174.414c11.55 0 22.015 4.691 29.594 12.274 7.574 7.582 12.257 18.046 12.257 29.601s-4.683 22.024-12.257 29.602c-7.579 7.578-18.043 12.27-29.594 12.27s-22.016-4.692-29.594-12.27c-7.574-7.578-12.262-18.047-12.262-29.602s4.688-22.02 12.262-29.601c7.578-7.583 18.043-12.274 29.594-12.274" style="stroke:none;fill-rule:nonzero;fill:#000;fill-opacity:1"></path><path d="M432.887 231.184c-.004 1.12-.235 2-.668 2.546-.317.403-.82.633-1.5.633v.008h-.02c-.125-.004-.625-.004-1.195-.004-4.117-.004-.242-.012-2.074-.012-.207 0-.477-.011-.715-.054v-5.535a.7.7 0 0 1 .219-.043v-.012h3.355v.012c.59 0 1.262.21 1.79.64.464.38.8.965.8 1.774h.008Zm-21.516-9.754-.148.343c-.02-1.09-.243-1.808-1.422-2.43-.606-.32-1.352-.417-2.594-.417l-6.84-.004v-.008c-.023 0-.082.004-.168.008v-4.598l9.035.004c.637 0 1.157-.066 1.602-.21l1.86 4.237-.012.032 2.82 1.195v3.602Zm-23.39.011-12.399 4.711-.52 6.586c-.125.168-.257.34-.421.524a2.94 2.94 0 0 1-1.079.8c-.394.168-.851.239-1.367.239-.695 0-1.203-.086-1.586-.297-.421-.238-.832-.688-1.304-1.395-.489-.738-.82-1.797-1.04-3.172-.245-1.523-.34-3.433-.34-5.71h-.007v-.297c-.004-2.438-.008-5.282 1.418-7.067.195-.242.41-.488.637-.722l5.03 7.187 11.856-4.504 1.918-4.82v8.777Zm41.804-7.601v.012Zm1.488.558c.403.336.692.852.692 1.559h-.012.012V216c-.008 1.023-.203 1.816-.578 2.305-.254.324-.66.511-1.211.511v.008h-.028c-.125 0-.57 0-1.078-.004h-1.89v-.007c-.04 0-.086-.004-.13-.004l3.84-4.664q.2.106.383.253m12.551 14.352q-.434-1.712-1.32-3.195c-.637-1.07-1.332-1.805-2.172-2.41a8 8 0 0 0-.492-.329 9.9 9.9 0 0 0 1.879-2.578c.941-1.843 1.344-3.949 1.336-5.879-.02-4.273-1.086-6.96-3.16-8.66a8.2 8.2 0 0 0-2.028-1.187 39.8 39.8 0 0 0-3.586-8.215 11 11 0 0 0-1.148-.777c-1.078-.625-2.258-.375-3.606-.239l-.05 1.426a28 28 0 0 1 2.082 3.227 32 32 0 0 1 1.714 3.652 28 28 0 0 0-1.656-.05h-1.96a28 28 0 0 0-1.005-2.005 24.6 24.6 0 0 0-2.246-3.386l-10.527-1.938-5.379 7.492a5.2 5.2 0 0 0-1.164-.125l-2.824.004 6.566-9.148-.035-.137c-1.55.586-3.016 1.176-4.746 1.113-2.469-.09-2.195 1.43-5.422 1.531-1.922.063-2.77 1.083-4.055 1.083-4.933-.008-5.75.246-7.558-.114-1.188-.234-2.13-.726-3.625-1.668l5.422 7.34h-.489c-1.351.004-2.234.348-2.867 1.035l-6.254-8.472-10.98 2.125a64 64 0 0 0-2.39 4.297c-.071.132-.134.265-.2.398-1.442.168-2.781.508-4.04 1.078-.066.031-.128.066-.198.098q.702-1.56 1.476-3.082a68 68 0 0 1 2.957-5.22l-1.137-3.007c-.18.024-.226-.168-.167-.437l-.368-.98a39.8 39.8 0 0 0-7.98 17.394q-1.856 2.748-2.805 6.433c-.672 2.633-1.004 5.594-1.004 8.871 0 3.047.325 6.637 1.246 9.942.762 2.738 1.942 5.293 3.692 7.222 1.683 1.856 3.062 2.97 4.726 3.649 1.653.668 3.403.848 5.868.848q.279-.001.546-.008a39.9 39.9 0 0 0 16.82 9.195l-1.714-5.008c-1.703-.707-3.48-1.601-5.23-2.613-1.391-.8-2.755-1.68-4.06-2.59 1.192-.469 2.216-1.094 3.102-1.89a53 53 0 0 0 2.606 1.613 42 42 0 0 0 4.332 2.195l2.863-1.656c.227.012.465.02.73.02v-.008h4.645v.007c1.34 0 2.113-.265 2.762-1.156.547-.75.566-1.383.574-2.402l.07-12.395.895.004v12.242l9.937 5.278a80 80 0 0 0 4.395-2.22c.258-.14.512-.284.77-.429q.067.087.14.168c.649.688 1.473.969 2.758.969h1.71a80 80 0 0 1-3.796 2.2 85 85 0 0 1-5.293 2.644l-2.21 5.117a39.9 39.9 0 0 0 17.89-9.961h4.879c4.37-.004 7.351-1.172 9.312-3.45 1.906-2.214 2.668-5.331 2.668-9.327q0-1.882-.422-3.559" style="stroke:none;fill-rule:nonzero;fill:#fff;fill-opacity:1"></path><path d="M381.406 160.441c-2.48-1.879-5.523-4.367-8.129-6.609-1.754-1.516-2.754-2.93-3.761-3.82-1.504-1.328-3.164-2.973-4.61-4.13-1.394-1.124-3.219-2.015-4.652-2.777-.906-.484-1.738-1.292-2.606-1.722-.687-.344-1.918-.38-3.718-.383-1.098-.004-2.516-.05-3.844.008-1.094.047-2.371 1.957-3.8 2.07-1.013.082-2.536.582-3.567 1.149a199 199 0 0 1-7 3.644c-4.008 2.004-4.805 4.774-8.504 6.086-2.016.715-3.399 2.602-4.555 3.395-1.265.87-2.11.996-4.598 2.695-.062.039-1.515.422-2.976 1.433-.906.63-.918 1.336-2.055 2.16-1.707 1.239-3.754 2.04-5.23 2.864-2.086 1.16-3.598 2.242-6.211 3.687-2.48 1.364-5.324 2.508-8.918 3.504-3.602.993-8.477 3.207-17.016 4.496-1.566.239-4.597.403-6.879 1.86-1.082.691-1.437 2.62-.18 3.699.442.383.727.61 2.747.586 2.402-.024 2.574.851 5.484 1 2.953.148 4.867.91 9.016.992 2.386.047 3.18 1.39 6.52 1.313 2.8-.067 6.175.203 8.503-.446 2.164-.597 4.098-1.039 5.746-1.812 1.754-.82 4.184-2.328 4.934-2.34.113 0 .582.195 1.008.195 2.601 0 4.523-1.922 7.203-3.722 1.785-1.203 4.328-1.942 6.199-3.188 3.02-2.012 5.297-3.144 7.762-5.223 1.02-.859 2.37-1.777 3.129-2.695 1.773-2.137 3.703-3.781 5.316-5.129 1.664-1.386.723-2.695 2.715-2.695.676 0 .754.312 1.383.3 1.37-.027 1.996-.948 3.847-.948 2.895-.004 5.516.125 7.188 1.718.629.602 1.41-.14 1.586 1.332.015.133.047.617.617 1.117.613.543 1.992.098 3.477 1.442 2.289 2.066 5.816 4.195 7.703 4.473 1.902.277 2.355.312 4.336 2.03.695.606 1.687.34 2.68 1.536 1.124 1.355 2.39.644 5.382.742.824.027 2.188-.183 2.102.7-.035.35-.168 1.605-2.696 1.679-2.007.059-2.875.238-4.644 1.512-.758.547-1.617 1.261-2.324 1.851-1.438 1.192-2.473 1.934-3.559 1.957-.547.008-1.3-.328-1.86-.332-2.507-.015-6.425 3.086-8.144 3.086-2.105 0-2.187.727-2.187.957-.004.489.754.61.754 1.442 0 .605-.473.902-.48 1.39-.028 1.535 1.394 2.02 3.022 2.02 2.032 0 3.692-.328 5.801-1.14 1.266-.485 2.016-.829 2.36-.743.402.098.464.836-.055 1.457-.332.395-1.035.59-1.625 1.035-1.02.774-1.227 2.762.367.774.375-.465 1.277-1.274 1.762-1.536 1.535-.84 2.738-.625 5.324-.156 3.785.688 5 2.36 6.637 3.39 4.336 2.727 5.64 3.845 7.629 4.235 1.808.36 2.625.102 7.558.114 1.285 0 2.133-1.02 4.055-1.083 3.227-.101 2.953-1.62 5.422-1.53 2.887.1 5.043-1.61 8.07-2.083 2.856-.449 4.914-1.707 6.399-1.707 4.89-.004 4.097 3.778 5.894 3.723 1.723-.05 3.168-.578 4.473.183 2.289 1.332 3.957 3.446 5.543 6.418 1.492 2.79 3.008 4.875 4.383 7.883.582 1.281 1.027 3.293 1.449 3.926 1.05 1.566 1.828 1.656 2.18.184.425-1.778.093-5.266.093-8.172 0-4.86-1.094-9.13-4.492-15.64-.676-1.302-.41-2.458-.508-3.93-.082-1.223-.781-2.708-1.136-3.665-1.118-3.004-4.61-5.949-6.29-7.601-.46-.457-.949-.848-.937-1.531.027-1.73 1.629-2.426 3.598-2.68 1.71-.219 2.957-.711 4.093-1.168.946-.375 2.36-1.207 3.922-1.73 1.07-.364 2.223-.372 3.29-.81 1.109-.46 1.956-1.347 2.835-1.816.688-.367 1.606-.218 2.102-.421 2.605-1.079 1.808-2.594 3.683-2.657 1.864-.062 1.153.852 2.34 1.016.48.066.79-.195 1.32-.195.899 0 1.497 1.496 2.313 1.722 1.207.336 4.727 2.746 8.227 4.254 3.324 1.434 4.46 2.153 6.933 2.153 3.25 0 5.45 1.292 9.09 2.3 2.766.77 6.383 1.84 10.89 1.953 7.91.192 3.727-1.64 11.063-1.468 4.059.093 6.469-.04 11.29-3.164 3.308-2.145 5.027-1.02 6.6-1.887 3.4-1.875 5.184-2.14 5.192-5.438.004-1.062.23-2.34-4.156-2.203-6.39.203-14.578.145-21.227-.781-2.668-.375-4.964-1.2-7.39-1.578-5.903-.922-10.754-2.527-15.516-4.48-1.555-.637-3.379-1.137-4.789-1.794-2.058-.96-3.336-2.074-5.547-3.18-1.86-.929-4.383-2.12-6.351-3.144-1.715-.89-2.993-1.965-6.211-2.023-1.985-.04-6.68-.219-9.547-.18-3.184.047-4.899 1.793-7.156 2.371-1.008.258-2.18 1.45-3.332 2.172-1.946 1.219-4.211 3.371-6.442 5.27-2.922 2.492-5.336 4.566-9.262 6.77-2.64 1.48-6.078 4.218-7.89 4.362-1.422.114-2.559.903-3.692.883-1.097-.02-1.582-.566-3.62-1.804-1.876-1.137-1.794-2.922-4.43-2.961-3.082-.047-3.836-1.407-7.168-1.407-1.422 0-2.485 1.059-4.696.938-2.066-.117-4.504-.04-6.367 2.867-.758 1.18-1.691.68-2.687-.227-.582-.527-.774-1.164-1.32-1.625-.512-.433-1.38-.695-1.997-1.164" style="stroke:none;fill-rule:nonzero;fill:#221e89;fill-opacity:1"></path><path d="m433.191 183.988.067-.031c.336-.18.437-.574.422-1a3.3 3.3 0 0 0-.235-1.043 1.4 1.4 0 0 0-.078-.168c-.652-1.2-1.203-1.773-1.941-2.535l-.356-.371c-.625-.656-1.242-1.113-1.8-1.332-.598-.235-1.133-.207-1.56.113-.8.594-.546 1.004-.245 1.484.125.2.254.418.254.66 0 .673.054 1.114.226 1.505.172.394.45.718.899 1.167.16.157.449.329.886.497.383.144.88.296 1.5.445.098.023.211.129.332.242.356.336.774.727 1.63.367m-23.836-.879c.532.168.997.356 1.575.586.34.137.715.29 1.125.446.715.273 1.8.847 2.675 1.437 1.047.7 2.887 1.309 1.747-.21-.524-.497-.914-1.055-1.426-1.759-.504-.695-.91-1.464-1.04-2.25-.081-.504-.265-1.058-.53-1.464-.247-.372-.563-.625-.954-.653-.855-.05-1.093.555-1.351 1.203-.215.563-.457 1.164-1.262 1.172-.574.008-1.023.113-1.266.274a.55.55 0 0 0-.253.32.45.45 0 0 0 .093.414c.133.172.41.344.867.484m4.18-11.664c-.031.465-.265.938-.738 1.407-.207.203-.274.507-.207.8.035.168.11.328.223.465.117.137.273.25.464.32.45.16 1.102.094 1.942-.433.754-.465 1.636-.746 2.605-.91.953-.16 1.996-.207 3.086-.207 1.8 0 3.692.035 5.406.23 1.743.203 3.313.574 4.457 1.25 1.598.942 3.16 2.356 4.372 3.89 1.203 1.524 2.132 2.88 3.027 4.923.836 1.898 1.027 3.507 1.14 4.914.106 1.344.208 2.613 1.032 4.047.957 1.656 1.793 3.347 2.43 5.195a23.2 23.2 0 0 1 1.23 6.117c.047.734.156.914.258 1.086.136.223.261.434.3 1.211.028.559-.046.902-.175 1.07-.117.153-.266.2-.434.157a.7.7 0 0 1-.34-.243c-.27-.32-.539-1.011-.586-1.82-.023-.394-.324-.77-.648-1.176-.344-.43-.715-.89-.867-1.488a4.4 4.4 0 0 0-.516-1.2c-.254-.425-.598-.905-1.066-1.538-.965-1.309-2.102-2.602-3.223-3.77-1.488-1.547-2.95-2.867-3.973-3.707-.367-.305-.77-.62-1.171-.937-.735-.582-1.489-1.176-2.063-1.7-.441-.406-.828-.308-1.29-.195-.663.164-1.456.363-2.687-.398a5.5 5.5 0 0 0-1.613-.664 9 9 0 0 0-1.77-.23c-1.074-.044-1.53.292-1.937.593-.363.27-.691.512-1.3.523-.665.012-1.008.18-1.4.368-.519.246-1.116.535-2.5.609-.788.043-1.335.14-1.82.348-.484.21-.921.543-1.472 1.058-.8.738-1.176.453-1.691.063-.286-.22-.63-.48-1.18-.508-1.43-.078-2.887 1.039-4.223 2.058-.187.141-.375.286-.578.438-.574.426-1.137.418-1.957.402l-.238-.004c-.903-.011-1.36.227-1.84.48-.57.298-1.172.614-2.465.618-.738 0-1.39.02-1.976.04-3.426.097-4.743.136-9.149-3.575-.574-.484-1.758-1.274-3.148-2.082a38 38 0 0 0-3.746-1.926c-.665-.289-1.04-.273-1.614-.254l-.168.004a3 3 0 0 1-1.648-.45 1.74 1.74 0 0 1-.578-.593 1.02 1.02 0 0 1-.098-.8c.078-.258.262-.524.586-.774l.45-.356c1.363-1.074 3.265-2.57 5.241-3.722.778-.45 1.79-.828 2.817-1.078s2.078-.38 2.941-.325c.227.012.446.024.668.032 1.434.058 3.012.125 3.043 1.097.012.383.766.383 1.547.38.191 0 .387 0 .57.003l.149.004c.554.016 1.078.031 1.512-.004.617-.043 1.027-.183.996-.578-.02-.242-.747-.59-1.676-1.027-1.23-.582-2.778-1.317-3.695-2.43-.083-.098-.208-.207-.336-.32-.247-.211-.5-.438-.606-.711-.176-.469.078-.961 1.469-1.485.348-.132.683-.226 1.004-.32.965-.273 1.777-.508 1.781-1.406.004-.156-.059-.278-.246-.332-.277-.082-.77-.059-1.59.125-1.336.3-3.355.347-6.086.414l-.363.008c-.293.004-.61.015-.93.027-1.101.039-2.3.078-3.473-.012-.257-.02-.347.078-.449.184-.187.195-.394.414-1.004.426-.437.007-.964-.477-1.433-.918-.266-.243-.512-.473-.672-.551-.973-.488-1.188-.969-.723-1.477.356-.39 1.239-.765 2.59-1.148.3-.086.645-.633.758-1.164.039-.188.047-.371.008-.528a.47.47 0 0 0-.215-.304c-.277-.16-.82-.13-1.746.273l-.102.059c-.46.281-1.922 1.172-3.945 1.101-.871-.027-1.887-.07-2.5-.312-.777-.309-1.02-.848-.012-1.82.422-.407.852-.758 1.223-1.063.59-.484 1.02-.84 1.004-1.012-.012-.105-.2-.242-.45-.367-.32-.156-.722-.265-1.03-.265-.481-.004-1.04.117-1.708.265-1.011.227-2.27.5-3.933.5-1.274 0-2.11-.273-2.54-.664-.222-.2-.343-.43-.378-.676a1.12 1.12 0 0 1 .183-.734c.29-.457.926-.875 1.86-1.102 1.535-.375 2.668-.675 3.203-1.074.433-.316.402-.746-.235-1.441-.535-.586-1.277-.317-2.464.11-.532.194-1.149.417-1.864.608-.215.06-.476.141-.77.231-1.538.48-3.866 1.207-4.917.219-.254-.242-.547-.57-.38-1.133.142-.48.665-1.125 1.966-2.031.765-.536 1.285-1.086 1.547-1.61.253-.5.265-.972.039-1.363-.188-.32-.438-.46-.77-.426-.394.043-.906.297-1.558.75-.989.692-1.805 1.254-2.465 1.688s-1.168.742-1.528.91c-.23.11-.425.137-.574.094a.43.43 0 0 1-.3-.32.8.8 0 0 1 .023-.419c.113-.414.504-1.02 1.183-1.64l.008-.004c.227-.215.43-.637.5-1.094.07-.45.004-.922-.293-1.25l-.008-.012-.09-.086a.92.92 0 0 0-.703-.18c-.277.04-.562.184-.832.43-.07.07-.144.149-.21.23-.176.216-.356.454-.536.692-.632.836-1.238 1.633-1.875 1.715-.613.078-1.066.223-1.507.535-.458.32-.91.828-1.508 1.63-.086.109-.176.214-.278.312-.324.312-.742.547-1.214.601-.473.055-.997-.07-1.532-.472a4 4 0 0 1-.43-.383c-.843-.871-1.292-.89-1.976-.227-.336.324-.723.785-1.21 1.375l-.099.117c-.457.551-1.082 1.18-1.734 1.848-.66.672-1.352 1.375-1.95 2.066-1.308 1.52-3.097 3.024-4.687 4.36-.898.754-1.734 1.457-2.375 2.07-.703.676-1.277 1.203-1.785 1.559-.539.379-1.008.562-1.469.523-.488-.043-.789-.34-.96-.816-.157-.414-.211-.969-.227-1.606a1.12 1.12 0 0 0-.313-.761 1.05 1.05 0 0 0-.57-.309 1.4 1.4 0 0 0-.781.102c-.504.21-1.059.714-1.563 1.632-.558 1.008-2.941 2.926-4.964 4.547-.915.735-1.758 1.41-2.301 1.899-.54.484-2.434 1.644-4.883 2.988-2.11 1.16-4.64 2.46-7.078 3.582-.254.121-.54.254-.813.387-1.258.597-2.304 1.093-3.367 1.136-.57.02-1.078-.05-1.406-.222-.207-.11-.348-.254-.41-.442-.063-.187-.035-.402.093-.636.2-.356.664-.79 1.5-1.301a329 329 0 0 1 4.91-2.992 84 84 0 0 1 3.676-2.051c1.192-.625 3.07-1.793 4.793-2.984 1.47-1.012 2.828-2.043 3.551-2.774.41-.414.656-.965.649-1.39a.58.58 0 0 0-.106-.36.42.42 0 0 0-.308-.148c-.422-.043-1.125.21-2.184.968-1.871 1.344-3.399 2.29-5.152 3.375-.536.332-1.094.676-1.72 1.07l-1.195.759c-2.218 1.41-4.824 3.07-7.292 4.242-1.336.636-2.957 1.187-4.543 1.726-.582.2-1.16.395-1.723.598l-.508.18c-2.09.75-4.012 1.441-6.45 1.441-3.245 0-5.132-.32-5.972-.746-.375-.191-.574-.418-.62-.66-.052-.266.073-.516.355-.742.496-.399 1.562-.754 2.996-.93.84-.106 1.465-.352 2.164-.625.406-.16.84-.332 1.367-.496l1.2-.367c2.55-.79 5.593-1.727 8.198-2.73a52 52 0 0 0 2.989-1.282 64 64 0 0 1 2.355-1.027c1.512-.618 3.582-1.707 5.953-3.079 2.375-1.37 5.063-3.027 7.805-4.77.457-.288.941-.48 1.434-.671.57-.223 1.144-.445 1.671-.844.473-.347.918-.843 1.356-1.328.492-.539.969-1.066 1.473-1.398.714-.469 1.359-.73 1.968-.977.465-.183.914-.367 1.352-.625.93-.555 1.812-1.258 2.547-1.844a24 24 0 0 1 1.066-.82c.5-.348 1.059-.586 1.61-.82.492-.207.976-.414 1.386-.692 1.14-.761 2.07-1.672 2.996-2.582.957-.937 1.91-1.875 3.09-2.644.695-.457 1.754-.942 2.82-1.434.672-.308 1.348-.617 1.942-.926.45-.234.773-.464 1.082-.687.398-.285.773-.555 1.351-.79a17 17 0 0 1 1.653-.585c.531-.16 1.027-.277 1.465-.344 1.629-.258 2.312-.613 2.851-.89.496-.258.88-.457 1.696-.48 4.25-.11 6 1.144 9.003 3.292l.555.399c2.656 1.89 5.727 4.453 9.074 7.25 4.86 4.054 10.313 8.609 15.918 12.292 3.16 2.079 4.059 2.067 5.02 2.051.664-.011 1.355-.02 2.719.547.535.227 1.406.406 2.41.54 1.152.152 2.469.237 3.625.257 1.066.016 1.812-.254 2.144-.633a.62.62 0 0 0 .176-.457c-.016-.168-.11-.351-.293-.531-.601-.602-2.07-1.133-4.652-1.219-.106-.004-1.461-.238-2.766-.48a58 58 0 0 1-2.219-.446c-.21-.054-.453-.101-.707-.156-.937-.187-2.02-.41-2.43-.922-.367-.453-.257-1.05.774-1.883a9.2 9.2 0 0 1 3.45-1.765c1.241-.336 2.605-.45 4.148-.395 2.261.078 3.09.703 3.875 1.297.508.383 1 .754 1.902.93.305.058.613.105.918.152 1.27.192 2.453.367 3.598 1.516.445.441.843.828 1.242 1.215 1.14 1.105 2.27 2.207 3.242 3.39.371.457.574.946.54 1.457m-45.531 15.09c-.121-.5.02-1.172.52-1.726a2.5 2.5 0 0 1 .593-.47c.32-.183.695-.316 1.055-.343.383-.031.758.059 1.05.324q.141.128.258.32c.43.743-.136 1.169-.707 1.594-.168.125-.332.25-.457.375-.593.598-1.125.782-1.53.711a.9.9 0 0 1-.513-.277 1.1 1.1 0 0 1-.27-.508m49.06-19.265c-.485.085-1.094.363-1.54.746-.382.332-.652.75-.648 1.21.004.438.29.938.86 1.29.437.273 1.046.46 1.82.464.832 0 1.582-.011 2.297-.02 1.902-.03 3.55-.058 5.75.204.378.047 1.011.149 1.699.309.496.117 1.02.265 1.488.437.711.266 1.375.496 1.914.543.625.055 1.098-.117 1.317-.707.277-.73-.094-1.144-.77-1.394-.578-.215-1.39-.297-2.18-.38-.285-.027-.57-.058-.828-.09-.703-.089-1.144-.37-1.336-.702a.8.8 0 0 1-.105-.442c.012-.148.07-.3.176-.437.265-.36.824-.637 1.68-.656.706-.016 1.132.113 1.663.273.512.152 1.114.336 2.13.457 1.3.152 3.206.105 4.066.082.16-.004.28-.008.382-.008a.66.66 0 0 0 .57-.332.85.85 0 0 0 .13-.41 1 1 0 0 0-.09-.46c-.149-.325-.492-.642-1.121-.798-.727-.176-1.723-.754-2.403-1.437-.257-.262-.468-.532-.597-.797-.117-.246-.16-.485-.11-.7a.86.86 0 0 1 .23-.386c.927-.922 1.708-.29 2.755.566.527.434 1.12.918 1.828 1.309 1.34.734 2.14.8 3.21.883.66.054 1.427.113 2.49.351.187.043.472-.027.69-.203.133-.105.25-.25.317-.422a1 1 0 0 0 .012-.625c-.122-.418-.512-.93-1.407-1.508l-.28-.18c-1.06-.679-2.247-1.437-2.345-2.097-.047-.312-.082-.683.028-.96.097-.24.336-.415.84-.415.816.008 1.46.445 2.27.988 1.198.809 2.722 1.836 5.632 2.137.762.078 1.39-.117 1.797-.441.207-.16.36-.36.449-.567.09-.222.113-.457.05-.687-.077-.301-.296-.582-.683-.797-1.265-.703-2.45-1.621-3.11-2.473-.226-.293-.386-.574-.46-.828-.067-.222-.059-.422.031-.59a.75.75 0 0 1 .2-.222c.187-.145.542-.391 1.015-.38.488.016 1.113.302 1.844 1.247.52.672 1.136 1.058 1.754 1.445.527.328 1.058.66 1.503 1.172.543.621.872.676 1.133.445.157-.132.239-.363.328-.617.164-.445.364-1.008 1.106-.77a.75.75 0 0 0 .45-.023.76.76 0 0 0 .355-.25.76.76 0 0 0 .152-.508c-.012-.25-.121-.57-.395-.972a2.3 2.3 0 0 1-.304-.676 1 1 0 0 1-.024-.41.42.42 0 0 1 .184-.27.8.8 0 0 1 .25-.105c1.61-.399 2.066.594 2.668 1.902.348.75.734 1.598 1.394 2.379.332.398.899.691 1.575 1.04.796.41 1.75.901 2.593 1.718.567.547 1.063.984 1.493 1.332q.657.525 1.132.793c.442.25.895.414 1.301.465.367.047.711 0 .992-.16.29-.16.508-.434.621-.836.094-.32.118-.723.059-1.22-.016-.14-.043-.288-.07-.448-.133-.75-.317-1.782.5-2.176.5-.242.914-.192 1.34.066.46.29.953.828 1.558 1.516.094.101.192.23.309.383.41.53 1.031 1.324 1.976 2.074 1.36 1.082 3.082 2.195 4.934 3.234a55 55 0 0 0 6 2.922c.93.383 1.73.66 2.46.848a8.3 8.3 0 0 0 2.044.273c1.586 0 2.152-.3 2.152-.738 0-.66-1.594-1.496-2.539-1.992l-.11-.059a14.5 14.5 0 0 1-1.866-1.187c-.497-.38-.915-.754-1.114-1.055q-.188-.282-.207-.52a.44.44 0 0 1 .043-.257.6.6 0 0 1 .203-.223c.196-.129.496-.219.91-.254.563-.047 1.196.164 1.918.555.75.402 1.594 1 2.559 1.695.77.559 1.992 1.16 3.29 1.598 1.124.383 2.315.636 3.315.629.954-.008 1.61-.082 1.899-.278.422-.293.308-.687-.457-1.25-.29-.215-.469-.41-.567-.613-.097-.2-.128-.426-.125-.691.004-.223.079-.356.239-.426.226-.102.605-.13 1.16-.14 1.879-.04 3.894.238 5.941.519 2.047.285 4.121.57 6.153.55.199 0 .386-.003.574-.007 2.668-.047 4.754-.266 6.176-.575 1.53-.335 2.34-.82 2.34-1.367v-.007c-.012-.532-.172-.848-.977-1.024-.672-.144-1.871-.187-3.996-.191a94 94 0 0 1-7.426-.32c-2.508-.208-5.05-.508-7.652-.895-.774-.117-1.13-.293-1.555-.508-.7-.352-1.574-.79-4.484-1.215-1.504-.219-3.97-.808-6.77-1.61a129 129 0 0 1-8.574-2.76c-1.805-.653-2.54-1.185-3.29-1.731-.753-.547-1.523-1.106-3.347-1.797a78 78 0 0 0-1.055-.387c-1.304-.477-2.617-.95-3.703-1.61-.507-.308-.957-.667-1.406-1.027-.648-.515-1.3-1.039-2.144-1.437-2.028-.95-3.93-1.805-5.848-2.43-1.938-.629-3.895-1.023-6.031-1.059-1.801-.027-3.657.348-5.535 1.012-1.868.664-3.758 1.617-5.641 2.746-.586.356-1.106.868-1.625 1.383-.371.371-.75.746-1.145 1.05-.421.325-.882.575-1.351.837-.543.293-1.094.597-1.637 1.031a288 288 0 0 1-4.695 3.68 205 205 0 0 1-4.95 3.664c-2.027 1.45-3.996 2.812-5.984 3.906-1.976 1.086-3.969 1.906-6.055 2.274m83.903 5.078c-.145-.215-.133-.461.176-.668.199-.133.449-.282.668-.309.32-.035.558.11.558.645 0 .5-.32.68-.672.68-.14 0-.285-.036-.41-.09a.76.76 0 0 1-.32-.258" style="stroke:none;fill-rule:nonzero;fill:#fff;fill-opacity:1"></path><path d="m430.688 236.496-3.258-.004c-.95 0-2.852-.262-2.852-1.504v-6.781c0-1.027 1.57-1.621 2.356-1.621h3.355c2.055 0 4.727 1.484 4.727 4.55 0 3.259-1.532 5.376-4.329 5.36m-6.109-23.27c0-.956 1.43-1.511 2.149-1.511h3.058c1.871 0 4.305 1.383 4.305 4.242 0 3.035-1.39 5.008-3.942 4.992l-2.972-.004c-.863 0-2.598-.242-2.598-1.398Zm16.098 13.422c-.953-1.597-2.02-2.164-3.766-2.906-.437-.187-.582-1.074-.11-1.324 3-1.598 4.137-5.047 4.126-8.059-.028-7.125-3.227-8.687-9.309-8.687h-12.375c-1.246 0-1.605.367-1.605 1.5v34.422c0 1.011.164 1.367 1.449 1.367l13.18-.008c7.39 0 9.847-3.656 9.847-10.648q0-3.247-1.437-5.657M383.855 231.402l-3.94-1.75c-.817-.363-1.243-.355-1.474.387-.753 2.48-1.082 3.363-2.207 4.633-1.129 1.273-2.468 1.766-4.039 1.766-2.117 0-3.34-.649-4.668-2.653-1.324-2-1.738-5.344-1.738-10.062 0-2.844-.074-6.243 1.875-8.688 1.106-1.383 2.777-2.922 4.902-2.922 1.832 0 4.348 1.73 5.313 4.317.281.746.933.875 1.402.734l4.14-1.226c1.095-.325.454-2.047.09-2.875-2.288-5.168-5.015-8.094-11.366-8.094-4.086 0-7.168 1.172-9.668 4.605-2.512 3.438-3.73 8.324-3.73 14.535 0 5.196.983 11.993 4.382 15.739 2.906 3.207 4.625 3.785 9.016 3.785 4.3 0 7-1 8.832-3.172 1.703-2.027 2.562-3.992 3.539-7.844.199-.789-.305-1.058-.66-1.215M409.336 205.703l-16.766.008c-1.547 0-1.656.629-1.656 1.93v33.773c0 1.059-.039 1.48 1.227 1.48h4.644c1.18 0 1.2-.257 1.207-1.433l.07-12.727c.012-1.73.352-1.789 1.692-1.785l7.953.004c1.191 0 1.395-.543 1.395-1.367v-3.625c0-.742-.145-.906-1.895-.906l-6.84-.004c-.805 0-2.305.246-2.305-.969v-6.82c0-1.032.63-1.067 1.833-1.067l9.34.004c1.437 0 1.515-.394 1.515-1.566v-3.41c0-.899 0-1.52-1.414-1.52" style="stroke:none;fill-rule:nonzero;fill:#1f0e81;fill-opacity:1"></path><path d="M408.973 262.82h56.242c2.14 0 2.828 1.157 2.238 2.477l-60.48 135.3V264.735c0-1.367.113-1.914 2-1.914M394.328 262.82v126.13l5.203 11.644v-135.86c0-1.367-.11-1.914-1.996-1.914Zm-13.887 0v95.07l6.262 14.005V262.82Zm-13.773 0v64.254l6.148 13.758V262.82Zm-13.941 0v33.07l6.316 14.13v-47.2Zm-7.622 16.012V262.82h-3.816c-2.14 0-2.824 1.157-2.234 2.477" style="stroke:none;fill-rule:nonzero;fill:#e6f41d;fill-opacity:1"></path><path d="M386.703 262.82v109.075l7.625 17.054V262.82Zm-13.887 0v78.012l7.625 17.059v-95.07Zm-13.773 0v47.2l7.625 17.054V262.82Zm-13.938 0v16.012l7.622 17.059v-33.07" style="stroke:none;fill-rule:nonzero;fill:#fd1313;fill-opacity:1" data-source="https://football-logos.cc"></path><path d="m462.3 265.36-51.53.003c-.625 0-1.422-.11-1.422 1.059v121.621l54.164-120.828c.613-1.371.273-1.856-1.211-1.856" style="stroke:none;fill-rule:nonzero;fill:#fff;fill-opacity:1"></path><path d="M409.348 351.902c3.457.13 3.918 1.239 3.918 5.317 0 3.304-.664 6.008 1.59 7.765.894.7 2.324 1.188 4.277 1.23l10.828-24.151c-4.145.054-6.031 1.726-6.031 6.007 0 4.922 1.324 8.36-4.555 8.36s-4.55-3.438-4.55-8.36c0-4.086-1.723-5.793-5.477-5.988Zm7.797-11.964c.933.73 2.457 1.23 4.546 1.23 2.094 0 3.559-.5 4.497-1.23 2.25-1.762 1.585-4.465 1.585-7.77 0-4.36.547-5.328 4.7-5.328 2.043 0 3.207.234 3.863.992l2.363-5.273c-.133-4.012-2.097-5.547-6.234-5.547-4.293 0-6.246 1.652-6.246 6.008 0 4.921 1.32 8.359-4.555 8.359-5.879 0-4.555-3.438-4.555-8.36 0-4.355-1.953-6.007-6.246-6.007q-.814 0-1.515.082v9.808c.445-.043.949-.062 1.523-.062 4.156 0 4.684.969 4.684 5.328 0 3.305-.664 6.008 1.59 7.77m-2.114-24.774c.938.734 2.457 1.234 4.551 1.234s3.559-.5 4.492-1.234c2.254-1.758 1.59-4.46 1.59-7.766 0-4.359.547-5.328 4.7-5.328 4.152 0 4.675.97 4.675 5.328 0 3.305-.66 6.008 1.59 7.766.937.734 2.402 1.234 4.496 1.234.113 0 .23-.003.34-.007l10.824-24.149h-.34c-4.289 0-6.242 1.653-6.242 6.008 0 4.922 1.324 8.36-4.555 8.36s-4.554-3.438-4.554-8.36c0-4.355-1.953-6.008-6.246-6.008-4.29 0-6.247 1.653-6.247 6.008 0 4.922 1.325 8.36-4.55 8.36-5.88 0-4.555-3.438-4.555-8.36 0-4.152-1.773-5.848-5.652-5.996v9.824c3.617.098 4.093 1.176 4.093 5.32 0 3.305-.66 6.008 1.59 7.766m2.223-24.27c.937.731 2.457 1.231 4.55 1.231 2.09 0 3.555-.5 4.493-1.23 2.254-1.758 1.59-4.461 1.59-7.77 0-4.355.543-5.324 4.695-5.324s4.68.969 4.68 5.324c0 3.309-.66 6.012 1.59 7.77.937.73 2.402 1.23 4.496 1.23 2.09 0 3.613-.5 4.547-1.23 2.253-1.758 1.59-4.461 1.59-7.77 0-4.355.546-5.324 4.699-5.324 2.23 0 3.418.277 4.035 1.219l2.199-4.907v-.133c0-4.359-1.953-6.007-6.246-6.007-4.29 0-6.246 1.648-6.246 6.007 0 4.918 1.324 8.36-4.551 8.36-5.879 0-4.555-3.442-4.555-8.36 0-4.359-1.953-6.007-6.246-6.007-4.289 0-6.246 1.648-6.246 6.007 0 4.918 1.324 8.36-4.555 8.36-5.875 0-4.55-3.442-4.55-8.36 0-4.359-1.953-6.007-6.246-6.007q-.88 0-1.63.093v9.805c.473-.05 1.012-.07 1.637-.07 4.153 0 4.68.969 4.68 5.324 0 3.309-.664 6.012 1.59 7.77" style="stroke:none;fill-rule:nonzero;fill:#1f0e81;fill-opacity:1"></path><path d="M328.328 257.906c-.27-.008-.496.196-.773.434l-5.676 4.918c-.762.656-1.207.316-.856-.617l3.59-9.57-6.383-3.946c-.914-.566-.66-1.012.344-1.012l7.172.004 1.824-6.426c.114-.398.352-1.007.758-1.007.414 0 .652.609.766 1.007l1.82 6.426 7.172-.004c1.008 0 1.258.446.344 1.012l-6.38 3.945 3.59 9.57c.348.934-.093 1.274-.855.618l-5.68-4.918c-.277-.238-.5-.442-.777-.434" style="stroke:none;fill-rule:nonzero;fill:#fd1313;fill-opacity:1"></path><path d="M329.79 247.684h2.933v5.886c0 .586-.09 1.133-.266 1.653q-.263.778-.824 1.363c-.371.387-.766.66-1.176.816q-.853.329-2.059.328-.69.002-1.511-.097-.82-.102-1.371-.403a3.5 3.5 0 0 1-1.008-.851 3.1 3.1 0 0 1-.63-1.14q-.269-.94-.269-1.669v-5.886h2.93v6.027q.001.809.43 1.262.432.456 1.199.457c.504 0 .902-.153 1.191-.45.286-.296.43-.722.43-1.27" style="stroke:none;fill-rule:nonzero;fill:#e6f41d;fill-opacity:1"></path><path d="M478.176 257.906c.27-.008.5.196.773.434l5.68 4.918c.762.656 1.203.316.855-.617l-3.59-9.57 6.38-3.946c.913-.566.663-1.012-.344-1.012l-7.172.004-1.82-6.426c-.114-.398-.352-1.007-.762-1.007s-.649.609-.762 1.007l-1.82 6.426-7.176-.004c-1.004 0-1.258.446-.344 1.012l6.38 3.945-3.587 9.57c-.351.934.094 1.274.856.618l5.675-4.918c.278-.238.504-.442.778-.434" style="stroke:none;fill-rule:nonzero;fill:#fd1313;fill-opacity:1"></path><path d="M474.531 247.766h7.867v2.105h-4.925v1.574h4.574v2.012h-4.574v1.945h5.074v2.239h-8.016" style="stroke:none;fill-rule:nonzero;fill:#e6f41d;fill-opacity:1"></path><path d="M403.254 423.523c-.274-.003-.5.196-.777.438l-5.676 4.91c-.762.66-1.207.32-.856-.613l3.59-9.57-6.383-3.946c-.914-.566-.66-1.012.344-1.012l7.176.008 1.82-6.43c.113-.398.352-1.007.762-1.007s.648.61.762 1.008l1.82 6.43 7.172-.009c1.008 0 1.258.446.344 1.012l-6.38 3.945 3.59 9.57c.348.934-.093 1.274-.855.614l-5.68-4.91c-.277-.242-.504-.441-.773-.438" style="stroke:none;fill-rule:nonzero;fill:#fd1313;fill-opacity:1"></path><path d="M402.188 421.11h1.5q.755 0 1.066-.282.313-.274.312-.75.001-.44-.308-.703c-.207-.176-.563-.266-1.078-.266h-1.493Zm0-3.88h1.277c.457 0 .777-.085.957-.246.18-.168.27-.402.27-.71q0-.436-.27-.676-.27-.242-.938-.243h-1.296Zm-2.965-3.875h5.5q1.375 0 2.113.707.733.709.734 1.75 0 .876-.523 1.504-.353.419-1.027.66 1.023.258 1.507.88c.32.414.485.937.485 1.566q0 .769-.348 1.379-.34.615-.937.972-.37.222-1.118.32-.989.139-1.316.137h-5.07" style="stroke:none;fill-rule:nonzero;fill:#e6f41d;fill-opacity:1" data-source="https://football-logos.cc"></path><!-- source: https://football-logos.cc --></svg>