<svg xmlns="http://www.w3.org/2000/svg" xml:space="preserve" viewBox="0 0 478.08 617.76"><!-- Source: https://football-logos.cc --><path d="M3293.99 3002.4c0 172.8 259.21 237.6 259.21 237.6v637.2l-540.05-2.24c-550.75 0-1220.35 596.24-1220.35 758.24 0-162-669.6-758.24-1220.359-758.24l-540.043 2.24V3240s259.2-64.8 259.2-237.6C291.598 2883.6 0 2624.4 0 2041.2 0 1134 712.797 280.801 1620 280.801 1695.6 280.801 1792.8 0 1792.8 0s97.2 280.801 172.8 280.801c907.2 0 1620 853.199 1620 1760.399 0 583.2-291.61 842.4-291.61 961.2M1965.6 378.77c-26.33 0-92.3-1.368-172.8-137.793-80.5 136.425-146.46 137.793-172.8 137.793-810.805 0-1522.047 776.84-1522.047 1662.43 0 376.36 127.66 605.03 212.125 756.36 46.152 82.67 79.485 142.4 79.485 204.84 0 161.2-140.278 259.84-259.208 307.59v468.83c131.602-.53 442.086-1.82 442.086-1.82C1029.77 3777 1575 4154.9 1792.8 4432.89 2010.61 4154.9 2555.92 3777 3013.58 3777c0 0 310.08 1.29 441.66 1.82v-468.83c-118.93-47.75-259.2-146.39-259.2-307.59 0-62.44 33.32-122.17 79.48-204.84 84.46-151.33 212.11-380 212.11-756.36 0-885.59-711.23-1662.43-1522.03-1662.43" style="fill:#1d3770;fill-opacity:1;fill-rule:nonzero;stroke:none" transform="matrix(.13333 0 0 -.13333 0 617.76)" data-source="https://football-logos.cc"></path><path d="M572.441 3777s-310.484 1.29-442.086 1.82v-468.83c118.93-47.75 259.208-146.39 259.208-307.59 0-62.44-33.333-122.17-79.485-204.84-84.465-151.33-212.125-380-212.125-756.36 0-885.59 711.242-1662.43 1522.047-1662.43 26.34 0 92.3-1.368 172.8-137.793 80.5 136.425 146.47 137.793 172.8 137.793 810.8 0 1522.03 776.84 1522.03 1662.43 0 376.36-127.65 605.03-212.11 756.36-46.16 82.67-79.48 142.4-79.48 204.84 0 161.2 140.27 259.84 259.2 307.59v468.83c-131.58-.53-441.66-1.82-441.66-1.82-457.66 0-1002.97 377.9-1220.78 655.89C1575 4154.9 1029.77 3777 572.441 3777" style="fill:#fff;fill-opacity:1;fill-rule:nonzero;stroke:none" transform="matrix(.13333 0 0 -.13333 0 617.76)"></path><path d="m2725.14 3176-5.19 9.66-4.35 1.04c-18.01 17.95-102.67 114.56-102.67 344.9v17.89l-17.05 5.44c-7.5 2.41-186.09 58.77-396.27 58.77-252.99 0-459.57-30.99-489.61-35.72v7.12l-3.56 8.12c-37.08 32.33-110.28 70.87-248.44 70.87-378.76 0-630.977-136.41-721.852-195.07l-18.539-11.96 180.246-354.76 281.985-554.96 23.09 36.02c72.63 113.33 231.83 305.01 482.58 317.3v-156.74h219.45l6.43 4.51c.93.68 98.33 67.48 295.39 67.48 224.15 0 537.13-91.67 540.29-92.6l31.39-9.27.05 205.57c0 155.57-51.18 252.37-53.37 256.39" style="fill:#1c3770;fill-opacity:1;fill-rule:nonzero;stroke:none" transform="matrix(.13333 0 0 -.13333 0 617.76)"></path><path d="M2055.29 878.645 717.816 3510.66l69.129 94.69-30.988 67.2-291.562-148.16 36.011-64.63h117.262L1955.14 827.754c14.04-27.629 47.88-38.684 75.51-24.629 27.64 14.055 38.69 47.883 24.64 75.52" style="fill:#1d3770;fill-opacity:1;fill-rule:nonzero;stroke:none" transform="matrix(.13333 0 0 -.13333 0 617.76)"></path><path d="M1710 3553.2s215.98 36.01 489.61 36.01c208.78 0 388.79-57.61 388.79-57.61 0-273.58 115.18-367.2 115.18-367.2s-331.17 79.21-547.17 79.21-446.41-43.2-446.41-43.2zM908.402 3135.63c75.703 40.2 300.688 151.18 477.608 151.18h299.5v287.15l4.84.8c-29.35 25.58-96.39 64.84-232.35 64.84-378.91 0-630.852-140.99-708.562-191.15z" style="fill:#bf0d11;fill-opacity:1;fill-rule:nonzero;stroke:none" transform="matrix(.13333 0 0 -.13333 0 617.76)"></path><path d="M1182.3 2596.58c67.37 105.13 235.24 316.13 503.21 328.66v361.57h-299.5c-176.92 0-401.905-110.98-477.608-151.18zM2703.58 3164.4s-331.17 79.21-547.17 79.21-446.41-43.2-446.41-43.2v-432h187.21s100.74 71.99 309.57 71.99c230.43 0 547.21-93.59 547.21-93.59v172.8c0 151.18-50.41 244.79-50.41 244.79" style="fill:#1d3770;fill-opacity:1;fill-rule:nonzero;stroke:none" transform="matrix(.13333 0 0 -.13333 0 617.76)"></path><path d="M1331.1 2559.39c-325.5-248.57-388.108-715.63-139.54-1041.14 120.41-157.7 295.02-259.03 491.68-285.4 196.63-26.33 391.8 25.48 549.44 145.88 157.66 120.41 259.03 295.02 285.4 491.66 26.37 196.62-25.44 391.79-145.84 549.45-248.56 325.49-715.62 388.1-1041.14 139.55" style="fill:#1c3770;fill-opacity:1;fill-rule:nonzero;stroke:none" transform="matrix(.13333 0 0 -.13333 0 617.76)" data-source="https://football-logos.cc"></path><path d="m1233.25 1568.54-23.86-11.53c3.83-5.31 7.09-10.84 11.09-16.11 44.15-57.84 95.57-106.91 151.96-146.99h.1s205.57-85.17 571.88 194.59c137.91 105.29 204.18 182.83 103.24 315.01-74.98 98.21-136.69 92.94-202.76 42.47-45.31-34.63-1.06-96.53-103.07-174.4-92.49-70.66-255.15-6.42-274.02-20.84-18.88-14.43 4.62-92.19-69.04-148.42-69.86-53.37-165.52-33.78-165.52-33.78" style="fill:#e6b54a;fill-opacity:1;fill-rule:nonzero;stroke:none" transform="matrix(.13333 0 0 -.13333 0 617.76)"></path><path d="m1468.9 1847.22 44.24-59.91c4.47-.67 8.52-1.17 13.54-2.02 56.26-8.86 141.27-22.27 192.08 16.55 49.95 38.12 56.28 68.55 62.44 97.95 1.73 8.35 4 17.38 6.91 26.53l-49.1 64.33c-85.11 111.43-65.92 254.65 17.22 318.15 50.96 38.89 44.79 43.11-21.55 129.93-59.14 77.46-47.9 148.8 1.23 186.31 10.48 8.01 19.7 26.61 27.82 49.84-105.91-2.56-211.69-28.92-309.3-80.11-36.68-211.43-88.84-612.29 14.47-747.55" style="fill:#e6b54a;fill-opacity:1;fill-rule:nonzero;stroke:none" transform="matrix(.13333 0 0 -.13333 0 617.76)"></path><path d="M1444.78 1780.95c5.94 4.56 12.54 6.83 19.72 8.23l-25.84 34.93c-101.7 133.19-72.31 473.09-26.84 746.8-19.91-12.2-39.57-25.26-58.62-39.81-294.04-224.5-361.989-636.3-165.56-942.36l28.98 14.05 11.63 5.48 12.45-2.4c.82-.21 80.21-15.19 135.01 26.61 36.31 27.76 40.63 61.02 44.43 90.33 2.81 21.47 5.69 43.62 24.64 58.14M2119.54 1718.96c-26.87-59.48-86.4-110.56-152.04-160.68-236.74-180.77-410.32-215.41-510.79-214.69 235.3-121.97 529.81-106.65 754 64.59 78.38 59.82 140.6 133.1 186.13 214.07-10.25 20.62-22.7 41.63-37.89 61.54-98.09 128.42-239.41 35.17-239.41 35.17M1799.63 2662.46c-11.76-33.92-24.68-55.37-40.69-67.59-37.25-28.45-35.04-79.46 5.93-133.08l6.83-8.92c19.41-25.38 33.68-44.13 43.08-60.39 146.64 9.84 422.88-48.67 584.04-259.69 28.43-37.2 60.2-83.32 88.18-125.26-7.18 137.2-54.05 273.68-143.58 390.89-133.94 175.4-334.54 269.81-539.57 276.17z" style="fill:#e6b54a;fill-opacity:1;fill-rule:nonzero;stroke:none" transform="matrix(.13333 0 0 -.13333 0 617.76)"></path><path d="m2486.66 1942.02-118.08 167.65c-146.6 192-399.14 251.15-540.69 245.19.26-4.22.18-8.52-.37-12.98-3.92-29.54-27.47-47.5-48.18-63.33-64.8-49.49-84.34-167.69-10.16-264.86l39.07-51.09c4 4.65 8 9.37 13.57 13.59 92.73 70.78 176.56 54.59 256.11-49.57 45.62-59.73 60.59-111.29 55.41-157.53 68.04 29.53 176.62 41.48 255.82-62.23l27.54-44.71c42.5 87.83 65.86 183.3 69.96 279.87" style="fill:#e6b54a;fill-opacity:1;fill-rule:nonzero;stroke:none" transform="matrix(.13333 0 0 -.13333 0 617.76)"></path><path d="M374.414 2070.86h106.645v-286.58c0-45.48 1.289-75.01 3.902-88.42 4.516-21.69 15.234-39.07 32.191-52.2 16.957-13.11 40.118-19.64 69.528-19.64 29.867 0 52.398 6.19 67.582 18.59 15.168 12.36 24.297 27.59 27.383 45.65 3.078 18.05 4.617 48.01 4.617 89.87v292.73h106.652v-276.8c0-63.28-2.871-107.95-8.605-134.06-5.739-26.12-16.286-48.18-31.688-66.15-15.394-17.98-35.961-32.28-61.738-42.95-25.781-10.63-59.442-15.99-100.957-15.99-50.121 0-88.129 5.81-114.031 17.41-25.899 11.66-46.364 26.76-61.387 45.32-15.035 18.57-24.945 38.05-29.719 58.38-6.918 30.22-10.375 74.76-10.375 133.75zM2762.35 1544.36v526.5h170.78c64.67 0 106.82-2.66 126.48-7.89 30.2-7.93 55.47-25.15 75.85-51.54 20.36-26.51 30.54-60.68 30.54-102.62 0-32.36-5.82-59.56-17.56-81.58-11.72-22.03-26.66-39.32-44.71-51.9-18.1-12.56-36.45-20.93-55.14-24.97-25.39-5.06-62.14-7.56-110.23-7.56H2869v-198.44zm106.65 437.4v-149.85h58.27c41.93 0 69.98 2.75 84.06 8.32 14.18 5.47 25.24 14.13 33.3 25.89 8.01 11.78 12.03 25.49 12.03 41.1 0 19.15-5.62 35.01-16.88 47.5s-25.53 20.33-42.78 23.46c-12.7 2.35-38.23 3.58-76.57 3.58zM1613.33 507.559v521.101h106.65v-432h263.25v-89.101z" style="fill:#1c3770;fill-opacity:1;fill-rule:nonzero;stroke:none" transform="matrix(.13333 0 0 -.13333 0 617.76)" data-source="https://football-logos.cc"></path><!-- source: https://football-logos.cc --></svg>