<svg xmlns="http://www.w3.org/2000/svg" xml:space="preserve" style="shape-rendering:geometricPrecision;text-rendering:geometricPrecision;image-rendering:optimizeQuality;fill-rule:evenodd;clip-rule:evenodd" viewBox="453.52 418 6092.96 9164"><!-- Source: https://football-logos.cc --><defs data-source="https://football-logos.cc"><style>.fil4{fill:#cf142b}.fil1{fill:#003896}.fil0,.fil3{fill:#fefefe;fill-rule:nonzero}.fil3{fill:#2b2a29}</style></defs><g id="Capa_x0020_1" data-source="https://football-logos.cc"><g id="_1445703549584"><path d="M1833.17 2803.02c12.39 10.55 23.04 20.15 30.2 27.31 62.2 61.77 206.66 235.79 206.66 517.88 0 169.96-52.78 275.02-113.98 396.59-69.96 139.03-142.28 282.79-142.28 543.66 0 210.61 81.42 402.77 235.48 555.59 130.63 129.69 310.69 225.25 494.17 262.4 87.98 17.78 178.44 25.79 265.93 33.48l12.34 1.09c71.05 6.35 138.15 12.28 204.54 23.99 215.06 38.03 381.96 165.07 473.75 251.04 91.79-85.97 258.73-213.01 473.85-251.04 66.39-11.71 133.49-17.64 204.47-23.99l12.31-1.09c87.53-7.69 178.01-15.7 265.96-33.48 183.48-37.15 363.57-132.71 494.17-262.4 154.02-152.82 235.41-344.98 235.41-555.59 0-260.87-72.35-404.63-142.24-543.66-61.14-121.57-114.02-226.63-114.02-396.59 0-282.16 144.61-456.11 206.77-517.99 7.12-7.05 17.78-16.65 30.16-27.2l.56-3.77-8.29-8.08-643.96-635.95-9.59 7.05c-153.96 113.53-319.09 171.31-490.51 171.31-144.25 0-290.23-41.38-434.05-123.12-31.15-17.57-58.42-36.05-81-52.95-22.54 16.9-49.88 35.38-81 52.95-143.79 81.74-289.84 123.12-433.92 123.12h-.07c-171.45 0-336.62-57.78-490.92-171.7l-9.28-6.66c-131.2 129.57-643.5 635.53-643.5 635.53l-8.72 8.5z" class="fil0"></path><path d="M2595.79 2682.47h-602.68v330.32c20 40.35 38.21 86.53 51.89 138.45h550.79zM3801.48 2682.47h-602.9v468.77h602.9zM5006.89 2682.47h-602.55v468.77h550.63c13.69-51.94 31.92-98.12 51.92-138.47zM1950.94 2682.47h42.17v-41.65zM2595.79 2227.96v454.51h602.79v-378.81c-71.31 19.9-142.66 29.91-213.53 29.91h-.04c-134.35 0-264.8-35.48-389.22-105.61M3801.48 2303.68v378.79h602.86v-454.49c-124.33 70.05-254.88 105.59-389.32 105.59-70.92 0-142.25-10.01-213.54-29.89M5006.89 2640.84v41.63h42.15zM3198.58 3151.24h-602.79v468.99h602.79zM4404.34 3151.24h-602.86v468.99h602.86z" class="fil1"></path><path d="M3606.22 5328.13h-212.46c-93.69-68.27-219.14-136.9-367.51-163.16-66.43-11.68-133.53-17.6-204.58-23.95l-12.34-1.1c-87.49-7.69-177.94-15.66-265.93-33.48-183.48-37.14-363.5-132.71-494.13-262.39-154.06-152.79-235.48-344.98-235.48-555.59 0-260.85 72.32-404.64 142.27-543.67 30.7-60.99 59.28-117.82 80.15-180.76h2927.57c20.88 62.94 49.47 119.77 80.15 180.76 69.88 139.03 142.24 282.82 142.24 543.67 0 210.61-81.39 402.8-235.45 555.59-130.56 129.68-310.65 225.25-494.17 262.39-87.91 17.82-178.43 25.79-265.96 33.48l-12.31 1.1c-70.94 6.35-138.08 12.27-204.47 23.95-148.42 26.26-273.89 94.89-367.59 163.16" style="fill:#0d6b4d"></path><path d="M2068.41 3398.68h2863.14c9.33 141.27 57.5 237.02 112.38 346.11 13.73 27.32 27.56 54.83 40.91 83.36H1915.13c13.36-28.53 27.19-56.04 40.93-83.36 54.91-109.09 103.03-204.84 112.35-346.11" class="fil0"></path><path d="M4930.78 3385.12h-2861.6a731 731 0 0 1-1.78 26.99h2865.16c-.75-8.82-1.34-17.8-1.78-26.99m-3021.89 456.5h3182.18c-4.14-9.06-8.33-18-12.56-26.85H1921.45c-4.23 8.85-8.42 17.79-12.56 26.85M2305.38 3508.25h23.99c19.68 0 34.99 13.23 34.99 30.16v31.47c0 16.93-15.31 30.16-34.99 30.16h-23.99zm23.99-26.46h-53.34v263.24h29.35v-118.46h23.99c19.68 0 34.99 13.2 34.99 30.02v88.44h29.35v-88.44c0-16.61-8.39-32.17-23.14-43.35 14.54-10.66 23.14-26.6 23.14-43.36v-31.47c0-31.32-28.85-56.62-64.34-56.62M2509.83 3652.84h-44.59l22.5-128.58zm-44-171.06-45.29 259.33-.74 3.95h29.49l11.29-65.76h53.94l11.78 65.76h29.42l-45.96-263.28zM2644.36 3478c-33.02 0-59.94 23.6-59.94 52.74v165.32c0 29.17 26.92 52.84 59.94 52.84 33.05 0 59.9-23.67 59.9-52.84v-38.32h-29.32v38.32c0 14.56-13.72 26.35-30.58 26.35-16.83 0-30.55-11.79-30.55-26.35v-165.32c0-14.53 13.72-26.28 30.55-26.28 16.86 0 30.58 11.75 30.58 26.28v44.03l29.32-3.03v-41c0-29.14-26.85-52.74-59.9-52.74M2744.98 3745.04h29.35v-263.28h-29.35zM2919.38 3662.75l-64.28-180.98h-33.09v263.28h29.32v-191.77l69.07 191.77h28.37v-263.28h-29.39zM3283.4 3478c-33.05 0-59.97 23.6-59.97 52.74v165.32c0 29.17 26.92 52.84 59.97 52.84 33.02 0 59.91-23.67 59.91-52.84v-38.32h-29.36v38.32c0 14.56-13.68 26.35-30.55 26.35-16.86 0-30.51-11.79-30.51-26.35v-165.32c0-14.53 13.65-26.28 30.51-26.28 16.87 0 30.55 11.75 30.55 26.28v44.03l29.36-3.03v-41c0-29.14-26.89-52.74-59.91-52.74M3413.35 3481.77H3384v263.28h100.26v-26.49h-70.91zM3606.26 3696.06c0 14.57-13.72 26.35-30.48 26.35-16.89 0-30.62-11.78-30.62-26.35v-214.28h-29.35v214.28c0 29.18 26.92 52.85 59.97 52.85 33.02 0 59.87-23.67 59.87-52.85v-214.28h-29.39zM3735.83 3600.03h-24.02v-91.79h24.02c19.58 0 34.93 13.23 34.93 30.16v31.47c0 16.93-15.35 30.16-34.93 30.16m0 118.53h-24.02v-92h24.02c19.58 0 34.93 13.19 34.93 30.05v31.9c0 16.86-15.35 30.05-34.93 30.05m0-236.78h-53.41v263.28h53.41c35.46 0 64.24-25.33 64.24-56.55v-31.9c0-16.61-8.36-32.2-23.18-43.35 14.61-10.69 23.18-26.64 23.18-43.39v-31.47c0-31.33-28.78-56.62-64.24-56.62M3909.97 3745.05h29.31v-118.18h52.64v-26.85h-52.64v-91.76h71.37v-26.49h-100.68zM4075.42 3626.86h52.7v-26.84h-52.7v-91.76h71.29v-26.49h-100.58v263.28h104.11v-26.46h-74.82zM4214.65 3508.25h24.09c19.55 0 34.86 13.23 34.86 30.16v31.47c0 16.93-15.31 30.16-34.86 30.16h-24.09zm24.09-26.46h-53.44v263.24h29.35v-118.46h24.09c19.55 0 34.86 13.2 34.86 30.02v88.44h29.35v-88.44c0-16.61-8.36-32.17-23.14-43.35 14.6-10.66 23.14-26.6 23.14-43.36v-31.47c0-31.32-28.82-56.62-64.21-56.62M4375.17 3508.25h24.03c19.54 0 34.85 13.23 34.85 30.16v31.47c0 16.93-15.31 30.16-34.85 30.16h-24.03zm24.03-26.46h-53.41v263.24h29.38v-118.46h24.03c19.54 0 34.85 13.2 34.85 30.02v88.44h29.46v-88.44c0-16.61-8.43-32.17-23.18-43.35 14.54-10.66 23.18-26.6 23.18-43.36v-31.47c0-31.32-28.86-56.62-64.31-56.62M4533.49 3530.75c0-14.54 13.73-26.32 30.59-26.32 16.83 0 30.59 11.78 30.59 26.32v165.31c0 14.57-13.76 26.35-30.59 26.35-16.86 0-30.59-11.78-30.59-26.35zm30.59-52.74c-33.06 0-59.9 23.6-59.9 52.74v165.31c0 29.17 26.84 52.84 59.9 52.84 33.05 0 59.9-23.67 59.9-52.84v-165.31c0-29.14-26.85-52.74-59.9-52.74M4698.79 3718.57v-236.78h-29.32v263.24h100.26v-26.46zM3054.17 3478c-33.02 0-59.94 23.6-59.94 52.74v165.32c0 29.17 26.92 52.84 59.94 52.84 32.98 0 59.9-23.67 59.9-52.84v-89.26h-63.32v26.53h33.97v62.73c0 14.56-13.69 26.35-30.55 26.35-16.9 0-30.62-11.79-30.62-26.35v-165.32c0-14.53 13.72-26.28 30.62-26.28 16.86 0 30.55 11.75 30.55 26.28v36.37l29.35-2.96v-33.41c0-29.14-26.92-52.74-59.9-52.74" class="fil3"></path><path d="M3499.98 4080.31c-48.47 0-91.33 7.19-131.48 21.23-50.23 17.04-95.74 45.44-138.68 87.21-73.83 71.69-111.09 159.17-111.09 260.63 0 58.39 11.15 109.68 34.75 156.78 17.29 36.79 42.2 70.94 76.34 105.2 15.17 13.4 30.56 27.37 46.01 38.17 65.51 46.35 140.83 69.88 224.15 69.88 105.13 0 195.48-36.19 269.49-108.05 13.23-12.42 26.1-27.45 40.64-46.18 32.88-41.88 54.86-90.52 65.65-143.34 3.7-24.06 5.75-47.62 5.75-72.46 0-100.64-37.75-188.45-112.04-260.63-64.45-62.97-140.87-98.64-226.45-106.36-14.29-2.08-28.82-2.08-43.04-2.08m0 749.62c-85.37 0-163.02-23.85-230.33-71.48-15.77-12.03-31.57-25.96-46.6-39.58-35.7-35.49-61.1-70.73-79.2-107.98-23.81-48.65-35.7-101.46-35.7-161.51 0-104.59 38.49-194.73 114.44-268.18 43.39-42.51 91.55-72.42 142.56-89.6 41.17-14.47 85.37-21.7 134.83-21.7 14.47 0 29.53 0 44.56 2.65 87.17 7.76 165.42 44.23 232.16 108.65 76.38 74.09 115.15 164.54 115.15 268.18 0 25.26-2.08 49.67-6.42 74.02-10.37 54.82-33.38 104.52-67.1 147.99-14.92 19.19-27.94 34.71-41.63 47.16-76.38 74.05-169.23 111.38-276.72 111.38" class="fil0"></path><path d="M3499.98 4100.43c-45.15 0-85.93 6.6-124.74 20.07-47.94 16.3-90.84 43.36-131.34 82.69-69.67 67.63-105.02 150.46-105.02 246.21 0 55.6 10.62 103.96 32.56 147.74 16.51 34.93 40.18 67.45 72.6 99.94l4.66 3.95c12.77 11.47 26.03 23.08 38.66 32.04 62.16 43.95 133.78 66.28 212.62 66.28 99.56 0 185.42-34.57 255.41-102.48 11.61-11.01 23.53-24.52 38.74-44.06 30.8-39.16 51.54-84.46 61.91-135.08 3.53-23.28 5.33-46 5.33-68.33 0-95.08-35.63-177.87-105.98-246.21-60.92-59.44-133.03-93.41-214.2-100.85-13.9-1.91-27.17-1.91-41.21-1.91m0 749.58c-90.1 0-171.48-25.29-242-75.21-17.43-13.12-34.33-28.15-48.48-41.1-37.18-36.83-64.27-73.83-83.82-113.95-25.4-52-37.71-107.73-37.71-170.35 0-110.1 40.54-205.25 120.55-282.72 45.19-44.13 95.78-75.85 150.24-94.15 43.43-15.39 89.75-22.79 141.22-22.79 15.1 0 30.76 0 47.13 2.78 91.8 8.29 173.78 46.71 243.67 114.16 80.43 78.07 121.32 173.25 121.32 282.72 0 26.81-2.26 52.21-6.78 77.57-10.86 57.22-34.75 109.96-71.01 156.78-15.77 20.18-29.28 36.3-44.1 49.74-79.55 77.08-177.37 116.52-290.23 116.52" class="fil0"></path><path d="M3543.56 4255.29s-2.68-.64-3.99-1.63c-40.81-41.41-59.02-77.64-54.29-110.24 2.82-26.42 21.77-50.17 55.6-70.41 2.36-1.49 5.71-.46 7.27 1.58 1.3 2.54.49 5.72-1.77 7.23-30.87 18.38-48.19 39.87-50.73 63.19-3.91 28.92 13.48 63.11 51.47 101.35 2.08 2.15 2.08 5.82 0 7.83-.74.46-2.04 1.1-3.56 1.1" class="fil0"></path><path d="m3543.56 4275.42-4.34-.53c-2.61-.53-7.62-1.97-11.89-5.25l-2.08-1.77c-45.97-46.67-65.58-88.26-59.9-127.35 3.46-32.35 25.47-61.1 65.26-84.88 3.25-2.08 7.94-3.56 12.84-3.56 8.08 0 15.77 3.88 20.68 10.19l2.11 3.32c5.75 11.54 2.09 25.68-8.57 32.91-18.45 11.05-39.69 27.8-41.98 48.62-3.03 22.68 12.77 51.96 45.79 85.12 9.91 9.95 9.91 26.07 0 36.13l-3.95 3.14c-4.3 2.54-9.14 3.91-13.97 3.91M3662.54 4603.1h-.74c-2.86 0-4.98-2.57-4.66-5.64 5.12-55.46-4.9-94.83-30.34-117.58-25.29-23.81-67.59-31.12-124.78-21.27-3.06 1.16-5.57-.99-6.2-4.03 0-2.68 1.62-5.18 4.44-5.82 60.82-10.79 105.62-3 133.81 22.83 27.41 25.4 38.8 68.3 33.41 126.86-.29 2.5-2.58 4.65-4.94 4.65" class="fil0"></path><path d="M3662.54 4623.29h-.74c-6.95 0-13.62-3.03-18.31-8.15-4.76-5.26-7.16-12.45-6.39-19.68 4.45-48.48-3.52-82.38-23.77-100.58-20.78-19.51-57.37-24.84-106.9-16.51-13.93 3.42-27.97-6.07-30.44-20.25l-.35-3.56c0-12.56 8.82-23.25 20.81-25.55 67.98-12.1 118.22-2.57 151.27 27.73 32.49 30.06 45.9 78.32 39.87 143.69-1.59 13.02-12.53 22.86-25.05 22.86" class="fil0"></path><path d="M3501.07 4459.13s-2.89-.53-4.2-1.52c-36.65-43.99-51.47-84.34-44.27-119.62 7.26-35.1 37.07-66.71 88.58-92.01 2.86-1.87 5.68-.63 6.95 2.05 1.34 2.54.28 5.08-2.01 6.63-49.25 24.41-76.91 53.38-83.33 85.51-6.81 32.04 7.45 69.04 42.12 110.21 1.87 2.65 1.52 5.68-.24 7.83-.99.39-2.33.92-3.6.92" class="fil0"></path><path d="m3501.07 4479.39-3.35-.28c-3.71-.71-9.07-2.23-13.55-5.9l-2.72-2.64c-40.88-48.93-57.18-94.76-48.61-136.6 8.57-41.52 42.69-78.14 98.74-105.87 12.17-6.77 28.19-1.76 34.58 10.73 5.89 11.82 2.04 25.43-9.04 32.74l-2.04 1.27c-42.33 20.92-67.38 45.5-72.53 71.29-5.4 25.76 7.37 57.05 37.78 93.24l.99 1.27c7.16 9.95 6.63 23.32-1.27 32.67l-2.51 2.79-3.35 1.83c-2.96 1.52-7.62 3.46-13.12 3.46" class="fil0"></path><path d="M3880.78 4528.03c-2.11 0-4.19-1.06-4.65-3.1-62.2-143.9-171.1-231.95-333.66-269.91-3.1-.36-4.37-2.86-4.13-5.68.78-2.97 3.35-5.01 6.46-4.48 163.26 38.31 278.52 131.02 340.32 275.9 1.38 2.62 0 5.23-2.29 6.81-.81 0-1.52.46-2.05.46" class="fil0"></path><path d="M3880.78 4548.19c-10.9 0-20.17-6.6-23.6-16.23-59.26-136.53-163.37-220.66-318.48-257.18-12.95-2.11-21.66-13.54-20.47-27.23l.6-3.53c3.11-11.39 13.3-19.4 24.91-19.4l4.66.46c171.52 40.14 290.72 136.73 355.03 287.33 5.4 11.29 1.55 24.49-9.42 31.83l-5.11 3.49h-3.49c-1.34.21-2.93.46-4.63.46M3814.23 4673.52c-2.26 0-4.59-2.15-5.15-4.55-5.68-37.96-19.76-62.79-41.46-74.68-23.81-13.48-59.05-10.3-102.97 8.82-2.86 1.02-6 0-7.27-3.11-.81-2.54.28-5.18 3.11-6.74 47.41-20.74 85.33-22.79 112.57-8.29 24.09 13.48 39.83 40.89 46.35 82.27.53 2.65-1.55 5.19-4.16 6.28z" class="fil0"></path><path d="M3819.08 4693.62h-4.87c-11.85 0-22.33-8.64-24.9-20.53-4.83-32.17-15.31-52.39-31.36-60.99-18.35-10.48-47.91-6.81-85.27 9.45-4.09 1.55-7.13 2.08-10.12 2.08-10.55 0-19.83-6.28-23.82-16.01l-.53-1.52c-3.81-11.96 1.45-24.63 12.77-30.59l1.45-.7c52.28-22.86 96.87-25.33 130.18-7.59 30.3 16.94 49.31 49.5 56.72 96.95 2.3 11.18-4.62 23.31-16.75 28.08zM3190.17 4617.54c-13.16 0-27.13-1.09-42.44-3.88-3.14-.67-4.63-3.35-4.17-6.42.57-2.51 3.11-4.13 6.25-3.6 45.26 8.22 78.42 3.6 99.13-13.44 17.04-14.54 25.4-38.31 24.87-71.05 0-2.4 2.26-5.12 4.87-5.12 3.14 0 5.43 2.72 5.43 5.12.53 36.3-9.31 62.72-28.68 78.74-15.56 13.48-37.54 19.65-65.26 19.65" class="fil0"></path><path d="M3190.17 4637.72c-15.77 0-30.87-1.44-46.22-4.23-14.15-3.31-22.47-15.84-20.28-29.49 2.71-12.56 12.84-20.71 24.9-20.71l4.73.53c38.66 7.02 66.99 3.81 82.8-9.24 11.96-10.09 17.88-28.72 17.46-55.14 0-13.97 11.57-25.61 25.12-25.61 14.18 0 25.61 11.46 25.61 25.33.6 42.33-11.57 74.11-36.06 94.33-18.48 15.98-44.87 24.23-78.06 24.23" class="fil0"></path><path d="M3278.68 4524.42c-2.32 0-4.37-1.56-4.86-4.2-37.54-183.73-7.27-327.06 89.25-426.97 2.08-2.04 5.22-2.04 7.3 0 1.73 2.08 2.05 5.15 0 6.95-94.01 97.54-122.98 237.81-86.25 418.01.53 3.1-1.24 5.68-4.13 5.68-.56.53-.99.53-1.31.53" class="fil0"></path><path d="M3278.68 4504.16v20.25zm0 40.39c-12.31 0-22.43-8.5-24.76-20.56-38.74-189.94-6.95-339.69 94.61-444.79 5.08-5.08 11.47-7.69 18.14-7.69 6.74 0 13.09 2.61 17.92 7.52 5.47 6.03 7.79 12.94 7.27 19.68-.39 6.07-2.97 11.68-7.34 15.84-88.76 92.46-115.93 226.84-80.54 399.63 1.2 8.43-.81 15.91-5.58 21.52-3.21 3.67-7.47 6.35-12.17 7.51-2.15.85-4.69 1.34-7.55 1.34M3272.47 4758.89c-2.65 0-4.62-2.08-4.62-4.62-.29-3.14 1.58-5.22 4.41-5.22 146.93-8.29 276.96-60.5 386.68-154.77 2.36-2.04 5.71-1.58 7.55.53 1.72 2.3 1.23 5.19-.82 7.2-111.3 96.34-243.59 148.62-392.92 156.88z" class="fil0"></path><path d="M3273.31 4779.01h-.85c-13.37 0-24.34-10.62-24.83-23.88-.32-6.99 1.97-13.59 6.56-18.49 4.62-5.01 11.01-7.76 18.06-7.76 140.94-7.97 267.02-58.42 373.52-149.9 10.06-8.71 26.99-7.62 35.92 2.47 8.71 11.47 7.55 25.79-1.94 34.93-115.01 99.62-251.22 154.06-405.84 162.63zM3370.09 4548.74c-28.51 0-59.8-8.25-93.74-24.87-2.33-.99-3.6-4.06-2.01-6.74 1.27-2.54 4.09-3.53 6.67-2.54 94.51 46.64 164.71 25.9 215.44-63.22 1.52-2.61 4.62-3.24 7.44-1.97 2.26 1.41 3.14 4.58 1.84 7.19-35.17 61.63-80.72 92.15-135.64 92.15" class="fil0"></path><path d="M3370.09 4568.93c-31.51 0-65.97-9.03-102.63-26.89-5.68-2.61-10.58-8-12.8-14.81-2.19-6.67-1.38-14.01 2.15-20.18 5.4-10.41 19.61-15.91 31.54-11.29l1.62.71c84.14 41.52 143.26 25.15 188.91-55 6.74-11.54 21.17-15.95 33.2-10.55l3 1.62c10.69 7.16 14.5 21.31 8.78 32.92-39.4 68.96-90.91 103.47-153.77 103.47" class="fil0"></path><path d="M1823.32 2935.88c173.71 211.53-64.48 259.65-162.45 266.91-169.58 12.56-323.78-1.94-400.76-26-67.2-20.95-92.32-56.72-92.32-131.79 0-110.53 73.24-179.21 190.78-179.21 49.82 0 103.76 13.58 159.81 36.4 76.49 30.91 146.02 80.33 146.02 80.33s-7.66-73.94-40.25-152.82c-66.68-160.8-219.04-273.19-389.61-273.19-184.79 0-391.27 136.2-423.69 516.81l-332.1 213.96s-10.8 6.88-17.75 17.18c-5.22 7.77-7.48 17.22-7.48 27.27 0 9.92 2.26 19.48 7.48 27.2 6.95 10.27 17.75 17.18 17.75 17.18l332.1 214c32.42 380.61 238.9 516.71 423.69 516.71 170.57 0 322.93-112.32 389.61-273.12 32.59-78.77 40.25-152.79 40.25-152.79s-69.53 49.43-146.02 80.37c-56.05 22.75-109.99 36.37-159.81 36.37-117.54 0-190.78-68.69-190.78-179.14 0-75.11 25.12-110.92 92.32-131.84 76.98-24.09 231.18-38.59 400.76-26.03 97.97 7.3 303.39 32.17 191.63 265.78 186.83 41.1 211.17-169.65 189.97-394.69 21.2-225.1-32.17-437.05-219.15-395.85M5176.64 2935.88c-173.64 211.53 64.49 259.65 162.52 266.91 169.58 12.56 323.71-1.94 400.72-26 67.21-20.95 92.29-56.72 92.29-131.79 0-110.53-73.2-179.21-190.82-179.21-49.77 0-103.64 13.58-159.77 36.4-76.48 30.91-146.01 80.33-146.01 80.33s7.69-73.94 40.25-152.82c66.74-160.8 219-273.19 389.64-273.19 184.75 0 391.23 136.2 423.65 516.81l332.21 213.96s10.73 6.88 17.61 17.18c5.18 7.77 7.55 17.22 7.55 27.27 0 9.92-2.37 19.48-7.55 27.2-6.88 10.27-17.61 17.18-17.61 17.18l-332.21 214c-32.42 380.61-238.9 516.71-423.65 516.71-170.64 0-322.9-112.32-389.64-273.12-32.56-78.77-40.25-152.79-40.25-152.79s69.53 49.43 146.01 80.37c56.13 22.75 110 36.37 159.77 36.37 117.62 0 190.82-68.69 190.82-179.14 0-75.11-25.08-110.92-92.29-131.84-77.01-24.09-231.14-38.59-400.72-26.03-98.03 7.3-303.38 32.17-191.7 265.78-186.9 41.1-211.13-169.65-189.9-394.69-21.23-225.1 32.21-437.05 219.08-395.85M4058.33 5889.62c-100.12-140.26-160.8-241.86-193.29-323.78-89.25-225.42 57.68-293.19 162.21-307.27H2972.76c104.53 14.08 251.46 81.85 162.17 307.27-32.42 81.92-93.1 183.52-193.25 323.78l-9.88 12.56 516.01 3635.44c3.46 25.26 25.86 44.38 52.18 44.38 26.35 0 48.75-19.12 52.24-44.38l516.01-3635.44zM3938.18 942.76c-140.9-142.7-304.9-313.59-386.43-486.45-1.17-2.43-4.55-9.35-5.05-10.33-9.77-20.68-26.42-27.98-46.63-27.98h-.18c-20.18 0-36.9 7.3-46.64 27.98-.49.98-3.81 7.9-4.94 10.33-81.59 172.86-245.56 343.75-386.46 486.45-198.97 201.26-386.97 405.69-386.97 632.95 0 196.96 85.62 331.86 295.74 459.85 64.77 39.69 104.74 54.26 104.74 54.26s-14.54-52.92-19.55-97.76c-5.25-49.6-14.53-202.85 125.27-237.31 14.12-3.18 28.65-5.22 42.58-5.22 107.64 0 145.67 113.52 145.67 265.64 0 152.01-236.82 207.82-302.79 212.65l433.46.39 433.49-.39c-66.01-4.83-302.86-60.64-302.86-212.65 0-152.12 37.99-265.64 145.66-265.64 13.9 0 28.51 2.04 42.62 5.22 139.73 34.46 130.56 187.71 125.23 237.31-5.01 44.84-19.47 97.76-19.47 97.76s39.93-14.57 104.67-54.26c210.18-127.99 295.7-262.89 295.7-459.85 0-227.26-187.93-431.69-386.86-632.95" class="fil4"></path><path d="M5058.46 4288.46c0 388.8-325.09 631.68-627.21 692.82-80.89 16.37-167.89 24.06-251.88 31.43-74.54 6.6-151.56 13.48-226.66 26.29-147.25 25.22-270.69 73.83-378.11 148.16-42.47 29.32-74.61 59.41-74.61 59.41s-32.17-30.09-74.65-59.41c-107.35-74.33-230.86-122.94-378.11-148.16-75.03-12.81-152.15-19.69-226.62-26.29-84.03-7.37-170.96-15.06-251.85-31.43-302.08-61.14-627.24-304.02-627.24-692.82 0-230.61 62.48-354.79 128.66-486.2 62.72-124.7 127.64-253.68 127.64-454.06 0-259.11-107.39-442.91-187.96-544.37l490.04-484.05c153.28 94.05 316.12 141.61 485.17 141.61 232.17 0 418.36-91.12 514.92-150.28 96.59 59.16 282.71 150.28 514.88 150.28 169.08 0 331.86-47.56 485.24-141.61l489.98 484.05c-80.54 101.46-187.89 285.26-187.89 544.37 0 200.38 64.91 329.36 127.63 454.06 66.11 131.41 128.63 255.59 128.63 486.2m193.95-1425.47c20-16.12 36.16-25.75 40.54-51.79 3.14-18.55-4.8-36.3-18.07-47.76l.04-.14-45.4-44.28s-667.39-659.16-673.84-665.55c-8.72-8.61-20.82-13.61-33.91-14.14-12.38-.39-23.84 3.56-33.19 10.3l-42.58 31.18c-136.6 100.86-281.62 151.98-431.13 151.98-168.98-.04-308.47-67.06-384.07-110-80.51-45.72-130.67-97.12-130.81-97.29-.18.17-50.27 51.57-130.85 97.29-75.46 42.94-215.05 109.96-384.07 110-149.47 0-294.49-51.12-431.13-151.98 0 0-34.25-25.08-42.65-31.18-9.2-6.74-20.67-10.69-33.05-10.3-13.2.53-25.23 5.53-33.94 14.14-6.45 6.39-673.84 665.55-673.84 665.55l-45.37 44.28v.14c-13.23 11.46-21.2 29.21-18.02 47.76 4.37 26.04 20.49 35.67 40.46 51.79 19.51 15.77 36.51 30.62 44.77 38.81 45.12 44.94 176.92 197.24 176.92 446.4 0 146.09-45.55 236.65-103.33 351.26-71.65 142.63-152.93 304.17-152.93 589 0 238.09 91.72 454.94 265.22 627.2 144.21 143.16 342.93 248.71 545.25 289.56 93.45 18.95 186.76 27.2 277.07 35.14 73.13 6.53 142.31 12.21 208.03 23.92 294.11 52.1 491.46 297.46 491.46 297.46s197.34-245.36 491.35-297.46c65.79-11.71 135.01-17.39 208.14-23.92 90.34-7.94 183.62-16.19 277.07-35.14 202.35-40.85 401.07-146.4 545.25-289.56 173.46-172.26 265.22-389.11 265.22-627.2 0-284.83-81.24-446.37-152.96-589-57.75-114.61-103.3-205.17-103.3-351.26 0-249.16 131.76-401.46 176.99-446.4 8.15-8.19 25.26-23.04 44.66-38.81" style="fill:#cf142b;fill-rule:nonzero"></path><path d="m4515.13 2155.21-9.56 7.09c-153.99 113.49-319.12 171.31-490.54 171.31-144.25 0-290.23-41.42-434.05-123.16-31.15-17.57-58.42-36.05-81-52.95-22.54 16.9-49.78 35.38-81 52.95-143.79 81.74-289.84 123.16-433.99 123.16-171.41 0-336.62-57.82-490.53-171.31l-9.67-7.09-653.63 646.14s25.05 21.81 32.14 28.86c62.27 61.88 206.69 235.83 206.69 517.99 0 169.96-52.84 275.02-113.94 396.62-69.96 139-142.28 282.79-142.28 543.63 0 210.61 81.42 402.81 235.48 555.59 130.56 129.68 310.69 225.25 494.17 262.4 87.95 17.81 178.44 25.79 265.93 33.48l12.34 1.09c71.02 6.35 138.15 12.28 204.47 23.99 215.13 38.03 382.03 165.1 473.82 251.04 91.79-85.94 258.73-213.01 473.85-251.04 66.39-11.71 133.49-17.64 204.47-23.99l12.31-1.09c87.53-7.69 178.01-15.67 265.96-33.48 183.52-37.15 363.57-132.72 494.17-262.4 154.02-152.78 235.41-344.98 235.41-555.59 0-260.84-72.35-404.63-142.24-543.63-61.14-121.6-114.02-226.66-114.02-396.62 0-282.16 144.61-456.11 206.77-517.99 7.12-7.05 32.17-28.86 32.17-28.86zM3499.98 2319c4.87 2.82 9.73 5.72 14.64 8.4 164.29 93.38 332.63 140.69 500.41 140.69 168.63 0 331.09-46.85 484.09-139.7l481.33 475.75c-81.07 103.29-184.97 285.82-184.97 544.06 0 201.93 65.23 331.5 128.31 456.98 65.79 130.81 127.95 254.32 127.95 483.27 0 173.99-67.7 333.1-195.75 460.24-112.36 111.51-267.69 193.85-426.09 225.92-80.5 16.26-167 24.02-251.11 31.46l-12.52 1.03c-73.98 6.59-143.79 12.73-215.97 25.47-185.14 32.84-337.82 120.12-450.32 207.04-112.43-86.92-265.11-174.2-450.36-207.04-72.11-12.74-141.96-18.88-216.07-25.47l-12.67-1.06c-83.71-7.41-170.36-15.17-250.82-31.43-158.4-32.07-313.69-114.41-426.09-225.92-128.02-127.14-195.68-286.25-195.68-460.24 0-228.95 62.08-352.46 127.95-483.37 63.07-125.38 128.34-254.95 128.34-456.88 0-258.31-103.93-440.98-185.03-544.06l481.33-475.75c152.96 92.85 315.38 139.7 484.11 139.7 167.75 0 336.09-47.31 500.42-140.69 4.83-2.68 9.74-5.58 14.57-8.4" class="fil3"></path><path d="M1860.72 2800.51c6.56 5.89 13.44 12.1 16.86 15.45 63.89 63.53 212.66 242.53 212.66 532.24 0 174.8-53.87 281.76-116.14 405.58-68.93 137.02-140.12 278.52-140.12 534.67 0 205.14 79.41 392.33 229.48 541.34 127.81 126.9 304.24 220.52 483.98 256.86 86.71 17.57 176.53 25.5 263.31 33.16l12.66 1.16c71.65 6.32 139.17 12.28 206.31 24.2 205.07 36.27 366.89 149.76 470.25 243.53 103.4-93.77 265.22-207.26 470.29-243.53 67.24-11.92 134.62-17.88 205.95-24.2l12.67-1.16c87.2-7.66 176.98-15.59 263.73-33.16 179.64-36.34 356.06-129.96 483.94-256.86 150.11-149.01 229.48-336.2 229.48-541.34 0-256.15-71.26-397.65-140.12-534.6-62.37-123.89-116.2-230.85-116.2-405.65 0-289.71 148.8-468.71 212.72-532.31 3.42-3.39 10.3-9.49 16.9-15.38l-626.15-618.92c-156.24 114.23-323.88 172.23-498.15 172.23-147.71 0-297.11-42.33-443.97-125.8a778 778 0 0 1-71.09-45.51c-23 16.62-46.88 31.82-70.98 45.51-146.89 83.47-296.3 125.8-444 125.8-174.24 0-341.85-57.96-498.23-172.23zm1639.25 2643.11-13.72-12.84c-98.57-92.25-258.98-209.69-463.55-245.88-65.51-11.71-132.01-17.5-202.5-23.71l-12.63-1.13c-88.3-7.79-179.21-15.84-268.18-33.9-187.22-37.82-371.05-135.4-504.4-267.83-157.87-156.74-241.37-353.76-241.37-569.88 0-265.71 73.41-411.58 144.39-552.69 60.08-119.35 111.9-222.36 111.9-387.56 0-274.5-140.44-443.66-200.8-503.6-5.5-5.46-24.37-22.08-31.25-28.11l-16.3-14.32 681.28-673.39 23.57 17.18c150.56 111.16 311.54 167.47 478.58 167.47 140.68 0 283.24-40.47 424-120.44 26.99-15.31 53.52-32.63 78.92-51.61l12.06-9.07 12.07 9.07c25.5 18.98 52.03 36.3 78.88 51.61 140.79 79.97 283.45 120.44 424.11 120.44 166.97 0 328.04-56.31 478.54-167.4l23.57-17.25 681.32 673.39-16.37 14.32c-6.85 6.03-25.76 22.65-31.19 28.04-60.39 60.01-200.8 229.17-200.8 503.67 0 165.2 51.82 268.21 111.76 387.42 71.05 141.25 144.46 287.12 144.46 552.83 0 216.12-83.43 413.14-241.37 569.88-133.28 132.43-317.18 230.01-504.44 267.9-88.97 17.99-179.81 26.04-267.75 33.73l-12.7 1.23c-70.77 6.21-137.34 12-202.75 23.71-204.68 36.19-365.08 153.63-463.55 245.88z" class="fil3"></path></g></g><!-- source: https://football-logos.cc --></svg>