<svg xmlns="http://www.w3.org/2000/svg" viewBox="29.41 8.75 133.93 175.75"><!-- Source: https://football-logos.cc --><path d="M158.63 69.376c-1.47 4.455-12.944 10.692-18.323 8.196 13.393-.092 19.807-11.699 23.035-14.927-3.096-1.214-6.761 4.349-6.761 4.349 1.63-1.99-.482-12.236-.763-10.956-.282 1.278-2.591-.1-3.273-3.74-.679-3.642-10.344-14.948-12.607-6.86 11.47 5.362 1.385 21.499 1.385 21.499s-2.897-4.416-2.897-2.409c0 2.005-4.255 4.618-6.458 5.906s-9.54 3.846-10.19 7.462c-.65 3.617 7.213 4.975 7.213 5.885s-4.566 2.936-6.245 2.549c-1.683-.387-3.842-2.999-3.842-2.999s2.428-.097 2.428-.833c0-.737-4.981-7.986-3.62-7.355 1.356.629 5.198-1.658 4.797-2.06-.401-.4-5.233.593-5.233-1.017 4.068.291 2.834-.42 2.834-.42s-1.474-.886-1.606-2.69c-.452-6.062 5.583-6.095 5.936-6.447.355-.354 3.104 1.382 5.21-.726 2.111-2.108 4.975-.558 4.975-.558s1.096-2.306-.235-3.64c-1.333-1.332-7.573-1.301-7.573-1.301s.259-.871-2.594-1.448c-2.857-.578-5.698 1.903-9.324 1.128-3.05-.651-2.633 1.33-4.738-.955-1.11 3.141 1.294 2.292.638 3.539-2.09 3.963-4.527-.114-5.28 1.597-.756 1.71 2.578 4.889-.846 3.199-3.429-1.69-2.968-1.494-2.735.159.29 2.222 4.413 3.51 2.005 4.179-2.411.671-4.163-2.071-4.163-.751 0 3.489 2.67 4.012 2.67 4.012s.291.197-.957.62c-1.246.426-1.703-1.318-1.703-.207 0 1.935 1.14 3.258 1.14 3.258l-4.033.738-5.071-.738s1.14-1.323 1.14-3.258c0-1.111-.458.633-1.703.208-1.247-.424-.957-.62-.957-.62s2.668-.524 2.668-4.013c0-1.32-1.751 1.422-4.16.75-2.41-.668 1.716-1.956 2.004-4.178.233-1.653.692-1.849-2.734-.159s-.091-1.49-.846-3.199c-.755-1.71-3.192 2.366-5.28-1.597-.659-1.247 1.747-.398.637-3.539-2.105 2.286-1.688.304-4.739.955-3.627.775-6.467-1.706-9.322-1.128-2.855.577-2.595 1.448-2.595 1.448s-6.24-.031-7.572 1.3c-1.332 1.335-.237 3.641-.237 3.641s2.866-1.55 4.974.558 4.858.372 5.212.726c.353.352 6.388.385 5.937 6.448-.134 1.803-1.607 2.69-1.607 2.69s-1.234.71 2.834.419c0 1.61-4.832.617-5.233 1.018-.4.4 3.44 2.688 4.798 2.059 1.36-.631-3.62 6.618-3.62 7.355 0 .736 2.427.833 2.427.833s-2.16 2.612-3.841 2.999c-1.68.387-6.247-1.638-6.247-2.55 0-.909 7.866-2.267 7.216-5.884-.65-3.616-7.989-6.174-10.192-7.462s-6.458-3.901-6.458-5.906c0-2.007-2.898 2.409-2.898 2.409S41.347 50.8 52.818 45.439c-2.265-8.089-11.928 3.217-12.608 6.858s-2.99 5.019-3.272 3.741c-.28-1.28-2.393 8.965-.765 10.956 0 0-3.663-5.563-6.76-4.349 3.23 3.228 9.642 14.835 23.036 14.927-5.379 2.496-16.852-3.741-18.323-8.196-1.471-4.456-4.428 15.6 9.832 14.78.742 1.426-8.926 1.824-8.048 9.394 4.243-.547 7.355-3.613 8.547-1.576 1.191 2.033-4.747 6.434-4.747 7.486 0 1.053 10.419-2.438 9.109-.724s-3.63 4.08-3.63 5.32c0 1.237 6.035-2.203 6.035-.96 0 1.245-7.263 5.782-7.263 5.782 5.976 1.235 7.913-5.131 8.475-4.57.562.562-1.496 5.085-3.895 7.483s3.95 1.149 8.138-3.038c2.062-.652.004 5.155-1.345 7.021.718.718 6.799-4.395 6.799-4.395s-.797 4.148-1.452 5.651c1.336 0 2.312-6.06 2.907-6.06s-.125 1.6.284 2.01c.409.407 1.884-2.454 2.537-2.413s3.898 8.114 3.898 8.114-1.816 1.245-1.306 3.203c.51 1.956 1.572.87 2.518.837.947-.033-1.692.818-.296 2.597s2.727.404 2.727.404-.887 2.314-.076 3.536 4.242-.644 4.553-2.157c.311-1.514 3.954 3.868.365 4.76-7.834-.054-1.62 5.083-.417 4.931 1.204-.151.045-1.964 1.736-.768 2.282 5.013 4.41-4.75 5.17-4.75s-1.322 8.386-4.564 8.386c-2.256 0 1.01-2.626-9.207-.786-1.677.8.903 2.973.723 3.816-.18.842-2.153 1.261-2.153 1.83.152 1.178 2.156 3.046 2.156 3.046s-6.186-.618-6.063-5.684 6.792-5.46 6.792-7.52-4.993-7.86-11.587-.191c-4.376 5.186 1.776 12.649 1.776 13.933-3.777.387-6.274 4.748-6.274 6.317s2.835 1.654 2.835 1.654-1.338 3.786 1.408 3.786c3.112 0 .863-6.297 8.434-7.797s12.46-9.227 13.545-7.858c2.821 2.822-18.897 8.612-18.138 18.715.481 3.25 2.335 1.262 2.335 1.262s2.055 6.497 4.582 6.497.238-2.766.238-2.766 7.459.933 5.964-.98-6.504-2.321-3.746-7.905 11.983-15.486 11.983-15.486-5.416 16.794-.256 18.288c5.161 1.495.059-3.641.837-8.938.778-5.296 2.637-8.142 3.77-8.142s-1.285 3.142-.223 2.84c1.062-.3 1.387-3.375 3.16-5.147 1.772-1.773-2.724 12.845-4.763 13.632-2.04.788.524 3.19 5.199 1.747 1.049 1.05-2.106 6.27-9.544 6.593-.57 2.136 1.436 2.619 3.1 2.619 1.663 0-.182 1.572.872 2.075s1.948-1.172 3.323-1.172-2.374 4.582-.946 7.624c.843 2.765 1.351-2.077 2.711-2.077s.127 8.37 2.768 11.011h.097c2.644-2.642 1.409-11.011 2.77-11.011 1.358 0 1.868 4.842 2.712 2.077 1.427-3.043-2.323-7.624-.946-7.624 1.375 0 2.269 1.676 3.324 1.172 1.054-.503-.794-2.075.87-2.075 1.663 0 3.67-.483 3.1-2.619-7.44-.323-10.593-5.543-9.543-6.593 4.676 1.443 7.238-.96 5.199-1.747s-6.536-15.405-4.763-13.631c1.772 1.77 2.096 4.846 3.16 5.147 1.06.301-1.357-2.841-.224-2.841s2.992 2.846 3.772 8.142c.776 5.297-4.326 10.433.836 8.939 5.162-1.495-.255-18.29-.255-18.29s9.226 9.903 11.981 15.487c2.759 5.584-2.25 5.992-3.746 7.905-1.493 1.913 5.966.98 5.966.98s-2.29 2.766.235 2.766c2.529 0 4.584-6.497 4.584-6.497s1.853 1.988 2.335-1.262c.759-10.103-20.96-15.893-18.138-18.715 1.085-1.37 5.974 6.359 13.546 7.858 7.569 1.5 5.322 7.797 8.434 7.797 2.746 0 1.407-3.786 1.407-3.786s2.835-.086 2.835-1.654c0-1.57-2.496-5.93-6.276-6.317 0-1.284 6.152-8.747 1.779-13.933-6.595-7.668-11.588-1.87-11.588.191s6.67 2.454 6.793 7.52-6.064 5.684-6.064 5.684 2.005-1.868 2.157-3.045c0-.57-1.973-.989-2.153-1.83-.181-.844 2.398-3.017.723-3.817-10.218-1.84-6.951.786-9.208.786-3.24 0-5.324-8.387-4.564-8.387.761 0 2.888 9.764 5.17 4.75 1.692-1.195.53.618 1.736.77 1.202.15 7.418-4.986-.417-4.931-3.588-.893.055-6.275.364-4.76.313 1.512 3.743 3.378 4.554 2.156s-.075-3.537-.075-3.537 1.332 1.375 2.726-.403c1.396-1.78-1.243-2.63-.296-2.597.947.034 2.007 1.119 2.519-.837.508-1.958-1.307-3.203-1.307-3.203s3.246-8.072 3.899-8.114c.653-.04 2.127 2.82 2.537 2.412.407-.408-.313-2.008.285-2.008.592 0 1.567 6.06 2.905 6.06-.656-1.504-1.451-5.653-1.451-5.653s6.08 5.114 6.799 4.396c-1.351-1.866-3.41-7.673-1.345-7.021 4.186 4.187 10.536 5.435 8.137 3.038-2.399-2.398-4.456-6.92-3.895-7.483.563-.562 8.181 6.7 8.475 4.57-1.759-2.17-7.262-4.537-7.262-5.781s6.035 2.196 6.035.959c0-1.24-2.32-3.606-3.632-5.32-1.309-1.714 9.11 1.777 9.11.724s-5.941-5.453-4.746-7.486c1.189-2.037 4.301 1.03 8.546 1.576.879-7.57-8.789-7.968-8.047-9.395 14.26.821 11.302-19.235 9.831-14.78" style="fill:#1b1918;fill-rule:evenodd" data-source="https://football-logos.cc"></path><path d="M127 56.583s-1.214 4.136-2.852 4.67c-1.641.536.684 1.026.684 1.026s1.858.781 3.229.306 1.377-1.498 2.976-1.948c1.826-.513 3.417.36 3.417.36.487-.738 2.399-5.039-7.455-4.414z" style="fill:#fff;fill-rule:evenodd;stroke:#1b1918;stroke-width:.21600001;stroke-linecap:butt;stroke-linejoin:miter;stroke-dasharray:none"></path><path d="M125.509 58.74c-2.347-.382-2.145.504-3.027.504-.884 0-1.6-.401-1.6-.897 0-.495.716-.9 1.6-.9.882 0 3.516 1.372 3.027 1.292zM65.814 56.583s1.212 4.136 2.852 4.67c1.64.536-.685 1.026-.685 1.026s-1.859.781-3.23.306c-1.372-.475-1.375-1.498-2.975-1.948-1.826-.513-3.417.36-3.417.36-.488-.738-2.399-5.039 7.455-4.414z" style="fill:#fff;fill-rule:evenodd;stroke:#1b1918;stroke-width:.21600001;stroke-linecap:butt;stroke-linejoin:miter;stroke-dasharray:none"></path><path d="M67.304 58.74c2.347-.382 2.145.504 3.027.504.884 0 1.6-.401 1.6-.897 0-.495-.716-.9-1.6-.9-.882 0-3.516 1.372-3.027 1.292zM124.384 103.265c0 15.967-12.943 28.908-28.908 28.908S66.57 119.232 66.57 103.265c0-15.964 12.942-28.907 28.907-28.907s28.908 12.943 28.908 28.907z" style="fill:#fff;fill-rule:evenodd;stroke:#1b1918;stroke-width:.21600001;stroke-linecap:butt;stroke-linejoin:miter;stroke-dasharray:none"></path><path d="M124.384 103.265c0 15.967-12.943 28.908-28.908 28.908s-28.907-12.94-28.907-28.908c0-15.964 12.942-28.907 28.907-28.907s28.908 12.943 28.908 28.907z" style="fill:none;stroke:#1b1918;stroke-width:.21600001;stroke-linecap:butt;stroke-linejoin:miter;stroke-dasharray:none"></path><path d="M114.16 103.112c0 10.533-8.538 19.07-19.07 19.07-10.535 0-19.072-8.537-19.072-19.07s8.537-19.07 19.072-19.07c10.532 0 19.07 8.537 19.07 19.07z" style="fill:none;stroke:#1b1918;stroke-width:.21600001;stroke-linecap:butt;stroke-linejoin:miter;stroke-dasharray:none"></path><path d="M97.96 93.25v-6.907h.352v6.982z" style="fill:#1b1918;fill-rule:evenodd"></path><path d="M98.391 86.364s1.464-.391 2.01.784c.547 1.169 2.766 1.199 3.217 1.199 0 0-.041.304-.54.803s-.185 1.307.707 1.48c0 0-1.304.742-3.915-.825-1.375-.824-1.418-.146-1.479-.087z" style="fill:#c3c5c6;fill-rule:evenodd;stroke:#1b1918;stroke-width:.21600001;stroke-linecap:butt;stroke-linejoin:miter;stroke-dasharray:none"></path><path d="M98.391 88.68s1.556-.3 1.968.516c.415.822 2.325 1.29 2.662 1.008 0 0 .338.379.764.427 0 0-1.304.74-3.915-.826-1.375-.824-1.418-.146-1.479-.087zM98.391 86.36s1.323-.346 1.902.612c.658 1.195 1.689 1.27 3.325 1.375 0 0-.153.455-.237.455 0 0-2.152.178-3.511-1.32-.727-.57-1.418-.146-1.479-.085zM94.495 111.724c.513-.09 1.647.733.538 2.376z" style="fill:#1b1918;fill-rule:evenodd;stroke:#1b1918;stroke-width:.21600001;stroke-linecap:butt;stroke-linejoin:miter;stroke-dasharray:none"></path><path d="M94.495 111.724c.513-.09 1.647.733.538 2.376z" style="fill:none;stroke:#1b1918;stroke-width:.21600001;stroke-linecap:butt;stroke-linejoin:miter;stroke-dasharray:none"></path><path d="M91.014 93.367h.626v-4.91h-.626z" style="fill:#1b1918;fill-rule:evenodd"></path><path d="M94.8 89.179c0-.254-.17-.465-.408-.556.003-.016.01-.031.01-.047a.645.645 0 0 0-.411-.611.47.47 0 0 0 .177-.367.464.464 0 0 0-.452-.477c-.009 0-.015.004-.025.004a.86.86 0 0 0-.466-.75 1.22 1.22 0 0 0-.43-.75.82.82 0 0 0-.755-.496c-.36 0-.66.232-.77.554q-.016.017-.031.038c-.046-.008-.089-.025-.139-.025-.41 0-.737.25-.82.577-.222.065-.416.195-.515.402-.59.03-1.054.491-1.096 1.075a.67.67 0 0 0-.642.666c0 .166.067.313.168.431a.9.9 0 0 0-.11.409c0 .517.419.939.938.939.161 0 .305-.05.437-.123.193.178.447.293.73.293.088 0 .171-.019.253-.041.185.324.52.553.919.553.229 0 .433-.079.6-.2.121.121.287.2.476.2a.636.636 0 0 0 .631-.521c.02 0 .034.009.052.009.08 0 .15-.03.23-.047a.57.57 0 0 0 .381.16c.34 0 .613-.299.613-.668 0-.018-.01-.033-.013-.051.268-.077.467-.304.467-.58z" style="fill:#1b1918;fill-rule:evenodd;stroke:#1b1918;stroke-width:.21600001;stroke-linecap:butt;stroke-linejoin:miter;stroke-dasharray:none"></path><path d="M117.727 125.24s-1.704-2.462-2.506-1.646c-.801.814-2.558 1.341-.969 3.112 1.588 1.77 3.714 2.814 3.923 2.478s1.069-2.3-.448-3.944z" style="fill:#fff;fill-rule:evenodd;stroke:#1b1918;stroke-width:.21600001;stroke-linecap:butt;stroke-linejoin:miter;stroke-dasharray:none"></path><path d="M124.554 103.248c0 8.07-3.272 15.376-8.56 20.664s-12.595 8.56-20.664 8.56-15.376-3.271-20.665-8.56c-5.288-5.288-8.559-12.594-8.559-20.664s3.271-15.375 8.56-20.664c5.288-5.288 12.594-8.56 20.664-8.56 8.069 0 15.375 3.272 20.664 8.56 5.288 5.289 8.56 12.595 8.56 20.664m-9.006 20.217a28.5 28.5 0 0 0 8.374-20.217c0-7.895-3.201-15.044-8.375-20.217-5.174-5.174-12.322-8.374-20.217-8.374s-15.044 3.2-20.217 8.374c-5.174 5.173-8.375 12.322-8.375 20.217 0 7.896 3.2 15.044 8.374 20.217 5.174 5.174 12.322 8.375 20.218 8.375 7.895 0 15.044-3.2 20.218-8.375" style="fill:#9c9e9f;fill-rule:evenodd"></path><path d="M117.638 125.3c-.004-.006-1.628-2.355-2.34-1.63-.175.177-.39.34-.607.502-.167.126-.336.253-.484.385-.522.468-.802 1.044.125 2.078.71.79 1.529 1.435 2.232 1.873a6 6 0 0 0 1.054.54c.249.09.417.12.466.079.128-.206.508-1.044.395-2.038a3.1 3.1 0 0 0-.831-1.776l-.005-.005zm-2.494-1.782c.863-.878 2.552 1.491 2.666 1.653a3.3 3.3 0 0 1 .883 1.894c.12 1.057-.289 1.956-.426 2.176a.2.2 0 0 1-.037.044l-.001.001c-.11.099-.356.083-.684-.036a6 6 0 0 1-1.095-.558 10.9 10.9 0 0 1-2.278-1.914c-1.05-1.17-.717-1.835-.108-2.382.156-.14.328-.269.498-.397.21-.158.42-.315.582-.48z" style="fill:#1b1918;fill-rule:evenodd"></path><path d="M119.98 122.003s-1.848-2.295-2.608-1.458c-.76.835-2.499 1.442-.804 3.073 1.691 1.631 3.883 2.526 4.077 2.188.192-.338.949-2.29-.666-3.803z" style="fill:#fff;fill-rule:evenodd;stroke:#1b1918;stroke-width:.21600001;stroke-linecap:butt;stroke-linejoin:miter;stroke-dasharray:none"></path><path d="M119.896 122.072c-.005-.006-1.771-2.196-2.444-1.455a5.4 5.4 0 0 1-.584.523c-.189.154-.38.31-.537.472-.447.465-.627 1.025.312 1.928a10.7 10.7 0 0 0 2.054 1.537c.49.282.94.485 1.285.596.31.1.52.13.57.079.118-.208.452-1.04.285-1.995-.096-.55-.361-1.14-.932-1.676l-.006-.006zm-2.604-1.6c.83-.913 2.688 1.36 2.767 1.458.606.57.887 1.202.99 1.79.178 1.02-.183 1.916-.31 2.14a.2.2 0 0 1-.03.04h-.001c-.111.116-.4.104-.792-.022a7.3 7.3 0 0 1-1.326-.614 11 11 0 0 1-2.096-1.568c-1.07-1.029-.848-1.683-.318-2.233.167-.174.363-.333.556-.49.204-.166.405-.33.56-.5m3.26 5.28-.001.002z" style="fill:#1b1918;fill-rule:evenodd"></path><path d="M122.335 118.9s-2.016-2.258-2.762-1.364c-.745.891-2.51 1.598-.684 3.186s4.131 2.396 4.315 2.04c.182-.353.869-2.39-.87-3.862z" style="fill:#fff;fill-rule:evenodd;stroke:#1b1918;stroke-width:.21600001;stroke-linecap:butt;stroke-linejoin:miter;stroke-dasharray:none"></path><path d="M122.254 118.971c-.005-.006-1.931-2.166-2.598-1.366a5.6 5.6 0 0 1-.577.562c-.192.17-.387.343-.544.524-.431.496-.579 1.076.425 1.95a11 11 0 0 0 2.127 1.437 7.6 7.6 0 0 0 1.403.577c.339.093.565.116.619.058v-.001c.11-.217.416-1.086.198-2.058-.126-.558-.427-1.151-1.042-1.671l-.006-.005zm-2.764-1.505c.8-.956 2.796 1.22 2.92 1.357.652.554.973 1.187 1.107 1.784.233 1.037-.098 1.973-.217 2.204v.001a.2.2 0 0 1-.028.04v.001c-.11.125-.416.125-.839.01a7.8 7.8 0 0 1-1.445-.593c-.697-.361-1.47-.858-2.17-1.467-1.139-.991-.955-1.669-.446-2.254.165-.19.366-.368.564-.544.201-.178.401-.356.554-.539zm3.619 5.247v-.001m0 0" style="fill:#1b1918;fill-rule:evenodd"></path><path d="M74.87 125.025s1.904-2.528 2.765-1.668c.86.86 2.771 1.436 1.005 3.25-1.766 1.813-4.105 2.861-4.329 2.509-.224-.351-1.127-2.405.559-4.09z" style="fill:#fff;fill-rule:evenodd;stroke:#1b1918;stroke-width:.21600001;stroke-linecap:butt;stroke-linejoin:miter;stroke-dasharray:none"></path><path d="M74.87 125.025s1.904-2.528 2.765-1.668c.86.86 2.771 1.436 1.005 3.25-1.766 1.813-4.105 2.861-4.329 2.509-.224-.351-1.127-2.405.559-4.09z" style="fill:none;stroke:#1b1918;stroke-width:.21600001;stroke-linecap:butt;stroke-linejoin:miter;stroke-dasharray:none"></path><path d="M72.533 121.734s1.843-2.483 2.682-1.643c.84.84 2.7 1.4.99 3.183-1.712 1.782-3.982 2.817-4.201 2.473-.22-.346-1.104-2.355.528-4.013z" style="fill:#fff;fill-rule:evenodd;stroke:#1b1918;stroke-width:.21600001;stroke-linecap:butt;stroke-linejoin:miter;stroke-dasharray:none"></path><path d="M72.533 121.734s1.843-2.483 2.682-1.643c.84.84 2.7 1.4.99 3.183-1.712 1.782-3.982 2.817-4.201 2.473-.22-.346-1.104-2.355.528-4.013z" style="fill:none;stroke:#1b1918;stroke-width:.21600001;stroke-linecap:butt;stroke-linejoin:miter;stroke-dasharray:none"></path><path d="M70.132 119.15s1.638-2.259 2.379-1.49c.74.767 2.384 1.283.865 2.902s-3.533 2.557-3.725 2.243-.97-2.148.481-3.655z" style="fill:#fff;fill-rule:evenodd;stroke:#1b1918;stroke-width:.21600001;stroke-linecap:butt;stroke-linejoin:miter;stroke-dasharray:none"></path><path d="M70.132 119.15s1.638-2.259 2.379-1.49c.74.767 2.384 1.283.865 2.902s-3.533 2.557-3.725 2.243-.97-2.148.481-3.655z" style="fill:none;stroke:#1b1918;stroke-width:.21600001;stroke-linecap:butt;stroke-linejoin:miter;stroke-dasharray:none"></path><path d="M124.82 35.63c5.659-7.721-6.365-15.502-13.181-12.664-1.66-3.389-8.505-5.29-12.594-2.494 1.168-.802.402-2.447-.668-1.908 1.686-2.157.44-4.153-1.196-4.745v-2.036h1.122v-1.456h-1.236v-1.58h-1.37v1.58h-1.235v1.456h1.115v2.036c-1.633.592-2.879 2.588-1.19 4.745-1.077-.539-1.841 1.106-.67 1.908-4.092-2.796-10.934-.895-12.599 2.494-6.808-2.838-18.845 4.943-13.179 12.664-.248.884.268 1.162-.476 1.757-.241.248-.313.595-.491 1.135 1.283.055 3.033 1.215 3.826 2.303-.517 1.132.49 1.753 1.033 1.379 1.776.844 2.092 2.896 3.913 3.489.14.303-.137.772.14.994l1.28.693c.103.266-.45 1.01-.5 1.331l1.664.896.183.443c-.788 0-1.346 1.189-.335 1.413 5.935.641 11.982.96 18.203 1.013 6.225-.053 12.264-.372 18.205-1.013 1.009-.224.452-1.413-.337-1.413l.184-.443 1.662-.896c-.048-.32-.602-1.065-.5-1.331l1.287-.693c.274-.222 0-.691.13-.994 1.828-.593 2.144-2.645 3.918-3.489.538.374 1.549-.247 1.034-1.379.792-1.088 2.542-2.248 3.824-2.303-.177-.54-.252-.887-.493-1.135-.738-.595-.229-.873-.473-1.757m-.259-.469c-.808.126-.72-.793-.334-1.334.672-.968 1.617-2.521 1.277-4.25.59 1.773.5 3.555-.943 5.584m-11.154-11.218c1.928-.525 4.669.186 7.02 1.411 2.244 1.384 5.57 3.94 2.795 7.382-2.629-2.122-9.437-2.782-12.766-2.266-.558.177 4.151-4.773 1.674-6.103.084-.085.734-.424 1.277-.424m-14.291-1.714c3.603-3.488 15.45-.567 10.5 7.048-3.5-1.783-5.553-2.672-10.274-2.964-.201-1.247.04-2.726-.226-4.084m-5.693 4.084c-4.718.292-6.766 1.18-10.266 2.964-4.953-7.615 6.896-10.536 10.492-7.048-.265 1.358-.017 2.837-.226 4.084m-11.531 3.685c-5.38-1.883-9.73.616-12.362 2.738-2.765-3.442.56-5.998 2.804-7.382 2.347-1.225 5.086-1.936 7.018-1.411.192.151 1.415.213 1.576.334-1.01 1.944-.443 4.955.964 5.721m-14.637-.421c-.34 1.729.606 3.282 1.276 4.25.388.541.473 1.46-.331 1.334-1.449-2.029-1.533-3.811-.945-5.584m.304 8.528c.794-1.464 1.827-1.117 2.684-.322.175-.172.492-.467.577-.795.97.967.97 2.574.253 3.418-.587-.721-2.28-2.176-3.514-2.301m3.514 2.301c.45-.788 4.22-1.01 4.826-.788-.268.37-2.891 3.212-3.772 2.745-.087-.47-.757-1.751-1.054-1.957m43.037 9.076c-.09.25-.137.347-.287.373-5.63-1.433-11.544-1.851-17.444-1.828-5.898-.023-11.815.395-17.44 1.828-.151-.026-.2-.122-.288-.373l1.055-1.309c0-.1-.026-.198-.114-.297l-1.86-.597v-.191c5.31-1.493 10.543-2.034 15.871-2.297.871 0 1.752.015 2.776.015 1.025 0 1.905-.015 2.776-.015 5.33.263 10.565.804 15.875 2.297v.19l-1.865.598a.41.41 0 0 0-.114.297zm.412 1.305c-5.941.55-11.79.817-18.143.995-6.352-.178-12.203-.445-18.142-.995 5.399-1.8 13.053-2.2 18.142-2.2 5.091 0 12.741.4 18.143 2.2m1.956-4.463c-.687.075-.73.337-.835.363-6.369-1.453-12.534-2.545-19.264-2.467-3.364-.04-6.588.214-9.769.66a9 9 0 0 1-1.108.161c-2.486.382-4.95.879-7.444 1.435-.15.065-.32.104-.497.11-.148.035-.299.068-.444.101-.105-.026-.92-.414-.92-.414l.295-.096-.617-.97s-.782-.498-1.233-1.086c2.27 1.263 2.964-.921 3.255-1.587 1.519 1.786 5.134 1.69 5.356-2.293-.07-.159-4.314-1.08-4.778-1.4.425-.498 2.751-1.943 3.489-1.851-.455-1.208.421-4.254.421-4.254s1.679 2.862 1.653 3.976c.735-.406 3.298.178 3.836.383-.25.584-3.952 2.78-3.968 3.03 1.522 2.207 4.608 3.524 5.95.068 2.1 3.189 5.202 1.367 6.04-.923-.033-.254-4.916-1.984-5.276-2.478.336-.69 3.422-2.003 4.338-1.778-.342-.815 1.426-6.405 1.426-6.405L95 31.7l-1.482-1.729c1.148-3.383-.208-7.689 1.911-10.411h1.907c2.11 2.722.77 7.028 1.91 10.411l-1.481 1.729-1.38-3.09s1.682 5.604 1.274 6.398c.996-.218 4.151 1.094 4.49 1.785-.356.494-5.3 2.256-5.325 2.353.769 2.347 3.938 4.298 6.085 1.048 1.339 3.464 4.437 2.13 5.947-.079-.012-.226-3.717-2.435-3.96-3.02.54-.204 3.214-.657 3.843-.125-.032-1.217 1.643-4.233 1.643-4.233s.91 3.038.483 4.275c.679-.108 2.994 1.332 3.422 1.83-.464.32-4.623 1.496-4.745 1.797.435 3.59 3.856 3.62 5.316 1.896.294.666.989 2.85 3.259 1.587-1.883 1.275-1.106 2.054-1.639 2.203m4.45-4.12c-.882.467-3.802-2.216-4.067-2.586.604-.222 4.376 0 4.826.788-.297.206-.674 1.326-.759 1.798m.759-1.798c-.72-.844-.72-2.451.246-3.418.091.328.407.623.585.795.856-.795 1.886-1.142 2.682.322-1.24.125-2.927 1.58-3.513 2.301m-13.96 5.928-2.954-.418c-.347-.045-.656.213-.703.596l-.032.344c-.047.376.183.707.532.764l2.958.418c.343.043.651-.215.691-.595l.038-.349c.049-.372-.191-.708-.53-.76m-9.78-.641-2.98.118c-.347.018-.614.327-.594.71l.01.34c.01.388.297.68.646.663l2.964-.119c.35-.007.616-.317.609-.698l-.02-.35c-.004-.381-.29-.67-.634-.664m-9.96.223-2.951.418c-.34.052-.587.388-.536.76l.045.349c.04.38.342.638.691.595l2.953-.418c.35-.057.582-.388.53-.764l-.027-.344c-.055-.383-.357-.641-.704-.596" style="fill:#67b738;fill-rule:evenodd"></path><path d="M96.384 28.61 95 31.698l-1.482-1.729c1.148-3.383-.208-7.689 1.911-10.411h1.907c2.11 2.722.77 7.028 1.91 10.411l-1.481 1.729zm-5.764 8.182c.336-.69 3.422-2.003 4.338-1.778-.342-.815 1.426-6.405 1.426-6.405s1.683 5.604 1.275 6.398c.996-.218 4.151 1.094 4.49 1.785-.356.494-5.3 2.256-5.325 2.353.769 2.347 3.938 4.298 6.085 1.048 1.339 3.464 4.437 2.13 5.947-.079-.012-.226-3.717-2.435-3.96-3.02.54-.204 3.214-.657 3.843-.125-.032-1.217 1.643-4.233 1.643-4.233s.91 3.038.483 4.275c.679-.108 2.994 1.332 3.422 1.83-.464.32-4.623 1.496-4.745 1.797.435 3.59 3.856 3.62 5.316 1.896.294.666.989 2.85 3.259 1.587-1.883 1.275-1.106 2.054-1.639 2.203-.687.075-.73.337-.835.363-6.369-1.453-12.534-2.545-19.264-2.467-3.364-.04-6.588.214-9.769.66a9 9 0 0 1-1.108.161c-2.486.382-4.95.879-7.444 1.435-.15.065-.32.104-.497.11l-.444.101c-.105-.026-.92-.414-.92-.414l.295-.096-.618-.97s-.78-.498-1.232-1.086c2.27 1.263 2.964-.921 3.255-1.587 1.519 1.786 5.134 1.69 5.356-2.293-.07-.159-4.314-1.08-4.778-1.4.425-.498 2.751-1.943 3.489-1.851-.455-1.208.421-4.254.421-4.254s1.679 2.862 1.653 3.976c.735-.406 3.298.178 3.836.383-.25.584-3.952 2.78-3.968 3.03 1.522 2.207 4.608 3.524 5.95.068 2.1 3.189 5.202 1.367 6.04-.923-.033-.254-4.916-1.984-5.276-2.478m8.535 7.999c5.33.263 10.565.804 15.875 2.297v.19l-1.865.598a.41.41 0 0 0-.114.297l1.059 1.309c-.09.25-.137.347-.287.373-5.63-1.433-11.544-1.851-17.444-1.828-5.898-.023-11.815.395-17.44 1.828-.151-.026-.2-.122-.289-.373l1.056-1.309c0-.1-.026-.198-.114-.297l-1.86-.597v-.191c5.31-1.493 10.543-2.034 15.871-2.297.871 0 1.752.015 2.776.015 1.025 0 1.905-.015 2.776-.015m-27.028-2.428c-.087-.47-.757-1.751-1.054-1.957-.587-.721-2.28-2.176-3.514-2.301.794-1.464 1.827-1.117 2.684-.322.175-.172.492-.467.577-.795.93.928.968 2.446.336 3.312.709-.702 4.165-.894 4.743-.682-.268.37-2.891 3.212-3.772 2.745m42.304 7.244 1.662-.896c-.048-.32-.602-1.065-.5-1.331l1.287-.693c.274-.222 0-.691.13-.994 1.818-.59 2.14-2.624 3.89-3.475-.914.398-3.777-2.234-4.039-2.6.576-.212 4.029-.02 4.741.68-.633-.867-.595-2.383.331-3.31.091.328.407.623.585.795.856-.795 1.886-1.142 2.682.322-1.24.125-2.927 1.58-3.513 2.301-.297.206-.674 1.326-.759 1.798.538.374 1.549-.247 1.034-1.379.792-1.088 2.542-2.248 3.824-2.303-.177-.54-.252-.887-.493-1.135-.738-.595-.229-.873-.473-1.757 5.659-7.721-6.365-15.502-13.181-12.664-1.66-3.389-8.505-5.29-12.594-2.494 1.168-.802.402-2.447-.668-1.908 1.686-2.157.44-4.153-1.196-4.745v-2.036h1.122v-1.456h-1.236v-1.58h-1.37v1.58h-1.235v1.456h1.115v2.036c-1.633.592-2.879 2.588-1.19 4.745-1.077-.539-1.841 1.106-.67 1.908-4.092-2.796-10.934-.895-12.599 2.494-6.808-2.838-18.845 4.943-13.179 12.664-.248.884.268 1.162-.476 1.757-.241.248-.313.595-.491 1.135 1.283.055 3.033 1.215 3.826 2.303-.517 1.132.49 1.753 1.033 1.379q.155.074.296.16c1.522.918 1.902 2.77 3.617 3.329.14.303-.137.772.14.994l1.28.693c.103.266-.45 1.01-.5 1.331l1.664.896.183.443c-.788 0-1.346 1.189-.335 1.413 5.935.641 11.982.96 18.203 1.013 6.225-.053 12.264-.372 18.205-1.013 1.009-.224.452-1.413-.337-1.413zm-15.09-23.294c-.2-1.247.041-2.726-.225-4.084 3.603-3.488 15.45-.567 10.5 7.048-3.5-1.783-5.553-2.672-10.274-2.964m-5.918 0c-4.718.292-6.766 1.18-10.266 2.964-4.953-7.615 6.896-10.536 10.492-7.048-.265 1.358-.017 2.837-.226 4.084m29.799 6.423c-2.629-2.122-9.437-2.782-12.766-2.266-.558.177 4.151-4.773 1.674-6.103.084-.085.734-.424 1.277-.424 1.928-.525 4.669.186 7.02 1.411 2.244 1.384 5.57 3.94 2.795 7.382m-41.33-2.738c-5.38-1.883-9.73.616-12.362 2.738-2.765-3.442.56-5.998 2.804-7.382 2.347-1.225 5.086-1.936 7.018-1.411.192.151 1.415.213 1.576.334-1.01 1.944-.443 4.955.964 5.721m-3.654 20.79c5.398-1.8 13.052-2.2 18.141-2.2 5.091 0 12.741.4 18.143 2.2-5.941.549-11.79.816-18.143.994-6.352-.178-12.203-.445-18.141-.995M124.56 35.16c-.808.126-.72-.793-.334-1.334.672-.968 1.617-2.521 1.277-4.25.59 1.773.5 3.555-.943 5.584m-57.306-5.584c-.34 1.729.606 3.282 1.276 4.25.388.541.473 1.46-.331 1.334-1.449-2.029-1.533-3.811-.945-5.584" style="fill:#ffb764;fill-rule:evenodd"></path><path d="M89.856 40.193c-1.342 3.456-4.428 2.139-5.95-.068.016-.25 3.718-2.446 3.968-3.03-.538-.205-3.1-.789-3.836-.383.026-1.114-1.653-3.976-1.653-3.976s-.876 3.046-.421 4.254c-.738-.092-3.064 1.353-3.489 1.852.464.32 4.709 1.24 4.778 1.4-.222 3.982-3.837 4.078-5.356 2.292-.29.666-.985 2.85-3.255 1.587.451.588 1.233 1.086 1.233 1.086l.617.97-.295.096s.815.388.92.414l.444-.101c.177-.006.347-.045.497-.11 2.493-.556 4.958-1.053 7.444-1.435a9 9 0 0 0 1.109-.162c3.18-.445 6.404-.698 9.768-.659 6.73-.078 12.895 1.014 19.264 2.467.105-.026.148-.288.835-.363.533-.149-.244-.928 1.639-2.203-2.27 1.263-2.965-.921-3.259-1.587-1.46 1.725-4.881 1.695-5.316-1.896.122-.301 4.281-1.477 4.745-1.796-.428-.499-2.743-1.939-3.422-1.831.428-1.237-.483-4.275-.483-4.275s-1.675 3.016-1.643 4.233c-.629-.532-3.304-.08-3.844.126.244.584 3.949 2.793 3.96 3.02-1.51 2.208-4.607 3.542-5.946.078-2.147 3.25-5.316 1.299-6.085-1.048.024-.097 4.97-1.86 5.325-2.353-.339-.69-3.494-2.003-4.49-1.785.408-.794-1.275-6.398-1.275-6.398s-1.768 5.59-1.425 6.405c-.917-.225-4.003 1.087-4.339 1.778.36.494 5.243 2.224 5.277 2.478-.839 2.29-3.941 4.112-6.041.923M96.38 48.587c-5.09 0-12.744.4-18.142 2.2 5.938.55 11.79.817 18.141.995 6.352-.178 12.202-.445 18.143-.995-5.402-1.8-13.052-2.2-18.143-2.2" style="fill:#ff0645;fill-rule:evenodd" data-source="https://football-logos.cc"></path><path d="M78.94 49.855c5.624-1.433 11.542-1.851 17.44-1.828 5.899-.023 11.813.395 17.443 1.828.15-.026.197-.122.287-.373l-1.06-1.309c0-.1.025-.198.115-.297l1.865-.597v-.191c-5.31-1.493-10.545-2.034-15.875-2.297-.87 0-1.751.015-2.776.015s-1.905-.015-2.775-.015c-5.329.263-10.562.804-15.873 2.297v.19l1.861.598c.088.1.114.197.114.297l-1.055 1.309c.089.25.137.347.288.373m15.433-3.334c-.02-.383.246-.692.594-.71l2.98-.118c.345-.006.63.283.635.664l.02.35c.007.38-.26.691-.609.698l-2.964.119c-.35.017-.636-.275-.646-.662zm9.697-.01c.047-.382.356-.64.703-.595l2.954.418c.339.052.579.388.53.76l-.038.349c-.04.38-.348.638-.691.595l-2.958-.418c-.349-.057-.579-.388-.532-.764zm-16.082-.595c.347-.045.649.213.704.596l.026.344c.053.376-.179.707-.53.764l-2.952.418c-.349.043-.652-.215-.691-.595l-.046-.349c-.05-.372.197-.708.537-.76zM83.157 29.277c3.5-1.783 5.548-2.672 10.266-2.964.209-1.247-.039-2.726.226-4.084-3.596-3.488-15.445-.567-10.492 7.048M99.116 22.229c.266 1.358.025 2.837.226 4.084 4.721.292 6.773 1.18 10.274 2.964 4.95-7.615-6.897-10.536-10.5-7.048" style="fill:#ff0645;fill-rule:evenodd"></path><path d="M112.13 24.367c2.477 1.33-2.232 6.28-1.674 6.103 3.33-.516 10.137.144 12.766 2.266 2.775-3.442-.55-5.998-2.795-7.382-2.351-1.225-5.092-1.936-7.02-1.411-.543 0-1.193.339-1.277.424M81.892 29.998c-1.407-.766-1.974-3.777-.964-5.721-.16-.121-1.384-.183-1.576-.334-1.932-.525-4.671.186-7.019 1.411-2.243 1.384-5.568 3.94-2.803 7.382 2.632-2.122 6.981-4.621 12.362-2.738M75.9 39.618c-.58-.212-4.035-.02-4.744.682a2 2 0 0 1-.083.106c.297.206.967 1.487 1.054 1.957.88.467 3.504-2.375 3.772-2.745" style="fill:#ff0645;fill-rule:evenodd"></path><path d="M71.156 40.3c.632-.866.594-2.384-.336-3.312-.085.328-.402.623-.577.795-.857-.795-1.89-1.142-2.684.322 1.234.125 2.927 1.58 3.514 2.301a.5.5 0 0 1 .083-.106M68.2 35.161c.804.126.72-.793.331-1.334-.67-.968-1.616-2.521-1.276-4.25-.588 1.773-.504 3.555.945 5.584M95.43 19.559c-2.12 2.722-.764 7.028-1.912 10.411L95 31.699l1.384-3.09 1.38 3.09 1.482-1.729c-1.14-3.383.2-7.689-1.91-10.411zM121.602 40.299c-.712-.7-4.165-.892-4.741-.681.262.366 3.125 2.998 4.039 2.6l.028-.014c.085-.472.462-1.592.759-1.798a2 2 0 0 1-.085-.107M121.933 36.988c-.927.927-.964 2.444-.33 3.31q.052.052.084.108c.586-.721 2.274-2.176 3.513-2.301-.796-1.464-1.826-1.117-2.682-.322-.178-.172-.494-.467-.585-.795M124.227 33.827c-.387.541-.474 1.46.334 1.334 1.443-2.029 1.532-3.811.943-5.584.34 1.729-.605 3.282-1.277 4.25" style="fill:#ff0645;fill-rule:evenodd"></path><path d="m87.988 45.916-2.953.418c-.34.052-.586.388-.535.76l.045.349c.04.38.342.638.691.595l2.953-.418c.35-.057.582-.388.53-.764l-.027-.344c-.055-.383-.357-.641-.704-.596M94.967 45.81c-.347.019-.614.328-.594.71l.01.342c.01.387.297.679.646.662l2.964-.119c.35-.007.616-.317.609-.698l-.02-.35c-.004-.381-.29-.67-.634-.664zM104.038 46.856c-.047.376.183.707.532.764l2.958.418c.343.043.651-.215.691-.595l.038-.349c.049-.372-.191-.708-.53-.76l-2.954-.418c-.347-.045-.656.213-.703.596z" style="fill:#ffb764;fill-rule:evenodd"></path><path d="M124.832 62.279s1.858.781 3.229.306 1.377-1.498 2.976-1.948c1.826-.513 3.417.36 3.417.36.487-.738 2.399-5.039-7.455-4.414 0 0-1.213 4.136-2.851 4.67-1.641.536.684 1.026.684 1.026M68.666 61.253c-1.64-.534-2.852-4.67-2.852-4.67-9.854-.625-7.943 3.676-7.455 4.414 0 0 1.591-.873 3.417-.36 1.6.45 1.603 1.473 2.975 1.948 1.371.475 3.23-.306 3.23-.306s2.325-.49.685-1.026" style="fill:#faba60;fill-rule:evenodd"></path><path d="M91.962 90.677c.121.121.287.2.476.2a.636.636 0 0 0 .631-.521l.052.009c.08 0 .15-.03.23-.047a.57.57 0 0 0 .381.16c.34 0 .613-.299.613-.668l-.013-.051c.268-.077.467-.304.467-.58 0-.254-.169-.465-.407-.556l.01-.047a.645.645 0 0 0-.411-.611.47.47 0 0 0 .177-.367.464.464 0 0 0-.452-.477l-.025.004a.86.86 0 0 0-.466-.75 1.22 1.22 0 0 0-.43-.75.82.82 0 0 0-.755-.496c-.36 0-.66.232-.77.554l-.031.038c-.046-.008-.089-.025-.139-.025-.41 0-.737.25-.82.577-.222.065-.416.195-.515.402-.59.03-1.054.491-1.096 1.075a.67.67 0 0 0-.642.666c0 .166.067.313.168.431a.9.9 0 0 0-.11.409c0 .517.419.939.938.939.161 0 .305-.05.437-.123.193.178.447.293.73.293.088 0 .171-.019.253-.041.128.224.328.403.571.492a1.01 1.01 0 0 0 .948-.139" style="fill:#00a43e;fill-rule:evenodd"></path><path d="M91.64 93.367v-2.53a1 1 0 0 1-.626-.021v2.551z" style="fill:#735c48;fill-rule:evenodd"></path><path d="m96.146 111.788-.012-5.89s-.208-.884-1.236-.964a1.34 1.34 0 0 0-1.234.964l-.03 5.969c.334-.062.55-.123.86-.143a.5.5 0 0 1 .116-.005q.113-.003.248.002c.08.004.38.004.464 0 .357-.013.581.02.824.068zM92.14 100.712h1.419c0-.936.217-2.13-.709-2.13-.941 0-.71 1.247-.71 2.13M96.948 98.582c-.941 0-.71 1.248-.71 2.13h1.42c0-.937.218-2.13-.71-2.13" style="fill:#00c8de;fill-rule:evenodd"></path><path d="M73.376 120.562c1.563-1.626-.12-2.136-.865-2.902-.43-.446-1.162.128-1.701.688-.39.404-.678.802-.678.802-1.451 1.507-.673 3.34-.481 3.655.167.274 1.716-.401 3.116-1.65q.313-.278.609-.593" style="fill:#fff;fill-rule:evenodd"></path><path d="M73.298 120.488c.865-.9.673-1.427.23-1.851a6 6 0 0 0-.52-.424 5 5 0 0 1-.573-.477l-.017-.016c-.155-.148-.366-.135-.592-.034-.253.112-.525.332-.771.569a8.39 8.39 0 0 0-.836.96l-.004.005-.005.005a2.85 2.85 0 0 0-.807 1.633c-.12.913.219 1.69.337 1.887l.004.004c.04.038.204.009.449-.077.287-.1.661-.282 1.074-.534a10 10 0 0 0 2.03-1.65zm.38-2.007c.527.507.765 1.126-.224 2.155a10 10 0 0 1-.615.6c-.49.436-.998.804-1.46 1.086-.427.26-.816.45-1.115.554-.337.117-.584.125-.683.014l-.004-.004-.003-.004-.01-.014-.003-.004-.002-.004c-.127-.207-.499-1.048-.37-2.03.075-.566.315-1.18.86-1.75a9 9 0 0 1 .857-.981c.26-.251.553-.486.832-.61.306-.137.6-.147.831.076l.002.001.016.017h.001c.152.156.35.306.55.457.187.14.376.283.54.44z" style="fill:#1b1918;fill-rule:evenodd"></path><path d="M74.603 119.942c-.593.142-1.304.876-1.72 1.36-.214.25-.35.432-.35.432-1.633 1.658-.748 3.667-.53 4.013.186.29 1.836-.404 3.377-1.702.282-.237.56-.495.825-.771 1.71-1.784-.15-2.342-.99-3.183a1 1 0 0 0-.072-.063c-.157-.115-.342-.133-.54-.086" style="fill:#fff;fill-rule:evenodd"></path><path d="M74.628 120.047c-.23.055-.486.21-.734.406-.353.28-.69.64-.929.918-.21.244-.336.412-.336.412l-.008.015-.012.012c-.578.587-.83 1.219-.906 1.8-.132 1.001.25 1.852.388 2.073l.007.01c.055.05.278.007.607-.114.376-.139.866-.387 1.394-.724a11.5 11.5 0 0 0 1.634-1.268q.202-.188.394-.388c.944-.983.737-1.563.251-2.029-.176-.169-.39-.327-.6-.483a6 6 0 0 1-.636-.517l-.033-.03-.034-.028a.44.44 0 0 0-.195-.08.7.7 0 0 0-.252.015zm-.867.237c.27-.213.552-.383.817-.447a.9.9 0 0 1 .336-.018.66.66 0 0 1 .292.123l.004.003.037.03.006.005.036.033.003.003c.171.171.392.335.614.499.216.16.436.322.621.5.572.549.823 1.221-.244 2.334q-.198.206-.403.396-.213.198-.431.383c-.414.348-.835.654-1.234.909-.543.347-1.048.602-1.435.745-.426.157-.738.179-.85.045l-.005-.005-.008-.01-.004-.008c-.144-.227-.566-1.147-.424-2.222.081-.622.35-1.297.967-1.923a9 9 0 0 1 .345-.428c.245-.285.592-.656.96-.946z" style="fill:#1b1918;fill-rule:evenodd"></path><path d="M75.564 124.222a10 10 0 0 0-.694.803c-1.686 1.686-.783 3.74-.559 4.091.22.346 2.482-.66 4.237-2.415l.092-.094c1.275-1.309.634-1.973-.145-2.565l-.006.004-.11-.092c-.265-.197-.536-.389-.744-.597-.525-.524-1.438.212-2.07.865" style="fill:#fff;fill-rule:evenodd"></path><path d="M75.642 124.297c-.4.413-.685.792-.686.793l-.004.005-.006.006c-.597.597-.859 1.242-.94 1.835-.14 1.02.251 1.889.392 2.115l.008.01c.066.054.306.008.657-.123.393-.145.901-.402 1.45-.75.64-.406 1.332-.937 1.958-1.563l.092-.094c.606-.622.76-1.082.67-1.45-.085-.352-.395-.64-.745-.91l-.009.006-.06-.049-.108-.09-.098-.072a6 6 0 0 1-.654-.533c-.22-.22-.536-.168-.868.01-.36.194-.74.534-1.049.854zm-.853.658c.039-.051.319-.415.698-.807.323-.334.718-.69 1.102-.895.414-.222.818-.276 1.122.028.178.177.403.344.63.512l.101.074.005.004.051.043.004-.002.058.045c.405.308.776.638.882 1.074.107.438-.057.966-.725 1.652l-.093.094c-.64.64-1.345 1.18-1.995 1.594-.56.356-1.084.62-1.49.77-.44.164-.766.193-.89.07l-.004-.005-.004-.004-.014-.018-.001-.002-.005-.008c-.147-.23-.578-1.17-.428-2.266.085-.633.364-1.32.996-1.953M86.856 111.803s.998-.336 1.668-.3c.672.037 1.162.526 3.266.508s2.086-.326 3.069-.291c.08.004.38.004.464 0 .98-.035.96.273 3.066.291s2.594-.471 3.266-.508c.673-.036 1.67.3 1.67.3.68-.02 1.107-.272 1.453-1.548q.187.79-.26 1.553.518-.174.84-.686-.019.602-.728 1.088s.073.762.327 1.179c.257.419.27.419.27.419l-.687.579s-.524-.88-1.103-.515c-.583.363-1.516 1.823-1.292 3.363.072.502.218.617.218.617h-.49c-.416-.787-.526-1.45-.581-1.506l.38 2.062-.452.007s-.416-2.62-2.94-2.904c-.51-.057-1.523-.207-1.687.146-.272.582.072 1.197.145 1.342s.09.146.09.146h-.47s-.62-1.345-.755-2.317c-.127-.93-.563-1.048-.71-.417-.348 1.497-1.07 2.734-1.07 2.734h-.472s.02 0 .092-.146c.071-.145.415-.76.143-1.342-.162-.353-1.175-.203-1.686-.146-2.523.283-2.941 2.904-2.941 2.904l-.454-.007.384-2.062c-.058.056-.167.719-.583 1.506h-.49s.147-.115.218-.617c.226-1.54-.708-3-1.288-3.363-.58-.364-1.105.515-1.105.515l-.691-.58s.02 0 .273-.418c.253-.417.327-1.18.327-1.18q-.711-.484-.726-1.087.316.512.838.686-.446-.763-.26-1.553c.347 1.276.771 1.528 1.454 1.548" style="fill:#1b1918;fill-rule:evenodd"></path><path d="M86.848 111.75c.095-.032 1.032-.335 1.68-.3.231.012.44.077.696.156.496.153 1.178.364 2.566.352 1.192-.01 1.7-.114 2.096-.195.305-.063.546-.112.975-.097a9.935 9.935 0 0 0 .459 0h.001c.427-.015.667.034.97.097.396.08.904.185 2.098.195 1.39.011 2.071-.199 2.567-.352.255-.079.464-.144.696-.156.65-.035 1.587.268 1.682.3.323-.011.585-.077.806-.289.228-.217.416-.592.586-1.22l.104.002q.096.407.03.804a2.3 2.3 0 0 1-.224.658q.171-.077.318-.197a1.7 1.7 0 0 0 .359-.414l.098.03a1.14 1.14 0 0 1-.2.601q-.18.27-.525.51c.017.148.1.77.316 1.126.241.393.226.393.226.393l.034.095-.688.579-.05.041-.03-.056c-.002-.002-.496-.831-1.029-.496-.324.202-.76.755-1.037 1.474-.209.544-.325 1.184-.23 1.836.069.483.203.588.203.588l-.038.09h-.522l-.015-.028a6 6 0 0 1-.34-.77l.24 1.292.01.062h-.062l-.453.008h-.047l-.007-.046c0-.007-.41-2.58-2.893-2.859l-.13-.015c-.521-.06-1.368-.159-1.503.13-.248.532.043 1.098.132 1.272l.012.024c.058.116.043.116.043.116v.107h-.506l-.014-.032c-.001-.004-.623-1.35-.758-2.33-.048-.352-.14-.582-.242-.694a.2.2 0 0 0-.11-.07.12.12 0 0 0-.094.028c-.064.051-.121.16-.16.323-.35 1.505-1.072 2.744-1.074 2.747l-.015.028h-.502c.006 0 .042-.01.1-.107h.34a11 11 0 0 0 1.048-2.692c.044-.189.115-.317.197-.382a.22.22 0 0 1 .178-.05q.09.015.171.103c.115.126.218.376.269.751.12.876.642 2.06.736 2.27h.335l-.037-.068-.012-.024c-.094-.184-.403-.787-.134-1.365.167-.358 1.062-.255 1.611-.19l.13.014c2.368.265 2.91 2.55 2.979 2.903l.345-.005-.37-2 .09-.047c.027.027.051.11.09.24.076.26.213.726.486 1.25h.352c-.053-.09-.123-.26-.165-.556-.098-.673.022-1.33.237-1.89.284-.741.74-1.315 1.08-1.527.532-.334 1.012.29 1.142.481l.61-.514a4 4 0 0 1-.25-.376c-.26-.427-.335-1.198-.335-1.2l-.004-.033.028-.018q.346-.236.522-.5.108-.161.152-.333a1.7 1.7 0 0 1-.252.257 1.5 1.5 0 0 1-.486.269l-.063-.078q.217-.373.28-.751.045-.27.013-.54c-.16.517-.34.844-.552 1.048-.246.236-.534.308-.887.318l-.017-.002c-.002 0-.99-.332-1.652-.297-.22.012-.422.074-.671.151-.502.156-1.192.369-2.599.357-1.204-.01-1.718-.116-2.118-.198a3.5 3.5 0 0 0-.945-.094 7 7 0 0 1-.468 0c-.417-.015-.652.034-.95.095-.4.082-.914.187-2.117.197-1.404.012-2.094-.201-2.597-.356-.25-.078-.453-.14-.671-.152-.66-.035-1.649.297-1.651.297l-.017.002c-.353-.01-.642-.082-.888-.318-.213-.204-.392-.53-.552-1.049q-.032.273.013.54.063.38.281.752l-.063.078q-.27-.09-.488-.269a1.7 1.7 0 0 1-.25-.256q.043.171.15.332.177.264.523.5l.027.018-.004.033c0 .002-.075.773-.335 1.2-.126.208-.204.32-.25.378l.611.513c.13-.192.612-.816 1.145-.481.338.212.795.786 1.079 1.529.214.558.332 1.215.233 1.887-.042.296-.111.465-.163.556h.35c.271-.519.408-.981.485-1.243.04-.135.065-.22.093-.248l.09.048-.372 2 .345.005c.07-.347.61-2.637 2.98-2.903l.13-.015c.551-.064 1.445-.167 1.611.191.267.574-.035 1.173-.13 1.361l-.014.027-.037.07m-.102.106v-.107s-.014 0 .043-.116l.048.024.048.023m-.096-.047.014-.028c.09-.177.374-.74.13-1.267-.134-.29-.98-.192-1.502-.13l-.131.014c-2.482.279-2.894 2.854-2.895 2.861l-.008.044h-.045l-.454-.007-.063-.001.011-.062.242-1.295a6 6 0 0 1-.341.773l-.015.029h-.522l-.037-.091s.134-.105.202-.587l.053.007.052.007m-.163.556a.3.3 0 0 1-.069.091l-.037-.037-.038-.038m.202-.587c.096-.652-.02-1.29-.228-1.834-.276-.72-.713-1.274-1.036-1.477-.534-.335-1.028.494-1.03.496l-.031.057-.05-.042-.69-.58.034-.094s-.01 0 .227-.392l.046.027.045.028m-.25.378c-.054.067-.068.067-.068.067v-.108m.227-.392c.217-.356.3-.978.316-1.126q-.344-.24-.524-.51a1.1 1.1 0 0 1-.198-.603l.099-.029q.152.249.355.414.146.12.32.198a2.3 2.3 0 0 1-.223-.658 2 2 0 0 1 .028-.805l.103-.002c.171.628.36 1.003.587 1.22.22.212.484.278.808.288" style="fill:#fff;fill-rule:evenodd"></path><path d="M103.326 111.803s-.89-.3-1.557-.303q-.058 0-.114.003c-.672.037-1.16.526-3.266.509-1.338-.012-1.818-.14-2.242-.224a3.3 3.3 0 0 0-.824-.068 9 9 0 0 1-.464 0 4 4 0 0 0-.248-.001c.276.018.645.236.808.645.16.396.125.972-.374 1.719.191-.194.462.045.558.746.134.972.755 2.317.755 2.317h.47s-.017 0-.09-.146c-.073-.145-.417-.76-.145-1.342.164-.353 1.177-.203 1.687-.146 2.524.283 2.94 2.904 2.94 2.904l.453-.007-.381-2.062c.055.056.165.718.58 1.506h.49s-.145-.115-.217-.617c-.224-1.54.709-3 1.292-3.364.579-.363 1.103.516 1.103.516l.658-.555.03-.025s-.014 0-.271-.418c-.254-.417-.327-1.18-.327-1.18q.709-.484.728-1.087-.322.512-.84.686.447-.763.26-1.553c-.346 1.276-.772 1.528-1.452 1.548z" style="fill:#f6bd64;fill-rule:evenodd"></path><path d="M114.207 124.557c-.33.296-.564.636-.455 1.108.063.273.24.59.58.97.71.79 1.529 1.435 2.232 1.873a6 6 0 0 0 1.054.54c.249.09.417.12.466.079.128-.206.508-1.044.395-2.038a3.1 3.1 0 0 0-.831-1.776l-.005-.005-.005-.008c-.003-.005-.895-1.294-1.646-1.67-.264-.13-.51-.15-.694.039-.175.177-.39.34-.607.502-.167.126-.337.253-.484.385zM116.643 123.54c.907.874 2.267 1.787 3.339 2.133.31.1.52.13.57.079.118-.208.452-1.04.285-1.995-.142-.81-.394-1.039-.941-1.685-.003-.004-.703-.872-1.39-1.331-.405-.27-.805-.398-1.054-.124-.726.798-2.196 1.311-1.086 2.63q.119.14.277.293M118.95899999999999 120.64c.975.848 2.413 1.71 3.53 2.015l.62.057c.055-.028.957-2.196-.844-3.73l-.011-.01c-.004-.005-.884-.992-1.66-1.386-.373-.188-.722-.24-.938.019-.724.867-2.266 1.475-.92 2.828q.102.1.224.207" style="fill:#fff;fill-rule:evenodd"></path><path d="M119.78 92.392c.086.103.2.32.336.642.223.528.356 1.324-.54 1.704-.66.28-1.315-.031-1.661-.852l-.252-.597zm-6.544 1.078.607 1.437 2.824-1.196.206.49c.29.683.137 1.105-.677 1.68-.767.533-1.295.976-1.449 1.167l.628 1.486c.2-.258.95-.806 1.683-1.37.632-.475.979-.967.946-1.576l.027-.011c.551.596 1.423.919 2.274.558 1.865-.79 1.164-2.752.763-3.7-.31-.733-.67-1.41-.962-1.875zM114.117 119.468c.478.407.314.941.113 1.177-.212.25-.556.34-.913.036-.546-.464-.198-1.132.26-1.672zm-2.959.283c.059-.369.237-.797.53-1.141.464-.546.856-.433 1.226-.118-1.014 1.193-1.29 2.433-.327 3.252.607.516 1.492.526 2.083-.168.355-.418.496-.925.383-1.392l.017-.02.443.271.762-.896c-.263-.155-.605-.422-.936-.703l-1.374-1.17c-.823-.699-1.833-1.012-2.825.153-.498.587-.725 1.195-.789 1.57zM107.454 122.464l-.448-.495-.906.679c.275.338.57.702.915 1.164l2.067 2.759 1.048-.785-1.758-2.348c-.448-.598-.223-1.109.06-1.321.446-.334.888-.069 1.249.413l1.724 2.301 1.047-.785-1.808-2.414c-.828-1.105-1.763-1.189-2.486-.648a1.64 1.64 0 0 0-.683 1.464zM104.894 121.676c-.152-.377-.524-.542-.918-.383a.674.674 0 0 0-.386.91.674.674 0 0 0 .91.387c.377-.153.553-.52.394-.914m-.751 1.754 1.845 4.57 1.214-.491-1.845-4.57zM101.05 126.211c-.057-.484.078-1.177.695-1.298.633-.123.953.454 1.043.96zm3.067.331a3 3 0 0 0-.065-.519c-.305-1.563-1.231-2.248-2.404-2.02-1.415.276-1.98 1.63-1.71 3.02.293 1.502 1.326 2.274 2.82 1.983.6-.117 1.143-.33 1.51-.582l-.356-.85a3.6 3.6 0 0 1-1.142.43c-.695.135-1.35-.08-1.545-.899zM95.918 124.008q.16-.06.599-.081c.477-.023 1.139.115 1.18.99.03.644-.4 1.099-1.142 1.133l-.54.026zm-1.026 5.858 1.299-.061-.13-2.757.442-.02c.619-.03.906.231 1.123 1.098.198.814.394 1.398.5 1.588l1.343-.063c-.144-.25-.36-1.055-.591-1.85-.192-.682-.478-1.129-.964-1.292l-.002-.026c.625-.278 1.126-.912 1.087-1.743-.085-1.82-1.822-1.845-2.68-1.805-.662.031-1.296.123-1.742.224zM89.567 127.405c-.217.589-.775.62-1.066.513-.307-.113-.51-.405-.349-.845.247-.672.994-.577 1.659-.333zm-1.288-2.679c.366-.073.83-.053 1.254.103.672.247.702.653.534 1.11-1.47-.54-2.729-.371-3.165.817-.275.747.022 1.581.877 1.896.515.189 1.04.146 1.44-.122l.025.01-.102.509 1.104.405c.054-.3.187-.713.336-1.12l.622-1.694c.373-1.013.318-2.07-1.119-2.598-.722-.266-1.371-.268-1.746-.198zM80.779 120.51c.35-.338.985-.648 1.453-.229.48.431.213 1.035-.136 1.411zm1.585 2.646c.114-.088.244-.22.374-.365 1.064-1.186 1.05-2.338.162-3.135-1.074-.963-2.495-.597-3.44.457-1.022 1.14-1.014 2.43.119 3.445.454.408.953.713 1.375.852l.463-.795a3.6 3.6 0 0 1-1.031-.652c-.527-.472-.75-1.124-.216-1.774zM112.682 92.744l-3.11-3.752 5.891-4.884 2.99 3.608-1.08.895-1.821-2.197-1.311 1.086 1.695 2.046-1.075.892-1.696-2.046-1.348 1.117 1.941 2.343zM113.928 82.483l-6.523 4.802-1.709-1.173 2.17-7.795 1.626 1.117-1.73 5.589.027.019 4.56-3.644zM97.808 83.098l-4.838-.028.043-7.652 1.831.01-.035 6.253 3.007.017zM89.255 80.946l-1.489-2.225a4 4 0 0 1-.33-.617l-.04.012q.075.328.078.675l.03 2.713zm3.45 2.111-1.77.563-.958-1.516-2.406.767.087 1.761-1.76.56-.085-8.005 2.464-.785zM83.9 79.37l-1.98 1.207 3.253 5.337-1.567.955-3.253-5.337-1.968 1.2-.73-1.197 5.515-3.362zM74.07 86.994l-1.554 2.409 1.58 1.018 1.428-2.214 1.174.757-1.427 2.214 2.499 1.61-.993 1.54-6.432-4.146 2.545-3.948zM76.258 96.228c-.23.468-.891.712-1.396.463-.52-.257-.744-.965-.512-1.436.234-.474.922-.704 1.44-.448.537.264.708.936.468 1.42M75.198 97.277q.215.952-.075 2.356-.379 1.83-1.61 2.669-1.23.839-2.92.49-1.798-.372-2.672-1.783-.874-1.41-.484-3.292.241-1.165.685-1.906l1.625.337q-.615.704-.827 1.727-.232 1.12.29 1.946.52.825 1.655 1.06 1.086.225 1.866-.291.78-.515 1.008-1.614a4 4 0 0 0-.084-2.019z" style="fill:#201a1a;fill-rule:evenodd"></path><path d="m102.927 81.549.072-2.676c.006-.202.03-.434.088-.695l-.04-.013a3 3 0 0 1-.327.596l-1.544 2.23zm1.593 3.717-1.769-.564.095-1.79-2.406-.768-.948 1.488-1.76-.56 4.561-6.58 2.464.784zM118.486 102.849l2.505-.945c.19-.07.414-.136.677-.181l-.003-.042q-.338-.002-.675-.078l-2.649-.586zm-2.838 2.88-.147-1.85 1.694-.59-.2-2.517-1.736-.315-.147-1.84 7.817 1.733.205 2.578zM80.254 90.017c-.23.468-.891.712-1.396.463-.52-.257-.744-.965-.512-1.436.234-.474.922-.704 1.44-.448.537.264.708.936.468 1.42" style="fill:#201a1a;fill-rule:evenodd"></path><path d="M93.442 117c.071-.145.415-.76.144-1.343-.163-.352-1.176-.202-1.687-.145-2.522.283-2.941 2.904-2.941 2.904l-.454-.007.384-2.062c-.057.055-.167.718-.583 1.506h-.49s.147-.116.218-.618c.227-1.54-.708-3-1.288-3.363-.58-.364-1.105.516-1.105.516l-.691-.58s.02 0 .273-.419c.089-.146.156-.335.205-.518-2.398.52-3.892 1.562-3.892 3.656.306.305 4.675 4.563 10.951 5.48a19.3 19.3 0 0 0 6.09-.142c5.057-1.104 7.529-3.287 9.22-4.531l.033-.028c0-1.611-.996-2.72-2.632-3.473l-.658.555s-.524-.88-1.103-.516c-.583.364-1.516 1.824-1.292 3.363.072.502.218.617.218.617h-.49c-.416-.787-.526-1.45-.58-1.505l.38 2.062-.453.007s-.416-2.621-2.94-2.904c-.51-.057-1.523-.207-1.687.145-.272.583.072 1.198.145 1.342.073.146.09.146.09.146h-.47s-.62-1.344-.755-2.316c-.096-.7-.367-.94-.558-.746q-.005.01-.012.013a.73.73 0 0 0-.14.315c-.348 1.497-1.07 2.734-1.07 2.734h-.472s.02 0 .092-.146" style="fill:#00a43e;fill-rule:evenodd"></path><path d="m101.434 105.563.335 5.938c.665.003 1.556.302 1.556.302.68-.02 1.106-.272 1.452-1.548q.187.79-.259 1.553.517-.173.84-.686-.02.603-.73 1.088s.074.763.328 1.18c.257.418.271.418.271.418l-.03.025c1.636.752 2.632 1.861 2.632 3.472a19.03 19.03 0 0 0 6.331-14.193c0-10.533-8.538-19.07-19.07-19.07-10.535 0-19.072 8.537-19.072 19.07 0 5.231 2.106 9.97 5.517 13.415 0-2.094 1.495-3.137 3.892-3.656.091-.34.122-.66.122-.66q-.711-.486-.726-1.09c.21.343.492.572.838.687q-.446-.762-.26-1.553c.347 1.276.771 1.528 1.454 1.548 0 0 .595-.2 1.175-.275l.334-5.965 1.833-3.672.294-4.54s-.995-2.684-.995-3.777c0-1.091 1.446-.957 1.446-.957l.072.222v-2.023a1.1 1.1 0 0 1-.571-.492 1 1 0 0 1-.252.041c-.284 0-.538-.115-.73-.293a.9.9 0 0 1-.438.123.94.94 0 0 1-.938-.939c0-.151.045-.286.11-.409a.66.66 0 0 1-.168-.431c0-.359.285-.65.642-.666a1.154 1.154 0 0 1 1.096-1.075c.1-.207.293-.337.516-.402.082-.326.409-.577.819-.577.05 0 .093.017.139.025l.03-.038a.815.815 0 0 1 .771-.554c.338 0 .628.205.755.496.224.186.382.446.43.75.27.143.463.42.466.75l.025-.004c.25 0 .452.213.452.477 0 .15-.071.28-.177.367.239.09.41.325.41.611l-.009.047c.239.091.407.302.407.556 0 .276-.2.503-.467.58l.013.05c0 .37-.273.67-.612.67a.57.57 0 0 1-.383-.161c-.078.016-.148.047-.229.047l-.051-.01a.636.636 0 0 1-.632.522.67.67 0 0 1-.476-.2q-.144.106-.322.16v2.53l1.319-.106v-1.095c.752-.51 3.277-.543 3.88 0v1.095l1.764.141.255-.785s1.447.11 1.447.957c0 .85-.997 3.778-.997 3.778l.294 4.539zm2.351-14.932s-1.304.74-3.915-.826c-1.375-.824-1.418-.146-1.479-.087V86.36s.758-.198 1.378.12c.248.127.477.334.633.668l.011.024c.189.287.406.497.655.654.297.171.647.286.992.363.447.086.962.12 1.558.158 0 0-.015.068-.075.2-.055.119-.117.255-.162.255a3 3 0 0 1-.302.348c-.322.321-.307.769-.02 1.094.063.061.195.18.368.27q.16.077.358.117m-5.473-4.288v6.982l-.352-.076v-6.906z" style="fill:#00c8de;fill-rule:evenodd"></path><path d="M103.398 88.807s-2.169.173-3.528-1.325c-.727-.57-1.497-.151-1.558-.09v1.284s1.635-.296 2.047.52c.415.822 2.328 1.289 2.665 1.006 0 0 .01.017.036.042-.288-.325-.303-.773.019-1.094.13-.13.244-.241.319-.343" style="fill:#ffc400;fill-rule:evenodd"></path><path d="M99.87 87.482c1.359 1.498 3.529 1.325 3.529 1.325.1-.125.108-.19.143-.26a1 1 0 0 0 .076-.2c-.218-.025-.857-.037-1.562-.174-.36-.07-.694-.19-.992-.362-.282-.162-.456-.381-.65-.639q-.009-.01-.012-.024c-.028-.057-.06-.124-.094-.187a1.3 1.3 0 0 0-.536-.478c-.628-.32-1.46-.124-1.46-.124v1.033c.06-.061.831-.48 1.558.09M100.36 89.196c-.413-.816-2.048-.52-2.048-.52v1.21c.06-.06.183-.905 1.558-.081 2.611 1.567 3.92.826 3.92.826-.13-.038-.259-.061-.365-.117a1.7 1.7 0 0 1-.365-.27c-.025-.025-.036-.042-.036-.042-.337.283-2.25-.184-2.665-1.006" style="fill:#c60b1e;fill-rule:evenodd"></path><path d="M114.42 103.135c0 5.34-2.165 10.175-5.664 13.674a19.28 19.28 0 0 1-13.674 5.664 19.28 19.28 0 0 1-13.674-5.663 19.28 19.28 0 0 1-5.665-13.675c0-5.34 2.165-10.174 5.665-13.673a19.28 19.28 0 0 1 13.674-5.664 19.28 19.28 0 0 1 13.674 5.664c3.5 3.499 5.664 8.333 5.664 13.673m-6.041 13.296a18.75 18.75 0 0 0 5.507-13.296c0-5.193-2.105-9.893-5.507-13.296a18.75 18.75 0 0 0-13.297-5.506 18.75 18.75 0 0 0-13.297 5.506 18.74 18.74 0 0 0-5.507 13.296c0 5.193 2.105 9.895 5.507 13.297a18.75 18.75 0 0 0 13.297 5.507c5.193 0 9.894-2.105 13.297-5.507" style="fill:#9c9e9f;fill-rule:evenodd"></path><path d="m87.625 120.568-3.529 6.176 1.137.65 3.529-6.176zM77.286 119.007c-.545.556-1.097.412-1.375.14-.443-.433-.294-1.117.331-1.755.6-.614 1.323-.871 1.804-.4.31.302.372.858-.13 1.37zm3.42-3.495-1.719 1.756-.012-.012c.096-.376-.034-.838-.445-1.24-.759-.742-2.066-.735-3.242.466-1.046 1.069-1.195 2.359-.398 3.139.43.42 1.026.57 1.549.403l.02.018-.445.543.822.804c.24-.271.612-.676.958-1.03l3.774-3.855z" style="fill:#201a1a;fill-rule:evenodd"></path><path d="m93.635 111.867.03-5.969s.21-.884 1.233-.964a1.34 1.34 0 0 1 1.236.964l.012 5.89c1.14.23 2.733.514 4.81-.126.3-.093.572-.151.812-.161l-.334-5.938-1.832-3.672-.294-4.54s.997-2.926.997-3.777c0-.847-1.447-.957-1.447-.957l-.255.785-1.763-.14v-1.096c-.604-.543-3.129-.51-3.881 0v1.095l-1.319.106h-.626v-.528l-.072-.222s-1.446-.134-1.446.957c0 1.093.995 3.777.995 3.777l-.294 4.54-1.833 3.672-.334 5.965c1.19-.13 1.322.508 3.76.483 1.062-.01 1.485-.074 1.845-.144m2.604-11.155c0-.882-.232-2.13.71-2.13.927 0 .71 1.193.71 2.13zm-2.68 0H92.14c0-.883-.231-2.13.71-2.13.926 0 .709 1.194.709 2.13" style="fill:#735c48;fill-rule:evenodd" data-source="https://football-logos.cc"></path><!-- source: https://football-logos.cc --></svg>