<svg xmlns="http://www.w3.org/2000/svg" xml:space="preserve" viewBox="0 0 800 800"><!-- Source: https://football-logos.cc --><path fill="#fff" d="M798.765 368.398c-3.989-51.548-18.133-102.286-41.48-148.42-25.956-51.5-63.236-97.22-108.376-133.106-35.55-28.327-75.964-50.534-118.967-65.284a397 397 0 0 0-81.038-18.621C434.482 1.177 419.96.29 405.435 0h-10.929c-14.335.293-28.666 1.157-42.902 2.906-39.552 4.757-78.387 15.488-114.742 31.785-41.058 18.324-78.939 43.705-111.6 74.6-33.625 31.762-61.71 69.376-82.543 110.675A397.2 397.2 0 0 0 4.973 336.804C1.86 356.249.282 375.919 0 395.6v9.078c.355 24.507 2.791 49 7.555 73.047a396.5 396.5 0 0 0 21.312 71.744c16.288 40.449 39.3 78.163 67.74 111.212a402.4 402.4 0 0 0 70.022 64.218c40.779 29.381 87.161 50.97 135.935 63.145 55.31 13.857 113.582 15.662 169.669 5.446 48.441-8.805 95.188-26.752 137.097-52.58 38.112-23.437 72.246-53.314 100.543-87.967 29.781-36.41 53.088-78.104 68.392-122.583 17.912-51.81 24.786-107.333 20.5-161.963" data-source="https://football-logos.cc"></path><g fill="#b6b6b6"><path d="M305.335 152.617c48.659-18.668 102.842-22.378 153.651-10.883q-.245 1.471-.508 2.944c-15.162-1.63-30.486-2.226-45.684-.735-10.159 1.026-20.322 2.842-29.904 6.455-2.701 1.038-5.35 2.271-7.772 3.86-2.332 1.563-3.686 4.166-4.57 6.756-1.605 4.858-1.95 10.01-2.134 15.09-.119 5.024.14 10.052.547 15.058.08 1.355.369 2.701.328 4.066-1.37 1.058-2.909 1.892-4.179 3.086-4.074 3.507-7.448 7.735-10.647 12.03-8.668 11.902-15.856 24.807-22.582 37.88a73 73 0 0 1-3.275 3.358c-4.678 3.077-9.358 6.166-13.85 9.517-11.344-3.81-22.684-7.637-34.16-11.042-6.73-1.97-13.504-3.819-20.39-5.16-3.972-.75-7.995-1.37-12.048-1.34-4.796.117-9.566.614-14.337 1.067 1.907-4.632 4.273-9.064 6.577-13.51 11.136-21.015 25.274-40.47 42.108-57.291a236 236 0 0 1 19.154-17.145c1.331-1.23 3.461-2.025 3.675-4.061M463.897 142.91c38.855 9.467 75.402 28.05 106.145 53.61 1.13.989 2.366 1.868 3.391 2.975a16 16 0 0 1-1.642-.32c-6.352-1.798-12.82-3.152-19.161-4.974-9.25-2.598-18.194-6.347-26.38-11.395-8.264-4.998-15.359-11.609-23.174-17.232-7.865-5.71-16.482-10.313-25.395-14.16-4.696-2.09-9.548-3.79-14.317-5.696.189-.935.36-1.871.533-2.808"></path><path d="M413.957 148.868c14.936-1.377 29.993-.778 44.874.927 1.7.178 3.253.924 4.853 1.475 11.896 4.343 23.601 9.514 34.074 16.712 7.683 5.204 14.5 11.568 22.2 16.742 8.324 5.62 17.476 9.982 27.042 13.019 10.168 3.352 20.855 4.914 30.884 8.703 2.173.77 4.184 1.915 6.326 2.752l.09.032c26.304 25.305 47.45 55.988 61.456 89.708 13.902 33.305 20.833 69.485 20.305 105.565-.085 1.912.082 3.844-.177 5.75-1.152-2.413-1.738-5.056-2.697-7.542-9.65-27.545-23.854-53.46-41.76-76.5-22.52-29.071-50.648-53.536-81.574-73.311-13.868-8.892-28.327-16.837-43.174-23.96-.356-.175-.749-.301-1.12-.123-3.493-14.362-8.512-28.684-17.339-40.698-1.766-2.402-3.69-4.682-5.483-7.057-.155-.147-.47-.438-.625-.582-.244 2.892.314 5.774.483 8.657.848 9.96 1.208 20.062-.355 29.975.01-.224.03-.672.035-.895-14.541-5.863-29.396-10.949-44.5-15.164-11.585-3.208-23.312-5.948-35.195-7.784-6.062-.89-12.182-1.676-18.316-1.462a147 147 0 0 1-.732-9.851c-.152-6.514-.28-13.138 1.242-19.522.619-2.21 1.303-4.696 3.28-6.085 2.054-1.34 4.301-2.354 6.582-3.234 9.392-3.556 19.37-5.267 29.32-6.247M283.737 161.987c2.522-1.197 5.004-2.514 7.625-3.487-1.014 1.24-2.277 2.223-3.464 3.287a234 234 0 0 0-15.349 15.168c-18.644 20.086-33.554 43.487-44.726 68.475-18.143 2.668-35.902 7.684-52.964 14.37 16.662-26.52 38.04-50.063 62.827-69.207 14.33-11.057 29.766-20.695 46.05-28.606"></path><path d="M371.188 200.039c1.087-.721 2.354-1.163 3.666-1.182 2.815-.116 5.637.015 8.444.297 7.367.713 14.666 2.02 21.913 3.525 22.66 4.822 44.792 11.949 66.266 20.616-1.214 5.48-3.13 10.88-6.278 15.564-2.064 3.004-4.587 5.66-7.048 8.337-4.222 4.417-8.728 8.584-13.652 12.21-4.023 2.912-8.318 5.644-13.15 6.963-1.46.455-2.934-.15-4.291-.635-5.677-2.242-11.21-5.072-17.274-6.14-3.388-.637-6.854-.27-10.242.154-9.373 1.303-18.354 4.472-27.183 7.77-11.44-6.707-23.052-13.12-34.705-19.455 2.836-5.653 5.928-11.176 9.11-16.642 4.976-8.398 10.202-16.706 16.546-24.154 2.37-2.662 4.847-5.308 7.878-7.228M496.913 234.69c.621.275 1.242.555 1.858.852 19.706 9.702 38.663 20.973 56.418 33.917 28.368 20.667 53.667 45.812 73.237 75.022 15.805 23.505 27.776 49.57 35.344 76.86.317 1.286.671 2.565 1.22 3.773-3.083 36.005-13.863 71.329-31.145 103.069.1-.852-.116-1.686-.332-2.495-2.82-10.94-7.076-21.462-12.016-31.605-10.16-20.738-23.272-39.912-37.732-57.874-21.98-27.169-47.206-51.57-73.926-74.035-2.249-1.747-4.245-3.85-6.693-5.315-4.403-10.217-8.65-20.55-12.937-30.833a2515 2515 0 0 1-10.816-26.366c-.693-1.508.203-3.086.834-4.446 2.21-4.203 4.986-8.07 7.552-12.058 1.665-2.6 3.544-5.088 4.775-7.939 2.316-5.25 3.42-10.93 4.303-16.57.535-6.965.741-13.958.535-20.94-.013-1.028-.276-2.022-.48-3.017m20.958 51.86c-6.54 7.381-12.441 15.297-18.483 23.09-.944 1.054-1.197 2.67-.504 3.927.757 1.538 2.754 2.298 4.342 1.634 1.229-.437 1.824-1.68 2.6-2.631 2.127-2.74 4.179-5.54 6.39-8.21a477 477 0 0 1 23.553 17.79c-2.755 4.028-5.535 8.044-8.39 11.996-1.017 1.414-.633 3.54.738 4.58 1.432 1.218 3.852.93 4.92-.638a635 635 0 0 0 8.081-11.557c2.797 2.027 5.349 4.377 8.022 6.562 3.715 3.188 7.467 6.34 11.048 9.682-2.185 3.47-4.632 6.78-7.365 9.837-.851.997-1.999 1.96-2.01 3.382-.197 2.193 2.052 4.131 4.196 3.586 1.362-.216 2.137-1.45 2.972-2.413 2.687-3.038 5.202-6.239 7.332-9.693 3.176 2.717 6.105 5.712 9.142 8.581.845.669.273 1.88.74 2.748.54 1.034 1.465 1.81 2.305 2.61.818.756 1.994.746 3.05.75 3.772 3.884 7.517 7.804 11.077 11.892.452.332-.03.78-.196 1.137-2.935 4.445-6.223 8.66-9.948 12.467-1.077 1.124-1.12 3.04-.218 4.283 1.095 1.624 3.658 1.95 5.088.587 3.844-3.885 7.188-8.235 10.322-12.708 3.851 4.673 7.614 9.42 11.148 14.344.3.488.982 1.043.446 1.617-2.4 3.282-5.287 6.21-8.495 8.706-1.182.92-2.842 1.626-3.083 3.293-.48 1.967 1.069 4.064 3.091 4.177 1.167.161 2.19-.513 3.07-1.184 3.682-2.66 6.982-5.85 9.808-9.407 3.36 4.975 6.111 10.322 8.869 15.647-2.553 2.775-5.312 5.54-8.765 7.162-1.265.542-2.048 1.95-1.907 3.311-.003 2.182 2.5 3.862 4.523 3.057 2.762-1.055 5.043-3.016 7.267-4.907 6.565-5.778 11.593-13.595 12.997-22.315.23-1.474-.687-3.008-2.057-3.56-1.404-.641-3.192-.175-4.118 1.055-.696.863-.696 2.028-.955 3.06-.55 2.314-1.34 4.594-2.548 6.654a176 176 0 0 0-9.046-15.297c2.57-4.617 4.511-9.61 5.392-14.837.136-1.254-.554-2.515-1.606-3.173-1.347-.878-3.288-.637-4.366.555-.988.99-.934 2.481-1.293 3.745-.638 2.49-1.377 5.001-2.634 7.256-3.81-5.18-7.763-10.27-12.015-15.097 1.568-3.329 3.236-6.633 4.316-10.164.388-1.389 1.17-2.88.58-4.328-.637-1.776-2.832-2.752-4.564-1.973-1.087.41-1.847 1.416-2.085 2.534-.757 2.833-1.906 5.541-3.115 8.206-.818-.7-1.498-1.536-2.21-2.33a458 458 0 0 0-7.486-7.909c-.723-.709-.134-1.825-.503-2.678-.464-1.101-1.447-1.855-2.266-2.682-.88-.872-2.19-.879-3.338-.779-3.558-3.427-7.115-6.86-10.777-10.182 2.045-4.065 3.986-8.192 5.558-12.463.452-1.264-.027-2.75-1.025-3.608-1.163-1.032-3.01-1.133-4.27-.221-1.036.645-1.321 1.895-1.74 2.958a101 101 0 0 1-3.81 8.486c-5.903-5.13-11.791-10.276-17.88-15.184-.252-.274-.928-.587-.537-1.02 1.596-2.499 3.198-4.992 4.698-7.545.49-.867 1.147-1.713 1.178-2.75.09-1.554-.991-3.068-2.485-3.489-1.473-.462-3.228.198-3.959 1.57-1.59 2.81-3.333 5.526-5.06 8.246-7.416-5.879-14.943-11.615-22.658-17.09-.36-.204-.366-.65-.055-.895 1.98-2.458 3.971-4.925 6.137-7.235 1.099-1.12 1.171-3.046.29-4.313-1.173-1.823-4.11-1.983-5.46-.295M332.075 255.34c1.155-.77 1.634-2.333 3.019-2.786.347.058.681.206 1 .37 8.206 4.466 16.384 8.99 24.51 13.602 1.815 1.09 3.742 2.005 5.456 3.256a51.5 51.5 0 0 1-7.713 2.415c-3.503.845-7.088-.082-10.518-.824-9.212-2.25-18.19-5.346-27.188-8.307 3.726-2.702 7.57-5.232 11.434-7.725"></path><path d="M507.287 366.637c3.408 2.735 6.671 5.644 9.977 8.502 24.861 21.787 48.248 45.41 68.438 71.638 13.428 17.527 25.506 36.233 34.519 56.438 4.411 10.072 8.253 20.513 9.989 31.413-10.928 18.762-24.125 36.234-39.304 51.76-4.068 1.9-8.216 3.663-12.588 4.745-12.096 3.105-24.912 2.574-36.998-.322-2.06-.517-4.114-1.064-6.11-1.786 4.588-10.567 8.736-21.384 11.541-32.578 1.543-6.442 2.767-13.082 2.234-19.731-.364-4.167-1.726-8.526-4.96-11.364-3.216-2.858-7.261-4.566-11.332-5.794-5.335-1.604-10.868-2.365-16.384-3.022 2.697-1.367 5.228-3.034 7.742-4.71 3.934-2.668 7.75-5.542 11.176-8.85 2.79-2.69 5.323-5.7 7.094-9.166 3.278-6.195 5.812-12.776 7.666-19.529.679-2.76 1.511-5.646.868-8.497-.877-4.245-2.513-8.282-4.124-12.29-5.418-12.927-11.895-25.38-18.215-37.878-1.972-3.735-3.685-7.597-5.36-11.474-2.684-6.066-5.449-12.097-8.01-18.214-1.777-4.013-3.087-8.209-4.903-12.202-.975-2.37-2.07-4.688-2.956-7.089M466.279 519.13c3.424-2.203 7.392-3.757 11.522-3.662-.03 1.042.406 2.2-.152 3.164-15.443 24.484-34.678 46.575-56.877 65.164-24.455 20.51-52.388 36.818-82.15 48.314-12.724 4.869-25.767 8.967-39.12 11.715-1.795.434-3.688.482-5.407 1.209-8.253-3.561-16.297-7.598-24.141-11.978 6.313-11.531 13.387-22.616 20.585-33.603 2.302-3.477 4.558-6.994 7.284-10.159 5.857-6.907 12.52-13.094 19.493-18.858 3.677-2.986 7.4-5.977 11.635-8.148 7.852-4.086 16.494-6.646 25.296-7.558 3.51-.333 7.078-.382 10.56.244 5.123 1.046 10.394.912 15.588.598 9.838-.709 19.589-2.35 29.209-4.521 8.055-1.877 16.196-3.856 23.588-7.686 7.631-3.827 14.408-9.102 20.865-14.627 3.968-3.333 7.835-6.826 12.222-9.607"></path><path d="M483.399 519.035c2.095 2.217 4.65 4.292 7.708 4.908 4.966-.023 9.685-1.87 14.404-3.2 8.446.615 16.986 1.151 25.182 3.456 3.472 1.024 6.96 2.352 9.776 4.699 1.677 1.386 2.618 3.455 3.092 5.541.758 3.464.61 7.05.232 10.557-.683 5.812-2.127 11.508-3.81 17.103-3.14 10.236-7.165 20.186-11.611 29.918-.952 2-1.773 4.087-3.09 5.887-1.544 2.122-3.4 3.993-5.37 5.715-3.65 3.195-7.642 5.964-11.717 8.574-7.654 4.855-15.669 9.105-23.776 13.131-10.756 5.327-21.748 10.155-32.758 14.924-2.543 1.164-5.248 2.1-7.418 3.918-3.179 2.617-5.903 5.737-8.54 8.887-3.41 4.117-6.624 8.389-9.717 12.743-30.059 2.91-60.607.71-89.926-6.533-11.426-2.867-22.718-6.375-33.63-10.82.735-.208 1.468-.43 2.212-.6 7.918-1.776 15.72-4.046 23.421-6.603 30.306-10.156 58.972-25.217 84.486-44.472a284.3 284.3 0 0 0 59.722-61.164c3.902-5.387 7.503-10.988 11.128-16.57"></path><path d="M529.238 601.005c1.688-2.214 2.7-4.831 3.905-7.319 13.49 4.395 28.083 5.888 42.083 3.28 2.063-.332 4.042-1.06 6.129-1.251-7.86 7.472-16.315 14.305-25.066 20.71-29.972 21.783-64.54 37.222-100.803 44.861-7.506 1.575-15.078 2.888-22.703 3.733 3.238-4.478 6.671-8.818 10.391-12.906 2.147-2.247 4.331-4.631 7.268-5.837 15.36-6.708 30.776-13.363 45.576-21.257 7.82-4.194 15.536-8.632 22.66-13.948 3.875-2.94 7.638-6.143 10.56-10.066"></path></g><path d="M487.893 723.713c-64.466 17.461-134.18 15.128-197.26-6.871-26.482-9.216-51.801-21.767-75.138-37.314-31.366-20.855-59.19-47.032-81.882-77.098-29.507-38.913-50.284-84.41-60.303-132.21-6.162-29.245-8.329-59.313-6.576-89.145-13.757-.873-27.51-1.743-41.261-2.62-2.906 47.897 3.321 96.358 18.563 141.872 14.741 44.219 37.898 85.589 67.777 121.355a377.4 377.4 0 0 0 73.437 67.447c42.448 29.737 91.142 50.521 142.008 60.477 56.618 11.135 115.797 9.111 171.488-6.021-3.607-13.295-7.233-26.582-10.853-39.872M377.48 26.684c30.632-1.817 61.486.046 91.655 5.665 48.38 8.953 94.906 27.661 136.064 54.602a377.3 377.3 0 0 1 83.597 74.525c33.683 40.432 58.744 88.028 72.853 138.734 18.147 64.897 18.374 134.686.71 199.714-13.16-3.573-26.31-7.163-39.467-10.746 14.952-54.78 15.626-113.373 2.012-168.496a332 332 0 0 0-29.602-77.056c-15.308-28.63-34.829-54.998-57.707-78.03-32.85-33.124-72.689-59.321-116.205-76.172-23.604-9.2-48.28-15.634-73.356-19.217-22.561-3.224-45.445-4.106-68.192-2.75-.778-13.589-1.572-27.183-2.361-40.773"></path><path d="M325.852 103.894c55.938-13.9 115.808-11.711 170.52 6.471 44.478 14.701 85.424 39.852 118.746 72.767 23.702 23.37 43.6 50.595 58.589 80.32a304.3 304.3 0 0 1 27.707 82.472c5.275 28.847 6.37 58.45 3.34 87.619-2.808 26.984-9.228 53.597-19.07 78.878-17.308 44.635-45.346 85.023-80.964 116.993a307 307 0 0 1-55.908 39.935c-22.318 12.405-46.18 22.038-70.88 28.51-56.998 14.984-118.326 13.143-174.275-5.411a306.3 306.3 0 0 1-87.33-45.626 558 558 0 0 1 16.513-23.767c13.145-17.58 26.648-34.886 40.13-52.202 7.09-7.436 14.297-14.765 21.53-22.062 7.426-7.295 15.927-13.602 25.441-17.897 5.463-2.43 11.227-4.278 17.171-5.036 3.458-.462 6.952-.247 10.432-.296 10.069.07 20.15-.192 30.211.252 8.642-1.293 17.003-4.039 25.077-7.337a154 154 0 0 0 14.54-6.966c3.595-1.946 6.994-4.225 10.482-6.343 4.844-3.01 9.703-6.01 14.541-9.029 4.159-2.801 8.403-5.53 12.99-7.587 1.763-.757 3.582-1.514 5.52-1.66 10.064-.07 20.127-.031 30.183-.031 4.453-.865 8.498-3.288 11.886-6.245a99 99 0 0 0 8.513-12.763c1.356-2.25 1.927-4.934 1.813-7.54-.036-1.382-.758-2.586-1.294-3.82q-6.676-14.804-13.35-29.61c-3.792-8.516-7.769-16.956-11.368-25.558-13.482-31.7-27.017-63.38-40.74-94.977-.672-1.418-.907-3.033-.586-4.572.554-2.732 2.152-5.077 3.576-7.419 2.082-3.321 4.147-6.85 4.519-10.833-2.998.395-5.347 2.442-7.75 4.089-3.281 2.356-6.85 4.358-10.704 5.604-6.726 2.211-13.906 2.551-20.93 2.176-1.524-.023-2.93-.686-4.321-1.23a46 46 0 0 1-6.797-3.512c-2.235.837-4.591 1.275-6.853 2.016-3.803 1.125-7.357 2.92-11.028 4.381-3.694 1.517-7.445 2.884-11.23 4.154-.697.241-1.447.29-2.177.352-4.648.375-9.304.717-13.97.735-3.03-.023-6.086-.189-9.03-.965-5.479-1.379-10.859-3.141-16.238-4.873-12.816-4.15-25.493-8.72-38.279-12.958-11.077-3.678-22.188-7.317-33.528-10.089-4.395-1.011-8.831-2.072-13.359-2.203-5.128-.003-10.17 1.182-15.107 2.465-10.095 2.673-19.82 6.525-29.713 9.822-2.647.685-5.14 1.81-7.686 2.783-12.394 4.862-24.776 9.753-37.19 14.556-5.759 2.246-11.55 4.417-17.223 6.893-13.053 5.701-25.76 12.164-38.314 18.9 8.093-32.49 21.681-63.59 39.89-91.681 24.044-37.147 56.21-69.004 93.605-92.661 27.594-17.488 58.013-30.521 89.727-38.384m-20.517 48.723c-4.705 1.842-9.447 3.644-13.975 5.882-2.62.973-5.102 2.29-7.625 3.487-16.284 7.912-31.72 17.548-46.052 28.605a267.5 267.5 0 0 0-62.827 69.208c17.063-6.687 34.823-11.703 52.966-14.37 1.996-.302 4.001-.529 6-.802 4.77-.455 9.542-.95 14.338-1.067 4.052-.03 8.077.59 12.048 1.34 6.885 1.34 13.659 3.188 20.389 5.16 11.475 3.405 22.817 7.232 34.16 11.042 1.966.65 3.921 1.32 5.889 1.967 8.996 2.961 17.976 6.056 27.187 8.307 3.43.744 7.015 1.67 10.52.824a51.5 51.5 0 0 0 7.712-2.415l.043.03c2.093-.735 4.166-1.533 6.257-2.292 8.83-3.3 17.81-6.466 27.183-7.77 3.388-.427 6.853-.793 10.242-.155 6.064 1.067 11.593 3.897 17.272 6.14 1.363.486 2.834 1.09 4.292.637 4.833-1.32 9.128-4.051 13.15-6.963 4.928-3.626 9.429-7.794 13.653-12.21 2.457-2.68 4.983-5.333 7.047-8.338 3.147-4.684 5.064-10.082 6.28-15.564.272-1.394.595-2.778.759-4.187 1.563-9.912 1.203-20.012.355-29.975-.169-2.882-.727-5.765-.483-8.656.151.145.465.436.625.58 1.793 2.378 3.72 4.655 5.48 7.058 8.826 12.014 13.844 26.336 17.343 40.697.501 1.949.928 3.912 1.352 5.877.207.997.467 1.99.489 3.015.206 6.985 0 13.978-.534 20.94-.884 5.64-1.989 11.322-4.305 16.573-1.229 2.85-3.113 5.338-4.771 7.939-2.572 3.987-5.344 7.854-7.555 12.056-.634 1.362-1.526 2.938-.834 4.448 3.548 8.809 7.173 17.59 10.815 26.365 4.286 10.284 8.535 20.615 12.937 30.833 1.328 3.278 2.672 6.562 4.135 9.78.887 2.4 1.982 4.72 2.956 7.085 1.816 3.992 3.126 8.189 4.903 12.202 2.562 6.117 5.327 12.145 8.01 18.214 1.676 3.876 3.389 7.737 5.359 11.474 6.326 12.501 12.8 24.95 18.217 37.877 1.611 4.009 3.247 8.042 4.123 12.29.644 2.85-.189 5.73-.867 8.497-1.855 6.75-4.39 13.336-7.667 19.53-1.77 3.465-4.304 6.472-7.093 9.166-3.428 3.3-7.242 6.181-11.18 8.849-2.512 1.676-5.041 3.343-7.738 4.71-3.542 1.546-7.157 2.92-10.801 4.208-4.72 1.33-9.438 3.18-14.404 3.198-3.057-.613-5.609-2.688-7.707-4.905-1.582-1.556-3.23-3.413-5.6-3.566-4.129-.093-8.092 1.462-11.521 3.663-4.387 2.781-8.255 6.271-12.22 9.598-6.457 5.53-13.233 10.806-20.864 14.629-7.392 3.83-15.533 5.809-23.59 7.686-9.614 2.17-19.37 3.812-29.207 4.52-5.193.315-10.464.449-15.589-.599-3.48-.627-7.05-.576-10.56-.244-8.803.914-17.444 3.477-25.295 7.559-4.234 2.169-7.958 5.168-11.636 8.148-6.972 5.767-13.635 11.955-19.492 18.86-2.726 3.164-4.982 6.686-7.284 10.157-7.198 10.988-14.272 22.073-20.585 33.604 7.844 4.383 15.89 8.415 24.14 11.976 2.75 1.2 5.51 2.383 8.323 3.413 10.914 4.45 22.202 7.958 33.63 10.818 29.319 7.245 59.868 9.444 89.923 6.535 2.27-.241 4.553-.442 6.81-.785 7.626-.844 15.199-2.157 22.705-3.732 36.262-7.64 70.83-23.079 100.802-44.86 8.748-6.405 17.207-13.24 25.068-20.712 3.305-2.976 6.477-6.108 9.55-9.325 15.177-15.53 28.373-32.997 39.303-51.76a386 386 0 0 0 3.641-6.447c17.282-31.74 28.061-67.058 31.146-103.068.494-4.935.828-9.9.889-14.863.259-1.906.091-3.835.177-5.745.53-36.08-6.399-72.262-20.305-105.567-14.006-33.72-35.148-64.404-61.456-89.708l-.09-.03a224 224 0 0 0-10.665-9.686l-.116-.02c-1.026-1.106-2.262-1.987-3.391-2.975-30.739-25.56-67.29-44.143-106.145-53.61-1.64-.393-3.27-.812-4.911-1.175-50.807-11.488-104.994-7.776-153.653 10.89"></path><path d="M339.265 325.292c.779-1.345 2.498-1.633 3.92-1.495 2.183.054 4.127 1.14 6.087 1.98 5.52 2.543 10.968 5.237 16.373 8.013 3.782 2 7.674 3.825 11.257 6.168-1.444 2.724-3.286 5.218-5.178 7.641-.533.547-.959 1.415-1.8 1.48-.875-.067-1.652-.503-2.412-.89-1.967-1.092-3.88-2.28-5.855-3.36-.805-.365-1.73-.897-2.635-.566-.818.472-.604 1.59-.539 2.377.058 1.395 1.087 2.43 1.82 3.528 1.58 2.197 3.366 4.251 4.764 6.576.443.616.03 1.351-.217 1.959-1.124 2.348-2.525 4.55-3.923 6.744-4.379-4.504-8.656-9.117-12.603-14.01-4.71-5.607-7.445-12.585-9.142-19.637-.424-2.119-1.082-4.509.083-6.508M409.062 345.183c2.936-.25 6.092-.224 8.742 1.245 3.837 1.982 7.313 4.632 10.361 7.686 2.174 2.202 3.958 4.747 6.12 6.957 1.982 2.037 4.338 3.648 6.712 5.193 1.636 1.026 3.252 2.1 5.042 2.856 4.692 2.064 10.08 2.395 15.037 1.128-2.034 2.365-4.106 4.703-6.292 6.932-1.604 1.6-3.205 3.272-5.226 4.353-2.554 1.441-5.451 2.621-8.444 2.284a64 64 0 0 1-9.16-1.857c-2.282-.604-4.389-1.72-6.425-2.897-2.464-1.465-4.002-4.09-4.649-6.825-.973-4.078-1.014-8.34-.491-12.48.286-2.245 1.342-4.452.94-6.744-.4-.95-1.412-1.467-2.182-2.08-3.194-2.206-6.733-3.82-10.085-5.751M34.246 297.838c.285-.296.642-.512.98-.74.734.752.58 1.842.51 2.795-.129 1.639-.76 3.314-.156 4.936.793 2.348 2.95 3.76 4.694 5.358 2.158 1.706 4.04 3.721 6.145 5.49 9.612 8.454 19.609 16.463 29.718 24.312.552.555.702 1.572.212 2.217-.452.536-1.172.683-1.81.882-13.345 3.783-26.43 8.395-39.516 12.985-3.3 1.178-6.773 2.21-9.54 4.447-2.54 2.189-2.917 5.782-2.935 8.929-.209.091-.62.277-.825.372-1.081-.762-1.001-2.247-1.035-3.416-.049-2.1.683-4.09 1.04-6.132.627-3.432 1.06-6.898 1.198-10.38.13-1.883.055-3.803.538-5.637.113-.782 1.502-.668 1.575.097.113 1.186-.274 2.523.435 3.588.455.68 1.401.671 2.083.377 11.607-4.197 23.258-8.337 35.191-11.539.818-.213 1.615-.824 1.745-1.706-.295-1.365-1.572-2.138-2.573-2.967-7.46-6.067-14.893-12.175-22.018-18.638-1.212-1.12-2.487-2.185-3.849-3.12-.607-.345-1.303-.781-2.027-.614-.935.373-1.744 1.12-2.066 2.09-.435 1.243-.848 2.495-1.364 3.71-1.15.074-1.032-1.235-.896-2.028.71-4.545 3.225-8.555 4.098-13.06.163-.864.176-1.768.448-2.608M59.96 230.88c.195-.674 1.238-1.066 1.65-.433-.932 2.299-2.33 4.646-1.888 7.23.325 1.503 1.846 2.22 3.045 2.947 10.583 5.103 21.187 10.165 31.746 15.329 1.538.694 3.189 1.479 4.926 1.156 1.127-.099 2.075-.773 3.153-1.04.489-.038.705.665.497 1.034-.633 1.39-1.354 2.74-1.99 4.13-.653 1.444-1.612 2.83-3.037 3.603-1.855.99-3.87 1.633-5.85 2.319-8.804 2.964-17.35 6.622-25.769 10.534-6.17 2.839-12.199 5.971-18.183 9.188 8.116 2.755 16.312 5.269 24.43 8.012 2.8.886 5.513 2.06 8.396 2.659 1.034.258 2.197-.026 2.929-.818 1.223-1.08 1.473-2.787 2.293-4.127.226-.563.869-.357 1.334-.377-.468 1.846-1.12 3.644-1.838 5.409-1.82 3.752-2.405 7.923-3.692 11.86-.16.635-.901.627-1.427.651.272-2.124 1.389-4.27.613-6.419-.336-1.386-1.706-2.072-2.917-2.545-11.81-3.874-23.628-7.72-35.436-11.604-3.021 1.661-6.162 3.801-7.235 7.272-.377-.174-.945-.188-.951-.74-.285-1.873.812-3.512 1.367-5.218 1.007-2.84 1.959-5.704 2.705-8.625.172-.678.538-1.337 1.193-1.64 7.35-4.19 14.99-7.842 22.734-11.233 9.231-4.087 18.746-7.462 28.286-10.74-10.14-4.763-20.364-9.354-30.542-14.036-1.235-.532-2.669-1.316-3.99-.607-1.967 1.104-2.577 3.406-3.795 5.146-.3.503-.885.294-1.337.212 1.233-3.612 3.365-6.832 4.933-10.301 1.208-2.732 2.364-5.492 3.647-8.188M69.108 217.878c.872-1.081 2.06-2.121 3.525-2.153 1.636-.125 3.179.864 4.056 2.2 1.203 1.798.87 4.209-.046 6.06-1.462 3.26-5.164 5.611-8.763 4.803-2.454-.468-4.099-2.9-4.212-5.299-.089-2.659.744-5.306 2.09-7.578.33.84.02 1.727-.094 2.584-.162 1.158-.305 2.348-.07 3.508.329 1.236 1.374 2.066 2.363 2.79-.997-2.283-.437-5.047 1.15-6.915"></path><path d="M85.82 216.617c.433-.744.877-1.535 1.665-1.953.162.497.438 1.046.119 1.547-.945 1.73-2.175 3.457-2.2 5.509-.033 1.301 1.023 2.276 2.075 2.87q8.596 4.928 17.194 9.863c1.927 1.104 3.844 2.347 6.05 2.813 1.674-.113 2.764-1.633 3.667-2.884.644-.825.964-2.284 2.31-2.049-.101 1.273-.992 2.255-1.569 3.34-1.55 2.697-3.169 5.36-4.758 8.037-1.625 3.134-3.2 6.297-4.878 9.4-.25.556-.938.416-1.42.43.425-1.705 1.64-3.23 1.551-5.05-.308-1.383-1.544-2.317-2.705-2.997-6.886-3.672-13.768-7.357-20.658-11.028-1.203-.564-2.701-1.023-3.957-.363-1.61 1.104-2.172 3.094-3.325 4.585-.471-.455-.874-1.12-.435-1.743 1.74-3.342 3.596-6.623 5.517-9.866 1.83-3.535 3.754-7.02 5.757-10.461M111.316 191.838c1.209-.352 2.62-.177 3.56.712 1.35 1.223 1.403 3.298.89 4.931-.832 2.433-2.967 4.628-5.634 4.824-1.661.159-3.3-1.046-3.627-2.68-.716-3.294 1.62-6.869 4.81-7.787"></path><path d="M107.958 169.6c4.093-.617 8.232.589 11.939 2.269 5.15 2.444 9.68 6.2 12.978 10.853 2.292 3.172 3.969 6.863 4.316 10.794.842 5.122-.257 10.466-2.816 14.96-1.249 2.237-2.917 4.196-4.569 6.143-1.341 1.57-2.614 3.236-4.305 4.447-3.811 2.882-8.497 4.79-13.33 4.659-4.96-.061-9.56-2.193-13.921-4.348-4.997-2.467-9.41-6.393-11.752-11.516-1.59-3.565-2.502-7.516-2.155-11.426.327-4.1 2.097-7.915 4.131-11.435 2.594-4.332 5.946-8.264 10.041-11.251 2.82-2 5.998-3.633 9.443-4.15m-6.532 7.412c-3.727.532-7.063 2.889-9.09 6.024-2.408 3.438-3.211 7.938-2.149 11.996.918 3.578 2.912 6.831 5.504 9.444 4.44 4.585 10.04 7.9 15.96 10.201 3.862 1.497 8.202 2.21 12.259 1.113 2.453-.857 4.771-2.435 6.067-4.737 1.692-2.67 2.418-5.936 1.963-9.066-.64-4.764-3.158-9.062-6.241-12.667-3.705-4.251-8.316-7.698-13.36-10.194-3.358-1.67-7.157-2.61-10.913-2.114M153.59 112.3c.93-.82 1.73-1.798 2.779-2.47.546-.377 1.044.11 1.392.494-1.418 1.276-2.92 2.54-3.91 4.2-.519.922-.984 2.042-.583 3.099.738 1.733 2.09 3.083 3.316 4.48 7.171 8.134 14.358 16.256 21.473 24.436 1.153 1.257 2.39 2.649 4.126 3.046 1.17.348 2.402.128 3.6.314.223 1.142-.935 1.638-1.606 2.313-1.56 1.258-2.896 2.897-4.834 3.588-1.787.587-3.71.35-5.553.285-16.579-1.395-33.263-.915-49.828.422 6.883 6.195 14.004 12.123 20.885 18.324 1.75 1.543 3.403 3.217 5.366 4.499.79.517 1.829.68 2.71.302 1.577-.483 2.46-2.002 3.773-2.892.44-.341.896.053 1.303.233a38.6 38.6 0 0 1-4.847 5.207c-2.525 2.54-4.429 5.614-6.81 8.28-.385.54-1.777.13-1.22-.567 1.357-1.722 3.06-3.621 2.692-5.995-.36-1.35-1.48-2.33-2.498-3.211-9.105-7.934-18.183-15.896-27.282-23.832-1.899.195-3.8.48-5.6 1.119-1.464.523-2.69 1.513-3.771 2.595-.317-.28-.696-.594-.552-1.074.36-1.371 1.42-2.394 2.429-3.321 2.33-2.446 4.558-4.991 6.618-7.663.408-.526 1.016-.907 1.703-.904 18.314-1.865 36.787-1.398 55.112.135a14949 14949 0 0 0-22.922-25.046c-.851-.886-1.781-1.973-3.128-1.944-2.13.19-3.608 1.867-5.244 3.049-.366.25-.925.505-1.281.098-.507-.21.014-.69.206-.91 2.09-1.993 4.35-3.797 6.573-5.637 1.876-1.6 3.573-3.404 5.414-5.052M162.276 104.611a13.42 13.42 0 0 1 4.874-6.006c-.428 1.706-1.806 2.964-2.325 4.64-.682 1.474-.003 3.095.84 4.343-.032-2.36 1.422-4.572 3.449-5.71 1.23-.717 2.717-1.255 4.14-.837 2.571.757 3.866 4.016 2.785 6.408-1.785 4.225-7.482 6.53-11.538 4.106-2.42-1.297-3.192-4.49-2.225-6.944M185.739 106.714c.525-.324 1.083-.857 1.752-.7a1.45 1.45 0 0 1-.61 1.528c-1.517 1.15-3.232 2.281-3.996 4.106-.538 1.181.084 2.47.81 3.416q5.335 7.002 10.665 14.012c1.81 2.244 3.307 4.807 5.635 6.58.555.426 1.309.325 1.953.185 1.58-.415 2.908-1.415 4.23-2.34.367-.327 1.346-.272 1.273.364-.2.294-.454.54-.726.764a785 785 0 0 1-9.375 6.948c-2.695 2.261-5.365 4.557-8.124 6.736-.486.422-1.015-.032-1.433-.299 1.075-1.066 2.287-2.034 3.12-3.313.815-1.412-.118-3.058-.952-4.237-4.888-6.058-9.796-12.103-14.69-18.156-.893-1.052-2.089-2.09-3.539-2.106-1.941.312-3.24 1.95-4.872 2.9-.26-.489-.514-1.144.016-1.556 2.985-2.565 6.145-4.911 9.282-7.281a210 210 0 0 1 9.58-7.551"></path><path d="M197.513 78.96c2.871-1.727 6.047-3.074 9.407-3.42 2.372-.229 4.783.41 6.862 1.535 1.264.613 1.437 2.21 1.225 3.443-.377 2.415-2.096 4.391-4.089 5.693-.405-2.232-1.83-4.245-3.836-5.318-2.077-1.142-4.597-1.846-6.933-1.123-2.188.68-4.04 2.127-5.693 3.669-1.982 1.826-2.926 4.577-2.84 7.236.042 1.659 1.111 3.013 1.864 4.417.933 1.659 2.81 2.656 4.702 2.548 6.009-.067 11.534-2.897 17.464-3.51 3.687-.442 7.596.04 10.824 1.964 2.892 1.808 4.673 4.844 6.194 7.802 1.553 3.643 1.423 7.963-.344 11.505-1.799 3.64-4.838 6.505-8.174 8.734-3.219 2.19-6.832 3.748-10.543 4.889-3.025.657-6.471.857-9.17-.924-2.161-1.572-3.966-3.932-4.226-6.66-.231-2.155 1.011-4.165 2.531-5.583 1.67-1.508 3.876-2.1 5.98-2.717-.883 1.224-1.56 2.694-1.392 4.24.314 2.964 1.89 5.742 4.1 7.717 1.562 1.415 3.897 1.418 5.818.845 2.85-.883 5.69-2.173 7.773-4.372 1.478-1.598 2.72-3.42 3.61-5.408 1.095-2.409.973-5.34-.333-7.645-1.484-2.427-3.925-4.164-6.559-5.157-2.79-1.046-5.846-.896-8.742-.457-5.4.823-10.425 3.536-15.964 3.495-3.3-.018-6.917-.778-9.17-3.385-2.378-2.467-2.808-6.18-2.256-9.427.616-3.048 1.997-5.948 3.938-8.375 2.2-2.599 5.07-4.518 7.972-6.25M216.525 67.671c11.632-6.523 23.622-12.414 35.872-17.682 2.41 1.889 4.844 3.76 7.21 5.71.378.273.34.776.442 1.183-1.133.386-2.176-.358-3.185-.767-1.906-.811-3.876-1.959-6.028-1.567-3.51.66-6.929 1.854-10.088 3.516q8.072 17.05 16.146 34.101c1.214 2.392 2.074 5.033 3.946 7.024.686.552 1.662.415 2.478.318 1.421-.183 2.662-.947 4.02-1.347.515-.192.833.276 1.13.605-1.247.883-2.706 1.374-4.063 2.042-3.953 1.936-8.148 3.38-11.878 5.754a295 295 0 0 1-4.799 2.508c-.527.355-1.034-.109-1.456-.384 1.323-1.24 3.302-1.798 4.22-3.446.665-1.584-.407-3.12-1.093-4.49-6.36-12.475-12.76-24.932-19.102-37.416-2.566 1.136-5.038 2.505-7.25 4.24-1.17.941-2.473 1.84-3.153 3.225-.964 2.06-1.084 4.394-1.881 6.508-.356.939-1.324.107-1.228-.584-.148-3.015-.167-6.033-.26-9.05M280.101 39.811c-.026-.904.877-1.75 1.783-1.485.623.327 1.068.89 1.584 1.359 6.008 5.917 11.712 12.132 17.416 18.334 4.735 5.144 9.314 10.431 13.933 15.678 1.33 1.374 2.426 3.153 4.34 3.779 1.795.779 3.773.128 5.5-.52.137.354.419.757.125 1.121-.68.683-1.653.927-2.548 1.188-3.877.915-7.916 1.352-11.571 3.033-1.366.515-2.678 1.24-4.118 1.511-.564.067-.602-.94-.144-1.126.73-.452 1.672-.742 2-1.627.015-.635-.505-1.084-.862-1.544-2.097-2.36-4.196-4.723-6.24-7.13-2.123-2.57-4.593-4.818-6.904-7.217-.235.74-.585 1.447-1.153 1.988-1.343 1.319-2.906 2.49-4.72 3.065-2.96 1.093-6.1 1.56-9.231 1.846a447 447 0 0 0-.502 15.973c.025 1.02.136 2.32 1.212 2.787 1.184.499 2.396-.38 3.614-.35.485-.126.723.363.99.661-1.877 1.475-4.286 1.847-6.506 2.537-1.825.538-3.437 1.584-5.219 2.232-.23-.297-.47-.576-.72-.849 1.281-.627 2.685-1.248 3.48-2.505.945-1.607 1.131-3.533 1.076-5.364-.048-4.928.517-9.834.602-14.755-2.247.164-4.653-.215-6.74.83-2.353 1.111-4.094 3.108-6.195 4.583 1.808-3.572 4.22-7.036 7.62-9.259 1.698-1.095 3.609-1.836 5.579-2.284a476 476 0 0 1 2.52-26.49m.262 13.382c-.394 4.34-.664 8.693-.927 13.044 2.67.006 5.286.663 7.96.693 2.424.082 4.922-.462 6.848-2.006-4.271-4.26-8.377-8.693-12.762-12.836-.756-.595-1.106.508-1.12 1.105M335.454 24.777c3.906-.694 7.996-.92 11.837.205 2.232.674 4.19 2.119 5.713 3.858.907.941.61 2.394.01 3.416-1.317 2.304-3.883 3.571-6.41 4.045.51-2.168-.042-4.54-1.475-6.25-1.69-2.063-4.129-3.766-6.888-3.771-2.332-.02-4.628.635-6.774 1.505-2.423 1.014-4.268 3.144-5.213 5.568-.588 1.522-.132 3.155.042 4.71.221 1.83 1.526 3.433 3.266 4.04 6.266 2.46 13.237 1.57 19.595 3.664 3.185.959 6.195 2.728 8.335 5.306 2.213 2.807 2.75 6.483 3.015 9.941-.035 3.324-1.36 6.62-3.603 9.072-2.932 3.156-7.009 4.984-11.124 6.018-4.495 1.16-9.188 1.378-13.8 1.003-3.058-.529-6.372-1.552-8.244-4.214-1.505-2.31-2.278-5.32-1.352-7.994.611-1.764 2.2-2.967 3.834-3.743 2.356-1.126 5.03-.848 7.545-.627-1.325.796-2.556 1.907-3.025 3.424-.882 2.781-.496 5.879.742 8.493.908 2.051 3.229 2.964 5.333 3.153 3.05.247 6.236.091 9.086-1.118 2.116-.945 4.096-2.21 5.806-3.78 2.15-1.967 3.272-5.113 2.58-7.977-.987-3.635-3.664-6.75-7.052-8.375-3.807-1.813-8.046-2.326-12.199-2.653-3.892-.25-7.9-.674-11.427-2.458-1.962-1.032-3.926-2.31-5.062-4.27-1.295-2.138-1.697-4.792-.96-7.193.93-3.763 3.688-6.747 6.732-8.99 3.236-2.386 7.248-3.336 11.137-4.008M519.03 720.423c3.117-.662 6.433-1.031 9.557-.209 4.327 1.367 7.331 5.297 8.729 9.475 1.189 3.741 1.082 8.07-.997 11.485-1.18 2.08-3.105 3.63-5.216 4.686-2.018.974-4.17 1.622-6.276 2.36-2.95.876-5.8 2.054-8.746 2.967-.344.155-1.062.116-.815-.422.74-.341 1.548-.558 2.21-1.049.673-.553.529-1.541.285-2.262-2.17-6.605-4.328-13.216-6.486-19.824-.404-1.046-.523-2.393-1.61-2.982-.94-.281-1.889.217-2.816.314.035-.947 1.054-.903 1.713-1.16 3.554-.906 6.905-2.488 10.467-3.379m1.01 1.324a56 56 0 0 0-4.47 1.446c2.742 7.962 5.537 15.91 8.274 23.882 1.816-.331 3.503-1.123 5.192-1.847 1.944-.915 3.519-2.631 3.965-4.763.805-3.238.078-6.651-1.192-9.668-1.301-3.003-3.097-5.951-5.855-7.817-1.685-1.211-3.88-1.763-5.913-1.233M546.526 707.41c.98.35 1.798 1.012 2.668 1.581.883.616 1.844 1.182 2.537 2.036-.91-.045-1.622-.708-2.508-.83-.849-.15-1.686.11-2.435.475-1.738.817-3.493 1.597-5.244 2.382 1.562 3.517 3.088 7.052 4.674 10.56.507-.419.8-1.026 1.241-1.501 1.287-1.5 3.22-2.595 5.24-2.453 1.622.086 3.312.338 4.88-.219.604-.296 1.113-.757 1.674-1.12-.152 1.217-1.009 2.213-2.029 2.833-2.452 1.593-5.49 1.517-8.266 2.005-.906.208-1.604.87-2.31 1.423 1.636 3.827 3.357 7.617 5.109 11.4 2.394-.919 4.734-1.968 7.052-3.058 1.311-.636 2.66-1.362 3.566-2.545.751-.942 1.206-2.072 1.902-3.051.158 1.018-.337 1.961-.55 2.939-.412 1.546-.628 3.153-1.211 4.652-.349-.433-.48-1.127-1.067-1.275-1.253.29-2.336 1.031-3.533 1.482-2.84 1.087-5.57 2.426-8.373 3.602-1.929.816-3.742 2.137-5.873 2.321-.061-.127-.18-.38-.237-.508.82-.43 1.758-.757 2.391-1.47.445-.643.21-1.491-.045-2.15-2.76-6.545-5.537-13.086-8.29-19.633-.279-.672-.693-1.351-1.369-1.661-.983-.21-1.92.273-2.833.55-.078-.794.818-1.077 1.398-1.33 2.391-.792 4.74-1.74 6.962-2.937 1.722-.935 3.624-1.51 5.269-2.573.639-.613-.24-1.305-.39-1.926M576.61 692.87c2.254-1.002 5.176-.94 7.032.829.842 1.601-.125 3.486-1.484 4.453-.613-2.252-2.728-3.949-5.049-4.087-1.52.1-2.82 1.104-3.783 2.219-.927 1.35-1.183 3.238-.39 4.713.47 1.145 1.22 2.41 2.574 2.604 3.397.552 6.645-1.093 10.03-1.04 2.513-.053 5.178.83 6.783 2.856 1.16 1.478 2.304 3.12 2.479 5.055.328 2.207-.535 4.442-1.966 6.107-1.604 1.903-3.763 3.263-6.034 4.223-1.975.768-4.084 1.484-6.23 1.174-2.816-.219-5.04-3.272-4.397-6.01.664-2.08 2.887-2.925 4.867-3.187-1.697 1.968-.652 4.86.831 6.63.843 1.09 2.375 1.216 3.627.89 1.93-.471 3.847-1.384 5.085-2.998 1.074-1.35 2.093-3.002 1.81-4.802-.31-2.399-2.49-4.035-4.617-4.817-3.147-1.02-6.412.05-9.535.605-2.577.433-5.604.029-7.44-2.002-1.999-2.218-1.858-5.654-.549-8.182 1.177-2.628 3.846-4.099 6.355-5.234" data-source="https://football-logos.cc"></path><path d="M593.575 681.336c.782-.183 1.387.412 2.007.793 5.552 3.711 11.17 7.327 16.928 10.703 2.027 1.172 4.026 2.414 6.15 3.41 1.408.633 2.783-.252 3.806-1.167.665.256.113.976-.23 1.258-1.825 1.511-4.042 2.488-5.765 4.135-.727.587-1.341 1.386-2.24 1.703-.535-.658.585-1.22.79-1.847-1.4-1.12-3.047-1.86-4.51-2.875-1.786-1.23-3.696-2.25-5.54-3.374-.452 3.227-3.901 4.561-6.621 5.41.73 3.167 1.136 6.419 1.987 9.551.736 1.46 2.177-.271 3.302.054-.627 1.183-1.987 1.604-3.092 2.207-1.042.48-1.894 1.267-2.893 1.81a28 28 0 0 1-.583-.313c.693-.57 1.57-1.087 1.813-2.014.317-1.053.083-2.149-.122-3.185-.514-2.56-.836-5.156-1.364-7.715-1.172.235-2.463.292-3.442 1.06-1.06.814-1.75 1.98-2.673 2.931.778-2.997 2.36-6.11 5.367-7.376-.761-3.861-1.58-7.711-2.438-11.549-.238-1.207-.648-2.38-.637-3.61m2.38 7.143c.397 2.62 1.14 5.174 1.633 7.776 2.485-.284 5.56-.016 7.21-2.312-2.197-1.318-4.344-2.711-6.483-4.123-.763-.49-1.483-1.077-2.36-1.341M616.313 665.4c.456-.419.976-.773 1.566-.982.011 1.168-1.366 1.52-1.82 2.487-.665.785-.143 1.808.428 2.482 5.024 6.266 10.04 12.547 15.061 18.824a17.1 17.1 0 0 0 4.571-4.742c.635-1.045 1.038-2.26.991-3.482.019-.565-.093-1.176.232-1.665.444-.194.455.323.605.618.427 1.297.873 2.61 1.026 3.977-.1.475-.555.742-.878 1.062-2.5 2.066-5.004 4.12-7.546 6.133-1.735 1.467-3.463 2.95-5.292 4.299-.283.232-.992.16-.698-.331.659-.689 1.607-1.225 1.844-2.209.067-.983-.681-1.726-1.182-2.468-4.01-5.195-8.054-10.358-12.079-15.537-.656-.761-1.142-1.743-2.051-2.223-1.182-.442-2.127.666-3.121 1.106-.286-.807.507-1.178 1.027-1.566 2.52-1.808 4.944-3.76 7.316-5.783M632.445 651.194c-.353-.642.41-1.187.953-.717 8.351 3.886 16.74 7.74 25.406 10.866 1.637.698 3.239-.372 4.167-1.67.628.55.026 1.252-.401 1.71-1.12 1.121-2.373 2.096-3.51 3.193-1.161 1.093-1.994 2.49-3.222 3.52-.687-.746.563-1.314.35-2.093-1.288-.846-2.827-1.2-4.2-1.89-2.127-1.03-4.334-1.853-6.508-2.771.022 3.246-3.15 5.085-5.721 6.314 1.023 2.752 1.999 5.516 2.983 8.282.213.636.63 1.48 1.45 1.357.765-.273 1.367-1.104 2.274-.848-.721 1.4-2.209 2.06-3.37 3.013-.715.546-1.28 1.273-2.03 1.773-.117-.079-.356-.23-.475-.311.517-.651 1.26-1.22 1.39-2.095.21-1.36-.41-2.635-.829-3.88-.796-2.242-1.422-4.543-2.298-6.75-1.148.424-2.463.683-3.3 1.647-.862.95-1.367 2.15-2.108 3.185.332-3.077 1.418-6.377 4.193-8.087-1.671-4.613-3.423-9.185-5.194-13.748m3.293 5.934c.782 2.54 1.908 4.96 2.796 7.471 2.386-.706 5.48-.822 6.742-3.36-3.238-1.24-6.268-3.002-9.538-4.11M662.089 619.536c-.137-.62.628-.241.93-.143 7.982 3.126 15.876 6.5 23.959 9.372 1.175.564 2.69.689 3.72-.25.77-.532 1.096-1.765 2.159-1.754-.483 1.448-1.697 2.483-2.585 3.678-1.789 1.91-3.194 4.135-4.88 6.13-.264.334-.636.553-1.016.72-.125-.877.696-1.418 1-2.148.344-.632.299-1.66-.52-1.841-6.295-2.566-12.697-4.868-18.947-7.543 1.305 3.544 2.644 7.082 3.937 10.636.146.564.497 1.15.317 1.755-.442.372-1.046.2-1.547.156-3.718-.538-7.402-1.253-11.086-1.962a596 596 0 0 1 9.232 16.456c.318.538.546 1.182 1.075 1.572 1.363-.21 2.176-1.535 3.249-2.28.344.653-.327 1.058-.677 1.52-1.156 1.254-2.428 2.394-3.543 3.69-.623.726-1.286 1.425-2.06 1.993-.382-.674.408-1.101.693-1.62.615-.709.937-1.733.394-2.582-3.795-7.54-8.2-14.752-12.426-22.062-.473-.848-1.063-1.653-1.255-2.62 4.936.842 9.854 1.797 14.811 2.527-1.355-4.572-3.42-8.887-4.934-13.4M678.475 598.622c-.369-.437-.02-1.209.599-.939 8.673 1.972 17.366 3.9 26.176 5.177.963.128 2.008.343 2.937-.107.982-.39 1.438-1.41 1.95-2.255.764.393.27 1.232-.05 1.783-.94 1.461-2.094 2.773-3.02 4.248-.646 1.016-1.098 2.149-1.757 3.163q-.363.804-.779.063c.135-.551.8-1.635-.134-1.81-3.687-.692-7.352-1.522-11.05-2.132.721 3.179-2.016 5.642-4.27 7.39 1.565 2.465 3.097 4.963 4.628 7.46.294.414.575.942 1.12 1.09 1.136.192 1.476-1.508 2.642-1.342-.384 1.381-1.526 2.321-2.434 3.36-.677.738-1.123 1.648-1.789 2.392l-.677-.04c.391-.707.933-1.388 1.004-2.218.01-1.06-.5-2.031-1.044-2.906-1.466-2.326-2.74-4.761-4.21-7.074-.84.5-1.726.954-2.429 1.638-1.026 1.141-1.217 2.732-1.852 4.082-.375-3.02.085-6.422 2.387-8.628-2.575-4.19-5.268-8.287-7.948-12.395m4.518 5.05c.284.909.895 1.66 1.413 2.453.95 1.441 1.89 2.894 2.828 4.343 2.182-1.199 5.207-1.964 5.893-4.712-3.406-.568-6.736-1.51-10.134-2.084M702.324 559.959c.63-1.171.92-2.563 1.762-3.589.165.006.496.013.659.019-.399 1.062-1.044 2.124-.877 3.305.127.952 1.084 1.417 1.824 1.863 5.76 2.966 11.538 5.896 17.284 8.886.992.49 2.053 1.108 3.207.888.656-.091 1.24-.537 1.918-.524.238.527-.192 1-.388 1.476-.714 1.307-1.28 2.936-2.781 3.54-2.222.894-4.603 1.31-6.908 1.937-7.136 1.854-14.317 3.546-21.55 4.952 4.874 3.005 9.907 5.733 14.771 8.764.782.46 1.57.974 2.453 1.232 1.086.23 1.88-.729 2.404-1.537.324-.386.599-1.182 1.274-.828-.684 2.037-2.323 3.582-3.257 5.504-.724 1.165-1.2 2.548-2.177 3.516-.167-.009-.502-.03-.67-.035.52-1.074 1.37-2.094 1.294-3.356.019-.927-.807-1.508-1.49-1.959-5.89-3.635-11.781-7.27-17.669-10.913-1.698.288-3.493.757-4.585 2.204-.632-.604-.147-1.414.293-1.955 1.007-1.282 1.841-2.688 2.582-4.133.177-.524.703-.693 1.206-.761 9.526-1.924 19.061-3.847 28.443-6.402-5.295-2.74-10.612-5.43-15.91-8.158-.735-.363-1.438-.792-2.216-1.036-.794-.286-1.569.26-1.981.898-.494.574-.752 1.536-1.664 1.514.538-1.941 1.995-3.458 2.749-5.312M717.918 535.093c1.497-.517 3.227-.456 4.632.31 1.065.605 1.735 1.928 1.413 3.14-.503 1.348-1.747 2.472-3.211 2.586-.346-1.331-1-2.725-2.322-3.312-1.349-.652-2.915-.05-3.989.85-2.474 1.892-3.722 5.138-3.407 8.205.377 2.684 2.351 4.802 4.454 6.344a33.6 33.6 0 0 0 7.378 3.952c2.661 1.047 5.733 1.469 8.459.382 3.44-1.369 5.66-4.988 5.813-8.623-.138-1.93-.545-3.92-1.677-5.527-.453-.576-.165-1.265.288-1.72 1.434 1.696 2.422 3.802 2.541 6.043.343 2.835-.681 5.628-2.121 8.025-1.395 2.275-3.14 4.435-5.466 5.815-2.634 1.603-5.837 2.121-8.869 1.773-5.165-.994-9.958-4.484-12.011-9.395-1.713-4.645-1.04-10.186 2.002-14.139 1.59-2.031 3.602-3.884 6.093-4.709M750.605 513.178c.11-.352.151-1.268.75-.8.227.485.05 1.035-.057 1.538-.619 2.024-1.605 3.922-2.069 6-.247 1.02-.393 2.08-.765 3.072-.917.398-.432-.902-.557-1.381.019-.61-.715-.563-1.119-.503-3.575.397-7.174.519-10.744.976 1.457 2.947-.494 6.082-2.238 8.42 2.186 1.995 4.329 4.034 6.485 6.066.455.407 1.087.945 1.737.576.727-.507.766-1.79 1.802-1.872-.074 1.3-.735 2.441-1.325 3.563-.575 1.055-.84 2.227-1.342 3.311-.152-.025-.448-.067-.593-.091.244-.839.616-1.753.295-2.62-.398-1.14-1.331-1.948-2.178-2.748-1.853-1.717-3.55-3.591-5.428-5.28-.86.938-1.939 1.814-2.237 3.11-.306 1.222-.232 2.497-.393 3.74-1.16-2.903-1.609-6.361.033-9.176a419 419 0 0 0-10.52-9.554c-.236-.274-.68-.457-.637-.862-.161-.674.696-.577 1.12-.636 9.035-.444 18.072-1.028 27.037-2.299 1.397-.115 2.683-1.142 2.943-2.55m-22.41 9.437c-.936.077-1.895-.006-2.775.337 1.88 1.869 3.911 3.589 5.91 5.332 1.866-1.73 4.473-3.36 4.51-6.214-2.544.257-5.095.406-7.645.545"></path><g fill="#fff"><path d="M54.724 465.963c-1.199-1.527-.024-4.127 1.961-4.092 1.578-.014 2.477 1.601 2.674 2.979-.696-.79-1.264-1.854-2.453-1.883.543.64 1.183 1.36 1.003 2.284-.044 1.569-2.4 1.918-3.185.712M51.657 460.82c.113.114.335.347.451.46.37 1.774.51 3.593.954 5.358.206 1.071.53 2.133.534 3.24-.614-.246-.523-.982-.757-1.482-.128-.632-.699-1.24-1.395-1.069-2.321.382-4.623.878-6.937 1.296-.964.2-1.98.286-2.864.764-.674.8-.148 1.936-.215 2.871-.703-.167-.605-.985-.77-1.51-.375-2.244-.811-4.474-1.234-6.706-.161-.442-.03-.857.318-1.148.314.837.317 2.246 1.506 2.268 2.734-.295 5.425-.95 8.148-1.368.781-.184 1.833-.184 2.263-.99.117-.658-.033-1.332-.002-1.983M58.955 469.98c.143.141.421.413.56.552.252 1.352.445 2.717.823 4.045.163.372-.02.736-.247 1.045-3.593 5.286-7.276 10.51-10.7 15.908 4.159-1.131 8.334-2.207 12.481-3.376.645-.125 1-.808.856-1.421.05-.5-.419-1.286.273-1.49.436 1.666.666 3.39 1.282 5.012.14.575.632 1.24.07 1.745-.409-.943-.794-2.626-2.17-2.308-3.179.698-6.297 1.661-9.454 2.453-1.501.424-3.046.72-4.515 1.245-.826.26-1.126 1.135-1.575 1.793-.799-1.418-1.297-3.347-.219-4.758 3.297-5.157 6.602-10.308 10.073-15.348-3.773.81-7.538 1.665-11.312 2.441-.663.179-1.581.276-1.795 1.067-.318.703.455 1.717-.302 2.226-.513-1.725-.59-3.543-1.154-5.251-.074-.663-.662-1.526.024-2.027.3.953.44 2.387 1.658 2.584 1.028-.032 2.018-.363 3.025-.536 3.712-.774 7.423-1.543 11.135-2.327.67-.966 1.223-2.053 1.183-3.274M49.635 505.55c.355.575.614 1.215.996 1.784.427.44 1.097.38 1.658.427 4.462.149 8.93.146 13.396.083 1.469.037 2.95-.125 4.402.161-2.08 2.572-4.2 5.11-6.239 7.708 3.12.804 6.342 1.096 9.478 1.846-1.545 1.508-3.36 2.698-5.038 4.06-3.106 2.392-6.253 4.746-9.242 7.281-1.117.898-.366 2.376-.22 3.518-.85-.623-.938-1.777-1.324-2.684-.515-1.899-1.52-3.619-1.975-5.535.949.078.775 1.801 1.885 1.68 3.708-2.648 7.163-5.648 10.834-8.35-2.509-.479-5.02-.926-7.527-1.409-.39-.065-1.221-.254-.794-.818 1.526-2.182 3.342-4.15 5.022-6.22-4.545.048-9.09-.106-13.635-.086-.13.932.183 1.838.305 2.755-.781-.497-.738-1.575-1.053-2.36-.26-1.292-1.07-2.493-.929-3.841M75.425 526.704c.72.351.757 1.214.993 1.886.614 2.292 1.901 4.313 2.725 6.523.214.333.284 1.017.81.977.24-.07.72-.212.961-.288-.854 1.106-1.487 2.458-2.661 3.276.299-.842.927-1.694.582-2.62-.482-1.388-1.12-2.716-1.649-4.085-2.354.939-4.691 1.908-7.047 2.848.94.671 1.853 1.483 2.267 2.604.599 1.412-.137 2.934.138 4.395.064.636.516 1.121.82 1.665-1.64-.427-2.382-2.203-2.58-3.728-.322-1.596.032-3.438-1.223-4.695-2.516 1.029-5.047 2.036-7.538 3.131a53 53 0 0 0 1.782 4.63c.348.774.726 1.567 1.357 2.16.652.591 1.47.962 2.133 1.55-1.634-.282-3.16-.98-4.75-1.431.26-.272.638-.38.888-.642-1.151-3.02-2.47-5.969-3.63-8.984-.32-.933-.888-1.813-.83-2.826.49.482.734 1.142 1.17 1.668.506.392 1.168.092 1.697-.091 4.176-1.658 8.358-3.302 12.536-4.943.506-.224 1.14-.468 1.3-1.055-.059-.653-.201-1.285-.25-1.925M68.59 550.317c5.81-.497 11.557-1.572 17.366-2.057-1.7 2.836-3.56 5.579-5.26 8.418 3.175.398 6.388.244 9.558.619-1.014 1.444-2.447 2.553-3.656 3.842-2.736 2.69-5.5 5.35-8.156 8.123-.61.654-1.465 1.302-1.401 2.307.094.718.494 1.363.723 2.055q-.422 0-.619-.323c-.877-1.438-1.438-3.047-2.301-4.49-.514-.925-1.119-1.82-1.36-2.86.875.302.994 1.51 1.996 1.649 3.316-3.166 6.46-6.505 9.755-9.69-2.856-.232-5.724-.228-8.572-.555.084-.841.613-1.514 1.035-2.21 1.07-1.719 2.182-3.413 3.283-5.104a632 632 0 0 1-12.393 1.466c-.381.105-1.169-.04-1.128.583.145.789.54 1.54.517 2.364-.75-.903-1.054-2.065-1.548-3.102-.381-.933-1.032-1.785-1.058-2.82.49.505.787 1.173 1.302 1.662.57.37 1.284.129 1.918.123M89.302 576.937c1.697-.77 3.373 1.688 2.294 3.1-.624.808-1.925.555-2.496-.192-.726-.797-.858-2.34.202-2.908"></path><path d="M89.097 569.763c2.29-.457 4.875-.206 6.8 1.215 1.655 1.351 2.833 3.234 3.493 5.251.61 1.932.648 4.193-.485 5.95-1.27 1.989-3.156 3.555-5.26 4.609-1.935.938-4.187 1.498-6.309.893-2.472-.517-4.5-2.388-5.52-4.66-.753-1.48-1.422-3.062-1.308-4.756.019-2.107 1.12-4.1 2.756-5.386 1.73-1.378 3.64-2.65 5.833-3.116m2.008 2.898c-2.743.767-5.277 2.262-7.325 4.24-1.078 1.141-2.049 2.667-1.786 4.309.31 2.202 2.493 3.761 4.64 3.79 3.31.115 6.385-1.582 8.881-3.61 1.186-.976 2.243-2.206 2.697-3.696.545-1.785-.423-3.788-2.029-4.664-1.532-.87-3.415-.797-5.078-.37M103.142 581.805c.802.593 1.04 1.634 1.636 2.404 1.432 2.37 3.3 4.64 3.74 7.456.538 2.864-2.157 5.882-5.083 5.487-1.462-.032-2.598-1.04-3.568-2.017.744 2.237.261 4.764-1.13 6.65-.503.72-1.221 1.267-1.712 2.004-.926 1.42-.52 3.481.776 4.531.665.569 1.484.914 2.16 1.472-1.908-.253-3.36-1.793-4.279-3.38-.867-1.968-1.206-4.428-.087-6.355 1.136-1.47 3.013-2.435 3.52-4.335.528-1.642-1.102-2.804-1.604-4.221-2.024 1.287-4.126 2.453-6.105 3.802-1.129.736.13 1.908.233 2.855-1.017-.948-1.552-2.28-2.343-3.407-.618-1.139-1.553-2.143-1.874-3.42.676.535 1.273 1.853 2.29 1.12 4.338-2.637 8.66-5.307 12.98-7.978.996-.55.557-1.793.45-2.668m-5.158 9.536c.726 1.215 1.51 2.523 2.815 3.194 2.101.882 4.677-.477 5.321-2.617.674-1.77-.128-3.62-1.01-5.15-2.356 1.558-4.786 3.001-7.126 4.573M115.198 601.945c1.353-.47 2.639.494 3.365 1.557-.95-.393-1.924-1.127-2.955-.526.723.25 1.566.585 1.778 1.419.696 1.551-1.547 2.905-2.773 1.945-1.618-1.036-1.257-3.836.585-4.395M109.994 603.306c.693-.029.934.679 1.281 1.142a55 55 0 0 0 3.008 4.211c.402.578.988 1.116 1.017 1.879-.831-.47-1.225-1.581-2.232-1.726-.501.101-.91.415-1.32.709a952 952 0 0 1-5.375 3.879c-.73.522-1.51 1.026-2.025 1.78-.096.946.688 1.67.998 2.515-.887.013-1.176-1.011-1.686-1.56-1.175-1.834-2.6-3.488-3.732-5.345l.194-.549c.51.474.858 1.23 1.575 1.439.532-.035 1.009-.298 1.431-.593 2.16-1.524 4.314-3.057 6.48-4.571.508-.388 1.134-.806 1.2-1.494-.198-.604-.551-1.149-.814-1.716"></path><path d="M111.214 613.399c2.007.342 4.067 1.24 5.077 3.116 2.802-.761 5.6-1.544 8.385-2.362.453-.092.967-.407 1.412-.112-.015.446-.296.818-.497 1.204-2.816 4.807-5.542 9.658-8.038 14.633-.331.65-.683 1.422-.375 2.159.278.48.631.921.87 1.438-.522-.13-.992-.406-1.276-.863-.753-.98-1.384-2.054-2.255-2.933-.51-.546-1.163-1.02-1.343-1.783.413.185.81.43 1.23.623 1.355-2.135 2.514-4.393 3.696-6.63-2.06-.338-3.062-2.356-3.724-4.111-1.997.591-4.038 1.039-6.008 1.703-.96.46-.012 1.435.071 2.135-.827-.226-1.142-1.072-1.566-1.726-.433-.755-1.06-1.376-1.472-2.144.89.167 1.408 1.244 2.434.949 2.096-.426 4.16-1.033 6.244-1.53-.228-.807-.32-1.727-.97-2.32-.584-.543-1.28-.945-1.895-1.446m5.24 3.74c.254 1.614.303 3.5 1.712 4.61 1.084-2.023 2.296-3.97 3.33-6.018-1.707.36-3.354.958-5.041 1.409M134.537 629.641c1.095-.46 2.159-1.017 3.326-1.297-.903 3.164-1.928 6.29-2.82 9.461 3.178-.466 6.233-1.595 9.406-2.005-2.816 5.42-6.178 10.553-8.918 16.013-.55 1.227.665 2.13 1.194 3.085-.573 0-.913-.458-1.267-.817-1.125-1.209-2.145-2.512-3.37-3.623-.533-.596-1.306-1.105-1.393-1.959.706.395 1.264 1.187 2.148 1.171 1.075-1.37 1.758-2.997 2.667-4.48 1.421-2.491 2.775-5.016 4.254-7.472-2.844.529-5.622 1.482-8.502 1.77.433-2.778 1.531-5.402 2.304-8.095a636 636 0 0 1-10.61 4.45c-.607.262-1.263.442-1.798.85-.01.92.854 1.586 1.218 2.397-.997-.319-1.45-1.356-2.116-2.07-.677-.94-1.716-1.643-2.075-2.777.87.457 1.584 1.713 2.706 1.142 4.616-1.742 9.116-3.79 13.646-5.744M156.167 649.988c1.27-.068 1.871 1.166 2.618 1.962.953 1.129 2.246 1.877 3.342 2.85.104.96-.997.098-1.44.004-.467.363-.562.982-.769 1.51-1.33 3.987-2.664 7.983-3.834 12.02.06.126.17.374.228.496 1.206-.122 2.246-.825 3.365-1.24 2.796-1.241 5.585-2.497 8.343-3.816.474-.305 1.226-.564 1.217-1.23-.186-.688-.892-1.092-1.05-1.795 1.462.33 2.097 1.848 3.186 2.723.427.446 1.259.654 1.189 1.41-1.07-.226-1.97-1.41-3.13-.775-5.137 2.43-10.307 4.803-15.56 6.977-.524.168-1.027.532-1.596.497-.637-.026-.432-.823-.301-1.186 1.483-4.931 3.01-9.85 4.854-14.659.384-1.07.87-2.162.839-3.314-.056-1.058-1.078-1.57-1.501-2.434M173.734 665.417q.568-.166.94.3c1.591 1.527 3.38 2.821 5.029 4.283 1.764 1.68 3.323 3.751 3.863 6.17.73 4.843-2.964 9.725-7.63 10.859-2.202.525-4.555-.031-6.356-1.368-2.268-1.691-4.3-3.667-6.557-5.37-.347-.392-1.162-.691-.898-1.325.612.294 1.177 1.112 1.933.878.645-.29 1.02-.929 1.483-1.423 2.996-3.593 6.098-7.099 9.043-10.728.728-.88-.359-1.655-.85-2.276m-6.643 16.927c1.116 1.06 2.322 2.095 3.752 2.7 1.402.577 2.974.11 4.237-.587 2.301-1.328 3.992-3.513 5.165-5.861.789-1.68 1.297-3.674.635-5.48-.593-1.543-2.063-2.446-3.245-3.492-3.519 4.242-7.026 8.483-10.544 12.72M185.616 680.823c1.741-2.24 5.312-2.326 7.483-.67 1.86 1.193 3.72 3.218 3.072 5.614-.573 1.182-2.174.999-3.176.505 1.159-1.036 1.787-2.784 1.107-4.253-.914-1.503-3.118-2.213-4.615-1.123-.808.691-1.781 1.665-1.42 2.839.598 2.083 2.298 3.594 3.117 5.573.666 1.504.802 3.35-.009 4.836-.697 1.336-1.703 2.632-3.179 3.147-2.22.813-4.623-.198-6.381-1.57-1.415-1.188-2.85-2.589-3.301-4.443-.422-1.68.73-3.63 2.42-4.02 1.424-.224 2.517.907 3.232 1.994-1.593-.36-2.959.86-3.67 2.16-.291.48-.378 1.09-.16 1.632.979 2.284 3.638 3.804 6.102 3.249 1.828-.52 2.575-2.629 2.435-4.36-.215-2.206-1.77-3.895-2.888-5.696-.981-1.586-1.367-3.836-.169-5.414zM204.728 695.524c2.757-1.083 5.53-2.458 7.479-4.757.55.091.973.427 1.315.869-2.996 4.797-6.065 9.546-9.163 14.277-.473.784-1.22 1.535-1.178 2.519.269 1.25 1.856 1.444 2.271 2.586-1.819-.215-3.003-1.848-4.542-2.69-1.592-1.172-3.408-1.99-4.995-3.155a54 54 0 0 0-.153-.76c.885.294 1.709 1.173 2.698.89.788-.386 1.135-1.244 1.615-1.919 1.35-2.076 2.919-3.995 4.255-6.077-.995-.131-2.018-.166-2.95-.55 1.047-.58 2.254-.75 3.348-1.233M217.697 701.836c2.925-2.279 7.416-1.558 9.875 1.06 2.26 2.621 2.034 7.057-.648 9.31-3.02 2.594-7.15 3.36-11.01 3.577-2.257.113-4.514-.176-6.684-.778-1.517-.423-3.095-.803-4.39-1.729 2.89.485 5.838.61 8.765.398 1.813-.146 3.662-.437 5.282-1.318-1.168-1.275-2.455-2.515-3.086-4.162-.996-2.23-.019-4.96 1.896-6.358m5.22 1.15c-2.497.648-4.252 3.239-4.086 5.786.09 1.845 2.229 3.372 3.955 2.466 1.973-1.01 3.29-3.2 3.362-5.402-.006-.865-.163-1.817-.812-2.431-.644-.6-1.609-.653-2.418-.419M231.085 709.936c.562-1.382 2.102-1.957 3.468-2.184 2.86-.31 5.783.724 8 2.518 1.601 1.286 2.527 3.46 2.028 5.498-.662 2.345-3.186 3.55-5.435 3.844-3.558.567-7.207-.438-10.736.455a6.7 6.7 0 0 0-3.07 1.604c1.32-.082 2.657-.266 3.965.073 3.089.55 6.367 1.204 8.822 3.3-.627 1.508-1.723 3.06-3.373 3.507-2.685-1.093-4.631-3.443-7.265-4.652-1.113-.616-2.38-.829-3.635-.821.223-1.838 1.999-2.85 3.55-3.461 3.206-1.103 6.69-1.096 9.859-2.334 1.3-.529 2.484-1.502 2.95-2.856.762-2.127-.322-4.618-2.376-5.526-1.597-.646-3.697-.838-5.071.388-1.254 1.02-1.543 3.028-.43 4.269-.36.045-.77.203-1.038-.138-.96-.888-.688-2.408-.213-3.484M248.91 715.047c1.794-.351 3.646.07 5.329.712 1.675.683 3.324 1.681 4.328 3.235.956 1.51 1.166 3.658.027 5.134-1.06 1.398-2.745 2.135-4.4 2.549.854 1.521 1.511 3.238 1.328 5.018-.122 1.404-1.056 2.678-2.313 3.291-1.459.727-3.18.696-4.713.254-2.293-.637-4.478-1.819-6.109-3.567-1.22-1.28-1.794-3.306-.938-4.934.604-1.267 1.974-2.585 3.485-2.024.721.225.837 1.042.887 1.694-1.36.077-3.144.307-3.641 1.817-.651 2.5 1.787 4.934 4.24 4.903 2.155.03 4.708-1.374 4.894-3.724.125-1.964-1.126-3.632-2.246-5.115 1.951.267 4.288-.201 5.374-1.998.926-1.9.46-4.506-1.32-5.74-2.037-1.6-5.73-1.114-6.658 1.516-.443.946.089 1.895.647 2.652-.344.67-1.014.074-1.331-.304-.671-.962-.466-2.275.019-3.266.568-1.208 1.874-1.822 3.11-2.103M257.528 729.798c2.575-.433 5.359-.46 7.72.806 3.14 1.45 4.013 5.382 7.087 6.934 1.187.66 2.61.575 3.848.107-2.037 1.19-4.516 1.437-6.794.878-1.386-.36-2.842-.756-3.95-1.708-1.63-1.495-2.647-3.529-4.242-5.053-1.023-.985-2.393-1.422-3.669-1.964M281.302 730.547c1.391-1.059 3.195-1.397 4.913-1.29 2.189.125 4.403.77 6.175 2.095 1.633 1.212 2.613 3.418 2.046 5.427-.654 1.83-2.387 3.078-4.176 3.672-3.368 1.233-7.073.806-10.458 1.957-1.38.418-2.634 1.206-3.571 2.31 1.2-.222 2.387-.619 3.623-.524 3.306.09 6.861.174 9.755 1.977-.4 1.575-1.239 3.27-2.808 3.95-2.255-.454-4.132-1.948-6.232-2.821-1.732-.808-3.657-1.366-5.575-.968-.05-1.703 1.334-2.923 2.653-3.745 2.222-1.304 4.783-1.82 7.159-2.76 1.69-.66 3.528-1.383 4.571-2.955.937-1.353.84-3.2.074-4.6-.859-1.379-2.46-2.287-4.09-2.243-1.222.003-2.59.161-3.452 1.126-.87.784-1.103 2.051-.873 3.164.222.486.683.843.851 1.372-.925.447-1.703-.568-1.835-1.38-.231-1.34.074-2.941 1.25-3.764M300.068 737.426c3.763-.743 8.274.938 9.907 4.58.836 1.814.705 3.883.46 5.819-.335 2.29-1.571 4.48-3.576 5.705-2.03 1.344-4.64 1.315-6.91.676-2.324-.581-4.45-2.052-5.664-4.13-1.318-2.244-.912-5.056.026-7.36.933-2.544 3.035-4.745 5.757-5.29m2.168 1.002c-1.54.477-2.379 1.963-3.055 3.31-1.25 2.149-1.742 4.645-1.9 7.108a3.6 3.6 0 0 0 1.116 2.958c1.655 1.395 4.558 1.591 5.899-.343 1.909-3.007 2.755-6.632 2.6-10.175-.242-2.143-2.728-3.31-4.66-2.858M320.238 737.792c.258-.902 1.275-.356 1.775 0a2012 2012 0 0 1-4.224 18.072c-.254.834.33 1.659 1.123 1.912.693.36 1.706.212 2.096 1.026-1.584.2-3.066-.554-4.566-.936-1.74-.416-3.47-.9-5.242-1.138-.677-.234-1.75-.147-1.862-1.073.72.058 1.432.24 2.164.271.794-.06 1.22-.848 1.357-1.541.6-2.797 1.573-5.485 2.25-8.259-1.026.198-2.048.543-3.104.41 3.156-2.45 6.566-4.975 8.233-8.744M328.051 742.135c1.851-.759 3.935-.71 5.882-.394 1.688.323 3.41.907 4.677 2.116 1.19 1.172 1.935 2.997 1.353 4.643-.643 1.77-2.232 2.971-3.86 3.788 1.102 1.183 2.147 2.517 2.491 4.137.45 1.588-.235 3.372-1.572 4.326-1.627 1.237-3.797 1.356-5.75 1.11-2.543-.361-5.272-1.143-7.024-3.13-1.572-1.735-1.113-4.897.959-6.023 1.043-.599 2.387.13 2.426 1.342-.942.266-1.975.535-2.63 1.323-.604.665-.665 1.69-.279 2.49.696 1.511 2.29 2.54 3.946 2.628 1.963.1 3.899-1.01 4.88-2.693.557-.955.518-2.18.043-3.153-.67-1.468-1.985-2.479-3.194-3.479 1.676-.207 3.415-.834 4.417-2.272.913-1.287.53-3.008-.136-4.307-1.05-1.907-3.551-2.728-5.57-2.022-1.638.392-3.04 1.92-2.88 3.663.023.903.807 1.458 1.426 1.999-.56.558-1.393.166-1.81-.357-.663-.818-.71-1.968-.503-2.951.302-1.353 1.518-2.24 2.708-2.784"></path></g><path d="M495.059 85.043c.284-.314.7-.953 1.13-.416.904 6.626 1.293 13.321 2.084 19.961.143 1.132 1.255 1.604 2.22 1.883q-.376.49-.939.294c-1.004-.266-1.928-.754-2.906-1.097-1.11-.414-2.298-.522-3.42-.88.276-.543.938-.322 1.427-.435a113 113 0 0 0-.736-8.13c-2.054.954-4.203-.172-5.928-1.268-1.348 1.791-2.828 3.497-4.059 5.377-.546 1.081 1.14 1.048 1.364 1.902-1.35-.003-2.484-.822-3.783-1.056-.394-.128-.97-.13-1.071-.633.617 0 1.302.226 1.89-.083.682-.336 1.132-.974 1.585-1.562 1.08-1.48 2.299-2.848 3.409-4.304-.567-.423-1.095-.92-1.745-1.197-1.06-.363-2.198-.096-3.288-.128 1.99-1.017 4.397-1.627 6.524-.623q3.09-3.827 6.242-7.605m-5.671 8.032c1.313 1.225 2.528 2.913 4.51 2.974-.324-2.42-.515-4.863-.88-7.278-1.448 1.212-2.4 2.895-3.63 4.304M507.91 89.28l.535-.241c2.12.771 4.24 1.569 6.377 2.313 2.52.906 4.886 2.33 6.75 4.277 2.028 2.127 2.365 5.402 1.531 8.125-1.034 3.775-4.142 7.204-8.133 7.773-2.743.383-5.267-.948-7.752-1.871-1.768-.769-3.665-1.181-5.424-1.956l-.226-.427c.898.137 2.275.706 2.692-.503 1.886-5.174 3.766-10.353 5.55-15.558.301-1.191-1.152-1.49-1.9-1.932m-.231 19.56c1.403.575 2.829 1.197 4.356 1.357 1.575.188 3.015-.711 4.09-1.779 2.022-2.024 3.161-4.777 3.667-7.555.336-2.049.2-4.368-1.145-6.047-1.199-1.487-3.161-1.92-4.837-2.638-2.066 5.546-4.145 11.088-6.131 16.661M544.42 104.46c.315-.241.639-.627 1.105-.441.134 2.326-.205 4.652-.305 6.977-.26 4.358-.66 8.712-.87 13.076-.144 1.22.948 1.915 1.899 2.367-.855.589-1.713-.31-2.451-.684-1.34-.952-2.91-1.44-4.39-2.094.308-.642 1.337.13 1.505-.552.24-2.6.486-5.202.553-7.814-2.143.667-4.054-.798-5.552-2.134-1.597 1.566-3.314 3.016-4.814 4.677-.688.915.798 1.309 1.118 2.022-1.182.026-2.032-.86-3.05-1.302-.57-.286-1.284-.394-1.598-1.012.527.066 1.052.222 1.602.258.818-.102 1.446-.718 2.029-1.264 1.328-1.322 2.76-2.531 4.132-3.815-.477-.513-.921-1.073-1.506-1.46-.954-.499-2.071-.43-3.103-.615 2.054-.735 4.487-.927 6.37.366 2.423-2.2 4.863-4.39 7.325-6.556m-6.834 7.07c1.077 1.378 1.95 3.288 3.896 3.557.062-2.438.347-4.87.289-7.311-1.511 1.122-2.8 2.496-4.185 3.754M554.38 114.128c1.763-2.1 5.053-2.438 7.412-1.19 1.827.93 3.865 2.183 4.378 4.318.097.736.372 1.735-.347 2.247-.859.683-2.018.48-2.977.171.744-.886 1.328-1.99 1.126-3.185-.128-2.756-4.237-4.035-5.992-1.961-.613.793-1.349 1.804-.9 2.853.908 2.226 3.028 3.627 4.172 5.708.812 1.416 1.181 3.177.636 4.752-.668 1.895-1.938 3.77-3.947 4.392-2.513.765-5.163-.332-7.155-1.852-1.444-1.125-2.964-2.592-3.01-4.548.058-1.578 1.123-3.504 2.891-3.504 1.23-.058 2.149.857 2.942 1.672-1.778-.14-3.019 1.427-3.565 2.934a2.05 2.05 0 0 0 .212 1.935c1.007 1.453 2.675 2.499 4.475 2.518 1.325.16 2.726-.372 3.483-1.495 1.025-1.655.962-3.862-.042-5.51-1.017-1.926-2.92-3.188-3.94-5.11-.873-1.57-1.05-3.686.149-5.145M567.393 120.684c.72-1.202 2.18-1.672 3.239-2.535a358 358 0 0 1 11.56 7.314c-.17 1.104-.297 2.215-.489 3.317-.045.296-.212.514-.488.657-.247-1.026-.11-2.15-.572-3.113-.773-1.084-1.889-1.865-2.985-2.592-3.089 4.865-6.282 9.671-9.3 14.573-.89 1.171.542 1.988 1.298 2.677l.091.47c-2.085-1.229-4.05-2.644-6.141-3.861-.534-.387-1.304-.587-1.437-1.317.882.334 2.151 1.258 2.81.074 3.097-4.903 6.16-9.829 9.226-14.753-1.163-.748-2.393-1.494-3.782-1.7-1.052.08-1.985.67-3.03.789M593.663 135.118c-.545-1.228-1.423-2.226-2.418-3.105l.007-.004c-.869-.773-1.818-1.46-2.791-2.123a86 86 0 0 0-1.277-.866v.007c-.733-.49-1.46-.98-2.15-1.495-.496-.292-.901-.882-1.544-.772.654.782 1.612 1.908.797 2.92-.36.52-.714 1.045-1.071 1.567l-.006-.001c-.818 1.202-1.662 2.386-2.46 3.598-.67.96-1.306 1.929-1.967 2.898.006 0-.01 0 0 0a417 417 0 0 1-3.868 5.57c-.72.958-1.591-.354-2.432-.066 1.178.939 2.46 1.719 3.684 2.595 1 .636 1.87 1.494 3 1.905-.4-.72-1.26-1.096-1.553-1.869.038-.636.455-1.16.805-1.674 1.302-1.808 2.59-3.619 3.886-5.435.858.757 1.836 1.37 2.71 2.11.829 1.191.51 2.77-.031 4.014-.53 1.333-1.562 2.552-1.484 4.057a8.1 8.1 0 0 0 2.528 5.406c1.384 1.067 3.2 1.995 4.994 1.546-1.11-.346-2.327-.395-3.314-1.046-1.289-.902-1.912-2.685-1.345-4.173.398-1.036.973-2.02 1.145-3.134.447-2.165-.083-4.49-1.488-6.205 1.347.601 2.855 1.16 4.337.664 2.906-.608 4.568-4.25 3.305-6.889zm-2.587.726c.154 2.384-1.938 4.655-4.344 4.584-.943-.11-1.639-.407-2.432-.904 0 0-.156-.098-.154-.1-.494-.321-.963-.673-1.407-1 1.647-2.54 3.474-4.957 5.123-7.492.092.07.188.14.277.212 1.487 1.174 2.934 2.694 2.937 4.7"></path><path d="M609.703 146.603c.359-.161.761-.462 1.168-.173-.415 2.29-1.288 4.474-1.926 6.707-1.269 4.177-2.675 8.312-3.901 12.504-.423 1.151.464 2.08 1.268 2.738-.956.374-1.572-.696-2.194-1.231-1.06-1.236-2.454-2.075-3.725-3.053.447-.553 1.25.438 1.575-.189.84-2.47 1.684-4.938 2.36-7.463-2.212.152-3.71-1.713-4.835-3.36-1.905 1.153-3.897 2.16-5.721 3.426-.878.73.457 1.458.598 2.225-1.139-.247-1.753-1.306-2.625-1.97-.478-.41-1.14-.682-1.302-1.356.494.188.959.46 1.48.623.814.092 1.558-.363 2.242-.757 1.588-.977 3.248-1.819 4.868-2.75-.336-.607-.637-1.255-1.106-1.768-.803-.705-1.892-.897-2.838-1.317 2.148-.238 4.528.14 6.033 1.833a712 712 0 0 1 8.581-4.669m-8.22 5.285c.711 1.588 1.104 3.645 2.908 4.357.634-2.354 1.478-4.65 1.992-7.037-1.711.741-3.276 1.777-4.9 2.68M626.133 160.963c.741-.053 1.181.59 1.665 1.049a51 51 0 0 0 3.897 3.71c1.476 1.317 2.85 3.063 2.86 5.132.137 2.709-2.155 5.324-4.854 5.528-2.446-.088-4.463-1.676-6.084-3.367-1.509 1.553-3.042 3.086-4.54 4.647-.43.521-1.156 1.18-.729 1.91.375.632 1 1.103 1.254 1.813-.949-.235-1.48-1.123-2.155-1.743-1.333-1.49-2.93-2.719-4.297-4.166l-.09-.598c.597.351 1.096.953 1.82 1.055.623-.125 1.039-.638 1.472-1.063 3.528-3.715 7.157-7.338 10.6-11.123 1.025-.99-.254-1.97-.819-2.784m-1.887 11.458c.959.947 2.28 2.031 3.724 1.485 1.906-.798 3.397-2.528 3.943-4.513.09-1.288-.33-2.64-1.302-3.516-2.146 2.16-4.328 4.282-6.365 6.544M636.665 172.097c.143-.022.428-.064.571-.089 1.443 1.475 2.633 3.2 4.212 4.548 1.3 1.084 2.218 2.57 3.618 3.538.301-.269.625-.526.945-.782-.294 1.494-.651 3.01-1.4 4.347-.075-.977.319-2.064-.322-2.924-.997-1.27-2.16-2.393-3.234-3.595-2.008 1.86-3.993 3.74-6.017 5.58 1.447.345 2.934 1.04 3.693 2.397.633 1.242.535 2.746 1.298 3.943.336.436.732.831 1.132 1.22-1.792-.017-3.092-1.513-3.804-3.007-.814-1.444-1.123-3.339-2.787-4.087-2.173 1.979-4.292 4.019-6.43 6.035 1.316 1.601 2.647 3.208 4.155 4.637.976.934 2.354 1.08 3.605 1.395-.305.165-.647.271-.982.24-1.349-.017-2.694.036-4.035.092.212-.412.93-.848.41-1.302-2.478-2.853-5.102-5.576-7.694-8.322q-.339-.345-.195-.823c.712.5 1.567 1.637 2.508.877 2.312-2.546 5.043-4.669 7.419-7.149 1.326-1.386 2.824-2.617 4.094-4.05.812-.97-.331-1.885-.76-2.72M656.484 194.982c-.211-1.325-.8-2.512-1.533-3.616q.004 0 .007-.003c-.637-.97-1.376-1.876-2.145-2.764a98 98 0 0 0-1.002-1.163q0 .003-.003.007a50 50 0 0 1-1.69-1.998c-.401-.409-.64-1.083-1.283-1.14.427.923 1.06 2.256.012 3.018q-.719.616-1.436 1.235-.002 0-.004-.003c-1.096.946-2.21 1.873-3.298 2.832-.892.756-1.758 1.524-2.64 2.287.006.001-.007 0 0 0a368 368 0 0 1-5.162 4.374c-.942.738-1.44-.752-2.33-.692.891 1.207 1.931 2.29 2.883 3.45.796.87 1.418 1.922 2.399 2.609-.204-.796-.934-1.38-1.014-2.203.2-.604.738-1.001 1.206-1.406 1.717-1.41 3.427-2.82 5.14-4.24.635.952 1.418 1.793 2.07 2.733.495 1.363-.222 2.801-1.061 3.86-.855 1.148-2.16 2.058-2.475 3.53a8.08 8.08 0 0 0 1.048 5.86c1.059 1.386 2.569 2.747 4.41 2.777-.98-.618-2.14-.982-2.928-1.86-1.006-1.2-1.151-3.081-.218-4.368.65-.895 1.459-1.697 1.908-2.728.99-1.971 1.078-4.345.162-6.363 1.142.928 2.453 1.853 4.01 1.758 2.96.165 5.5-2.915 4.967-5.783zm-2.684.032c-.46 2.34-3.064 3.987-5.366 3.3-.877-.349-1.6-.947-2.237-1.632 0 0-.034-.043-.03-.045-.395-.436-.717-.854-1.06-1.283 2.24-2.025 4.626-3.882 6.871-5.903q.11.137.212.276c1.125 1.515 2.124 3.355 1.61 5.287M674.486 218.115c.393-.051.868-.221 1.173.173-1.059 2.074-2.523 3.914-3.783 5.873-2.422 3.635-4.965 7.193-7.349 10.857-.738.98-.151 2.13.433 2.996-1.03.082-1.312-1.123-1.755-1.817-.668-1.495-1.768-2.704-2.71-4.013.589-.398 1.081.784 1.57.279 1.52-2.126 3.048-4.249 4.42-6.472-2.176-.497-3.074-2.721-3.685-4.627-2.158.552-4.37.94-6.49 1.624-1.056.445.024 1.531-.066 2.306-1.025-.571-1.308-1.764-1.959-2.653-.341-.535-.9-.987-.858-1.677.418.323.788.72 1.24 1.027.757.323 1.604.106 2.376-.075 1.807-.475 3.653-.8 5.476-1.222-.151-.683-.25-1.39-.556-2.017-.571-.91-1.56-1.41-2.351-2.09 2.134.395 4.318 1.45 5.28 3.513 3.192-.682 6.391-1.35 9.594-1.985m-9.43 2.678c.227 1.73.013 3.816 1.544 5.024 1.286-2.073 2.76-4.03 3.942-6.17-1.861.216-3.663.755-5.486 1.146M675.776 234.202c.351-1.478 1.566-2.708 3.06-3.02 2.412-.502 5.021.718 6.34 2.77 1.065 1.614 2.09 3.497 1.806 5.505-.189.767-.441 1.638-1.09 2.143-1.192.503-2.407-.296-3.1-1.235 1.578-.431 2.798-1.857 2.893-3.504-.196-2.01-2.167-3.929-4.273-3.444-.988.345-2.206.833-2.46 1.972-.314 1.76.27 3.513.56 5.24.274 1.685.25 3.513-.6 5.041-.631 1.181-1.786 1.944-2.93 2.56-1.816 1.02-4.216.873-5.879-.392-1.97-1.453-3.144-3.76-3.754-6.088-.382-1.511-.269-3.388 1.026-4.446.97-.88 2.567-1.465 3.727-.596.953.61 1.24 1.776 1.483 2.815-1.453-1.028-3.333-.285-4.542.757a2.05 2.05 0 0 0-.782 1.807c.16 1.786 1.128 3.525 2.709 4.432 1.087.787 2.6 1.002 3.796.328 1.466-.882 2.476-2.51 2.578-4.22.306-2.847-1.462-5.602-.568-8.425M689.037 241.68c.82.385 1.043 1.331 1.461 2.06.813 1.759 1.878 3.38 2.806 5.08.888 1.715 1.363 3.846.514 5.672-.775 1.914-2.8 3.148-4.82 3.267-1.684.103-3.092-1.078-4.157-2.247-.818-.867-1.241-2.082-1.97-2.946-1.487.696-2.904 1.54-4.368 2.278-.84.466-1.784.833-2.427 1.562-.467.911.372 1.807.6 2.675-.649.106-.79-.593-1.05-1.017-.898-1.796-1.786-3.602-2.836-5.312-.247-.535-.857-1.099-.43-1.709.466.526.737 1.364 1.498 1.558.872-.058 1.588-.63 2.348-1.001 3.635-1.95 7.259-3.92 10.88-5.894.743-.424 1.54-.784 2.196-1.348.842-.748-.218-1.805-.245-2.678m-5.296 10.415c.598 1.282 1.621 2.737 3.228 2.615a7.07 7.07 0 0 0 4.963-3.05c.541-1.216.471-2.648-.104-3.84a159 159 0 0 0-8.087 4.275M695.667 255.66c.81-.049.94.87 1.226 1.436.686 1.92 1.665 3.714 2.65 5.498.628 1.123.921 2.469 1.847 3.406.357-.169.726-.333 1.105-.483-.776 1.285-1.435 2.793-2.696 3.659.363-.94.996-1.953.543-2.981-.584-1.462-1.308-2.863-1.953-4.295-2.478 1.156-4.94 2.342-7.424 3.48 1.037.668 2.047 1.489 2.54 2.657.778 1.646-.192 3.493.366 5.181.176.474.459.904.691 1.363-1.729-.55-2.512-2.42-2.743-4.074-.349-1.645-.09-3.554-1.422-4.814-2.694 1.2-5.347 2.494-7.989 3.8.814 1.979 1.59 3.992 2.648 5.855.662 1.197 2.016 1.654 3.015 2.496-1.689-.264-3.262-.985-4.927-1.357.274-.24.572-.462.84-.718-.022-.518-.316-.973-.499-1.44-1.218-2.652-2.438-5.303-3.724-7.92-.344-.743-.82-1.457-.848-2.294.729.333.845 1.386 1.634 1.63.917.14 1.553-.662 2.348-.967 3.492-1.619 6.977-3.255 10.393-5.036 1-.584 2.43-.81 2.894-2.01-.027-.723-.318-1.391-.515-2.071M707.83 283.815c.21-1.34.006-2.665-.357-3.953h.007c-.31-1.127-.744-2.227-1.201-3.317q-.299-.719-.606-1.428-.001.005-.01.007a54 54 0 0 1-1.002-2.444c-.26-.516-.282-1.24-.88-1.49.129 1.02.328 2.497-.916 2.914-.582.247-1.17.5-1.756.75l-.001-.004c-1.343.577-2.695 1.126-4.03 1.72-1.088.455-2.153.931-3.238 1.398.006.003-.006-.003 0 0-2.09.892-4.187 1.78-6.293 2.634-1.124.423-1.149-1.164-2.018-1.377.484 1.435 1.148 2.797 1.705 4.207.496 1.081.768 2.284 1.499 3.245.054-.827-.468-1.613-.296-2.432.379-.519 1.014-.74 1.59-.987q3.117-1.246 6.23-2.512c.315 1.111.807 2.159 1.144 3.266.055 1.463-1.075 2.631-2.21 3.396-1.17.845-2.7 1.32-3.456 2.64a8.24 8.24 0 0 0-.8 5.967c.59 1.66 1.62 3.432 3.377 4.026-.754-.895-1.749-1.601-2.234-2.69-.597-1.464-.156-3.32 1.129-4.275.902-.663 1.918-1.189 2.672-2.04 1.55-1.601 2.37-3.86 2.11-6.084.813 1.241 1.785 2.537 3.302 2.92 2.787 1.063 6.17-1.128 6.538-4.057m-2.581-.79c-1.166 2.113-4.164 2.904-6.158 1.536-.737-.606-1.164-1.235-1.563-2.088 0 0-.079-.168-.077-.168a28 28 0 0 1-.645-1.611c2.769-1.266 5.625-2.33 8.398-3.59l.12.333c.615 1.804 1.013 3.883-.075 5.587"></path><path d="M715.246 302.672c.394.061.898.028 1.089.493-1.581 1.712-3.493 3.083-5.238 4.623-3.319 2.84-6.736 5.57-10.021 8.45-.978.742-.715 2.017-.384 3.016-1.017-.21-.972-1.453-1.216-2.248-.248-1.629-.992-3.105-1.55-4.632.677-.223.838 1.058 1.446.706 2.04-1.632 4.087-3.26 6.015-5.026-1.975-1.087-2.254-3.485-2.337-5.5-2.24-.068-4.485-.304-6.722-.235-1.14.137-.39 1.484-.679 2.21-.843-.835-.8-2.067-1.188-3.109-.19-.612-.612-1.205-.384-1.86.321.429.575.916.931 1.338.644.522 1.529.548 2.325.587 1.879.044 3.75.243 5.63.342.034-.7.131-1.414.001-2.103-.306-1.039-1.135-1.797-1.724-2.673 1.965.976 3.796 2.604 4.18 4.863 3.269.235 6.551.48 9.826.758zm-9.858-.037c-.24 1.736-1.007 3.693.151 5.285 1.8-1.646 3.752-3.126 5.472-4.866-1.861-.31-3.75-.29-5.623-.42"></path><g fill="#f5e81f" data-source="https://football-logos.cc"><path d="M448.105 104.287c2.912 2.823 5.411 6.045 8.061 9.112.212.195.403.657.772.449 2.622-3.227 4.973-6.716 7.985-9.601-.235 4.129-1.348 8.157-2.21 12.19 3.455-.036 6.922-.05 10.373.163.742.03 1.482.145 2.2.348-1.727 1.395-3.838 2.194-5.795 3.2a237 237 0 0 1-5.592 2.573c2.617 3.249 5.454 6.34 7.772 9.819-2.331-.633-4.465-1.836-6.688-2.768-1.53-.706-3.073-1.38-4.571-2.146-.89 3.782-1.414 7.68-2.748 11.339-1.69-3.663-2.454-7.679-3.663-11.519-2.31 1.209-4.675 2.307-7.038 3.406-1.319.584-2.622 1.25-4.042 1.549.933-2.006 2.453-3.656 3.746-5.426 1.04-1.425 2.28-2.704 3.233-4.196-3.461-1.601-6.836-3.37-10.245-5.08-.564-.25-1.06-.604-1.537-.979 4.268-.439 8.575-.277 12.864-.386-.843-3.136-1.688-6.268-2.451-9.424-.22-.862-.37-1.74-.426-2.623M502.223 118.634c1.181-1.39 2.265-2.886 3.657-4.084-.23 4.132-1.358 8.16-2.207 12.197 4.154.076 8.376-.251 12.491.46-.55.701-1.38 1.054-2.137 1.462-3 1.584-6.111 2.95-9.181 4.384 1.697 1.964 3.324 3.99 4.966 6 .965 1.246 2.02 2.436 2.813 3.807-3.883-1.3-7.532-3.232-11.264-4.905-.877 3.72-1.389 7.551-2.682 11.153-.393-.105-.425-.587-.58-.883-1.19-3.437-2.137-6.957-3.112-10.46a225 225 0 0 1-6.368 3.073c-1.544.69-3.066 1.469-4.713 1.883.747-1.82 2.136-3.27 3.269-4.85 1.194-1.62 2.522-3.141 3.737-4.748-3.227-1.52-6.405-3.136-9.58-4.757-.796-.381-1.595-.766-2.26-1.354 4.274-.364 8.58-.3 12.873-.387a359 359 0 0 1-2.182-8.251c-.295-1.243-.64-2.488-.704-3.77 3.133 3.029 5.798 6.509 8.65 9.8a392 392 0 0 1 4.514-5.77M542.648 134.966a15 15 0 0 1 1.862-1.922c-.22 4.127-1.356 8.144-2.202 12.179 4.179.06 8.43-.273 12.554.511-1.843 1.491-4.106 2.324-6.196 3.4-1.721.82-3.465 1.584-5.176 2.403 2.634 3.214 5.44 6.318 7.755 9.777-1.267-.257-2.411-.87-3.585-1.374-2.587-1.122-5.132-2.334-7.698-3.499a202 202 0 0 1-2.07 9.456 6.5 6.5 0 0 1-.731 1.83c-1.493-3.71-2.443-7.608-3.53-11.447-2.23 1.018-4.406 2.152-6.641 3.162-1.472.646-2.906 1.422-4.494 1.736 1.874-3.513 4.732-6.373 7.009-9.612-2.243-.998-4.417-2.148-6.623-3.23-1.76-.945-3.614-1.727-5.296-2.823 4.317-.433 8.66-.281 12.99-.398-1.035-3.998-2.325-7.956-2.918-12.05 3.156 3.033 5.812 6.544 8.7 9.827 2.033-2.695 4.115-5.348 6.29-7.926M564.395 156.136c3.171 3.01 5.83 6.512 8.687 9.813 1.807-2.362 3.632-4.716 5.535-7.012.821-1 1.636-2.02 2.637-2.85-.23 4.14-1.378 8.165-2.205 12.216 3.048-.05 6.094-.02 9.143.07 1.14.046 2.308.091 3.415.427-1.863 1.475-4.12 2.33-6.222 3.397-1.707.793-3.408 1.594-5.116 2.362 2.521 3.302 5.442 6.315 7.698 9.814-3.901-1.248-7.512-3.27-11.28-4.862-.787 3.766-1.423 7.592-2.635 11.249-.539-.628-.745-1.438-1-2.203-.973-3.06-1.836-6.152-2.695-9.243-3.673 1.708-7.234 3.763-11.12 4.95.97-2.075 2.548-3.775 3.89-5.604 1.015-1.366 2.148-2.642 3.167-4.008-2.614-1.188-5.163-2.51-7.72-3.795-1.412-.74-2.875-1.38-4.206-2.252 1.942-.348 3.926-.235 5.897-.324 2.357-.116 4.72-.036 7.079-.14-1.088-3.97-2.32-7.93-2.95-12.005M608.147 187.943c1.282-1.508 2.441-3.142 3.95-4.44-.229 4.13-1.364 8.15-2.21 12.184 3.119-.055 6.245 0 9.363.094 1.067.07 2.187.056 3.191.494-3.548 2.33-7.544 3.877-11.359 5.712 1.883 2.285 3.786 4.562 5.634 6.883.737.944 1.545 1.85 2.07 2.94-3.864-1.33-7.496-3.263-11.233-4.905-.823 3.79-1.45 7.646-2.682 11.33-.914-1.505-1.24-3.263-1.79-4.914a225 225 0 0 1-1.863-6.602c-3.675 1.689-7.218 3.755-11.1 4.937.746-1.807 2.127-3.254 3.263-4.82 1.2-1.628 2.515-3.165 3.751-4.77-4.023-1.952-8.074-3.858-11.956-6.07 4.307-.485 8.66-.281 12.986-.4-1.022-4.01-2.319-7.97-2.929-12.069 3.201 3 5.771 6.608 8.769 9.802 1.277-1.873 2.775-3.583 4.145-5.386M635.214 217.663c1.206-1.423 2.307-2.957 3.731-4.179.017 1.79-.43 3.538-.723 5.296-.489 2.299-.922 4.609-1.494 6.89 2.991-.046 5.979.003 8.973.082 1.197.07 2.42.093 3.59.427-1.121 1.023-2.567 1.572-3.882 2.29-2.476 1.226-4.995 2.353-7.494 3.527a266 266 0 0 1 5.297 6.417c.858 1.1 1.777 2.164 2.473 3.385-1.412-.346-2.695-1.029-4.021-1.592a333 333 0 0 1-7.242-3.316c-.511 2.304-.943 4.626-1.5 6.922-.374 1.485-.56 3.047-1.308 4.405-1.533-3.724-2.434-7.669-3.575-11.522-2.622 1.315-5.256 2.601-7.937 3.79-1.019.466-2.058.913-3.153 1.155.843-1.895 2.278-3.43 3.487-5.094 1.123-1.538 2.41-2.951 3.52-4.505-4.015-1.944-8.056-3.85-11.93-6.058 4.307-.477 8.654-.297 12.981-.404-1.004-3.999-2.316-7.942-2.912-12.03 1.078.877 1.968 1.962 2.889 2.997 1.967 2.246 3.88 4.544 5.829 6.808 1.382-1.96 2.923-3.798 4.4-5.691M642.8 247.899c3.13 3.045 5.798 6.527 8.665 9.816 2.041-2.702 4.13-5.376 6.319-7.965a16 16 0 0 1 1.838-1.889c0 1.786-.411 3.532-.72 5.283-.473 2.302-.93 4.606-1.477 6.893 2.583-.03 5.173-.052 7.759.074 1.6.042 3.225.017 4.786.436-.878.824-1.994 1.306-3.043 1.865-2.74 1.404-5.547 2.646-8.33 3.947 2.638 3.217 5.448 6.326 7.768 9.791-1.284-.277-2.453-.896-3.648-1.406-2.549-1.14-5.094-2.277-7.606-3.489-.541 2.366-.968 4.753-1.546 7.11-.372 1.404-.512 2.918-1.282 4.18-1.524-3.708-2.438-7.631-3.554-11.473-2.906 1.443-5.826 2.865-8.8 4.167a15 15 0 0 1-2.302.78c.955-2.083 2.553-3.78 3.89-5.621.98-1.353 2.163-2.546 3.06-3.954-3.856-1.98-7.822-3.787-11.6-5.916.008-.057.023-.17.028-.225 4.214-.377 8.457-.273 12.688-.358a419 419 0 0 1-1.958-7.39c-.377-1.538-.84-3.07-.935-4.656M659.116 285.29c3.124 3.049 5.798 6.526 8.669 9.814 2.33-2.95 4.588-5.963 7.072-8.792.326-.378.73-.671 1.12-.99-.296 4.105-1.358 8.118-2.228 12.134 2.845-.045 5.693-.003 8.54.069 1.344.09 2.711.07 4.025.447-1.04.936-2.344 1.47-3.56 2.116-2.569 1.278-5.177 2.478-7.789 3.647 2.551 3.3 5.457 6.343 7.741 9.848-1.363-.308-2.595-.996-3.876-1.523-2.482-1.112-4.968-2.214-7.415-3.403-.834 3.79-1.405 7.676-2.705 11.345-.638-1.096-.96-2.323-1.34-3.52-.823-2.638-1.556-5.303-2.298-7.964-3.118 1.464-6.18 3.036-9.354 4.367-.576.25-1.194.382-1.793.517 1.973-3.443 4.648-6.419 7.084-9.537-3.14-1.495-6.244-3.067-9.345-4.645-.89-.426-1.767-.88-2.563-1.46 4.292-.464 8.626-.267 12.933-.413-1.038-4-2.334-7.96-2.918-12.056M671.635 326.531c3.118 3.057 5.794 6.526 8.66 9.817 1.714-2.113 3.32-4.307 5.064-6.393.98-1.177 1.892-2.43 3.104-3.383-.058 2.772-.8 5.48-1.324 8.192-.296 1.307-.504 2.634-.88 3.923 4.184.086 8.414-.192 12.562.482-.788.823-1.842 1.279-2.828 1.802-2.807 1.432-5.673 2.729-8.541 4.033 1.893 2.293 3.815 4.563 5.65 6.905.748.938 1.524 1.864 2.105 2.926-3.883-1.32-7.54-3.239-11.279-4.928-.781 3.738-1.464 7.514-2.58 11.17-.326-.21-.558-.503-.641-.863-1.197-3.45-2.14-6.977-3.138-10.482-3.025 1.526-6.085 2.998-9.195 4.347-.616.284-1.287.43-1.94.574 1.981-3.44 4.652-6.422 7.094-9.537a331 331 0 0 1-8.013-3.968c-1.31-.706-2.698-1.273-3.917-2.133 4.3-.462 8.64-.29 12.962-.398-1.054-4.012-2.338-7.981-2.925-12.086"></path></g><!-- source: https://football-logos.cc --></svg>