<svg xmlns="http://www.w3.org/2000/svg" viewBox="549.33 229.37 1568 2207.93"><!-- Source: https://football-logos.cc --><defs data-source="https://football-logos.cc"><clipPath id="a" clipPathUnits="userSpaceOnUse"><path d="M-1560.584 633.855h2000v-2000h-2000Z"></path></clipPath><clipPath id="b" clipPathUnits="userSpaceOnUse"><path d="M-1140.17 459.383h2000v-2000h-2000Z"></path></clipPath><clipPath id="c" clipPathUnits="userSpaceOnUse"><path d="M-875.76 315.962h2000v-2000h-2000Z"></path></clipPath><clipPath id="d" clipPathUnits="userSpaceOnUse"><path d="M-1333.586 459.383h2000v-2000h-2000Z"></path></clipPath><clipPath id="e" clipPathUnits="userSpaceOnUse"><path d="M-674.751 615.047h2000v-2000h-2000Z"></path></clipPath><clipPath id="f" clipPathUnits="userSpaceOnUse"><path d="M-593.466 694.11h2000v-2000h-2000Z"></path></clipPath><clipPath id="g" clipPathUnits="userSpaceOnUse"><path d="M-780.761 734.907h2000v-2000h-2000Z"></path></clipPath><clipPath id="h" clipPathUnits="userSpaceOnUse"><path d="M-888.72 716.577h2000v-2000h-2000Z"></path></clipPath><clipPath id="i" clipPathUnits="userSpaceOnUse"><path d="M-1419.351 601.676h2000v-2000h-2000Z"></path></clipPath><clipPath id="j" clipPathUnits="userSpaceOnUse"><path d="M-1419.351 597.504h2000v-2000h-2000Z"></path></clipPath><clipPath id="k" clipPathUnits="userSpaceOnUse"><path d="M-1173.135 673.592h2000v-2000h-2000Z"></path></clipPath><clipPath id="l" clipPathUnits="userSpaceOnUse"><path d="M-974.862 694.11h2000v-2000h-2000Z"></path></clipPath><clipPath id="m" clipPathUnits="userSpaceOnUse"><path d="M-1369.664 694.11h2000v-2000h-2000Z"></path></clipPath><clipPath id="n" clipPathUnits="userSpaceOnUse"><path d="M-1314.573 673.592h2000v-2000h-2000Z"></path></clipPath><clipPath id="o" clipPathUnits="userSpaceOnUse"><path d="M-616.754 810.516h2000v-2000h-2000Z"></path></clipPath><clipPath id="p" clipPathUnits="userSpaceOnUse"><path d="M-1522.147 619.595h2000v-2000h-2000Z"></path></clipPath><clipPath id="q" clipPathUnits="userSpaceOnUse"><path d="M-1430.945 628.52h2000v-2000h-2000Z"></path></clipPath><clipPath id="r" clipPathUnits="userSpaceOnUse"><path d="M-888.72 712.44h2000v-2000h-2000Z"></path></clipPath><clipPath id="s" clipPathUnits="userSpaceOnUse"><path d="M-1259.345 587.553h2000v-2000h-2000Z"></path></clipPath><clipPath id="t" clipPathUnits="userSpaceOnUse"><path d="M-727.346 810.516h2000v-2000h-2000Z"></path></clipPath><clipPath id="u" clipPathUnits="userSpaceOnUse"><path d="M-837.938 1305.445h2000v-2000h-2000Z"></path></clipPath><clipPath id="v" clipPathUnits="userSpaceOnUse"><path d="M-1169.715 1444.079h2000v-2000h-2000Z"></path></clipPath><clipPath id="w" clipPathUnits="userSpaceOnUse"><path d="M-922.062 1484.568h2000v-2000h-2000Z"></path></clipPath><clipPath id="x" clipPathUnits="userSpaceOnUse"><path d="M-990.73 1406.531h2000v-2000h-2000Z"></path></clipPath><clipPath id="y" clipPathUnits="userSpaceOnUse"><path d="M-1059.123 810.516h2000v-2000h-2000Z"></path></clipPath><clipPath id="z" clipPathUnits="userSpaceOnUse"><path d="M-1169.715 1468.222h2000v-2000h-2000Z"></path></clipPath><clipPath id="A" clipPathUnits="userSpaceOnUse"><path d="M-1059.123 1594.716h2000v-2000h-2000Z"></path></clipPath><clipPath id="B" clipPathUnits="userSpaceOnUse"><path d="M-1099.577 1422.262h2000v-2000h-2000Z"></path></clipPath><clipPath id="C" clipPathUnits="userSpaceOnUse"><path d="M-1162.26 1326.545h2000v-2000h-2000Z"></path></clipPath><clipPath id="D" clipPathUnits="userSpaceOnUse"><path d="M-1181.103 1406.531h2000v-2000h-2000Z"></path></clipPath><clipPath id="E" clipPathUnits="userSpaceOnUse"><path d="M-1280.308 810.516h2000v-2000h-2000Z"></path></clipPath><clipPath id="F" clipPathUnits="userSpaceOnUse"><path d="M-1390.9 810.516h2000v-2000h-2000Z"></path></clipPath><clipPath id="G" clipPathUnits="userSpaceOnUse"><path d="M-1493.798 810.516h2000v-2000h-2000Z"></path></clipPath></defs><path d="m0 0-59.092-395.144-76.361-510.591c-4.788-32.009-16.209-62.82-34.231-89.63a178 178 0 0 0-6.361-8.994c-1.197-1.573-2.428-3.146-3.659-4.719-25.066-31.324-61.315-51.193-100.572-56.972-7.9-1.197-15.936-1.778-24.041-1.778h-69.385s-6.19-10.259-17.167-24.382c-11.011-14.226-26.878-32.351-46.063-47.842-18.774-15.149-41.036-25.066-64.529-29.375a150.3 150.3 0 0 0-27.768-2.565h-65.623c-5.78 0-11.525.343-17.201 1.027-23.425 2.701-45.927 11.011-65.419 24.484-14.944 10.328-31.051 24.383-45.174 43.122a186.5 186.5 0 0 0-20.073 33.205h-72.942c-5.882 0-11.764.308-17.577.958-33.479 3.693-65.145 17.919-89.801 41.241a190.6 190.6 0 0 0-20.792 23.186c-17.029 22.501-31.666 52.218-38.71 91.202l-83.816 551.97-56.459 371.788s-35.804 234.282 209.523 247.379c0 0 30.88 57.382 99.718 90.142 23.117 11.012 48.559 16.381 74.173 16.381h146.054c-7.386 5.779-12.926 13.85-15.491 23.151-1.06 3.761-1.607 7.763-1.607 11.866 0 24.519 19.868 44.388 44.387 44.388 24.485 0 44.387-19.869 44.387-44.388 0-4.103-.547-8.105-1.607-11.866-2.564-9.301-8.104-17.372-15.525-23.151h155.39c38.984 0 77.558-10.328 110.49-31.222 25.34-16.073 50.885-40.181 67.743-76.19 0 0 242.729 7.865 205.181-256.681m-189.758 276.207c-13.542 25.169-30.196 44.695-47.601 59.81-38.711 33.718-88.946 51.227-140.31 51.227H-504.47a61.5 61.5 0 0 1 1.128 11.866c0 34.641-28.075 62.717-62.717 62.717s-62.717-28.076-62.717-62.717c0-4.069.376-8.036 1.129-11.866h-98.863c-34.573 0-69.009-6.327-100.915-19.697-81.559-34.129-102.453-91.648-102.453-91.648-130.016-10.156-183.397-80.841-205.181-141.951-13.473-37.821-16.619-78.549-10.601-118.252l79.303-524.305 49.722-328.733c3.522-23.117 6.326-46.337 9.267-69.522 7.386-57.929 29.546-98.247 54.612-126.118 2.873-3.18 5.848-6.258 8.925-9.164 29.923-28.726 69.215-45.79 110.593-48.97a178 178 0 0 1 14.191-.547h59.434c12.106-18.296 24.691-33.445 36.967-45.961 16.757-17.098 33-29.272 46.781-37.821 19.185-11.867 41.31-18.159 63.812-18.638.957-.034 1.88-.034 2.838-.034h92.536c5.096 0 10.191.274 15.218.752 15.423 1.642 30.503 5.746 44.456 12.653 26.673 13.269 49.277 33.24 66.136 51.295 20.895 22.399 32.898 41.823 32.898 41.823h75.677c.684.034 1.334.034 2.018.103 49.756 1.812 85.423 24.382 110.592 52.184 43.19 47.704 55.604 110.695 55.604 110.695l54.988 365.05L24.451-4.959C57.04 281.439-189.758 276.207-189.758 276.207" clip-path="url(#a)" style="fill:#043298;fill-opacity:1;fill-rule:nonzero;stroke:none" transform="matrix(1.33333 0 0 -1.33333 2080.779 845.14)"></path><path d="M0 0c0-1.984-.034-3.967-.137-5.951h-291.048A115 115 0 0 0-291.322 0c0 17.201 2.975 33.718 8.481 49.038 12.31 34.504 37.308 62.99 69.385 79.884h.034c20.244 10.669 43.293 16.721 67.778 16.721 27.22 0 52.697-7.488 74.48-20.483 28.828-17.167 51.227-44.045 62.683-76.122C-2.976 33.718 0 17.201 0 0" clip-path="url(#b)" style="fill:#c00205;fill-opacity:1;fill-rule:nonzero;stroke:none" transform="matrix(1.33333 0 0 -1.33333 1520.226 612.51)"></path><path d="M0 0c-30.469-23.972-53.21-56.801-64.119-94.383-4.685-16.107-7.181-33.103-7.181-50.646 0-1.436.034-2.906.068-4.343H-205.42c-.137 1.984-.171 3.967-.171 5.951 0 17.201 3.591 33.718 10.191 49.038 24.211 56.322 88.911 96.605 164.897 96.605C-20.107 2.222-9.883 1.47 0 0" clip-path="url(#c)" style="fill:#c00205;fill-opacity:1;fill-rule:nonzero;stroke:none" transform="matrix(1.33333 0 0 -1.33333 1167.68 421.283)"></path><path d="M0 0c0-1.984-.034-3.967-.171-5.951h-143.114c.035 1.437.069 2.907.069 4.343 0 17.543-2.496 34.539-7.181 50.646-10.704 36.967-32.863 69.282-62.546 93.186a211.3 211.3 0 0 0 37.89 3.419c75.985 0 140.685-40.283 164.862-96.605C-3.59 33.718 0 17.201 0 0" clip-path="url(#d)" style="fill:#c00205;fill-opacity:1;fill-rule:nonzero;stroke:none" transform="matrix(1.33333 0 0 -1.33333 1778.115 612.51)"></path><path d="M0 0c-8.07-14.944-27.494-25.511-50.132-25.511-29.923 0-54.134 18.364-54.134 41.036s24.211 41.036 54.134 41.036c22.569 0 41.925-10.464 50.029-25.34l-22.33-4.958c-5.13 7.626-15.594 12.858-27.699 12.858-17.201 0-31.154-10.567-31.154-23.596S-67.333-8.071-50.132-8.071c12.174 0 22.706 5.301 27.836 13.029z" clip-path="url(#e)" style="fill:#c00205;fill-opacity:1;fill-rule:nonzero;stroke:none" transform="matrix(1.33333 0 0 -1.33333 899.668 820.062)"></path><path d="M0 0v-10.156h41.173v-20.518H0v-10.122h62.272v-20.518H-22.98v81.832h85.252V0Z" clip-path="url(#f)" style="fill:#c00205;fill-opacity:1;fill-rule:nonzero;stroke:none" transform="matrix(1.33333 0 0 -1.33333 791.287 925.48)"></path><path d="M0 0v-20.518h-85.287v81.832h22.98V0Z" clip-path="url(#g)" style="fill:#c00205;fill-opacity:1;fill-rule:nonzero;stroke:none" transform="matrix(1.33333 0 0 -1.33333 1041.015 979.875)"></path><path d="M0 0c0-9.404-7.626-17.03-17.03-17.03h-35.565v38.198h35.565C-7.626 21.168 0 13.542 0 4.138Zm-17.338 42.985h-58.271v-81.832h58.271a40.84 40.84 0 0 1 28.931 11.968c7.386 7.421 11.969 17.611 11.969 28.931 0 22.604-18.296 40.933-40.9 40.933" clip-path="url(#h)" style="fill:#c00205;fill-opacity:1;fill-rule:nonzero;stroke:none" transform="matrix(1.33333 0 0 -1.33333 1184.96 955.436)"></path><path d="M0 0c0-9.404-7.626-16.996-17.03-16.996h-35.564v38.198h35.564C-7.626 21.202 0 13.576 0 4.172Zm-17.338 43.02h-58.271v-81.867h58.271c11.319 0 21.51 4.582 28.931 12.003a40.84 40.84 0 0 1 11.969 28.93c0 22.604-18.296 40.934-40.9 40.934" clip-path="url(#i)" style="fill:#c00205;fill-opacity:1;fill-rule:nonzero;stroke:none" transform="matrix(1.33333 0 0 -1.33333 1892.468 802.235)"></path><path d="M0 0v-4.172c0-9.404-7.626-16.995-17.03-16.995h-35.564V17.03h35.564C-7.626 17.03 0 9.404 0 0" clip-path="url(#j)" style="fill:#fdfdfd;fill-opacity:1;fill-rule:nonzero;stroke:none" transform="matrix(1.33333 0 0 -1.33333 1892.468 796.672)"></path><path d="M0 0v-81.833h-21.92l-1.06 1.061-49.277 49.243v-50.304h-22.981V0h22.673l.308-.308 49.277-49.277V0Z" clip-path="url(#k)" style="fill:#c00205;fill-opacity:1;fill-rule:nonzero;stroke:none" transform="matrix(1.33333 0 0 -1.33333 1564.18 898.123)"></path><path d="M0 0v-10.156h41.173v-20.518H0v-10.122h62.272v-20.518H-22.98v81.832h85.252V0Z" clip-path="url(#l)" style="fill:#c00205;fill-opacity:1;fill-rule:nonzero;stroke:none" transform="matrix(1.33333 0 0 -1.33333 1299.816 925.48)"></path><path d="M0 0v-10.156h41.173v-20.518H0v-10.122h62.272v-20.518h-85.253v81.832h85.253V0Z" clip-path="url(#m)" style="fill:#c00205;fill-opacity:1;fill-rule:nonzero;stroke:none" transform="matrix(1.33333 0 0 -1.33333 1826.218 925.48)"></path><path d="M0 0v-27.494a44.2 44.2 0 0 1-27.905-9.917l-32.247-26.263a80.1 80.1 0 0 0-24.007-13.474 81 81 0 0 0-27.152-4.685v30.094c14.124-.137 27.837 4.616 38.882 13.405l28.897 23.082c6.189 4.925 13.097 8.755 20.449 11.32C-15.731-1.333-7.934 0 0 0" clip-path="url(#n)" style="fill:#c00205;fill-opacity:1;fill-rule:nonzero;stroke:none" transform="matrix(1.33333 0 0 -1.33333 1752.764 898.123)"></path><path d="M0 0v-685.405c-2.223 17.953-4.548 35.906-7.25 53.825L-102.146 0Z" clip-path="url(#o)" style="fill:#c00205;fill-opacity:1;fill-rule:nonzero;stroke:none" transform="matrix(1.33333 0 0 -1.33333 822.338 1080.688)"></path><path d="m0 0-22.468-151.355-1.982-13.37-3.899-26.196-102.898-693.373-5.848-39.395c-4.685-31.529-18.945-61.109-41.754-83.405-15.628-15.286-36.043-28.076-60.939-28.999h-110.011s-.923-1.436-2.633-4.001c-7.455-11.114-29.854-43.157-56.014-67.983a114.94 114.94 0 0 0-54.578-28.897 115 115 0 0 0-24.998-2.735h-77.045c-2.873 0-5.745.205-8.549.581a65.4 65.4 0 0 0-30.47 12.311c-19.902 14.738-51.192 42.78-76.327 87.236h-96.606c-5.984 0-11.934.478-17.782 1.436-18.501 2.975-36.009 10.635-50.714 22.501-23.014 18.535-48.525 49.039-54.407 95.409-1.88 14.636-3.659 29.273-5.471 43.909-2.223 17.953-4.548 35.907-7.25 53.826l-94.896 631.579-3.933 26.196-2.017 13.37-14.876 99.034a2915 2915 0 0 1-4.89 30.982c-5.677 35.462-22.194 196.119 139.489 216.055 0 0-11.217-40.557-6.088-63.913 1.95-8.96 9.986-15.252 19.151-15.252h719.704c7.148 0 13.577 4.24 16.381 10.806 5.232 12.311 9.985 35.394-2.052 70.958 0 0 172.283-1.744 146.67-197.315m-841.787 209.25c24.211 56.322 88.911 96.606 164.896 96.606 10.396 0 20.621-.753 30.504-2.223-30.469-23.972-53.21-56.801-64.119-94.383-4.685-16.107-7.181-33.102-7.181-50.645 0-1.437.034-2.907.068-4.343h-134.188c-.137 1.983-.171 3.967-.171 5.95 0 17.201 3.591 33.718 10.191 49.038m246.353 79.884h.034c20.245 10.669 43.293 16.722 67.778 16.722 27.221 0 52.697-7.489 74.481-20.484 28.828-17.167 51.226-44.045 62.683-76.122 5.505-15.32 8.48-31.837 8.48-49.038 0-1.983-.034-3.967-.137-5.95h-291.048a115 115 0 0 0-.137 5.95c0 17.201 2.975 33.718 8.481 49.038 12.311 34.505 37.309 62.99 69.385 79.884m231.82 16.722c75.985 0 140.686-40.284 164.863-96.606 6.6-15.32 10.19-31.837 10.19-49.038 0-1.983-.034-3.967-.171-5.95h-143.113c.034 1.436.068 2.906.068 4.343 0 17.543-2.496 34.538-7.181 50.645-10.704 36.967-32.863 69.282-62.546 93.186a211.3 211.3 0 0 0 37.89 3.42m196.871-63.435c-16.859 36.009-42.404 60.118-67.744 76.19-32.931 20.894-71.505 31.222-110.49 31.222h-155.39c7.421 5.779 12.961 13.85 15.526 23.151 1.06 3.761 1.607 7.763 1.607 11.866 0 24.519-19.903 44.388-44.388 44.388-24.519 0-44.387-19.869-44.387-44.388 0-4.103.547-8.105 1.607-11.866 2.565-9.301 8.105-17.372 15.491-23.151h-146.054c-25.613 0-51.056-5.369-74.173-16.38-68.838-32.761-99.718-90.143-99.718-90.143-245.327-13.097-209.523-247.379-209.523-247.379l56.459-371.787 83.816-551.97c7.044-38.985 21.681-68.702 38.711-91.203a190.5 190.5 0 0 1 20.791-23.186c24.656-23.322 56.323-37.548 89.801-41.241 5.814-.65 11.695-.957 17.577-.957h72.942a186.4 186.4 0 0 1 20.073-33.205c14.124-18.74 30.23-32.795 45.174-43.122 19.492-13.474 41.994-21.784 65.419-24.485a144 144 0 0 1 17.201-1.026h65.623c9.37 0 18.672.855 27.768 2.564 23.493 4.309 45.755 14.226 64.529 29.375 19.185 15.492 35.052 33.616 46.063 47.842 10.978 14.123 17.167 24.382 17.167 24.382h69.385c8.105 0 16.141.581 24.041 1.778 39.257 5.78 75.506 25.648 100.572 56.972 1.231 1.573 2.463 3.146 3.659 4.719a178 178 0 0 1 6.361 8.994c18.022 26.81 29.443 57.621 34.231 89.63l76.361 510.592L38.437-14.26c37.548 264.546-205.18 256.681-205.18 256.681" clip-path="url(#p)" style="fill:#ecad0c;fill-opacity:1;fill-rule:nonzero;stroke:none" transform="matrix(1.33333 0 0 -1.33333 2029.53 826.127)"></path><path d="M0 0c-7.421-7.421-17.612-12.003-28.931-12.003h-58.271v81.867h58.271c22.604 0 40.9-18.33 40.9-40.933A40.84 40.84 0 0 0 0 0m.991-65.59h-62.272v-10.156h41.173v-20.518h-41.173v-10.122H.991v-20.518h-85.252v81.832H.991Zm-117.363-6.976a44.18 44.18 0 0 1-27.904-9.917l-32.248-26.262a80 80 0 0 0-24.006-13.474 81 81 0 0 0-27.152-4.685v30.093c14.123-.137 27.836 4.616 38.881 13.405l28.897 23.083c6.189 4.924 13.097 8.755 20.449 11.319 7.352 2.599 15.149 3.932 23.083 3.932zm-141.438-54.338h-21.92l-1.06 1.06-49.277 49.243v-50.303h-22.981v81.832h22.673l.308-.307 49.277-49.278v49.585h22.98zM-681.097 6.019c-5.984 0-10.875 4.856-10.875 10.874v24.075c0 3.932 2.086 7.352 5.164 9.233a10.6 10.6 0 0 0 5.711 1.641h498.623a10.9 10.9 0 0 0 7.968-3.453c1.812-1.916 2.906-4.549 2.906-7.421V16.893a10.86 10.86 0 0 0-10.874-10.874zM-393.81-65.59h-62.272v-10.156h41.172v-20.518h-41.172v-10.122h62.272v-20.518h-85.253v81.832h85.253zm-136.821-49.345a40.84 40.84 0 0 0-28.931-11.969h-58.271v81.832h58.271c22.604 0 40.9-18.329 40.9-40.933 0-11.319-4.583-21.51-11.969-28.93m-119.552-11.969h-85.287v81.832h22.98v-61.314h62.307zM-806.326-12.037c-29.922 0-54.133 18.363-54.133 41.036 0 22.672 24.211 41.036 54.133 41.036 22.57 0 41.925-10.464 50.03-25.34l-22.33-4.958c-5.13 7.625-15.594 12.858-27.7 12.858-17.201 0-31.153-10.567-31.153-23.596s13.952-23.596 31.153-23.596c12.175 0 22.707 5.301 27.836 13.029l22.297-4.958c-8.071-14.945-27.494-25.511-50.133-25.511m31.119-53.553h-62.272v-10.156h41.173v-20.518h-41.173v-10.122h62.272v-20.518h-85.252v81.832h85.252zm719.739 271.83c12.038-35.564 7.284-58.647 2.052-70.958a17.78 17.78 0 0 0-16.38-10.806h-719.705c-9.164 0-17.201 6.292-19.15 15.252-5.13 23.357 6.087 63.913 6.087 63.913-161.682-19.936-145.165-180.592-139.488-216.054a2945 2945 0 0 0 4.89-30.983l14.875-99.034 2.018-13.37 3.932-26.195h979.19l3.899 26.195 1.983 13.37L91.202 8.925C116.816 204.496-55.468 206.24-55.468 206.24" clip-path="url(#q)" style="fill:#fdfdfd;fill-opacity:1;fill-rule:nonzero;stroke:none" transform="matrix(1.33333 0 0 -1.33333 1907.926 838.027)" data-source="https://football-logos.cc"></path><path d="M0 0v-4.138c0-9.404-7.626-17.03-17.03-17.03h-35.565V17.03h35.565C-7.626 17.03 0 9.404 0 0" clip-path="url(#r)" style="fill:#fdfdfd;fill-opacity:1;fill-rule:nonzero;stroke:none" transform="matrix(1.33333 0 0 -1.33333 1184.96 949.919)"></path><path d="M0 0v-24.074a10.86 10.86 0 0 0-10.875-10.875h-498.622c-5.985 0-10.875 4.856-10.875 10.875V0c0 3.933 2.086 7.352 5.164 9.233a10.6 10.6 0 0 0 5.711 1.642h498.622a10.9 10.9 0 0 0 7.968-3.454C-1.094 5.506 0 2.872 0 0" clip-path="url(#s)" style="fill:#ecad0c;fill-opacity:1;fill-rule:nonzero;stroke:none" transform="matrix(1.33333 0 0 -1.33333 1679.127 783.404)"></path><path d="M0 0v-847.224c-18.501 2.975-36.009 10.635-50.714 22.501-23.014 18.535-48.525 49.038-54.407 95.409-1.881 14.636-3.659 29.273-5.471 43.909V0Z" clip-path="url(#t)" style="fill:#043298;fill-opacity:1;fill-rule:nonzero;stroke:none" transform="matrix(1.33333 0 0 -1.33333 969.795 1080.688)"></path><path d="M0 0c-18.227-29.888-28.759-65.179-28.759-102.966 0-37.788 10.532-73.079 28.759-102.967v-147.798h-92.81c-5.984 0-11.935.479-17.782 1.436v847.224H0Z" clip-path="url(#u)" style="fill:#c00205;fill-opacity:1;fill-rule:nonzero;stroke:none" transform="matrix(1.33333 0 0 -1.33333 1117.25 1740.594)"></path><path d="M0 0c-22.194 17.611-60.118 41.036-110.592 47.431-16.654 2.154-34.675 2.428-53.963 0 0 0-42.369 43.053-45.857 69.83 0 0 42.233 10.84 99.82 4.65C-77.148 118.321-38.54 108.985 0 88.501a742 742 0 0 0 4.788-2.633c4.309-15.389 6.6-31.598 6.6-48.32 0-14.705-1.779-28.999-5.13-42.678Q3.386-2.667 0 0m0-25.408c-18.842-50.235-59.57-89.767-110.592-106.933-17.987-6.088-37.24-9.37-57.28-9.37q-11.643 0-22.877 1.436c23.561 12.345 52.287 32.042 80.157 64.392C-90.724-52.868-71.3-23.459-54.407 14.226c0 0 28.452-6.6 54.407-38.369.103-.137.24-.274.342-.41-.102-.274-.205-.582-.342-.855m-221.184-108.199c-29.068 8.994-54.989 25.272-75.644 46.61 19.629 4.343 47.123 14.739 75.644 39.292 20.381 17.509 41.275 42.199 60.254 77.08 0 0 23.972 3.727 50.338 1.71 13.85-1.026 28.418-3.659 40.454-9.267 0 0-11.455-33.787-40.454-71.608-23.562-30.778-58.75-64.256-108.848-84.364-.582.171-1.163.342-1.744.547M-331.777-35.12c-9.848 22.228-15.354 46.815-15.354 72.668s5.472 50.44 15.354 72.668a178.5 178.5 0 0 0 34.06 50.953c-7.66-44.319-9.164-123.484 50.064-201.658 0 0-16.551-21.339-61.896-31.837a179.8 179.8 0 0 0-22.228 37.206m51.603 212.396c14.876 11.969 31.666 21.612 49.893 28.349-2.667-21.612-4.343-60.289 9.097-100.06 7.865-23.39 20.997-47.157 42.199-68.017 0 0-12.448-41.241-42.199-62.717-3.42-2.496-7.045-4.719-10.943-6.566 0 0-75.78 73.079-48.047 209.011m66.274 33.547a179.4 179.4 0 0 0 46.028 5.984c20.04 0 39.293-3.282 57.28-9.37 45.106-15.183 82.175-47.841 103.137-89.903a403.3 403.3 0 0 1-103.137 21.51c-61.759 4.651-103.308-6.566-103.308-6.566zM0 128.511v505.052h-110.592V222.005c-18.364 5.951-37.89 9.165-58.169 9.165-18.158 0-35.735-2.565-52.423-7.386v409.779h-110.593V138.634c-18.226-29.888-28.759-65.179-28.759-102.967s10.533-73.078 28.759-102.966v-147.799h3.796c25.135-44.455 56.425-72.497 76.327-87.236a65.4 65.4 0 0 1 30.47-12.31v162.229c16.688-4.822 34.265-7.387 52.423-7.387 20.279 0 39.805 3.215 58.169 9.165V-312.49a114.94 114.94 0 0 1 54.578 28.896c26.16 24.827 48.559 56.87 56.014 67.983v158.434C14.671-29.546 22.981 2.086 22.981 35.667S14.671 100.88 0 128.511" clip-path="url(#v)" style="fill:#043298;fill-opacity:1;fill-rule:nonzero;stroke:none" transform="matrix(1.33333 0 0 -1.33333 1559.62 1925.439)"></path><path d="M0 0s-16.551-21.339-61.896-31.837A179.8 179.8 0 0 0-84.124 5.369c-9.849 22.228-15.354 46.815-15.354 72.668s5.471 50.44 15.354 72.668a178.5 178.5 0 0 0 34.06 50.953C-57.724 157.339-59.229 78.174 0 0" clip-path="url(#w)" style="fill:#ecad0c;fill-opacity:1;fill-rule:nonzero;stroke:none" transform="matrix(1.33333 0 0 -1.33333 1229.416 1979.424)"></path><path d="M0 0s-12.448-41.241-42.199-62.717c-3.42-2.496-7.044-4.719-10.943-6.566 0 0-75.78 73.079-48.046 209.011 14.875 11.969 31.666 21.612 49.893 28.349-2.668-21.612-4.343-60.289 9.096-100.06C-34.334 44.627-21.202 20.86 0 0" clip-path="url(#x)" style="fill:#ecad0c;fill-opacity:1;fill-rule:nonzero;stroke:none" transform="matrix(1.33333 0 0 -1.33333 1320.973 1875.375)"></path><path d="M0 0v-411.558c-18.364 5.951-37.89 9.165-58.169 9.165-18.158 0-35.735-2.565-52.423-7.386V0Z" clip-path="url(#y)" style="fill:#c00205;fill-opacity:1;fill-rule:nonzero;stroke:none" transform="matrix(1.33333 0 0 -1.33333 1412.164 1080.688)"></path><path d="M0 0v-1.265C-18.842-51.5-59.57-91.032-110.592-108.199c-17.987-6.087-37.24-9.369-57.28-9.369q-11.643 0-22.877 1.436c23.561 12.345 52.287 32.042 80.157 64.392C-90.724-28.725-71.3.684-54.407 38.369c0 0 28.452-6.6 54.407-38.369" clip-path="url(#z)" style="fill:#ecad0c;fill-opacity:1;fill-rule:nonzero;stroke:none" transform="matrix(1.33333 0 0 -1.33333 1559.62 1957.63)"></path><path d="M0 0v-161.853a115 115 0 0 0-24.998-2.736h-77.045c-2.873 0-5.745.205-8.549.581v162.23C-93.904-6.6-76.327-9.165-58.169-9.165-37.89-9.165-18.364-5.95 0 0" clip-path="url(#A)" style="fill:#c00205;fill-opacity:1;fill-rule:nonzero;stroke:none" transform="matrix(1.33333 0 0 -1.33333 1412.164 2126.287)"></path><path d="M0 0s-11.456-33.786-40.454-71.608c-23.562-30.777-58.751-64.256-108.849-84.364-.581.172-1.162.343-1.744.548-29.067 8.993-54.988 25.271-75.643 46.61 19.629 4.343 47.123 14.739 75.643 39.292 20.382 17.509 41.276 42.199 60.255 77.079 0 0 23.972 3.728 50.338 1.71C-26.605 8.241-12.037 5.608 0 0" clip-path="url(#B)" style="fill:#ecad0c;fill-opacity:1;fill-rule:nonzero;stroke:none" transform="matrix(1.33333 0 0 -1.33333 1466.103 1896.349)"></path><path d="M0 0a403.4 403.4 0 0 1-103.137 21.51c-61.76 4.65-103.309-6.566-103.309-6.566v78.345a179.4 179.4 0 0 0 46.029 5.984c20.039 0 39.292-3.283 57.28-9.37C-58.032 74.72-20.963 42.062 0 0" clip-path="url(#C)" style="fill:#ecad0c;fill-opacity:1;fill-rule:nonzero;stroke:none" transform="matrix(1.33333 0 0 -1.33333 1549.68 1768.726)"></path><path d="M0 0a179 179 0 0 0-5.13-42.677q-2.872 2.462-6.258 5.129C-33.581-19.937-71.505 3.488-121.98 9.883c-16.654 2.154-34.675 2.428-53.962 0 0 0-42.37 43.054-45.858 69.83 0 0 42.233 10.84 99.82 4.65 33.445-3.59 72.052-12.926 110.592-33.41A717 717 0 0 0-6.6 48.32C-2.291 32.932 0 16.722 0 0" clip-path="url(#D)" style="fill:#ecad0c;fill-opacity:1;fill-rule:nonzero;stroke:none" transform="matrix(1.33333 0 0 -1.33333 1574.804 1875.375)"></path><path d="M0 0v-845.172h-107.959s-.924-1.437-2.634-4.001v158.433c14.671 27.631 22.981 59.263 22.981 92.844s-8.31 65.214-22.981 92.844V0Z" clip-path="url(#E)" style="fill:#c00205;fill-opacity:1;fill-rule:nonzero;stroke:none" transform="matrix(1.33333 0 0 -1.33333 1707.077 1080.688)"></path><path d="M0 0v-693.373l-5.847-39.395c-4.685-31.529-18.946-61.109-41.755-83.406-15.628-15.286-36.043-28.075-60.938-28.998h-2.052V0Z" clip-path="url(#F)" style="fill:#043298;fill-opacity:1;fill-rule:nonzero;stroke:none" transform="matrix(1.33333 0 0 -1.33333 1854.533 1080.688)"></path><path d="m0 0-102.898-693.373V0Z" clip-path="url(#G)" style="fill:#c00205;fill-opacity:1;fill-rule:nonzero;stroke:none" transform="matrix(1.33333 0 0 -1.33333 1991.73 1080.688)" data-source="https://football-logos.cc"></path><!-- source: https://football-logos.cc --></svg>