<svg xmlns="http://www.w3.org/2000/svg" xml:space="preserve" version="1.2" viewBox="-134.32 2.52 489.23 556.5"><!-- Source: https://football-logos.cc --><path d="M234.228 143.38v214.743c0 60.48-53.654 118.581-123.934 118.581S-13.64 418.602-13.64 358.124V143.38z" data-source="https://football-logos.cc"></path><path d="M10.3 258.138H-7.926v99.986c0 20.295 6.494 40.75 18.226 58.638z" style="fill:#fee800"></path><path d="M38.887 393.333q.002 0 .113-.112v-80.204q-.111-.111-.113-.112l.113-.113v-54.654H10.301v158.624a120 120 0 0 0 15.702 19.281c4.103 4.081 8.45 7.82 12.997 11.223v-53.82z" style="fill:#e41d18"></path><path d="M67.42 364.798v-23.362L39 313.016v80.204c1.46-1.46 17.063-17.062 28.42-28.422" style="fill:#fee800"></path><path d="M256.563 424.222V397.99h-28.42v54.653z" style="fill:#fee800" transform="translate(-189.143 -139.852)"></path><path d="M39 393.444v53.821a118.8 118.8 0 0 0 28.421 15.732v-41.13z" style="fill:#fee800"></path><path d="M70.08 281.711s14.424 14.426 26.04 26.04v-49.613H67.421v26.232zM79.102 353.118c-1.023-1.023-5.783-5.78-11.682-11.682v23.362c5.9-5.898 10.66-10.656 11.682-11.68M70.08 424.526l-2.66-2.659v41.131c9.185 3.548 18.812 5.932 28.7 7.116v-71.627z" style="fill:#e41d18"></path><path d="m110.295 321.924 14.245-14.245v-49.54H96.12v49.611c7.017 7.018 13.01 13.01 14.175 14.174M110.295 384.312c-1.164 1.164-7.157 7.155-14.175 14.175v71.632c4.675.557 9.4.872 14.175.872 4.798 0 9.55-.319 14.245-.88v-71.554z" style="fill:#fee800"></path><path d="m150.51 281.711 2.658 2.66v-26.233H124.54v49.542zM153.17 364.798v-23.362l-11.682 11.682c1.023 1.024 5.781 5.782 11.681 11.68M150.51 424.526s-14.368-14.366-25.97-25.969v71.554a118.5 118.5 0 0 0 28.628-7.102v-41.143z" style="fill:#e41d18"></path><path d="M153.17 421.867v41.131a118.8 118.8 0 0 0 28.42-15.732v-53.82zM181.59 393.221v-80.206c-1.458 1.456-17.064 17.063-28.422 28.421v23.362z" style="fill:#fee800"></path><path d="M370.732 452.643V397.99h-28.42v26.233z" style="fill:#fee800" transform="translate(-189.143 -139.852)"></path><path d="M181.59 258.138v54.653l.111.113q-.002 0-.112.111v80.206q.11.11.112.111l-.112.111v53.802a122 122 0 0 0 12.997-11.203 120 120 0 0 0 15.703-19.28V258.137z" style="fill:#e41d18"></path><path d="M210.29 416.761c11.731-17.889 18.225-38.343 18.225-58.638v-99.986H210.29z" style="fill:#fee800"></path><path d="m299.438 520.795 40.214 40.215 27.826-27.825-40.215-40.215 40.215-40.214-27.826-27.825-40.214 40.214-40.216-40.214-27.825 27.825 40.215 40.214-40.215 40.215 27.825 27.825z" style="fill:#da2a1b" transform="translate(-189.143 -139.852)"></path><path d="M228.514 252.423v-39.646H-7.925v39.646z" style="fill:#fff"></path><path d="m40.998 235.676 9.45 2.851q-.952 3.97-2.998 6.633a13 13 0 0 1-5.078 4.018q-3.031 1.355-7.717 1.355-5.686 0-9.288-1.65t-6.219-5.804q-2.616-4.155-2.616-10.637 0-8.641 4.604-13.283 4.605-4.64 13.028-4.64 6.593.001 10.363 2.666 3.771 2.67 5.604 8.192l-9.503 2.11q-.5-1.588-1.047-2.324a6.2 6.2 0 0 0-2.214-1.896q-1.31-.663-2.928-.664-3.665 0-5.618 2.937-1.476 2.18-1.475 6.844-.001 5.779 1.756 7.921 1.756 2.144 4.938 2.143 3.085 0 4.664-1.733 1.583-1.736 2.294-5.039M55.891 240.243h10.343v9.712H55.891zM72.745 215.096h28.823v7.455H83.561v5.564h16.695v7.087H83.561v6.878h18.533v7.875H72.746v-34.859zM107.3 240.243h10.341v9.712h-10.34zM124.154 215.096h10.763v26.25h16.853v8.61h-27.615v-34.86zM152.285 214.518h10.342v7.975q0 4.403-1.83 6.963c-1.22 1.706-3.309 3.202-6.258 4.487l-2.254-4.24c1.834-.859 3.098-1.713 3.784-2.564q1.032-1.275 1.151-3.014h-4.936zM167.764 215.096h10.763v12.18h11.813v-12.18h10.814v34.86H190.34v-14.122h-11.813v14.122h-10.763z"></path><path d="M-7.925 207.063H134.34L-7.925 149.095z" style="fill:#fff" data-source="https://football-logos.cc"></path><path d="m417.657 346.915-142.264-57.968h-94.175l142.264 57.968z" style="fill:#e31b1e" transform="translate(-189.143 -139.852)"></path><path d="m86.25 149.095 142.265 57.968v-57.968z" style="fill:#fff"></path><path d="M18.593 2.523c-25.168 0-45.57 20.403-45.57 45.57s20.402 45.57 45.57 45.57 45.57-20.403 45.57-45.57c.001-25.167-20.402-45.57-45.57-45.57m0 79.235c-18.563 0-33.665-15.102-33.665-33.665S.03 14.428 18.593 14.428 52.258 29.53 52.258 48.093 37.156 81.758 18.593 81.758" style="fill:#029731"></path><path d="M156.425 48.093c0 25.167 20.403 45.57 45.57 45.57s45.57-20.403 45.57-45.57-20.402-45.57-45.57-45.57c-25.166 0-45.57 20.403-45.57 45.57m11.906 0c0-18.563 15.102-33.665 33.665-33.665S235.66 29.53 235.66 48.093s-15.103 33.665-33.664 33.665c-18.564 0-33.665-15.102-33.665-33.665" style="fill:#2b278b"></path><path d="M110.295 2.523c-25.168 0-45.57 20.403-45.57 45.57s20.402 45.57 45.57 45.57 45.57-20.403 45.57-45.57-20.404-45.57-45.57-45.57m0 79.235c-18.563 0-33.665-15.102-33.665-33.665s15.102-33.665 33.665-33.665 33.666 15.102 33.666 33.665-15.104 33.665-33.666 33.665" style="fill:#e71c18"></path><path d="M64.4 40.323c-25.168 0-45.57 20.403-45.57 45.57s20.402 45.57 45.57 45.57 45.57-20.403 45.57-45.57-20.403-45.57-45.57-45.57m0 79.235c-18.563 0-33.665-15.102-33.665-33.665S45.837 52.228 64.4 52.228 98.064 67.33 98.064 85.893 82.962 119.558 64.4 119.558"></path><path d="M156.101 40.323c-25.168 0-45.57 20.403-45.57 45.57s20.402 45.57 45.57 45.57 45.57-20.403 45.57-45.57-20.403-45.57-45.57-45.57m0 79.235c-18.563 0-33.666-15.102-33.666-33.665s15.104-33.665 33.666-33.665 33.665 15.102 33.665 33.665-15.102 33.665-33.665 33.665" style="fill:#feea00"></path><path d="M70.454 504.07a46.24 46.24 0 0 1-6.028-23.954c.078-2.467.326-4.933.825-7.385-.542.031-1.116.053-1.75.053-7.28 0-24.5-7.56-31.36-13.44-1.26 0-2.52 8.261-2.24 8.261-9.1-25.759-60.9-42.14-70-68.46 0 0-2.66.84-4.9 4.9 0-42-26.32-56-26.32-81.2 0-1.54 3.291-10.989 1.12-13.16-1.189-1.189-6.58 2.66-6.58 2.66s9.8-15.54 9.8-46.34c0-30.38 13.72-32.06 13.72-42.14-2.1-.56-5.74 0-5.74 0 19.88-12.32 22.26-35.28 45.36-56.14 0-1.26-6.86-5.74-18.062-5.74-2.52 0-5.179.84-5.179.84s8.54-16.94 8.54-36.54c0-11.062-2.799-31.642-8.959-31.642-20.86 35.28-43.26 21.981-53.9 90.44-5.32-1.679-1.82-5.599-8.12-8.12-11.2 26.601-29.82 31.501-29.82 71.96 0 22.68 13.44 49 13.44 49s-7.7-8.96-14.42-8.96c-3.359 0-4.2 1.54-4.2 1.54s5.46 11.34 5.46 20.86c0 11.2-2.1 16.938-2.1 18.48 0 56.978 37.1 58.24 37.1 70.698 0 1.821-6.44-1.819-12.88-1.819-3.36 0-7.28.7-7.28.7 22.12 27.16 38.78 80.08 88.9 80.08h9.94l-1.68 2.38c-20.86 0-25.76 10.08-25.76 12.461 0 2.38 1.68 3.64 1.68 3.64s1.681-1.682 3.641-1.682c12.46 0 46.34 30.24 83.44 30.24 17.5 0 24.64-5.04 30.66-5.04 4.2 0 4.76 1.68 6.86 1.68 1.951 0 4.031-.287 6.066-.705-8.224-4.136-14.856-10.609-19.274-18.406" style="fill:#fed604"></path><path d="M70.454 504.07a46.24 46.24 0 0 1-6.028-23.954c.042-1.344.134-2.686.288-4.026-.39.016-.784.028-1.214.028-7.338 0-21.504-6.005-29.875-11.555-.237 1.186-.418 2.362-.43 2.847l-.918-2.137-5.52 3.441C22.597 456.94 7.713 446.57-6.68 436.546c-13.958-9.722-28.27-19.759-34.642-32.034-.252.35-.504.68-.76 1.144l-6.252 11.331v-12.942c0-22.79-8.087-37.088-15.222-49.702-5.707-10.09-11.098-19.622-11.098-31.499l.645-3.476c.287-1.182.873-3.643 1.116-5.553-.649.376-1.333.803-1.952 1.242l-4.76-4.483c.092-.15 9.291-15.274 9.291-44.569 0-20.347 5.886-28.575 10.184-34.583 1.258-1.759 2.161-3.092 2.751-4.345-.383.034-.788.033-1.124.083l-2.254-6.129c9.673-5.995 14.981-14.804 21.127-25.005 5.278-8.76 11.246-18.584 20.95-28.09-2.53-1.21-7-2.618-13.02-2.618-1.955 0-4.16.681-4.182.687l-7.492 2.334 3.516-7.013c.082-.164 8.183-16.515 8.183-35.042 0-11.187-2.38-22.909-4.659-26.926-7.054 10.952-14.346 17.205-20.844 22.722-12.893 10.944-24.027 20.396-30.728 63.515l-.597 3.835-3.7-1.169c-4.109-1.297-5.095-3.878-5.748-5.585-.064-.166-.12-.292-.18-.437-3.573 7.377-7.605 13.152-11.554 18.66-8.65 12.07-16.123 22.491-16.123 48.023 0 21.592 12.944 47.23 13.076 47.484l-5.495 3.691c-2.558-2.962-7.932-7.608-11.684-7.772 1.715 4.25 4.383 11.964 4.383 19.037 0 8.521-1.167 14.021-1.794 16.976l-.308 1.586c.002 37.08 16.172 49.243 26.874 57.291 5.488 4.128 10.23 7.693 10.23 13.327 0 1.214-.543 2.32-1.489 3.035-1.792 1.355-3.884.765-6.779-.054-2.312-.653-5.189-1.468-7.947-1.468-.339 0-.693.032-1.042.045 4.182 5.741 8.206 12.188 12.407 18.95 16.05 25.835 34.242 55.118 70.256 55.118h16.373l-6.386 9.048h-1.727c-14.504 0-20.216 5.211-21.857 7.98.462-.099.91-.228 1.417-.228 5.422 0 12.821 4.041 23.063 9.633 15.926 8.695 37.74 20.606 60.377 20.606 10.557 0 17.246-1.937 22.13-3.352 3.13-.906 5.831-1.688 8.53-1.688 3.212 0 4.954.828 6.107 1.378.484.23.651.301.752.301.47 0 .958-.037 1.445-.074a46.05 46.05 0 0 1-14.65-15.702" style="fill:#fee800"></path><path d="M-40.38 114.663c2.38 0 2.24 5.042 2.24 9.1 0 18.76-20.3 50.82-25.899 50.82-2.66-5.74 13.958-31.5 17.22-44.8-9.52 17.36-22.889 29.4-31.08 47.32-2.652-31.559 30.1-53.059 37.52-62.44M-40.52 178.644c-18.48-1.82-48.3 23.8-44.8 44.52 8.12-11.06 26.32-37.52 35.56-37.8-2.52 5.46-25.06 19.46-24.22 35.56 9.8-2.24 34.44-37.52 33.46-42.28M-99.6 196.983s-19.74 20.58-19.74 49.84c0 20.16 6.72 30.24 6.72 30.24 3.78-11.9-1.26-46.48 11.34-72.94 7.28 11.06-4.2 37.24-4.2 50.681 0 6.02 2.52 11.34 2.52 11.34s10.64-36.262 10.64-44.8c0-14.14-7.28-24.36-7.28-24.36M-75.24 245.983s-26.88 20.58-26.88 58.241c0 7.7 2.94 12.32 2.94 12.32 5.741-4.2 2.94-35 18.201-56.142-4.76 10.92-9.38 31.08-9.38 35.141 0 5.88 2.94 9.38 2.94 9.38s10.22-8.68 10.22-25.34c0-5.6-1.54-5.18-1.54-12.32 0-5.319 3.5-21.28 3.5-21.28M-120.18 311.364c2.1 12.74-.84 14.141-.84 25.061 0 31.921 22.12 43.96 22.12 43.96-8.68-20.72-14.42-41.58-14.84-55.299 3.64 0 7.84 43.958 19.74 43.958 2.8-15.96-23.8-57.68-26.18-57.68M-79.3 335.443c-11.34 28.001-5.32 68.182 19.6 81.9-15.82-25.759-21-53.479-17.64-62.16 5.04 11.76 1.4 32.341 18.9 43.961-.56-39.48-22.26-51.52-20.86-63.7M-89.94 414.544c3.78 16.94 30.38 54.88 65.38 54.88-4.9-6.579-41.86-21.7-54.04-44.24 8.82.56 20.58 25.34 37.38 24.36-2.52-13.159-37.1-35.7-48.72-35M-34.78 422.383c4.06 34.161 32.2 58.521 55.3 60.761-1.12-9.1-30.94-19.6-37.52-36.119 4.76-.7 21.14 20.86 31.5 19.46-.42-15.26-38.22-29.96-49.28-44.102M-17.14 491.544c10.08 13.58 49.42 33.041 78.26 21.98-8.26-9.66-33.18-3.64-60.06-18.48 11.9-4.62 34.44 12.04 43.12 7.42-5.04-13.72-41.3-16.8-61.32-10.92M66.301 494.203c-4.848-4.383-8.542-7.979-8.542-7.979s3.09.832 7.133 1.468a46 46 0 0 1-.449-5.733c-6.646-1.143-14.453-3.104-21.944-7.634 3.623 11.47 17.721 23.644 27.138 28.191a46 46 0 0 1-3.336-8.313M181.661 530.043h-27.02c-4.879 0-13.28-4.776-20.318-9.436-.412.252-.809.534-1.228.771a46.2 46.2 0 0 1-14.79 5.332c13.3 10.68 41.506 32.313 51.734 32.313 6.582 0 16.801-5.74 16.801-5.74z" style="fill:#fed604"></path><path d="M351.548 329.844c0-1.54-2.1-7.28-2.1-18.48 0-9.52 5.46-20.86 5.46-20.86s-.84-1.54-4.2-1.54c-6.72 0-14.419 8.961-14.419 8.961s13.438-26.32 13.438-49c0-40.459-18.618-45.359-29.819-71.96-6.3 2.521-2.8 6.441-8.12 8.12-10.64-68.459-33.039-55.16-53.9-90.44-6.159 0-8.96 20.581-8.96 31.641 0 19.6 8.54 36.54 8.54 36.54s-2.658-.839-5.179-.839c-11.2 0-18.062 4.48-18.062 5.74 23.101 20.86 25.481 43.82 45.361 56.14 0 0-3.64-.56-5.74 0 0 10.08 13.72 11.76 13.72 42.14 0 30.8 9.8 46.34 9.8 46.34s-5.39-3.85-6.58-2.66c-2.17 2.171 1.12 11.62 1.12 13.16 0 25.2-26.319 39.2-26.319 81.2-2.24-4.06-4.9-4.9-4.9-4.9-9.1 26.32-60.899 42.701-70 68.46.28 0-.98-8.26-2.24-8.26-6.859 5.88-24.079 13.44-31.36 13.44-.617 0-1.18-.022-1.71-.05a45.6 45.6 0 0 1 .246 15.884 44 44 0 0 1-1.116 5.193c-1.234 4.516-3.126 8.66-5.512 12.434a47 47 0 0 1-3.78 5.092 44.5 44.5 0 0 1-5.619 5.572c-2.057 1.662-4.227 3.18-6.503 4.468a46 46 0 0 1-2.11 1.125c1.996.403 4.031.681 5.945.681 2.1 0 2.66-1.68 6.86-1.68 6.02 0 13.16 5.04 30.66 5.04 37.1 0 70.98-30.24 83.438-30.24 1.961 0 3.641 1.681 3.641 1.681s1.68-1.26 1.68-3.639c0-2.382-4.9-12.46-25.759-12.46l-1.68-2.382h9.938c50.121 0 66.78-52.92 88.9-80.08 0 0-3.92-.699-7.279-.699-6.44 0-12.88 3.641-12.88 1.82 0-12.46 37.1-13.723 37.1-70.703" style="fill:#618d40"></path><path d="M260.97 114.663c-2.38 0-2.24 5.042-2.24 9.1 0 18.76 20.3 50.82 25.898 50.82 2.66-5.74-13.958-31.5-17.22-44.8 9.521 17.36 22.888 29.4 31.081 47.32 2.65-31.559-30.1-53.059-37.52-62.44M261.11 178.644c18.48-1.82 48.3 23.8 44.8 44.52-8.12-11.06-26.32-37.52-35.56-37.8 2.52 5.46 25.06 19.46 24.22 35.56-9.802-2.24-34.44-37.52-33.46-42.28M320.19 196.983s19.74 20.58 19.74 49.84c0 20.16-6.72 30.24-6.72 30.24-3.78-11.9 1.26-46.48-11.34-72.94-7.282 11.06 4.2 37.24 4.2 50.681 0 6.02-2.52 11.34-2.52 11.34s-10.644-36.262-10.644-44.8c.002-14.14 7.283-24.36 7.283-24.36M295.83 245.983s26.88 20.58 26.88 58.241c0 7.7-2.94 12.32-2.94 12.32-5.74-4.2-2.939-35-18.2-56.142 4.761 10.92 9.381 31.08 9.381 35.141 0 5.88-2.94 9.38-2.94 9.38s-10.22-8.68-10.22-25.34c0-5.6 1.54-5.18 1.54-12.32-.002-5.319-3.5-21.28-3.5-21.28M340.77 311.364c-2.1 12.74.84 14.141.84 25.061 0 31.921-22.12 43.96-22.12 43.96 8.68-20.72 14.418-41.58 14.84-55.299-3.64 0-7.84 43.958-19.74 43.958-2.8-15.96 23.8-57.68 26.18-57.68M299.888 335.443c11.341 28.001 5.32 68.182-19.6 81.9 15.82-25.759 21-53.479 17.641-62.16-5.04 11.76-1.4 32.341-18.9 43.961.56-39.48 22.26-51.52 20.86-63.7M310.53 414.544c-3.78 16.94-30.382 54.88-65.38 54.88 4.9-6.579 41.86-21.7 54.04-44.24-8.82.56-20.58 25.34-37.38 24.36 2.52-13.159 37.1-35.7 48.72-35M255.368 422.383c-4.058 34.161-32.198 58.521-55.298 60.761 1.12-9.1 30.938-19.6 37.52-36.119-4.76-.7-21.14 20.86-31.5 19.46.42-15.26 38.22-29.96 49.278-44.102M237.73 491.544c-10.082 13.58-49.42 33.041-78.262 21.98 8.261-9.66 33.181-3.64 60.061-18.48-11.899-4.62-34.439 12.04-43.12 7.42 5.04-13.72 41.301-16.8 61.32-10.92M156.17 481.955a45.5 45.5 0 0 1-.437 5.732c4.022-.637 7.096-1.463 7.096-1.463s-3.626 3.53-8.406 7.858a45 45 0 0 1-3.276 8.338c9.414-4.617 23.345-16.702 26.942-28.096-7.482 4.523-15.278 6.487-21.919 7.631" style="fill:#8cbc59"></path><path d="M98.167 525.731c-2.793-.744-5.412-1.759-7.926-2.989l-.25-.12a45 45 0 0 1-3.664-2.055c-7.05 4.671-15.485 9.476-20.376 9.476h-27.02l-5.18 23.24s10.218 5.74 16.8 5.74c10.242 0 38.5-21.685 51.781-32.35a46 46 0 0 1-4.165-.942" style="fill:#618d40"></path><path d="M311.311 578.723c23.561 6.503 37.428 31 30.928 54.561-6.456 23.363-30.914 37.246-54.511 30.724-23.563-6.501-37.426-30.999-30.958-54.398 6.487-23.527 30.946-37.409 54.541-30.887" style="fill:#e0a326;fill-rule:evenodd" transform="translate(-189.143 -139.852)"></path><path d="M328.74 656.762c-2.057 1.662-4.227 3.18-6.503 4.468-10.354 5.88-22.78 7.72-34.928 4.354-2.793-.744-5.412-1.759-7.926-2.989l-.251-.121c-8.347-4.131-15.069-10.668-19.535-18.551a46.24 46.24 0 0 1-6.028-23.954l3.23 1.58a42.3 42.3 0 0 0 1.729 11.838c4.08 3.021 7.593 4.028 10.731 2.981 2.247-.681 4.376-2.572 6.351-5.612l2.908 1.424c-2.433 3.884-5.128 6.3-8.25 7.31-3.138 1.046-6.428.678-9.859-1.222.515 1.498 1.292 2.813 2.055 4.164 1.797 3.149 3.822 6.012 6.348 8.584a36 36 0 0 0 6.284 1.161c2.149.427 4.24.427 6.332.427 7.938-.03 15.512-2.508 22.472-7.999l3.232 1.579c-7.936 6.574-16.581 9.508-25.64 9.655-2.324.109-4.525-.119-6.886-.389-.198-.051-.556-.14-.948-.063 4.28 3.073 9.073 5.555 14.52 7.063 11.253 3.104 22.909 1.38 32.338-3.973.907-.492 1.868-1.179 2.74-1.687l-.163-.033c.101-.931.147-1.843.158-2.686zm5.619-5.573a44.5 44.5 0 0 1-5.619 5.572l-5.49-2.691c.01-3.199-.585-5.896-1.927-8.061-.436-.659-.905-1.334-1.431-1.902l5.349 2.62c.86 2.244 1.237 4.833 1.122 7.711a42 42 0 0 0 4.944-4.742zm-80.79-31.221c.083-2.631.349-5.258.917-7.872l3.05 1.492a43 43 0 0 0-.737 7.96zm53.562 26.215-3.232-1.579a48.6 48.6 0 0 0 5.801-5.487l3.086 1.512c-1.824 2.088-3.738 3.91-5.655 5.554m-28.613-14.004-2.908-1.424a29 29 0 0 0 1.674-2.964c-1.554-2.006-2.825-4.139-3.737-6.366l4.811 2.354a24 24 0 0 0 1.249 1.813l.504.334c3.178 1.689 5.885 2.614 8.191 2.719l4.775 2.338c-3.454 1.604-7.73 1.066-13.025-1.48-.511.951-1.005 1.867-1.534 2.676m59.622 13.919a47 47 0 0 1-3.78 5.092l-3.052-1.493a37.7 37.7 0 0 0 3.892-5.04zm-83.654-34.002c.168-.984.411-1.933.672-2.921.312-1.092.659-2.17 1.028-3.192l2.979 1.461c-.315.823-.576 1.721-.837 2.616a51 51 0 0 0-.792 3.528zm70.755 34.632-5.349-2.62c-1.604-1.81-3.635-3.205-6.312-4.378-.244.322-.511.593-.796.898l-3.086-1.512c.494-.558 1.006-1.15 1.521-1.743.128-1.629.1-3.113-.036-4.471l3.301 1.615c.041.645.013 1.341-.02 2.039 4.414 1.804 7.494 4.334 9.594 7.764a13.5 13.5 0 0 1 1.183 2.408m-32.164-15.746-4.775-2.338c1.395.061 2.663-.165 3.748-.744 1.139-.599 2.148-1.574 2.978-2.906l2.945 1.44c-1.164 2.013-2.618 3.439-4.434 4.331-.177.089-.301.163-.462.217m-14.719-7.203-4.811-2.354c-1.075-2.529-1.759-5.222-2.106-7.974l3.555 1.739c.634 3.072 1.749 5.973 3.362 8.589m66.41 4.692a44 44 0 0 1-1.116 5.193c-1.234 4.516-3.126 8.66-5.512 12.434l-2.94-1.441a40 40 0 0 0 2.466-4.311c-1.72-7.026-3.651-13.178-6.288-18.429l4.524 2.212c1.442 3.51 2.67 7.362 3.813 11.483.298-1.058.699-1.886.944-2.744a38 38 0 0 0 1.166-5.84zm-88.581-22.489a45.9 45.9 0 0 1 9.856-16.045l3.086 1.513c-4.36 4.36-7.818 9.79-9.964 15.993zm58.298 28.536-3.301-1.615c-.294-2.769-1.12-5.173-2.458-7.165-1.883-2.79-4.53-4.841-8.312-6.293-.584 2.83-1.405 5.144-2.442 6.99l-2.945-1.44c1.094-1.777 1.93-4.214 2.459-7.296-2.068-3.413-2.881-6.659-2.586-9.808.061-1.218.3-2.344.686-3.491l2.909 1.423a9.7 9.7 0 0 0-.411 2.203c-.12 2.609.508 5.052 1.997 7.92 5.217 1.617 8.814 4.356 11.274 7.875 1.941 2.949 3.022 6.554 3.13 10.697m-39.489-19.328-3.555-1.739a34 34 0 0 1-.234-4.699c-.096-4.897.701-9.979 2.086-15.264l3.018 1.477c-1.212 4.834-1.89 9.398-1.87 13.725-.035 2.252.143 4.431.555 6.5m36.733-38.043a43.6 43.6 0 0 1 7.925 2.986l.251.124c8.35 4.13 15.068 10.671 19.57 18.568 4.919 8.682 6.991 19.083 5.292 29.645l-2.943-1.442c1.244-9.446-.837-18.741-5.25-26.73-5.299-9.448-14.424-16.897-25.715-20.017-1.021-.276-2.075-.572-2.988-.798-3.577 2.034-5.826 4.626-6.621 7.617-1.029 2.923-.66 6.439.877 10.487 12.44 2.309 20.705 7.239 26.572 14.163 2.981 3.638 5.286 7.749 7.202 12.378l-4.524-2.212c-1.488-2.956-3.156-5.64-5.163-8.001-5.432-6.441-13.07-11.024-24.726-13.302-1.435 1.744-2.454 3.469-2.994 5.208l-2.909-1.423c.646-2.044 1.792-3.931 3.42-5.803-1.74-4.632-2.148-8.705-.946-12.346.762-2.83 2.584-5.186 5.051-7.317-8.139-.736-16.187.979-23.238 4.56l-.033.161s-.052.197-.086.359c-.441.809-.735 1.862-.822 2.223-1.029 3.012-1.915 5.916-2.623 8.729l-3.018-1.477a105 105 0 0 1 2.209-7.238 45 45 0 0 0-6.373 5.2l-3.086-1.513a46.3 46.3 0 0 1 10.795-8.42c10.321-5.897 22.782-7.717 34.894-4.369" style="fill-rule:evenodd" transform="translate(-189.143 -139.852)" data-source="https://football-logos.cc"></path><!-- source: https://football-logos.cc --></svg>