<svg xmlns="http://www.w3.org/2000/svg" viewBox="68.72 97.48 1526.89 1705.86"><!-- Source: https://football-logos.cc --><path fill="#f59b28" fill-rule="evenodd" d="M832.161 97.481q.698 0 1.392.427Q890.28 132.79 952.97 158.54c103.26 42.41 214.84 61.25 326.55 51.83q119.72-10.1 229.24-59.57 20.23-9.14 42.11-21.46c15.07-8.48 28.29-18.11 44.12-28.64a.251.246-17.204 0 1 .39.2q.99 126.54-2.28 247.85c-2.97 110.3-9.33 218.42-21.72 327.48-18.58 163.51-52.53 326.25-114.96 479.2q-102.14 250.26-301.69 430c-96.15 86.6-206.05 158.81-322.232 217.846q-.128.065-.292.065t-.291-.065c-116.185-59.03-226.089-131.234-322.244-217.829q-199.559-179.729-301.712-429.984c-62.438-152.947-96.397-315.685-114.986-479.194C80.578 567.21 74.212 459.09 71.236 348.79q-3.276-121.31-2.293-247.85a.251.246 17.201 0 1 .39-.2c15.83 10.529 29.051 20.159 44.121 28.638q21.881 12.319 42.112 21.458 109.522 49.464 229.243 59.558c111.71 9.414 223.289-9.432 326.547-51.848q62.689-25.753 119.413-60.638.695-.427 1.392-.427m.061 1683.876q.336 0 .893-.287c123.435-63.62 239.455-142.44 339.005-238.44q122.03-117.65 203.7-264.33c101.83-182.88 151.31-389.05 175.28-595.79 14.95-128.91 21.52-255.93 23.9-387.01q1.32-72.4 1.37-158.01a.359.355 74.482 0 0-.54-.31q-26.93 16.7-57.67 30.69-136.82 62.3-288.45 64.23c-140.38 1.79-276.7-40.38-396.711-111.827q-.239-.143-.777-.143-.539 0-.778.143C711.433 191.72 575.113 233.89 434.733 232.1q-151.63-1.93-288.45-64.229-30.74-13.99-57.67-30.69a.359.355-74.482 0 0-.54.31q.05 85.61 1.37 158.01c2.381 131.08 8.951 258.1 23.901 387.01 23.97 206.74 73.45 412.91 175.28 595.789q81.67 146.68 203.7 264.33c99.551 96 215.571 174.82 339.006 238.44q.556.287.892.287" data-source="https://football-logos.cc"></path><path fill="#fff" fill-rule="evenodd" d="M832.222 120.13q.538 0 .777.143C953.01 191.72 1089.33 233.89 1229.71 232.1q151.63-1.93 288.45-64.23 30.74-13.99 57.67-30.69a.359.355 74.482 0 1 .54.31q-.05 85.61-1.37 158.01c-2.38 131.08-8.95 258.1-23.9 387.01-23.97 206.74-73.45 412.91-175.28 595.79q-81.67 146.68-203.7 264.33c-99.55 96-215.57 174.82-339.005 238.44q-.557.287-.893.287t-.892-.287c-123.435-63.62-239.455-142.44-339.006-238.44q-122.03-117.65-203.7-264.33c-101.83-182.879-151.31-389.049-175.28-595.789-14.95-128.91-21.52-255.93-23.901-387.01q-1.32-72.4-1.37-158.01a.359.355-74.482 0 1 .54-.31q26.93 16.7 57.67 30.69 136.82 62.299 288.45 64.229c140.38 1.79 276.7-40.38 396.711-111.827q.239-.143.778-.143m.001 1416.976q.342 0 .86-.283c88.837-48.453 171.187-109.173 240.067-183.403q56.99-61.41 99.95-134.59c52.06-88.67 86.31-186.16 108.46-286.84 20.06-91.15 31.09-184.1 36.88-276.99q5.95-95.45 6.26-192.5a.27.27-1.023 0 0-.28-.27q-79.54 3.5-159.42-1.05c-63.82-3.63-128.76-11.17-191.22-26.51-34.26-8.42-69.09-20.01-99.88-36.58-15.59-8.38-27.65-17.2-40.906-28.02q-.289-.235-.768-.235t-.768.235c-13.257 10.82-25.317 19.64-40.907 28.02-30.79 16.57-65.62 28.16-99.88 36.579-62.46 15.34-127.4 22.88-191.22 26.509q-79.88 4.55-159.42 1.05a.27.27 1.024 0 0-.28.27q.31 97.05 6.259 192.5c5.79 92.89 16.819 185.84 36.879 276.99 22.149 100.68 56.399 198.17 108.459 286.84q42.959 73.181 99.949 134.591c68.88 74.23 151.229 134.951 240.066 183.404q.519.283.86.283M301.16 1071.79q.6.6 3.24 2.55c16.34 12.05 38.29 4.77 45.8-13.7 3.54-8.7 2.07-20.19-.97-29.14q-6.77-19.9-16.23-46.91a.844.835 70.598 0 0-1.07-.52l-117.78 40.76a.718.708-19.572 0 0-.44.91q14.38 41.77 17.02 49.04c6.24 17.13 16.76 30.6 36.22 30.51 15.21-.07 28.78-8.52 32.55-23.67.86-3.48.68-7.17 1.08-9.64a.345.342-62.905 0 1 .58-.19m1073.29 41.31-3.73 13.98a.663.662-73.869 0 0 .44.8c18.54 5.85 37.11-.23 48.22-16.28 13.41-19.37 22.34-51.27 1.8-69.74q-9.29-8.35-21.59-8.83c-14.75-.58-25.66 9.41-33.86 21.21q-7.4 10.65-12.08 17.86c-2.67 4.11-6.82 9.75-9.73 12.65-12.04 12-27.92 2.03-27.78-13.05q.07-7.85 4.28-18.15c5.85-14.36 15.82-22.38 31.7-18.41a.891.885-75.322 0 0 1.07-.63l3.83-14.35a.614.609 15.684 0 0-.42-.74c-14.43-4.22-28.12-.95-38.29 9.78-16.82 17.74-26.84 56.34-2.23 72.34q8.61 5.6 18.2 5.16c13.27-.61 22.84-10.09 30.25-20.69q6.72-9.61 14.17-20.54 3.49-5.12 7.88-9.61c6.54-6.69 16.01-8.47 23.74-2.4 14.05 11.03 6.4 35.29-2.3 46.81-6.8 8.99-15.5 14.48-26.75 13.03q-5-.64-5.91-.79a.816.813 11.923 0 0-.91.59m-986.834 16.272a.81.81-45.749 0 0-1.088-.356l-111.166 56.358a.81.81 59.082 0 0-.356 1.089l41.898 82.635a.81.81-21.199 0 0 1.088.356l12.065-6.108a.81.81 52.635 0 0 .357-1.089l-34.238-67.535a.81.81-73.867 0 1 .356-1.088l36.556-18.538a.81.81 1.294 0 1 1.088.357l30.778 60.704a.81.81-75.95 0 0 1.089.356l11.975-6.077a.81.81 65.939 0 0 .356-1.088l-30.778-60.706a.81.81-35.475 0 1 .356-1.088l32.725-16.598a.81.81-79.505 0 1 1.089.357l32.908 64.915a.81.81 31.529 0 0 1.088.356l12.065-6.108a.81.81 46.264 0 0 .357-1.089zm851.262 68.001c-18.043 33.906-2.315 67.109 29.286 83.925s67.927 11.315 85.97-22.59 2.314-67.109-29.287-83.926c-31.601-16.816-67.926-11.314-85.969 22.591M444.08 1356.01q5 4.97 10.3 8.33c12.95 8.18 27.49 7.22 39.21-2.41 10.43-8.56 16.3-23.21 10.72-36.25q-3.81-8.89-8.75-15.74-12.78-17.73-34.76-47.83a.93.922-35.935 0 0-1.29-.2l-100.73 73.21a.852.846-36.053 0 0-.19 1.18l9.08 12.48a.674.666 53.725 0 0 .94.15l44.29-32.18a.552.544 53.443 0 1 .77.12l12.52 17.22q7.18 9.92 4.56 20.66-2.04 8.33-4.16 14.07-5.53 14.92-15.03 38.56a2.166 2.163-51.897 0 0 .25 2.08l11.2 15.41a.571.567 37.904 0 0 .99-.12q7.85-19.6 15.46-39.52c3.32-8.7 5.78-19.43 3.97-28.88a.385.383 17.264 0 1 .65-.34m683.7-4.67 6.16-7.73a.793.788-48.408 0 0-.06-1.06c-1.64-1.6-3.43-3.46-3.22-5.85q.39-4.33 4.73-6.38c7.38-3.48 13.45-5.61 17.57-11.05 3.6-4.76 4.14-11.57 1.36-16.81-1.12-2.11-2.99-4.1-4.88-6.46q-.9-1.11-1.89-1.04-.76.06-1.98 1.73-.86 1.19-4.76 5.9a.849.846 47.89 0 0-.05 1.02q1.02 1.52 2.35 3.4c2.45 3.48-1.82 7.37-4.76 8.85-9.09 4.57-19.7 9.05-19.61 20.9q.07 8.35 7.55 14.73a1.041 1.037-50.638 0 0 1.49-.15m71.719 16.22q-64.798-5.373-69.086-5.781a2.108 2.103 21.821 0 0-1.853.791l-9.65 12.11a.718.711-51.594 0 0 .11 1l97.7 77.81a.69.69 52.752 0 0 .97-.11l9.16-11.5a.82.82-12.102 0 0-.13-1.15l-75.72-60.31a.291.285-44.377 0 1 .01-.46q.2-.14.542-.113 39.575 3.312 46.703 3.903 64.798 5.367 69.086 5.776a2.108 2.103 21.821 0 0 1.853-.791l9.65-12.11a.718.711-51.594 0 0-.11-1l-97.7-77.81a.69.69-37.231 0 0-.97.11l-9.16 11.5a.82.82-70.71 0 0 .13 1.15l75.72 60.31a.291.285-44.377 0 1-.01.46q-.2.14-.541.113-39.576-3.312-46.704-3.898M547.58 1485.64l25.5 24.79a.835.828 44.263 0 1 .02 1.17l-14.69 15.11a3.075 3.057-63.727 0 1-2.63.9c-20.51-2.97-38.69-15.7-46.2-35.29-5.81-15.18-1.1-30.04 8.59-42.2 12.71-15.92 33.38-30.43 54.59-23.36 13.07 4.36 25.42 15.62 30.31 28.62 3.7 9.85 1.5 19.02-3.34 27.65a1.004.998 29.925 0 0 .37 1.36l12.24 7.06a.86.856-60.052 0 0 1.18-.32q4.05-7.04 6.01-14.3c6.76-25.01-13.13-48.93-33.24-60.35-18.55-10.54-38.14-9.34-56.81 1.07-17.9 9.99-32.81 27.55-37.42 47.75-3.5 15.34.31 30.76 8.81 43.96 13.95 21.66 35.8 33.25 61.26 36.02a2.648 2.646 25.295 0 0 2.18-.78l31.3-32.2a.736.736-19.144 0 0-.02-1.04l-37.2-36.16a1.025 1.018 44.016 0 0-1.45.02l-9.38 9.65a.615.608 44.016 0 0 .02.87m524.493-63.142a.87.87 0 0 0-1.23-.018l-10.926 10.625a.87.87 0 0 0-.017 1.23l86.867 89.327a.87.87 0 0 0 1.23.018l10.926-10.625a.87.87 0 0 0 .017-1.23zm-94.703 82.832q-38.644 30.301-38.795 30.432a.765.758-39.529 0 0-.105 1.048l8.41 10.73a.728.726 52.126 0 0 1.03.13l31.68-24.83a.584.584 18.166 0 1 .82.1l67.69 86.33a.713.707-37.481 0 0 .996.127q3.029-2.334 6.135-4.771 3.107-2.436 6.096-4.82a.713.707-38.721 0 0 .114-.997l-67.694-86.327a.584.584-88.023 0 1 .098-.82l31.67-24.844a.728.726 51.672 0 0 .119-1.031l-8.415-10.726a.765.758-36.673 0 0-1.043-.148q-.162.115-38.806 30.417m-263.268 20.47a.67.67 27.524 0 0-.758-.019l-112.246 72.868a.67.67-46.414 0 0-.029 1.104l13.401 9.731a.67.67-5.933 0 0 .769.013l32.812-22.194a.67.67 85.712 0 1 .769.013l41.767 30.294a.67.67 73.355 0 1 .254.715l-10.302 38.63a.67.67 31.832 0 0 .254.715l14.4 10.444a.67.67-8.202 0 0 1.044-.383l32.046-131.124a.67.67 31.811 0 0-.257-.701zm140.361 95.435q-36.124-53.975-38.473-57.579a2.106 2.101 73.287 0 0-1.772-.956l-15.468-.005a.718.71-.128 0 0-.712.709l-.002 124.761a.69.69-13.283 0 0 .689.69l14.686.001a.817.817 3.941 0 0 .818-.817l.005-96.697a.291.285 7.089 0 1 .366-.279q.234.07.426.354 22.039 32.984 26.013 38.921 36.129 53.973 38.478 57.577a2.106 2.101 73.287 0 0 1.771.956l15.468.005a.718.71-.128 0 0 .713-.709l.002-124.761a.69.69 81.853 0 0-.69-.689l-14.686-.002a.817.817-13.307 0 0-.817.818l-.006 96.696a.291.285 7.089 0 1-.366.279q-.234-.07-.425-.353-22.04-32.985-26.018-38.92"></path><path fill="#f59b28" fill-rule="evenodd" d="M832.226 369.835q.479 0 .768.235c13.256 10.82 25.316 19.64 40.906 28.02 30.79 16.57 65.62 28.16 99.88 36.58 62.46 15.34 127.4 22.88 191.22 26.51q79.88 4.55 159.42 1.05a.27.27-1.023 0 1 .28.27q-.31 97.05-6.26 192.5c-5.79 92.89-16.82 185.84-36.88 276.99-22.15 100.68-56.4 198.17-108.46 286.84q-42.96 73.18-99.95 134.59c-68.88 74.23-151.23 134.95-240.067 183.403q-.518.283-.86.283t-.86-.283c-88.837-48.453-171.186-109.174-240.066-183.404q-56.99-61.41-99.949-134.591c-52.06-88.67-86.31-186.16-108.459-286.84-20.06-91.15-31.089-184.1-36.879-276.99q-5.949-95.45-6.259-192.5a.27.27 1.024 0 1 .28-.27q79.54 3.5 159.42-1.05c63.82-3.629 128.76-11.169 191.22-26.509 34.26-8.419 69.09-20.009 99.88-36.579 15.59-8.38 27.65-17.2 40.907-28.02q.289-.235.768-.235M797.5 833.09l-.65 19.47H384.21a.566.564-4.357 0 0-.56.65q14.25 89.08 40.27 172.86 16.59 53.41 39.84 105.43 69.47 155.43 196.39 267.58c52.46 46.35 110.36 86.16 171.49 120.15a.97.952-44.47 0 0 .95 0q72.86-40.17 137.57-91.55c85.91-68.22 156.52-151.94 207.16-248.38 53.26-101.43 85.2-212.85 103.47-326.16a.506.503 4.387 0 0-.5-.58l-420.2.15-.24-.24a1.06.981-73.764 0 1-.3-.6L857 833.02l426.41.01a.838.835 3.937 0 0 .83-.72c17.68-116.87 23.35-234.67 24.85-353.56a.45.45-.597 0 0-.47-.46c-54.12 2.09-108.18.85-158.37-2.52-68.14-4.58-134-13.2-198.6-30.92-42.24-11.6-84.07-28.47-119.04-55.13a.816.797-44.917 0 0-.99.01q-16.57 13.05-35.79 23.1c-34.62 18.11-73.3 30.62-111.65 39.32q-48.24 10.94-93.69 16.38-117.29 14.04-234.57 9.8a.511.501.551 0 0-.53.51q.54 115.59 10.25 230.38 5.18 61.28 14.45 122.87a1.09 1.09 85.717 0 0 1.08.93z"></path><path fill="#e74015" fill-rule="evenodd" d="M857 833.02q-1.58-11.85-3.15-23.09-.02-.17-.81-3.85-.52-2.44.07-4.23 9.54-6.35 16.52-15.02c3.71-4.59 9.07-6.67 14.4-8.9 6.44-2.68 14.07-4.33 19.4-7.23q9.57-5.22 16.11-8.05 6.18-2.68 12.82-6.72 22.72-13.81 50.7-30.62c4.64-2.79 13.33-4.38 18.34-8.67q24.34-20.86 25.7-52.91 1.35-31.83-17.98-56.83-8.01-10.37-17.49-16.48-8.66-5.57-11.1-7.97-8.51-8.35-16.91-14.33c-26.34-18.74-56.6-32.4-87.91-42.67-7.67-2.52-14.93-5.51-22.54-8.62q-14.52-5.92-29.54-6.05-13.75-.12-23.95 2.29-5.63 1.33-14.32 5.48-25.45 12.15-42.14 20.91-14.98 7.86-30.08 19.93-1.26 1.01-11.45 11.28-2.56 2.57-6.03 6.95-2.59 3.26-6.32 6.71-12.65 11.72-29.03 28.48-7.81 7.99-12.98 16.23-12.61 20.07-9.65 43.8c.99 7.92 4.62 17.07 8.01 24.25 4.89 10.4 12.66 16.61 22.34 22.15q9.02 5.15 20.85 10.44 9.16 4.09 21.96 7.8 7.09 2.06 29.81 9.78 12.92 4.39 16.8 7.65 8.71 7.34 10.16 20.21c.76 6.86-.07 16.04 4.5 23.04q1.4 2.15 6.91 5.99c4.28 2.99 7.83 6 12.79 8.02q1.66.67 6.55 3.83l-.86 17.09-416.33-.07a1.09 1.09 85.717 0 1-1.08-.93q-9.27-61.59-14.45-122.87-9.71-114.79-10.25-230.38a.511.501.551 0 1 .53-.51q117.28 4.24 234.57-9.8 45.45-5.44 93.69-16.38c38.35-8.7 77.03-21.21 111.65-39.32q19.22-10.05 35.79-23.1a.816.797-44.917 0 1 .99-.01c34.97 26.66 76.8 43.53 119.04 55.13 64.6 17.72 130.46 26.34 198.6 30.92 50.19 3.37 104.25 4.61 158.37 2.52a.45.45-.597 0 1 .47.46c-1.5 118.89-7.17 236.69-24.85 353.56a.838.835 3.937 0 1-.83.72z"></path><path fill="#479d3e" fill-rule="evenodd" d="M853.11 801.85q-9.82 5.33-19.81 11.19-9.42 5.52-21.79 5.77-4.73.1-13.15-2.81-4.89-3.16-6.55-3.83c-4.96-2.02-8.51-5.03-12.79-8.02q-5.51-3.84-6.91-5.99c-4.57-7-3.74-16.18-4.5-23.04q-1.45-12.87-10.16-20.21-3.88-3.26-16.8-7.65-22.72-7.72-29.81-9.78-12.8-3.71-21.96-7.8-11.83-5.29-20.85-10.44c-9.68-5.54-17.45-11.75-22.34-22.15-3.39-7.18-7.02-16.33-8.01-24.25q-2.96-23.73 9.65-43.8 5.17-8.24 12.98-16.23 16.38-16.76 29.03-28.48 3.73-3.45 6.32-6.71 3.47-4.38 6.03-6.95 10.19-10.27 11.45-11.28 15.1-12.07 30.08-19.93 16.69-8.76 42.14-20.91 8.69-4.15 14.32-5.48 10.2-2.41 23.95-2.29 15.02.13 29.54 6.05c7.61 3.11 14.87 6.1 22.54 8.62 31.31 10.27 61.57 23.93 87.91 42.67q8.4 5.98 16.91 14.33 2.44 2.4 11.1 7.97 9.48 6.11 17.49 16.48 19.33 25 17.98 56.83-1.36 32.05-25.7 52.91c-5.01 4.29-13.7 5.88-18.34 8.67q-27.98 16.81-50.7 30.62-6.64 4.04-12.82 6.72-6.54 2.83-16.11 8.05c-5.33 2.9-12.96 4.55-19.4 7.23-5.33 2.23-10.69 4.31-14.4 8.9q-6.98 8.67-16.52 15.02"></path><path fill="#a26d2f" fill-rule="evenodd" d="M853.11 801.85q-.59 1.79-.07 4.23.79 3.68.81 3.85 1.57 11.24 3.15 23.09l2.55 18.85a1.06.981-73.764 0 0 .3.6l.24.24q-.29.68-.24 1.03 4.86 33.57 9.46 67.4a.958.957-3.69 0 1-.95 1.08h-72.23a1.161 1.16-89.278 0 1-1.16-1.19l1.88-68.47.65-19.47.86-17.09q8.42 2.91 13.15 2.81 12.37-.25 21.79-5.77 9.99-5.86 19.81-11.19"></path><path fill="#2a83c5" fill-rule="evenodd" d="m796.85 852.56-1.88 68.47a1.161 1.16-89.278 0 0 1.16 1.19h72.23a.958.957-3.69 0 0 .95-1.08q-4.6-33.83-9.46-67.4-.05-.35.24-1.03l420.2-.15a.506.503 4.387 0 1 .5.58c-18.27 113.31-50.21 224.73-103.47 326.16-50.64 96.44-121.25 180.16-207.16 248.38q-64.71 51.38-137.57 91.55a.97.952-44.47 0 1-.95 0c-61.13-33.99-119.03-73.8-171.49-120.15q-126.92-112.15-196.39-267.58-23.25-52.02-39.84-105.43-26.02-83.78-40.27-172.86a.566.564-4.357 0 1 .56-.65zm246.8 208.6a.358.351 75.579 0 0 .26-.45c-11.78-40.85-42.11-68.07-85.43-71.71-23.4-1.96-45.58 1.4-66.56 11.4-34.25 16.33-54.47 48.64-60.04 85.47q-6.67 44.05 7.16 84.37c10.95 31.91 32.04 57.04 64.81 67.17q16.3 5.03 34.68 5.42 14.16.31 21.72-.58c47.2-5.55 76.54-37.13 87.77-81.64a.774.774 19.235 0 0-.56-.94l-31.62-7.73a.793.789 12.838 0 0-.96.6c-7.72 36.36-32.22 60.38-70.46 60.96q-18.07.28-34.43-6.91-23.78-10.46-34.6-33.49-6.57-13.99-9.21-30.04c-4.38-26.58-2.95-54.17 6.6-79.05 9.16-23.87 29.66-40.3 54.89-44.61q15.54-2.66 30.79-.56c28.42 3.92 44.12 22.94 52.68 48.87a.991.989 74.575 0 0 1.16.66zm-246.95-39.73a.75.75 45 0 0 .75-.75v-27.59a.75.75-45 0 0-.75-.75H631.53a.75.75 45 0 0-.75.75v245.3a.75.75-45 0 0 .75.75h31.34a.75.75 45 0 0 .75-.75v-110.2a.75.75-45 0 1 .75-.75h114.24a.75.75 45 0 0 .75-.75v-27.58a.75.75-45 0 0-.75-.75H664.38a.75.75 45 0 1-.75-.75v-75.43a.75.75 36.833 0 1 .75-.75z"></path><path fill="#f59b28" fill-rule="evenodd" d="M300.58 1071.98c-.4 2.47-.22 6.16-1.08 9.64-3.77 15.15-17.34 23.6-32.55 23.67-19.46.09-29.98-13.38-36.22-30.51q-2.64-7.27-17.02-49.04a.718.708-19.572 0 1 .44-.91l117.78-40.76a.844.835 70.598 0 1 1.07.52q9.46 27.01 16.23 46.91c3.04 8.95 4.51 20.44.97 29.14-7.51 18.47-29.46 25.75-45.8 13.7q-2.64-1.95-3.24-2.55a.345.342-62.905 0 0-.58.19m22.949-67.105-34.811 12.054a.41.41-3.981 0 0-.254.522l11.587 33.461a19.84 17.2 70.9 0 0 22.745 13.119l3.081-1.066a19.84 17.2 70.9 0 0 9.761-24.376l-11.587-33.461a.41.41-3.879 0 0-.522-.253m-50.414 17.448-39.064 13.527a.8.8 61.417 0 0-.494 1.018l12.162 35.124a22.95 20.05 70.9 0 0 26.456 15.126l2.684-.93a22.95 20.05 70.9 0 0 11.436-28.247l-12.162-35.124a.8.8-31.743 0 0-1.018-.494M1043.65 1061.16l-31.35 7.21a.991.989 74.575 0 1-1.16-.66c-8.56-25.93-24.26-44.95-52.68-48.87q-15.25-2.1-30.79.56c-25.23 4.31-45.73 20.74-54.89 44.61-9.55 24.88-10.98 52.47-6.6 79.05q2.64 16.05 9.21 30.04 10.82 23.03 34.6 33.49 16.36 7.19 34.43 6.91c38.24-.58 62.74-24.6 70.46-60.96a.793.789 12.838 0 1 .96-.6l31.62 7.73a.774.774 51.14 0 1 .56.94c-11.23 44.51-40.57 76.09-87.77 81.64q-7.56.89-21.72.58-18.38-.39-34.68-5.42c-32.77-10.13-53.86-35.26-64.81-67.17q-13.83-40.32-7.16-84.37c5.57-36.83 25.79-69.14 60.04-85.47 20.98-10 43.16-13.36 66.56-11.4 43.32 3.64 73.65 30.86 85.43 71.71a.358.351 75.579 0 1-.26.45M796.7 1021.43H664.38a.75.75 11.307 0 0-.75.75v75.43a.75.75-45 0 0 .75.75h114.23a.75.75 45 0 1 .75.75v27.58a.75.75-45 0 1-.75.75H664.37a.75.75 45 0 0-.75.75v110.2a.75.75-45 0 1-.75.75h-31.34a.75.75 45 0 1-.75-.75v-245.3a.75.75-45 0 1 .75-.75H796.7a.75.75 45 0 1 .75.75v27.59a.75.75-45 0 1-.75.75"></path><path fill="#fff" fill-rule="evenodd" d="M323.529 1004.875a.41.41 19.693 0 1 .522.253l11.587 33.461a19.84 17.2 70.9 0 1-9.761 24.376l-3.081 1.066a19.84 17.2 70.9 0 1-22.745-13.119l-11.587-33.461a.41.41 11.12 0 1 .254-.522z"></path><path fill="#f59b28" fill-rule="evenodd" d="M1375.36 1112.51q.91.15 5.91.79c11.25 1.45 19.95-4.04 26.75-13.03 8.7-11.52 16.35-35.78 2.3-46.81-7.73-6.07-17.2-4.29-23.74 2.4q-4.39 4.49-7.88 9.61-7.45 10.93-14.17 20.54c-7.41 10.6-16.98 20.08-30.25 20.69q-9.59.44-18.2-5.16c-24.61-16-14.59-54.6 2.23-72.34 10.17-10.73 23.86-14 38.29-9.78a.614.609 15.684 0 1 .42.74l-3.83 14.35a.891.885-75.322 0 1-1.07.63c-15.88-3.97-25.85 4.05-31.7 18.41q-4.21 10.3-4.28 18.15c-.14 15.08 15.74 25.05 27.78 13.05 2.91-2.9 7.06-8.54 9.73-12.65q4.68-7.21 12.08-17.86c8.2-11.8 19.11-21.79 33.86-21.21q12.3.48 21.59 8.83c20.54 18.47 11.61 50.37-1.8 69.74-11.11 16.05-29.68 22.13-48.22 16.28a.663.662-73.869 0 1-.44-.8l3.73-13.98a.816.813 11.923 0 1 .91-.59" data-source="https://football-logos.cc"></path><path fill="#fff" fill-rule="evenodd" d="M273.115 1022.323a.8.8-28.632 0 1 1.018.494l12.162 35.124a22.95 20.05 70.9 0 1-11.436 28.247l-2.684.93a22.95 20.05 70.9 0 1-26.456-15.126l-12.162-35.124a.8.8-75.337 0 1 .494-1.018z"></path><path fill="#f59b28" fill-rule="evenodd" d="m387.616 1129.372 40.568 80.015a.81.81-77.196 0 1-.357 1.089l-12.065 6.108a.81.81 24.108 0 1-1.088-.356l-32.908-64.915a.81.81 78.81 0 0-1.089-.357l-32.725 16.598a.81.81-24.508 0 0-.356 1.088l30.778 60.706a.81.81-83.839 0 1-.356 1.088l-11.975 6.077a.81.81-72.975 0 1-1.089-.356l-30.778-60.704a.81.81-36.662 0 0-1.088-.357l-36.556 18.538a.81.81-84.313 0 0-.356 1.088l34.238 67.535a.81.81-80.569 0 1-.357 1.089l-12.065 6.108a.81.81 3.842 0 1-1.088-.356l-41.898-82.635a.81.81 21.959 0 1 .356-1.089l111.166-56.358a.81.81 11.455 0 1 1.088.356M1324.847 1174.782c31.601 16.817 47.33 50.02 29.287 83.926s-54.368 39.407-85.97 22.59-47.329-50.019-29.286-83.925 54.368-39.407 85.969-22.591m-72.878 29.223q-4.648 8.577-5.223 16.967c-1.45 21.153 11.738 35.303 29.375 44.86 17.638 9.557 36.693 12.879 53.623.114q6.715-5.063 11.362-13.64t5.223-16.968c1.449-21.153-11.738-35.303-29.376-44.86-17.637-9.557-36.692-12.879-53.622-.114q-6.715 5.063-11.362 13.641"></path><path fill="#fff" fill-rule="evenodd" d="M1316.953 1190.478c17.638 9.557 30.825 23.707 29.376 44.86q-.575 8.39-5.223 16.968t-11.362 13.64c-16.93 12.765-35.985 9.443-53.623-.114s-30.825-23.707-29.375-44.86q.575-8.39 5.223-16.967 4.647-8.578 11.362-13.641c16.93-12.765 35.985-9.443 53.622.114"></path><path fill="#f59b28" fill-rule="evenodd" d="M444.08 1356.01a.385.383 17.264 0 0-.65.34c1.81 9.45-.65 20.18-3.97 28.88q-7.61 19.92-15.46 39.52a.571.567 37.904 0 1-.99.12l-11.2-15.41a2.166 2.163-51.897 0 1-.25-2.08q9.5-23.64 15.03-38.56 2.12-5.74 4.16-14.07 2.62-10.74-4.56-20.66l-12.52-17.22a.552.544 53.443 0 0-.77-.12l-44.29 32.18a.674.666 53.725 0 1-.94-.15l-9.08-12.48a.852.846-36.053 0 1 .19-1.18l100.73-73.21a.93.922-35.935 0 1 1.29.2q21.98 30.1 34.76 47.83 4.94 6.85 8.75 15.74c5.58 13.04-.29 27.69-10.72 36.25-11.72 9.63-26.26 10.59-39.21 2.41q-5.3-3.36-10.3-8.33m13.99-72.209-32.221 23.668a.68.68-40.858 0 0-.145.951l24.894 33.889a23.79 19.32 53.7 0 0 29.654 7.735l2.176-1.598a23.79 19.32 53.7 0 0 1.487-30.611l-24.894-33.889a.68.68 21.774 0 0-.951-.145"></path><path fill="#fff" fill-rule="evenodd" d="M458.07 1283.801a.68.68 13.924 0 1 .951.145l24.894 33.889a23.79 19.32 53.7 0 1-1.487 30.611l-2.176 1.598a23.79 19.32 53.7 0 1-29.654-7.735l-24.894-33.889a.68.68-3.915 0 1 .145-.951z"></path><path fill="#f59b28" fill-rule="evenodd" d="M1127.78 1351.34a1.041 1.037-50.638 0 1-1.49.15q-7.48-6.38-7.55-14.73c-.09-11.85 10.52-16.33 19.61-20.9 2.94-1.48 7.21-5.37 4.76-8.85q-1.33-1.88-2.35-3.4a.849.846 47.89 0 1 .05-1.02q3.9-4.71 4.76-5.9 1.22-1.67 1.98-1.73.99-.07 1.89 1.04c1.89 2.36 3.76 4.35 4.88 6.46 2.78 5.24 2.24 12.05-1.36 16.81-4.12 5.44-10.19 7.57-17.57 11.05q-4.34 2.05-4.73 6.38c-.21 2.39 1.58 4.25 3.22 5.85a.793.788-48.408 0 1 .06 1.06zM1199.499 1367.56q7.128.586 46.704 3.898.341.027.541-.113a.291.285-44.377 0 0 .01-.46l-75.72-60.31a.82.82-70.756 0 1-.13-1.15l9.16-11.5a.69.69-14.351 0 1 .97-.11l97.7 77.81a.718.711-51.594 0 1 .11 1l-9.65 12.11a2.108 2.103 21.821 0 1-1.853.791q-4.288-.409-69.086-5.776-7.128-.591-46.703-3.903-.342-.027-.542.113a.291.285-44.377 0 0-.01.46l75.72 60.31a.82.82-43.006 0 1 .13 1.15l-9.16 11.5a.69.69 75.645 0 1-.97.11l-97.7-77.81a.718.711-51.594 0 1-.11-1l9.65-12.11a2.108 2.103 21.821 0 1 1.853-.791q4.288.408 69.086 5.781M547.58 1485.64a.615.608 44.016 0 1-.02-.87l9.38-9.65a1.025 1.018 44.016 0 1 1.45-.02l37.2 36.16a.736.736-45 0 1 .02 1.04l-31.3 32.2a2.648 2.646 25.295 0 1-2.18.78c-25.46-2.77-47.31-14.36-61.26-36.02-8.5-13.2-12.31-28.62-8.81-43.96 4.61-20.2 19.52-37.76 37.42-47.75 18.67-10.41 38.26-11.61 56.81-1.07 20.11 11.42 40 35.34 33.24 60.35q-1.96 7.26-6.01 14.3a.86.856-60.052 0 1-1.18.32l-12.24-7.06a1.004.998 29.925 0 1-.37-1.36c4.84-8.63 7.04-17.8 3.34-27.65-4.89-13-17.24-24.26-30.31-28.62-21.21-7.07-41.88 7.44-54.59 23.36-9.69 12.16-14.4 27.02-8.59 42.2 7.51 19.59 25.69 32.32 46.2 35.29a3.075 3.057-63.727 0 0 2.63-.9l14.69-15.11a.835.828 44.263 0 0-.02-1.17zM1158.94 1511.825a.87.87 0 0 1-.017 1.23l-10.926 10.625a.87.87 0 0 1-1.23-.018l-86.867-89.327a.87.87 0 0 1 .017-1.23l10.926-10.625a.87.87 0 0 1 1.23.018zM1055.231 1604.626q-3.106 2.437-6.135 4.771a.713.707-37.481 0 1-.996-.127l-67.69-86.33a.584.584 24.176 0 0-.82-.1l-31.68 24.83a.728.726 52.126 0 1-1.03-.13l-8.41-10.73a.765.758-39.529 0 1 .105-1.048q.151-.131 38.795-30.432 38.644-30.302 38.806-30.417a.765.758-36.673 0 1 1.043.148l8.415 10.726a.728.726 51.672 0 1-.119 1.031l-31.67 24.844a.584.584 46.993 0 0-.098.82l67.694 86.327a.713.707-38.721 0 1-.114.997q-2.989 2.384-6.096 4.82M714.102 1525.8l13.924 10.106a.67.67 63.705 0 1 .257.701l-32.046 131.124a.67.67 46.342 0 1-1.044.383l-14.4-10.444a.67.67 62.785 0 1-.254-.715l10.302-38.63a.67.67 81.84 0 0-.254-.715l-41.767-30.294a.67.67 40.659 0 0-.769-.013l-32.812 22.194a.67.67-85.399 0 1-.769-.013l-13.401-9.731a.67.67-8.197 0 1 .029-1.104l112.246-72.868a.67.67 80.986 0 1 .758.019m-2.012 17.05a.214.214-12.843 0 0-.35-.22q-7.75 7.18-16.21 12.89-10.82 7.3-34.01 22.53a.8.794-43.889 0 0-.03 1.31l32.36 23.47a.926.924-64.414 0 0 1.44-.51q8.73-33.59 16.8-59.47"></path><path fill="#fff" fill-rule="evenodd" d="M712.09 1542.85q-8.07 25.88-16.8 59.47a.926.924-64.414 0 1-1.44.51l-32.36-23.47a.8.794-43.889 0 1 .03-1.31q23.19-15.23 34.01-22.53 8.46-5.71 16.21-12.89a.214.214-12.843 0 1 .35.22"></path><path fill="#f59b28" fill-rule="evenodd" d="M854.463 1621.235q3.978 5.935 26.018 38.92.191.283.425.353a.291.285 7.089 0 0 .366-.279l.006-96.696a.817.817-13.264 0 1 .817-.818l14.686.002a.69.69-64.817 0 1 .69.689l-.002 124.761a.718.71-.128 0 1-.713.709l-15.468-.005a2.106 2.101 73.287 0 1-1.771-.956q-2.349-3.604-38.478-57.577-3.974-5.937-26.013-38.921-.192-.284-.426-.354a.291.285 7.089 0 0-.366.279l-.005 96.697a.817.817 24.383 0 1-.818.817l-14.686-.001a.69.69-13.291 0 1-.689-.69l.002-124.761a.718.71-.128 0 1 .712-.709l15.468.005a2.106 2.101 73.287 0 1 1.772.956q2.349 3.604 38.473 57.579" data-source="https://football-logos.cc"></path><!-- source: https://football-logos.cc --></svg>