<svg xmlns="http://www.w3.org/2000/svg" viewBox="0 0 1705 1843"><!-- Source: https://football-logos.cc --><path fill="#fce405" fill-rule="evenodd" d="M429.75 0q2.04.33 2.86.91 16.38 11.5 34.39 22.3 11.73 7.04 20.83 11.03 11.86 5.2 21.8 8.86 8.88 3.27 34.01 10.43 17.08 4.86 37.05 7.74 25.41 3.67 34.54 4.52 17.33 1.61 38.02 2.15 36.63.95 73.64-6.22 15.2-2.95 29-7.53 16.65-5.52 28.39-9.69 1.46-.52 22.4-9.61 10-4.35 21.75-10.99 6.58-3.72 22.1-12.16a4.165 4.147 44.288 0 1 3.89-.04q6.44 3.33 19.6 10.38 14.69 7.86 35.85 17.4 11.74 5.29 19.56 7.91c14.58 4.88 27.79 9.47 40.8 12.14 12.31 2.53 26.82 5.32 39.9 6.57q38.94 3.73 78.87-.14 24.31-2.35 41.42-5.39 17.77-3.15 26.8-5.67 6.12-1.71 27.37-7.98 8.79-2.59 15.25-5.22c11.96-4.86 24.23-9.88 34.46-15.9q19.31-11.39 40.55-25.8h8.15q3.34.59 4.38 1.1 12.3 6.1 22.97 12.83c9.99 6.29 21.73 14.8 31.62 21.41 19.79 13.24 36.14 26.62 59.2 45.36 22.64 18.39 38.15 34.33 57.83 54.05q16.73 16.76 26.34 28.4 13.03 15.76 24.59 29.5c8.98 10.67 17.52 21.83 23.84 31.08 8.44 12.37 14.76 21.59 22.73 32.43q6.19 8.41 14.06 21.36 4.43 7.28 5 9.44.53 2.03-.99 3.36-5.96 5.2-13.81 11.69-16.25 13.45-27.89 29.57c-9.63 13.32-15.94 27.97-20.74 44.3-5.92 20.1-5.86 42.73-1.92 62.99q2.69 13.87 4.07 17.77 4.01 11.37 11.3 24.41 3.34 5.96 4.6 6.77a.059.052-77.962 0 0 .08-.06q-.01-.11.04-.3a.095.09-57.328 0 1 .16-.04c.78.86.36 1.17.85 1.94q11.74 18.69 28.52 31.03 25.45 18.71 56.57 25.04c12.97 2.64 26.78 2.63 39.73 1.31 6.96-.71 15.94-2.77 23.12-4.41a2.821 2.82-18.356 0 1 3.21 1.61q.76 1.71 1.36 4.25 3.64 15.44 7.01 35.37 1.47 8.71 3.02 17c.81 4.39 1.31 9.3 2.03 13.11q4.32 22.99 5.74 44.25.43 6.37 1.5 15.14c1.44 11.72 1.49 24.25 1.88 36.32v51.61c-.27 7.56-.2 15.6-.87 22.66q-1.41 14.64-2.55 29.42c-.78 10.15-1.75 16.42-2.84 26.69q-.83 7.84-2.75 19.95-4.88 30.78-10.5 58.18-2.41 11.71-5.85 24.66-4.84 18.19-6.61 24.47-17.39 61.69-43.53 121.81-5.21 11.98-11.12 23.94-11.36 23.03-11.69 23.67-11.95 23.5-28.83 50.19-19.49 30.8-38.89 56.1-23.54 30.69-33.5 42.49-43.54 51.57-92.35 99.81-4.29 4.24-20.55 19.63-15.12 14.3-20.75 19.4-15.79 14.28-39.57 33.54-8.6 6.96-13.61 10.65c-11.95 8.79-22.45 16.88-35 25.45q-38.39 26.24-61.84 41.91c-7.65 5.11-16.58 10.48-24.18 15.52q-23.2 15.37-58.72 38.8-23.61 15.57-62.98 44.75-35.87 26.57-71.83 58.41-40.49 35.84-84.73 82.01-15.86 16.56-52.13 56.94-.57.62-4.04 4.81-3.07 3.7-6.62 6.15h-8.1q-4.78-4.29-9.2-9.42-6.76-7.87-6.82-7.92c-13.06-14.47-31.91-35.57-48.73-52.77q-8.32-8.51-19.67-20.36c-8.6-8.97-16.83-16.35-25.28-24.75q-5.55-5.52-18.99-17.58-5.88-5.28-19.35-17.69c-9.47-8.73-23.84-20.94-37.13-31.38-12.04-9.47-17.28-14.29-29.16-23q-6.81-5-29.79-21.97c-12.06-8.9-24.85-17.23-38.01-26.23q-12.08-8.27-15.81-10.67-9.94-6.42-12.69-8.38c-7.99-5.7-16.57-10.68-24.04-15.67-18.21-12.15-47.43-30.49-67.54-44.59q-21.29-14.93-29.3-20.14c-9.68-6.31-18.35-13.74-28.15-20.87-11.81-8.6-23.73-18.38-34.41-27.43q-8.45-7.16-38.82-35.06c-16.83-15.46-28.18-27.35-49.78-49.57q-18.27-18.78-29.98-31.86-29.05-32.44-36.39-41.37-6.78-8.25-28.55-35.78c-9.14-11.57-17.43-23.76-26.29-36.11q-6.64-9.28-12.4-19.14-1.65-2.82-2.71-4.14-2.26-2.81-2.82-4.44a.755.467 31.717 0 0-.05-.1l-5.43-8.18a1.674 1.672 29.249 0 1-.28-.99q.04-.94-1.01-1.78a2.015 2.01 9.607 0 1-.62-.87q-.59-1.6-1.35-2.59-.73-.96-1.64-2.52-6.92-11.95-9-15.74-.24-.45-.33-1.12a1.643 1.638 20.14 0 0-.4-.86q-1.62-1.82-2.44-4.39a.674.143 78.019 0 0-.04-.09l-4.16-8.18a.073.064 75.128 0 0-.06-.04q-.11-.02-.24-.09a.874.835 2.759 0 1-.39-.41q-1.28-2.97-2.82-5.53-.77-1.29-1.09-2.76-.45-2.11-1.45-2.95-1.04-.87-1.62-2.52-.7-2-1.31-3.7-.57-1.59-1.62-2.74a2.492 2.427 12.628 0 1-.47-.72q-3.77-8.7-4.74-10.31-1.85-3.07-2.62-5.38-.94-2.83-1.83-4.71-1.12-2.38-2.65-5.44-3.32-6.66-6.36-15.68-.17-.5-.53-1.04-.48-.71-.6-1.06-.8-2.3-3.69-9.25-2.68-6.44-7.86-19.95-1.91-4.99-4.28-9.94-2.01-4.2-6.18-18.38-.1-.34-.05-.52.12-.46-.28-.52a.368.358-2.379 0 1-.29-.26q-3.61-11.92-6.16-19.57-3.7-11.12-5.88-19.23-2.97-11.05-5.27-19.41-.45-1.63-.97-2.85a3.705 3.594 31.131 0 1-.25-.95q-.25-2.18-2.8-11.46-1.75-6.36-4.86-20.21-2.79-12.39-4.18-20.33-2.42-13.85-2.73-15.19c-1.82-7.89-2.53-16.21-3.98-24.9C7.43 845.06 5.22 826.8 4 815c-1.21-11.64-1.59-23.95-2.56-36.29Q.41 765.62 0 752.5v-28.24q.4-8 .68-16.01c.53-15.15 2.26-32.21 3.03-44.49.57-9.2 1.98-18.02 3.09-28.35s2.85-18.89 4.21-29.1q.72-5.4 3.01-17.72 5.44-29.2 6.01-31.81 1.65-7.54 3.17-12c.78-2.28 1.71-2.56 4.09-2.09q8.84 1.74 12.16 2.52 6.63 1.57 12.26 1.93 27.52 1.77 51.03-4.97c21.45-6.13 42.16-18.34 58.09-35.24 7.16-7.61 11.64-12.42 16.25-20.58q5.01-8.87 10.33-20.35 4.46-9.61 6.6-19.29 5.39-24.39 3.64-48.71-1.44-20.11-9.89-38.3a3.194 3.073 27.944 0 1-.21-.64q-.5-2.36-2.51-6.18-4.12-7.81-7.5-13.79c-9.33-16.52-20.43-25.74-38.76-42.53-2.16-1.98-4.83-3.77-6.86-5.47-2.24-1.88-2.59-2.99-1.43-5.6q.14-.32 2.82-4.92 1.42-2.44 15.22-23.32 1.39-2.1 3.18-4.74 11.6-17.07 27.21-38.35 5.88-8.03 25.55-32.4 13.94-17.27 27.1-31.1 25.84-27.17 44.27-44.57 34.1-32.17 75.74-62.46c9.05-6.59 19.76-13.54 30.95-21.11Q401.67 9.55 422 0zm423.48 1827.24q1.18-.92 1.97-1.79 14.33-15.63 37.38-41.13 17.03-18.84 53.06-55.02 4.72-4.74 19.54-18.79 16.69-15.84 19.76-18.56c33.32-29.62 65.95-56.59 100.94-81.67q25.46-18.25 31.98-22.67 32.7-22.15 75.44-49.89 27.08-17.57 45.48-29.98 33.25-22.42 45-30.71c28.26-19.95 55.91-42.45 82.64-66.46q11.26-10.13 15.6-14.22 52.72-49.75 100.09-104.99 18.84-21.99 33.75-40.74c30.82-38.8 58.57-81.05 81.29-125.81 27.55-54.3 49.14-111.32 65.14-170.26 8.96-33.02 15.91-66.84 20.5-100.95q2.69-19.99 3.78-29.8c4.69-42.27 6.47-85.6 3.92-128.55q-2.42-40.97-7.9-76.9c-3.35-21.98-6.17-39.54-10.7-59.15a.831.824 78.052 0 0-.96-.63c-44.25 8.18-88.75-2.87-123.78-31.24-22.56-18.27-39.36-43.73-47.39-71.95q-4.37-15.37-5.58-28.83c-2.4-26.99 2.07-54.44 14-79.06q6.05-12.49 11.01-19.81 9.62-14.21 23.83-27.39 2.8-2.6 15.31-13.5a1.818 1.809-37.457 0 0 .32-2.37c-3.38-5.12-5.83-9.86-9.26-14.88-14.75-21.54-29.93-43.48-46.41-64.01q-13.15-16.39-16.02-19.88-18.56-22.53-38.6-42.65-24.13-24.23-38.35-37-12.11-10.87-31.29-26.47c-24.55-19.98-49.18-36.81-74.73-53.2-8.58-5.5-13.33-8.02-23.23-13.65a1.444 1.436-48.462 0 0-1.58.1c-29.97 22.74-63.86 39.67-100.09 50.16q-21.92 6.35-41.49 9.88-38.87 7.02-80.83 8.2-86.06 2.42-163.33-34.21-18.43-8.74-40.22-20.88a.899.891 44.116 0 0-.89.01q-42.42 25.25-89.12 40.28-13.76 4.42-28.94 7.58c-44.92 9.36-89.23 9.05-135.54 3.43q-45.11-5.47-82.04-17.6-10.98-3.6-20.14-7.29-15.6-6.27-19.69-8.46-21.54-11.5-26.66-14.85-10.45-6.84-23.62-15.8a2.224 2.211-42.38 0 0-2.33-.1q-21.44 11.94-42.8 26.47c-18.36 12.49-36.73 25.34-54.08 39.79q-15.39 12.82-25.55 21.19-3.8 3.12-6.51 5.73c-11.61 11.17-22.79 21.13-33.08 31.91q-5.85 6.12-11.58 11.95c-9.91 10.08-16.86 18.27-26.87 29.64q-7.56 8.58-13.23 16.14c-5.44 7.26-15.19 18.69-23.1 29.5q-9.53 13.03-25.96 36.53-8.02 11.45-14.73 22.59a1.483 1.471-54.507 0 0 .31 1.9c17.38 14.53 34.3 31.01 45.19 51.17q9.42 17.44 13.97 33.57 9.24 32.71 3.4 67.61-3.53 21.12-12.02 38.58-8.88 18.27-20.27 31.48c-21.92 25.43-51.75 43.4-84.31 49.64q-28.43 5.46-58.35-.06a.783.777 10.64 0 0-.9.61c-4.06 20.34-8.72 43.49-11.72 64.72q-5.13 36.27-7.18 73.64c-1.69 30.87-1.03 62.1.8 92.33q1.31 21.52 5.48 53.66 7.65 59.01 23.52 116.34 18.84 68.04 48.23 133.01c26.05 57.59 58.51 109.84 97.87 159.22q28.98 36.36 61.59 71.67 32.09 34.73 63.19 64.75 24.04 23.21 56.31 50.55 6.94 5.89 18.74 14.97c16.06 12.34 30 22.17 44.93 32.76q13.61 9.66 30.22 20.6 6.93 4.58 12.76 8.41 24.56 16.18 61.72 40.33 37.53 24.4 74.39 50.65 27.33 19.45 50.17 37.96 26.34 21.35 48.04 40.68c8.15 7.26 18.01 16.75 24.1 22.32q10.88 9.94 17.95 16.9 25.15 24.77 53.06 54.42c15.07 16.01 29.15 32.47 44.27 48.2a.754.751 49.44 0 0 1.01.08" data-source="https://football-logos.cc"></path><path fill="#262222" fill-rule="evenodd" d="M853.23 1827.24a.754.751 49.44 0 1-1.01-.08c-15.12-15.73-29.2-32.19-44.27-48.2q-27.91-29.65-53.06-54.42-7.07-6.96-17.95-16.9c-6.09-5.57-15.95-15.06-24.1-22.32q-21.7-19.33-48.04-40.68-22.84-18.51-50.17-37.96-36.86-26.25-74.39-50.65-37.16-24.15-61.72-40.33-5.83-3.83-12.76-8.41-16.61-10.94-30.22-20.6c-14.93-10.59-28.87-20.42-44.93-32.76q-11.8-9.08-18.74-14.97-32.27-27.34-56.31-50.55-31.1-30.02-63.19-64.75-32.61-35.31-61.59-71.67c-39.36-49.38-71.82-101.63-97.87-159.22q-29.39-64.97-48.23-133.01-15.87-57.33-23.52-116.34-4.17-32.14-5.48-53.66c-1.83-30.23-2.49-61.46-.8-92.33q2.05-37.37 7.18-73.64c3-21.23 7.66-44.38 11.72-64.72a.783.777 10.64 0 1 .9-.61q29.92 5.52 58.35.06c32.56-6.24 62.39-24.21 84.31-49.64q11.39-13.21 20.27-31.48 8.49-17.46 12.02-38.58 5.84-34.9-3.4-67.61-4.55-16.13-13.97-33.57c-10.89-20.16-27.81-36.64-45.19-51.17a1.483 1.471-54.507 0 1-.31-1.9q6.71-11.14 14.73-22.59 16.43-23.5 25.96-36.53c7.91-10.81 17.66-22.24 23.1-29.5q5.67-7.56 13.23-16.14c10.01-11.37 16.96-19.56 26.87-29.64q5.73-5.83 11.58-11.95c10.29-10.78 21.47-20.74 33.08-31.91q2.71-2.61 6.51-5.73 10.16-8.37 25.55-21.19c17.35-14.45 35.72-27.3 54.08-39.79q21.36-14.53 42.8-26.47a2.224 2.211-42.38 0 1 2.33.1q13.17 8.96 23.62 15.8 5.12 3.35 26.66 14.85 4.09 2.19 19.69 8.46 9.16 3.69 20.14 7.29 36.93 12.13 82.04 17.6c46.31 5.62 90.62 5.93 135.54-3.43q15.18-3.16 28.94-7.58 46.7-15.03 89.12-40.28a.899.891 44.116 0 1 .89-.01q21.79 12.14 40.22 20.88 77.27 36.63 163.33 34.21 41.96-1.18 80.83-8.2 19.57-3.53 41.49-9.88c36.23-10.49 70.12-27.42 100.09-50.16a1.444 1.436-48.462 0 1 1.58-.1c9.9 5.63 14.65 8.15 23.23 13.65 25.55 16.39 50.18 33.22 74.73 53.2q19.18 15.6 31.29 26.47 14.22 12.77 38.35 37 20.04 20.12 38.6 42.65 2.87 3.49 16.02 19.88c16.48 20.53 31.66 42.47 46.41 64.01 3.43 5.02 5.88 9.76 9.26 14.88a1.818 1.809-37.457 0 1-.32 2.37q-12.51 10.9-15.31 13.5-14.21 13.18-23.83 27.39-4.96 7.32-11.01 19.81c-11.93 24.62-16.4 52.07-14 79.06q1.21 13.46 5.58 28.83c8.03 28.22 24.83 53.68 47.39 71.95 35.03 28.37 79.53 39.42 123.78 31.24a.831.824 78.052 0 1 .96.63c4.53 19.61 7.35 37.17 10.7 59.15q5.48 35.93 7.9 76.9c2.55 42.95.77 86.28-3.92 128.55q-1.09 9.81-3.78 29.8c-4.59 34.11-11.54 67.93-20.5 100.95-16 58.94-37.59 115.96-65.14 170.26-22.72 44.76-50.47 87.01-81.29 125.81q-14.91 18.75-33.75 40.74-47.37 55.24-100.09 104.99-4.34 4.09-15.6 14.22c-26.73 24.01-54.38 46.51-82.64 66.46q-11.75 8.29-45 30.71-18.4 12.41-45.48 29.98-42.74 27.74-75.44 49.89-6.52 4.42-31.98 22.67c-34.99 25.08-67.62 52.05-100.94 81.67q-3.07 2.72-19.76 18.56-14.82 14.05-19.54 18.79-36.03 36.18-53.06 55.02-23.05 25.5-37.38 41.13-.79.87-1.97 1.79m118.11-1265.8q22.64-2.43 45.71-5.54 15.32-2.07 33.69-5.72 31.34-6.22 33.49-6.72 31.37-7.3 54.31-14.2c16.26-4.89 29.52-9.71 46.91-15.84q12.06-4.25 24.09-9.63 12.72-5.7 27.62-12.91 29.94-14.5 58.31-36.17 20.46-15.62 36.91-35.72c6.39-7.81 12.95-17.82 17.04-25.81q7.24-14.17 10.79-30.44c5.22-23.93-.73-52.6-12.86-74.5q-5.06-9.14-8.59-13.97-13.91-19-32.05-34.66c-38.37-33.13-85.63-55.33-133.02-72.03-7.83-2.75-15.37-5.72-22.66-7.93q-42.09-12.79-75.79-19.86-41.03-8.61-89.21-14.86-25.78-3.34-52.42-5.1-32.02-2.1-52.61-2.54-59.04-1.26-120.5 3.44-19.31 1.47-66.6 7.68-20.65 2.71-43.7 7.28-32.63 6.46-43.36 9.16-35.07 8.8-62.72 18.05-20.75 6.94-46.85 17.87-44.16 18.49-80.3 44.45-12.85 9.24-22.71 18.41-13.3 12.38-20.33 21.03c-23.77 29.22-36.39 64.58-27.85 101.71 6.59 28.67 26.9 55.91 49.02 75.55q19.53 17.33 38.96 29.52 15.96 10 35.54 19.74 29.58 14.74 58.88 25.08c13.32 4.7 21.42 7.84 31.64 10.82q36.64 10.66 55.92 14.82 31.08 6.71 52.47 10.32 42.43 7.16 89.49 11.26 107.32 9.34 213.34-2.04M853.53 1591.76q20.95-17.6 43.59-34.17 3.11-2.28 6.19-4.51 24.23-17.51 29.1-20.67 7.34-4.76 25.11-16.88c21.62-14.74 51.24-32.69 77.02-49.48q22.59-14.71 27.7-18.31 40.1-28.2 76.32-57.94 20.79-17.08 38.43-33.11 21.39-19.43 36.85-34.83 47.97-47.79 91.97-102.04 17.55-21.64 31.59-41.41 11.76-16.56 26.84-39.13 13.73-20.55 24.94-40.31 63.22-111.35 89.56-236.69c1.81-8.62 5.07-26.1 7.09-37.9q2.77-16.11 5.04-37.76 2.34-22.29 3.63-36.12 1.85-19.76 1.38-41.94c-.2-9.01-1.34-18.36-3.2-26.02-5.81-23.98-16.1-47.18-31.85-66.36q-27.9-33.98-68.03-52.76c-33.98-15.89-74.36-23.52-112.15-19.59-20.13 2.09-42.36 6.9-61.21 14.86q-20.72 8.77-42.46 21.29-31.15 17.95-53 29.5-19.72 10.41-50.24 21.7c-15.2 5.62-30.24 9.09-45.74 12.33q-40.49 8.44-81.23 11.81-31.45 2.6-64.82 3.73-34.27 1.16-64.91-.22-33.62-1.52-62.54-4.02c-20.72-1.79-40.52-4.67-61.71-8.46q-5.26-.94-21.38-4.33-13.22-2.77-21.19-5.05c-29.87-8.54-59.01-21.2-86.55-36.66q-8.66-4.86-30.52-17.58c-14.79-8.6-27.81-15.24-41.96-21.6-21.04-9.46-43.04-14.82-65.66-17.2q-23.37-2.46-48.25.78c-50.63 6.61-97.61 30.18-130.68 69.4-25.28 29.96-38.04 68.35-37.28 107.39q.24 12.28 1.54 26.49 2.71 29.52 5.14 50.01 2 16.89 7.27 46.25c7.17 39.95 17.98 78.41 30.67 116.54 3.75 11.24 10.15 27.02 13.19 35.31 4.8 13.1 12.35 29.69 18.03 42.01 23.86 51.78 53.33 100.1 87.98 146.78q15.21 20.49 30.77 39.71c16.98 20.98 35.04 42.14 53.94 62.24q18.67 19.87 19.82 21.04 42.93 44.23 92.26 84.22 26.16 21.22 53.74 41.65 19.87 14.71 35.97 25.02 20.07 12.85 36.88 23.57 23.81 15.18 62.93 40.96 16.41 10.81 19.14 12.87c8.91 6.69 17.05 12.07 27.42 19.94q8.8 6.68 15.13 11.32c11.63 8.52 19.85 15.52 30.34 24.33a1.599 1.59-44.833 0 0 2.05 0"></path><path fill="#fce405" fill-rule="evenodd" d="M971.34 561.44Q865.32 572.82 758 563.48q-47.06-4.1-89.49-11.26-21.39-3.61-52.47-10.32-19.28-4.16-55.92-14.82c-10.22-2.98-18.32-6.12-31.64-10.82q-29.3-10.34-58.88-25.08-19.58-9.74-35.54-19.74-19.43-12.19-38.96-29.52c-22.12-19.64-42.43-46.88-49.02-75.55-8.54-37.13 4.08-72.49 27.85-101.71q7.03-8.65 20.33-21.03 9.86-9.17 22.71-18.41 36.14-25.96 80.3-44.45 26.1-10.93 46.85-17.87 27.65-9.25 62.72-18.05 10.73-2.7 43.36-9.16 23.05-4.57 43.7-7.28 47.29-6.21 66.6-7.68 61.46-4.7 120.5-3.44 20.59.44 52.61 2.54 26.64 1.76 52.42 5.1 48.18 6.25 89.21 14.86 33.7 7.07 75.79 19.86c7.29 2.21 14.83 5.18 22.66 7.93 47.39 16.7 94.65 38.9 133.02 72.03q18.14 15.66 32.05 34.66 3.53 4.83 8.59 13.97c12.13 21.9 18.08 50.57 12.86 74.5q-3.55 16.27-10.79 30.44c-4.09 7.99-10.65 18-17.04 25.81q-16.45 20.1-36.91 35.72-28.37 21.67-58.31 36.17-14.9 7.21-27.62 12.91-12.03 5.38-24.09 9.63c-17.39 6.13-30.65 10.95-46.91 15.84q-22.94 6.9-54.31 14.2-2.15.5-33.49 6.72-18.37 3.65-33.69 5.72-23.07 3.11-45.71 5.54M852.06 164.21q-6.61 1.85-11.97 7.16-7.38 7.31-5.12 17.37c.52 2.3.49 3.94.55 6.28a2.108 2.079 31.212 0 0 .23.91q1.68 3.33 4.68 4.37c13.93 4.8 20.03-4.49 25.43-15.17a3.131 3.123 1.645 0 1 1.55-1.46q6.51-2.83 12.06-7.85c3.64-3.3 7.18-4.19 9.77.97 2.78 5.57 6 9.54 12.5 10.5a1.324 1.285-13.28 0 1 .87.52c2.31 3.26 1.66 5.94 7.06 4.93a1.348 1.343 5.2 0 0 1-.83q5.27-12.99 6.33-25.4.16-1.89-1.16-3.79c-4.21-6.06-9.1-4.56-15.26-3.16a3.173 3.139-36.062 0 1-2.24-.34c-6.08-3.51-15.11-9.34-22.41-7.06q-.79.25-3.62 1.74a1.484 1.47 39.184 0 1-1.13.11c-1.45-.46-3.3-1.66-4.35-1.89q-6.56-1.47-11.11 3.24c-1.99 2.07-2.34 4.93-2.72 7.76a1.318 1.307-4.477 0 1-.94 1.09M581.7 209.3c-1.74-2.49-5.05-3.16-7.23-4.08q-1.23-.52-3.76-2.68-2.95-2.52-6.56-3.44a2.149 1.834 49.52 0 0-.44-.07l-6.08-.3a2.845 2.803-35.116 0 1-.78-.13l-12.42-3.82a9.981 9.748-23.056 0 1-1.49-.58q-1.1-.64-3.21-2.89c-5.12-5.46-21.49-3.98-26.07 1.36q-2.06 2.39-8.23 10.16-1.17 1.47-1.85 5.76a1.936 1.893 39.582 0 0 .1.94c2.46 6.6 4.31 9.2 11.87 7.54q3.22-.7 12.78-3.18 3.32-.86 5.22-.17 8.26 2.98 16.7 3.05a6 6-33.443 0 1 2.25.46c1.8.76 3.23 1.84 5.26 2.09q4.2.52 8.7-.89a1.2 1.2 82.07 0 1 1.56 1.18q-.08 2.63-.61 6.87-6.34 50.71-12.64 99.64-.75 5.79-3.79 29.39-.33 2.58-.87 4.31a1.321 1.319-70.856 0 1-1.73.84l-20.99-8.03a3.651 3.632 41.116 0 0-3.06.2l-27.78 15.02a3.978 3.97 41.321 0 1-3.32.21q-16.49-6.35-32.27-11.83c-3.14-1.08-4.57-2.11-6.92-4.51q-21.31-21.7-27.99-28.45c-2.9-2.92-4.01-4.52-7.79-4.49q-32.45.33-57.58-.09a.884.878-79.706 0 0-.86.6q-3.8 11.62-3.46 23.97.67 24.04 11.84 45.08 1.58 2.98 4.08 7.44a1.225 1.224 75.457 0 0 1.07.63h958.79a.947.94-73.351 0 0 .79-.43c13.78-21.78 19.95-48.63 13.77-73.86q-3.91-15.94-10.32-27.27-7.24-12.77-17.42-25.42a4.237 4.229-19.364 0 0-3.3-1.58h-23.46a.43.42 90 0 0-.42.43v33.73a.69.68 0 0 1-.69.68h-17.43a.67.67-8.168 0 0-.67.67v21.89a.46.45 90 0 1-.45.46h-59.94a.31.31-60.185 0 1-.31-.31v-81.34a.82.81 0 0 0-.82-.81h-44.85a.34.34-83.595 0 0-.34.34v52.13a.75.74 0 0 1-.75.74q-37.02-.04-66.51.05-2.48 0-3.22.18a3.271.808-20.944 0 1-1.13.14l-7.11-.26a.621.611-89.045 0 1-.59-.62v-88.36a.981.974 6.204 0 1 1.19-.95q4.76 1.05 7.18-.98a.952.95-40.6 0 1 1.32.1q4.41 5 13.16 4.18 3.5-.33 3.99-2.23a1.178 1.165-82.597 0 1 1.13-.88h3.12a1.11 1.11-86.154 0 1 1.1 1.26q-.44 3.34-.36 7.44c.08 4.37 2.95 6.61 6.49 8.63a2.48 2.475 14.052 0 1 1.25 2.08q.16 4.61 3.7 4.88c4.88.36 9.09-4.18 9.95-8.37.68-3.31-1.72-4.47-2.93-6.75-.78-1.48-.43-4.83-1.26-6.89a2.664 2.654 7.026 0 0-.94-1.2c-2.62-1.86-3.99-2.83-5.28-6.39-1.27-3.53-7.36-6.68-10.69-7.12q-3.1-.41-6.76-.5a3.665 3.649-13.688 0 1-3.09-1.87c-1.49-2.69-5.67-9.11-8.5-9.76q-5.16-1.17-10.8-.04c-3.58.72-3.99-1.01-4-4.05a.7.7 69.812 0 0-.7-.7h-42.13a1.221 1.21 8.83 0 0-1.16.84l-1.17 3.57a.629.621 5.049 0 1-.52.43q-5.01.65-10.25-.16-1.11-.17-3.62-1.79-3.45-2.23-8.07-.23a2.401 2.375-3.891 0 0-1.35 1.53q-1.9 6.55-2.39 11.06-.77 6.97 5.83 7.85 6.54.86 11.17-1.93a3.55 3.5 29.019 0 1 1.83-.51h6.93a.44.44-45 0 1 .44.44v97.82a.52.52-64.826 0 1-.52.52h-43.68a.785.783-7.118 0 1-.76-.59q-.21-.79-.19-1.58c.72-23.63.2-47.26-.01-74.25q-.01-1.34.48-2.98a2.128 2.125-6.041 0 1 1.02-1.26c2.2-1.2 5.79-2.84 6.07-5.35q.73-6.36.43-18.97c-.06-2.58-1.24-3.48-3.56-3.47a.716.712 9.848 0 1-.68-.96c3.25-8.75-.54-14.28-7.81-18.06q-2.88-1.49-7.02-1.03a2.782 2.779-23.161 0 1-2.45-.98l-2.73-3.24a.813.721-3.421 0 0-.28-.22c-5-2.34-7.84-3.25-11.1-5.78q-1.81-1.4-4.3-2.19a2.716 2.711 73.126 0 1-.84-.45l-2.8-2.18a1.773 1.771 25.443 0 0-2.82 1q-1.83 7.94-2.75 11.85-1.47 6.29 3.06 9.67c3.61 2.69 5.66 2.3 10.23.5q2.91-1.14 6.28-.74a.438.435-81.154 0 1 .37.51q-.72 3.65-1.26 9.76-.13 1.49-1.61 2.65c-1.79 1.41-2.58 2.21-2.6 4.89q-.06 9.97-.12 17.31a4.24 4.189 28.919 0 0 .69 2.34c1.66 2.53 4.39 4.24 5.52 7a1.82 1.587-59.527 0 1 .12.64v86.61a.4.4-53.163 0 1-.4.4h-47.33a.85.85 45.01 0 1-.85-.85v-65.17a.78.78-64.8 0 1 .78-.78h13.87a.84.84-65.857 0 0 .84-.84v-8.41a.75.75-45 0 0-.75-.75h-14.56a.38.38-56.254 0 1-.38-.38V195.6a.94.94 79.362 0 0-.94-.94h-32.57a.27.27-88.898 0 0-.27.26q-.21 16.22.3 31.56a1.994 1.842 8.447 0 0 1.4 1.74q1.43.44 1.98 1.32a2.134 2.117-62.12 0 1 .34 1.12c.81 28.57.43 51.12.22 87.22a3.895 3.885-20.963 0 1-1.28 2.86q-5.01 4.57-13.49 12.57-2.43 2.29-3.84 2.3-12.57.05-22.74-.32a3.142 3.115 66.907 0 1-1.99-.81c-2.91-2.62-6.82-6.28-6.93-10.48q-.19-6.79-.16-11 .16-32.63.11-63.83a2.683 2.678-13.697 0 1 1.45-2.38c2.23-1.13 5.17-3.02 5.21-5.36q.1-5.66-.01-14.45a.72.72 89.596 0 0-.72-.71h-36.29a.6.59 0 0 0-.6.59v8.96a2.406 2.401 17.914 0 0 1 1.95l3.52 2.55a.635.63 18.211 0 1 .26.51v78.67a.954.952-1.933 0 1-.89.95q-5.48.32-10.95.02-3.13-.17-23-.1-1.98.01-3.75-1.36-5.83-4.53-9.73-8.04a2.839 2.818-69.096 0 1-.93-2.1V271a2.189 2.176 13.65 0 0-1.19-1.94q-41.13-21.11-50.95-26.26-2.6-1.36-3.75-1.2a1.55 1.331-57.476 0 0-.43.13l-64.83 31.26a1.805 1.792 77.151 0 0-1.01 1.62v38.12a2.882 2.88-14.901 0 1-1.45 2.5l-15.77 9.11a2.873 2.846-15.201 0 0-1.43 2.47v33.88a.38.37-90 0 1-.37.38h-39.64a1.193 1.192 88.478 0 1-1.19-1.13l-8.43-140.28a5.142 5.112 53.872 0 1 .32-2.09q1.41-3.68 1.22-6.88a2.766 2.719 26.073 0 0-.49-1.39m67.92-26.63q2.46 8.6 11.79 6.98 12.66-2.19 25.25-1.74a4.319 4.168-31.489 0 1 1.49.33q7.75 3.31 16.09 2.54a2.028 2.019-15.522 0 1 2.01 1.13q2.25 4.63 6.96 10.76.88 1.15 4.76 2.4 5.34 1.73 10.2.71 1.29-.27 5.99-3.4 5.37-3.58 12.81-4.88 1.62-.28 2.94.61c2.01 1.35 6.54 2.82 7.89.21q2.57-4.94 4.4-6.05a5 5-29.239 0 1 .84-.42l2.63-1.02a2.25 2.243-82.577 0 0 1.01-.78l3.19-4.4a2.129 2.122-67.62 0 1 2.03-.85l5.82.9a2.887 2.88-15.426 0 1 1.75.99q1.73 2.08 3.98 3.33a1.874 1.864-58.112 0 0 2.46-.58c3.18-4.64 3.67-8.31-1.1-12.24-2.39-1.95-2.25-5.21-3.86-7.47q-2.51-3.54-7.37-3.32-3.68.16-4.35 2.66-1.36 5.07-4.92 6.16a2.203 2.172 8.773 0 0-1.15.83c-1.58 2.29-2.95 3.39-5.82 2.37q-4.53-1.62-8.4.29-4.97 2.45-9.68 4.26a1.078 1.069 61.415 0 1-1.27-.38c-2.81-3.98-5.61-3.87-9.93-4.38a8.846 8.687 59.557 0 1-2.45-.66q-7.48-3.22-15.82-2.94-1.41.04-3.46-.86a1.935 1.913-2.37 0 1-.89-.81c-2.49-4.5-6.33-8.92-11.62-9.77-2.32-.37-4.9 1.1-7.09-.35-3.32-2.2-7.63-1.91-10.75.34-2.08 1.5-3.07 4.05-4.08 6.66a.547.54 18.784 0 1-.66.32q-3.97-1.19-9.79-2.49c-3.53-.79-5.93.06-7.96 2.78-1.56 2.08-1.26 6.65-2.04 9.08a3.13 3.115 76.366 0 1-.77 1.27l-.77.78a1.131 1.112-30.701 0 0-.29 1.1m178.69 17.04q2.16-.91 2.92-2.64a1.843 1.836 51.228 0 0 .12-1.12q-2.11-10.34-13.23-11.28a1.837 1.793 32.065 0 0-1.06.23l-3.2 1.85a.438.437-9.645 0 1-.65-.46c.83-4.27-2.71-8.58-6.91-8.49a2.057 2.052 3.284 0 0-1.99 1.77c-.62 4.41-.83 8.28-3.69 10.71-2.27 1.92-2.59 4.67-1.04 7.04a1.799 1.759 84.303 0 0 .8.67q2.47 1.08 5.89 1.95.88.22 7.15 3.89a3.298 3.253 1.963 0 1 1.24 1.31c1.4 2.71 3.46 3.17 5.57 4.07a3.651 3.638-7.535 0 1 1.48 1.13c2.16 2.73 3.06 5.43 7.38 4.27 4-1.08 4.51-5.82 3.48-9.27q-.91-3.07-4.29-4.81a.454.453-42.971 0 1 .03-.82m332.31 31.41c3.45 3.87 3.61 8.12 10.14 7.98 6.77-.16 5.37-10.12 3.98-14.14a1.953 1.935 5.358 0 0-.87-1.04l-3.57-2a1.516 1.338 75.128 0 1-.21-.14c-1.18-.98-2.32-2.82-3.93-3.37-3.91-1.33-8.54.9-7.84 5.62q.1.64 1.75 6.1a2.656 2.499 17.693 0 0 .55.99M377.58 403.39q15.29 20.21 33.2 35.08c3.32 2.75 6.34 2.27 10.66 2.07q2.69-.13 6.87-2.37 16.96-9.06 26.75-14.6c1.4-.8 3.26-1.56 5.02-1.85q14.83-2.42 31.61-5.53a10.328 10.283-42.371 0 1 4.57.2q11.68 3.21 24.75 6.6 3.46.9 5.5.52 13.3-2.43 22.52-4.17a1.202 1.2 79.114 0 1 1.4.95c4.84 24.5 12.21 51.69 17.75 74.64a.438.435-8.03 0 1-.41.54q-8.03.31-15.29 1.47c-12.41 1.99-22.83 2.46-34.37.96a.296.295 58.946 0 0-.14.57l25.57 9.78a6.12 6.034 51.576 0 0 2.94.36l21.16-2.61a5.016 4.89-63.257 0 0 1.86-.64q4.43-2.63 10.93-3.71a1.089 1.085 80.111 0 0 .89-1.27q-.72-3.94-.19-8.63 5.87-51.74 8.05-72.19a.814.807 2.714 0 1 .81-.73h39.77a.57.57-51.82 0 1 .57.57v17.86a1.337 1.333-80.992 0 0 .92 1.27l16.08 5.25a2.404 2.396 9.04 0 1 1.66 2.28v19.7a.955.948-82.457 0 0 .7.92q34.5 9.4 45.14 12.13c5.14 1.32 12.24 3.86 16.63 5.02q4.29 1.14 6.32.49 23.03-7.37 52.06-14.89a1.57 1.57-7.422 0 0 1.17-1.52v-20.03a1.597 1.57-12.732 0 1 .92-1.43q5.71-2.65 9.78-4.5 2.17-.98 4.29-.99 11.05-.02 31.25-.21.95-.01 2.39.18a.942.935 4.437 0 1 .82.95q-.46 20.08-.13 38.87.03 2.08-.43 3a.909.887.699 0 1-.42.4l-3.78 1.83a.785.779 77.583 0 0-.45.71v4.3a.63.63-15.158 0 0 .63.63h36.71a.804.802 88 0 0 .8-.86l-.44-7.43a2.036 2.028 8.823 0 0-1.3-1.77l-4.42-1.69a.955.948 11.091 0 1-.61-.9q.29-18.65.06-39.22c-.03-3.23 4.29-5.6 6.67-6.47a3.411 3.201-53.532 0 1 1.04-.19q11.14-.16 25.09.05 2.18.03 4.16 1.21 6.37 3.79 12.76 6.76a.878.856-79.083 0 1 .5.76q.52 25.24-.02 41.07-.11 3.38-.61 5.61a2.4 2.4-66.481 0 1-.5 1q-.69.84-1.73 1.24a1.275 1.269-6.674 0 0-.81 1.02q-1.3 9.39-.68 17.11a.893.885-2.073 0 0 .89.82h32.92a.46.46 0 0 0 .46-.46v-19.79a.83.83-64.904 0 1 .83-.83h13.39a1.25 1.25 45 0 0 1.25-1.25v-3.03a1.4 1.4-15.172 0 0-1.4-1.4h-13.42a.59.59-56.247 0 1-.59-.59v-34.77a1.03 1.02-90 0 1 1.02-1.03h45.97a1.46 1.45-90 0 1 1.45 1.46v46.07a2.492 2.483 76.597 0 1-1.36 2.22q-2.29 1.16-4.02 3.09a3.882 3.864-25.854 0 0-.99 2.83l.61 10.22a1.115 1.112 88.07 0 0 1.11 1.04h31.93a.756.755 7.494 0 0 .73-.56q.21-.79.46-5.91c.21-4.3.75-6.78-3-9.01q-2.29-1.36-4.14-2.04a1.847 1.842 11.534 0 1-1.2-1.81q.84-20.19.05-39.97a1.03 1.03 88.929 0 1 1.03-1.07h42.94a1.33 1.33 89.81 0 1 1.33 1.33v64.53a1.05 1.05 74.822 0 0 1.05 1.05h44.22a.83.82 0 0 0 .83-.82v-65.09a.68.68-89.933 0 1 .68-.68h77.69a1.09 1.08 0 0 1 1.09 1.08v28.53a.67.66-90 0 0 .66.67h44.6a.57.57-4.161 0 0 .57-.57v-44.81a.52.51 90 0 1 .51-.52h58.55a1.31 1.31 45 0 1 1.31 1.31v9.77a.491.49 1.219 0 0 .47.49c5.08.17 6.38.4 9.69-1.95 17.05-12.13 32.89-27.24 45.23-44.39a.28.274-72.106 0 0-.22-.44c-34.1-.12-55.76.36-82.98-.14q-20.7-.38-34.08.12c-10.4.39-18.93.08-30.68 0q-5.4-.04-23.03.12-18.97.16-25.01-.12-10-.47-20.9.06-6.01.29-20.95-.08c-9.53-.24-22.84-.07-30.42.19-11.55.39-30-.94-40.71-.37q-13.4.72-29.97.13-17.19-.62-36.33.04c-8.11.28-18.03.46-24.67.23q-21.09-.73-42.82-.43-54.43.77-110.92-.04c-7.14-.1-14.4.12-23.04.3q-24.87.51-79.52-.09-14.42-.16-27.39.15-10.73.26-27.37-.06c-20.54-.39-40.85.78-60.88-.2q-9.46-.47-22.12-.13-10.2.27-40.19.56-15.12.14-25.67-.22-17.78-.61-25.66-.5-22.46.32-40.49.64-12.47.22-23.98-.12a.447.441-17.878 0 0-.37.71"></path><path fill="#262222" fill-rule="evenodd" d="M852.06 164.21a1.318 1.307-4.477 0 0 .94-1.09c.38-2.83.73-5.69 2.72-7.76q4.55-4.71 11.11-3.24c1.05.23 2.9 1.43 4.35 1.89a1.484 1.47 39.184 0 0 1.13-.11q2.83-1.49 3.62-1.74c7.3-2.28 16.33 3.55 22.41 7.06a3.173 3.139-36.062 0 0 2.24.34c6.16-1.4 11.05-2.9 15.26 3.16q1.32 1.9 1.16 3.79-1.06 12.41-6.33 25.4a1.348 1.343 5.2 0 1-1 .83c-5.4 1.01-4.75-1.67-7.06-4.93a1.324 1.285-13.28 0 0-.87-.52c-6.5-.96-9.72-4.93-12.5-10.5-2.59-5.16-6.13-4.27-9.77-.97q-5.55 5.02-12.06 7.85a3.131 3.123 1.645 0 0-1.55 1.46c-5.4 10.68-11.5 19.97-25.43 15.17q-3-1.04-4.68-4.37a2.108 2.079 31.212 0 1-.23-.91c-.06-2.34-.03-3.98-.55-6.28q-2.26-10.06 5.12-17.37 5.36-5.31 11.97-7.16m2.113 15.204a2.53.71-39.1 0 0-2.411 1.045 2.53.71-39.1 0 0-1.515 2.147 2.53.71-39.1 0 0 2.411-1.045 2.53.71-39.1 0 0 1.515-2.147"></path><path fill="#262222" fill-rule="evenodd" d="M582.19 210.69q.19 3.2-1.22 6.88a5.142 5.112 53.872 0 0-.32 2.09l8.43 140.28a1.193 1.192 88.478 0 0 1.19 1.13h39.64a.38.37-90 0 0 .37-.38v-33.88a2.873 2.846-15.201 0 1 1.43-2.47l15.77-9.11a2.882 2.88-14.901 0 0 1.45-2.5v-38.12a1.805 1.792 77.151 0 1 1.01-1.62l64.83-31.26a1.55 1.331-57.476 0 1 .43-.13q1.15-.16 3.75 1.2 9.82 5.15 50.95 26.26a2.189 2.176 13.65 0 1 1.19 1.94v37.87a2.839 2.818-69.096 0 0 .93 2.1q3.9 3.51 9.73 8.04 1.77 1.37 3.75 1.36 19.87-.07 23 .1 5.47.3 10.95-.02a.954.952-1.933 0 0 .89-.95v-78.67a.635.63 18.211 0 0-.26-.51l-3.52-2.55a2.406 2.401 17.914 0 1-1-1.95v-8.96a.6.59 0 0 1 .6-.59h36.29a.72.72 89.596 0 1 .72.71q.11 8.79.01 14.45c-.04 2.34-2.98 4.23-5.21 5.36a2.683 2.678-13.697 0 0-1.45 2.38q.05 31.2-.11 63.83-.03 4.21.16 11c.11 4.2 4.02 7.86 6.93 10.48a3.142 3.115 66.907 0 0 1.99.81q10.17.37 22.74.32 1.41-.01 3.84-2.3 8.48-8 13.49-12.57a3.895 3.885-20.963 0 0 1.28-2.86c.21-36.1.59-58.65-.22-87.22a2.134 2.117-62.12 0 0-.34-1.12q-.55-.88-1.98-1.32a1.994 1.842 8.447 0 1-1.4-1.74q-.51-15.34-.3-31.56a.27.27-88.898 0 1 .27-.26h32.57a.94.94-60.921 0 1 .94.94v34.99a.38.38 74.783 0 0 .38.38h14.56a.75.75 45 0 1 .75.75v8.41a.84.84-50.051 0 1-.84.84h-13.87a.78.78 81.809 0 0-.78.78v65.17a.85.85 45.082 0 0 .85.85h47.33a.4.4-78.76 0 0 .4-.4v-86.61a1.82 1.587-59.527 0 0-.12-.64c-1.13-2.76-3.86-4.47-5.52-7a4.24 4.189 28.919 0 1-.69-2.34q.06-7.34.12-17.31c.02-2.68.81-3.48 2.6-4.89q1.48-1.16 1.61-2.65.54-6.11 1.26-9.76a.438.435-81.154 0 0-.37-.51q-3.37-.4-6.28.74c-4.57 1.8-6.62 2.19-10.23-.5q-4.53-3.38-3.06-9.67.92-3.91 2.75-11.85a1.773 1.771 25.443 0 1 2.82-1l2.8 2.18a2.716 2.711 73.126 0 0 .84.45q2.49.79 4.3 2.19c3.26 2.53 6.1 3.44 11.1 5.78a.813.721-3.421 0 1 .28.22l2.73 3.24a2.782 2.779-23.161 0 0 2.45.98q4.14-.46 7.02 1.03c7.27 3.78 11.06 9.31 7.81 18.06a.716.712 9.848 0 0 .68.96c2.32-.01 3.5.89 3.56 3.47q.3 12.61-.43 18.97c-.28 2.51-3.87 4.15-6.07 5.35a2.128 2.125-6.041 0 0-1.02 1.26q-.49 1.64-.48 2.98c.21 26.99.73 50.62.01 74.25q-.02.79.19 1.58a.785.783-7.118 0 0 .76.59h43.68a.52.52 81.825 0 0 .52-.52v-97.82a.44.44-45 0 0-.44-.44h-6.93a3.55 3.5 29.019 0 0-1.83.51q-4.63 2.79-11.17 1.93-6.6-.88-5.83-7.85.49-4.51 2.39-11.06a2.401 2.375-3.891 0 1 1.35-1.53q4.62-2 8.07.23 2.51 1.62 3.62 1.79 5.24.81 10.25.16a.629.621 5.049 0 0 .52-.43l1.17-3.57a1.221 1.21 8.83 0 1 1.16-.84h42.13a.7.7-55.34 0 1 .7.7c.01 3.04.42 4.77 4 4.05q5.64-1.13 10.8.04c2.83.65 7.01 7.07 8.5 9.76a3.665 3.649-13.688 0 0 3.09 1.87q3.66.09 6.76.5c3.33.44 9.42 3.59 10.69 7.12 1.29 3.56 2.66 4.53 5.28 6.39a2.664 2.654 7.026 0 1 .94 1.2c.83 2.06.48 5.41 1.26 6.89 1.21 2.28 3.61 3.44 2.93 6.75-.86 4.19-5.07 8.73-9.95 8.37q-3.54-.27-3.7-4.88a2.48 2.475 14.052 0 0-1.25-2.08c-3.54-2.02-6.41-4.26-6.49-8.63q-.08-4.1.36-7.44a1.11 1.11-86.154 0 0-1.1-1.26h-3.12a1.178 1.165-82.597 0 0-1.13.88q-.49 1.9-3.99 2.23-8.75.82-13.16-4.18a.952.95-40.6 0 0-1.32-.1q-2.42 2.03-7.18.98a.981.974 6.204 0 0-1.19.95v88.36a.621.611-89.045 0 0 .59.62l7.11.26a3.271.808-20.944 0 0 1.13-.14q.74-.18 3.22-.18 29.49-.09 66.51-.05a.75.74 0 0 0 .75-.74v-52.13a.34.34-55.991 0 1 .34-.34h44.85a.82.81 0 0 1 .82.81v81.34a.31.31-84.155 0 0 .31.31h59.94a.46.45 90 0 0 .45-.46v-21.89a.67.67 25.154 0 1 .67-.67h17.43a.69.68 0 0 0 .69-.68v-33.73a.43.42-90 0 1 .42-.43h23.46a4.237 4.229-19.364 0 1 3.3 1.58q10.18 12.65 17.42 25.42 6.41 11.33 10.32 27.27c6.18 25.23.01 52.08-13.77 73.86a.947.94-73.351 0 1-.79.43H373.35a1.225 1.224 75.457 0 1-1.07-.63q-2.5-4.46-4.08-7.44-11.17-21.04-11.84-45.08-.34-12.35 3.46-23.97a.884.878-79.706 0 1 .86-.6q25.13.42 57.58.09c3.78-.03 4.89 1.57 7.79 4.49q6.68 6.75 27.99 28.45c2.35 2.4 3.78 3.43 6.92 4.51q15.78 5.48 32.27 11.83a3.978 3.97 41.321 0 0 3.32-.21l27.78-15.02a3.651 3.632 41.116 0 1 3.06-.2l20.99 8.03a1.321 1.319-70.856 0 0 1.73-.84q.54-1.73.87-4.31 3.04-23.6 3.79-29.39 6.3-48.93 12.64-99.64.53-4.24.61-6.87a1.2 1.2 82.07 0 0-1.56-1.18q-4.5 1.41-8.7.89c-2.03-.25-3.46-1.33-5.26-2.09a6 6-33.443 0 0-2.25-.46q-8.44-.07-16.7-3.05-1.9-.69-5.22.17-9.56 2.48-12.78 3.18c-7.56 1.66-9.41-.94-11.87-7.54a1.936 1.893 39.582 0 1-.1-.94q.68-4.29 1.85-5.76 6.17-7.77 8.23-10.16c4.58-5.34 20.95-6.82 26.07-1.36q2.11 2.25 3.21 2.89a9.981 9.748-23.056 0 0 1.49.58l12.42 3.82a2.845 2.803-35.116 0 0 .78.13l6.08.3a2.149 1.834 49.52 0 1 .44.07q3.61.92 6.56 3.44 2.53 2.16 3.76 2.68c2.18.92 5.49 1.59 7.23 4.08a2.766 2.719 26.073 0 1 .49 1.39m-58.685-5.999a1.93.74-9.2 0 0-2.023-.421 1.93.74-9.2 0 0-1.787 1.039 1.93.74-9.2 0 0 2.023.421 1.93.74-9.2 0 0 1.787-1.039M733.01 269.85a.74.74 0 0 0-.74-.74h-32.04a.74.74 0 0 0-.74.74v26.36a.74.74 0 0 0 .74.74h32.04a.74.74 0 0 0 .74-.74zm464.618 53.398a.9.9 0 0 0-.897-.903l-31.519-.11a.9.9 0 0 0-.904.897l-.136 39.12a.9.9 0 0 0 .897.903l31.52.11a.9.9 0 0 0 .903-.897zm-450.307 3.937a1.97 1.97 0 0 0-1.973-1.967l-36.26.064a1.97 1.97 0 0 0-1.967 1.973l.058 32.86a1.97 1.97 0 0 0 1.973 1.967l36.26-.064a1.97 1.97 0 0 0 1.967-1.973zm52.349 3.045a1.18 1.18 0 0 0-1.18-1.18h-28.46a1.18 1.18 0 0 0-1.18 1.18v25.12a1.18 1.18 0 0 0 1.18 1.18h28.46a1.18 1.18 0 0 0 1.18-1.18zm247.033.002a1.04 1.04 0 0 0-1.038-1.041l-35.08-.062a1.04 1.04 0 0 0-1.042 1.039l-.066 38.02a1.04 1.04 0 0 0 1.038 1.041l35.08.062a1.04 1.04 0 0 0 1.042-1.039zm-370.318 1.398a.93.93 0 0 0-.929-.931l-33-.058a.93.93 0 0 0-.931.929l-.05 28.32a.93.93 0 0 0 .929.931l33 .058a.93.93 0 0 0 .931-.929zm294.253 5.675a.85.85 0 0 0-.852-.848l-38.02.066a.85.85 0 0 0-.848.852l.044 25.44a.85.85 0 0 0 .852.848l38.02-.066a.85.85 0 0 0 .848-.852zm160.099.268a1.16 1.16 0 0 0-1.158-1.162l-46.96-.082a1.16 1.16 0 0 0-1.162 1.158l-.054 30.48a1.16 1.16 0 0 0 1.158 1.162l46.96.082a1.16 1.16 0 0 0 1.162-1.158zm168.161-.339a.74.74 0 0 0-.739-.741l-37.72-.066a.74.74 0 0 0-.741.739l-.056 31.58a.74.74 0 0 0 .739.741l37.72.066a.74.74 0 0 0 .741-.739z"></path><path fill="#262222" fill-rule="evenodd" d="m649.91 181.57.77-.78a3.13 3.115 76.366 0 0 .77-1.27c.78-2.43.48-7 2.04-9.08 2.03-2.72 4.43-3.57 7.96-2.78q5.82 1.3 9.79 2.49a.547.54 18.784 0 0 .66-.32c1.01-2.61 2-5.16 4.08-6.66 3.12-2.25 7.43-2.54 10.75-.34 2.19 1.45 4.77-.02 7.09.35 5.29.85 9.13 5.27 11.62 9.77a1.935 1.913-2.37 0 0 .89.81q2.05.9 3.46.86 8.34-.28 15.82 2.94a8.846 8.687 59.557 0 0 2.45.66c4.32.51 7.12.4 9.93 4.38a1.078 1.069 61.415 0 0 1.27.38q4.71-1.81 9.68-4.26 3.87-1.91 8.4-.29c2.87 1.02 4.24-.08 5.82-2.37a2.203 2.172 8.773 0 1 1.15-.83q3.56-1.09 4.92-6.16.67-2.5 4.35-2.66 4.86-.22 7.37 3.32c1.61 2.26 1.47 5.52 3.86 7.47 4.77 3.93 4.28 7.6 1.1 12.24a1.874 1.864-58.112 0 1-2.46.58q-2.25-1.25-3.98-3.33a2.887 2.88-15.426 0 0-1.75-.99l-5.82-.9a2.129 2.122-67.62 0 0-2.03.85l-3.19 4.4a2.25 2.243-82.577 0 1-1.01.78l-2.63 1.02a5 5-66.602 0 0-.84.42q-1.83 1.11-4.4 6.05c-1.35 2.61-5.88 1.14-7.89-.21q-1.32-.89-2.94-.61-7.44 1.3-12.81 4.88-4.7 3.13-5.99 3.4-4.86 1.02-10.2-.71-3.88-1.25-4.76-2.4-4.71-6.13-6.96-10.76a2.028 2.019-15.522 0 0-2.01-1.13q-8.34.77-16.09-2.54a4.319 4.168-31.489 0 0-1.49-.33q-12.59-.45-25.25 1.74-9.33 1.62-11.79-6.98a1.131 1.112-30.701 0 1 .29-1.1M828.31 199.71a.454.453-42.971 0 0-.03.82q3.38 1.74 4.29 4.81c1.03 3.45.52 8.19-3.48 9.27-4.32 1.16-5.22-1.54-7.38-4.27a3.651 3.638-7.535 0 0-1.48-1.13c-2.11-.9-4.17-1.36-5.57-4.07a3.298 3.253 1.963 0 0-1.24-1.31q-6.27-3.67-7.15-3.89-3.42-.87-5.89-1.95a1.799 1.759 84.303 0 1-.8-.67c-1.55-2.37-1.23-5.12 1.04-7.04 2.86-2.43 3.07-6.3 3.69-10.71a2.057 2.052 3.284 0 1 1.99-1.77c4.2-.09 7.74 4.22 6.91 8.49a.438.437-9.645 0 0 .65.46l3.2-1.85a1.837 1.793 32.065 0 1 1.06-.23q11.12.94 13.23 11.28a1.843 1.836 51.228 0 1-.12 1.12q-.76 1.73-2.92 2.64"></path><path fill="#fce405" fill-rule="evenodd" d="M854.173 179.414a2.53.71-39.1 0 1-1.515 2.147 2.53.71-39.1 0 1-2.411 1.045 2.53.71-39.1 0 1 1.515-2.147 2.53.71-39.1 0 1 2.411-1.045"></path><path fill="#fff" fill-rule="evenodd" d="M523.505 204.691a1.93.74-9.2 0 1-1.787 1.039 1.93.74-9.2 0 1-2.023-.421 1.93.74-9.2 0 1 1.787-1.039 1.93.74-9.2 0 1 2.023.421"></path><path fill="#262222" fill-rule="evenodd" d="M1160.07 230.13q-1.65-5.46-1.75-6.1c-.7-4.72 3.93-6.95 7.84-5.62 1.61.55 2.75 2.39 3.93 3.37a1.516 1.338 75.128 0 0 .21.14l3.57 2a1.953 1.935 5.358 0 1 .87 1.04c1.39 4.02 2.79 13.98-3.98 14.14-6.53.14-6.69-4.11-10.14-7.98a2.656 2.499 17.693 0 1-.55-.99"></path><path fill="#fce405" fill-rule="evenodd" d="M733.01 296.21a.74.74 0 0 1-.74.74h-32.04a.74.74 0 0 1-.74-.74v-26.36a.74.74 0 0 1 .74-.74h32.04a.74.74 0 0 1 .74.74zM1197.492 362.368a.9.9 0 0 1-.903.897l-31.52-.11a.9.9 0 0 1-.897-.903l.136-39.12a.9.9 0 0 1 .904-.897l31.519.11a.9.9 0 0 1 .897.903zM747.379 360.045a1.97 1.97 0 0 1-1.967 1.973l-36.26.064a1.97 1.97 0 0 1-1.973-1.967l-.058-32.86a1.97 1.97 0 0 1 1.967-1.973l36.26-.064a1.97 1.97 0 0 1 1.973 1.967zM799.67 355.35a1.18 1.18 0 0 1-1.18 1.18h-28.46a1.18 1.18 0 0 1-1.18-1.18v-25.12a1.18 1.18 0 0 1 1.18-1.18h28.46a1.18 1.18 0 0 1 1.18 1.18zM1046.637 368.252a1.04 1.04 0 0 1-1.042 1.039l-35.08-.062a1.04 1.04 0 0 1-1.038-1.041l.066-38.02a1.04 1.04 0 0 1 1.042-1.039l35.08.062a1.04 1.04 0 0 1 1.038 1.041zM676.335 359.95a.93.93 0 0 1-.931.929l-33-.058a.93.93 0 0 1-.929-.931l.05-28.32a.93.93 0 0 1 .931-.929l33 .058a.93.93 0 0 1 .929.931zM970.682 362.745a.85.85 0 0 1-.848.852l-38.02.066a.85.85 0 0 1-.852-.848l-.044-25.44a.85.85 0 0 1 .848-.852l38.02-.066a.85.85 0 0 1 .852.848zM1130.683 368.053a1.16 1.16 0 0 1-1.162 1.158l-46.96-.082a1.16 1.16 0 0 1-1.158-1.162l.054-30.48a1.16 1.16 0 0 1 1.162-1.158l46.96.082a1.16 1.16 0 0 1 1.158 1.162zM1298.842 368.814a.74.74 0 0 1-.741.739l-37.72-.066a.74.74 0 0 1-.739-.741l.056-31.58a.74.74 0 0 1 .741-.739l37.72.066a.74.74 0 0 1 .739.741z" data-source="https://football-logos.cc"></path><path fill="#837600" fill-rule="evenodd" d="M377.58 403.39a.447.441-17.878 0 1 .37-.71q11.51.34 23.98.12 18.03-.32 40.49-.64 7.88-.11 25.66.5 10.55.36 25.67.22 29.99-.29 40.19-.56 12.66-.34 22.12.13c20.03.98 40.34-.19 60.88.2q16.64.32 27.37.06 12.97-.31 27.39-.15 54.65.6 79.52.09c8.64-.18 15.9-.4 23.04-.3q56.49.81 110.92.04 21.73-.3 42.82.43c6.64.23 16.56.05 24.67-.23q19.14-.66 36.33-.04 16.57.59 29.97-.13c10.71-.57 29.16.76 40.71.37 7.58-.26 20.89-.43 30.42-.19q14.94.37 20.95.08 10.9-.53 20.9-.06 6.04.28 25.01.12 17.63-.16 23.03-.12c11.75.08 20.28.39 30.68 0q13.38-.5 34.08-.12c27.22.5 48.88.02 82.98.14a.28.274-72.106 0 1 .22.44c-12.34 17.15-28.18 32.26-45.23 44.39-3.31 2.35-4.61 2.12-9.69 1.95a.491.49 1.219 0 1-.47-.49v-9.77a1.31 1.31 45 0 0-1.31-1.31h-58.55a.52.51 90 0 0-.51.52v44.81a.57.57 15.544 0 1-.57.57h-44.6a.67.66 90 0 1-.66-.67v-28.53a1.09 1.08 0 0 0-1.09-1.08h-77.69a.68.68 89.978 0 0-.68.68v65.09a.83.82 0 0 1-.83.82h-44.22a1.05 1.05-56.259 0 1-1.05-1.05v-64.53a1.33 1.33 89.952 0 0-1.33-1.33h-42.94a1.03 1.03 88.929 0 0-1.03 1.07q.79 19.78-.05 39.97a1.847 1.842 11.534 0 0 1.2 1.81q1.85.68 4.14 2.04c3.75 2.23 3.21 4.71 3 9.01q-.25 5.12-.46 5.91a.756.755 7.494 0 1-.73.56h-31.93a1.115 1.112 88.07 0 1-1.11-1.04l-.61-10.22a3.882 3.864-25.854 0 1 .99-2.83q1.73-1.93 4.02-3.09a2.492 2.483 76.597 0 0 1.36-2.22v-46.07a1.46 1.45 90 0 0-1.45-1.46H927.9a1.03 1.02 90 0 0-1.02 1.03v34.77a.59.59 74.804 0 0 .59.59h13.42a1.4 1.4 33.713 0 1 1.4 1.4v3.03a1.25 1.25 45 0 1-1.25 1.25h-13.39a.83.83 81.91 0 0-.83.83v19.79a.46.46 45 0 1-.46.46h-32.92a.893.885-2.073 0 1-.89-.82q-.62-7.72.68-17.11a1.275 1.269-6.674 0 1 .81-1.02q1.04-.4 1.73-1.24a2.4 2.4-89.666 0 0 .5-1q.5-2.23.61-5.61.54-15.83.02-41.07a.878.856-79.083 0 0-.5-.76q-6.39-2.97-12.76-6.76-1.98-1.18-4.16-1.21-13.95-.21-25.09-.05a3.411 3.201-53.532 0 0-1.04.19c-2.38.87-6.7 3.24-6.67 6.47q.23 20.57-.06 39.22a.955.948 11.091 0 0 .61.9l4.42 1.69a2.036 2.028 8.823 0 1 1.3 1.77l.44 7.43a.804.802 88 0 1-.8.86h-36.71a.63.63 33.746 0 1-.63-.63v-4.3a.785.779 77.583 0 1 .45-.71l3.78-1.83a.909.887.699 0 0 .42-.4q.46-.92.43-3-.33-18.79.13-38.87a.942.935 4.437 0 0-.82-.95q-1.44-.19-2.39-.18-20.2.19-31.25.21-2.12.01-4.29.99-4.07 1.85-9.78 4.5a1.597 1.57-12.732 0 0-.92 1.43v20.03a1.57 1.57-7.422 0 1-1.17 1.52q-29.03 7.52-52.06 14.89-2.03.65-6.32-.49c-4.39-1.16-11.49-3.7-16.63-5.02q-10.64-2.73-45.14-12.13a.955.948-82.457 0 1-.7-.92v-19.7a2.404 2.396 9.04 0 0-1.66-2.28l-16.08-5.25a1.337 1.333-80.992 0 1-.92-1.27V419.4a.57.57 79.659 0 0-.57-.57h-39.77a.814.807 2.714 0 0-.81.73q-2.18 20.45-8.05 72.19-.53 4.69.19 8.63a1.089 1.085 80.111 0 1-.89 1.27q-6.5 1.08-10.93 3.71a5.016 4.89-63.257 0 1-1.86.64l-21.16 2.61a6.12 6.034 51.576 0 1-2.94-.36l-25.57-9.78a.296.295 58.946 0 1 .14-.57c11.54 1.5 21.96 1.03 34.37-.96q7.26-1.16 15.29-1.47a.438.435-8.03 0 0 .41-.54c-5.54-22.95-12.91-50.14-17.75-74.64a1.202 1.2 79.114 0 0-1.4-.95q-9.22 1.74-22.52 4.17-2.04.38-5.5-.52-13.07-3.39-24.75-6.6a10.328 10.283-42.371 0 0-4.57-.2q-16.78 3.11-31.61 5.53c-1.76.29-3.62 1.05-5.02 1.85q-9.79 5.54-26.75 14.6-4.18 2.24-6.87 2.37c-4.32.2-7.34.68-10.66-2.07q-17.91-14.87-33.2-35.08m669.022 11.108a.72.72 0 0 0-.721-.719l-35.48.062a.72.72 0 0 0-.719.721l.036 20.76a.72.72 0 0 0 .721.719l35.48-.062a.72.72 0 0 0 .719-.721zm84.142.575a1.06 1.06 0 0 0-1.058-1.062l-47.26-.082a1.06 1.06 0 0 0-1.062 1.058l-.028 15.9a1.06 1.06 0 0 0 1.058 1.062l47.26.082a1.06 1.06 0 0 0 1.062-1.058zm167.435.076a.89.89 0 0 0-.894-.885l-36.8.192a.89.89 0 0 0-.885.895l.081 15.44a.89.89 0 0 0 .894.885l36.8-.192a.89.89 0 0 0 .885-.895zM970.98 418.22a1.12 1.12 0 0 0-1.12-1.12H932.2a1.12 1.12 0 0 0-1.12 1.12v12.8a1.12 1.12 0 0 0 1.12 1.12h37.66a1.12 1.12 0 0 0 1.12-1.12zm226.817.572a1.22 1.22 0 0 0-1.225-1.216l-31.059.108a1.22 1.22 0 0 0-1.216 1.225l.066 19.059a1.22 1.22 0 0 0 1.225 1.216l31.059-.108a1.22 1.22 0 0 0 1.216-1.225zM747.02 419.83a1.28 1.28 0 0 0-1.28-1.28h-37.2a1.28 1.28 0 0 0-1.28 1.28v16.98a1.28 1.28 0 0 0 1.28 1.28h37.2a1.28 1.28 0 0 0 1.28-1.28zm-70.629-.131a.86.86 0 0 0-.864-.856l-33.16.174a.86.86 0 0 0-.855.864l.077 14.74a.86.86 0 0 0 .864.856l33.16-.174a.86.86 0 0 0 .855-.864zm122.999 2.371a.92.92 0 0 0-.92-.92h-28.64a.92.92 0 0 0-.92.92v13.04a.92.92 0 0 0 .92.92h28.64a.92.92 0 0 0 .92-.92zm-66.732 32.301a1.17 1.17 0 0 0-1.172-1.168l-30.64.054a1.17 1.17 0 0 0-1.168 1.172l.024 13.22a1.17 1.17 0 0 0 1.172 1.168l30.64-.054a1.17 1.17 0 0 0 1.168-1.172z"></path><path fill="#fce405" fill-rule="evenodd" d="M1046.638 435.258a.72.72 0 0 1-.719.721l-35.48.062a.72.72 0 0 1-.721-.719l-.036-20.76a.72.72 0 0 1 .719-.721l35.48-.062a.72.72 0 0 1 .721.719zM1130.716 430.973a1.06 1.06 0 0 1-1.062 1.058l-47.26-.082a1.06 1.06 0 0 1-1.058-1.062l.028-15.9a1.06 1.06 0 0 1 1.062-1.058l47.26.082a1.06 1.06 0 0 1 1.058 1.062zM1298.26 430.589a.89.89 0 0 1-.885.895l-36.8.192a.89.89 0 0 1-.894-.885l-.081-15.44a.89.89 0 0 1 .885-.895l36.8-.192a.89.89 0 0 1 .894.885zM970.98 431.02a1.12 1.12 0 0 1-1.12 1.12H932.2a1.12 1.12 0 0 1-1.12-1.12v-12.8a1.12 1.12 0 0 1 1.12-1.12h37.66a1.12 1.12 0 0 1 1.12 1.12zM1197.863 437.851a1.22 1.22 0 0 1-1.216 1.225l-31.059.108a1.22 1.22 0 0 1-1.225-1.216l-.066-19.059a1.22 1.22 0 0 1 1.216-1.225l31.059-.108a1.22 1.22 0 0 1 1.225 1.216zM747.02 436.81a1.28 1.28 0 0 1-1.28 1.28h-37.2a1.28 1.28 0 0 1-1.28-1.28v-16.98a1.28 1.28 0 0 1 1.28-1.28h37.2a1.28 1.28 0 0 1 1.28 1.28zM676.468 434.439a.86.86 0 0 1-.855.864l-33.16.174a.86.86 0 0 1-.864-.856l-.077-14.74a.86.86 0 0 1 .855-.864l33.16-.174a.86.86 0 0 1 .864.856zM799.39 435.11a.92.92 0 0 1-.92.92h-28.64a.92.92 0 0 1-.92-.92v-13.04a.92.92 0 0 1 .92-.92h28.64a.92.92 0 0 1 .92.92zM732.682 467.591a1.17 1.17 0 0 1-1.168 1.172l-30.64.054a1.17 1.17 0 0 1-1.172-1.168l-.024-13.22a1.17 1.17 0 0 1 1.168-1.172l30.64-.054a1.17 1.17 0 0 1 1.172 1.168zM853.53 1591.76a1.599 1.59-44.833 0 1-2.05 0c-10.49-8.81-18.71-15.81-30.34-24.33q-6.33-4.64-15.13-11.32c-10.37-7.87-18.51-13.25-27.42-19.94q-2.73-2.06-19.14-12.87-39.12-25.78-62.93-40.96-16.81-10.72-36.88-23.57-16.1-10.31-35.97-25.02-27.58-20.43-53.74-41.65-49.33-39.99-92.26-84.22-1.15-1.17-19.82-21.04c-18.9-20.1-36.96-41.26-53.94-62.24q-15.56-19.22-30.77-39.71c-34.65-46.68-64.12-95-87.98-146.78-5.68-12.32-13.23-28.91-18.03-42.01-3.04-8.29-9.44-24.07-13.19-35.31-12.69-38.13-23.5-76.59-30.67-116.54Q218 814.89 216 798q-2.43-20.49-5.14-50.01-1.3-14.21-1.54-26.49c-.76-39.04 12-77.43 37.28-107.39 33.07-39.22 80.05-62.79 130.68-69.4q24.88-3.24 48.25-.78c22.62 2.38 44.62 7.74 65.66 17.2 14.15 6.36 27.17 13 41.96 21.6q21.86 12.72 30.52 17.58c27.54 15.46 56.68 28.12 86.55 36.66q7.97 2.28 21.19 5.05 16.12 3.39 21.38 4.33c21.19 3.79 40.99 6.67 61.71 8.46q28.92 2.5 62.54 4.02 30.64 1.38 64.91.22 33.37-1.13 64.82-3.73 40.74-3.37 81.23-11.81c15.5-3.24 30.54-6.71 45.74-12.33q30.52-11.29 50.24-21.7 21.85-11.55 53-29.5 21.74-12.52 42.46-21.29c18.85-7.96 41.08-12.77 61.21-14.86 37.79-3.93 78.17 3.7 112.15 19.59q40.13 18.78 68.03 52.76c15.75 19.18 26.04 42.38 31.85 66.36 1.86 7.66 3 17.01 3.2 26.02q.47 22.18-1.38 41.94-1.29 13.83-3.63 36.12-2.27 21.65-5.04 37.76c-2.02 11.8-5.28 29.28-7.09 37.9q-26.34 125.34-89.56 236.69-11.21 19.76-24.94 40.31-15.08 22.57-26.84 39.13-14.04 19.77-31.59 41.41-44 54.25-91.97 102.04-15.46 15.4-36.85 34.83-17.64 16.03-38.43 33.11-36.22 29.74-76.32 57.94-5.11 3.6-27.7 18.31c-25.78 16.79-55.4 34.74-77.02 49.48q-17.77 12.12-25.11 16.88-4.87 3.16-29.1 20.67-3.08 2.23-6.19 4.51-22.64 16.57-43.59 34.17m110.93-149.65q.09-.2.15-.25 4.38-3.02 8.73-5.53 5.27-3.03 8.63-5.58 6.04-4.57 16.15-11.12 57.18-37.03 61.31-39.7.94-.61 20.05-13.67 18.78-12.83 25.5-17.74c13.04-9.53 27.06-17.96 39.34-28.32q10.1-8.52 14.2-11.41a2.953 2.92 74.786 0 0 1.22-2.16q.38-4.82.37-8.88 0-21.68.01-33.5.35-446.19-.06-587.41-.04-13.39-.16-21.74a.764.763-11.267 0 0-1.05-.7q-32.32 13.02-67.61 23.4c-12.06 3.55-25.79 5.92-37.11 8.57q-23.2 5.44-39.65 7.94c-15.05 2.29-30.41 3.63-45.11 5.56-26.58 3.49-51.9 4.8-81.87 5.67q-67.89 1.97-129.09-3.35c-14.86-1.3-29.25-3.7-44.33-5.05-6.36-.57-12.16-1.83-17.88-2.28q-4.47-.35-13.33-2.09-21.16-4.13-25.88-5.28-12.83-3.11-28.29-6.3c-9.42-1.94-19.13-4.58-28.7-7.68-17.75-5.74-35.33-11.79-50.31-18.41q-1.68-.74-3.11-.91a1.021 1.016 3.329 0 0-1.13 1c-.53 39.3-.17 82.54-.19 124.64q-.14 215.33-.17 483.67 0 26.48-.14 40.51-.01 1.03.68 3.58a1.852 1.836 7.483 0 0 .86 1.11q2.78 1.59 4.01 2.55 8.06 6.33 17.64 14.36 3 2.51 9.11 6.66c4.17 2.83 6.99 5.37 11.22 8.07q.24.15 5.98 4.16 30.96 21.6 35.61 24.77c17.5 11.89 34.8 22.68 52.1 34.38 3.88 2.63 9.73 5.81 12.82 7.88q8.94 6 18.6 12.02c6.94 4.34 11.64 8.44 18.33 12.63q4.18 2.63 13.59 9.11 6.04 4.16 7.05 4.8c7.13 4.5 12.22 8.2 19.9 13.12 5.01 3.21 9.11 7.11 13.9 10.79q13.04 10.01 43.66 32.77 4.06 3.02 10.49 8.61 4.01 3.48 10.67 8.45a2.15 2.143 46.045 0 0 2.51.05c5.42-3.77 10.5-7.57 15.31-11.99q7.09-6.51 9.25-7.86 1.85-1.16 10.64-7.9c9.42-7.24 20.52-14.27 29.21-21.2.91-.73 2.09-.94 2.63-1.69q.51-.72 1.52-1.53 5.86-4.69 11.52-8.7 4.07-2.9 11.26-8.21 6.74-4.98 19.22-12.44a.51.456-6.83 0 0 .22-.25"></path><path fill="#fff" fill-rule="evenodd" d="M964.24 1442.36q-12.48 7.46-19.22 12.44-7.19 5.31-11.26 8.21-5.66 4.01-11.52 8.7-1.01.81-1.52 1.53c-.54.75-1.72.96-2.63 1.69-8.69 6.93-19.79 13.96-29.21 21.2q-8.79 6.74-10.64 7.9-2.16 1.35-9.25 7.86c-4.81 4.42-9.89 8.22-15.31 11.99a2.15 2.143 46.045 0 1-2.51-.05q-6.66-4.97-10.67-8.45-6.43-5.59-10.49-8.61-30.62-22.76-43.66-32.77c-4.79-3.68-8.89-7.58-13.9-10.79-7.68-4.92-12.77-8.62-19.9-13.12q-1.01-.64-7.05-4.8-9.41-6.48-13.59-9.11c-6.69-4.19-11.39-8.29-18.33-12.63q-9.66-6.02-18.6-12.02c-3.09-2.07-8.94-5.25-12.82-7.88-17.3-11.7-34.6-22.49-52.1-34.38q-4.65-3.17-35.61-24.77-5.74-4.01-5.98-4.16c-4.23-2.7-7.05-5.24-11.22-8.07q-6.11-4.15-9.11-6.66-9.58-8.03-17.64-14.36-1.23-.96-4.01-2.55a1.852 1.836 7.483 0 1-.86-1.11q-.69-2.55-.68-3.58.14-14.03.14-40.51.03-268.34.17-483.67c.02-42.1-.34-85.34.19-124.64a1.021 1.016 3.329 0 1 1.13-1q1.43.17 3.11.91c14.98 6.62 32.56 12.67 50.31 18.41 9.57 3.1 19.28 5.74 28.7 7.68q15.46 3.19 28.29 6.3 4.72 1.15 25.88 5.28 8.86 1.74 13.33 2.09c5.72.45 11.52 1.71 17.88 2.28 15.08 1.35 29.47 3.75 44.33 5.05q61.2 5.32 129.09 3.35c29.97-.87 55.29-2.18 81.87-5.67 14.7-1.93 30.06-3.27 45.11-5.56q16.45-2.5 39.65-7.94c11.32-2.65 25.05-5.02 37.11-8.57q35.29-10.38 67.61-23.4a.764.763-11.267 0 1 1.05.7q.12 8.35.16 21.74.41 141.22.06 587.41-.01 11.82-.01 33.5.01 4.06-.37 8.88a2.953 2.92 74.786 0 1-1.22 2.16q-4.1 2.89-14.2 11.41c-12.28 10.36-26.3 18.79-39.34 28.32q-6.72 4.91-25.5 17.74-19.11 13.06-20.05 13.67-4.13 2.67-61.31 39.7-10.11 6.55-16.15 11.12-3.36 2.55-8.63 5.58-4.35 2.51-8.73 5.53-.06.05-.15.25a.51.456-6.83 0 1-.22.25m179.82-766.07c-34.01 13.16-70.13 22.67-106.74 29.24Q971.15 717.41 903 720.24c-67.48 2.8-135.67-.1-202.6-9.99q-32.59-4.81-57.13-9.99-42.71-9.02-82.36-24.29a.401.399 10.947 0 0-.55.37v623.1a3.034 3.018 18.674 0 0 1.2 2.41q4.23 3.22 21.91 16.2 28.72 21.08 42.56 30.41c37.89 25.54 63.8 42.08 115.41 75.55 18.41 11.94 36.44 25.54 53.78 37.65 19.86 13.87 37.5 28.35 56.06 43.6a2.024 2.015 44.865 0 0 2.57 0q30.87-25.64 62.78-48.37 34.73-24.74 73.9-50.16c24.41-15.83 49.1-31.68 74.34-48.62q36.8-24.68 79.4-56.13a1.637 1.607-18.609 0 0 .66-1.3V676.89a.642.642-10.392 0 0-.87-.6"></path><path fill="#262222" fill-rule="evenodd" d="M1144.06 676.29a.642.642-10.392 0 1 .87.6v623.79a1.637 1.607-18.609 0 1-.66 1.3q-42.6 31.45-79.4 56.13c-25.24 16.94-49.93 32.79-74.34 48.62q-39.17 25.42-73.9 50.16-31.91 22.73-62.78 48.37a2.024 2.015 44.865 0 1-2.57 0c-18.56-15.25-36.2-29.73-56.06-43.6-17.34-12.11-35.37-25.71-53.78-37.65-51.61-33.47-77.52-50.01-115.41-75.55q-13.84-9.33-42.56-30.41-17.68-12.98-21.91-16.2a3.034 3.018 18.674 0 1-1.2-2.41v-623.1a.401.399 10.947 0 1 .55-.37q39.65 15.27 82.36 24.29 24.54 5.18 57.13 9.99c66.93 9.89 135.12 12.79 202.6 9.99q68.15-2.83 134.32-14.71c36.61-6.57 72.73-16.08 106.74-29.24M994.37 863.08a.336.336-52.979 0 0-.07-.5c-11.04-7.25-22.02-14.25-33.1-19.9q-31.65-16.12-65.4-23.45-12.54-2.73-29.54-4.28-23.42-2.12-45.26-.22-52.18 4.55-98.14 27.67c-20.71 10.43-39.99 24.12-57.08 38.87q-17.44 15.06-32.65 34.61-25.83 33.2-40.79 72.7-9.02 23.8-13.53 51.7c-5.39 33.27-4.28 64.69 2.44 96.48 7.93 37.52 25.88 73.4 49.13 103.82q22.35 29.22 52.29 51.15 39.75 29.1 85.32 42.18 41.56 11.93 88.32 9.65c18.83-.91 40.21-3.95 58.19-9.54q24.38-7.57 36.26-13.05 19.83-9.14 39.2-21.7a1.181 1.173-36.686 0 0 .26-1.74l-19.09-22.73a.661.659 53.632 0 0-.85-.13q-10.55 6.5-13.76 8.33-19.07 10.85-36.71 16.99-51.92 18.09-107.08 11.48-50.12-6-93.57-32.26-17.81-10.76-33.81-24.96-9.71-8.62-20.95-20.86c-14.37-15.64-25.69-33.4-34.65-51.12q-19.84-39.24-23.22-84.19c-.85-11.32-1.12-20.6-.29-31.33 2.54-32.68 11.28-65.07 26.67-94.05q8.64-16.26 16.98-28.07 16.1-22.77 41.83-45.19 11.39-9.91 24.63-18.03 16.26-9.96 26.74-14.81 17.43-8.06 38.64-13.84 17.03-4.63 32.06-6.29c24.1-2.66 44.79-2.25 67.67 1.48q15.45 2.52 33.91 8.98 21.24 7.43 38.82 17.01c6.57 3.58 13.11 8.34 18.87 11.84a.65.65 36.654 0 0 .82-.12zm-305.16 370.13q32.69-.31 67.29-.12 1.09.01 166.34.14 17.27.01 24.81-.8 12.92-1.38 24.42-4.35 19.3-4.99 36.68-15.61 29.57-18.09 48.35-45.53 19.77-28.89 24.93-61.57c4.96-31.47-1-65.87-18.26-93.14-19.18-30.31-45.91-51.27-78.83-65.19q-22.81-9.64-49.44-12.23-2.79-.27-10-.27-112.13-.02-205.25.06c-9.12.01-21.1-.32-31.01-.05a.671.67-.882 0 0-.65.67v297.38a.61.61-.462 0 0 .62.61"></path><path fill="#fff" fill-rule="evenodd" d="m994.37 863.08-20.49 22.58a.65.65 36.654 0 1-.82.12c-5.76-3.5-12.3-8.26-18.87-11.84q-17.58-9.58-38.82-17.01-18.46-6.46-33.91-8.98c-22.88-3.73-43.57-4.14-67.67-1.48q-15.03 1.66-32.06 6.29-21.21 5.78-38.64 13.84-10.48 4.85-26.74 14.81-13.24 8.12-24.63 18.03-25.73 22.42-41.83 45.19-8.34 11.81-16.98 28.07c-15.39 28.98-24.13 61.37-26.67 94.05-.83 10.73-.56 20.01.29 31.33q3.38 44.95 23.22 84.19c8.96 17.72 20.28 35.48 34.65 51.12q11.24 12.24 20.95 20.86 16 14.2 33.81 24.96 43.45 26.26 93.57 32.26 55.16 6.61 107.08-11.48 17.64-6.14 36.71-16.99 3.21-1.83 13.76-8.33a.661.659 53.632 0 1 .85.13l19.09 22.73a1.181 1.173-36.686 0 1-.26 1.74q-19.37 12.56-39.2 21.7-11.88 5.48-36.26 13.05c-17.98 5.59-39.36 8.63-58.19 9.54q-46.76 2.28-88.32-9.65-45.57-13.08-85.32-42.18-29.94-21.93-52.29-51.15c-23.25-30.42-41.2-66.3-49.13-103.82-6.72-31.79-7.83-63.21-2.44-96.48q4.51-27.9 13.53-51.7 14.96-39.5 40.79-72.7 15.21-19.55 32.65-34.61c17.09-14.75 36.37-28.44 57.08-38.87q45.96-23.12 98.14-27.67 21.84-1.9 45.26.22 17 1.55 29.54 4.28 33.75 7.33 65.4 23.45c11.08 5.65 22.06 12.65 33.1 19.9a.336.336-52.979 0 1 .07.5"></path><path fill="#fff" fill-rule="evenodd" d="M689.21 1233.21a.61.61-.462 0 1-.62-.61V935.22a.671.67-.882 0 1 .65-.67c9.91-.27 21.89.06 31.01.05q93.12-.08 205.25-.06 7.21 0 10 .27 26.63 2.59 49.44 12.23c32.92 13.92 59.65 34.88 78.83 65.19 17.26 27.27 23.22 61.67 18.26 93.14q-5.16 32.68-24.93 61.57-18.78 27.44-48.35 45.53-17.38 10.62-36.68 15.61-11.5 2.97-24.42 4.35-7.54.81-24.81.8-165.25-.13-166.34-.14-34.6-.19-67.29.12m28.83-268.48v237.97a.571.57 1.042 0 0 .55.57q7.01.23 20.91.2 92.14-.2 184.26-.1 11.92.01 17.97-.58c33.58-3.32 62.3-17.2 83.83-43.2q24.4-29.46 27.88-66.73c1.89-20.3-1.99-39.78-10.82-57.73-6.84-13.88-17.34-26.25-29.16-36.1-7.99-6.66-15.23-12.86-23.66-17.37q-18.19-9.71-36.67-14.32-13.41-3.35-26.38-3.29c-57.93.25-134.81-.06-208.22.19a.49.49 0 0 0-.49.49"></path><path fill="#262222" fill-rule="evenodd" d="M718.04 964.73a.49.49-45 0 1 .49-.49c73.41-.25 150.29.06 208.22-.19q12.97-.06 26.38 3.29 18.48 4.61 36.67 14.32c8.43 4.51 15.67 10.71 23.66 17.37 11.82 9.85 22.32 22.22 29.16 36.1 8.83 17.95 12.71 37.43 10.82 57.73q-3.48 37.27-27.88 66.73c-21.53 26-50.25 39.88-83.83 43.2q-6.05.59-17.97.58-92.12-.1-184.26.1-13.9.03-20.91-.2a.571.57 1.042 0 1-.55-.57zm49.661 118.574q.029 66.909-.018 102.294a1.11 1.107-89.929 0 0 1.107 1.112q25.85.03 130.21-.03 22.87-.01 30-.36c31.66-1.54 57.27-22.13 58.38-55.24.58-17.44-5.63-36.07-19.14-47.49q-.07-.06-.104-.172-.029-.1-.029-.201 0-.1.029-.201.034-.112.104-.172c13.5-11.431 19.694-30.067 19.099-47.506-1.139-33.109-26.767-53.677-58.428-55.19q-7.13-.343-30-.334-104.36.03-130.21.083a1.11 1.107 89.88 0 0-1.107 1.113q.078 35.384.107 102.294"></path><path fill="#fff" fill-rule="evenodd" d="M968.107 1083.217q0 .101.029.201.034.112.104.172c13.51 11.42 19.72 30.05 19.14 47.49-1.11 33.11-26.72 53.7-58.38 55.24q-7.13.35-30 .36-104.36.06-130.21.03a1.11 1.107-89.929 0 1-1.107-1.112q.047-35.385.018-102.294-.029-66.91-.107-102.294a1.11 1.107 89.88 0 1 1.107-1.113q25.85-.053 130.21-.083 22.87-.009 30 .334c31.661 1.513 57.289 22.081 58.428 55.19.595 17.439-5.599 36.075-19.099 47.506q-.07.06-.104.172-.029.101-.029.201M794.32 1006.81v62.82a.47.47 3.46 0 0 .47.47h131.9a34.21 29.45 0 0 0 34.21-29.45v-4.86a34.21 29.45 0 0 0-34.21-29.45h-131.9a.47.47 45 0 0-.47.47m-.135 90.165.11 62.94a.55.55-10.72 0 0 .551.549l132.14-.23a33.85 29.47-.1 0 0 33.798-29.529l-.009-5.1a33.85 29.47-.1 0 0-33.901-29.411l-132.14.23a.55.55-10.42 0 0-.549.551"></path><path fill="#262222" fill-rule="evenodd" d="M794.32 1006.81a.47.47 45 0 1 .47-.47h131.9a34.21 29.45 0 0 1 34.21 29.45v4.86a34.21 29.45 0 0 1-34.21 29.45h-131.9a.47.47 38.895 0 1-.47-.47zM794.185 1096.975a.55.55 38.077 0 1 .549-.551l132.14-.23a33.85 29.47-.1 0 1 33.901 29.411l.009 5.1a33.85 29.47-.1 0 1-33.798 29.529l-132.14.23a.55.55 29.035 0 1-.551-.549z" data-source="https://football-logos.cc"></path><!-- source: https://football-logos.cc --></svg>