<svg xmlns="http://www.w3.org/2000/svg" viewBox="31.37 66.44 532.54 709.01"><!-- Source: https://football-logos.cc --><path d="m72.407 295.126 450.75.075h2.034l.084 2.034c.613 14.844 1.117 29.585 1.113 44.329-.004 14.741-.519 29.428-1.946 44.117-4.745 48.818-14.112 95.52-29.484 139.892-15.383 44.397-36.776 86.451-65.565 125.942-19.868 27.254-40.75 50.469-62.496 70.654-21.753 20.193-44.383 37.37-67.736 52.54l-1.143.742-1.149-.734c-37.679-24.08-71.68-53.151-101.327-86.727-29.358-33.25-54.446-70.91-74.606-112.512-10.738-22.159-19.548-44.712-26.651-67.582-7.1-22.862-12.492-46.026-16.395-69.417-4.001-23.985-6.67-47.917-7.948-71.674-1.262-23.457-1.165-46.728.347-69.694l.13-1.986z" style="display:inline;fill:#fff;fill-rule:evenodd;fill-opacity:1" data-source="https://football-logos.cc"></path><path d="M175.76 599.08c1.515-2.636 3.029-4.11 4.814-6.45l9.663-12.167c1.597-2.143 3.741-5.785 4.988-4.534.932.935-10.116 12.959-11.59 14.767zm-5.668-3.134c1.63-3.871 3.482-4.533 5.262-6.08 4.22-3.667 3.32-3.65 5.535-5.873l9.453-10.449 1.596.03c.16 1.254-3.63 4.61-4.715 5.85l-5.652 5.747c-2.402 2.485-2.411 3.563-5.495 5.921-1.268.971-1.656 1.486-2.887 2.557-1.011.88-1.857 1.377-3.097 2.297m-6.016-5.052c.836-1.722 10.093-8.953 12.365-10.866l6.248-5.628c1.904-1.503 4.341-4.322 6.705-4.983.299 2.356-.435 2.064-1.983 3.258l-13.244 10.565c-1.423 1.329-1.732 1.68-3.132 2.82-1.753 1.425-4.614 4.448-6.96 4.834m77.79-18.952c.7-2.404 1.427-3.99 3.274-5.04zm-79.183 12.535c1.762-1.91 9.739-7.49 12.28-9.384 2.283-1.7 10.765-8.493 12.88-9.086.137 2.429-.744 2.33-2.288 3.339-3.439 2.249-21.085 14.98-22.872 15.13m84.6-13.272c.718-2.78 1.665-5.45 3.671-6.02-.318 1.59-1.665 3.515-2.634 4.877zm45.033 15.351c1.3-2.078 2.403-3.289 3.849-5.321 3.78-5.316 8.199-15.907 8.72-16.435l2.026.215c-1.41 5.173-10.206 19.316-14.595 21.541m-10.469-1.341c4.236-4.673 7.42-10.265 10.057-16.148 2.043-4.56 1.267-4.835 4.284-4.917-.706 4.036-10.25 19.8-14.34 21.065m-31.563-10.934c.62-2.028 1.69-3.802 2.623-5.536 1.087-2.018.982-3.511 3.571-4.32-.645 2.1-1.827 3.603-3.026 5.333-1.367 1.973-1.514 2.826-3.168 4.523m37.199 10.627c4.16-6.494 9.317-12.649 11.291-20.577l2.462.504c-2.306 5.78-9.045 17.655-13.753 20.073m-8.4-2.195c1.092-2.892 6.171-8.728 8.737-15.279 1.198-3.056.47-4.01 3.746-3.653-.525 3.257-8.531 16.318-12.484 18.932m-3.662-1.984c1.438-3.172 3.8-5.377 5.505-9.27 2.537-5.794 2.772-8.33 5.492-8.112-.056 2.91-7.422 15.392-10.997 17.382m-3.936-1.488c1.404-3.027 3.41-5.397 5.052-8.71 1.645-3.32 2.792-8.46 4.397-7.47.461.577 1.502-.738-.019 2.347-1.735 3.519-6.126 12.12-9.43 13.833m-4.802-.22c.83-2.293 3.33-6.404 4.62-8.765 3.007-5.497 2.67-7.221 5.353-7.436-.017 3.021-8.05 15.022-9.973 16.201m-3.81-1.615c1.194-2.74 2.87-4.5 3.976-7.61.71-1.994 1.022-2.445 1.899-4.053 1.38-2.533.248-2.489 3.106-2.774-2.01 6.709-5.557 10.192-8.981 14.437m-4.126-1.33c1.318-3.099 3.552-5.832 5.432-10.465.855-2.108.403-1.939 2.557-2.454-.912 4.019-5.747 10.907-7.99 12.919m-3.599-1.95c.681-2.47 3.852-9.888 6.377-10.252-.385 2.346-4.291 8.665-6.377 10.252m-78.853-5.127c3.317-1.934 7.083-4.654 10.337-6.118.807 2.443.67 1.69-1.362 2.707-4.754 2.377-16.577 9.181-19.306 10.119zm-12.093 1.432c1.466-1.356 18.779-8.89 21.964-10.06.642 2.268.32 1.867-1.54 2.58l-8.639 3.258c-4.043 1.5-7.612 2.958-11.785 4.222m1.458-5.487c4.71-1.487 12.995-6.256 20.2-7.896-.173 2.896-1.493 2.399-4.373 3.262-3.739 1.12-13.088 4.3-15.827 4.634m160.572 2.142c2.039-1.255 4.716-2.222 6.925-3.424 2.413-1.313 4.424-2.234 6.842-3.588 4.004-2.243 9.826-6.17 14.927-5.717-.995 6.701-10.327 20.87-13.939 23.142 1.813-3.552 7.214-9.667 7.776-14.034-.929 2.168-11.03 11.285-14.53 12.642 3.374-3.805 8.822-6.911 12.864-14.48-3.489 1.791-12.267 9.367-19.439 10.943 2.824-2.134 15.842-9.545 17.698-12.673-5.442 1.795-13.146 6.428-19.124 7.19m-159.55-6.479c1.265-1.005 11.373-3.808 14.347-4.746 5.834-1.84 3.807-1.237 4.58-.484-1.29 1.695-16.712 5.34-18.926 5.23m-3.42-3.619c2.784-.895 20.24-5.198 22.056-4.235-.797 1.76-2.828 1.523-5.079 1.87-3.697.57-14.902 2.625-16.977 2.365m-.194-4.698c1.04-.748 1.105-.599 2.747-.754.89-.084 1.768-.164 2.663-.26l11.753-1.196c2.42-.255 3.807-.804 5.021.193-.556 1.647.637 1.008-2.313 1.202zm20.131-5.258c-4.763.248-20.619-1.27-24.549-2.598 3.764-.327 9.311.532 13.29.75 4.873.268 9.25.193 14.124.122l-.7 3.663-27.187-.515zm-27.87-12.894c8.416-.4 24.564 5.228 33.228 6.647-.487 1.328-.459.836-.653 1.138l-.658.914c-.365.522-.52.848-.94 1.6l-31.972-6.83c4.622-.822 24.735 4.388 31.6 4.5zm93.327-9.16c-.205.128.65.63-1.537.28zm3.558-.725c-1.927-.099-5.381-1.17-6.65-2.186 1.723-.064 2.308.307 3.978.717 3.644.895 2.504.513 2.671 1.469m3.238-1.259c-1.971.777-8.842-1.91-9.512-2.898l8.57 2.203c.187.081.234 1.175.646.431.056-.1.196.178.296.264m7.306-2.183c-2.314-.024-4.3-.354-6.424-.834-2.201-.496-3.697-.496-5.148-1.579 2.225.248 4.252.548 6.475.867 6.976 1 4.078.234 5.097 1.546m225.353-25.866c4.516-3.515 3.482-5.605 3.723-8.558.181-2.22-2.02-4.427-2.261-6.565-.365-3.225-3.303-2.82-8.242-2.83.279-3.665.354-11.782-1.363-14.383-.526 6.118.838 7.445-1.608 12.618-2.142-3.122-.203-4.526-2.36-6.9-.627 1.517-.48 4.523-.496 6.589-15.868-3.556-15.572-5.285-34.593-3.37-15.01 1.51-13.607.01-27.913-.156-4.109-.048-4.648.825-8.067 1.28-20.572 2.743-43.04-2.247-66.378 11.588-4.02 2.383-7.55 5.579-11.596 8.24-15.87 10.436-36.623 16.823-53.864 24.004-7 2.916-9.287 1.277-16.426.12-9.823-1.59-17.75-4.756-20.445 5.687-1.049 4.062.612 4.245 2.98 5.494-6.112 3.651-36.339 9.738-44.899 8.6-7.903-1.05-15.03-2.96-22.376-4.936-6.768-1.821-14.712-4.375-21.889-4.765-8.745-.474-16.249 2.8-13.24 12.615 4.334 14.135 17.063 20.939 17.187 36.728.628 11.118 1.718 32.237 1.884 33.356.262 1.77 4.796 4.832 6.514 4.854 8.936-.04 15.054-7.27 18.539-11.383 1.21-1.428 2.429-2.324 3.634-3.791 6.26-7.623 18.402-21.027 27.126-23.98 3.56-1.204 19.925-6.279 22.773-6.6.585 8.39.482 10.308 6.875 13.588 11.518 5.908 33.332 13.566 46.195 13.566 5.03 0 7.229-2.27 9.476-4.667 1.897-2.023 4.489-4.935 5.948-7.436 2.743-4.697 5.825-13.785 8.883-18.087l8.244.245c-2.478 2.516-6.603 5.71-3.132 10.698 1.832 2.633 5.355 5.585 8.534 7.321 16.435 8.977 21.564.889 27.236-13.4 3.238-8.157 1.226-7.467 7.048-8.843 26.99-6.383 45.505-13.131 69.372-26.329 7.903-4.37 34.277-24.127 38.684-24.347.461 6 2.182 15.525 5.236 19.653-1.055-6.885-3.38-11.908-3.38-19.868 0-2.354 1.018-2.85 2.236-3.846.851 3.988 1.477 7.345 2.812 11.08 1.357 3.797 1.381 3.842 2.613 4.559-6.112-13.224-2.663-17.634 7.239-24.825 1.504-1.092 2.486-1.921 3.537-2.618m-17.69.089c2.051 1.378 5.367 4.32 7.95 1.073 1.933-2.43 1.964-5.66 5.72-5.942.832 2.556-.22 3.415-1.961 4.74l-12.666 9.142zm-212.203 53.705c8.605-1.939 17.429-3.768 26.218-5.521 39.84-7.946 59.352-14.864 93.83-34.129 7.133-3.985 13.068-7.48 22.103-9.631 4.114-.98 9.292-1.475 11.96-3.927 2.424-2.228 1.187-3.027 4.29-7.603l1.94-2.226c-3.61 9.72-2.637 17.02 3.6 23.672 5.888 6.281 11.139 7.948 22.41 8.875-.617 1.117-16.37 11.24-18.633 12.71-5.94 3.858-13.895 7.024-21.15 10.102-8.41 3.568-38.767 15.311-46.49 16.652.654-4.913-.14-6.882-5.3-6.508-5.377.39-13.097 3.715-17.924 5.96-2.133.992-5.58 3.092-7.653 3.762-2.154.696-37.222-2.718-43.861-2.718-57.297 0-71.292 12.5-84.82 13.124-3.668.17-4.257-.38-5.753-2.422-4.305-5.877-6.297-19.874-3.774-23.473-.458 11.281.587 8.65 3.024 18.473 3.883-.747 9.992-4.223 14.438-5.706 22.747-7.586 54.787-15.152 78.367-19.815 5.712-1.13 28.778-5.822 33.082-5.911-3.162 2.11-37.084 9.196-43.706 10.634-7.492 1.626-14.487 3.537-21.758 5.538-6.762 1.86-14.628 3.817-20.653 5.962zm215.613-54.947c-1.75-4.463 5.672-16.105 12.74-12.645-.452 2.348-.24 1.362-3.03 3.758-4.631 3.979-6.59 9.468-9.71 8.887m-30.577-18.117c6.601-1.84 8.565 6.785 3.112 8.266-6.235 1.694-8.833-6.67-3.112-8.266m-142.723 35.52c10.153-4.263 20.839-8.523 29.864-13.79 9.34-5.453 16.522-12.027 28.37-15.766 18.177-5.736 38.508-4.683 57.412-3.971l-22.508 1.223c-29.849 1.422-32.154 3.23-55.439 17.433-14.207 8.666-34.008 16.873-50.46 22.458-5.233 1.776-12.758 4.803-18.015 5.616zm137.339-33.46c.073.12.133.29.167.386.035.095.116.272.156.39l.331 1.214c2.315 9.944 12.033 6.095 12.5.52.263-3.14-1.701-4.492-2.956-5.944l3.753.056c.889 1.401 1.969 2.38 2.386 4.773l-.652-1.039c-1.216-1.794-.75-1.303-1.982-1.844.575 8.808-.588 5.812-3.66 10.356 5.734.101 5.015-3.58 6.636-6.884.438 5.443-.918 4.392 14.414 6.666-.147 4.128-.963 8.25-1.194 12.556-.321 6.007-.02 6.8-4.62 9.241-6.08 3.226-12.05 7.372-20.38 7.372-11.64 0-30.536-11.05-23.288-29.726 1.16-2.992.489-2.813 3.327-4.282-.419 3.375-5.591 9.333.122 9.333 10.22 0 12.501-6.537 14.94-13.144" style="fill:#000;fill-rule:evenodd"></path><path d="M244.992 559.482c11.55-2.86 20.895-5.486 34.101-5.486 22.048 0 22.433 1.986 40.92 5.514-24.746-2.75-34.681-3.795-58.261-1.721-4.786.42-12.57 1.95-16.76 1.693m73.905-16.524c2.814.519 3.826 2.489 4.089 5.92-3.036-.795-3.928-2.517-4.09-5.92m9.98 4.585c-3.511-.61-4.82-2.337-4.71-6.291 2.548 1.229 3.918 2.911 4.71 6.291m.03-7.966c2.747 1.544 4.708 2.868 5.486 6.913-3.084-.636-5.853-3.343-5.486-6.913m6.233-2.773c2.414 1.764 4.467 5.222 5.61 9.066-3.036-.857-7.313-5.175-5.61-9.066m10.757 7.86c-3.632-.848-5.82-4.49-5.767-9.3 2.593 1.577 4.398 5.553 5.767 9.3m6.975 0c-4.205-1.162-8.328-5.233-7.534-10.976 1.788 1.792 6.515 8.607 7.534 10.975m1.926-6.115c1.71 2.425 4.115 5.143 5.42 7.726-4.47-.995-11.75-8.858-10.975-15.13 1.265 1.144 4.463 5.854 5.555 7.404m47.729-2.721c-1.166 1.526-3.543 3.874-4.895 5.02-15.631 13.26-53.026-2.73-39.699-16.389 7.148-7.325 27.372-10.506 37.955-11.588 6.6-.676 4.393.564 5.312-4.602 2.45 3.001 2.654 10.724 15.282 16.029-1.454 1.06-2.934 0-5.332-.127zm32.307-16.06c-6.719 0-13.818-5.774-15.282-9.7 2.507.94 6.224 3.614 8.786 5.057 6.175 3.48 7.094 2.625 9.673 3.901zm-202.829 34.845c6.025-2.145 13.891-4.102 20.653-5.962 7.271-2 14.266-3.912 21.758-5.539 6.622-1.438 40.544-8.523 43.706-10.634-4.304.09-27.37 4.783-33.082 5.912-23.58 4.663-55.62 12.23-78.367 19.815-4.446 1.483-10.555 4.959-14.438 5.705-2.437-9.823-3.482-7.191-3.024-18.472-2.523 3.6-.53 17.596 3.774 23.473 1.496 2.042 2.085 2.591 5.753 2.422 13.528-.623 27.523-13.124 84.82-13.124 6.639 0 41.707 3.414 43.86 2.718 2.073-.67 5.521-2.77 7.654-3.762 4.827-2.245 12.547-5.57 17.923-5.96 5.161-.374 5.955 1.595 5.302 6.508 7.722-1.34 38.079-13.084 46.489-16.652 7.255-3.078 15.21-6.244 21.15-10.102 2.263-1.47 18.016-11.593 18.632-12.71-11.27-.928-16.521-2.594-22.41-8.875-6.236-6.653-7.209-13.951-3.598-23.673l-1.941 2.227c-3.103 4.576-1.866 5.375-4.29 7.603-2.668 2.452-7.846 2.946-11.96 3.926-9.035 2.152-14.97 5.647-22.102 9.632-34.479 19.265-53.992 26.183-93.83 34.129-8.79 1.753-17.614 3.582-26.22 5.52z" style="fill:#b3b3b3;fill-rule:evenodd"></path><path d="M442.77 513.34c-6.136 0-9.904-2.057-13.743-5.576 11.796 5.107 14.524 3.829 25.036 1.984-3.107 2.265-6.322 3.592-11.294 3.592m-4.9-35.605c-2.439 6.607-4.72 13.144-14.94 13.144-5.713 0-.54-5.958-.122-9.333-2.838 1.47-2.166 1.29-3.327 4.282-7.248 18.676 11.649 29.726 23.288 29.726 8.33 0 14.3-4.146 20.38-7.372 4.6-2.44 4.299-3.234 4.62-9.241.23-4.306 1.047-8.428 1.194-12.556-15.333-2.274-13.976-1.223-14.414-6.666-1.621 3.304-.902 6.985-6.635 6.883 3.07-4.543 4.234-1.547 3.659-10.355 1.232.541.766.05 1.982 1.844l.652 1.039c-.417-2.392-1.497-3.372-2.386-4.773l-3.753-.056c1.255 1.452 3.219 2.804 2.955 5.944-.466 5.575-10.184 9.424-12.499-.52l-.331-1.214c-.04-.118-.122-.295-.156-.39s-.094-.266-.167-.386" style="fill:#b3b3b3;fill-rule:evenodd"></path><path d="M366.692 524.273c1.73-.35 4.985-2.193 7.379-3.025 5.507-1.916 21.868-6.371 26.585-6.139 1.79 3.793 4.603 6.207 6.705 8.877-1.065 1.75-8.604 12.035-9.978 12.755l6.719-11.687c-3.22 2.805-5.7 6.741-8.863 9.79 1.3-3.641 4.238-7.055 6.132-9.73-7.077 5.06-5.793 5.391-11.619 10.722 2.36-4.713 6.438-8.308 9.263-11.774-2.946 1.597-4.752 2.987-7.272 4.94-1.483 1.15-1.932 1.418-3.58 2.86a34 34 0 0 1-3.5 2.71c2.08-4.397 7.216-6.835 10.446-10.668-4.837 1.352-12.355 7.716-16.398 10.14l4.127-4.016c1.528-1.17 2.638-2.01 4.221-3.235 2.625-2.03 6.13-4.322 8.975-6.338l-23.306 11.974c2.41-2.18 5.755-3.768 8.83-5.68 1.73-1.075 7.546-4.305 8.941-5.758-6.83 1.016-17.382 6.658-20.493 7.312.487-1.307.025-.617 1.731-1.45l17.274-7.311c-2.063-.91-9.914 1.287-11.886 1.774-3.148.776-7.951 2.624-10.433 2.957m44.458-.102c2.399.127 3.878 1.186 5.332.127-12.628-5.305-12.832-13.028-15.282-16.029-.92 5.166 1.289 3.927-5.312 4.602-10.583 1.083-30.807 4.263-37.955 11.588-13.327 13.659 24.068 29.65 39.699 16.39 1.352-1.147 3.729-3.495 4.895-5.021z" style="fill:#000;fill-rule:evenodd"></path><path d="M269.755 524.398c5.257-.813 12.782-3.84 18.014-5.616 16.453-5.585 36.254-13.792 50.461-22.458 23.285-14.203 25.59-16.011 55.439-17.433l22.508-1.223c-18.904-.712-39.235-1.765-57.412 3.971-11.848 3.739-19.03 10.313-28.37 15.765-9.025 5.268-19.71 9.528-29.864 13.79z" style="fill:#b3b3b3;fill-rule:evenodd"></path><path d="M366.692 524.273c2.482-.333 7.285-2.181 10.433-2.957 1.972-.486 9.824-2.685 11.886-1.774l-17.274 7.311c-1.706.833-1.244.143-1.731 1.45 3.111-.654 13.664-6.296 20.493-7.312-1.395 1.453-7.21 4.683-8.94 5.758-3.076 1.912-6.421 3.5-8.831 5.68l23.306-11.974c-2.846 2.016-6.35 4.308-8.975 6.338-1.583 1.224-2.693 2.064-4.22 3.235l-4.128 4.016c4.044-2.424 11.56-8.788 16.398-10.14-3.23 3.833-8.367 6.27-10.446 10.667a34 34 0 0 0 3.5-2.709c1.648-1.442 2.097-1.71 3.58-2.86 2.52-1.953 4.326-3.343 7.272-4.94-2.825 3.466-6.903 7.06-9.263 11.774 5.826-5.33 4.542-5.663 11.62-10.722-1.894 2.675-4.833 6.089-6.133 9.73 3.162-3.049 5.644-6.985 8.863-9.79l-6.719 11.687c1.374-.72 8.913-11.004 9.978-12.755-2.102-2.67-4.915-5.084-6.705-8.877-4.717-.232-21.078 4.223-26.585 6.139-2.393.832-5.65 2.675-7.38 3.025" style="fill:#afafaf;fill-rule:evenodd"></path><path d="M326.232 567.086c5.978-.76 13.682-5.394 19.124-7.189-1.856 3.128-14.874 10.539-17.698 12.673 7.172-1.576 15.95-9.152 19.44-10.943-4.043 7.569-9.491 10.675-12.865 14.48 3.5-1.357 13.601-10.474 14.53-12.642-.562 4.367-5.963 10.482-7.776 14.034 3.612-2.273 12.944-16.44 13.94-23.142-5.102-.452-10.924 3.474-14.928 5.717-2.418 1.355-4.43 2.276-6.841 3.588-2.21 1.202-4.887 2.17-6.926 3.424" style="fill:#b3b3b3;fill-rule:evenodd"></path><path d="M244.992 559.482c4.19.256 11.974-1.272 16.76-1.693 23.58-2.074 33.515-1.03 58.26 1.721-18.486-3.528-18.87-5.514-40.919-5.514-13.206 0-22.55 2.626-34.101 5.486" style="fill:#000;fill-rule:evenodd"></path><path d="M185.934 542.107c-6.865-.112-26.978-5.322-31.6-4.5l31.972 6.83c.42-.753.575-1.078.94-1.6l.658-.914c.194-.302.166.19.653-1.138-8.664-1.42-24.812-7.047-33.228-6.647z" style="fill:#a8a8a8;fill-rule:evenodd"></path><path d="M473.831 493.792c3.12.581 5.078-4.908 9.71-8.887 2.79-2.396 2.578-1.41 3.03-3.758-7.068-3.46-14.49 8.182-12.74 12.645" style="fill:#b3b3b3;fill-rule:evenodd"></path><path d="m183.2 547.032-25.023 1.422 27.186.515.701-3.663c-4.873.071-9.25.146-14.124-.122-3.979-.218-9.526-1.077-13.29-.75 3.93 1.329 19.786 2.846 24.55 2.598" style="fill:#afafaf;fill-rule:evenodd"></path><path d="m470.42 495.034-.956 9.013 12.666-9.141c1.74-1.327 2.793-2.185 1.96-4.74-3.755.28-3.786 3.51-5.719 5.94-2.583 3.248-5.899.306-7.95-1.072" style="fill:#b3b3b3;fill-rule:evenodd"></path><path d="M170.092 595.946c1.24-.92 2.086-1.417 3.097-2.297 1.231-1.07 1.619-1.586 2.887-2.557 3.084-2.358 3.093-3.436 5.495-5.921l5.652-5.747c1.084-1.24 4.876-4.596 4.715-5.85l-1.596-.03-9.453 10.45c-2.215 2.222-1.315 2.205-5.535 5.872-1.78 1.547-3.632 2.209-5.262 6.08M164.076 590.894c2.346-.386 5.206-3.409 6.959-4.835 1.4-1.14 1.71-1.49 3.132-2.819l13.244-10.565c1.548-1.194 2.282-.902 1.983-3.258-2.364.66-4.801 3.48-6.705 4.983l-6.248 5.628c-2.272 1.913-11.53 9.144-12.365 10.866" style="fill:#afafaf;fill-rule:evenodd"></path><path d="m434.834 519.768 3.177-.742c-2.58-1.276-3.498-.421-9.673-3.9-2.562-1.444-6.28-4.117-8.786-5.058 1.464 3.926 8.563 9.7 15.282 9.7" style="fill:#000;fill-rule:evenodd"></path><path d="M292.316 586.557c4.389-2.226 13.185-16.369 14.595-21.542l-2.026-.215c-.521.528-4.94 11.119-8.72 16.435-1.446 2.032-2.55 3.243-3.849 5.321" style="fill:#afafaf;fill-rule:evenodd"></path><path d="M360.218 546.275c-1.305-2.583-3.71-5.3-5.42-7.726-1.092-1.55-4.29-6.26-5.555-7.404-.775 6.272 6.504 14.135 10.975 15.13" style="fill:#000;fill-rule:evenodd"></path><path d="M162.683 584.477c1.787-.151 19.433-12.882 22.872-15.131 1.544-1.009 2.424-.91 2.288-3.34-2.115.595-10.597 7.387-12.88 9.087-2.541 1.893-10.518 7.474-12.28 9.384" style="fill:#afafaf;fill-rule:evenodd"></path><path d="M442.77 513.34c4.971 0 8.186-1.327 11.293-3.592-10.512 1.845-13.24 3.123-25.036-1.984 3.84 3.52 7.607 5.576 13.742 5.576" style="fill:#000;fill-rule:evenodd"></path><path d="M441.82 478.147c1.365-1.13 1.985-1.78 4.038-1.52l.17.795c.592 5.12.745 1.41 1.532 4.267-2.038 2.17-3.368 1.753-5.822-.272zm1.434-2.472c-5.72 1.595-3.123 9.96 3.112 8.266 5.453-1.481 3.49-10.106-3.112-8.266" style="fill:#afafaf;fill-rule:evenodd"></path><path d="M287.483 584.908c4.708-2.417 11.447-14.294 13.753-20.073l-2.462-.504c-1.974 7.928-7.13 14.083-11.291 20.577" style="fill:#b3b3b3;fill-rule:evenodd"></path><path d="m175.76 599.08 7.875-8.384c1.474-1.809 12.522-13.832 11.59-14.767-1.247-1.251-3.39 2.391-4.987 4.535l-9.664 12.165c-1.785 2.341-3.299 3.815-4.815 6.451M281.847 585.215c4.091-1.265 13.635-17.029 14.341-21.065-3.017.082-2.241.357-4.284 4.917-2.636 5.883-5.82 11.475-10.057 16.148M279.082 582.713c3.953-2.613 11.96-15.675 12.484-18.932-3.276-.357-2.548.597-3.746 3.653-2.566 6.55-7.645 12.387-8.738 15.279" style="fill:#afafaf;fill-rule:evenodd"></path><path d="M275.422 580.729c3.574-1.99 10.94-14.473 10.996-17.382-2.72-.218-2.955 2.318-5.492 8.111-1.705 3.895-4.066 6.1-5.504 9.27" style="fill:#b3b3b3;fill-rule:evenodd"></path><path d="M164.203 570.431c4.172-1.264 7.74-2.721 11.784-4.222l8.638-3.257c1.86-.714 2.183-.313 1.541-2.581-3.185 1.17-20.498 8.704-21.964 10.06M165.964 575.707c2.729-.938 14.553-7.742 19.306-10.12 2.032-1.015 2.17-.263 1.362-2.705-3.254 1.463-7.02 4.183-10.337 6.117z" style="fill:#afafaf;fill-rule:evenodd"></path><path d="m441.82 478.147-.082 3.27c2.454 2.026 3.784 2.442 5.822.272-.787-2.857-.94.854-1.533-4.267l-.17-.795c-2.052-.26-2.672.39-4.038 1.52" style="fill:#000;fill-rule:evenodd"></path><path d="M271.485 579.24c3.304-1.712 7.695-10.313 9.43-13.832 1.521-3.085.48-1.77.019-2.346-1.605-.992-2.752 4.148-4.397 7.469-1.642 3.313-3.648 5.683-5.052 8.71M266.683 579.02c1.922-1.178 9.956-13.179 9.973-16.2-2.683.215-2.346 1.94-5.352 7.436-1.292 2.361-3.792 6.472-4.621 8.765" style="fill:#afafaf;fill-rule:evenodd"></path><path d="M352.872 544.663c-1.019-2.368-5.746-9.183-7.534-10.975-.794 5.743 3.329 9.814 7.534 10.975" style="fill:#000;fill-rule:evenodd"></path><path d="M165.66 564.944c2.739-.333 12.089-3.514 15.827-4.634 2.88-.863 4.2-.366 4.373-3.262-7.205 1.64-15.49 6.409-20.2 7.896" style="fill:#afafaf;fill-rule:evenodd"></path><path d="M163.262 556.988c2.075.26 13.28-1.795 16.978-2.365 2.25-.348 4.281-.11 5.078-1.87-1.816-.963-19.272 3.34-22.056 4.235M163.068 552.29l19.87-.815c2.951-.194 1.758.445 2.314-1.202-1.214-.997-2.602-.448-5.021-.193l-11.753 1.196c-.895.096-1.772.176-2.663.26-1.642.155-1.707.006-2.747.754" style="fill:#a8a8a8;fill-rule:evenodd"></path><path d="M166.683 560.607c2.214.11 17.636-3.535 18.926-5.23-.773-.753 1.254-1.355-4.58.484-2.974.938-13.082 3.74-14.346 4.746" style="fill:#afafaf;fill-rule:evenodd"></path><path d="M340.75 545.87c-1.143-3.844-3.196-7.302-5.61-9.066-1.703 3.891 2.574 8.209 5.61 9.066" style="fill:#000;fill-rule:evenodd"></path><path d="M262.873 577.406c3.424-4.245 6.97-7.728 8.981-14.437-2.857.285-1.725.24-3.106 2.774-.877 1.608-1.189 2.059-1.899 4.053-1.106 3.11-2.782 4.87-3.976 7.61" style="fill:#afafaf;fill-rule:evenodd"></path><path d="M345.897 544.663c-1.369-3.746-3.174-7.722-5.767-9.3-.052 4.811 2.135 8.453 5.767 9.3M334.394 546.49c-.78-4.045-2.74-5.369-5.487-6.913-.367 3.57 2.402 6.277 5.487 6.913" style="fill:#000;fill-rule:evenodd"></path><path d="M258.747 576.076c2.242-2.012 7.077-8.9 7.99-12.918-2.155.514-1.703.345-2.558 2.453-1.88 4.633-4.113 7.366-5.432 10.465M255.148 574.126c2.086-1.586 5.992-7.906 6.377-10.252-2.525.364-5.696 7.782-6.377 10.252" style="fill:#afafaf;fill-rule:evenodd" data-source="https://football-logos.cc"></path><path d="M328.877 547.543c-.792-3.38-2.162-5.062-4.71-6.291-.11 3.954 1.199 5.68 4.71 6.291M322.986 548.879c-.263-3.432-1.275-5.402-4.09-5.921.162 3.403 1.054 5.125 4.09 5.92" style="fill:#000;fill-rule:evenodd"></path><path d="M250.284 574.281c1.655-1.697 1.8-2.55 3.168-4.523 1.2-1.73 2.381-3.233 3.026-5.332-2.589.808-2.483 2.301-3.57 4.319-.935 1.734-2.005 3.508-2.624 5.536" style="fill:#afafaf;fill-rule:evenodd"></path><path d="M262.758 520.81c-1.02-1.31 1.879-.545-5.097-1.545-2.223-.319-4.25-.619-6.475-.867 1.451 1.083 2.947 1.083 5.148 1.58 2.125.479 4.11.81 6.424.833" style="fill:#a8a8a8;fill-rule:evenodd"></path><path d="M255.452 522.994c-.1-.086-.24-.364-.296-.264-.412.744-.459-.35-.646-.43l-8.57-2.204c.67.987 7.54 3.675 9.512 2.898" style="fill:#9f9f9f;fill-rule:evenodd"></path><path d="m247.283 571.205 1.037-1.143c.969-1.362 2.316-3.288 2.635-4.877-2.007.57-2.953 3.24-3.672 6.02M252.214 524.253c-.168-.956.972-.574-2.672-1.47-1.67-.41-2.255-.78-3.979-.717 1.27 1.018 4.724 2.088 6.65 2.187" style="fill:#a8a8a8;fill-rule:evenodd"></path><path d="m241.867 571.942 3.274-5.041c-1.848 1.052-2.576 2.637-3.274 5.041" style="fill:#9f9f9f;fill-rule:evenodd"></path><path d="m248.656 524.978-1.537.28c2.186.35 1.332-.152 1.537-.28" style="fill:#a8a8a8;fill-rule:evenodd"></path><path d="M136.467 337.583h16.162l.133 131.4c.075 6.354 3.06 10.801 6.825 10.876 5.256.103 9.558-5.332 9.564-16.05l.067-126.19 15.523-.01-.21 124.802c-.034 20.559-8.13 41.556-28.424 41.326-17.098-.194-19.739-20.087-19.724-41.476zM205.859 337.62l49.59-.008.002 20.766-16.856.347.002 126.64-15.918 3.374V359.063l-16.911.488zM277.276 337.632l43.633-.038-.056 18.3-27.75 1.013.037 38.137 22.312-1.462.038 18.75-22.35 2.437-.04 40.276 27.786-4.688v18.675l-43.426 8.775z" style="fill:#fff;fill-rule:evenodd"></path><path d="m345.619 337.626 30.038-.113c8.468-.031 17.936 8.135 18.113 21.112l.15 11.026c.13 9.544-1.932 18.051-10.313 23.193 7.905 3.604 11.608 9.48 11.624 17.888l.038 19.613c.03 15.066-10.23 25.834-19.763 27.75l-29.85 6zm15.973 17.306 9.637-.225c3.564-.084 6.612 5.102 6.638 8.962l.075 11.213c.042 6.345-3.786 11.952-8.288 12.263l-8.138.562s0-33.149.076-32.775m-.039 50.589 10.088-1.313c4.914-.64 7.8 6.339 7.8 10.425v15.226c0 6.317-2.543 10.771-7.65 11.625l-10.313 1.726z" style="fill:none"></path><path d="M418.513 361.163c-.019-16.11 8.985-24.695 24.15-25.275 13.763-.527 24.342 7.82 24.374 20.7l.15 60.6c.05 19.962-14.967 28.449-30.15 29.325-8.935.516-18.433-6.066-18.45-21.262zm15.974-.449c.003-5.206 3.152-9.335 8.887-9.637 4.303-.227 7.95 3.497 7.95 7.612v61.463c0 7.289-4.87 9.902-10.162 10.688-3.314.163-6.715-3.792-6.712-8.288z" style="fill:#fff;fill-rule:evenodd"></path><path d="m295.062 613.354-.037 12.825-23.203.028.005 27.787h18.343l.02 12.887-18.366.009-.01 38.161-14.361.02-.009-91.744zM303.46 632.15c-.03-13.173 8.513-20.014 20.775-19.837 15.98.231 22 10.154 21.937 20.062l-.076 11.663-13.35-.075v-9.975c0-6.543-3.552-8.616-7.387-8.85-3.732-.228-7.952 2.336-7.95 7.912l.018 51.169c.002 6.597 3.484 8.797 7.612 8.85 3.52.045 7.788-2.738 7.781-8.1l-.018-14.119h13.388l.038 14.822c.028 11.072-8.464 20.501-21.836 20.409-13.27-.091-20.842-6.606-20.813-21.356z" style="fill:#2e3a84;fill-rule:evenodd"></path><path d="m85.86 309.837 424.087-.263 2.079-.001.04 2.086c.293 15.76.235 30.781-.276 45.39-.513 14.66-1.478 28.895-2.995 43.029-4.677 43.565-13.985 83.72-27.248 121.094-13.264 37.377-30.487 71.979-50.993 104.437-17.078 27.033-36.967 51.246-59.081 73.165-22.1 21.906-46.423 41.522-72.384 59.375l-1.205.828-1.203-.828c-25.354-17.465-49.771-37.016-72.834-60.173-23.074-23.169-44.785-49.938-64.712-81.825-16.89-27.025-31.263-56.335-42.837-87.576-11.4-30.772-20.084-63.425-25.778-97.622l-.009-.05c-2.842-19.606-4.606-38.78-5.624-58.353-1.015-19.506-1.286-39.434-1.146-60.604l.015-2.108zm422.007 3.974-419.903.26c-.108 20.261.178 39.428 1.158 58.263 1.01 19.42 2.764 38.464 5.59 57.967 5.65 33.905 14.263 66.287 25.572 96.812 11.47 30.963 25.717 60.012 42.455 86.796 19.753 31.608 41.262 58.131 64.115 81.077 22.498 22.592 46.309 41.728 71.032 58.844 25.31-17.493 49.028-36.682 70.597-58.062 21.898-21.706 41.586-45.672 58.483-72.418 20.337-32.19 37.42-66.511 50.577-103.59 13.16-37.08 22.394-76.916 27.033-120.13 1.511-14.078 2.471-28.207 2.978-42.714.487-13.913.562-28.186.313-43.105" style="fill:#000;fill-rule:evenodd"></path><path d="m136.383 462.262.084-124.679h16.162l.133 131.4c.075 6.354 3.06 10.801 6.825 10.876 5.256.103 9.558-5.332 9.564-16.05l.067-126.19 15.523-.01-.21 124.802c-.034 20.559-8.13 41.556-28.424 41.326-17.098-.194-19.739-20.087-19.724-41.476M507.866 313.81l-419.902.26c-.108 20.261.178 39.428 1.158 58.263 1.01 19.42 2.764 38.464 5.59 57.967 5.65 33.905 14.263 66.287 25.572 96.812 9.754 26.328 21.514 51.272 35.106 74.616-.417-7.444-1.005-18.596-1.406-25.684-.123-15.79-12.852-22.593-17.186-36.728-3.009-9.815 4.495-13.089 13.24-12.615 7.177.39 15.12 2.944 21.89 4.765 7.345 1.976 14.472 3.885 22.375 4.936 8.56 1.138 38.787-4.949 44.9-8.6-2.369-1.25-4.03-1.432-2.981-5.494 2.695-10.443 10.622-7.278 20.445-5.686 7.138 1.156 9.426 2.795 16.426-.12 17.24-7.182 37.994-13.57 53.864-24.005 4.046-2.661 7.577-5.857 11.596-8.24 23.339-13.835 45.806-8.845 66.378-11.587 3.42-.456 3.958-1.329 8.067-1.281 14.306.166 12.903 1.667 27.913.156 19.021-1.916 18.725-.186 34.593 3.37.015-2.066-.131-5.072.496-6.589 2.157 2.374.218 3.778 2.36 6.9 2.446-5.173 1.083-6.5 1.608-12.619 1.717 2.602 1.642 10.719 1.363 14.384 4.939.01 7.877-.395 8.241 2.83q.039.33.133.662c6.808-25.615 11.828-52.508 14.871-80.855 1.511-14.077 2.471-28.206 2.978-42.713.487-13.913.562-28.186.312-43.105m-302.098 45.74.09-21.931 49.592-.008v20.766l-16.855.347.002 126.64-15.918 3.374V359.063zm71.692 118.256-.184-140.176 43.633-.037-.056 18.3-27.75 1.013.037 38.137 22.312-1.462.038 18.75-22.35 2.437-.04 40.276 27.786-4.688v18.675zm68.196-13.712-.037-126.47 30.038-.112c8.468-.031 17.936 8.135 18.113 21.112l.15 11.026c.13 9.544-1.932 18.051-10.313 23.193 7.905 3.604 11.608 9.48 11.624 17.888l.038 19.613c.03 15.066-10.23 25.834-19.763 27.75zm72.857-102.933c-.019-16.11 8.985-24.694 24.15-25.274 13.763-.527 24.342 7.82 24.374 20.7l.15 60.6c.05 19.962-14.968 28.449-30.15 29.325-8.935.516-18.433-6.066-18.45-21.262z" style="fill:#2f3b7b;fill-rule:evenodd"></path><path d="M361.592 354.932c-.076-.374-.076 32.775-.076 32.775l8.138-.562c4.502-.311 8.33-5.918 8.288-12.263l-.076-11.213c-.025-3.86-3.073-9.046-6.637-8.962zM371.64 404.208l-10.087 1.313-.075 37.689 10.313-1.726c5.107-.854 7.65-5.308 7.65-11.625v-15.225c0-4.087-2.885-11.065-7.8-10.426M434.487 360.714l-.037 61.838c-.003 4.496 3.398 8.451 6.712 8.288 5.292-.786 10.163-3.399 10.163-10.688V358.69c0-4.115-3.648-7.84-7.95-7.613-5.736.303-8.885 4.432-8.888 9.638" style="fill:#2f3b7b;fill-rule:evenodd"></path><path d="M383.608 392.844c8.38-5.142 10.442-13.649 10.312-23.193l-.15-11.026c-.177-12.977-9.645-21.143-18.113-21.112l-30.038.113.037 126.47 29.85-6c9.533-1.917 19.792-12.685 19.763-27.751l-.038-19.613c-.016-8.409-3.72-14.284-11.623-17.888m-13.954-5.699-8.138.563s0-33.15.076-32.776l9.637-.225c3.564-.083 6.612 5.102 6.638 8.962l.075 11.213c.042 6.346-3.786 11.952-8.288 12.263m-8.1 18.376 10.087-1.313c4.914-.64 7.8 6.339 7.8 10.425v15.226c0 6.317-2.543 10.771-7.65 11.625l-10.313 1.726z" style="fill:#fff;fill-rule:evenodd"></path><path d="M489.632 482.946c-1.038 1.213-2.412 1.975-3.675 2.888.612 2.224 1.15 4.6.937 7.462z" style="fill:#2f3b7b;fill-rule:evenodd;stroke:#1b1918;stroke-width:.56690001;stroke-linecap:butt;stroke-linejoin:miter;stroke-dasharray:none"></path><path d="m72.407 295.126 450.75.075h2.034l.084 2.034c.613 14.844 1.117 29.585 1.113 44.329-.004 14.741-.519 29.428-1.946 44.117-4.745 48.818-14.112 95.52-29.484 139.892-15.383 44.397-36.776 86.451-65.565 125.942-19.868 27.254-40.75 50.469-62.496 70.654-21.753 20.193-44.383 37.37-67.736 52.54l-1.143.742-1.149-.734c-37.679-24.08-71.68-53.151-101.327-86.727-29.358-33.25-54.446-70.91-74.606-112.512-10.738-22.159-19.548-44.712-26.651-67.582-7.1-22.862-12.492-46.026-16.395-69.417-4.001-23.985-6.67-47.917-7.948-71.674-1.262-23.457-1.165-46.728.347-69.694l.13-1.986zm448.716 4.31-446.726-.075c-1.38 22.176-1.435 44.621-.22 67.228 1.268 23.577 3.92 47.349 7.899 71.193 3.874 23.222 9.222 46.205 16.261 68.868 7.036 22.655 15.77 45.008 26.419 66.984 19.994 41.26 44.865 78.599 73.959 111.55 29.087 32.941 62.398 61.504 99.282 85.225 22.74-14.852 44.792-31.65 66.01-51.346 21.58-20.033 42.288-43.048 61.965-70.04 28.531-39.137 49.735-80.82 64.982-124.829 15.257-44.036 24.556-90.413 29.27-138.911 1.414-14.562 1.925-29.115 1.929-43.72.003-13.934-.456-27.973-1.03-42.127" style="display:inline;fill:#1b1918;fill-rule:evenodd"></path><path d="M84.887 372.55c-1.015-19.506-1.286-39.434-1.146-60.604l.015-2.108h2.103l424.088-.264h2.079l.04 2.085c.293 15.76.235 30.781-.276 45.39-.513 14.66-1.478 28.895-2.995 43.03-3.364 31.328-9.122 60.892-17.023 88.928-.044.984-.212 1.95-.86 3.016a509 509 0 0 1-9.365 29.15c-13.264 37.376-30.487 71.978-50.993 104.436-17.078 27.033-36.967 51.246-59.081 73.166-22.1 21.905-46.423 41.521-72.384 59.374l-1.205.829-1.203-.829c-25.354-17.465-49.771-37.016-72.834-60.173-23.074-23.169-44.785-49.938-64.712-81.825-16.89-27.025-31.263-56.335-42.837-87.576-11.4-30.772-20.084-63.425-25.778-97.622l-.009-.05c-2.842-19.606-4.606-38.78-5.624-58.353m436.236-73.114-446.726-.075c-1.38 22.176-1.436 44.621-.22 67.228 1.268 23.577 3.92 47.349 7.899 71.193 3.874 23.222 9.222 46.205 16.261 68.868 7.036 22.655 15.77 45.008 26.419 66.984 19.994 41.26 44.865 78.599 73.959 111.55 29.087 32.941 62.398 61.504 99.282 85.225 22.74-14.852 44.792-31.65 66.01-51.346 21.58-20.033 42.288-43.048 61.965-70.04 28.531-39.137 49.735-80.82 64.982-124.829 15.257-44.036 24.555-90.413 29.27-138.911 1.414-14.562 1.925-29.115 1.929-43.72.003-13.934-.456-27.973-1.03-42.127" style="display:inline;fill:#79787d;fill-rule:evenodd"></path><path d="M423.09 158.96c2.287 11.238 5.856 19.319 10.327 25.245 4.415 5.852 9.738 9.625 15.588 12.29 2.516 1.146 5.541 1.938 8.559 2.217 2.762.256 5.489.078 7.763-.658 7.214-2.337 13.4-5.923 18.89-10.752 5.187-4.561 9.758-10.226 13.988-16.985-5.47-5.658-8.296-11.583-9.14-17.292-.849-5.735.312-11.224 2.811-15.995 2.473-4.722 6.265-8.734 10.71-11.57 5.103-3.256 11.09-4.98 16.97-4.48a35.4 35.4 0 0 1 5.177-4.26c5.487-3.678 11.369-5.163 17.092-4.583 5.715.579 11.227 3.21 15.982 7.768 1.878 1.8 3.64 3.907 5.253 6.312l.847 1.264-.922 1.203c-20.658 26.935-36.125 54.23-48.204 81.721-12.101 27.54-20.81 55.274-27.93 83.04l-.553 2.153-2.121-.65c-30.614-9.381-61.87-16.283-93.72-20.79-32.272-4.568-65.138-6.677-98.55-6.418-31.32.243-61.97 2.799-92.055 7.383-30.098 4.587-59.557 11.192-88.496 19.534l-2.178.628-.48-2.214c-6.758-31.237-16.522-60.466-29.188-87.716-12.799-27.533-28.555-53.046-47.164-76.572l-.978-1.236.903-1.288c2.393-3.413 5.029-6.155 7.8-8.278 5.048-3.867 10.56-5.704 15.9-5.822 5.357-.119 10.522 1.502 14.864 4.547a26.4 26.4 0 0 1 5.114 4.71c7.824-.173 14.258 1.893 19.197 5.343 4.676 3.266 7.989 7.761 9.858 12.767 1.862 4.987 2.29 10.484 1.205 15.774-1.144 5.579-3.962 10.93-8.542 15.22 3.555 5.863 7.489 11.124 12.293 15.585 5.167 4.798 11.367 8.685 19.227 11.421 3.05 1.062 6.027 1.414 8.915 1.21 2.92-.207 5.755-.98 8.486-2.164 6.87-2.977 12.366-7.56 16.542-13.672 4.293-6.284 7.21-14.203 8.81-23.677l4.186.697c-1.704 10.088-4.846 18.573-9.491 25.371-4.628 6.774-10.73 11.857-18.37 15.168-3.17 1.374-6.465 2.272-9.864 2.512-3.433.244-6.974-.176-10.61-1.442-8.46-2.944-15.142-7.138-20.721-12.318-5.537-5.141-9.962-11.24-13.952-18.05l-.912-1.558 1.386-1.15c4.61-3.821 7.398-8.8 8.465-14 .926-4.516.563-9.203-1.023-13.45-1.579-4.227-4.372-8.02-8.313-10.773-4.434-3.097-10.349-4.892-17.664-4.541l-1.109.053-.677-.883a22.2 22.2 0 0 0-4.86-4.682c-3.613-2.533-7.907-3.88-12.356-3.783-4.464.099-9.108 1.663-13.41 4.959-2.098 1.607-4.111 3.621-5.981 6.07a388 388 0 0 1 46.699 76.155c12.502 26.895 22.202 55.681 29.004 86.387 28.483-8.119 57.402-14.556 86.854-19.044 30.214-4.604 61.066-7.172 92.67-7.417 33.638-.26 66.704 1.86 99.147 6.451 31.333 4.434 62.103 11.173 92.265 20.295 7.075-27.27 15.711-54.502 27.591-81.539 12.03-27.376 27.377-54.555 47.78-81.372a33 33 0 0 0-3.807-4.378c-4.054-3.885-8.694-6.123-13.457-6.606-4.756-.482-9.682.778-14.318 3.886-1.783 1.195-3.53 2.668-5.214 4.425l-.74.772-1.062-.14c-5.2-.686-10.607.793-15.215 3.733-3.838 2.45-7.107 5.903-9.231 9.959-2.099 4.007-3.074 8.612-2.363 13.42.775 5.238 3.563 10.752 9.09 16.058l1.22 1.172-.88 1.453c-4.708 7.776-9.813 14.245-15.673 19.398-5.914 5.201-12.594 9.07-20.401 11.598-2.832.918-6.142 1.147-9.441.842-3.49-.322-7.003-1.246-9.937-2.583-6.453-2.94-12.33-7.109-17.217-13.585-4.829-6.4-8.665-15.038-11.09-26.956zm-238.313-1.835c5.322 8.843 12.198 15.71 19.737 20.448 7.92 4.977 16.566 7.607 24.894 7.706 11.67.139 24.14-2.339 34.331-9.174 7.592-5.092 13.944-12.64 17.782-23.383h-.152c-7.025-.041-13.691-2.853-18.807-7.386-5.123-4.54-8.71-10.814-9.567-17.769a26 26 0 0 1-.19-3.367c.04-6.738 2.021-12.71 6.01-17.622 3.518-4.33 8.575-7.796 15.21-10.184a35 35 0 0 1-.155-3.832c.099-6.655 2.152-12.657 5.64-17.218 3.55-4.644 8.572-7.802 14.536-8.67q1.768-.259 3.691-.233 1.986.03 3.746.3c6.376.967 11.586 4.143 15.182 8.837 3.546 4.628 5.488 10.719 5.387 17.59a37 37 0 0 1-.183 3.165c6.348 2.043 11.423 5.253 14.982 9.6 3.8 4.638 5.843 10.518 5.842 17.6h.008q0 .912-.061 1.956c-.536 9.24-4.81 16.14-10.562 20.733-5.257 4.197-11.769 6.443-17.78 6.767 3.35 9.295 8.581 16.3 15.138 21.368 8.007 6.188 18.035 9.534 29.056 10.668 11.208 1.152 21.08-.691 29.703-5.388 8.669-4.722 16.139-12.353 22.495-22.745l3.62 2.209c-6.745 11.03-14.744 19.167-24.089 24.256-9.39 5.115-20.08 7.129-32.161 5.886-11.774-1.21-22.54-4.825-31.215-11.531-7.857-6.074-13.963-14.649-17.509-26.226l-.89-2.908 3.033.176q.562.032 1.308.032v.008c5.521 0 11.715-1.954 16.65-5.894 4.882-3.898 8.51-9.768 8.967-17.644q.045-.762.045-1.722h.008c0-6.045-1.712-11.025-4.895-14.91-3.32-4.055-8.275-6.978-14.59-8.735l-1.818-.506.282-1.852q.35-2.318.38-4.414c.087-5.897-1.544-11.077-4.523-14.965-2.93-3.823-7.198-6.414-12.441-7.21q-1.582-.241-3.165-.265a19 19 0 0 0-3.043.198c-4.81.7-8.876 3.266-11.764 7.043-2.952 3.86-4.69 8.981-4.775 14.694a31 31 0 0 0 .332 4.935l.257 1.768-1.71.549c-6.646 2.13-11.588 5.336-14.88 9.388-3.36 4.138-5.03 9.21-5.064 14.965-.005.92.054 1.868.173 2.835.727 5.902 3.785 11.239 8.156 15.112 4.38 3.88 10.059 6.288 16.016 6.322q1.37.009 2.866-.174l3.224-.397-.932 3.113c-3.995 13.345-11.412 22.538-20.446 28.598-10.981 7.366-24.31 10.036-36.739 9.888-9.105-.108-18.518-2.96-27.103-8.354-8.086-5.081-15.444-12.419-21.116-21.843z" style="fill:#000;fill-rule:evenodd"></path><path d="M175.003 113.293c-4.456 0-8.49 1.807-11.41 4.727a16.09 16.09 0 0 0-4.726 11.41c0 4.456 1.806 8.49 4.726 11.41a16.09 16.09 0 0 0 11.41 4.726c4.456 0 8.49-1.806 11.41-4.726a16.09 16.09 0 0 0 4.727-11.41c0-4.456-1.806-8.49-4.726-11.41a16.09 16.09 0 0 0-11.41-4.727m-14.416 1.72a20.33 20.33 0 0 1 14.416-5.972c5.63 0 10.728 2.283 14.417 5.972a20.33 20.33 0 0 1 5.972 14.417c0 5.63-2.282 10.727-5.972 14.417a20.33 20.33 0 0 1-14.417 5.971 20.33 20.33 0 0 1-14.416-5.971 20.33 20.33 0 0 1-5.972-14.417c0-5.63 2.282-10.727 5.972-14.417" style="fill:#000;fill-rule:evenodd"></path><path d="M174.92 101.637a27.73 27.73 0 0 0-19.671 8.147 27.73 27.73 0 0 0-8.148 19.67 27.73 27.73 0 0 0 8.148 19.671 27.73 27.73 0 0 0 19.67 8.148 27.73 27.73 0 0 0 19.67-8.148 27.73 27.73 0 0 0 8.148-19.67 27.73 27.73 0 0 0-8.147-19.67 27.73 27.73 0 0 0-19.67-8.149m-22.678 5.14c5.803-5.802 13.822-9.393 22.677-9.393s16.873 3.59 22.677 9.394c5.803 5.803 9.393 13.82 9.393 22.677 0 8.855-3.59 16.873-9.393 22.676-5.804 5.804-13.822 9.394-22.677 9.394s-16.874-3.59-22.677-9.394c-5.803-5.803-9.393-13.821-9.393-22.676 0-8.856 3.59-16.874 9.393-22.677" style="fill:#000;fill-rule:evenodd"></path><path d="M174.92 101.637a27.73 27.73 0 0 0-19.671 8.147 27.73 27.73 0 0 0-8.148 19.67 27.73 27.73 0 0 0 8.148 19.671 27.73 27.73 0 0 0 19.67 8.148 27.73 27.73 0 0 0 19.67-8.148 27.73 27.73 0 0 0 8.148-19.67 27.73 27.73 0 0 0-8.147-19.67 27.73 27.73 0 0 0-19.67-8.149m-20.305 27.793c0-5.63 2.282-10.727 5.972-14.417a20.33 20.33 0 0 1 14.416-5.972c5.63 0 10.727 2.283 14.417 5.972a20.33 20.33 0 0 1 5.972 14.417c0 5.63-2.282 10.727-5.972 14.417a20.33 20.33 0 0 1-14.417 5.971 20.33 20.33 0 0 1-14.416-5.971 20.33 20.33 0 0 1-5.972-14.417" style="fill:#79787d;fill-rule:evenodd"></path><path d="M421.334 113.293c-4.456 0-8.49 1.807-11.41 4.727a16.09 16.09 0 0 0-4.726 11.41c0 4.456 1.806 8.49 4.726 11.41a16.09 16.09 0 0 0 11.41 4.726c4.456 0 8.49-1.806 11.41-4.726a16.09 16.09 0 0 0 4.727-11.41c0-4.456-1.807-8.49-4.727-11.41a16.09 16.09 0 0 0-11.41-4.727m-14.417 1.72a20.33 20.33 0 0 1 14.417-5.972c5.63 0 10.727 2.283 14.417 5.972a20.33 20.33 0 0 1 5.972 14.417c0 5.63-2.283 10.727-5.972 14.417a20.33 20.33 0 0 1-14.417 5.971 20.33 20.33 0 0 1-14.417-5.971 20.33 20.33 0 0 1-5.971-14.417c0-5.63 2.282-10.727 5.971-14.417" style="fill:#000;fill-rule:evenodd"></path><path d="M421.25 101.637a27.73 27.73 0 0 0-19.67 8.147 27.73 27.73 0 0 0-8.148 19.67 27.73 27.73 0 0 0 8.147 19.671 27.73 27.73 0 0 0 19.67 8.148 27.73 27.73 0 0 0 19.671-8.148 27.73 27.73 0 0 0 8.148-19.67 27.73 27.73 0 0 0-8.148-19.67 27.73 27.73 0 0 0-19.67-8.149m-22.677 5.14c5.803-5.802 13.821-9.393 22.677-9.393s16.873 3.59 22.677 9.394c5.803 5.803 9.393 13.82 9.393 22.677 0 8.855-3.59 16.873-9.393 22.676-5.804 5.804-13.822 9.394-22.677 9.394s-16.874-3.59-22.677-9.394c-5.803-5.803-9.393-13.821-9.393-22.676 0-8.856 3.59-16.874 9.393-22.677" style="fill:#000;fill-rule:evenodd"></path><path d="M421.25 101.637a27.73 27.73 0 0 0-19.67 8.147 27.73 27.73 0 0 0-8.148 19.67 27.73 27.73 0 0 0 8.147 19.671 27.73 27.73 0 0 0 19.67 8.148 27.73 27.73 0 0 0 19.671-8.148 27.73 27.73 0 0 0 8.148-19.67 27.73 27.73 0 0 0-8.148-19.67 27.73 27.73 0 0 0-19.67-8.149m-20.304 27.793c0-5.63 2.282-10.727 5.971-14.417a20.33 20.33 0 0 1 14.417-5.972c5.63 0 10.727 2.283 14.417 5.972a20.33 20.33 0 0 1 5.972 14.417c0 5.63-2.283 10.727-5.972 14.417a20.33 20.33 0 0 1-14.417 5.971 20.33 20.33 0 0 1-14.417-5.971 20.33 20.33 0 0 1-5.971-14.417" style="fill:#79787d;fill-rule:evenodd"></path><path d="M297.134 104.594c-4.456 0-8.49 1.806-11.41 4.726a16.09 16.09 0 0 0-4.727 11.41c0 4.456 1.806 8.49 4.726 11.41a16.09 16.09 0 0 0 11.41 4.727c4.457 0 8.491-1.807 11.411-4.727a16.09 16.09 0 0 0 4.726-11.41c0-4.456-1.806-8.49-4.726-11.41a16.09 16.09 0 0 0-11.41-4.726m-14.417 1.72a20.33 20.33 0 0 1 14.417-5.972c5.63 0 10.727 2.282 14.416 5.971a20.33 20.33 0 0 1 5.972 14.417c0 5.63-2.282 10.727-5.972 14.417a20.33 20.33 0 0 1-14.416 5.972 20.33 20.33 0 0 1-14.417-5.972 20.33 20.33 0 0 1-5.972-14.417c0-5.63 2.283-10.727 5.972-14.417" style="fill:#000;fill-rule:evenodd"></path><path d="M45.812 142.719c2.355-2.837 4.955-5.17 7.938-6.832 3.022-1.684 6.402-2.658 10.27-2.745h.068c5.164-.099 10.661 1.902 14.897 5.663 4.248 3.772 7.248 9.302 7.404 16.245l.002.082v.008c.116 6.122-1.84 10.919-4.922 14.502-3.66 4.257-8.885 6.745-14.072 7.678l-.747-4.17c4.311-.775 8.624-2.808 11.597-6.265 2.447-2.846 4-6.7 3.908-11.67l-.001-.083c-.127-5.634-2.548-10.11-5.976-13.154-3.44-3.055-7.876-4.68-12.023-4.601h-.053c-3.127.071-5.856.856-8.293 2.214-2.476 1.38-4.685 3.376-6.725 5.835zM546.442 145.126c-2.04-2.459-4.25-4.455-6.725-5.835-2.437-1.358-5.165-2.143-8.293-2.213l-.052-.001c-4.148-.079-8.584 1.546-12.024 4.6-3.428 3.044-5.848 7.52-5.975 13.155l-.002.082c-.093 4.97 1.461 8.825 3.908 11.671 2.973 3.457 7.286 5.49 11.597 6.266l-.747 4.169c-5.187-.933-10.412-3.42-14.072-7.678-3.081-3.583-5.038-8.38-4.922-14.502v-.008l.002-.082c.157-6.943 3.156-12.473 7.404-16.245 4.236-3.76 9.734-5.762 14.897-5.664l.06.001h.009c3.867.087 7.247 1.061 10.27 2.745 2.982 1.663 5.582 3.995 7.937 6.832z" style="fill:#1b1918;fill-rule:evenodd"></path><path d="M91.215 226.083c33.652-10.035 68.827-17.73 103.715-22.885 35.17-5.195 70.095-7.808 102.92-7.631 32.98.177 67.053 2.356 101.714 7.232 34.701 4.883 70.026 12.471 105.476 23.464l-1.827 5.944c-35.112-10.889-70.111-18.406-104.502-23.245-34.431-4.844-68.222-7.007-100.885-7.183-32.444-.175-67.056 2.42-101.994 7.582-34.6 5.112-69.478 12.742-102.839 22.69z" style="fill:#000;fill-rule:evenodd"></path><path d="M154.168 228.46a19.15 19.15 0 0 0-13.58 5.626 19.15 19.15 0 0 0-5.625 13.58c0 5.304 2.15 10.105 5.625 13.58a19.15 19.15 0 0 0 13.58 5.625c5.304 0 10.106-2.15 13.58-5.624a19.15 19.15 0 0 0 5.626-13.58c0-5.305-2.15-10.106-5.625-13.581a19.15 19.15 0 0 0-13.58-5.625m-15.985 3.22a22.54 22.54 0 0 1 15.985-6.62c6.243 0 11.895 2.53 15.986 6.62a22.54 22.54 0 0 1 6.621 15.986c0 6.243-2.53 11.895-6.621 15.986a22.54 22.54 0 0 1-15.986 6.621 22.54 22.54 0 0 1-15.985-6.621 22.54 22.54 0 0 1-6.621-15.986c0-6.242 2.53-11.894 6.621-15.985M227.369 217.06a19.15 19.15 0 0 0-13.58 5.625 19.15 19.15 0 0 0-5.626 13.581c0 5.304 2.15 10.105 5.625 13.58a19.15 19.15 0 0 0 13.58 5.625c5.304 0 10.106-2.15 13.581-5.625a19.15 19.15 0 0 0 5.625-13.58c0-5.304-2.15-10.105-5.625-13.58a19.15 19.15 0 0 0-13.58-5.625m-15.986 3.22a22.54 22.54 0 0 1 15.986-6.62c6.242 0 11.894 2.53 15.985 6.62a22.54 22.54 0 0 1 6.621 15.986c0 6.243-2.53 11.895-6.621 15.985a22.54 22.54 0 0 1-15.985 6.622 22.54 22.54 0 0 1-15.986-6.622 22.54 22.54 0 0 1-6.621-15.985c0-6.242 2.53-11.894 6.621-15.985M297.719 213.31a19.15 19.15 0 0 0-13.58 5.625 19.15 19.15 0 0 0-5.625 13.58c0 5.304 2.15 10.106 5.624 13.581a19.15 19.15 0 0 0 13.58 5.625c5.305 0 10.106-2.15 13.581-5.625a19.15 19.15 0 0 0 5.625-13.58c0-5.304-2.15-10.106-5.625-13.58a19.15 19.15 0 0 0-13.58-5.626m-15.986 3.22a22.54 22.54 0 0 1 15.986-6.621c6.242 0 11.894 2.53 15.985 6.621a22.54 22.54 0 0 1 6.622 15.986c0 6.242-2.531 11.894-6.622 15.985a22.54 22.54 0 0 1-15.985 6.622 22.54 22.54 0 0 1-15.986-6.622 22.54 22.54 0 0 1-6.621-15.985c0-6.243 2.53-11.895 6.621-15.986M368.219 216.91a19.15 19.15 0 0 0-13.58 5.625 19.15 19.15 0 0 0-5.626 13.58c0 5.304 2.15 10.106 5.625 13.581a19.15 19.15 0 0 0 13.58 5.625c5.304 0 10.106-2.15 13.581-5.625a19.15 19.15 0 0 0 5.625-13.58c0-5.304-2.15-10.106-5.625-13.58a19.15 19.15 0 0 0-13.58-5.625m-15.986 3.22a22.54 22.54 0 0 1 15.986-6.621c6.242 0 11.894 2.53 15.985 6.621a22.54 22.54 0 0 1 6.622 15.986c0 6.242-2.531 11.894-6.622 15.985a22.54 22.54 0 0 1-15.985 6.622 22.54 22.54 0 0 1-15.986-6.622 22.54 22.54 0 0 1-6.621-15.985c0-6.243 2.53-11.895 6.621-15.986M440.519 228.01a19.15 19.15 0 0 0-13.58 5.626 19.15 19.15 0 0 0-5.625 13.58c0 5.304 2.15 10.105 5.624 13.58a19.15 19.15 0 0 0 13.581 5.625c5.304 0 10.105-2.15 13.58-5.624a19.15 19.15 0 0 0 5.625-13.581c0-5.304-2.15-10.105-5.624-13.58a19.15 19.15 0 0 0-13.581-5.625m-15.985 3.22a22.54 22.54 0 0 1 15.985-6.62c6.242 0 11.894 2.53 15.985 6.62a22.54 22.54 0 0 1 6.622 15.986c0 6.242-2.53 11.894-6.622 15.985a22.54 22.54 0 0 1-15.985 6.622 22.54 22.54 0 0 1-15.985-6.622 22.54 22.54 0 0 1-6.622-15.985c0-6.242 2.53-11.894 6.622-15.985" style="fill:#000;fill-rule:evenodd"></path><path d="M173.374 247.666c0-5.303-2.15-10.105-5.625-13.58a19.15 19.15 0 0 0-13.58-5.625 19.15 19.15 0 0 0-13.581 5.625 19.15 19.15 0 0 0-5.625 13.58c0 5.304 2.15 10.105 5.625 13.58a19.15 19.15 0 0 0 13.58 5.625c5.304 0 10.106-2.15 13.58-5.624a19.15 19.15 0 0 0 5.626-13.58M208.163 236.266c0 5.304 2.15 10.105 5.625 13.58a19.15 19.15 0 0 0 13.58 5.625c5.304 0 10.106-2.15 13.581-5.625a19.15 19.15 0 0 0 5.625-13.58c0-5.304-2.15-10.105-5.625-13.58a19.15 19.15 0 0 0-13.58-5.625 19.15 19.15 0 0 0-13.58 5.624 19.15 19.15 0 0 0-5.626 13.581M278.514 232.516c0 5.303 2.15 10.105 5.624 13.58a19.15 19.15 0 0 0 13.58 5.625c5.304 0 10.106-2.15 13.581-5.625a19.15 19.15 0 0 0 5.625-13.58c0-5.304-2.15-10.106-5.625-13.58a19.15 19.15 0 0 0-13.58-5.625 19.15 19.15 0 0 0-13.58 5.624 19.15 19.15 0 0 0-5.625 13.58M349.014 236.116c0 5.303 2.15 10.105 5.624 13.58a19.15 19.15 0 0 0 13.58 5.625c5.304 0 10.106-2.15 13.581-5.625a19.15 19.15 0 0 0 5.625-13.58c0-5.304-2.15-10.106-5.625-13.58a19.15 19.15 0 0 0-13.58-5.625 19.15 19.15 0 0 0-13.58 5.624 19.15 19.15 0 0 0-5.626 13.58M421.314 247.216c0 5.304 2.15 10.105 5.624 13.58a19.15 19.15 0 0 0 13.581 5.625c5.304 0 10.105-2.15 13.58-5.624a19.15 19.15 0 0 0 5.625-13.581c0-5.304-2.15-10.105-5.624-13.58a19.15 19.15 0 0 0-13.581-5.625 19.15 19.15 0 0 0-13.58 5.625 19.15 19.15 0 0 0-5.625 13.58" style="fill:#df1d00;fill-rule:evenodd"></path><path d="M92.809 225.61c33.168-9.804 67.783-17.339 102.121-22.412 35.17-5.195 70.095-7.808 102.92-7.631 32.98.178 67.053 2.356 101.714 7.232 34.291 4.826 69.19 12.292 104.218 23.076a444 444 0 0 1 7.112-17.164 410 410 0 0 1 15.732-32.005c-4.678-1.116-9.262-3.518-12.569-7.364-3.08-3.583-5.038-8.38-4.922-14.502v-.008l.002-.082c.157-6.943 3.157-12.473 7.405-16.244 4.235-3.761 9.733-5.763 14.896-5.665l.061.001h.008c3.868.087 7.248 1.061 10.27 2.745 2.527 1.41 4.781 3.3 6.843 5.571a397 397 0 0 1 10.054-13.819 33 33 0 0 0-3.807-4.377c-4.054-3.886-8.694-6.124-13.457-6.607-4.756-.482-9.682.778-14.318 3.886-1.783 1.195-3.53 2.668-5.214 4.425l-.74.772-1.062-.14c-5.2-.686-10.607.793-15.214 3.733-3.84 2.45-7.108 5.903-9.232 9.959-2.098 4.007-3.074 8.612-2.363 13.42.775 5.238 3.563 10.752 9.09 16.058l1.22 1.172-.88 1.453c-4.708 7.777-9.813 14.245-15.673 19.398-5.914 5.201-12.594 9.07-20.401 11.598-2.832.918-6.142 1.147-9.441.842-3.49-.322-7.002-1.246-9.937-2.583-6.453-2.94-12.33-7.109-17.217-13.585-4.602-6.1-8.302-14.231-10.74-25.297a32 32 0 0 1-5.886-.909c-6.552 10.292-14.251 17.937-23.18 22.8-9.39 5.115-20.08 7.129-32.162 5.886-11.773-1.21-22.539-4.825-31.214-11.531-7.857-6.074-13.963-14.649-17.51-26.226l-.89-2.908 3.033.176q.563.032 1.308.032v.008c5.521 0 11.715-1.954 16.65-5.894 4.883-3.898 8.51-9.768 8.968-17.644q.044-.762.044-1.722h.008c0-6.045-1.712-11.025-4.894-14.91-3.32-4.055-8.276-6.978-14.59-8.735l-1.818-.506.281-1.852q.351-2.318.38-4.414c.087-5.897-1.544-11.077-4.523-14.965-2.929-3.823-7.198-6.414-12.44-7.21q-1.582-.241-3.166-.265a19 19 0 0 0-3.043.198c-4.81.7-8.876 3.266-11.763 7.043-2.952 3.86-4.691 8.981-4.775 14.694a31 31 0 0 0 .33 4.935l.259 1.768-1.711.549c-6.646 2.13-11.588 5.336-14.88 9.388-3.36 4.138-5.03 9.21-5.064 14.965-.005.92.054 1.868.173 2.835.727 5.902 3.786 11.239 8.156 15.112 4.38 3.88 10.059 6.288 16.017 6.322q1.37.009 2.866-.174l3.224-.397-.932 3.113c-3.996 13.345-11.412 22.538-20.446 28.598-10.982 7.366-24.31 10.036-36.74 9.888-9.104-.108-18.518-2.96-27.103-8.354-7.675-4.823-14.694-11.68-20.239-20.424-1.994.45-4.058.716-6.173.775-1.758 9.392-4.81 17.342-9.208 23.78-4.628 6.774-10.73 11.857-18.37 15.167-3.17 1.375-6.465 2.272-9.864 2.513-3.433.244-6.974-.177-10.61-1.442-8.46-2.945-15.143-7.138-20.721-12.318-5.537-5.141-9.962-11.24-13.952-18.05l-.912-1.558 1.386-1.15c4.61-3.821 7.398-8.8 8.465-14 .926-4.516.563-9.203-1.023-13.45-1.579-4.227-4.372-8.02-8.313-10.773-4.434-3.097-10.349-4.892-17.664-4.541l-1.109.053-.677-.883a22.2 22.2 0 0 0-4.86-4.682c-3.613-2.533-7.907-3.88-12.356-3.783-4.464.099-9.108 1.663-13.41 4.959-2.098 1.607-4.111 3.621-5.981 6.07q5.355 6.828 10.392 13.87c2.021-2.198 4.227-4.031 6.694-5.406 3.022-1.684 6.402-2.658 10.27-2.745h.068c5.164-.099 10.661 1.902 14.897 5.663 4.248 3.772 7.247 9.302 7.404 16.245l.002.082v.008c.116 6.122-1.84 10.919-4.922 14.502-3.13 3.64-7.403 5.986-11.819 7.173a391 391 0 0 1 13.713 26.763q5.026 10.812 9.446 22.032m183.936-104.88c0-5.63 2.282-10.727 5.972-14.417a20.33 20.33 0 0 1 14.417-5.971c5.63 0 10.727 2.282 14.416 5.971a20.33 20.33 0 0 1 5.972 14.417c0 5.63-2.282 10.727-5.972 14.417a20.33 20.33 0 0 1-14.416 5.972 20.33 20.33 0 0 1-14.417-5.972 20.33 20.33 0 0 1-5.972-14.417" style="fill:#79787d;fill-rule:evenodd"></path><path d="M313.704 248.501a22.54 22.54 0 0 1-15.985 6.622 22.54 22.54 0 0 1-15.986-6.622 22.54 22.54 0 0 1-6.621-15.985c0-6.243 2.53-11.895 6.621-15.986a22.54 22.54 0 0 1 15.986-6.621c6.242 0 11.894 2.53 15.985 6.621a22.54 22.54 0 0 1 6.622 15.986c0 6.242-2.531 11.894-6.622 15.985m-63.728-12.235c0 6.243-2.531 11.895-6.622 15.985a22.54 22.54 0 0 1-15.985 6.622 22.54 22.54 0 0 1-15.986-6.622 22.54 22.54 0 0 1-6.621-15.985c0-6.242 2.53-11.894 6.621-15.985a22.54 22.54 0 0 1 15.986-6.622c6.242 0 11.894 2.53 15.985 6.622a22.54 22.54 0 0 1 6.622 15.985m-54.144-26.905c-33.889 5.007-68.043 12.429-100.778 22.079 7.025 18.671 12.805 38.177 17.313 58.525 28.483-8.119 57.402-14.556 86.854-19.044 30.214-4.604 61.066-7.172 92.67-7.417 33.638-.26 66.704 1.86 99.147 6.451 31.333 4.434 62.103 11.173 92.265 20.295 5.074-19.557 10.95-39.094 18.252-58.555-34.556-10.613-68.995-17.97-102.844-22.733-34.431-4.844-68.222-7.007-100.885-7.183-32.444-.175-67.056 2.42-101.994 7.582m-25.678 22.32a22.54 22.54 0 0 1 6.621 15.985c0 6.243-2.53 11.895-6.621 15.986a22.54 22.54 0 0 1-15.986 6.621 22.54 22.54 0 0 1-15.985-6.621 22.54 22.54 0 0 1-6.621-15.986c0-6.242 2.53-11.894 6.621-15.985a22.54 22.54 0 0 1 15.985-6.622c6.243 0 11.895 2.531 15.986 6.622m198.065 27.042a22.54 22.54 0 0 1-15.986-6.622 22.54 22.54 0 0 1-6.621-15.985c0-6.243 2.53-11.895 6.621-15.986a22.54 22.54 0 0 1 15.986-6.621c6.242 0 11.894 2.53 15.985 6.621a22.54 22.54 0 0 1 6.622 15.986c0 6.242-2.531 11.894-6.622 15.985a22.54 22.54 0 0 1-15.985 6.622m56.314 4.478a22.54 22.54 0 0 1-6.62-15.985c0-6.243 2.53-11.895 6.62-15.985a22.54 22.54 0 0 1 15.986-6.622c6.242 0 11.894 2.53 15.985 6.622a22.54 22.54 0 0 1 6.622 15.985c0 6.242-2.53 11.894-6.622 15.985a22.54 22.54 0 0 1-15.985 6.622 22.54 22.54 0 0 1-15.985-6.622" style="fill:#79787d;fill-rule:evenodd" data-source="https://football-logos.cc"></path><!-- source: https://football-logos.cc --></svg>