<svg xmlns="http://www.w3.org/2000/svg" viewBox="33.28 84.92 479.57 672.04"><!-- Source: https://football-logos.cc --><path d="M156.93 295.59H443.17l-.004 4.252-.3 241.2c-.01 6.864-1.488 14.398-4.246 22.282-2.768 7.91-6.84 16.228-12.015 24.612-14.735 23.873-37.852 48.437-62.172 66.465-22.695 16.824-46.622 28.054-66.142 27.977-27.813-.11-64.072-22.04-93.387-50.407-29.708-28.747-52.544-64.389-52.511-90.928l.3-241.2.005-4.252z" style="fill:#fff;fill-rule:evenodd;fill-opacity:1" data-source="https://football-logos.cc"></path><path d="M319.372 410.125a2 2 0 0 0 .633-.067c1.104-.36 1.716-1.56 1.45-2.669-.048-.197-.148-.364-.243-.532.062-.012.127 0 .195-.022a1.54 1.54 0 0 0-.72-.985c-1.064-.615-2.256.282-2.36 1.387a1.35 1.35 0 0 1 .724.044c.084.073.147.16.239.215.094.053.199.063.305.097a1.58 1.58 0 0 1-1.16.81l-.081.136-.66-.383c-.992.412-1.512 1.541-1.261 2.572.053.22.157.41.271.592l-.518-.299c-.211.403-.436.798-.649 1.2l.533.309-3.852 7.099 1.948.043 3.403-6.277.532.308.648-1.198-.51-.298.736-1.352-1.695-.978.141-.265 1.696.981zM283.866 419.704l-6.29-10.764-2.878-2.78c.339 1.306.688 2.615 1.013 3.925l5.604 9.662c.098-.02.305.002.409 0z" style="fill:#c59452;fill-rule:evenodd"></path><path d="M303.02 402.444c.714.457.819.796.952 1.268.118.408.264.914.843 1.539.722.782.688 2.42.66 3.735-.016.69-.028 1.288.066 1.693l.118.482c.179.668.293 1.139.03 1.706.168-.834-.163-1.796-.535-2.515-.438-.859-.207-3.174-.204-3.184 0 0-.74 2.394-.207 3.431.32.62.792 1.775.398 2.523a2.3 2.3 0 0 1-.358.505c.152-.414.16-.886.108-1.47-.047-.503-.211-.869-.367-1.223-.194-.432-.375-.843-.324-1.504.035-.417.109-.905.187-1.377.16-1.04.316-2.02.093-2.587-.063-.16-.122-.34-.187-.53-.23-.681-.487-1.455-1.1-1.833a3.04 3.04 0 0 0-1.506-.773c.802.095 1.43.232 1.723.418z" style="fill:#8d7e41;fill-rule:evenodd"></path><path d="M302.504 403.198c.137.12.281.244.453.35.46.286.676.935.89 1.564.066.198.125.38.197.556.171.428.012 1.422-.126 2.298-.074.483-.156.984-.186 1.422-.063.8.156 1.293.367 1.77.145.327.282.637.32 1.05.097 1.023-.004 1.539-.874 2.102-.194.126-.354.175-.464.141-.153-.044-.261-.253-.364-.455a1.2 1.2 0 0 0-.293-.426l-.004.006a21 21 0 0 1-.164-1.465l.067-.013c.436-.15.714-.76.792-1.262.055-.349-.038-.798-.13-1.27-.104-.492-.211-1.048-.164-1.516.094-.891-.066-4.048-.855-4.905-.54-.583.092-.335.537.053z" style="fill:#8d7e41;fill-rule:evenodd"></path><path d="m299.58 409.407-.449-.531.149.636a.46.46 0 0 1-.234.208c-.067.006-.137.006-.194.028-.406.177-.987.101-1.042.093-.055-.022-.133-.278-.152-.281-.02-.006-.429.11-.754.129a.75.75 0 0 1-.223-.266c-.07-.119.082-.28.363-.52.075-.065.138-.12.195-.177.23-.25.257-.52.327-1.253l.038-.34q.02-.175.02-.351c0-.496-.121-.984-.355-1.421s-.051.868-.137 1.716l-.034.34c-.067.654-.086.83-.194.949q-.076.068-.153.133c-.272.233-.78.663-.474 1.196.029.051.061.082.092.124-.115.047-.23.091-.336.18-.472.41-1.062.728-1.635 1.038-.41.221-.869.223-.962.141 0-.006 0-.01.008-.03.196-.531.43-1.8.196-2.43-.129-.35-.11-.914-.093-1.456.006-.195.012-.393.012-.585q-.001-.151-.008-.37c-.021-.852.022-3.122.658-3.526.181-.059.985-1.062 2.617-1.066h1.87c1.462-.012 2.364.64 2.907 1.226.606.653.851 3.806.754 4.774-.059.552.06 1.152.168 1.68.085.427.163.83.125 1.079-.059.398-.276.79-.468.858-.038.012-.137.048-.312-.142-.454-.49-1.577-1.223-2.377-1.43.023-.031.044-.056.063-.092a.72.72 0 0 0 .032-.535z" style="fill:#e7ab5c;fill-rule:evenodd"></path><path d="M293.07 406.597q.008.216.009.356c0 .183-.008.379-.014.565-.017.598-.038 1.215.128 1.665.164.438-.002 1.513-.193 2.037l-.39.705.004-.743c0-.627 0-1.276.048-1.632.1-.765.1-3.187.1-3.983s.41-1.92.61-1.994c.04-.01.072-.011.109-.017-.461.798-.433 2.205-.41 3.04zm-3.566 6.676c-.047.04-.082.055-.087.053-.016-.008-.03-.042-.044-.057-.054-.076-.088-.166-.132-.25.008-.38.173-.74.454-.996.767-.69.761-1.706.746-3.922l-.004-1.112c0-2.31.63-2.744 1.36-3.25.17-.118.346-.242.521-.39.174-.147.747-.271 1.53-.366q-.464.107-.905.278c-.813.331-1.505.7-1.725 1.896-.204 1.1-.109 1.868-.101 1.9l.095 1.987c-.013.131-.297 2.984-.392 3.703 0 .012-.008.02-.01.03-.171.142-.313.315-.417.51z" style="fill:#8d7e41;fill-rule:evenodd"></path><path d="M291.376 413.933c-.232.18-1.41-.173-1.453-.382.27-.26.491-.516.68-.772.125-.257.21-.533.25-.816.098-.853.194-3.02.197-3.114l-.18-.013.18-.011-.097-2.028a6.27 6.27 0 0 1 .093-1.75c.176-.945.68-1.213 1.43-1.516.715-.29 1.509-.396 1.59-.41 0 0-.9.578-1.237.671-.602.16-.97 1.81-.97 2.489 0 2.112-.032 3.427-.094 3.911-.052.392-.052 1.03-.052 1.706 0 .642 0 1.304-.048 1.714-.043.367-.696.963-.717 1.032zm.588 1.556c-.339-.238-.255-.87-.175-1.238.356-.302.672-.704.756-1.216l.644-1.158c.335.225.965.137 1.414-.105.595-.322 1.206-.653 1.718-1.097.147-.123.324-.41.499-.432.066.021.573.025.577.025l.278.1s.803.127 1.346-.112c.343-.146 1.912.93 2.502 1.573q.11.12.25.202c.037.488.129 1.571.281 2.241.198.844-.432 1.171-.819 1.291-.35.107-.272-.714-.378-1.034l-.5-1.536.005 1.59c.023.074-.187 1.951-.808 2.155-.09.029-.137.006-.179-.02-.226-.168-.904-1.878-.937-2.293l.06 1.085c.011.126.108 1.257.613 1.628.1.074-.176.133-.762-.08-.983-.354-.94-.413-1.339-.236.004-.017.282-.8.282-1.121l.109-.853c0 .099-1.14 1.569-1.259 1.946a.38.38 0 0 1-.2.237c-.272.136-.74.067-1.066-.074-.198-.086-.204-.61-.208-1.028-.004-.238-.008-.486-.04-.697-.09-.579.21-2.456.21-2.466l-.566.927-.689 2.025c-.067.194-.168.249-.238.272-.274.1-.792-.088-1.38-.501z" style="fill:#8d7e41;fill-rule:evenodd"></path><path d="M298.164 411.862c.937 0 .375-.248 1.187-.16.476.05-.145-.292-.438-.292-.395 0-.562.033-.741.052-.246.032-.543-.114-.987-.04-1.09.173-.3.28-.3.28.836-.054.293.16 1.28.16" style="fill:#000;fill-rule:evenodd"></path><path d="M297.947 402.688c-.64-.056-1.725.426-2.07.906-.344.478.657.457 1.137.693.472.236.592.48.687 1.066.098.589.446 2.455.098 3.201-.223.491-.54 1.013.249 1.013.453 0 .836.109.74-.586-.037-.265-.346-1.973.442-.853.258.362.543 1.173.99 1.548.442.371 1.674.371 1.674-.269s-.245-2.026-.74-1.972c-.492.053-1.923.16-2.072-.427-.149-.586-.788-1.921-.539-2.241.246-.32 2.264-1.12 1.53-1.868-.378-.375-2.126-.212-2.126-.212" style="fill:#eec48b;fill-rule:evenodd"></path><path d="M296.372 406.582c-.3.097-.79.906-1.332.8-.543-.11-1.478.532-1.232 1.226.245.693.59.96.493 1.23-.1.266.295.96.788.48s.937-1.709 1.331-1.922c.398-.215.446-1.974-.048-1.814" style="fill:#eec48b;fill-rule:evenodd"></path><path d="M296.026 413.035c-.543.108-.987.535-.838 1.281.149.747.295 1.975.743 1.386.441-.588.887-1.653.836-2.079-.05-.426-.741-.588-.741-.588m3.402.268c-.527-.215-.84.587-.542 1.28.297.695.99.908.99.266-.002-.64-.053-1.386-.447-1.546m-7.593-5.389c-.221 0-.05 2.562-.248 3.148-.196.586-.984 1.815-.739 2.134.246.32.937-.428 1.036-1.066.1-.642.246-4.216-.05-4.216m11.491-2.667c-.297.213.048 1.28-.051 1.972-.097.695-.048 2.457.1 2.828.145.375-.393 1.548-.346 1.975.048.426 1.331 1.386 1.135.375-.198-1.015-.687-2.242-.495-4.27.196-2.027-.343-2.88-.343-2.88" style="fill:#a59762;fill-rule:evenodd"></path><path d="M300.64 404.139c-.886-.12-1.522.213-1.707.415-.643.72.257.672.257.672.008-.008.722-.67 1.39-.58.749.102 1.41.406 1.417.41l-.3-.45c-.03-.012-.242-.357-1.057-.468zm-1.343 1.626.208.459c.004-.002.211-.11.584-.159-.038.136-.051.278.008.397.038.081.134.213.364.213.339 0 .565-.25.695-.448.211.116.674-.127.674-.127-.02-.023-.566-.575-1.346-.575-.735 0-1.171.23-1.187.24zM294.065 406.1l.333.108s.131.135.346.02c.13.197.356.447.695.447.229 0 .326-.132.364-.214a.55.55 0 0 0 .006-.396c.371.05.794-.3.794-.3-.02-.01-.455-.24-1.19-.24-.777 0-1.324.552-1.348.575m.087-1.12-.114.373c.008-.006.828-.586 1.616-.493.785.095 1.141.459 1.145.463 0 0 .36-.236.164-.61-.198-.373-.297-.247-1.255-.36-.962-.118-1.516.598-1.556.627m4.087 7.228c-.395 0-.987 0-.836.32.148.32.736.48 1.081.32.35-.16.644-.533.35-.586-.299-.054-.596-.054-.596-.054z" style="fill:#000;fill-rule:evenodd"></path><path d="m270.69 411.622 1.009-.983.554-.54.588.504 8.745 7.497h2.297c.228-.157.487-.323.746-.489.2-.128.4-.257.573-.372l.163-2.776c.114-1.928.564-3.686 1.028-5.498h.003l.089-.348h-.003a17.2 17.2 0 0 1 1.53-3.902 23 23 0 0 1 2.001-3.078 35 35 0 0 1-1.972-2.857 44 44 0 0 1-1.868-3.384 3.5 3.5 0 0 1-.335-1.308v-.003c-.022-.465.075-.93.367-1.275.318-.376.67-.69 1.08-.882v-.003a1.94 1.94 0 0 1 1.598-.045c1.168.463 1.605 1.199 2.178 2.165l.069.116-.002.002a4 4 0 0 1 .295.677c.091.245-.201.459-.002.494.002 0 .158-.256.3-.482.209-.333.404-.643.734-.851.24-.15.489-.235.726-.315.025-.009.037.057.044.13l.038.114.003-.015.02-.116.063-.123c.117-.228.155-.703.19-1.15.093-1.152.177-2.203 1.435-2.233l.156-.004c1.296-.032 2.308-.057 2.398 1.247.032.46.008.937-.015 1.41-.023.47-.047.94-.004 1.338.005.047.051.112.117.174.052.048.096.081.117.081.167 0 .308-.03.4-.096a.38.38 0 0 0 .136-.225v-.003c.12-.48.111-.965.102-1.475-.004-.257-.009-.52 0-.795.01-.393.103-.789.394-1.128.285-.333.716-.56 1.373-.587.58-.024 1.106-.027 1.586.242.56.315.895.868.871 1.888a21 21 0 0 0 .001.9c.005.285.01.57 0 .979.01.157.172-.126.314-.074v-.003c.145.055.283.108.411.174.38.193.61.496.81.787.043-.074.091-.163.141-.254v-.003c.107-.194.216-.394.374-.606l.056-.075c.466-.626.91-1.223 1.417-1.755.362-.38.85-.483 1.34-.42v.001c.452.06.929.28 1.24.527l-.001.001.138.11c.853.664 1.894 1.476.847 2.9l-.001-.001c-.333.46-.813 1.15-1.31 1.865-.845 1.213-1.742 2.501-2.61 3.614.106.207.214.414.318.607l.003.003c.14.257.273.487.385.653l.267.39h-.001l.415.603.025.037.028.053.112.212c.783 1.496 1.45 2.768 1.945 4.296.47 1.449.643 2.752.833 4.178.024.184.054.405.106.777.052.375.119.773.187 1.184.13.79.27 1.627.331 2.377l1.362 1.611h2.551c1.192-.93 2.275-1.805 3.361-2.681 1.942-1.567 3.895-3.143 5.992-4.683l.535-.394.511.43.17.143-.187-21.05-.002-.174.061-.152c.489-1.206 1.03-2.257 1.787-3.202.763-.953 1.731-1.775 3.061-2.505 1.378-.756 3-1.239 4.776-1.306 1.586-.06 3.29.213 5.042.92 2.201.886 4.229 2.19 6.061 3.745 2.066 1.752 3.889 3.828 5.436 5.985 2.712 3.78 4.834 7.601 6.259 12.518 1.366 4.711 2.084 10.414 2.062 18.036h4.293l-.055-5.865-.004-.4.31-.258 4.66-3.868v-17.028l.268-.254 4.356-4.12v-4.95l-10.55-10.611-3.117-.012-4.921 7.79-.252.398-.469-.003-5.594-.031-.244-.001-.2-.125-38.374-23.822a16.3 16.3 0 0 1-4.905 4.485c-2.076 1.22-4.393 1.92-6.717 1.9a14.4 14.4 0 0 1-7.111-1.93c-1.894-1.09-3.616-2.638-5.058-4.639l-38.249 24.128-.21.133-.252-.003-5.281-.063-.451-.005-.247-.373-5.095-7.719-3.216-.025-10.257 10.496.028 5.252 3.89 4.068.237.247v.337l-.03 15.622 5.466 4.903.276.247.007.37.11 5.895 3.788.044c.016-4.42.374-8.833 1.084-12.983.726-4.241 1.822-8.224 3.296-11.68 1.154-2.704 3.231-5.595 5.593-8.187 2.668-2.928 5.721-5.497 8.223-6.99.97-.578 1.978-.985 3.02-1.233a11.7 11.7 0 0 1 3.23-.292c2.197.093 4.159.81 5.795 1.942 1.765 1.22 3.151 2.922 4.048 4.843l.08.172v.186zm1.637.774-1.899 1.85-1.445 1.408.007-2.016.079-23.822c-.774-1.586-1.935-2.987-3.396-3.997a9.24 9.24 0 0 0-4.9-1.643c-.952-.041-1.877.039-2.77.252a9 9 0 0 0-2.542 1.034c-2.365 1.411-5.274 3.865-7.837 6.678-2.248 2.466-4.214 5.193-5.287 7.709-1.42 3.328-2.479 7.182-3.184 11.3-.742 4.338-1.093 8.955-1.063 13.55l.006.861-.859-.01-5.47-.062-.824-.01-.015-.824-.118-6.347-5.475-4.91-.283-.253.001-.378.03-15.662-3.888-4.065-.234-.245-.002-.337-.031-5.937-.002-.348.24-.246 10.75-11 .253-.26.359.003 4.03.031.457.004.248.375 5.097 7.72 4.579.055 38.728-24.43.705-.445.458.697c1.386 2.113 3.08 3.71 4.953 4.788a12.7 12.7 0 0 0 6.28 1.705c2.007.016 4.025-.598 5.847-1.669a14.6 14.6 0 0 0 4.81-4.633l.452-.699.708.44 38.861 24.125 4.88.027 4.92-7.79.251-.397.47.002 3.939.016h.35l.247.249 11.047 11.109.25.25v6.364l-.27.255-4.356 4.12v17.097l-.309.257-4.66 3.868.06 6.318.008.853h-7.711l.009-.853c.078-7.878-.62-13.675-1.99-18.406-1.363-4.7-3.4-8.366-6.007-12-1.47-2.047-3.2-4.018-5.157-5.678-1.704-1.446-3.577-2.654-5.596-3.467-1.522-.614-2.992-.85-4.35-.8a9.05 9.05 0 0 0-4.02 1.1c-1.122.617-1.93 1.299-2.556 2.08-.604.753-1.057 1.622-1.473 2.626l.202 22.715.017 1.84-1.408-1.185-1.065-.897c-1.875 1.399-3.642 2.824-5.399 4.242a262 262 0 0 1-3.61 2.88l-.231.18h-3.919l-.255-.302-1.797-2.125-.183-.217-.016-.288c-.04-.722-.19-1.632-.331-2.484a50 50 0 0 1-.194-1.224l-.106-.791c-.179-1.342-.342-2.57-.767-3.88-.453-1.397-1.087-2.607-1.832-4.029l-.084-.16-.392-.57-.003-.002-.27-.394-.002-.003a10 10 0 0 1-.472-.799h.001c-.194-.357-.4-.765-.586-1.147l-.238-.486.338-.418c.908-1.126 1.923-2.584 2.873-3.947.424-.61.836-1.202 1.334-1.891l.003-.007c.072-.099-.254-.353-.52-.562l-.145-.113-.006-.003a.9.9 0 0 0-.383-.173c-.411.445-.795.961-1.196 1.5l-.056.076a4 4 0 0 0-.247.413l-.001-.001c-.366.668-.712 1.297-1.743 1.32-.647.015-.92-.386-1.225-.836-.095-.14-.2-.295-.24-.315-.055-.028-.147-.063-.245-.1v-.004c-.639-.245-1.395-.536-1.405-1.506v-.027c.01-.39.005-.658.001-.928-.005-.277-.01-.558 0-.96.005-.268.001-.367-.009-.372-.09-.05-.37-.042-.69-.03-.116.006-.145-.01-.15-.003-.01.011.012.022.01.07-.006.249-.002.49.001.723.011.63.022 1.232-.149 1.914a2.04 2.04 0 0 1-.8 1.199c-.395.28-.875.414-1.383.414-.472 0-.933-.22-1.28-.546-.342-.323-.592-.773-.642-1.23-.056-.52-.03-1.059-.003-1.598.021-.417.042-.837.016-1.217-.022-.317-.28.325-.665.334l-.156.004h-.003c-.277.006.251.318.223.672-.045.56-.092 1.152-.319 1.667-.16.618-.661.788-1.195.968-.142.048-.29.098-.36.142-.004.002-.1.156-.203.32-.428.682-.91 1.45-2.028 1.252-.755-.133-1.044-.91-1.293-1.577a4 4 0 0 0-.163-.406h-.003l-.07-.116c-.402-.68-.709-1.197-1.34-1.447a.31.31 0 0 0-.255.005l-.001-.003c-.156.074-.327.236-.502.443l-.003.003c-.02.024.03.023.035.1.011.228.08.471.156.623a43 43 0 0 0 1.795 3.258 34 34 0 0 0 2.269 3.223l.417.528-.417.525c-.89 1.122-1.64 2.221-2.244 3.346a15.5 15.5 0 0 0-1.378 3.523h-.003l-.09.348h.004c-.445 1.741-.878 3.43-.981 5.18l-.188 3.188-.024.395-.318.236c-.277.204-.631.431-.984.658-.344.22-.689.442-.891.591l-.23.17h-3.461l-.24-.206zm20.898-18.581c.011.121.01.263.038.114zm10.812 1.46c-.104.02-.193.035-.045.032q.018 0 .045-.033" style="fill:#c59857;fill-rule:evenodd"></path><path d="m324.342 416.148 3.922 3.422.167.147.001.225.03 8.334h15.683v-8.855l.173-.15 3.75-3.25.319-.276.322.27 4 3.36.177.148v.232l-.015 8.413 15.462.014v-8.475000000000001l.164-.148 3.813-3.438.322-.29.331.283 4.187 3.578.173.148v.228l-.063 35.484v.256l-.207.147-5.17 3.667-.06 6.558-.005.49h-.49l-9.687.016-.496.001v-7.245l-8.569-5.673-8.627 5.673v7.158h-.496l-9.625.008h-.498l.005-.498.06-6.673-7.89-5.351-.218-.148.001-.261.015-10.938c.003-2.174-.436-5.011-1.498-7.938-.862-2.379-2.138-4.816-3.923-6.998l-.112-.137v-7.907l.178-.15 3.812-3.187.167.2zm3.103 4.02-3.24-2.827-3.443 2.879v7.094c1.8 2.237 3.093 4.722 3.974 7.15 1.103 3.04 1.558 5.999 1.555 8.275l-.014 10.676 7.892 5.353.219.148-.002.265-.058 6.439 8.63-.007v-6.701l.225-.148 9.125-6 .273-.18.271.18 9.063 6 .223.147v6.786l8.702-.014.058-6.323.002-.254.205-.145 5.168-3.666.061-34.999-3.684-3.148-3.325 2.999v9.024999999999999l-.496-.001-16.453-.015h-.495v-.494l.016-8.676-3.501-2.94-3.259 2.824v9.394h-17.66l-.002-.493zM272.118 417.341l-3.24 2.827-.03 8.603-.003.494h-17.802v-9.395l-3.258-2.824-3.502 2.94.016 8.676v.493h-.495l-16.594.016h-.496v-9.024l-3.326-2.999-3.684 3.148.062 35.005 5.03 3.664.201.146.002.249.058 6.323 8.702.014v-6.786l.223-.147 9.063-6 .27-.18.272.178 9.313 6.031.225.146v6.679h8.444l-.058-6.437-.002-.265.22-.148 7.891-5.353-.014-10.676c-.003-2.347.437-5.588 1.685-8.768.927-2.365 2.3-4.702 4.27-6.628v-7.123zm-4.059 2.23 3.922-3.423.414.474.167-.2 3.813 3.187.178.15v8.003l-.155.148c-1.935 1.843-3.28 4.116-4.184 6.421-1.2 3.057-1.622 6.162-1.62 8.408l.015 10.937.001.262-.217.147-7.89 5.351.06 6.674.005.5h-10.431000000000001v-7.132999999999999l-8.815-5.71-8.57 5.675v7.245h-.496l-9.687-.016-.49-.001-.005-.49-.06-6.564-5.032-3.665-.203-.148v-.251l-.063-35.484v-.228l.173-.148 4.187-3.579.331-.282.322.29 3.813 3.438.164.148v8.475000000000001l15.604-.014-.015-8.413v-.232l.177-.148 4-3.36.322-.27.32.276 3.75 3.25.172.15v8.855h15.825l.03-8.334v-.225z" style="fill:#c39250;fill-rule:evenodd"></path><path d="M241.525 416.288c-.112-5.154 1.538-10.717 4.747-15.84 3.018-4.818 7.417-9.252 13.028-12.594a3.34 3.34 0 0 1 1.724-.481 3.5 3.5 0 0 1 1.78.495c.528.312.975.752 1.28 1.265h-.002a3.1 3.1 0 0 1 .447 1.58l-.03 33.689-.001.567-.567-.002-7.875-.031-.565-.002.003-.565.03-6.45-7.248-6.002-5.827 4.796-.898.74zm5.704-15.243c-2.845 4.542-4.418 9.43-4.568 14.03l5.258-4.328.36-.297.36.297 7.812 6.468.205.17v.269l-.03 6.154 6.744.027.03-33.121a1.97 1.97 0 0 0-.288-1.005h-.002a2.5 2.5 0 0 0-.879-.867h-.002a2.4 2.4 0 0 0-1.204-.34c-.378 0-.77.098-1.145.321h-.002c-5.45 3.246-9.72 7.549-12.648 12.222zM353.23 414.75c-.23-4.57-1.817-9.374-4.647-13.837-2.924-4.61-7.17-8.85-12.61-12.09h-.003a2.2 2.2 0 0 0-1.144-.321c-.426 0-.842.126-1.205.34a2.5 2.5 0 0 0-.88.867h-.002a1.97 1.97 0 0 0-.289 1.005l.03 33.123h7.348v-6.367l.221-.172 8.178-6.343.37-.287.35.309zm-3.69-14.444c3.21 5.06 4.877 10.563 4.847 15.723l-.007 1.244-.931-.821-4.9-4.316-7.587 5.885v6.946h-9.61v-.565l-.031-33.688c0-.563.164-1.104.447-1.58l-.002-.001a3.65 3.65 0 0 1 1.28-1.265 3.5 3.5 0 0 1 1.78-.496 3.34 3.34 0 0 1 1.724.481v.001c5.605 3.339 9.979 7.705 12.99 12.452" style="fill:#c39250;fill-rule:evenodd"></path><path d="m287.789 429.829 6.31 8.49q.44-.177.926-.3c-1.31 1.376-1.867 2.75-1.344 4.125l8.282-.03c1.372-1.365-.116-2.73-1.688-4.095q.908.117 1.67.396l6.417-8.206c-1.406-2.028-2.994-3.809-4.736-5.277l.03-3.36c.007-.711-1.257-1.578-1.969-1.578h-2.375l.016-1.562c.005-.513-.673-.985-1.422-1-.792-.015-1.432.469-1.422 1.063l-.015 1.53h-2.315c-.615 0-1.662.808-1.656 1.423l.031 3.062c-1.818 1.563-3.378 3.345-4.74 5.319" style="fill:#e21e24;fill-rule:evenodd"></path><path d="m292.846 439.004-5.883-7.918a40.6 40.6 0 0 0-2.59 4.904l7.012 4.528a5.9 5.9 0 0 1 1.461-1.514M309.182 431.452l-5.955 7.615q.698.476 1.221 1.146l7.356-3.731a37 37 0 0 0-2.622-5.03M290.15 443.645q.209-1.027.566-1.876l-6.912-4.462a66 66 0 0 0-1.587 4.25l.021 5.517 8.016 4.81zM305.713 442.957l.053 9.16 7.731-4.204.033-6.605a43 43 0 0 0-1.19-3.513l-7.156 3.63q.324.7.529 1.532" style="fill:#e21e24;fill-rule:evenodd"></path><path d="M305.814 453.707c-1.53-3.228-3.423-6.629-5.696-6.563-.814.024-1.583.699-2.312 1.063-.781-.406-1.312-1.187-2.218-1.187-1.66.026-3.592 2.49-4.805 5.18-.226.443-.371.831-.642 1.262l-7.896-4.736.066 17.519h7.282v-7.438l8.5-5.125 8 5.47v7.155h7.312l.084-16.782-7.503 4.08z" style="fill:#e21e24;fill-rule:evenodd"></path><path d="m209.98 462.056 5.282-3.656 5.155 3.625-.003 8.803 17.75.003.002-8.775 5.126-3.688 5.266 3.688-.003 8.781 17.102-.006.01-8.775 5.406-3.703 4.924 3.703.004 8.78 16.607-.01-.002-8.77 5.405-3.688 4.861 3.688-.004 8.77 16.36-.02-.012-8.735 5.607-4.171 5.128 4.156-.036 8.78 17.242-.015.01-8.765 5.258-3.649 4.901 3.649-.005 8.75 17.656.016.003-8.766 5.133-3.68 4.9 3.68v31H209.979z" style="fill:#c49351;fill-rule:evenodd"></path><path d="M297.666 347.722c-1.78 0-3.392.721-4.559 1.888a6.43 6.43 0 0 0-1.888 4.56c0 1.78.722 3.392 1.888 4.559a6.43 6.43 0 0 0 4.56 1.888 6.43 6.43 0 0 0 4.559-1.888 6.43 6.43 0 0 0 1.888-4.56c0-1.78-.722-3.393-1.888-4.56a6.43 6.43 0 0 0-4.56-1.887m-5.761.685a8.12 8.12 0 0 1 5.761-2.386c2.25 0 4.288.912 5.762 2.386a8.13 8.13 0 0 1 2.387 5.762c0 2.25-.912 4.288-2.387 5.762a8.12 8.12 0 0 1-5.762 2.387 8.12 8.12 0 0 1-5.761-2.387 8.12 8.12 0 0 1-2.387-5.762c0-2.25.912-4.287 2.387-5.762" style="fill:#c59857;fill-rule:evenodd"></path><path d="M297.666 347.722c-1.78 0-3.392.721-4.559 1.888a6.43 6.43 0 0 0-1.888 4.56c0 1.78.722 3.392 1.888 4.559a6.43 6.43 0 0 0 4.56 1.888 6.43 6.43 0 0 0 4.559-1.888 6.43 6.43 0 0 0 1.888-4.56c0-1.78-.722-3.393-1.888-4.56a6.43 6.43 0 0 0-4.56-1.887" style="fill:#e21e24;fill-rule:evenodd"></path><path d="M233.672 347.515a3.454 3.454 0 0 0-3.46 3.459 3.454 3.454 0 0 0 3.46 3.46 3.454 3.454 0 0 0 3.46-3.46 3.454 3.454 0 0 0-3.46-3.46m-4.145-.691a5.85 5.85 0 0 1 4.145-1.719c1.617 0 3.083.657 4.145 1.719l.005.005a5.85 5.85 0 0 1 1.719 4.145 5.85 5.85 0 0 1-1.719 4.145l-.005.005a5.85 5.85 0 0 1-4.145 1.72 5.85 5.85 0 0 1-4.145-1.72l-.005-.005a5.85 5.85 0 0 1-1.719-4.145c0-1.617.657-3.083 1.719-4.145z" style="fill:#c59857;fill-rule:evenodd"></path><path d="M233.54 341.577c-.516 0-.98.207-1.317.542l.002.002c-.336.336-.544.8-.544 1.313v.001h-.005c0 .504.225.968.573 1.309.345.338.808.548 1.289.548v.005c.437 0 .832-.193 1.145-.505l.002.002c.375-.377.635-.921.725-1.534a1 1 0 0 0 .012-.172c0-.346-.166-.668-.425-.923a2.12 2.12 0 0 0-1.459-.588zm-3.013-1.16a4.25 4.25 0 0 1 3.655-1.2c.947.14 1.84.587 2.5 1.236.702.69 1.15 1.605 1.15 2.636q0 .248-.04.52c-.166 1.121-.668 2.144-1.405 2.882v.005c-.743.743-1.723 1.2-2.848 1.201v.005c-1.122 0-2.19-.476-2.974-1.245a4.23 4.23 0 0 1-1.288-3.021h-.005v-.001c0-1.178.478-2.245 1.25-3.017zM362.218 347.39a3.455 3.455 0 0 0-3.46 3.459 3.454 3.454 0 0 0 3.46 3.46 3.454 3.454 0 0 0 3.46-3.46 3.455 3.455 0 0 0-3.46-3.46m-4.145-.691a5.85 5.85 0 0 1 4.145-1.719c1.617 0 3.083.657 4.145 1.719l.005.005a5.85 5.85 0 0 1 1.719 4.145 5.85 5.85 0 0 1-1.72 4.145l-.004.005a5.85 5.85 0 0 1-4.145 1.72 5.85 5.85 0 0 1-4.145-1.72l-.005-.005a5.85 5.85 0 0 1-1.72-4.145c0-1.617.658-3.083 1.72-4.145z" style="fill:#c59857;fill-rule:evenodd"></path><path d="M362.085 341.452c-.513 0-1.005.236-1.373.604-.369.369-.605.86-.605 1.373 0 .474.207.89.533 1.19v.005c.367.34.885.544 1.445.544.513 0 .978-.208 1.314-.544l.002.002c.334-.336.541-.801.541-1.316 0-.513-.208-.978-.544-1.314a1.85 1.85 0 0 0-1.313-.544zm-3.077-1.1c.8-.799 1.9-1.31 3.077-1.31s2.246.478 3.017 1.25a4.26 4.26 0 0 1 1.25 3.018c0 1.174-.478 2.24-1.25 3.012v.005a4.26 4.26 0 0 1-3.017 1.25 4.55 4.55 0 0 1-3.071-1.19l-.002.002c-.804-.742-1.314-1.774-1.314-2.959 0-1.178.51-2.278 1.31-3.077zM294.585 333.123v-5.92h-5.062v-6.097h5.062v-3.188h6.597v3.188h4.938000000000001v6.096h-4.938000000000001v5.92h-2.41v-8.329h4.938000000000001v-1.278h-4.937v-3.188h-1.778v3.188h-5.063000000000001v1.278h5.063000000000001v8.33z" style="fill:#c59857;fill-rule:evenodd"></path><path d="M385.643 569.873h7.143v25.36H202.951v-25.356h1.205l6.123.006.092-59.403-10.17-14.15-.227-.315v-.387l.056-36.394.001-.6.48-.36 9.108-6.856-.082-34.484-.001-.536.396-.358 5.981-5.401.049-16.233-2.562-2.374-.38-.353v-.527l.004-7.538.001-1.194 1.194-.005 3.818-.017 7.891-7.874.119-15.715h-.005v-.003l.005-.01c.016-1.82 1.326-3.003 3.002-3.707 1.416-.595 3.144-.845 4.402-.836v-.005h.011l.01.005c1.493.013 3.518.486 5.004 1.369 1.363.81 2.34 1.97 2.34 3.487h-.004l-.001 8.469 3.202 7.505 3.781.087 11.634-7.2c-.818-2.37-.778-4.581-.159-6.498.816-2.53 2.64-4.523 4.827-5.69 2.303-1.228 4.994-1.7 7.676-1.154 2.143.437 4.269 1.52 6.171 3.38l4.83-2.635c.188-1.244.526-2.412 1.073-3.509.571-1.142 1.366-2.197 2.451-3.168v-6.772h1.2l3.521.001a6.413 6.413 0 0 1-.934-3.333c0-1.947.877-3.701 2.295-4.965 1.38-1.229 3.277-1.99 5.363-1.99s3.983.761 5.363 1.99c1.417 1.264 2.295 3.018 2.295 4.965 0 1.051-.285 2.091-.77 3.026a7 7 0 0 1-.166.302h4.796v6.814c1.106 1.089 1.956 2.186 2.58 3.29a10.6 10.6 0 0 1 1.205 3.22l4.868 2.97c1.727-1.85 3.797-3.061 5.939-3.588 2.516-.62 5.125-.297 7.398 1.034 2.764 1.619 4.382 3.558 5.058 5.829.591 1.986.44 4.166-.311 6.559l11.625 6.907 4.061-.03 3.072-6.901.021-8.497v-.014l.001-.056v-.018c.045-1.603 1.214-2.953 2.738-3.876v-.005c1.379-.834 3.107-1.343 4.477-1.34h.014l.111.002h.019c1.567.044 3.61.683 5.122 1.717 1.39.95 2.395 2.256 2.401 3.824l.063 14.532 8.198 8.306 3.82.004h1.203l-.004 1.2-.023 7.448-.002.53-.385.354-2.987 2.756.053 15.152 6.127 5.955.361.352v.509l.038 34.846 8.97 6.813.478.362-.002.593-.135 36.52-.002.399-.229.312-9.584 13.083zm4.734 2.41h-7.134v-1.205l-.026-61.687v-.396l.23-.315 9.587-13.084.131-35.53-8.968-6.811-.474-.36v-.596l-.038-34.93-6.125-5.954-.361-.35-.002-.511-.057-16.19-.002-.528.388-.357 2.991-2.759.019-5.72-3.121-.002h-.504l-.352-.358-8.891-9.009-.342-.346-.002-.491-.065-15.024c-.003-.66-.57-1.31-1.357-1.847-1.15-.786-2.676-1.27-3.832-1.303l-.089-.002c-.954 0-2.198.38-3.224 1.002l-.002-.003c-.884.536-1.56 1.215-1.578 1.888l-.001.036-.023 8.742v.258l-.103.231-3.488 7.838-.313.705-.778.005-5.175.037-.335.003-.282-.167-12.749-7.575-.864-.513.347-.936c.846-2.289 1.097-4.286.589-5.993-.5-1.681-1.768-3.158-3.967-4.445-1.713-1.003-3.691-1.243-5.61-.77-1.94.477-3.825 1.682-5.334 3.563l-.66.823-.902-.55-6.206-3.788-.49-.298-.075-.573c-.127-.969-.452-1.946-1.008-2.928-.575-1.017-1.4-2.044-2.51-3.08l-.381-.355v-5.445h-8.562a18.7 18.7 0 0 0 2.813-2.16c.52-.479 1.043-1.009 1.382-1.662.314-.604.498-1.263.498-1.915 0-1.23-.568-2.35-1.486-3.167-.955-.852-2.285-1.378-3.763-1.378s-2.807.526-3.763 1.378c-.917.817-1.485 1.938-1.485 3.167 0 .7.18 1.36.5 1.944.344.626.866 1.148 1.467 1.601 1.037.78 1.659 1.488 2.883 2.19l-3.565-.002h-5.081v5.495l-.443.361c-1.027.839-1.753 1.757-2.252 2.756-.506 1.013-.787 2.122-.92 3.327l-.069.62-.552.303-6.176 3.37-.833.454-.635-.704c-1.697-1.88-3.614-2.936-5.526-3.326-2.113-.431-4.24-.055-6.066.918-1.667.89-3.054 2.4-3.67 4.307-.533 1.653-.487 3.625.456 5.779l.417.952-.887.55-12.787 7.912-.302.187-.353-.008-4.912-.113-.779-.017-.303-.712-3.6-8.438-.094-.22v-8.969h-.004c0-.528-.483-1.017-1.155-1.417-1.125-.668-2.657-1.027-3.791-1.039v.004h-.011l-.01-.005c-.984-.008-2.343.189-3.46.658-.854.359-1.522.86-1.534 1.496h.005v.003l-.005.005-.122 16.218-.004.498-.35.349-8.587 8.569-.347.346-.495.002-3.119.013-.004 5.817 2.563 2.374.383.355-.002.525-.052 17.298v.538l-.394.356-5.979 5.398.082 34.546.002.598-.481.362-9.111 6.858-.055 35.408 10.171 14.15.227.315-.001.387-.095 60.99-.002 1.2h-1.198l-6.117-.005v20.544h185.017z" style="fill:#c59857;fill-rule:evenodd"></path><path d="M212.332 576.003H382.87v12.762h-171.39v-12.762zm168.839 1.7H213.182v9.362h167.989z" style="fill:#c49351;fill-rule:evenodd"></path><path d="M219.878 508.918v62.55h27.15v-62.55ZM251.342 508.918v62.55h27.15v-62.55zM283.09 508.918v62.55h27.15v-62.55zM314.555 508.918v62.55h27.15v-62.55zM346.303 508.918v62.55h27.15v-62.55z" style="fill:none"></path><path d="M289.028 544.767v-35.655q0 8.504 8.504 8.504h-.283q8.504 0 8.504-8.504v35.654zM258.052 541.128V512.14q0 7.087 7.087 7.087h.093q7.37 0 7.37-7.37v29.27zM320.981 541.128V512.14q0 7.087 7.087 7.087h.094q7.37 0 7.37-7.37v29.27zM228.353 535.802v-21.548q0 5.102 5.103 5.102h-.08q5.102 0 5.102-5.102v21.548zM354.353 535.802v-21.285q0 5.103 5.103 5.103h-.08q5.103 0 5.103-5.103v21.285z" style="fill:none"></path><path d="M238.479 535.802v-11.383c0-2.785-2.279-5.063-5.063-5.063a5.077 5.077 0 0 0-5.063 5.063v11.383zM258.052 526.314v14.814h14.55v-14.53c0-4.054-3.316-7.37-7.37-7.37h-.093c-3.898 0-7.087 3.189-7.087 7.086M289.028 525.979v18.787h16.725V525.98c0-4.6-3.763-8.363-8.362-8.363s-8.363 3.763-8.363 8.363M320.981 526.314v14.814h14.55v-14.53c0-4.054-3.316-7.37-7.37-7.37h-.093c-3.898 0-7.087 3.189-7.087 7.086M354.353 524.682v11.12h10.126v-11.12c0-2.784-2.278-5.062-5.063-5.062a5.077 5.077 0 0 0-5.063 5.062" style="fill:#fcfc42;fill-rule:evenodd"></path><path d="M247.028 571.468v-62.55h-27.15v62.55zm-8.55-35.666h-10.125v-11.383a5.077 5.077 0 0 1 5.063-5.063c2.784 0 5.062 2.278 5.062 5.063zM251.342 508.918v62.55h27.15v-62.55zm21.26 32.21h-14.55v-14.814c0-3.897 3.19-7.086 7.087-7.086h.093c4.054 0 7.37 3.316 7.37 7.37zM283.09 508.918v62.55h27.15v-62.55zm22.663 35.848h-16.725V525.98c0-4.6 3.763-8.363 8.363-8.363s8.362 3.763 8.362 8.363zM314.555 508.918v62.55h27.15v-62.55zm20.977 32.21h-14.55v-14.814c0-3.897 3.188-7.086 7.086-7.086h.094c4.053 0 7.37 3.316 7.37 7.37zM346.303 508.918v62.55h27.15v-62.55zm8.05 26.884v-11.12a5.077 5.077 0 0 1 5.063-5.062c2.785 0 5.063 2.278 5.063 5.062v11.12z" style="fill:#c49351;fill-rule:evenodd"></path><path d="M297.475 123.48a8.97 8.97 0 0 0-6.36 2.634 8.97 8.97 0 0 0-2.635 6.36 8.97 8.97 0 0 0 2.635 6.36 8.97 8.97 0 0 0 6.36 2.634 8.97 8.97 0 0 0 6.36-2.634 8.97 8.97 0 0 0 2.634-6.36 8.97 8.97 0 0 0-2.635-6.36 8.97 8.97 0 0 0-6.36-2.634m-7.363 1.632a10.38 10.38 0 0 1 7.362-3.05 10.38 10.38 0 0 1 7.363 3.05 10.38 10.38 0 0 1 3.05 7.362 10.38 10.38 0 0 1-3.05 7.362 10.38 10.38 0 0 1-7.363 3.05 10.38 10.38 0 0 1-7.362-3.05 10.38 10.38 0 0 1-3.05-7.362c0-2.875 1.166-5.478 3.05-7.362" style="fill:#c39452;fill-rule:evenodd"></path><path d="M381.17 577.703H213.183v9.362h167.989zM248.63800000000003 410.747l7.813 6.468.205.17v.269l-.03 6.154 6.744.027.03-33.121c0-.354-.106-.699-.29-1.005a2.5 2.5 0 0 0-.881-.867 2.4 2.4 0 0 0-1.205-.34c-.377 0-.769.098-1.146.321-5.45 3.246-9.721 7.549-12.648 12.222-2.845 4.542-4.419 9.43-4.568 14.03l5.257-4.328.361-.297zM332.45 390.714l.03 33.123h7.348v-6.367l.221-.172 8.178-6.343.369-.287.35.309 4.283 3.772c-.229-4.57-1.816-9.373-4.646-13.836-2.924-4.61-7.17-8.85-12.613-12.09a2.2 2.2 0 0 0-1.144-.321c-.426 0-.842.126-1.205.34a2.54 2.54 0 0 0-.883.867 1.97 1.97 0 0 0-.288 1.005" style="fill:#e21e24;fill-rule:evenodd"></path><path d="M268.846 429.265h-17.801999999999996v-9.395l-3.259-2.824-3.501 2.94.015 8.676.001.493h-.495l-16.595.016h-.496v-9.024l-3.325-2.999-3.684 3.148.061 35.005 5.03 3.664.202.146.002.249.058 6.323 8.701.014v-6.786l.223-.147 9.063-6 .27-.18.272.178 9.313 6.031.225.146v6.679h8.444l-.058-6.437-.002-.265.22-.148 7.892-5.353-.015-10.676c-.003-2.347.437-5.588 1.685-8.768.927-2.365 2.3-4.702 4.27-6.628v-7.123l-3.443-2.879-3.24 2.827-.03 8.602zM324.736 434.464c1.103 3.04 1.558 5.999 1.555 8.275l-.014 10.676 7.892 5.353.219.148-.002.265-.058 6.439 8.63-.007v-6.701l.225-.148 9.125-6 .273-.18.271.18 9.063 6 .223.147v6.786l8.702-.014.058-6.323.002-.254.205-.145 5.168-3.666.061-34.999-3.684-3.148-3.325 2.999v9.024999999999999l-.496-.001-16.453-.015h-.495v-.494l.016-8.676-3.501-2.94-3.259 2.824v9.394h-17.66l-.002-.493-.03-8.603-3.24-2.827-3.444 2.879v7.094c1.8 2.237 3.094 4.722 3.974 7.15z" style="fill:#e21e24;fill-rule:evenodd"></path><path d="M286.173 395.396a3.5 3.5 0 0 1-.335-1.311c-.021-.466.075-.93.367-1.276.318-.375.67-.69 1.08-.885a1.94 1.94 0 0 1 1.599-.044c1.167.462 1.604 1.198 2.177 2.164l.066.117a4 4 0 0 1 .296.677c.091.245-.202.46-.002.495.002 0 .158-.256.3-.482.209-.333.403-.643.734-.852.24-.15.488-.234.726-.314.025-.01.037.057.044.13l.038.114.003-.015.02-.116.063-.123c.116-.228.155-.703.19-1.15.092-1.152.177-2.203 1.434-2.233l.157-.004c1.296-.033 2.308-.058 2.398 1.247.031.46.008.937-.015 1.41-.024.47-.047.94-.004 1.338.005.046.05.111.117.174.051.048.096.08.117.08.167 0 .308-.03.399-.095a.38.38 0 0 0 .136-.228c.12-.48.112-.966.103-1.476-.004-.257-.009-.52 0-.795.01-.393.103-.788.394-1.127.285-.333.716-.56 1.372-.587.581-.025 1.107-.028 1.587.241.56.315.895.868.871 1.888a21 21 0 0 0 .001.9c.005.286.01.57 0 .98.009.156.172-.127.315-.078.144.056.282.109.41.174.38.193.61.496.809.787l.142-.257c.107-.194.216-.394.374-.606l.056-.075c.465-.626.91-1.223 1.416-1.755.363-.38.851-.483 1.341-.419.452.06.929.28 1.239.529l.138.108c.853.665 1.894 1.477.846 2.9-.333.46-.813 1.15-1.31 1.865-.846 1.214-1.742 2.501-2.61 3.614l.322.61c.139.258.273.488.384.654l.266.39.415.603.026.037.027.052.112.213c.783 1.495 1.45 2.768 1.945 4.295.47 1.45.643 2.753.833 4.178l.106.778c.053.374.119.773.187 1.184.13.79.27 1.627.331 2.377l1.362 1.61h1.01l2.972-5.477-.533-.308c.213-.402.438-.797.649-1.2l.518.3a2 2 0 0 1-.271-.593c-.251-1.031.27-2.16 1.26-2.572l.66.383.082-.137a1.58 1.58 0 0 0 1.16-.81c-.106-.033-.21-.043-.305-.096-.092-.055-.155-.142-.239-.215a1.35 1.35 0 0 0-.724-.044c.104-1.105 1.296-2.002 2.36-1.387.365.215.626.572.72.985-.068.021-.133.01-.195.021.095.169.195.336.243.533.266 1.11-.346 2.31-1.45 2.669-.21.064-.424.07-.633.067l-.255.468-1.696-.982-.14.265 1.694.979-.736 1.351.51.298-.648 1.199-.532-.308-2.182 4.025c.905-.716 1.759-1.405 2.614-2.094 1.941-1.567 3.894-3.144 5.99-4.684l.536-.393.511.43.17.143-.187-21.05-.002-.175.062-.151c.488-1.206 1.029-2.257 1.786-3.202.764-.953 1.732-1.775 3.061-2.505 1.378-.757 3-1.24 4.777-1.306 1.585-.06 3.289.213 5.041.92 2.202.886 4.229 2.19 6.062 3.745 2.065 1.752 3.888 3.828 5.435 5.984 2.712 3.78 4.834 7.602 6.259 12.518 1.366 4.712 2.084 10.415 2.062 18.037h4.293l-.055-5.865-.004-.401.31-.257 4.66-3.869v-17.027l.269-.255 4.356-4.12v-4.95l-10.552-10.61-3.116-.013-4.92 7.79-.252.398-.47-.003-5.594-.03-.244-.001-.2-.125-38.373-23.822a16.3 16.3 0 0 1-4.906 4.484c-2.076 1.22-4.393 1.92-6.717 1.901a14.4 14.4 0 0 1-7.11-1.93c-1.895-1.09-3.616-2.638-5.059-4.639l-38.248 24.128-.21.132-.252-.003-5.282-.062-.45-.005-.247-.374-5.096-7.718-3.216-.025-10.257 10.495.028 5.252 3.89 4.068.238.248-.001.337-.03 15.622 5.466 4.903.276.247.007.37.11 5.895 3.789.043c.015-4.42.373-8.832 1.084-12.982.726-4.241 1.821-8.224 3.296-11.68 1.153-2.704 3.23-5.596 5.593-8.188 2.667-2.927 5.72-5.496 8.222-6.989.97-.579 1.978-.985 3.02-1.234a11.7 11.7 0 0 1 3.23-.292c2.197.094 4.159.81 5.796 1.942 1.764 1.22 3.15 2.922 4.047 4.843l.08.172v.187l-.073 21.997 1.009-.983.554-.54.588.504 6.307 5.407-3.437-5.925c-.325-1.31-.674-2.62-1.013-3.926l2.878 2.781 5.353 9.16h.954l.745-.49.574-.37.163-2.777c.114-1.928.564-3.686 1.03-5.498l.087-.349a17.2 17.2 0 0 1 1.53-3.901 23 23 0 0 1 2.001-3.078 35 35 0 0 1-1.972-2.857 44 44 0 0 1-1.868-3.384z" style="fill:#e21e24;fill-rule:evenodd" data-source="https://football-logos.cc"></path><path d="M145.022 233.734c1.947 4.974 4.616 9.2 7.718 12.888 3.115 3.704 6.68 6.883 10.4 9.745l1.513 1.165-1.859.454c-2.039.499-3.9 1.19-5.537 2.12-1.434.812-2.7 1.809-3.768 3.02l18.527 33.293c20.15-6.266 40.726-10.314 61.591-12.838 21.077-2.55 42.475-3.545 64.043-3.704 22.38-.166 44.949 1.038 67.082 3.945 20.258 2.661 40.156 6.751 59.214 12.525 2.859-5.367 5.906-10.932 8.953-16.497 2.988-5.458 5.976-10.916 9.057-16.705-.893-1.467-2.154-2.434-3.68-3.108-1.754-.774-3.874-1.18-6.197-1.506l-2.209-.31 1.785-1.334c4.111-3.077 8.514-6.981 12.12-11.486 2.867-3.58 5.228-7.537 6.528-11.75l1.756.54c-1.375 4.455-3.851 8.614-6.851 12.361-3.216 4.017-7.042 7.565-10.752 10.496 1.654.303 3.19.7 4.561 1.305 2.03.896 3.682 2.233 4.801 4.352l.228.431-.228.43c-2.96 5.57-6.134 11.367-9.307 17.163-3.065 5.597-6.13 11.196-9.294 17.148l-.355.668-.724-.221c-19.176-5.86-39.223-9.998-59.643-12.68-22.054-2.898-44.54-4.097-66.837-3.932-21.47.158-42.793 1.152-63.835 3.697-21.007 2.541-41.712 6.632-61.972 12.988l-.71.224-.366-.656-19.2-34.5-.3-.54.387-.482c1.297-1.613 2.875-2.908 4.688-3.936 1.297-.735 2.714-1.332 4.235-1.81-3.29-2.638-6.438-5.552-9.249-8.894-3.229-3.84-6.004-8.233-8.027-13.4z" style="fill:#c49351;fill-rule:evenodd"></path><path d="M163.41 278.384c-.986-2.373-.724-5.794 1.007-6.96-1.823.422-4.022 1.181-5.846 1.621l6.165 10.54a403 403 0 0 1 3.51-.777c-1.92-.109-3.852-2.05-4.837-4.424M170.779 275.185c.978 2.357.886 6.32-1.063 7.378 22.737-4.833 44.964-7.743 66.819-9.17-4.304-.444-7.224-3.513-7.355-6.669-.13-3.155 1.671-6.01 4.972-7.16-22.37 2.505-45.09 6.038-67.6 11.17 1.74.219 3.249 2.094 4.227 4.45M246.477 265.834c.137 3.305-2.419 6.409-6.394 7.338 18.48-1.096 36.733-1.331 54.902-1.259-6.907-.725-11.242-4.184-11.242-7.766s4.262-7.478 11.096-8.23a579 579 0 0 0-55.7 3.043c4.137.48 7.2 3.57 7.338 6.874M311.82 264.054c0 3.61-4.717 7.507-11.79 8.168 18.415.12 36.727.49 55.103 1.512-4.012-1.205-6.176-4.82-5.857-8.04s3.189-6.473 7.35-6.728c-18.685-1.91-37.56-2.993-56.342-3.057 6.903.736 11.537 4.533 11.537 8.144M366.245 267.006c-.307 3.101-2.804 6.296-6.598 6.967 22.221 1.558 44.255 4.157 66.343 8.398-1.689-1.102-1.972-4.52-1.18-6.854.793-2.333 2.544-4.287 4.322-4.515-22.423-5.858-45.42-9.7-68.74-11.779 3.967 1.103 6.16 4.682 5.853 7.783M431.397 271.522c1.672 1.117 1.807 4.34 1.02 6.658s-2.492 4.29-4.364 4.548q1.52.322 3.039.658c.601-1.1 1.204-2.435 1.807-3.536 1.217-2.224 2.717-4.777 3.94-7.024a611 611 0 0 0-5.442-1.304" style="fill:#c39452;fill-rule:evenodd"></path><path d="M428.122 213.663c-1.06-.313-2.257-.918-3.404-1.806a13 13 0 0 1-2.785-2.974c-.373-.552-.66-1.26-.625-1.995.03-.605.272-1.213.853-1.75 1.4-1.295 3.013-2.112 4.787-2.576 1.75-.458 3.653-.57 5.652-.462 2.067.113 4.15.178 6.004.07 1.81-.107 3.394-.378 4.507-.933 2.109-1.05 3.754-2.452 4.82-4.238 1.009-1.69 1.508-3.736 1.4-6.172-.108-2.487-.625-5.074-1.75-7.616-.982-2.223-2.432-4.412-4.481-6.47-4.43-4.45-9.253-8.2-14.547-10.892-5.28-2.684-11.03-4.313-17.321-4.526l-.309-.01-.127-.28-3.751-8.251-.295-.649.714-.049a42.6 42.6 0 0 1 8.987.353c2.805.402 5.447 1.043 7.964 1.776a57 57 0 0 1 8.621 3.269c2.667 1.274 5.159 2.744 7.425 4.401 1.81 1.323 3.568 2.657 5.265 4.085 1.698 1.428 3.318 2.938 4.84 4.606 1.44 1.575 2.801 3.2 4.055 4.924a40.6 40.6 0 0 1 3.38 5.473 26 26 0 0 1 1.43 3.303c.387 1.119.678 2.262.87 3.503.32 2.079.515 4.903.226 7.66-.22 2.104-.724 4.173-1.668 5.853a29 29 0 0 1-5.16 6.713c-2.028 1.968-4.388 3.703-7.141 5.309l-.38.221-.264-.353c-1.102-1.47-2.265-2.816-3.736-3.789-1.454-.962-3.227-1.57-5.576-1.591-1.379-.012-2.709.518-3.946 1.39-1.487 1.049-2.837 2.584-3.986 4.275l-.203.3zm-2.8-2.59c.925.716 1.876 1.228 2.742 1.532 1.167-1.664 2.525-3.17 4.022-4.225 1.396-.984 2.918-1.582 4.524-1.569 2.566.023 4.512.694 6.115 1.755 1.465.969 2.628 2.256 3.712 3.668 2.523-1.504 4.697-3.121 6.573-4.94a28.1 28.1 0 0 0 4.985-6.488c.872-1.553 1.34-3.49 1.548-5.47.279-2.656.088-5.39-.223-7.408a19 19 0 0 0-.823-3.333c-.364-1.05-.825-2.086-1.379-3.174a39.6 39.6 0 0 0-3.295-5.342c-1.22-1.675-2.56-3.275-3.989-4.839-1.5-1.644-3.087-3.123-4.743-4.517s-3.404-2.718-5.215-4.042c-2.22-1.624-4.66-3.063-7.266-4.308a56 56 0 0 0-8.47-3.21c-2.473-.721-5.07-1.35-7.829-1.746a41.8 41.8 0 0 0-8.065-.387l3.326 7.316c6.33.26 12.115 1.918 17.43 4.62 5.389 2.738 10.296 6.554 14.8 11.077 2.142 2.152 3.658 4.443 4.687 6.77 1.176 2.659 1.716 5.367 1.83 7.971.116 2.638-.432 4.868-1.54 6.723-1.168 1.957-2.952 3.484-5.226 4.617-1.244.62-2.958.92-4.895 1.034-1.894.11-4.012.045-6.109-.07-1.907-.104-3.71.001-5.353.431-1.622.424-3.094 1.168-4.365 2.344-.365.337-.517.709-.535 1.071-.024.492.187.992.458 1.395a11.9 11.9 0 0 0 2.568 2.745M263.009 141.99c-8.074 1.373-16.052 3.152-23.822 5.503-8.061 2.438-15.89 5.49-23.353 9.338-7.14 3.681-13.54 8.406-17.055 13.808-2.888 4.44-3.816 9.351-1.561 14.524a10 10 0 0 0 .836 1.54c1.874 2.804 4.97 4.029 8.634 4.107 3.748.08 8.086-1.032 12.343-2.887a49.4 49.4 0 0 0 7.646-4.192c7.901-5.282 14.956-11.42 21.1-18.49 5.948-6.848 11.045-14.574 15.232-23.251m-24.109 4.553c8.101-2.45 16.44-4.285 24.886-5.687l.93-.154-.403.853c-4.301 9.109-9.586 17.193-15.79 24.333-6.202 7.14-13.322 13.334-21.296 18.664a50.4 50.4 0 0 1-7.801 4.278c-4.378 1.908-8.86 3.051-12.757 2.968-3.982-.084-7.361-1.44-9.436-4.544a11 11 0 0 1-.922-1.696c-2.406-5.52-1.427-10.745 1.639-15.458 3.617-5.561 10.155-10.397 17.43-14.149 7.528-3.88 15.41-6.955 23.52-9.408M331.603 140.856c8.447 1.402 16.785 3.236 24.887 5.687 8.109 2.453 15.992 5.527 23.519 9.408 7.276 3.751 13.814 8.588 17.431 14.15 3.066 4.712 4.045 9.937 1.639 15.457a11 11 0 0 1-.922 1.696c-2.075 3.103-5.455 4.46-9.436 4.544-3.898.083-8.379-1.06-12.757-2.968a50.4 50.4 0 0 1-7.802-4.278c-7.973-5.33-15.093-11.525-21.296-18.664s-11.488-15.224-15.79-24.333l-.403-.853zm24.6 6.637c-7.77-2.351-15.749-4.13-23.822-5.503 4.187 8.677 9.284 16.403 15.232 23.25 6.144 7.072 13.199 13.209 21.1 18.49a49.4 49.4 0 0 0 7.646 4.193c4.257 1.855 8.595 2.967 12.343 2.887 3.664-.078 6.76-1.303 8.633-4.107q.47-.7.837-1.54c2.254-5.173 1.327-10.083-1.561-14.524-3.514-5.402-9.916-10.127-17.056-13.808-7.463-3.848-15.291-6.9-23.352-9.338" style="fill:#c49351;fill-rule:evenodd"></path><path d="M200.354 254.199c-1.33 2.345-3.076 4.138-5.156 5.484a39 39 0 0 0 12.328-2.273c-2.7-.76-5.096-1.826-7.172-3.211M231.74 250.496c-1.724 1.865-3.76 3.214-5.86 4.453 4.25.39 8.688-.235 12.938-1.219-2.427-.885-5.03-1.466-7.078-3.234M263.99 247.496c-1.808 2.031-3.987 3.47-6.421 4.5 4.583.448 8.902.303 12.984-.375-2.343-1.116-4.594-2.383-6.562-4.125M395.508 254.199c1.33 2.345 3.076 4.138 5.156 5.484a39 39 0 0 1-12.328-2.273c2.7-.76 5.096-1.826 7.172-3.211M364.122 250.496c1.724 1.865 3.76 3.214 5.86 4.453-4.25.39-8.688-.235-12.938-1.219 2.427-.885 5.03-1.466 7.078-3.234M331.871 247.496c1.809 2.031 3.988 3.47 6.422 4.5-4.583.448-8.902.303-12.985-.375 2.344-1.116 4.595-2.383 6.563-4.125" style="fill:#c39452;fill-rule:evenodd"></path><path d="M161.854 223.882c2.573-9.327-.847-13.544-4.128-13.933-3.933-.466-8 3.49-8.206 12.319-.172 7.342 1.923 14.085 4.69 14.354 2.53.245 5.642-5.482 7.644-12.74" style="fill:#c59452;fill-rule:evenodd"></path><path d="M158.898 236.106c-.195.737.21 2 .891 2.344 8.703 4.396 9.516 5.668 13.219 6.656 3.481.93 8.94 2.506 10.5-2.578 1.578-5.143-4.017-8.373-6.82-10.219-.343-.225-.503-.77-.376-1.16 1.482-4.513 3.928-9.767-1.757-12.762-3.439-1.812-6.164.655-8.532 3.422-3.734 5.227-5.872 9.587-7.125 14.297" style="fill:#c59451;fill-rule:evenodd"></path><path d="M297.91 245.353c-2.717 2.32-5.503 4.008-8.344 5.204 5.594.96 11.75.633 17.344.093-3.22-1.381-6.782-2.663-9-5.297" style="fill:#c39452;fill-rule:evenodd"></path><path d="M226.238 231.104c.578.722.14 1.92-.234 2.766-1.801 4.058-4.84 7.927-8.25 10.829-1.476 1.256-4.3 1.183-5.671-.188-1.664-1.663-2.23-4.59-1.36-6.89.353-.932.958-1.639 1.618-2.297.43-.43.309-1.376-.212-1.688-2.492-1.496-3.422-3.765-3.609-6.14-.15-1.899.86-4.557 2.742-4.852 3.9-.611 6.503 1.746 9 3.493 2.112 1.477 4.276 2.845 5.976 4.967M230.126 229.124c-.795.473-1.921-.126-2.706-.615-3.77-2.346-7.181-5.89-9.582-9.67-1.04-1.635-.577-4.423.97-5.59 1.879-1.418 4.856-1.573 7.013-.393.874.478 1.49 1.176 2.05 1.92.367.485 1.32.497 1.702.025 1.827-2.262 4.203-2.868 6.58-2.724 1.902.115 4.394 1.483 4.426 3.387.065 3.948-2.63 6.199-4.706 8.43-1.755 1.887-3.41 3.84-5.747 5.23M234.237 230.945c-.356.854.396 1.884.99 2.593 2.853 3.402 6.844 6.279 10.923 8.124 1.766.798 4.461-.053 5.399-1.75 1.138-2.058.872-5.027-.6-6.997-.597-.798-1.374-1.31-2.19-1.76-.531-.294-.678-1.236-.264-1.68 1.982-2.127 2.247-4.565 1.77-6.9-.381-1.865-2.087-4.14-3.977-3.903-3.918.492-5.766 3.477-7.683 5.846-1.62 2.004-3.322 3.917-4.368 6.427" style="fill:#c59451;fill-rule:evenodd"></path><path d="M433.517 223.882c-2.573-9.327.847-13.544 4.128-13.933 3.933-.466 8 3.49 8.206 12.319.172 7.342-1.923 14.085-4.69 14.354-2.53.245-5.642-5.482-7.644-12.74" style="fill:#c59452;fill-rule:evenodd"></path><path d="M436.473 236.106c.195.737-.21 2-.891 2.344-8.703 4.396-9.517 5.668-13.219 6.656-3.481.93-8.94 2.506-10.5-2.578-1.578-5.143 4.017-8.373 6.82-10.219.343-.225.503-.77.375-1.16-1.48-4.513-3.927-9.767 1.758-12.762 3.439-1.812 6.164.655 8.532 3.422 3.734 5.227 5.872 9.587 7.125 14.297M369.133 231.104c-.579.722-.14 1.92.234 2.766 1.8 4.058 4.84 7.927 8.25 10.829 1.475 1.256 4.3 1.183 5.671-.188 1.664-1.663 2.23-4.59 1.36-6.89-.353-.932-.958-1.639-1.618-2.297-.43-.43-.31-1.376.212-1.688 2.492-1.496 3.421-3.765 3.609-6.14.15-1.899-.86-4.557-2.742-4.852-3.901-.611-6.503 1.746-9 3.493-2.112 1.477-4.276 2.845-5.976 4.967M365.245 229.124c.795.473 1.921-.126 2.706-.615 3.77-2.346 7.181-5.89 9.582-9.67 1.04-1.635.577-4.423-.97-5.59-1.879-1.418-4.856-1.573-7.013-.393-.874.478-1.49 1.176-2.051 1.92-.366.485-1.32.497-1.7.025-1.828-2.262-4.204-2.868-6.582-2.724-1.901.115-4.393 1.483-4.425 3.387-.065 3.948 2.63 6.199 4.706 8.43 1.755 1.887 3.41 3.84 5.747 5.23M361.134 230.945c.356.854-.396 1.884-.99 2.593-2.854 3.402-6.844 6.279-10.923 8.124-1.766.798-4.461-.053-5.399-1.75-1.138-2.058-.872-5.027.6-6.997.596-.798 1.374-1.31 2.19-1.76.531-.294.678-1.236.264-1.68-1.982-2.127-2.247-4.565-1.77-6.9.381-1.865 2.087-4.14 3.977-3.903 3.918.492 5.766 3.477 7.683 5.846 1.62 2.004 3.322 3.917 4.368 6.427" style="fill:#c59451;fill-rule:evenodd"></path><path d="M291 225.41c1.058 1.206 1.362 3.79.328 5.016-3.166 3.754-7.055 7.927-11.25 10.078-1.902.975-4.895-1.141-5.344-3.235-.498-2.326-.152-4.691 1.922-7.218.456-.555.557-1.562.234-2.204-1.317-2.615-3.116-4.925-2.578-7.5.431-2.062 3.333-3.646 5.344-2.953 4.302 1.482 8.343 4.597 11.344 8.016M304.377 225.41c-1.058 1.206-1.362 3.79-.328 5.016 3.167 3.754 7.055 7.927 11.25 10.078 1.902.975 4.895-1.141 5.344-3.235.499-2.326.152-4.691-1.922-7.218-.456-.555-.557-1.562-.234-2.204 1.317-2.615 3.117-4.925 2.578-7.5-.431-2.062-3.333-3.646-5.344-2.953-4.302 1.482-8.343 4.597-11.344 8.016M295.088 222.99c1.203 1.06 3.924 1.197 5.116.126 3.655-3.28 7.52-6.64 9.54-10.9.915-1.93-1.012-4.951-3.117-5.335-2.34-.426-5-.148-7.46 2.003-.541.472-1.639.277-2.29-.025-2.654-1.236-4.554-3.018-7.083-2.3-2.235.635-3.885 2.954-3.467 4.988.5 2.433 5.157 8.268 8.76 11.442" style="fill:#c49351;fill-rule:evenodd"></path><path d="M305.182 103.933c.937-6.453-2.644-12.54-7.22-12.703-4.953-.176-9.061 4.809-8.156 12.328.868 7.212 3.296 13.22 7.594 13.22s6.69-5.33 7.782-12.845" style="fill:none"></path><path d="m145.104 234.528 3.562-.563c-1.576-6.761-2.121-13.223-.82-18.984-6.542-3.885-13.374-10.087-15.07-15.515-2.713-8.679 1.028-17.04 6.187-24.094 4.962-6.786 10.811-12.375 17.624-16.407 9.97-5.9 23.023-7.916 33.868-7.078 1.073.083 2.126.225 3.164.516 4.08 1.142 5.57 3.66 5.531 7.03 25.595-15.415 52.405-25.364 81-27.28.951-8.253 7.603-14.78 17.251-14.907 8.57-.112 17.85 6.811 17.344 15.281 30.766 1.831 57.675 12.694 81.938 27.282-.581-5.415 3.248-7.187 7.969-7.688 19.278-2.048 36.348 4.572 48.374 19.031 6.706 8.062 12.785 18.25 9.657 27.187-2.864 8.184-9.06 12.996-15.75 16.594 2.405 7.458 1.258 13.732-.843 19.688 2.593.218 3.218.718 5.812.937 2.196-5.81 2.148-11.961 2.063-19.031 9.911 3.135 16.463-2.04 15.469-14.625 6.43-1.48 6.853-12.206 1.219-17.25 2.669-8.314-1.888-15.967-11.531-15.937-.5-9.584-6.375-15.51-15.468-15.469-3.372-8.295-12.004-11.361-18.938-6.188-6.982-7.36-15.87-6.75-21.07-.985-2.258-.257-4.399-.468-6.82-.421-2.551-8.418-11.028-13.85-21.517-10.36-4.718-8.921-13.5-12.86-22.781-7.405-8.225-10.35-22.704-11.749-27.68-1.22-1.75-.046-3.476 0-5.226.094-1.72-5.504-5.235-9.976-13.337-11.742 3.047-2.893 4.557-6.425 4.735-13.312.175-6.817-2.945-16.841-13.5-16.782-9.514.054-12.73 8.169-13.032 17.625-.192 6.041 1.43 9.727 3.844 12.469-6.848 2.16-11.97 5.494-12.563 11.906-1.748-.255-3.316-.092-4.875.094-5.89-12.162-20.016-9.78-27.843 1.219-10.066-5.22-18.872-1.812-22.782 7.312-11.83-2.929-19.06 1.43-21.328 10.407-2.432-.216-4.865-.533-7.171 0-6-6.814-14.594-6.249-20.532.75-8.5-5.585-16.619-1.108-19.17 6.75-10.96.358-15.544 6.375-15.751 15.235-10.042.174-15.426 8.45-11.485 16.124-5.625 5.477-5.952 12.43 1.36 18.188-.728 12.292 6.726 16.193 15.468 14.157.203 5.718-.626 11.296 1.5 16.968z" style="fill:none"></path><path d="M126.191 203.004c-.727 12.292 6.727 16.193 15.469 14.157.203 5.718-.626 11.296 1.5 16.968l1.862-.395.305.759 3.34-.528c-1.577-6.761-2.122-13.223-.821-18.984-3.009-1.787-6.079-4.064-8.682-6.53-.493.75-1.063 1.246-2.307 1.246s-2.756-1.467-2.756-2.756.593-1.972 1.464-2.435c-1.298-1.694-2.278-3.403-2.79-5.04a20 20 0 0 1-.785-3.734c-1.809.951-4.039-.35-4.039-2.44 0-2.115 2.274-3.412 4.084-2.417.395-3.144 1.465-6.196 2.942-9.104-1.426-.19-2.526-1.346-2.526-2.89s1.63-2.917 2.917-2.917 1.815.466 2.347 1.184q.607-.9 1.248-1.776c2.32-3.172 4.833-6.083 7.548-8.696-.874-.522-1.46-1.198-1.46-2.57s1.547-2.992 2.992-2.992 2.3.752 2.755 1.824c3.29-2.59 6.81-4.774 10.648-6.45-1.71-1.765-.484-4.786 2.028-4.786 1.611 0 2.9 1.35 2.82 2.96 4.575-1.473 9.392-2.365 14.104-2.744-1.105-1.852.217-4.266 2.426-4.266 2.1 0 3.439 2.206 2.54 4.054a63 63 0 0 1 5.09.18c4.678.361 8.76 2.104 8.696 7.548a235 235 0 0 1 13.715-7.66l-.024-.04c-2.04.412-4.911-.142-5.9-2.254-.916-1.955.435-4.87 3.75-6.424 3.313-1.553 6.367-1.17 7.312.846 1.582 3.376-2.315 6.302-2.252 6.413 6.076-3.012 12.224-5.7 18.452-8.03-2.475-.012-4.049-.842-4.631-2.958-.583-2.116 1.276-4.821 4.735-5.774 3.458-.953 6.337.392 6.875 2.347s.197 3.112-1.259 4.355a167 167 0 0 1 18.155-4.997c-.958-.283-1.587-.577-1.97-.733-1.902-.777-2.573-1.794-2.746-3.87s1.49-4.322 5.197-4.633 5.916 1.139 6.118 3.555c.174 2.073-2.491 4.672-2.732 4.9a153 153 0 0 1 18.205-2.324c.92-7.98 7.171-14.346 16.305-14.871.177-.149.38-.25.591-.304a1.5 1.5 0 0 1-.69-.326c-5.056-3.72-6.274-9.664-6.18-15.214.097-5.661 3.035-10.11 7.653-9.983 3.096.086 7.576 3.514 7.353 12.478-.177 7.1-3.392 11.373-6.974 12.778a1.5 1.5 0 0 1-.52.247c.238.045.467.147.664.308 8.29.385 16.88 7.103 16.393 15.261 6.72.4 13.255 1.231 19.619 2.438.01-.006-4.053-2.617-3.972-4.733.093-2.423 3.021-4.03 6.728-3.719 3.707.31 5.939 2.358 5.736 4.774-.256 3.06-3.95 3.972-6.504 4.045l.02.027c6.387 1.297 12.6 2.97 18.654 4.963-.897-1.025-1.507-2.034-.998-3.884.51-1.85 3.792-3.534 7.25-2.581s5.171 3.811 4.618 5.82-1.79 2.71-3.732 3.168a195 195 0 0 1 16.96 7.366c-1.507-1.362-2.635-3.667-1.682-5.7s4.21-2.68 7.523-1.127c3.314 1.553 4.45 4.449 3.47 6.54s-3.277 2.349-5.59 2.17a241 241 0 0 1 13.838 7.715c-.581-5.415 3.106-6.495 7.781-7.313 1.487-.26 3.002-.634 5.503-.746-.96-1.851.372-4.098 2.507-4.098 2.178 0 3.505 2.353 2.461 4.207 4.901.287 10.938 2.717 14.067 2.666s1.263-2.823 2.822-2.823c2.48 0 3.714 2.952 2.08 4.732a51.5 51.5 0 0 1 10.627 6.435c.47-1.035 1.293-1.755 2.725-1.755 1.431 0 2.991 1.633 2.991 2.992 0 1.36-.558 2.002-1.398 2.532a58 58 0 0 1 4.177 4.514c1.584 1.905 3.134 3.929 4.536 6.027.53-.736 1.075-1.215 2.369-1.215 1.293 0 2.916 1.369 2.916 2.917 0 1.549-1.112 2.713-2.549 2.894 1.544 2.975 2.661 6.03 3.065 9.048 1.806-.9 3.984.405 3.984 2.469 0 2.077-2.204 3.38-4.012 2.454a15 15 0 0 1-.652 2.593 25.2 25.2 0 0 1-3.102 6.092c.953.434 1.616 1.192 1.616 2.51 0 1.32-1.514 2.757-2.756 2.757s-1.81-.494-2.303-1.241c-2.72 2.627-5.902 4.7-9.205 6.476 2.405 7.458 1.258 13.732-.843 19.687 1.696.144 2.55.407 3.663.633q.3-.795.55-1.602l1.756.54q-.209.674-.45 1.34l.293.027c2.196-5.81 2.148-11.961 2.063-19.031 9.911 3.135 16.463-2.04 15.469-14.625 6.43-1.48 6.853-12.206 1.219-17.25 2.669-8.314-1.888-15.967-11.531-15.937-.5-9.584-6.375-15.51-15.468-15.469-3.372-8.295-12.004-11.361-18.938-6.188-6.982-7.36-15.87-6.75-21.07-.985-2.258-.257-4.399-.468-6.82-.421-2.551-8.418-11.028-13.85-21.517-10.36-4.718-8.921-13.5-12.86-22.781-7.406-8.225-10.35-22.704-11.748-27.68-1.218-1.75-.047-3.476 0-5.226.093-1.72-5.504-5.235-9.976-13.337-11.742 3.047-2.893 4.557-6.426 4.735-13.313.175-6.816-2.945-16.84-13.5-16.78-9.514.052-12.73 8.168-13.032 17.624-.192 6.04 1.43 9.727 3.844 12.469-6.848 2.16-11.97 5.494-12.563 11.906-1.748-.256-3.316-.092-4.875.094-5.89-12.162-20.016-9.78-27.843 1.219-10.066-5.22-18.872-1.812-22.782 7.312-11.83-2.929-19.06 1.43-21.328 10.407-2.432-.216-4.865-.533-7.171 0-6-6.814-14.594-6.249-20.532.75-8.5-5.585-16.619-1.108-19.17 6.75-10.96.358-15.544 6.375-15.751 15.234-10.042.175-15.426 8.45-11.485 16.125-5.625 5.477-5.952 12.43 1.36 18.188" style="fill:#c39452;fill-rule:evenodd"></path><path d="M135.734 187.852c-.555 3.595-.73 9.437 1.383 13.196 2.807 4.993 6.68 8.664 12.117 11.836 2.265-3.02 4.79-5.535 9.703-5.578 3.236-.029 6.153 2.655 8.345 5.882 1.89-.557 4.243-2.102 5.918-4.582.577-.854.92-2.114-.152-3.105-2.67-2.471-6.172-3.12-10.079-2.907-4.164.228-8.4.262-10.757-.913-4.267-2.127-6.723-5.658-6.494-10.876.21-4.77 1.883-9.9 6.375-14.414 8.933-8.972 19.46-15.13 32.204-15.562l3.75-8.25c-6.309-.429-11.79.654-16.781 2.11-5.927 1.727-11.36 4.28-15.891 7.593-3.62 2.648-7.008 5.313-10.032 8.625-2.867 3.14-5.404 6.449-7.36 10.29-1.118 2.197-1.874 4.218-2.25 6.655" style="fill:#e21d23;fill-rule:evenodd"></path><path d="M167.48 212.605c.865-.304 1.817-.816 2.742-1.531a11.9 11.9 0 0 0 2.567-2.745c.272-.403.482-.904.459-1.395-.018-.362-.17-.734-.536-1.071-1.27-1.176-2.742-1.92-4.364-2.344-1.643-.43-3.447-.535-5.353-.43-2.097.114-4.215.18-6.11.069-1.937-.114-3.65-.414-4.894-1.034-2.275-1.133-4.058-2.66-5.227-4.617-1.107-1.855-1.656-4.085-1.54-6.723.115-2.604.655-5.312 1.831-7.972 1.029-2.326 2.545-4.617 4.688-6.77 4.503-4.522 9.41-8.338 14.798-11.077 5.315-2.701 11.101-4.358 17.43-4.619l3.327-7.316a41.8 41.8 0 0 0-8.066.387c-2.76.396-5.355 1.025-7.829 1.746a56 56 0 0 0-8.47 3.21c-2.605 1.245-5.044 2.684-7.266 4.308-1.81 1.324-3.557 2.648-5.214 4.042-1.656 1.394-3.242 2.873-4.743 4.517-1.428 1.565-2.77 3.164-3.99 4.84a39.5 39.5 0 0 0-3.294 5.341c-.554 1.088-1.015 2.123-1.379 3.174a19 19 0 0 0-.823 3.333c-.311 2.017-.502 4.752-.223 7.408.207 1.98.675 3.917 1.548 5.47a28.1 28.1 0 0 0 4.985 6.488c1.876 1.819 4.05 3.437 6.573 4.94 1.085-1.412 2.248-2.7 3.712-3.668 1.603-1.061 3.55-1.732 6.115-1.754 1.606-.014 3.128.584 4.524 1.569 1.497 1.055 2.855 2.56 4.021 4.224m3.346-.748c-1.147.888-2.343 1.494-3.404 1.806l-.345.102-.204-.3c-1.148-1.69-2.498-3.226-3.985-4.274-1.238-.873-2.568-1.403-3.947-1.391-2.348.02-4.121.629-5.575 1.591-1.47.973-2.634 2.319-3.736 3.79l-.265.352-.379-.221c-2.753-1.606-5.113-3.341-7.142-5.309a29 29 0 0 1-5.159-6.713c-.944-1.68-1.448-3.749-1.669-5.853-.288-2.757-.093-5.581.227-7.66.192-1.241.483-2.385.87-3.503a26 26 0 0 1 1.429-3.303 40.6 40.6 0 0 1 3.38-5.473c1.255-1.723 2.616-3.349 4.055-4.924 1.523-1.668 3.143-3.178 4.84-4.606 1.698-1.429 3.456-2.762 5.265-4.085 2.267-1.657 4.76-3.127 7.425-4.401a57 57 0 0 1 8.621-3.268c2.518-.734 5.16-1.375 7.965-1.777a42.6 42.6 0 0 1 8.987-.353l.714.05-.295.648-3.751 8.25-.128.28-.308.01c-6.291.214-12.04 1.843-17.321 4.527-5.294 2.691-10.118 6.442-14.547 10.891-2.05 2.059-3.499 4.248-4.482 6.471-1.124 2.542-1.64 5.13-1.75 7.616-.107 2.436.392 4.483 1.4 6.172 1.067 1.786 2.712 3.187 4.82 4.238 1.114.555 2.697.827 4.508.933 1.854.108 3.937.043 6.004-.07 2-.109 3.901.004 5.652.462 1.774.464 3.388 1.281 4.787 2.576.58.537.824 1.145.853 1.75.035.734-.252 1.443-.625 1.995a13 13 0 0 1-2.785 2.974" style="fill:#c49351;fill-rule:evenodd"></path><path d="M168.582 199.836c2.973.667 5.96 2.885 7.055 5.578.65 1.598.372 3.52-.375 4.969-.897 1.74-2.601 2.883-4.054 4.195 1.476.101 2.565.214 3.844.539 2.977.756 5.158 2.852 6.703 5.531 1.477 2.56.274 8.34-.632 10.56 5 2.55 6.627 5.836 6.491 9.316-.202 5.198-3.196 7.655-7.03 8.625-6.374 1.61-13.066-1.96-18.666-4.97-.073 6.816 1.172 12.202 5.107 15.306 2.715 2.14 6.784 3.086 12.284 3.116 10.68.058 15.414-4.002 18.726-9.429a5.895 5.895 0 1 1 4.334-.398c2.756 2.225 6.755 3.119 11.91 3.077 6.333-.05 11.672-2.43 15.88-6.61l-.036-14.25c-4.176 6.45-8.412 13.098-14.367 12.985-3.945-.075-8.169-3.084-8.039-7.371.042-1.399.523-2.77 1.055-4.043-1.988-2.515-3.491-5.289-3.492-8.367-.002-4.98 3.047-8.348 9.188-8.344-.465-3.91.473-7.308 3.328-9.21 2.635-1.758 7.893-1.026 10.5 1.241 1.829-1.78 3.953-2.848 7.242-2.812 5.355.06 8.321 3.286 7.57 8.484 2.73-.806 5.846-.875 8.11.938 3.77 3.02 3.818 9.026.328 12.61 4.433 3.35 3.585 9.348.891 11.343-2.854 2.115-7.257 2.27-11.343-.469-3.088-2.07-5.766-4.547-8.204-7.171l.14 14.437c4.32 2.442 8.476 2.649 13.08 2.86 7.543.345 12.068-1.97 15.817-5.993a5.895 5.895 0 1 1 3.937-.249c3.389 3.053 7.263 4.82 12.074 4.742 5.81-.094 11.175-1.543 16.313-5.765l-.093-12.984c-4.83 6.04-9.945 10.828-15.563 11.25-2.127.159-6.885-1.975-6.797-7.407.057-3.501 1.673-5.187 3.516-6.796-2.192-2.897-3.34-6.135-3.258-9.68.072-3.112 2.415-3.608 5.602-3.774 1.977-.102 3.718.188 5.671.516-.921-1.687-2.222-4.048-1.359-6.187.575-1.424.782-2.192 2.79-3.083-10.07-7.611-15.265-26.102-14.46-53.59-18.388 27.584-40.22 46.435-65.11 47.766.655 3.279.088 4.938-2.015 6.234-1.996 1.231-6.174.723-9.328-1.171-3.2-1.923-6.176-5.147-5.859-8.672.213-2.366 1.343-4.031 3.117-6.399l-2.461-2.836c-1.75 1.19-3.402 2.749-5.156 2.719-2.247-.038-4.002-1.486-5.04-3.55-1.828-3.64-2.069-7.873-.41-12.072 1.352-3.42 4.693-4.857 9.059-4.277l1.078-2.46c-2.315-.764-3.829-2-4.769-4.325-3.36.131-6.704.155-9.879 1.324-8.507 3.132-13.86 7.881-18.538 13.148-3.047 3.43-6.343 7.865-6.376 12.727-.016 2.509 1.209 5.49 3.422 6.703 1.868 1.024 4.176 1.037 6.334.996 3.421-.064 7.496.27 10.213.88" style="fill:#e21d23;fill-rule:evenodd"></path><path d="M265.407 245.508a5.4 5.4 0 0 0 2.57-1.983 5.38 5.38 0 0 0 .967-3.086c0-1.491-.605-2.841-1.581-3.818a5.38 5.38 0 0 0-3.818-1.581c-1.49 0-2.84.605-3.817 1.581a5.38 5.38 0 0 0-1.581 3.818c0 1.266.434 2.43 1.161 3.349.743.938 1.77 1.593 2.987 2.012l-.25.844a6.28 6.28 0 0 1-3.512-2.244 6.36 6.36 0 0 1-1.378-3.961c0-1.765.716-3.363 1.872-4.52a6.37 6.37 0 0 1 4.518-1.871c1.765 0 3.363.716 4.52 1.872a6.37 6.37 0 0 1 1.871 4.519 6.406 6.406 0 0 1-4.188 6z" style="fill:#c39351;fill-rule:evenodd"></path><path d="M202.655 252.37c3.132 2.544 7.724 3.018 11.62 2.987 5.92-.047 11.152-2.183 15.39-6.323l-.032-12.378c-3.965 6.091-8.096 11.924-13.885 11.814l-.097-.002c-4.19-.126-8.514-3.321-8.43-7.798 0-1.336.483-2.801.984-4.031-1.898-2.453-3.418-5.266-3.42-8.444h-.001v-.013h.002c.003-5.656 3.689-8.64 9.134-8.816-.165-1.894.003-3.667.56-5.21h.001c.579-1.6 1.573-2.95 3.042-3.928 2.888-1.923 8.093-1.028 10.75.997.867-.79 1.81-1.431 2.907-1.886v-.001c1.23-.51 2.646-.78 4.362-.762 5.103.057 8.573 2.968 8.14 8.312 2.665-.646 5.62-.565 7.846 1.219 3.97 3.175 3.954 9.224.74 12.94 1.885 1.611 2.93 3.898 2.89 6.391-.033 1.961-.796 4.197-2.426 5.405-1.567 1.16-3.57 1.765-5.731 1.676-1.997-.082-4.132-.757-6.182-2.132-2.712-1.817-5.159-3.982-7.422-6.327l.125 12.89c4.069 2.22 8.094 2.451 12.609 2.658 9.295.425 13.637-5.515 15.611-6.017l.951.362c-.117.163-.19.242-.273.352-4.564 4.969-9.66 6.596-16.332 6.291-4.82-.22-8.98-.482-13.3-2.923l-.249-.14-.155-16c1.518 1.634 3.017 3.21 4.692 4.695a40 40 0 0 0 4.293 3.338c1.892 1.268 3.849 1.89 5.67 1.965 1.934.08 3.717-.455 5.104-1.483 1.371-1.016 2-2.986 2.026-4.625.04-2.386-1.035-4.5-2.921-5.926l-.448-.338c.323-.332.64-.65.931-1.013 2.645-3.302 2.609-8.522-.82-11.268h-.003c-2.153-1.724-5.15-1.59-7.66-.849l-.74.219c.103-.716.213-1.404.22-2.132.05-4.45-3.073-6.507-7.194-6.552-2.79-.03-4.898.73-6.893 2.673l-.327.319-.344-.3c-1.245-1.083-3.147-1.796-5.052-2.021-1.835-.217-3.652.02-4.847.816l-.002.002c-2.937 1.958-3.498 5.465-3.11 8.74l.067.554h-.576v-.002c-2.926.001-5.103.792-6.538 2.165v.001c-1.425 1.365-2.137 3.325-2.138 5.671h.002v.013h-.002c0 3.182 1.659 5.876 3.566 8.29-.55 1.317-1.086 2.69-1.129 4.134-.1 4.014 3.835 6.768 7.557 6.863 5.611.103 9.743-6.276 13.799-12.54l1.046-1.618.04 16.123c-2.236 2.22-4.655 3.943-7.573 5.158-2.676 1.113-5.614 1.715-8.798 1.74-4.158.034-8.912-.495-12.251-3.208zm68.7-3.506c1.988.843 4.16 1.283 6.575 1.244 6.024-.098 11.105-1.69 15.826-5.505l-.082-11.373c-3.686 4.457-8.943 9.91-15.042 10.367-1.545.115-3.39-.748-4.544-1.689-1.923-1.568-2.824-3.768-2.784-6.22.049-3.038 1.147-4.888 3.343-6.858-2.057-2.858-3.166-6.083-3.085-9.62.084-3.674 3.09-4.103 6.07-4.258 1.627-.084 3.186.1 4.785.357-.864-1.664-1.706-3.736-.906-5.718l.096-.24v.001c.484-1.211.79-1.974 2.227-2.758-4.846-3.956-8.524-10.456-10.907-19.287-2.335-8.652-3.43-19.56-3.163-32.52-14.644 21.59-36.252 44.765-63.985 46.542.445 2.684.11 4.68-2.344 6.194-1.101.678-2.766.882-4.564.656a13.9 13.9 0 0 1-5.278-1.824c-3.099-1.861-6.45-5.222-6.097-9.138.227-2.531 1.507-4.359 2.974-6.333l-1.908-2.2c-1.461 1.04-3.224 2.584-5.082 2.553-2.503-.042-4.39-1.665-5.473-3.824-1.993-3.966-2.052-8.37-.43-12.474 1.545-3.909 5.323-5.052 9.214-4.63l.717-1.636c-2.092-.794-3.508-2.048-4.424-4.107-3.159.118-6.383.177-9.386 1.282-4.207 1.549-7.632 3.495-10.58 5.704-2.95 2.21-5.437 4.694-7.76 7.309-2.99 3.365-6.22 7.705-6.25 12.4-.016 2.272 1.086 5.127 3.165 6.266 1.794.983 4.093.973 6.089.936 1.755-.032 3.67.037 5.48.192 1.78.153 3.478.391 4.849.699 3.023.678 6.216 2.95 7.405 5.874.693 1.706.437 3.77-.394 5.381-.76 1.475-2.032 2.52-3.277 3.57.932.089 1.84.226 2.749.457 3.144.8 5.423 3.016 7.01 5.766 1.473 2.556.508 7.915-.442 10.57 3.804 2.04 6.543 5.032 6.366 9.57-.187 4.825-2.73 7.906-7.404 9.087-6.309 1.595-12.866-1.717-18.294-4.624.027 4.95.765 10.813 4.921 14.092 3.191 2.517 8.053 2.989 11.98 3.01 5.257.028 9.036-.953 11.9-2.605 2.848-1.643 4.808-3.967 6.426-6.627l.845.515c-1.695 2.786-3.758 5.226-6.78 6.97-3.007 1.734-6.947 2.764-12.395 2.735-4.185-.022-9.19-.543-12.588-3.223-4.645-3.664-5.354-10.182-5.295-15.697l.009-.82c5.554 2.987 12.534 6.955 19.03 5.313 4.242-1.072 6.487-3.78 6.657-8.162.168-4.313-2.604-7.012-6.222-8.857l-.406-.207.171-.42c.951-2.33 1.986-7.836.664-10.128-1.451-2.516-3.516-4.565-6.397-5.296-1.638-.416-3.244-.49-4.918-.605.63-.57 1.254-1.131 1.905-1.68 1.865-1.573 3.379-2.943 3.572-5.516.057-.75-.032-1.51-.311-2.197-1.069-2.627-3.994-4.674-6.704-5.281-1.315-.295-2.967-.525-4.714-.675a53 53 0 0 0-5.383-.192c-3.81.07-7.286-.119-9.24-3.948-1.915-3.753-.873-7.884 1.102-11.389 1.23-2.184 2.838-4.178 4.38-5.913 2.355-2.652 4.886-5.178 7.907-7.441 3.024-2.266 6.53-4.26 10.83-5.843 3.311-1.219 6.894-1.238 10.38-1.366.458 1.136.928 2.054 1.867 2.885.98.867 2.035 1.247 3.244 1.646l-1.446 3.3c-1.98-.263-3.962-.298-5.812.575-1.405.663-2.47 1.78-3.09 3.346-1.52 3.846-1.477 7.948.392 11.668.912 1.815 2.486 3.242 4.605 3.277 1.22.02 2.476-.9 3.765-1.845.486-.356.971-.697 1.47-1.035l3.009 3.468c-1.483 1.978-3.03 3.91-3.26 6.465-.314 3.491 2.881 6.558 5.621 8.204a12.8 12.8 0 0 0 4.89 1.689c1.589.199 3.024.042 3.925-.513.948-.585 1.547-1.241 1.83-2.106.427-1.305.11-2.853-.153-4.171l.573-.031c28.183-1.507 50.095-25.603 64.722-47.545l.957-1.435-.05 1.722c-.399 13.606.677 24.995 3.089 33.935 2.425 8.99 6.198 15.484 11.175 19.246l.67.507-.77.342c-1.708.758-1.973 1.42-2.433 2.572l-.096.24c-.772 1.912.444 4.14 1.318 5.74v-.001l.512.924c-2.181-.367-4.353-.796-6.577-.68-1.53.079-2.849.234-3.76.723-.834.449-1.342 1.221-1.373 2.566-.08 3.484 1.069 6.608 3.16 9.371l.277.367c-1 .874-1.98 1.724-2.677 2.876-.829 1.37-1.113 3.028-.995 4.613.161 2.156 1.177 3.688 2.397 4.684.975.794 2.551 1.562 3.846 1.468 6.626-.497 12.213-7.311 16.084-12.152.035 4.87.075 9.742.105 14.612-2.523 2.074-5.138 3.633-8.246 4.667-2.76.919-5.604 1.312-8.555 1.36-4.897.08-8.943-1.705-12.524-4.972a4 4 0 0 1-.428-.425c.477-.238.874-.354 1.157-.533 1.146.069 1.648 2.189 5.205 3.698z" style="fill:#c39351;fill-rule:evenodd"></path><path d="M323.596 219.22c.082 3.545-1.066 6.783-3.258 9.68 1.844 1.61 3.46 3.295 3.516 6.796.088 5.432-4.67 7.566-6.797 7.407-5.618-.422-10.734-5.21-15.563-11.25l-.093 12.984c5.138 4.222 10.503 5.67 16.313 5.765 4.69.077 8.49-1.602 11.818-4.515-1.988-.99-3.725-3.152-3.725-5.461a5.895 5.895 0 0 1 11.79 0c0 2.358-1.385 4.731-3.862 5.494 3.747 4.016 8.271 6.327 15.808 5.982 4.604-.211 8.759-.418 13.079-2.86l.14-14.437c-2.438 2.624-5.116 5.101-8.204 7.171-4.085 2.74-8.49 2.584-11.343.47-2.694-1.996-3.542-7.994.89-11.345-3.49-3.583-3.441-9.59.329-12.61 2.264-1.812 5.38-1.743 8.11-.937-.751-5.199 2.215-8.425 7.57-8.484 3.289-.036 5.413 1.032 7.242 2.812 2.607-2.267 7.865-2.999 10.5-1.242 2.855 1.903 3.793 5.3 3.328 9.211 6.14-.004 9.19 3.364 9.188 8.344 0 3.078-1.504 5.852-3.492 8.367.532 1.273 1.013 2.644 1.055 4.043.13 4.287-4.094 7.296-8.039 7.37-5.955.114-10.19-6.534-14.367-12.983l-.036 14.25c4.208 4.178 9.547 6.558 15.88 6.61 5.282.041 9.35-.897 12.111-3.244a5.895 5.895 0 1 1 4.05.511l.059.013c3.312 5.447 8.045 9.527 18.75 9.469 5.5-.03 9.57-.975 12.284-3.116q.727-.575 1.335-1.25l-.092-.013.299-.224c2.725-3.204 3.628-7.988 3.565-13.82-5.6 3.012-12.292 6.582-18.665 4.97-3.835-.969-6.829-3.426-7.031-8.624-.136-3.48 1.49-6.767 6.492-9.317-.907-2.219-2.11-7.998-.633-10.559 1.545-2.68 3.727-4.775 6.703-5.531 1.28-.325 2.368-.438 3.845-.539-1.453-1.312-3.158-2.456-4.055-4.195-.747-1.449-1.024-3.371-.375-4.969 1.095-2.693 4.083-4.911 7.055-5.578 2.717-.61 6.792-.943 10.213-.878 2.158.04 4.466.027 6.334-.997 2.213-1.212 3.438-4.194 3.422-6.703-.033-4.862-3.329-9.298-6.376-12.727-4.679-5.267-10.03-10.016-18.538-13.148-3.175-1.169-6.518-1.193-9.88-1.324-.94 2.325-2.453 3.561-4.768 4.324l1.078 2.461c4.366-.58 7.707.857 9.059 4.277 1.659 4.199 1.418 8.432-.41 12.071-1.038 2.064-2.793 3.513-5.04 3.551-1.754.03-3.405-1.53-5.156-2.719l-2.46 2.836c1.773 2.368 2.903 4.033 3.116 6.399.317 3.525-2.66 6.75-5.86 8.672-3.152 1.894-7.33 2.402-9.327 1.171-2.103-1.296-2.67-2.955-2.016-6.234-24.888-1.33-46.721-20.182-65.11-47.765.806 27.487-4.389 45.978-14.459 53.59 2.008.89 2.215 1.658 2.79 3.082.863 2.139-.437 4.5-1.36 6.187 1.954-.328 3.695-.618 5.673-.516 3.186.166 5.53.662 5.601 3.774" style="fill:#e21d23;fill-rule:evenodd"></path><path d="M330.561 246.109c-3.642 3.41-7.82 5.281-12.858 5.199-6.386-.104-11.78-1.842-16.75-5.926l-.26-.213.11-15.31c2.626 3.284 5.262 6.57 8.608 9.166 2.48 1.924 5.04 3.172 7.699 3.372 1.237.093 2.766-.663 3.696-1.42 1.628-1.328 2.374-3.198 2.342-5.27-.026-1.606-.406-2.79-.988-3.753-.717-1.185-1.755-2.059-2.784-2.956l.398-.525c2.062-2.725 3.196-5.803 3.116-9.24-.028-1.253-.495-1.97-1.262-2.382-.876-.47-2.168-.62-3.67-.699-2.328-.12-4.675.366-6.964.75l.723-1.307h.001c.854-1.562 2.042-3.738 1.308-5.557l-.096-.242c-.44-1.1-.693-1.733-2.323-2.456l-1.1-.488.959-.725c4.938-3.732 8.684-10.188 11.097-19.13 2.407-8.923 3.48-20.292 3.083-33.875l-.073-2.461 1.368 2.051c14.585 21.878 36.45 45.947 64.556 47.45l.818.044c-.268 1.347-.642 2.976-.207 4.304.266.813.836 1.434 1.74 1.992.857.528 2.243.675 3.787.482a12.6 12.6 0 0 0 4.807-1.66c2.663-1.6 5.825-4.605 5.519-8.004-.23-2.55-1.84-4.518-3.32-6.493l3.244-3.74c.552.375 1.092.751 1.631 1.146 1.261.923 2.49 1.823 3.637 1.804 2.037-.034 3.543-1.417 4.42-3.16 1.841-3.666 1.88-7.705.382-11.496-1.389-3.513-4.882-4.291-8.309-3.837l-.525.07-1.604-3.66c1.254-.413 2.37-.772 3.392-1.676.965-.854 1.4-1.785 1.867-2.943 3.558.132 7.213.14 10.592 1.384 4.32 1.59 7.845 3.595 10.885 5.873 3.037 2.274 5.576 4.808 7.94 7.469 3.216 3.62 6.517 8.15 6.551 13.194.018 2.728-1.305 5.967-3.787 7.327-2.025 1.11-4.436 1.123-6.685 1.081a53 53 0 0 0-5.363.192c-1.74.15-3.381.378-4.684.67-2.643.594-5.512 2.591-6.554 5.155-.559 1.376-.32 3.083.347 4.379.626 1.214 1.743 2.155 2.854 3.092.78.657 1.525 1.337 2.28 2.02-1.81.123-3.609.184-5.378.633-2.824.717-4.843 2.73-6.266 5.196-1.282 2.223-.246 7.68.677 9.941l.246.602-.58.296c-3.542 1.805-6.271 4.434-6.108 8.66.167 4.287 2.348 6.914 6.497 7.963 6.52 1.648 13.61-2.46 19.187-5.459l.013 1.17c.06 5.59-.67 12.153-5.376 15.865-3.442 2.715-8.477 3.246-12.718 3.269-5.489.029-9.464-1.012-12.502-2.765-2.966-1.71-5.016-4.08-6.697-6.786l-.528-.947 1.422-.3c1.72 2.825 3.596 5.131 6.506 6.81 2.832 1.634 6.577 2.604 11.793 2.576 3.87-.02 8.704-.483 11.85-2.964 4.006-3.161 4.774-8.787 4.837-13.57-5.4 2.882-11.871 6.056-18.13 4.474-4.765-1.204-7.374-4.366-7.565-9.286-.177-4.548 2.511-7.593 6.318-9.678-.93-2.714-1.862-7.98-.365-10.574 1.615-2.8 3.94-5.054 7.14-5.867a18 18 0 0 1 2.284-.41c-1.133-.96-2.244-1.949-2.948-3.313-.86-1.668-1.118-3.795-.402-5.559 1.215-2.988 4.466-5.308 7.556-6.001 1.382-.31 3.09-.55 4.878-.703a54 54 0 0 1 5.5-.192c1.95.036 4.231.05 5.983-.91 2.009-1.101 3.071-3.89 3.057-6.08-.031-4.632-3.249-8.94-6.198-12.26-2.316-2.607-4.793-5.082-7.729-7.28-2.93-2.197-6.337-4.134-10.525-5.674-2.934-1.08-6.09-1.15-9.178-1.265-.908 1.96-2.286 3.205-4.276 4.007l.566 1.292c3.943-.388 7.722.839 9.28 4.78 1.643 4.158 1.581 8.627-.438 12.646-1.121 2.231-3.075 3.898-5.66 3.94-1.879.032-3.591-1.427-5.05-2.48l-1.672 1.927c1.458 1.97 2.688 3.783 2.914 6.303.36 4.007-3.025 7.432-6.2 9.34a14.1 14.1 0 0 1-5.36 1.851c-1.843.232-3.557.02-4.701-.686-2.441-1.505-2.883-3.484-2.48-6.178-27.47-1.88-48.902-24.65-63.513-46.03.213 12.669-.886 23.357-3.183 31.867-2.355 8.73-5.976 15.197-10.74 19.2 1.271.762 1.58 1.532 2.05 2.711h.002l.095.238c.775 1.92.085 3.89-.725 5.524 1.475-.227 2.92-.372 4.418-.294 3.106.16 6.185.655 6.272 4.465.08 3.513-.999 6.734-3.014 9.593 2.163 1.972 3.223 3.882 3.272 6.886.041 2.518-.888 4.777-2.862 6.387-1.197.977-3.093 1.853-4.694 1.736-6-.449-11.147-5.629-14.818-9.998l-.077 10.692c4.667 3.742 9.679 5.297 15.616 5.394 2.384.039 4.527-.395 6.488-1.227 1.974-.838 3.346-1.746 5.02-3.313zm63.874 6.594c-3.393 2.957-8.736 3.888-13.067 3.854-6.319-.05-11.888-2.36-16.373-6.814l-.208-.207.042-16.927 1.434 2.217c4.024 6.214 8.123 12.544 13.616 12.444 3.6-.092 7.449-2.753 7.35-6.646-.043-1.457-.606-2.845-1.161-4.172 1.907-2.411 3.598-5.07 3.599-8.257h-.003v-.013h.003c-.001-2.287-.692-4.195-2.075-5.518l.001-.001c-1.396-1.336-3.524-2.105-6.391-2.106v.003h-.815l.094-.791c.38-3.192-.15-6.628-3.015-8.539l-.003-.002c-1.152-.768-2.915-.994-4.705-.782-1.864.22-3.724.916-4.937 1.971l-.491.427-.467-.455c-1.955-1.902-4.01-2.643-6.744-2.613-4.805.054-7.58 2.793-6.875 7.679l.157 1.09-1.057-.312c-2.44-.72-5.373-.866-7.468.81-.026 0-.444.388-.492.435-2.864 2.79-2.717 7.516-.298 10.535.334.417.713.788 1.085 1.17-.818.619-1.495 1.122-2.123 1.97a6.95 6.95 0 0 0-1.354 4.267c.026 1.57.625 3.483 1.941 4.458 1.348 1 3.084 1.52 4.969 1.441 1.784-.073 3.703-.684 5.56-1.929 2.993-2.006 5.633-4.432 8.08-7.067l1.24-1.336-.161 16.67-.356.2c-4.357 2.463-8.533 2.728-13.394 2.951-6.863.315-12.04-1.408-16.682-6.56l1.18-.772c1.84 2.042 3.728 3.478 6.208 4.53 2.49 1.058 5.47 1.563 9.233 1.39 4.425-.202 8.409-.425 12.407-2.572l.12-12.237c-2.17 2.21-4.513 4.25-7.088 5.977-2.085 1.397-4.258 2.083-6.291 2.167-2.211.091-4.261-.529-5.866-1.718-1.685-1.247-2.479-3.543-2.511-5.571a8.35 8.35 0 0 1 2.804-6.417c-1.507-1.85-2.307-4.118-2.245-6.508.067-2.554 1.14-4.969 3.15-6.574h-.002c2.204-1.765 5.09-1.915 7.75-1.326-.296-5.35 3.3-8.196 8.368-8.252 1.747-.02 3.19.257 4.446.778 1.066.443 1.989 1.056 2.837 1.808 2.741-1.99 7.925-2.85 10.855-.899 1.509 1.005 2.53 2.39 3.123 4.033h.001c.547 1.513.727 3.238.592 5.078 5.467.253 9.113 3.355 9.116 9.02h.003v.012h-.003c-.001 3.188-1.496 6.006-3.389 8.477.49 1.222.953 2.671.953 3.995.088 4.649-4.383 7.907-8.73 8.016h-.006c-5.71.108-9.797-5.397-13.678-11.317l-.029 11.58c4.189 4.061 9.347 6.154 15.18 6.2 4.058.032 8.675-.346 11.778-3.245z" style="fill:#c39351;fill-rule:evenodd"></path><path d="m115.428 592.484-.356-.673 28.92-15.52a5.666 5.666 0 0 1 7.762 2.486l9.141 16.83a5.66 5.66 0 0 1-9.943 5.408l-6.562-12.082-1.899 1.02 6.09 11.414a5.66 5.66 0 0 1-9.984 5.327l-6.077-11.39-4.634 2.486 6.906 12.953a5.66 5.66 0 0 1-9.985 5.325l-9.563-17.938a5.66 5.66 0 0 1 .184-5.646m355.336 9.069c2.919 1.787 4.102 5.604 2.276 8.587-1.827 2.985-5.757 3.668-8.684 1.877-2.918-1.788-4.102-5.605-2.276-8.588 1.828-2.984 5.757-3.668 8.684-1.876m20.142-45.487c3.056 1.555 4.533 5.262 2.946 8.382s-5.45 4.11-8.509 2.555c-3.056-1.555-4.533-5.261-2.945-8.382 1.587-3.12 5.45-4.11 8.508-2.555m-32.5 14.574 2.663.929 2.87-8.727a5.67 5.67 0 0 1 7.134-3.626c2.976.967 4.61 4.171 3.632 7.147l-2.938 8.936 9.918 3.458a5.66 5.66 0 0 1 3.483 7.208 5.66 5.66 0 0 1-7.209 3.483l-28.5-9.937a5.66 5.66 0 0 1-3.525-7.078l5.469-16.97a5.661 5.661 0 0 1 10.777 3.466zm-34.748 37.798a5.67 5.67 0 0 1 8.017 0 5.67 5.67 0 0 1 0 8.017 18.5 18.5 0 0 0-1.845 2.125c-1.623 2.213-2.614 4.833-2.276 7.604.282 2.307 1.442 4.443 3.074 6.075.403.403.835.783 1.295 1.12a9.2 9.2 0 0 0 3.646 1.622 8.84 8.84 0 0 0 4.846-.416c1.477-.566 2.785-1.525 3.722-2.803a7.9 7.9 0 0 0 1.377-3.174 5.675 5.675 0 0 1 6.647-4.473 5.67 5.67 0 0 1 4.475 6.65 19.2 19.2 0 0 1-3.364 7.693c-2.227 3.038-5.302 5.35-8.814 6.694a20.2 20.2 0 0 1-11.071.95c-2.962-.584-5.727-1.825-8.16-3.608a22.5 22.5 0 0 1-2.616-2.238c-3.428-3.429-5.721-7.914-6.31-12.742-.69-5.673 1.045-11.08 4.394-15.65a30 30 0 0 1 2.963-3.446m-28.11 82.888-4.977-3.291-8.93 6.051 1.13 5.212c.702 3.03-1.206 6.09-4.236 6.792-3.037.704-6.098-1.203-6.795-4.243l-7.303-31.871a5.67 5.67 0 0 1 2.349-5.964l1.86-1.253c1.99-1.342 4.614-1.282 6.496.113l27.02 19.263a5.664 5.664 0 0 1 1.235 7.912 5.664 5.664 0 0 1-7.85 1.28m-47.586 18.742 10.327-4.608a5.67 5.67 0 0 1 7.568 2.646c1.354 2.812.169 6.185-2.628 7.558l-17.852 8.768-.344-.726a5.66 5.66 0 0 1-4.523-2.933l-14.48-27.293a5.66 5.66 0 0 1 2.261-7.674 5.66 5.66 0 0 1 7.674 2.26zm-40.124-11.934c-.724-3.033 1.175-6.108 4.208-6.827 3.03-.718 6.098 1.176 6.821 4.204l7.313 30.625c.724 3.033-1.175 6.109-4.208 6.828-3.03.718-6.098-1.176-6.821-4.204zM287.483 715.1l8.958-18.55a5.666 5.666 0 0 1 7.56-2.638 5.666 5.666 0 0 1 2.638 7.562l-14.446 29.917a5.66 5.66 0 0 1-5.709 3.222l-2.124-.224a5.67 5.67 0 0 1-5.073-4.38l-7.438-32.375c-.698-3.035 1.22-6.092 4.256-6.786 3.034-.694 6.087 1.221 6.784 4.254zm-38.043 5.684.053-5.966-9.936-4.198-3.758 3.783a5.66 5.66 0 0 1-8.004.142 5.66 5.66 0 0 1-.137-8.01l22.765-23.47a5.66 5.66 0 0 1 6.282-1.274l2.063.878c2.187.93 3.586 3.195 3.44 5.512l-1.457 33.152c-.172 3.107-2.858 5.513-5.966 5.341-3.082-.17-5.474-2.814-5.345-5.89m-67.033-55.381 8.822 8.82a5.67 5.67 0 0 1 0 8.018 5.67 5.67 0 0 1-8.017 0l-14.63-14.63.547-.546a5.66 5.66 0 0 1 1.27-5.252l20.374-22.53a5.664 5.664 0 0 1 7.99-.4 5.665 5.665 0 0 1 .4 7.989zm-26.4-23.393-6.674-8.28-5.698 1.91a5.66 5.66 0 0 1-7.12-3.66 5.667 5.667 0 0 1 3.65-7.116l31.72-10.312a5.67 5.67 0 0 1 6.154 1.842l1.403 1.75a5.695 5.695 0 0 1 .409 6.51l-17.364 28.482c-1.62 2.658-5.126 3.507-7.783 1.886s-3.505-5.125-1.885-7.782zm-33.547-97.536a5.7 5.7 0 0 1 1.56-.222l13.463-1.918a5.67 5.67 0 0 1 6.403 4.784L145.7 559.4c.495 3.349.105 6.81-1.673 9.747q-.118.196-.251.381c-1.84 2.802-4.602 4.518-7.817 5.36q-.907.238-1.842.326c-3.39.324-6.667-.857-9.283-2.98a15 15 0 0 1-1.309-1.2c-1.753 1.617-3.58 3.14-5.429 4.668-.873.722-1.757 1.44-2.62 2.173-2.367 2.014-5.957 1.723-7.97-.644s-1.724-5.957.643-7.97q1.354-1.156 2.725-2.29c2.955-2.443 5.835-4.847 8.364-7.717l-.27-2.84-9.95 1.418a5.667 5.667 0 0 1-6.406-4.81 5.67 5.67 0 0 1 4.81-6.406zm258.31 136.524-2.583-1.885.73 3.14zm-130.705 21.768.175-3.193-2.237 2.322zm-87.795-71.03 1.665-2.731-3.07.988zm-31.58-71.645q.067.406.077.816l.087.906c.002.032.012.069.02.1.151.574.646 1.168 1.098 1.534.236.192.75.53 1.075.499a.3.3 0 0 0 .058-.012c.32-.084.926-.282 1.177-.57l.045-.076c.325-.537.252-1.632.162-2.24l-.99-6.703-3.314.472z" style="fill:#fdfdfd;fill-rule:evenodd"></path><path d="M132.29 612.077a2.824 2.824 0 0 1-4.982 2.657l-9.563-17.938a2.823 2.823 0 0 1 1.154-3.815l-.002-.005 26.437-14.187a2.83 2.83 0 0 1 3.899 1.284l9.171 16.888a2.825 2.825 0 0 1-4.96 2.702l-7.909-14.561-21.48 11.526zm336.994-8.107c-1.692-1.035-3.834-.615-4.786.94s-.353 3.654 1.339 4.69c1.69 1.035 3.833.614 4.785-.94.952-1.555.353-3.654-1.339-4.69m20.337-45.377c-1.767-.9-3.87-.311-4.696 1.314-.827 1.624-.064 3.67 1.703 4.57 1.768.899 3.87.31 4.697-1.314s.064-3.67-1.704-4.57m-35.52-2.26a2.826 2.826 0 0 1 5.38 1.727l-4.622 14.346 8 2.79 3.772-11.469a2.83 2.83 0 0 1 5.382 1.75l-3.81 11.582 12.55 4.375a2.826 2.826 0 0 1-1.86 5.337l-28.5-9.937a2.826 2.826 0 0 1-1.761-3.532zm-28.439 54.11a2.835 2.835 0 0 1 4.008 4.008 21 21 0 0 0-2.126 2.453c-2.417 3.298-3.169 6.626-2.803 9.623.364 2.988 1.84 5.695 3.883 7.737q.796.795 1.623 1.401a12 12 0 0 0 4.773 2.117c2.19.432 4.414.214 6.409-.55 1.98-.758 3.732-2.052 4.994-3.774a10.8 10.8 0 0 0 1.873-4.304 2.832 2.832 0 1 1 5.559 1.085 16.4 16.4 0 0 1-2.87 6.563c-1.923 2.623-4.566 4.584-7.54 5.723a17.27 17.27 0 0 1-9.51.816c-2.426-.478-4.824-1.495-7.032-3.114a20 20 0 0 1-2.287-1.955c-2.882-2.882-4.973-6.754-5.5-11.08-.527-4.32.505-9.048 3.866-13.632a27 27 0 0 1 2.68-3.117m-45.653 89.495a2.826 2.826 0 0 1-5.506 1.276l-7.303-31.871a2.83 2.83 0 0 1 1.17-2.98v-.001l1.86-1.252a2.83 2.83 0 0 1 3.267.07l26.994 19.244a2.828 2.828 0 0 1-3.335 4.568l-6.605-4.368-12.086 8.19zm5.689-18.856-12-8.755 3.394 14.587zm-57.178 11.042a2.823 2.823 0 0 1 4.956-2.701l13.251 24.3 12.793-5.71a2.834 2.834 0 0 1 2.46 5.107l-15.272 7.5-.005-.01a2.823 2.823 0 0 1-3.703-1.193zm-17.924 5.352a2.834 2.834 0 0 1 5.514-1.307l7.313 30.626a2.834 2.834 0 0 1-5.515 1.306zm-35.985-.477a2.829 2.829 0 0 1 5.515-1.263l6.401 27.862 12.466-25.816a2.828 2.828 0 0 1 5.094 2.458l-14.46 29.944a2.83 2.83 0 0 1-2.846 1.609l-2.168-.229a2.83 2.83 0 0 1-2.563-2.19zm-40.851 15.434a2.826 2.826 0 0 1-4.067-3.925l22.765-23.47a2.83 2.83 0 0 1 3.137-.64l2.063.878a2.83 2.83 0 0 1 1.719 2.78l-1.456 33.12a2.828 2.828 0 0 1-5.647-.313l.07-7.918-13.448-5.683zm18.914-5.488.815-14.832-10.39 10.786zm-59.798-65.762a2.823 2.823 0 0 1 4.185 3.787l-18.564 20.53 10.728 10.727a2.835 2.835 0 0 1-4.008 4.008l-12.626-12.624.008-.01a2.823 2.823 0 0 1-.097-3.888zm-50.107-8.243a2.826 2.826 0 0 1-1.727-5.381l31.72-10.313a2.83 2.83 0 0 1 3.066.92l1.402 1.75c.772.96.814 2.27.2 3.261l-17.363 28.482a2.828 2.828 0 0 1-4.828-2.945l4.226-6.932-9.162-11.366zm19.823 3.712 7.732-12.684-14.255 4.59zM132.77 589.75a2.824 2.824 0 0 1 4.983-2.658l8.329 15.61a2.824 2.824 0 0 1-4.983 2.657zm-24.151-34.726a2.83 2.83 0 0 1-.797-5.603l15.27-2.175a2.8 2.8 0 0 1 1.1-.156l13.692-1.95a2.83 2.83 0 0 1 3.198 2.392h.002l1.813 12.282c.378 2.56.185 5.423-1.293 7.864q-.076.124-.16.238c-1.231 1.904-3.199 3.442-6.202 4.23q-.692.18-1.392.246c-2.682.256-5.227-.736-7.228-2.36a12.3 12.3 0 0 1-2.794-3.241c-2.465 2.533-4.993 4.623-7.537 6.726-1.18.975-2.372 1.961-2.65 2.198a2.82 2.82 0 0 1-3.654-4.296c1.503-1.28 2.095-1.769 2.695-2.265 3.288-2.718 6.549-5.414 9.494-8.974l-.668-6.991zm19.26 5.456q.058.285.056.575l.098 1.027q.024.26.1.547c.286 1.09 1.04 2.196 2.054 3.018.93.755 2.043 1.223 3.13 1.12q.248-.024.507-.092c1.436-.376 2.332-1.015 2.85-1.778a3 3 0 0 1 .08-.142c.691-1.143.753-2.68.54-4.123l-1.401-9.492-8.786 1.25z" style="fill:#c49250;fill-rule:evenodd"></path><path d="M156.93 295.59H443.17l-.004 4.252-.3 241.2c-.01 6.864-1.488 14.398-4.246 22.282-2.768 7.91-6.84 16.228-12.015 24.612-14.735 23.873-37.852 48.437-62.172 66.465-22.695 16.824-46.622 28.054-66.142 27.977-27.813-.11-64.072-22.04-93.387-50.407-29.708-28.747-52.544-64.389-52.511-90.928l.3-241.2.005-4.252zm277.76 8.504H161.16l-.295 236.949c-.03 24.154 21.694 57.503 49.954 84.849 27.928 27.025 61.99 47.915 87.507 48.015 17.567.07 39.716-10.493 61.06-26.316 23.51-17.427 45.826-41.121 60.012-64.107 4.847-7.852 8.649-15.608 11.218-22.95 2.457-7.022 3.774-13.616 3.78-19.491zM397.168 252.69a5.4 5.4 0 0 0 3.182-1.856v-.002a5.38 5.38 0 0 0 1.25-3.456c0-1.49-.604-2.841-1.581-3.818a5.38 5.38 0 0 0-3.817-1.58c-1.491 0-2.841.604-3.818 1.58a5.38 5.38 0 0 0-1.581 3.818c0 1.082.316 2.087.86 2.928h.001c.59.854 1.508 1.619 2.305 2.108l-.39.792a6.4 6.4 0 0 1-2.748-2.366h.002a6.36 6.36 0 0 1-1.022-3.462c0-1.764.716-3.363 1.872-4.519a6.37 6.37 0 0 1 4.519-1.872c1.764 0 3.363.716 4.519 1.872a6.37 6.37 0 0 1 1.872 4.519 6.37 6.37 0 0 1-1.483 4.092l-.001-.001a6.4 6.4 0 0 1-3.765 2.196z" style="fill:#c59451;fill-rule:evenodd"></path><path d="M332.61 245.94c1.266-.21 2.587-.992 3.292-1.861.782-.965 1.198-2.21 1.198-3.453 0-1.49-.605-2.84-1.581-3.817a5.38 5.38 0 0 0-3.818-1.582c-1.49 0-2.84.605-3.817 1.582a5.38 5.38 0 0 0-1.581 3.817c0 1.07.417 2.113 1.068 3 .723.983 1.742 1.853 2.788 2.276l-.385.837c-1.21-.49-2.37-1.397-3.201-2.528-.77-1.048-1.262-2.292-1.262-3.585 0-1.764.716-3.362 1.872-4.519a6.37 6.37 0 0 1 4.518-1.872c1.765 0 3.363.716 4.52 1.872a6.37 6.37 0 0 1 1.871 4.519c0 1.461-.494 2.931-1.423 4.077-.848 1.048-1.82 1.777-3.346 2.03zM201.542 252.745c.949-.425 2.123-1.402 2.689-2.28.549-.85.87-1.867.87-2.948 0-1.491-.605-2.841-1.582-3.818a5.38 5.38 0 0 0-3.817-1.58h-.006v-.003a5.38 5.38 0 0 0-3.812 1.586 5.38 5.38 0 0 0-1.58 3.808v.006h-.002a5.3 5.3 0 0 0 1.122 3.257c.725.932 2.15 1.88 3.326 2.2l-.494.782c-1.387-.377-2.76-1.274-3.615-2.374a6.28 6.28 0 0 1-1.328-3.865h-.002v-.006c0-1.753.716-3.348 1.871-4.505a6.37 6.37 0 0 1 4.514-1.877v-.002h.006c1.764 0 3.362.716 4.518 1.872a6.37 6.37 0 0 1 1.872 4.519 6.4 6.4 0 0 1-1.028 3.483 6.34 6.34 0 0 1-2.732 2.374z" style="fill:#c39351;fill-rule:evenodd"></path><path d="M226.677 183.73c7.901-5.281 14.956-11.418 21.1-18.49 5.948-6.846 11.045-14.573 15.232-23.25-8.074 1.373-16.052 3.152-23.822 5.503-8.061 2.438-15.89 5.49-23.353 9.338-7.14 3.681-13.54 8.406-17.055 13.808-2.888 4.44-3.816 9.351-1.561 14.524a10 10 0 0 0 .836 1.54c1.874 2.804 4.97 4.029 8.634 4.107 3.748.08 8.086-1.032 12.343-2.887a49.4 49.4 0 0 0 7.646-4.192M332.38 141.99c4.188 8.677 9.285 16.403 15.233 23.25 6.144 7.072 13.199 13.209 21.1 18.49a49.4 49.4 0 0 0 7.646 4.193c4.257 1.855 8.595 2.967 12.343 2.887 3.664-.078 6.76-1.303 8.633-4.107q.47-.7.837-1.54c2.254-5.173 1.327-10.083-1.561-14.524-3.514-5.402-9.916-10.127-17.056-13.808-7.463-3.848-15.291-6.9-23.352-9.338-7.77-2.351-15.749-4.13-23.822-5.503M448.78 197.507c-1.169 1.957-2.953 3.484-5.227 4.617-1.244.62-2.958.92-4.895 1.034-1.894.11-4.012.045-6.109-.07-1.907-.104-3.71.001-5.353.431-1.622.424-3.094 1.168-4.365 2.344-.365.337-.517.709-.535 1.071-.024.492.187.992.458 1.395a11.9 11.9 0 0 0 2.568 2.745c.924.715 1.876 1.227 2.742 1.53 1.167-1.663 2.525-3.168 4.022-4.224 1.396-.984 2.918-1.582 4.524-1.568 2.566.022 4.512.693 6.115 1.754 1.464.969 2.628 2.256 3.712 3.668 2.523-1.504 4.697-3.121 6.573-4.94a28.1 28.1 0 0 0 4.985-6.488c.872-1.553 1.34-3.49 1.548-5.47.278-2.656.088-5.39-.223-7.408a19 19 0 0 0-.823-3.333c-.364-1.05-.825-2.086-1.379-3.174a39.6 39.6 0 0 0-3.295-5.342c-1.22-1.675-2.56-3.274-3.989-4.839-1.5-1.644-3.087-3.123-4.743-4.517s-3.404-2.718-5.215-4.042c-2.22-1.624-4.66-3.063-7.266-4.308a56 56 0 0 0-8.47-3.21c-2.473-.721-5.07-1.35-7.829-1.746a41.8 41.8 0 0 0-8.065-.387l3.326 7.316c6.33.26 12.115 1.918 17.43 4.62 5.389 2.738 10.296 6.554 14.8 11.077 2.142 2.152 3.658 4.443 4.687 6.77 1.176 2.659 1.716 5.367 1.83 7.971.116 2.638-.432 4.868-1.54 6.723" style="fill:#e21d23;fill-rule:evenodd"></path><path d="M451.61 235.531c-1.431 3.95-3.705 7.652-6.402 11.021-3.216 4.017-7.042 7.566-10.752 10.496 1.655.303 3.19.7 4.561 1.305 2.03.896 3.682 2.233 4.801 4.352l.228.432-.228.428c-2.96 5.57-6.134 11.368-9.307 17.164-2.67 4.875-5.34 9.751-8.074 14.861h16.734l-.004 4.252-.3 241.2c-.01 6.864-1.488 14.398-4.246 22.282-2.768 7.91-6.84 16.228-12.015 24.612-14.735 23.873-37.852 48.437-62.172 66.465-22.695 16.824-46.622 28.054-66.142 27.977-27.813-.11-64.072-22.04-93.387-50.407-29.708-28.747-52.544-64.389-52.511-90.928l.3-241.2.005-4.252h16.755l-17.878-32.126-.3-.54.386-.482c1.297-1.612 2.875-2.908 4.688-3.935 1.296-.735 2.714-1.333 4.235-1.812-3.29-2.637-6.438-5.55-9.249-8.893-3.23-3.84-6.004-8.233-8.027-13.4l.409-.16-.559-.114a21 21 0 0 1-.326-.941c-30.333 8.517-56.268 36.104-56.17 68.72l.75 250.195c.256 85.748 128.312 199.799 209.7 200.622 78.657.797 211.082-109.516 211.2-206.173l.3-245.395c.039-31.841-25.308-59.985-56.138-67.285a27 27 0 0 1-.573 1.686q-.15-.012-.293-.027zM137.483 542.333a5.67 5.67 0 0 1 6.403 4.784L145.7 559.4c.495 3.349.105 6.81-1.673 9.747l-.252.381c-1.839 2.802-4.601 4.518-7.816 5.36q-.908.238-1.842.326c-3.39.324-6.667-.857-9.283-2.98a15 15 0 0 1-1.309-1.2c-1.753 1.617-3.58 3.14-5.429 4.668-.873.722-1.757 1.44-2.62 2.173-2.367 2.014-5.957 1.723-7.97-.644s-1.724-5.957.643-7.97q1.354-1.156 2.725-2.29c2.955-2.443 5.835-4.847 8.364-7.717l-.27-2.84-9.95 1.418a5.667 5.667 0 0 1-6.406-4.81 5.67 5.67 0 0 1 4.81-6.406l15.038-2.142a5.7 5.7 0 0 1 1.56-.222zm11.099 59.034a5.66 5.66 0 0 1-9.985 5.327l-6.077-11.39-4.634 2.486 6.906 12.953a5.66 5.66 0 0 1-9.985 5.325l-9.563-17.938a5.66 5.66 0 0 1 .184-5.646l-.356-.673 28.92-15.52a5.666 5.666 0 0 1 7.67 2.307l.092.179 9.141 16.83a5.66 5.66 0 0 1-9.943 5.408l-6.562-12.082-1.899 1.02zm315.357-38.525a5.67 5.67 0 0 1 7.134-3.626c2.976.967 4.61 4.171 3.632 7.147l-2.938 8.936 9.918 3.458a5.66 5.66 0 0 1 3.482 7.208 5.66 5.66 0 0 1-7.208 3.483l-28.5-9.937a5.66 5.66 0 0 1-3.525-7.078l5.469-16.97a5.661 5.661 0 0 1 10.777 3.466l-3.774 11.711 2.663.929zm-1.859 40.587c1.828-2.984 5.757-3.668 8.684-1.876 2.919 1.787 4.102 5.604 2.276 8.587-1.828 2.985-5.757 3.668-8.684 1.877-2.919-1.788-4.102-5.605-2.276-8.588m20.318-44.808c1.587-3.12 5.45-4.11 8.508-2.555 3.056 1.555 4.533 5.262 2.946 8.382s-5.45 4.11-8.509 2.555c-3.056-1.555-4.533-5.261-2.945-8.382m-58.74 49.817a5.67 5.67 0 0 1 8.017 0 5.67 5.67 0 0 1 0 8.017 18.5 18.5 0 0 0-1.845 2.125c-1.623 2.213-2.614 4.833-2.276 7.604.282 2.307 1.442 4.443 3.074 6.075.403.403.835.783 1.295 1.12a9.2 9.2 0 0 0 3.646 1.622 8.84 8.84 0 0 0 4.846-.416c1.477-.566 2.785-1.525 3.722-2.803a7.9 7.9 0 0 0 1.377-3.174 5.675 5.675 0 0 1 6.647-4.473 5.67 5.67 0 0 1 4.475 6.65 19.2 19.2 0 0 1-3.364 7.693c-2.227 3.038-5.302 5.35-8.814 6.694a20.2 20.2 0 0 1-11.071.95c-2.962-.584-5.727-1.825-8.16-3.608a22.5 22.5 0 0 1-2.616-2.238c-3.428-3.429-5.721-7.914-6.31-12.742-.69-5.673 1.045-11.08 4.394-15.65a30 30 0 0 1 2.963-3.446m-48.516 54.434 27.02 19.263a5.664 5.664 0 0 1 1.235 7.912 5.664 5.664 0 0 1-7.85 1.28l-4.976-3.292-8.93 6.051 1.13 5.212c.702 3.03-1.206 6.09-4.236 6.792-3.037.704-6.098-1.203-6.795-4.243l-7.303-31.871a5.67 5.67 0 0 1 2.349-5.964l1.86-1.253c1.99-1.342 4.614-1.282 6.496.113m-46.85 22.934a5.66 5.66 0 0 1 7.673 2.26l11.997 22.002 10.327-4.608a5.67 5.67 0 0 1 7.568 2.646c1.354 2.812.169 6.185-2.628 7.558l-17.852 8.768-.344-.726a5.66 5.66 0 0 1-4.523-2.933l-14.48-27.293a5.66 5.66 0 0 1 2.261-7.674m-16.246 5.5c3.03-.717 6.098 1.177 6.821 4.205l7.313 30.625c.724 3.033-1.175 6.109-4.208 6.828-3.03.718-6.098-1.176-6.821-4.204l-7.313-30.626c-.724-3.033 1.175-6.108 4.208-6.827m-35.94-.46c3.033-.693 6.086 1.223 6.783 4.255l4.594 19.999 8.958-18.55a5.666 5.666 0 0 1 7.56-2.639 5.666 5.666 0 0 1 2.638 7.562l-14.446 29.917a5.66 5.66 0 0 1-5.709 3.222l-2.125-.224a5.67 5.67 0 0 1-5.072-4.38l-7.438-32.375c-.698-3.035 1.22-6.092 4.256-6.786m-17.338-8.178c2.187.93 3.586 3.195 3.44 5.512l-1.457 33.152c-.172 3.107-2.858 5.513-5.966 5.341-3.082-.17-5.474-2.814-5.345-5.89l.053-5.966-9.936-4.198-3.758 3.783a5.66 5.66 0 0 1-8.004.142 5.66 5.66 0 0 1-.137-8.01l22.765-23.47a5.66 5.66 0 0 1 6.282-1.274zm-67.995-43.386a5.664 5.664 0 0 1 7.99-.4 5.665 5.665 0 0 1 .4 7.989l-16.756 18.53 8.822 8.822a5.67 5.67 0 0 1 0 8.017 5.67 5.67 0 0 1-8.017 0l-14.63-14.63.547-.546a5.66 5.66 0 0 1 1.27-5.252zm-12.734-22.89 1.403 1.75a5.695 5.695 0 0 1 .409 6.51l-17.364 28.483c-1.62 2.658-5.126 3.507-7.783 1.886s-3.505-5.125-1.885-7.782l3.188-5.23-6.674-8.28-5.698 1.91a5.66 5.66 0 0 1-7.12-3.66 5.667 5.667 0 0 1 3.65-7.116l31.72-10.312a5.67 5.67 0 0 1 6.154 1.842" style="fill:#1f1e58;fill-rule:evenodd"></path><path d="M452.114 229.434c16.888 3.67 32.307 13.26 43.37 26.284 10.728 12.63 17.385 28.524 17.365 45.439l-.3 245.395q-.002.511-.006.98c-.5 49.348-34.079 101.784-77.518 141.787-43.393 39.962-96.87 67.695-137.166 67.646q-.411 0-.78-.004c-42.836-.434-97.972-31.15-141.433-72.73-41.342-39.553-72.34-89.135-72.468-132.129l-.75-250.195c-.051-17.01 6.5-32.691 16.97-45.31 11.111-13.394 26.678-23.368 43.442-27.808l2.159 8.205c-15.06 3.989-29.056 12.962-39.058 25.017-9.28 11.186-15.087 25.003-15.043 39.896l.75 250.196c.121 40.527 29.997 87.892 69.845 126.015 42.059 40.239 94.988 69.96 135.653 70.372q.376.004.713.004c38.19.046 89.453-26.774 131.419-65.42 41.92-38.605 74.32-88.834 74.795-135.609q.005-.478.005-.913l.3-245.395c.018-14.794-5.876-28.778-15.372-39.958-9.879-11.63-23.632-20.19-38.687-23.46z" style="fill:#c59451;fill-rule:evenodd"></path><path d="m137.293 560.633-1.401-9.493-8.786 1.25.773 8.09q.057.285.055.576l.098 1.026q.024.26.1.548c.286 1.088 1.04 2.195 2.054 3.017.93.755 2.043 1.223 3.13 1.12q.248-.024.507-.092c1.436-.376 2.332-1.015 2.85-1.778l.08-.142c.691-1.143.753-2.68.54-4.123m-4.188 3.3q-199.657-845.9 0 0" style="display:inline;fill:#1f1e58;fill-rule:evenodd"></path><path d="m137.293 560.633-1.401-9.493-8.786 1.25.773 8.09q.057.285.055.576l.098 1.026q.024.26.1.548c.286 1.088 1.04 2.195 2.054 3.017.93.755 2.043 1.223 3.13 1.12q.248-.024.507-.092c1.436-.376 2.332-1.015 2.85-1.778l.08-.142c.691-1.143.753-2.68.54-4.123m-3.794-6.29.99 6.703c.09.609.163 1.704-.162 2.241l-.045.076c-.25.288-.856.486-1.177.57l-.057.012c-.327.03-.84-.307-1.076-.499-.452-.366-.947-.96-1.097-1.534l-.022-.1-.086-.906a6 6 0 0 0-.078-.816l-.504-5.274z" style="display:inline;fill:#fff;fill-rule:evenodd;fill-opacity:1"></path><path d="m163.935 629.004-3.07.988 1.405 1.743zM250.24 699.572l-2.237 2.322 2.062.871zM378.187 679.112l.73 3.14 1.854-1.255zM181.347 295.59h233.33c-16.271-4.438-33.096-7.702-50.182-9.947-22.054-2.897-44.54-4.096-66.837-3.931-21.47.158-42.793 1.152-63.835 3.697-17.736 2.146-35.257 5.396-52.476 10.181" style="fill:#1f1e58;fill-rule:evenodd"></path><path d="M297.475 141.468a8.97 8.97 0 0 0 6.36-2.634 8.97 8.97 0 0 0 2.634-6.36 8.97 8.97 0 0 0-2.635-6.36 8.97 8.97 0 0 0-6.36-2.634 8.97 8.97 0 0 0-6.36 2.634 8.97 8.97 0 0 0-2.634 6.36 8.97 8.97 0 0 0 2.635 6.36 8.97 8.97 0 0 0 6.36 2.634" style="fill:#e21d23;fill-rule:evenodd" data-source="https://football-logos.cc"></path><!-- source: https://football-logos.cc --></svg>