<svg xmlns="http://www.w3.org/2000/svg" viewBox="64.95 92.08 465.37 657.73"><!-- Source: https://football-logos.cc --><path d="m299.788 97.208 228.7 327.648 1.727 2.475-1.778 2.441-229.45 315.195-3.446 4.735-3.413-4.752L66.803 431.18l-1.742-2.426 1.676-2.44L292.812 97.241l3.472-5.053zm220.03 330.023L296.348 107.079 75.422 428.658l220.17 306.59z" style="fill:#fff;fill-rule:evenodd;stroke:#0653b9;stroke-width:.21600001;stroke-linecap:butt;stroke-linejoin:miter;stroke-dasharray:none" data-source="https://football-logos.cc"></path><path d="M239.232 270.557c-3.846 6.163-9.556 6.154-15.057 6.38-6.884.284-12.933-.088-22.804-2.325 2.634 5.25 6.838 9.726 12.471 13.576l-18.428 5.93c3.853 3.867 13.95 9.784 29.548 9.334 10 0 18.16-6.462 25.442-13.609l-10.052-19.286c13.69-8.771 33.083-14.117 51.571-15.085l-.088 29.94c-4.79 1.458-7.865 4.575-7.865 8.54 0 4.578 2.068 8.893 8.058 9.847l-.005 7.581h11.079l-.001-7.398c5.99-.955 8.21-5.452 8.21-10.03 0-3.965-3.406-6.916-8.196-8.374l-.006-30.102c18.942.899 31.6 5.063 51.434 14.586l-10.31 19.781c7.281 7.147 15.442 13.609 25.441 13.609 15.599.45 25.696-5.467 29.549-9.334l-18.428-5.93c5.632-3.85 9.837-8.325 12.47-13.576-9.87 2.237-15.92 2.609-22.803 2.325-5.535-.227-11.282-.217-15.127-6.493l.238.115 14.282-28.765-1.158-.664c-15.554-12.582-40.56-19.255-65.595-19.857v-.368c3.91-1.114 7.065-3.296 7.252-9.001-.07-4.888-2.833-8.057-7.252-8.465v-3.592c0-2.74-.12-6.271 5.506-6.271 6.597 0 11.946 7.97 11.946 7.97s.866-2.822-.891-5.737c-9.298-15.429-15.804-32.897-22.213-46.56-7.908 18.35-17.088 36.065-21.65 46.092-1.35 2.964-1.407 5.548-1.407 5.548s5.115-7.313 11.71-7.313c5.628 0 5.921 3.417 5.921 6.157v3.685c-3.902.97-7.146 3.762-7.1 8.486-.046 5.192 2.793 8.29 7.1 9.115v.25c-23.492.717-49.571 8.577-69.54 20.038zM238.767 610.382s4.63 1.662 11.652 1.66c9.265-.002 9.898-1.958 11.677-4.382l-.072.038-10.939-17.898c14.632-8.02 29.194-12.164 40.938-13.098v-25.06l11.08-.019v25.028c10.798.743 23.842 4.274 39.304 13.736l-8.534 17.748c1.56 2.2 2.684 3.906 11.336 3.907 7.021.001 11.651-1.66 11.651-1.66-.825 6.724-7.066 8.581-7.066 8.581s5.811 3.222 11.685 3.222c0 0-5.41 7.189-19.332 5.967-7.085-.621-14.313-4.494-14.313-8.98 0-3.864 3.98-9.928 5.087-11.54-5.904-3.071-17.544-8.295-29.82-9.485v20.378c0 1.242-1.78 2.57-3.059 3.173v4.404l4.184 1.418c.44.15.758.619.74 1.235a1.25 1.25 0 0 1-.74 1.103c-1.47.623-2.79 1.228-4.184 1.842v4.362c3.585.895 7.742 3.2 7.742 6.95 0 1.05-9.056 34.78-10.117 37.608-1.06-2.828-10.042-36.56-10.042-37.607 0-3.751 4.156-6.056 7.743-6.95v-4.505c-1.395-.506-3.024-1.085-4.185-1.7-.41-.217-.6-.79-.6-1.253 0-.414.234-.894.6-1.085 1.305-.682 2.796-.999 4.185-1.418v-4.404c-1.279-.603-3.344-1.706-3.344-2.947v-20.467c-12.38 1.39-23.871 6.207-29.467 9.132.829 1.186 5.237 7.69 5.237 11.755 0 4.487-7.228 8.36-14.313 8.981-13.922 1.222-19.332-5.967-19.332-5.967 5.874 0 11.685-3.222 11.685-3.222s-6.241-1.857-7.066-8.58z" style="fill:none;stroke:#1b1918;stroke-width:.21600001;stroke-linecap:butt;stroke-linejoin:miter;stroke-dasharray:none"></path><path d="m243.847 242.955-7.479 3.21-1.252-2.641 11.557-4.962.868 1.832-2.737 14.98 8.288-3.56 1.252 2.642-12.411 5.33-.848-1.79zm18.316 9.221c-4.96 1.307-9.056-1.726-10.444-6.438-1.432-4.864.474-9.65 5.58-10.995 4.98-1.312 9.06 1.644 10.463 6.41 1.459 4.954-.397 9.654-5.558 11.011zm-.68-2.784c3.311-.871 3.793-4.356 2.948-7.228-.836-2.838-3.237-5.485-6.45-4.638-3.34.88-3.82 4.364-2.966 7.26.827 2.806 3.277 5.449 6.428 4.618zm16.39-10.351c1.12.53 1.905 1.58 2.466 2.73.43.884.86 1.774 1.316 2.646.222.425.52 1.017.824 1.387l.602.732-3.478.686-.215-.231c-.668-.721-1.593-2.844-2.015-3.76-.774-1.684-1.55-2.426-3.432-2.129l-1.467.288 1.492 6.94-3.276.64-3.609-16.78.44-.18c1.3-.532 2.804-.935 4.18-1.204 1.826-.358 3.858-.502 5.543.434 1.19.66 1.968 1.842 2.252 3.159.393 1.828-.294 3.503-1.623 4.642m-5.974-.326 1.666-.327c1.587-.312 3.066-1.31 2.68-3.108-.416-1.933-2.153-2.103-3.83-1.774-.463.09-1.051.22-1.55.396zm23.366 1.41a93 93 0 0 1-.243-4.18l-.29-7.429 3.215-.104.678 17.468-3.108.103-5.925-8.36a63 63 0 0 1-2.233-3.332c.1 1.463.162 2.927.219 4.392l.294 7.55-3.214.104-.677-17.468 3.307-.108 5.95 8.332a52 52 0 0 1 2.027 3.033m12.076 6.784c-5.102-.42-7.87-4.564-7.436-9.494.443-5.044 4.025-8.855 9.254-8.434 5.143.414 7.92 4.503 7.483 9.473-.453 5.146-3.945 8.886-9.257 8.46l-.02-.001zm.36-2.833c3.39.27 5.187-2.808 5.451-5.813.259-2.943-1.019-6.177-4.334-6.443-3.425-.276-5.211 2.8-5.479 5.834-.257 2.922 1.068 6.156 4.358 6.421zm13.407-10.227-5.084-1.051.647-2.862 13.488 2.787-.648 2.862-5.109-1.057-3.218 14.22-3.294-.678zm17.068 4.46-7.724-2.61 1.01-2.733 11.961 4.041-.708 1.927-12.813 8.964 8.566 2.892-1.01 2.733-12.85-4.34.694-1.88zm6.822 12.478-3.612 4.204-3.271-1.194 12.429-14.223 3.237 1.18-.834 18.457-3.317-1.21.255-5.428zm5.141-1.102.173-4.214q.04-.573.1-1.143-.367.468-.751.927l-2.815 3.229z" style="fill:#c83637;fill-rule:evenodd"></path><path d="m241.676 257.918 2.904-15.814-.03-.067-7.903 3.392-.767-1.616 10.514-4.514.556 1.173-2.878 15.754.03.067 8.712-3.742.766 1.616-11.369 4.882zM262.019 251.628c-4.373 1.152-8.35-1.278-9.756-6.05-1.474-5.006.786-9.13 5.181-10.287 4.52-1.19 8.397 1.343 9.774 6.021 1.59 5.404-.998 9.21-5.176 10.31zm-.392-1.688c3.37-.886 4.4-4.359 3.347-7.936-.923-3.135-3.597-5.96-7.138-5.026s-4.37 4.554-3.365 7.968c.979 3.32 3.786 5.884 7.132 5.002zM267.735 232.535c1.049-.43 2.61-.886 4.076-1.173 2.311-.453 3.92-.322 5.158.374.969.53 1.701 1.524 1.972 2.782.45 2.09-.666 3.771-2.284 4.683l.015.071c1.36.178 2.377 1.167 3.157 2.747 1.027 2.126 1.756 3.591 2.212 4.145l-2.237.441c-.37-.4-1.04-1.702-1.916-3.612-.973-2.11-2.072-2.761-4.05-2.448l-2.04.4 1.492 6.939-2.162.423zm3.727 6.844 2.212-.435c2.312-.454 3.518-1.954 3.125-3.784-.445-2.066-2.204-2.66-4.492-2.21-1.045.203-1.745.44-2.096.609zM285.202 245.753l-.633-16.336 2.435-.08 5.773 8.085c1.318 1.876 2.398 3.538 3.249 5.21l.075-.027c-.288-2.174-.415-4.162-.512-6.682l-.268-6.859 2.081-.067.634 16.335-2.232.075-5.75-8.112c-1.261-1.78-2.476-3.607-3.38-5.35l-.075.028c.206 2.055.307 4.016.413 6.732l.27 6.98zM307.406 246.346c-4.527-.364-7.37-3.949-6.936-8.881.454-5.168 4.092-8.286 8.643-7.919 4.678.376 7.39 4.026 6.964 8.858-.491 5.583-4.322 8.292-8.646 7.946zm.251-1.705c3.491.279 5.735-2.632 6.06-6.329.285-3.239-1.19-6.764-4.854-7.057-3.669-.297-5.776 2.82-6.088 6.35-.302 3.43 1.394 6.755 4.857 7.033zM321.788 233.41l-5.084-1.05.397-1.757 12.378 2.558-.398 1.756-5.109-1.057-3.218 14.221-2.184-.45zM325.773 247.666l13.574-9.483.024-.068-8.185-2.766.616-1.67 10.888 3.679-.446 1.214-13.509 9.451-.024.071 9.023 3.046-.617 1.67-11.776-3.977zM344.824 250.12l-3.612 4.204-2.126-.776 11.629-13.309 2.48.906-.779 17.268-2.2-.801.254-5.429zm5.85.363.204-4.974c.075-1.12.21-2.114.33-3.084l-.07-.025a38 38 0 0 1-1.905 2.482l-3.358 3.851z" style="fill:#c83637;fill-rule:evenodd"></path><path d="M225.635 356.823c-5.047-3.886-8.948-6.461-12.49-8.053-3.477-1.562-6.637-2.181-10.256-2.181l-.012-.004c-6.142-.077-10.932 3.068-14.418 7.558-4.625 5.957-6.98 14.236-7.202 20.643-.153 4.41 1.54 9.295 4.43 14.352 2.945 5.155 7.113 10.459 11.837 15.618l.021.021c1.24 1.436 2.453 2.83 3.627 4.182 6.65 7.651 12.113 13.938 15.041 18.682 3.947 6.406 6.796 11.768 8.56 17.49 1.772 5.743 2.44 11.808 2.016 19.592-.842 16.417-6.691 31.222-15.452 41.885-8.826 10.742-20.615 17.295-33.252 17.107v.004c-5.333 0-10.406-.225-15.709-1.584-5.305-1.36-10.78-3.85-16.87-8.371l-.465-.346.037-.572 1.918-29.501.145-2.238 1.636 1.528c5.983 5.584 10.479 8.696 14.648 10.399 4.124 1.685 8.009 2.008 12.764 2.008 2.28 0 6.327-1.43 10.201-4.191 2.959-2.108 5.783-4.983 7.59-8.573.867-1.722 1.535-4.024 2.035-6.452.656-3.187 1.018-6.578 1.16-9.192.195-3.587-.48-7.99-2.16-12.588-1.493-4.083-3.778-8.31-6.95-12.245l-.004-.004c-5.944-7.448-11.303-13.382-15.676-18.224-3.785-4.191-6.841-7.575-8.914-10.423-4.986-6.849-8.133-13.45-9.933-20.215-1.797-6.757-2.248-13.662-1.841-21.127.382-7.014 2.175-13.584 4.819-19.604 3.145-7.162 7.49-13.542 12.09-18.962 4.276-5.044 9.065-8.664 14.338-11.027s11.009-3.46 17.185-3.46c4.61 0 9.678.138 14.74 1.2 5.108 1.073 10.173 3.086 14.694 6.84l.428.355-.05.554-2.604 28.376-.175 1.918zm-11.627-9.988c3.34 1.5 6.937 3.8 11.395 7.148l2.376-25.91c-4.105-3.276-8.698-5.066-13.342-6.042-4.851-1.018-9.797-1.15-14.308-1.15-5.891 0-11.341 1.037-16.322 3.269s-9.516 5.666-13.583 10.462c-4.484 5.284-8.714 11.492-11.765 18.438-2.55 5.805-4.278 12.13-4.645 18.865-.395 7.257.038 13.952 1.775 20.48 1.735 6.519 4.774 12.89 9.593 19.51 2.004 2.753 5.027 6.1 8.773 10.247 4.418 4.893 9.832 10.888 15.767 18.324 3.321 4.124 5.718 8.56 7.286 12.847 1.78 4.871 2.494 9.568 2.285 13.419-.147 2.698-.522 6.203-1.202 9.507-.535 2.6-1.262 5.085-2.218 6.984-1.977 3.93-5.045 7.06-8.254 9.345-4.243 3.023-8.796 4.59-11.43 4.59-4.991 0-9.096-.35-13.561-2.174-4.022-1.643-8.274-4.47-13.658-9.306l-1.737 26.715c5.663 4.128 10.751 6.42 15.666 7.68 5.053 1.296 9.983 1.51 15.186 1.51l.012.004c11.967.182 23.175-6.076 31.604-16.335 8.485-10.327 14.152-24.694 14.97-40.648.41-7.524-.228-13.362-1.924-18.861-1.702-5.52-4.48-10.741-8.336-17-2.834-4.591-8.25-10.823-14.842-18.408-1.174-1.351-2.386-2.746-3.627-4.181l.001-.001c-4.827-5.274-9.087-10.697-12.1-15.97-3.073-5.379-4.872-10.634-4.704-15.474.236-6.78 2.735-15.55 7.643-21.872 3.863-4.976 9.207-8.462 16.108-8.38v-.004c3.912 0 7.337.673 11.118 2.372zM257.449 321.254h34.876c22.074 0 37.036 8.794 45.527 25.86 8.393 16.869 10.374 41.829 6.578 74.37-1.845 15.826-3.755 30.522-6.752 43.432-3.014 12.98-7.13 24.147-13.385 32.826-6.283 8.718-14.075 14.636-22.944 18.374-8.84 3.725-18.725 5.278-29.233 5.278h-32.993l.1-1.155 17.167-198.013.085-.972zm34.876 2.126h-33.901L241.44 519.268h30.675c10.252 0 19.864-1.502 28.411-5.104 8.52-3.59 16.006-9.277 22.047-17.66 6.069-8.42 10.082-19.337 13.036-32.062 2.971-12.796 4.872-27.43 6.71-43.198 3.749-32.133 1.833-56.698-6.37-73.183-8.103-16.288-22.44-24.68-43.625-24.68m-8.503 23.34-12.884 147.693h2.575l.029.004c4.726.144 10.395-1.188 15.61-3.927 4.58-2.405 8.796-5.891 11.69-10.407 3.364-5.248 5.761-11.78 7.695-20.453 1.95-8.746 3.427-19.678 4.94-33.655.167-1.545.363-3.135.582-4.912 2.23-18.092 6.797-55.151-11.625-69.81l-.03-.025c-2.173-1.868-4.903-2.991-7.71-3.65-2.858-.67-5.804-.857-8.345-.857zM268.72 495.385l13.07-149.817.085-.972h4.474c2.667 0 5.775.2 8.827.917 3.091.724 6.119 1.977 8.578 4.08 19.357 15.402 14.692 53.251 12.414 71.729-.234 1.902-.444 3.605-.582 4.879-1.519 14.03-3.007 25.028-4.981 33.887-1.99 8.929-4.476 15.68-7.978 21.142-3.106 4.847-7.607 8.576-12.488 11.139-5.527 2.902-11.564 4.316-16.626 4.167v.003h-4.894zM448.034 521.223h-29.154999999999998l-.072-.988-2.773-37.759-35.99.09-9.132 37.844-.196.813h-29.694l.41-1.366 59.312-197.41.233-.777.81.02 21.624.575.916.025.114.905 24.648 196.837.149 1.191zm-27.182-2.126h25.978l-24.385-194.739-19.9-.528-58.667 195.267h25.17l9.13-37.837.195-.808.835-.002 37.813-.094.986-.002.072.987zm-7.472-59.973-5.705-82.5-21.358 82.328zm-3.938-87.718 6.134 88.713.079 1.137-1.142-.007-29.567-.188-1.363-.008.342-1.316 22.966-88.526.206-.797h2.276z" style="fill:#963c65;fill-rule:evenodd"></path><path d="M214.411 428.754c-2.834-4.592-8.25-10.824-14.842-18.409l-3.626-4.182c-4.827-5.274-9.087-10.697-12.1-15.97-3.073-5.379-4.872-10.634-4.704-15.474.236-6.78 2.735-15.55 7.643-21.871 3.863-4.977 9.207-8.463 16.108-8.381v-.004c3.912 0 7.337.674 11.118 2.372 3.34 1.501 6.937 3.8 11.395 7.148l2.376-25.91c-4.105-3.276-8.698-5.066-13.342-6.041-4.851-1.019-9.797-1.15-14.308-1.15-5.891 0-11.341 1.037-16.322 3.268-4.98 2.232-9.516 5.666-13.583 10.462-4.484 5.284-8.714 11.492-11.765 18.439-2.55 5.805-4.278 12.13-4.645 18.864-.395 7.257.038 13.953 1.775 20.48 1.735 6.52 4.774 12.89 9.593 19.51 2.004 2.753 5.027 6.1 8.773 10.248 4.418 4.892 9.832 10.887 15.767 18.324 3.321 4.123 5.718 8.558 7.286 12.847 1.78 4.87 2.494 9.567 2.285 13.418-.147 2.698-.522 6.204-1.202 9.507-.535 2.6-1.262 5.085-2.218 6.984-1.977 3.93-5.045 7.06-8.254 9.346-4.243 3.023-8.796 4.59-11.43 4.59-4.991 0-9.096-.35-13.561-2.175-4.022-1.643-8.274-4.469-13.658-9.306l-1.737 26.715c5.663 4.128 10.751 6.42 15.666 7.68 5.053 1.296 9.983 1.51 15.186 1.51l.012.004c11.967.182 23.175-6.076 31.604-16.335 8.485-10.327 14.152-24.694 14.97-40.647.41-7.525-.228-13.363-1.924-18.862-1.702-5.52-4.48-10.74-8.336-16.999zM386.697 376.579l-42.819 142.518h25.17l9.13-37.837.195-.808.835-.002 37.813-.094.986-.002.072.987 2.773 37.757h25.978l-24.385-194.74-19.9-.528-14.847 49.416h.967v3.334zm-2.772 83.158 22.966-88.526.206-.797h2.276l.069.992 6.134 88.713.079 1.137-1.142-.007-29.567-.188-1.363-.009zM268.71999999999997 495.38500000000005l13.07-149.818.085-.972h4.474c2.667 0 5.775.2 8.827.917 3.091.724 6.119 1.977 8.578 4.08 19.357 15.402 14.692 53.251 12.414 71.729-.234 1.902-.444 3.605-.582 4.879-1.519 14.03-3.007 25.028-4.981 33.887-1.99 8.929-4.476 15.68-7.978 21.142-3.106 4.847-7.607 8.576-12.488 11.139-5.527 2.902-11.564 4.316-16.626 4.17h-4.894zm3.396 23.883c10.252 0 19.864-1.502 28.411-5.104 8.52-3.59 16.006-9.277 22.047-17.66 6.069-8.42 10.082-19.337 13.036-32.062 2.971-12.796 4.872-27.43 6.71-43.198 3.749-32.133 1.833-56.698-6.37-73.183-8.103-16.288-22.44-24.68-43.625-24.68h-33.901L241.44 519.267zM241.126 498.294c-1.282-2.22-2.26-6.82-3.856-7.586-2.049.422-3.005 8.454-5.043 8.758-1.529.463-2.458-2.687-7.733-2.687-1.855 0-2.387 1.623-2.387 1.623s7.466 3.85 7.466 8.494h10.807zM240.182 509.18h-8.966a1.641 1.641 0 1 0 0 3.284h8.681zM239.679 514.981h-8.605a1.642 1.642 0 1 0 0 3.285h8.32zM239.13 521.323h-9.557c0 4.643-7.466 8.494-7.466 8.494s.532 1.623 2.387 1.623c5.275 0 6.204-3.15 7.733-2.688 2.038.305 2.994 8.336 5.043 8.758 2.051-.984 3.08-8.296 5.046-8.758 1.766-.414 1.89 2.688 7.165 2.688 1.857 0 2.388-1.624 2.388-1.624s-6.832-3.81-6.9-8.422h-5.846zM282.581 521.323c0 4.643-7.466 8.494-7.466 8.494s.531 1.623 2.387 1.623c5.275 0 6.204-3.15 7.733-2.688 2.038.305 2.994 8.336 5.043 8.758 2.051-.984 3.08-8.296 5.046-8.758 1.766-.414 1.89 2.688 7.165 2.688 1.856 0 2.388-1.624 2.388-1.624s-6.902-3.85-6.902-8.493zM345.704 378.329c1.223-.366 1.598-1.513 1.598-1.513s-.804-.448-1.864-1.224q.146 1.352.266 2.737M340.458 353.156c.663-4.306 6.844-7.754 6.844-7.754s-.531-1.623-2.388-1.623c-5.275 0-5.399 3.101-7.165 2.687a1 1 0 0 1-.284-.117q.196.38.387.765a62 62 0 0 1 2.606 6.042M366.296 345.402s7.466 3.85 7.466 8.493h15.395c0-2.617 2.192-4.982 4.106-6.548l1.05-3.497a2.8 2.8 0 0 0-.643-.072c-5.275 0-5.399 3.102-7.165 2.688-1.966-.462-2.995-7.774-5.046-8.758-2.048.422-3.005 8.453-5.043 8.758-1.529.463-2.458-2.688-7.733-2.688-1.855 0-2.387 1.624-2.387 1.624M387.516 356.18h-12.11a1.641 1.641 0 1 0 0 3.283h12.11a1.642 1.642 0 0 0 0-3.284M387.374 361.981h-12.11a1.642 1.642 0 1 0 0 3.285h12.11q.28-.001.531-.089l.769-2.557c-.3-.389-.77-.639-1.3-.639M386.96 368.323h-13.197c0 4.643-7.467 8.493-7.467 8.493s.531 1.623 2.387 1.623c5.275 0 6.204-3.15 7.733-2.687 2.038.304 2.994 8.336 5.043 8.758.325-.156.625-.471.906-.893z" style="fill:#fff;fill-rule:evenodd"></path><path d="M182.944 322.215c5.272-2.362 11.008-3.46 17.185-3.46 1.87 0 3.816.022 5.807.12l-7.945-7.495h-18.25a2.843 2.843 0 0 0-2.835 2.835v11.411a37.5 37.5 0 0 1 6.037-3.411M225.635 356.823c-5.047-3.886-8.948-6.461-12.49-8.053-3.477-1.562-6.637-2.181-10.256-2.181l-.012-.004a16.2 16.2 0 0 0-6.85 1.39l53.695 51.17 3.122-36.013-24.07-22.71-1.437 15.658-.176 1.918zM280.144 388.888l-3.161 36.237 32.326 30.807c1.58-8.082 2.86-17.884 4.168-29.957.167-1.544.363-3.134.582-4.912l.02-.158zM337.678 464.916c-1.164 5.015-2.494 9.76-4.047 14.195l15.582 14.85 9.342-31.094-17.397-16.413c-1.002 6.476-2.13 12.65-3.48 18.462M379.93 483.034l-7.886 32.684 33.495 31.92c8.152-3.975 13.922-12.347 13.922-21.851v-4.564h-.582l-.072-.988-.041-.561z" style="fill:#fff;fill-rule:evenodd"></path><path d="M197.175 466.634c.195-3.588-.48-7.99-2.16-12.588-1.493-4.083-3.778-8.31-6.95-12.245l-.004-.004c-4.029-5.048-7.789-9.4-11.155-13.19v66.394c2.351-.25 5.988-1.659 9.484-4.15 2.96-2.108 5.783-4.983 7.59-8.573.867-1.722 1.535-4.023 2.035-6.452.656-3.187 1.019-6.578 1.16-9.191z" style="fill:#e52c2a;fill-rule:evenodd" data-source="https://football-logos.cc"></path><path d="M211.337 506.607c-8.826 10.742-20.615 17.296-33.252 17.107v.004q-.592.001-1.18-.004v2.072c0 13.252 10.843 24.057 24.095 24.095l74.084.209c11.133.031 16.284 8.137 23.063 18 7.51-14.675 12.312-18 23.812-18h73.032c3.748 0 7.333-.884 10.548-2.451l-33.495-31.92-1.132 4.69-.196.814h-29.694l.41-1.366 7.781-25.896-15.582-14.85c-2.467 7.043-5.5 13.306-9.338 18.631-6.283 8.718-14.075 14.636-22.944 18.373a59 59 0 0 1-3.814 1.453 1.64 1.64 0 0 1-1.342.698h-.826c-7.238 2.183-15.055 3.127-23.251 3.127h-27.148c.07 4.612 6.9 8.423 6.9 8.423s-.53 1.623-2.387 1.623c-5.275 0-5.399-3.102-7.165-2.687-1.966.461-2.995 7.773-5.046 8.758-2.049-.422-3.005-8.454-5.043-8.758-1.529-.463-2.458 2.687-7.733 2.687-1.855 0-2.387-1.623-2.387-1.623s7.466-3.85 7.466-8.493h9.556l.094-1.084.171-1.973h-8.32a1.643 1.643 0 0 1 0-3.285h8.605l.218-2.518h-8.68a1.641 1.641 0 1 1 0-3.284h8.965l.198-2.284h-10.807c0-4.643-7.466-8.493-7.466-8.493s.532-1.624 2.387-1.624c5.275 0 6.204 3.15 7.733 2.688 2.038-.304 2.994-8.336 5.043-8.758 1.597.766 2.574 5.367 3.856 7.585l8.595-99.148-53.695-51.171c-2.985 1.326-5.504 3.512-7.567 6.169-4.625 5.957-6.98 14.235-7.202 20.642-.153 4.411 1.54 9.296 4.43 14.353 2.945 5.154 7.113 10.458 11.837 15.618l.021.02 3.627 4.182c6.65 7.652 12.113 13.938 15.041 18.683 3.947 6.405 6.796 11.767 8.56 17.489 1.772 5.743 2.44 11.809 2.016 19.592-.842 16.417-6.691 31.223-15.452 41.885zm66.165 24.833c-1.856 0-2.387-1.624-2.387-1.624s7.466-3.85 7.466-8.493h15.394c0 4.643 6.902 8.494 6.902 8.494s-.532 1.623-2.388 1.623c-5.276 0-5.4-3.102-7.165-2.688-1.966.462-2.995 7.774-5.046 8.758-2.049-.422-3.005-8.453-5.043-8.758-1.529-.462-2.458 2.688-7.733 2.688M344.43 421.485c-1.014 8.7-2.048 17.06-3.272 24.969l17.397 16.413 23.81-79.25c-.281.422-.58.737-.906.893-2.048-.422-3.005-8.454-5.043-8.758-1.529-.463-2.458 2.687-7.733 2.687-1.855 0-2.387-1.623-2.387-1.623s7.467-3.85 7.467-8.493h13.198l.944-3.145a1.6 1.6 0 0 1-.531.088h-12.11a1.643 1.643 0 0 1 0-3.285h12.11c.53 0 1 .25 1.3.64l4.589-15.274c-1.914 1.566-4.106 3.931-4.106 6.548h-15.394c0-4.643-7.467-8.493-7.467-8.493s.532-1.623 2.387-1.623c5.275 0 6.204 3.15 7.733 2.687 2.038-.304 2.995-8.336 5.043-8.758 2.051.985 3.08 8.297 5.046 8.758 1.766.414 1.89-2.687 7.165-2.687.235 0 .45.026.643.07l6.43-21.402.234-.777.81.02 17.674.47v-7.945a2.843 2.843 0 0 0-2.835-2.835H197.992l7.944 7.495c2.915.144 5.925.449 8.933 1.08 5.108 1.073 10.173 3.086 14.693 6.84l.43.355-.052.554-1.166 12.718 24.07 22.71 3.546-40.906.085-.972h35.849999999999994c17.754 0 30.907 5.689 39.793 16.795.186-.18.38-.299.586-.34 1.11.532 1.92 2.92 2.743 5.072a53 53 0 0 1 2.018 3.568q.138.082.284.117c1.766.414 1.89-2.687 7.165-2.687 1.857 0 2.388 1.623 2.388 1.623s-6.181 3.448-6.844 7.754c2.42 6.51 4.071 13.997 4.98 22.436a20 20 0 0 0 1.864 1.224s-.375 1.147-1.598 1.513c1.08 12.437.629 26.844-1.274 43.156m43.086-62.022h-12.11a1.641 1.641 0 1 1 0-3.284h12.11a1.642 1.642 0 0 1 0 3.284" style="fill:#e52c2a;fill-rule:evenodd"></path><path d="M314.079 420.905c2.236-18.149 6.724-55.035-11.645-69.652l-.03-.024c-2.173-1.869-4.903-2.992-7.71-3.65-2.858-.67-5.804-.858-8.345-.858h-2.527l-3.678 42.167zM407.675 376.624l-21.358 82.328 27.063.172zM416.034 482.476l-35.99.09-.114.468 38.836 36.64zM300.842 480.083c3.364-5.247 5.762-11.78 7.695-20.453q.398-1.786.772-3.698l-32.326-30.807-6.045 69.288h2.575l.029.004c4.726.144 10.395-1.188 15.61-3.927 4.58-2.405 8.796-5.891 11.69-10.407z" style="fill:#e52c2a;fill-rule:evenodd"></path><path d="M318.71 592.65c.605-2.767-.837-5.222-3.412-5.786-.65-.142-1.109-.143-1.9.004l1.025-2.495 4.465.978.522-2.385-6.372-1.396-2.93 7.077 2.118 1.104c.801-.645 1.398-.814 2.2-.639 1.297.284 2.05 1.59 1.738 3.02-.335 1.527-1.523 2.386-2.896 2.085-1.221-.267-1.875-1.21-1.822-2.638l-2.538-.556c-.434 2.624 1.427 4.992 3.926 5.539 2.728.597 5.257-1.088 5.875-3.912zM307.967 585.176c.254-2.644-1.573-4.86-4.237-5.117-2.76-.265-4.946 1.447-5.264 4.752l2.546.245c.165-1.71 1.168-2.752 2.51-2.623 1.185.114 1.986 1.173 1.863 2.456-.09.933-.657 1.722-1.93 2.718l-5.579 4.349-.219 2.275 9.294.894.233-2.43-5.657-.545 3.192-2.38c2.366-1.755 3.078-2.825 3.248-4.594M293.926 584.857c.129 1.498-.754 2.632-2.175 2.754-1.362.117-2.446-.868-2.573-2.347s.717-2.61 2.08-2.727c1.42-.122 2.541.84 2.668 2.32m2.595-.144c-.245-2.861-2.568-4.799-5.467-4.55-2.842.243-4.7 2.579-4.443 5.576.224 2.607 2.106 4.445 4.344 4.254.428-.037.696-.119 1.148-.334l-3.025 5.415 3.094-.265 3.272-5.966c.9-1.626 1.195-2.749 1.077-4.13M285.48 596.113l-2.914-14.137-4.324.891.493 2.391 1.78-.366 2.42 11.745z" style="fill:#c83637;fill-rule:evenodd"></path><path d="M303.057 237.63c-.272 3.084 1.163 6.45 4.607 6.727l.015.002c3.552.283 5.477-2.906 5.756-6.072.273-3.104-1.114-6.47-4.595-6.75-3.587-.288-5.501 2.899-5.783 6.092zM273.62 238.666c1.75-.344 3.323-1.484 2.901-3.446-.45-2.1-2.322-2.353-4.16-1.992-.555.109-1.267.268-1.825.496l1.145 5.323zM264.703 242.084c-.88-2.99-3.425-5.72-6.795-4.832-3.503.924-4.066 4.56-3.165 7.614.871 2.958 3.47 5.683 6.78 4.81l.032-.01c3.477-.915 4.04-4.548 3.148-7.583zM349.447 245.068l-3.086 3.54 4.046 1.476.188-4.594c.048-.722.127-1.437.214-2.152q-.654.884-1.362 1.73M292.023 576.702c-11.744.934-26.306 5.079-40.938 13.098l10.939 17.898.072-.038c-1.779 2.424-2.412 4.38-11.677 4.382-7.022.001-11.652-1.66-11.652-1.66.825 6.724 7.067 8.581 7.067 8.581s-5.811 3.222-11.685 3.222c0 0 5.41 7.189 19.331 5.967 7.086-.621 14.314-4.494 14.314-8.98 0-4.066-4.409-10.57-5.237-11.756 5.595-2.926 17.086-7.742 29.466-9.132v20.467c0 1.241 2.066 2.344 3.344 2.947v4.404c-1.389.419-2.88.736-4.184 1.418-.366.191-.6.671-.6 1.084 0 .464.19 1.037.6 1.254 1.161.615 2.79 1.194 4.184 1.7v4.504c-3.586.895-7.742 3.2-7.742 6.95 0 1.048 8.982 34.78 10.042 37.608 1.06-2.829 10.117-36.559 10.117-37.607 0-3.751-4.157-6.056-7.742-6.95V631.7c1.395-.614 2.714-1.22 4.184-1.842.393-.167.725-.592.74-1.104.018-.616-.3-1.085-.74-1.234l-4.184-1.418v-4.404c1.279-.603 3.058-1.931 3.058-3.173l.001-20.378c12.275 1.19 23.916 6.413 29.82 9.485-1.107 1.612-5.087 7.676-5.087 11.54 0 4.486 7.228 8.359 14.313 8.98 13.922 1.222 19.332-5.967 19.332-5.967-5.874 0-11.685-3.222-11.685-3.222s6.241-1.857 7.066-8.58c0 0-4.63 1.66-11.651 1.66-8.653-.003-9.777-1.708-11.336-3.908l8.534-17.748c-15.462-9.462-28.507-12.994-39.305-13.736l.001-17.114c-1.584 2.296-3.196 5.113-4.957 8.553-2.123-3.088-4.086-6.005-6.123-8.555zm-9.088 19.935-2.42-11.746-1.78.367-.493-2.39 4.324-.892 2.913 14.137zm6.143-1.563 3.025-5.415c-.452.215-.72.297-1.148.334-2.238.192-4.12-1.647-4.344-4.254-.257-2.997 1.602-5.333 4.443-5.576 2.899-.249 5.222 1.689 5.467 4.55.118 1.381-.177 2.504-1.077 4.13l-3.272 5.966zm11.934-10.018-2.546-.245c.318-3.305 2.504-5.017 5.264-4.752 2.664.256 4.491 2.473 4.237 5.117-.17 1.77-.882 2.84-3.248 4.593l-3.192 2.381 5.658.545-.234 2.43-9.294-.894.22-2.275 5.578-4.349c1.273-.996 1.84-1.785 1.93-2.718.123-1.284-.678-2.342-1.864-2.456-1.341-.129-2.344.913-2.509 2.623m11.822 11.506c-2.5-.548-4.36-2.915-3.926-5.539l2.538.556c-.053 1.428.6 2.37 1.822 2.638 1.373.3 2.561-.559 2.895-2.085.314-1.431-.44-2.736-1.738-3.02-.801-.175-1.398-.006-2.199.638l-2.118-1.103 2.93-7.077 6.372 1.396-.522 2.385-4.465-.978-1.026 2.494c.792-.146 1.252-.145 1.9-.004 2.576.565 4.018 3.02 3.412 5.786-.618 2.824-3.147 4.51-5.875 3.912z" style="fill:#fff;fill-rule:evenodd"></path><path d="M291.257 582.537c-1.362.117-2.206 1.248-2.08 2.727.127 1.479 1.212 2.464 2.574 2.347 1.42-.122 2.304-1.256 2.175-2.754-.127-1.48-1.248-2.442-2.669-2.32" style="fill:#fff;fill-rule:evenodd"></path><path d="M197.992 311.38h94.03l.006-7.58c-5.99-.955-8.058-5.27-8.058-9.848 0-3.965 3.075-7.082 7.865-8.54l.088-29.94c-18.488.968-37.88 6.314-51.571 15.085l10.052 19.286c-7.281 7.147-15.442 13.609-25.442 13.609-15.598.45-25.695-5.467-29.548-9.334l18.428-5.93c-5.633-3.85-9.837-8.325-12.47-13.576 9.87 2.237 15.919 2.609 22.803 2.325 5.501-.226 11.212-.217 15.057-6.38l-16.747-29.25c19.968-11.461 46.047-19.321 69.539-20.038v-.25c-4.306-.825-7.146-3.923-7.1-9.115-.046-4.724 3.198-7.515 7.1-8.486v-3.685c0-2.74-.293-6.157-5.92-6.157-6.596 0-11.71 7.313-11.71 7.313s.056-2.584 1.406-5.549c4.562-10.026 13.742-27.74 21.65-46.091 6.409 13.663 12.915 31.131 22.213 46.56 1.757 2.915.891 5.736.891 5.736s-5.348-7.97-11.946-7.97c-5.626 0-5.506 3.532-5.506 6.272v3.592c4.419.407 7.182 3.577 7.252 8.465-.187 5.705-3.341 7.887-7.252 9v.369c25.035.602 50.04 7.275 65.595 19.857l1.158.664-14.282 28.765-.238-.115c3.846 6.276 9.592 6.266 15.127 6.493 6.884.284 12.932-.088 22.804-2.325-2.634 5.25-6.838 9.726-12.471 13.576l18.428 5.93c-3.853 3.867-13.95 9.784-29.548 9.334-10 0-18.16-6.462-25.442-13.609l10.31-19.78c-19.833-9.524-32.492-13.688-51.434-14.587l.006 30.102c4.79 1.458 8.196 4.409 8.196 8.374 0 4.578-2.22 9.075-8.21 10.03l.001 7.398h113.524a2.843 2.843 0 0 1 2.835 2.835v7.945l3.95.105.916.025.114.905 24.648 196.837.149 1.191H419.46v4.564c0 9.504-5.77 17.876-13.922 21.852a24 24 0 0 1-10.548 2.451H321.96c-8.804 0-13.682 1.949-18.855 9.447l-.001 17.114c10.798.742 23.842 4.274 39.304 13.736l-8.534 17.748c1.56 2.2 2.684 3.905 11.336 3.907 7.021.001 11.651-1.66 11.651-1.66-.825 6.724-7.066 8.581-7.066 8.581s5.811 3.222 11.685 3.222c0 0-5.41 7.189-19.332 5.967-7.085-.621-14.313-4.494-14.313-8.98 0-3.864 3.98-9.928 5.087-11.54-5.904-3.072-17.545-8.295-29.82-9.485v20.378c0 1.242-1.78 2.57-3.059 3.173v4.404l4.184 1.418c.44.15.758.618.74 1.234a1.25 1.25 0 0 1-.74 1.104c-1.47.623-2.79 1.228-4.184 1.842v4.362c3.585.895 7.742 3.2 7.742 6.95 0 1.05-9.056 34.78-10.117 37.608-1.06-2.828-10.042-36.56-10.042-37.607 0-3.751 4.156-6.056 7.742-6.95v-4.505c-1.394-.506-3.023-1.085-4.184-1.7-.41-.217-.6-.79-.6-1.254 0-.413.234-.893.6-1.084 1.305-.682 2.796-.999 4.184-1.418v-4.404c-1.278-.603-3.343-1.706-3.343-2.947v-20.467c-12.38 1.39-23.871 6.206-29.467 9.132.829 1.186 5.237 7.69 5.237 11.755 0 4.487-7.228 8.36-14.313 8.981-13.922 1.222-19.332-5.967-19.332-5.967 5.874 0 11.685-3.222 11.685-3.222s-6.241-1.857-7.066-8.58c0 0 4.63 1.66 11.65 1.66 9.267-.003 9.9-1.959 11.678-4.383l-.072.038-10.938-17.898c14.631-8.02 29.193-12.164 40.937-13.098v-17.167c-4.468-5.593-9.292-9.423-16.939-9.445L201 549.881c-13.251-.037-24.094-10.842-24.094-24.094v-2.072c-4.905-.036-9.62-.322-14.53-1.58-5.304-1.36-10.78-3.85-16.87-8.371l-.465-.346.038-.572 1.917-29.501.146-2.238 1.635 1.528c5.983 5.584 10.479 8.696 14.648 10.399 4.124 1.685 8.01 2.008 12.765 2.008q.334 0 .716-.04v-66.395a819 819 0 0 0-4.521-5.034c-3.785-4.191-6.841-7.575-8.914-10.423-4.986-6.85-8.133-13.45-9.933-20.216-1.797-6.757-2.248-13.661-1.841-21.127.382-7.013 2.175-13.584 4.82-19.604 3.144-7.16 7.489-13.541 12.089-18.962 2.582-3.045 5.35-5.571 8.3-7.615v-11.41a2.843 2.843 0 0 1 2.835-2.836zm321.825 115.851L296.35 107.079 75.422 428.658l220.17 306.59z" style="fill:#0653b9;fill-rule:evenodd"></path><path d="m235.116 243.524 11.557-4.962.868 1.832-2.737 14.98 8.288-3.56 1.252 2.642-12.411 5.33-.848-1.79 2.762-15.041-7.479 3.21zm-12.631-2.217 16.747 29.25c-3.846 6.163-9.556 6.154-15.057 6.38-6.884.284-12.933-.088-22.804-2.325 2.634 5.25 6.838 9.726 12.471 13.576l-18.428 5.93c3.853 3.867 13.95 9.784 29.548 9.334 10 0 18.16-6.462 25.442-13.609l-10.052-19.286c13.69-8.771 33.083-14.117 51.571-15.085l-.088 29.94c-4.79 1.458-7.865 4.575-7.865 8.54 0 4.578 2.068 8.893 8.058 9.847l-.005 7.581h11.079l-.001-7.398c5.99-.955 8.21-5.452 8.21-10.03 0-3.965-3.406-6.916-8.196-8.374l-.006-30.102c18.942.899 31.6 5.063 51.434 14.586l-10.31 19.781c7.281 7.147 15.442 13.609 25.441 13.609 15.599.45 25.696-5.467 29.549-9.334l-18.428-5.93c5.632-3.85 9.837-8.325 12.47-13.576-9.87 2.237-15.92 2.609-22.803 2.325-5.535-.227-11.282-.217-15.127-6.493l.238.115 14.282-28.765-1.158-.664c-15.554-12.582-40.56-19.255-65.595-19.857v-.368c3.91-1.114 7.065-3.296 7.252-9.001-.07-4.888-2.833-8.057-7.252-8.465v-3.592c0-2.74-.12-6.271 5.506-6.271 6.597 0 11.946 7.97 11.946 7.97s.866-2.822-.891-5.737c-9.298-15.429-15.804-32.897-22.213-46.56-7.908 18.35-17.088 36.065-21.65 46.092-1.35 2.964-1.407 5.548-1.407 5.548s5.115-7.313 11.71-7.313c5.628 0 5.921 3.417 5.921 6.157v3.685c-3.902.97-7.146 3.762-7.1 8.486-.046 5.192 2.793 8.29 7.1 9.115v.25c-23.492.717-49.571 8.577-69.54 20.038m39.678 10.87c-4.96 1.306-9.056-1.727-10.444-6.439-1.432-4.864.474-9.65 5.58-10.995 4.98-1.312 9.06 1.644 10.463 6.41 1.459 4.954-.397 9.654-5.558 11.011zm8.527-3.206-3.609-16.78.44-.18c1.3-.533 2.804-.936 4.18-1.205 1.826-.358 3.858-.502 5.543.434 1.19.66 1.968 1.842 2.252 3.159.393 1.828-.294 3.503-1.623 4.642 1.12.53 1.905 1.58 2.466 2.73.43.884.86 1.774 1.316 2.646.222.425.52 1.017.824 1.387l.602.732-3.478.686-.215-.231c-.668-.721-1.593-2.844-2.015-3.76-.774-1.684-1.55-2.426-3.432-2.129l-1.467.288 1.492 6.94zm13.968-2.634-.677-17.468 3.307-.108 5.95 8.332a52 52 0 0 1 2.027 3.033 93 93 0 0 1-.243-4.181l-.29-7.429 3.215-.104.678 17.468-3.108.104-5.925-8.361a63 63 0 0 1-2.233-3.332c.1 1.463.162 2.927.219 4.392l.294 7.55zm22.683.573c-5.102-.42-7.87-4.565-7.436-9.495.443-5.044 4.025-8.855 9.254-8.434 5.143.414 7.92 4.503 7.483 9.473-.453 5.146-3.945 8.886-9.257 8.46l-.02-.001zm13.843 1.839-3.294-.679 3.218-14.221-5.084-1.051.647-2.862 13.488 2.787-.648 2.862-5.109-1.057zm3.423.435.695-1.881 12.874-8.993-7.724-2.61 1.01-2.734 11.961 4.041-.708 1.927-12.813 8.964 8.566 2.892-1.01 2.733zm13.508 4.613 12.429-14.223 3.237 1.18-.834 18.457-3.317-1.21.255-5.428-4.887-1.786-3.612 4.204z" style="fill:#fff;fill-rule:evenodd" data-source="https://football-logos.cc"></path><!-- source: https://football-logos.cc --></svg>