<svg xmlns="http://www.w3.org/2000/svg" viewBox="9.1 92.99 577.08 655.91"><!-- Source: https://football-logos.cc --><path d="M480.466 163.241q-2.913 8.655.067 15.195 2.98 6.542 10.01 8.911c4.778 1.608 9.26 1.253 13.478-1.055q6.31-3.468 9.422-12.71c1.311-3.894 1.799-7.52 1.459-10.866-.341-3.345-1.513-6.25-3.51-8.698-2.007-2.453-4.583-4.215-7.741-5.278q-6.731-2.265-13.141.721c-4.274 1.991-7.621 6.58-10.044 13.78M92.154 190.88l11.814-4.386c2.031-.754 3.427-1.36 4.197-1.822 1.341-.786 2.396-1.668 3.142-2.636q1.117-1.45 1.412-3.539c.2-1.393.013-2.843-.549-4.356-.66-1.777-1.682-3.144-3.086-4.118-1.393-.978-2.992-1.427-4.8-1.358-1.798.064-4.215.66-7.23 1.779l-10.974 4.074zm-8.14-21.927 10.258-3.808c2.782-1.033 4.71-1.962 5.779-2.773 1.425-1.069 2.333-2.31 2.729-3.714s.292-2.935-.327-4.602c-.586-1.579-1.477-2.83-2.682-3.74-1.197-.925-2.587-1.351-4.153-1.273-1.566.08-4.055.752-7.455 2.014l-9.484 3.521zm3.913 29.827L70.32 151.35l17.797-6.607c3.622-1.344 6.702-1.947 9.255-1.803q3.814.225 6.782 2.533c1.985 1.524 3.378 3.381 4.19 5.567.75 2.02.907 4.136.477 6.33q-.644 3.292-3.357 6.183c3.182-.226 5.923.39 8.211 1.851 2.296 1.447 3.958 3.556 4.983 6.316.828 2.23 1.12 4.471.89 6.73-.23 2.258-.843 4.157-1.838 5.707-1 1.539-2.442 2.966-4.32 4.267-1.89 1.304-4.342 2.516-7.368 3.639zm48.77-39.039 16.623-4.576-8.81-12.123c-2.664-3.688-4.757-6.764-6.3-9.222a72 72 0 0 1-.107 10.131zm-8.519 23.893 5.282-53.93 7.096-1.954 33.29 43.31-7.347 2.023-9.713-13.23-20.54 5.656-1.221 16.24zm54.11-43.05L196.42 138c3.012-.55 5.295-1.292 6.872-2.227 1.579-.923 2.683-2.155 3.3-3.692.63-1.528.799-3.092.504-4.702-.43-2.351-1.632-4.143-3.612-5.35-1.98-1.205-4.806-1.467-8.479-.795l-15.731 2.878zm-1.518 29.011-9.103-49.767 22.057-4.035c4.437-.812 7.89-.976 10.36-.506q3.702.705 6.39 3.716c1.791 2.007 2.933 4.384 3.433 7.118.646 3.533.044 6.72-1.796 9.559-1.839 2.838-5.08 5.012-9.733 6.545 1.902.514 3.375 1.107 4.427 1.752 2.245 1.41 4.469 3.29 6.657 5.63l11.086 11.98-8.225 1.505-8.474-9.153c-2.46-2.65-4.465-4.643-5.995-6.003-1.541-1.358-2.855-2.256-3.956-2.713a10.3 10.3 0 0 0-3.242-.771c-.769-.015-2 .126-3.703.438l-7.623 1.394 4.043 22.103zm59.383-30.17 17.18-1.459-6.445-13.53c-1.945-4.113-3.44-7.52-4.508-10.218a71.6 71.6 0 0 1-1.957 9.94zm-12.746 21.932 15.057-52.054 7.334-.623 24.806 48.668-7.593.645-7.13-14.783-21.227 1.803-4.171 15.743zm52.54-4.254.605-50.59 6.712.08-.3 25.083 25.43-24.783 9.068.109-21.466 20.26 21.78 30.34-8.832-.105-17.7-25.746-8.375 7.91-.209 17.522zm60.791-18.566 17.148 1.787-3.793-14.497c-1.14-4.405-1.97-8.032-2.513-10.883a71.6 71.6 0 0 1-3.785 9.397zm-16.631 19.153 24.548-48.308 7.321.762 15.242 52.457-7.578-.79-4.232-15.858-21.19-2.209-7.048 14.682zm53.8 5.56 8.959-49.795 6.606 1.19-7.907 43.951 24.48 4.404-1.05 5.842zm47.336 3.855 10.452 2.67c3.23.825 5.838 1.176 7.83 1.04s3.668-.607 5.043-1.422c1.922-1.15 3.651-2.92 5.172-5.304 1.52-2.382 2.758-5.42 3.706-9.13 1.311-5.134 1.476-9.298.504-12.487q-1.459-4.785-4.71-7.11c-1.563-1.117-4.274-2.162-8.131-3.148l-10.28-2.626zm-7.973 4.09 12.523-49.02 16.888 4.315c3.811.973 6.662 1.945 8.55 2.926 2.642 1.367 4.738 3.154 6.291 5.35 2.031 2.853 3.248 6.13 3.657 9.857.42 3.73.066 7.783-1.05 12.154q-1.425 5.58-3.829 9.56c-1.601 2.654-3.33 4.753-5.168 6.288-1.85 1.533-3.712 2.638-5.607 3.297-1.885.673-4.046.996-6.471.972-2.436-.027-5.13-.423-8.097-1.181zm56.67-10.275c2.675-7.947 6.915-13.453 12.704-16.513 5.789-3.059 12.057-3.446 18.821-1.17 4.432 1.492 8.06 3.893 10.91 7.201 2.84 3.304 4.56 7.164 5.15 11.575.594 4.4.089 9.002-1.523 13.79-1.634 4.856-4.082 8.878-7.335 12.045q-4.884 4.768-11.268 5.9c-4.27.761-8.484.436-12.648-.965-4.52-1.521-8.181-3.971-11.01-7.346-2.816-3.372-4.518-7.25-5.078-11.638q-.847-6.567 1.278-12.879M311.145 697.875v-51.456h34.712v6.036h-27.885v16.026h24.148v6.037h-24.148v23.357zM282.74 679.606l6.92 1.84c-2.72 10.678-9.76 16.916-20.974 16.916-16.379 0-23.89-11.093-23.89-26.59 0-14.902 8.585-25.716 24.154-25.716 10.059 0 17.037 5.08 19.864 14.816l-6.746 1.644c-2.526-6.691-6.292-10.505-13.426-10.639-11.22-.21-16.764 8.826-16.764 19.882 0 10.759 3.949 20.618 16.307 20.923 7.601.187 12.483-5.139 14.555-13.076M275.798 250.067c-3.66-1.64-7.595-2.398-11.454-2.409-4.843-.014-9.563 1.143-13.47 3.197-3.85 2.024-6.894 4.911-8.455 8.392a13 13 0 0 0-1.153 5.317 14.75 14.75 0 0 0 2.245 7.928c1.891 3.042 4.851 5.47 8.38 7.145 3.577 1.698 7.724 2.623 11.935 2.635 4.88.014 9.845-1.195 14.104-3.842l.825-.513.632.74q.808.943 1.668 1.784c4.72 4.614 10.716 7.079 16.83 7.275 6.119.197 12.367-1.876 17.586-6.338a29 29 0 0 0 1.903-1.78l.562-.575.727.34c4.495 2.103 8.88 3.015 12.945 3.025 4.987.012 9.503-1.333 13.153-3.501 3.616-2.148 6.37-5.096 7.877-8.315.826-1.767 1.275-3.614 1.28-5.448a13.7 13.7 0 0 0-.97-5.128c-.686-1.724-1.706-3.288-2.951-4.69-3.315-3.736-8.428-6.22-14.006-7.176-5.552-.951-11.539-.384-16.658 1.971l-1.126.519-.415-1.17c-1.791-5.047-4.802-8.842-8.42-11.356a20.55 20.55 0 0 0-11.509-3.688 20.57 20.57 0 0 0-11.656 3.47c-3.733 2.488-6.903 6.33-8.89 11.558l-.426 1.123zm-11.454-4.668c3.791.011 7.652.69 11.295 2.146 2.183-5.15 5.476-8.994 9.32-11.555a22.822 22.822 0 0 1 25.708.244c3.71 2.578 6.835 6.366 8.831 11.331 5.29-2.146 11.294-2.624 16.874-1.667 6.059 1.038 11.647 3.775 15.317 7.91 1.409 1.588 2.57 3.373 3.358 5.355a15.9 15.9 0 0 1 1.13 5.961c-.006 2.174-.53 4.345-1.493 6.405-1.697 3.627-4.765 6.927-8.772 9.307-3.973 2.36-8.884 3.824-14.304 3.81-4.16-.01-8.62-.891-13.178-2.908q-.732.712-1.488 1.358c-5.665 4.844-12.462 7.094-19.128 6.88-6.67-.215-13.203-2.897-18.335-7.914a30 30 0 0 1-1.178-1.218c-4.439 2.537-9.501 3.701-14.475 3.687-4.552-.013-9.035-1.013-12.9-2.847-3.913-1.858-7.21-4.573-9.337-7.996a16.97 16.97 0 0 1-2.581-9.124 15.2 15.2 0 0 1 1.347-6.238c1.778-3.965 5.184-7.222 9.464-9.473 4.222-2.22 9.312-3.468 14.525-3.453" style="fill:#050608;fill-rule:evenodd" data-source="https://football-logos.cc"></path><path d="M232.046 260.27h10.619v9.046000000000001h-11.54v-9.045zm8.777 1.843h-7.856v5.36h7.856zM352.898 260.157h10.619v9.045h-11.540000000000001v-9.044zm8.776 1.843h-7.855v5.36h7.855zM292.324 236.567v-10.620000000000001h9.045v11.541h-9.044zm1.843-8.777v7.855h5.36v-7.855z" style="fill:#050608;fill-rule:evenodd"></path><path d="M275.798 250.067c-3.66-1.64-7.595-2.398-11.454-2.409-4.843-.014-9.563 1.143-13.47 3.197-3.85 2.024-6.894 4.911-8.455 8.392a13 13 0 0 0-1.153 5.317 14.75 14.75 0 0 0 2.245 7.928c1.891 3.042 4.851 5.47 8.38 7.145 3.577 1.698 7.724 2.623 11.935 2.635 4.88.014 9.845-1.195 14.104-3.842l.825-.513.632.74q.808.943 1.668 1.784c4.72 4.614 10.716 7.079 16.83 7.275 6.119.197 12.367-1.876 17.586-6.338a29 29 0 0 0 1.903-1.78l.562-.575.727.34c4.495 2.103 8.88 3.015 12.945 3.025 4.987.012 9.503-1.333 13.153-3.501 3.616-2.148 6.37-5.096 7.877-8.315.826-1.767 1.275-3.614 1.28-5.448a13.7 13.7 0 0 0-.97-5.128c-.686-1.724-1.706-3.288-2.951-4.69-3.315-3.736-8.428-6.22-14.006-7.176-5.552-.951-11.539-.384-16.658 1.971l-1.126.519-.415-1.17c-1.791-5.047-4.802-8.842-8.42-11.356a20.55 20.55 0 0 0-11.509-3.688 20.57 20.57 0 0 0-11.656 3.47c-3.733 2.488-6.903 6.33-8.89 11.558l-.426 1.123z" style="fill:#3dad57;fill-rule:evenodd"></path><path d="M290.823 287.284c.028-.09.054-.073.08.025zm.08.025c.242.925.378 9.933.451 21.358.092-12.191.126-21.59.01-21.215zm.451 21.358c.14 21.717.058 52.138.058 52.276v.13l-.098.084-5.34 4.632 7.263-1.783.193-.047.11.165 1.59 2.385 3.53-1.659.031-.015.032-.007 2.025-.412.045-.01.047.007 5.195.665-4.195-4.275-.08-.081v-.117l-.158-71.857h.565l.157 71.741 4.685 4.774.57.582-.807-.104-5.956-.762-1.948.397-3.719 1.748-.22.103-.135-.203-1.615-2.422-8.207 2.015-1.137.28.885-.768 6.129-5.317c.022-2.083.348-31.22.505-52.145z" style="fill:#1b1918;fill-rule:evenodd"></path><path d="M237.478 369.214c20.078-3.626 40.198-5.359 60.222-5.373 20.727-.014 41.352 1.813 61.722 5.287l-.095.558c-20.344-3.47-40.937-5.294-61.627-5.28-19.992.014-40.078 1.744-60.123 5.363z" style="fill:#1b1918;fill-rule:evenodd"></path><path d="M298.26 300.89c-12.674-.583-19.291-9.014-21.6-16.951-2.294 3.43-5.604 6.106-9.7 7.736-.874.512-1.78.976-2.625 1.538-1.58 1.052-2.61 2.45-2.55 4.35.042 1.312.1 2.625.15 3.937-1.872-.884-3.515-.965-4.987-.45-.259 2.583 2.426 3.857 5.775 4.838v5.25l3-.9.075 5.625.487.075a27 27 0 0 0 1.838-2.025l.262 2.962c.837-1.463 2.089-2.512 3.526-3.375l.093-9.132c1.673-.52 3.168-1.287 3.487-3.666l-2.128-.14c-.225-.17-.604-.235-.676-.507-.115-.434.095-.855.104-1.238.744.081 1.29.51 1.95.75 1.033.375 1.259 1.018 1.238 1.725-.04 1.358 2.053 5.203 3.414 7.687l.075.675c-1.488.725-3.25 1.488-4.463 2.175-.34.193-.471.663-.525 1.05-.125.904-.062 1.828 0 2.738.026.384.059.8.263 1.125.958 1.532 2.125 2.925 3.187 4.388.377-.5.663-1.149.638-2.063-.088-.7-.047-1.429-.263-2.1-.241-.75-.725-1.4-1.087-2.1l5.212-2.55c-.025 1.113.029 2.23-.075 3.337a7.7 7.7 0 0 1-.412 1.876c-.824 2.309-1.822 4.553-2.7 6.842-.153.398-.586.838-.394 1.22.193.381.791.434 1.22.411.538-.029 1.12-.197 1.518-.562.287-.263.212-.75.318-1.125.92-2.487 1.828-4.98 2.759-7.462.675-1.8 1.634-3.08 3.825-3.15 7.89-.258 15.713-1.662 23.495-3.6.056 2.168-.746 3.493-.787 5.268-.022.94.553 1.818.6 2.757.018.352-.101.76-.178 1.134-1.59 2.022-3.45 4.25-5.24 5.84-.113.1-.13.472.018.451 1.366-.19 2.735-.492 4.013-1.013.196-.08-.056-.446.037-.637.72-1.482 2.863-3.626 4.237-5.513.377-.517.601-1.151.844-1.725.3-.709.36-1.497.54-2.246.774 1.182 2.036 2.227 2.94 3.432.108.145.156.407.037.544-1.875 2.161-3.5 3.703-5.161 5.918-.156.209-.38 1.07-.126 1.132.507.124.94.3 1.406.487.325.131.73.038 1.05-.103.375-.165.61-.492.787-.862.172-.357.042-.868.375-1.386 1.098-1.709 2.178-2.896 3.488-4.354.393-.437.78-.988.787-1.575.022-1.755-.116-3.706-.3-5.438-.114-1.085-.374-2.486 1.144-4.96.06-.097.202-.432.347.029.63 1.998 1.629 5.275 3.694 6.506 3.813 2.272 7.468 1.721 10.763-.788.37-.282.148-.481-.375-.487-6.942-.075-11.354-3.66-13.725-9.038-1.573-3.567-3.44-4.012-5.625-3.75-6.223.748-12.49 1.476-19.313 1.162m-24.757-6.87c-1.099 0-1.67-.932-1.63-1.745.038-.813.864-1.355 1.735-1.549 1.136-.253 1.369.38 1.564 1.586.196 1.207-.449 1.71-1.67 1.708m-6.434 9.58c.311 0 .567.255.567.567v1.154a.57.57 0 0 1-.567.567h-1.154a.57.57 0 0 1-.567-.567v-1.154c0-.312.255-.567.567-.567z" style="fill:#050608;fill-rule:evenodd"></path><path d="M291.425 288.996c.034 3.121-.003 10.628-.07 19.671.14 21.717.057 52.138.057 52.276v.13l-.098.084-5.34 4.632 7.263-1.783.193-.047.11.165 1.59 2.385 3.53-1.659.031-.015.032-.007 2.025-.412.045-.01.047.007 5.195.665-4.195-4.275-.08-.081v-.117l-.156-70.774a27.035 27.035 0 0 1-10.18-.835z" style="fill:#da9305;fill-rule:evenodd"></path><path d="M298.386 340.574c-12.675-.583-19.292-9.014-21.6-16.95-2.295 3.429-5.605 6.106-9.7 7.736-.875.512-1.782.976-2.625 1.537-1.581 1.053-2.61 2.45-2.55 4.35.041 1.313.1 2.625.15 3.938-1.873-.884-3.515-.965-4.988-.45-.258 2.583 2.427 3.857 5.775 4.838v5.25l3-.9.075 5.624.488.076a27 27 0 0 0 1.837-2.026l.263 2.963c.836-1.463 2.088-2.512 3.525-3.375l.093-9.132c1.674-.521 3.169-1.288 3.487-3.666l-2.128-.14c-.225-.17-.603-.235-.675-.507-.115-.434.094-.856.103-1.238.744.081 1.291.51 1.951.75 1.033.375 1.258 1.018 1.237 1.725-.04 1.358 2.053 5.202 3.414 7.687l.075.675c-1.488.725-3.25 1.487-4.463 2.175-.34.193-.471.663-.525 1.05-.124.904-.061 1.828 0 2.738.026.384.059.799.263 1.125.959 1.532 2.125 2.925 3.187 4.387.377-.499.663-1.148.638-2.062-.088-.7-.047-1.429-.263-2.1-.24-.75-.724-1.4-1.087-2.1l5.212-2.55c-.024 1.112.03 2.23-.074 3.337a7.7 7.7 0 0 1-.413 1.875c-.824 2.31-1.822 4.554-2.7 6.843-.153.398-.586.838-.394 1.219.194.382.791.435 1.22.412.538-.029 1.121-.197 1.518-.562.287-.263.212-.75.319-1.125.92-2.488 1.827-4.98 2.758-7.463.675-1.8 1.634-3.078 3.825-3.15 7.89-.257 15.713-1.66 23.495-3.6.056 2.169-.746 3.494-.787 5.269-.021.94.554 1.817.6 2.756.018.352-.1.76-.178 1.135-1.59 2.022-3.45 4.25-5.24 5.84-.112.1-.13.471.018.45 1.366-.19 2.735-.492 4.013-1.012.197-.08-.056-.446.037-.637.72-1.482 2.863-3.626 4.238-5.513.376-.517.6-1.152.844-1.725.3-.709.36-1.497.54-2.246.773 1.182 2.036 2.226 2.938 3.432.11.145.157.407.038.544-1.874 2.16-3.5 3.703-5.16 5.918-.157.209-.38 1.07-.127 1.132.507.124.94.3 1.406.487.325.13.73.038 1.05-.103.376-.165.61-.493.788-.862.171-.357.042-.868.375-1.386 1.097-1.709 2.178-2.896 3.488-4.354.392-.437.78-.988.787-1.575.021-1.755-.116-3.706-.3-5.438-.115-1.085-.375-2.486 1.144-4.96.06-.098.201-.432.347.029.63 1.998 1.628 5.275 3.693 6.506 3.813 2.272 7.468 1.72 10.763-.788.371-.282.148-.481-.375-.487-6.942-.075-11.353-3.66-13.725-9.038-1.573-3.567-3.44-4.012-5.625-3.75-6.223.748-12.489 1.476-19.313 1.162m-24.758-6.869c-1.098 0-1.67-.932-1.63-1.745.038-.813.864-1.355 1.735-1.549 1.136-.253 1.369.38 1.564 1.586.196 1.207-.449 1.709-1.669 1.708m-6.434 9.58c.312 0 .567.255.567.567v1.153a.57.57 0 0 1-.567.567h-1.154a.57.57 0 0 1-.567-.567v-1.153c0-.312.256-.567.567-.567z" style="fill:#050608;fill-rule:evenodd"></path><path d="M298.26 340.858c-12.674-.583-19.291-9.014-21.6-16.95-2.294 3.429-5.604 6.106-9.7 7.735-.874.513-1.78.976-2.625 1.538-1.58 1.053-2.61 2.45-2.55 4.35.042 1.313.1 2.625.15 3.937-1.872-.884-3.515-.965-4.987-.45-.259 2.583 2.426 3.858 5.775 4.838v5.25l3-.9.075 5.625.487.075a27 27 0 0 0 1.838-2.025l.262 2.963c.837-1.464 2.089-2.512 3.526-3.375l.093-9.132c1.673-.521 3.168-1.288 3.487-3.666l-2.128-.141c-.225-.169-.604-.235-.676-.506-.115-.434.095-.856.104-1.238.744.08 1.29.51 1.95.75 1.033.375 1.259 1.017 1.238 1.724-.04 1.359 2.053 5.203 3.414 7.688l.075.675c-1.488.725-3.25 1.487-4.463 2.175-.34.193-.471.663-.525 1.05-.125.904-.062 1.828 0 2.738.026.384.059.799.263 1.125.958 1.532 2.125 2.925 3.187 4.387.377-.499.663-1.148.638-2.062-.088-.7-.047-1.429-.263-2.1-.241-.75-.725-1.4-1.087-2.1l5.212-2.55c-.025 1.112.029 2.23-.075 3.337a7.7 7.7 0 0 1-.412 1.875c-.824 2.31-1.822 4.554-2.7 6.843-.153.398-.586.838-.394 1.219.193.382.791.435 1.22.412.538-.03 1.12-.198 1.518-.562.287-.263.212-.75.318-1.125.92-2.488 1.828-4.98 2.759-7.463.675-1.8 1.634-3.079 3.825-3.15 7.89-.257 15.713-1.661 23.495-3.6.056 2.169-.746 3.494-.787 5.269-.022.94.553 1.817.6 2.756.018.352-.101.76-.178 1.134-1.59 2.023-3.45 4.25-5.24 5.841-.113.1-.13.471.018.45 1.366-.19 2.735-.492 4.013-1.012.196-.08-.056-.447.037-.638.72-1.481 2.863-3.625 4.237-5.512.377-.517.601-1.152.844-1.725.3-.709.36-1.498.54-2.246.774 1.181 2.036 2.226 2.94 3.431.108.146.156.407.037.544-1.875 2.161-3.5 3.704-5.161 5.919-.156.208-.38 1.07-.126 1.131.507.124.94.3 1.406.488.325.13.73.038 1.05-.103.375-.166.61-.493.787-.863.172-.356.042-.867.375-1.386 1.098-1.708 2.178-2.895 3.488-4.353.393-.437.78-.989.787-1.576.022-1.755-.116-3.705-.3-5.437-.114-1.085-.374-2.486 1.144-4.96.06-.098.202-.433.347.028.63 1.998 1.629 5.276 3.694 6.507 3.813 2.272 7.468 1.72 10.763-.788.37-.283.148-.482-.375-.487-6.942-.075-11.354-3.66-13.725-9.038-1.573-3.567-3.44-4.013-5.625-3.75-6.223.748-12.49 1.475-19.313 1.162m-24.757-6.87c-1.099 0-1.67-.932-1.63-1.745.038-.812.864-1.354 1.735-1.548 1.136-.254 1.369.38 1.564 1.586.196 1.207-.449 1.709-1.67 1.708m-6.434 9.58c.311 0 .567.256.567.567v1.154a.57.57 0 0 1-.567.567h-1.154a.57.57 0 0 1-.567-.567v-1.154c0-.312.255-.567.567-.567z" style="fill:#050608;fill-rule:evenodd"></path><path d="M323.018 384.317c5.272 6.074 14.554 10.829 25.991 6.181 6.158-2.502 11.399-5.697 16.593-8.892 1.824-1.123 3.655-1.489 6.498 1.023 4.286 3.786 9.644 5.157 15.809 2.396.465-.208.742-.123.53.278-1.89 3.558-4.895 5.534-9.19 5.079-2.326-.246-4.543-2.736-5.914-4.245-.316-.348-.305.005-.318.117-.334 2.804.466 3.936 1.01 4.848.867 1.456 1.783 3.123 2.48 4.683.231.521.114 1.166-.055 1.713-.563 1.821-1.035 3.31-1.31 5.267-.082.594.24.993.234 1.378-.006.399-.08.783-.345 1.083-.225.255-.545.502-.885.519-.489.023-.943.044-1.442.141-.248.049-.402-.803-.349-1.051.566-2.634 1.374-4.659 2.15-7.332.05-.17-.1-.381-.255-.465-1.288-.697-2.83-1.107-3.995-1.836.146.735.415 1.457.438 2.205.019.606.08 1.258-.043 1.868-.446 2.227-1.466 4.995-1.499 6.597-.005.207.368.428.227.579-.917.98-2.004 1.804-3.134 2.529-.122.078-.258-.257-.2-.39.934-2.136 1.671-4.861 2.252-7.296-.084-.362-.145-.771-.304-1.075-.424-.81-1.29-1.352-1.653-2.192-.687-1.585-.518-3.082-1.45-4.976-6.088 4.883-12.428 9.31-19.296 12.75-1.907.956-2.234 2.477-2.097 4.342.188 2.573.401 5.145.602 7.718.058.375.323.774.177 1.124-.203.484-.65.87-1.113 1.115-.37.195-.919.391-1.246.132-.324-.258-.12-.823-.148-1.237-.156-2.38-.189-4.77-.401-7.146a7.5 7.5 0 0 0-.4-1.826c-.359-1.02-.861-1.986-1.292-2.979l-3.568 4.376c.606.471 1.298.849 1.816 1.413.464.506.725 1.166 1.088 1.749.394.798.406 1.488.276 2.082-1.534-.86-3.132-1.615-4.603-2.579-.313-.205-.511-.558-.69-.887-.426-.779-.858-1.57-1.115-2.419-.11-.364-.187-.833.036-1.142.792-1.101 2.038-2.493 3.057-3.74l-.34-.565c-2.215-1.642-5.63-4.186-6.148-5.403-.27-.633-.73-1.11-1.796-1.02-.68.057-1.34-.1-2.03.132.149.341.135.8.413 1.136.175.21.536.115.803.172l1.938-.742c.687 2.231-.322 3.517-1.588 4.66l3.637 8.107c-.918 1.348-1.597 2.784-1.74 4.418l-1.44-2.51c-.298 1.116-.557 1.898-.798 2.537l-.462.132-2.357-4.94-2.284 2.017-2.138-4.639c-3.359.498-6.25.465-7.074-1.922 1.092-1.056 2.576-1.653 4.59-1.634-.578-1.14-1.164-2.275-1.736-3.418-.826-1.655-.486-3.309.482-4.883.517-.84 1.13-1.619 1.694-2.428 2.954-3.108 4.789-6.822 5.42-10.787m-.345 7.13c-.54.147-.547 1.261-.163 1.952.387.696 1.195.732 2.573.736.302-.514.363-2.12-.082-2.6-.445-.479-1.121-.42-2.328-.089m-1.011 14.058 1.019-.47a.554.554 0 0 1 .732.27l.47 1.02a.554.554 0 0 1-.27.731l-1.02.47a.554.554 0 0 1-.732-.27l-.47-1.019a.554.554 0 0 1 .27-.732" style="fill:none"></path><path d="M315.563 398.142c3.096.304 5.93-1.105 8.892-2.576-.275 1.05-.607 2.437-.882 3.487l2.802-.138" style="fill:none"></path><path d="M324.455 395.566c-2.962 1.47-5.796 2.88-8.892 2.576-.695 1.389-.86 2.83-.14 4.272.57 1.144 1.157 2.28 1.736 3.418-2.015-.018-3.5.58-4.59 1.634.823 2.388 3.714 2.42 7.072 1.923l2.139 4.64 2.284-2.018 2.357 4.94.462-.132c.241-.639.5-1.421.799-2.538l1.438 2.511c.144-1.634.823-3.07 1.74-4.418l-3.636-8.107c1.266-1.143 2.275-2.429 1.588-4.66l-1.938.742c-.267-.057-.628.039-.803-.172-.278-.337-.265-.795-.412-1.136.234-.079.465-.113.694-.125l-2.78.137c.275-1.05.607-2.437.882-3.487m-2.793 9.94 1.019-.47a.554.554 0 0 1 .732.27l.47 1.019a.554.554 0 0 1-.27.731l-1.02.47a.554.554 0 0 1-.732-.27l-.47-1.019a.554.554 0 0 1 .27-.732M322.51 393.4c.387.695 1.195.731 2.573.735.302-.514.363-2.12-.082-2.6-.445-.479-1.121-.42-2.328-.089-.54.148-.547 1.262-.163 1.953" style="fill:#fff;fill-rule:evenodd"></path><path d="M325.083 394.135c-1.378-.003-2.186-.04-2.573-.736-.384-.691-.377-1.805.163-1.953 1.207-.331 1.883-.39 2.328.09.445.479.384 2.085.082 2.598m-.628 1.43c-.275 1.05-.607 2.438-.882 3.488l2.78-.137c.446-.025.885.03 1.335-.007 1.065-.089 1.526.387 1.796 1.02.518 1.217 3.933 3.761 6.147 5.403l.341.566c-1.019 1.247-2.265 2.638-3.057 3.74-.223.308-.147.777-.036 1.141.257.85.69 1.64 1.115 2.42.179.328.377.682.69.886 1.471.964 3.069 1.72 4.603 2.58.13-.595.118-1.285-.276-2.083-.363-.583-.623-1.243-1.087-1.749-.52-.565-1.211-.942-1.817-1.413l3.568-4.376c.43.993.933 1.959 1.293 2.98.207.587.344 1.205.399 1.825.212 2.376.245 4.766.4 7.146.028.414-.175.98.15 1.237.326.26.876.063 1.245-.132.464-.245.91-.631 1.113-1.115.146-.35-.118-.75-.177-1.124-.2-2.573-.414-5.145-.602-7.718-.137-1.865.19-3.386 2.097-4.341 6.868-3.441 13.208-7.868 19.295-12.75.933 1.893.764 3.39 1.45 4.975.365.84 1.23 1.381 1.654 2.192.159.304.22.713.304 1.075-.58 2.435-1.318 5.16-2.252 7.296-.058.133.077.469.2.39 1.13-.725 2.217-1.55 3.134-2.53.14-.15-.231-.371-.227-.578.033-1.602 1.053-4.37 1.5-6.597.121-.61.061-1.262.042-1.868-.023-.748-.292-1.47-.437-2.205 1.164.73 2.706 1.139 3.994 1.836.156.084.305.296.255.465-.776 2.673-1.584 4.698-2.15 7.332-.053.248.1 1.1.35 1.052.498-.098.952-.119 1.44-.142.34-.017.66-.264.887-.52.264-.299.338-.683.344-1.082.006-.385-.316-.784-.233-1.377.274-1.957.746-3.446 1.309-5.268.17-.546.287-1.191.054-1.713-.696-1.56-1.612-3.227-2.48-4.683-.543-.912-1.343-2.044-1.009-4.848.014-.111.002-.465.318-.117 1.371 1.51 3.588 3.999 5.915 4.245 4.294.455 7.299-1.52 9.189-5.08.213-.4-.065-.485-.53-.277-6.165 2.761-11.523 1.39-15.81-2.396-2.842-2.512-4.672-2.145-6.497-1.023-5.194 3.195-10.435 6.39-16.593 8.892-11.437 4.648-20.719-.107-25.99-6.18-.632 3.965-2.467 7.678-5.421 10.786-.565.81-1.177 1.588-1.694 2.428a8 8 0 0 0-.34.61c3.095.304 5.929-1.105 8.89-2.576z" style="fill:#050608;fill-rule:evenodd"></path><path d="M325.083 394.135c-1.378-.003-2.186-.04-2.573-.736-.384-.691-.377-1.805.163-1.953 1.207-.331 1.883-.39 2.328.09.445.479.384 2.085.082 2.598m-.628 1.43c-.275 1.05-.607 2.438-.882 3.488l2.78-.137c.446-.025.885.03 1.335-.007 1.065-.089 1.526.387 1.796 1.02.518 1.217 3.933 3.761 6.147 5.403l.341.566c-1.019 1.247-2.265 2.638-3.057 3.74-.223.308-.147.777-.036 1.141.257.85.69 1.64 1.115 2.42.179.328.377.682.69.886 1.471.964 3.069 1.72 4.603 2.58.13-.595.118-1.285-.276-2.083-.363-.583-.623-1.243-1.087-1.749-.52-.565-1.211-.942-1.817-1.413l3.568-4.376c.43.993.933 1.959 1.293 2.98.207.587.344 1.205.399 1.825.212 2.376.245 4.766.4 7.146.028.414-.175.98.15 1.237.326.26.876.063 1.245-.132.464-.245.91-.631 1.113-1.115.146-.35-.118-.75-.177-1.124-.2-2.573-.414-5.145-.602-7.718-.137-1.865.19-3.386 2.097-4.341 6.868-3.441 13.208-7.868 19.295-12.75.933 1.893.764 3.39 1.45 4.975.365.84 1.23 1.381 1.654 2.192.159.304.22.713.304 1.075-.58 2.435-1.318 5.16-2.252 7.296-.058.133.077.469.2.39 1.13-.725 2.217-1.55 3.134-2.53.14-.15-.231-.371-.227-.578.033-1.602 1.053-4.37 1.5-6.597.121-.61.061-1.262.042-1.868-.023-.748-.292-1.47-.437-2.205 1.164.73 2.706 1.139 3.994 1.836.156.084.305.296.255.465-.776 2.673-1.584 4.698-2.15 7.332-.053.248.1 1.1.35 1.052.498-.098.952-.119 1.44-.142.34-.017.66-.264.887-.52.264-.299.338-.683.344-1.082.006-.385-.316-.784-.233-1.377.274-1.957.746-3.446 1.309-5.268.17-.546.287-1.191.054-1.713-.696-1.56-1.612-3.227-2.48-4.683-.543-.912-1.343-2.044-1.009-4.848.014-.111.002-.465.318-.117 1.371 1.51 3.588 3.999 5.915 4.245 4.294.455 7.299-1.52 9.189-5.08.213-.4-.065-.485-.53-.277-6.165 2.761-11.523 1.39-15.81-2.396-2.842-2.512-4.672-2.145-6.497-1.023-5.194 3.195-10.435 6.39-16.593 8.892-11.437 4.648-20.719-.107-25.99-6.18-.632 3.965-2.467 7.678-5.421 10.786-.565.81-1.177 1.588-1.694 2.428a8 8 0 0 0-.34.61c3.095.304 5.929-1.105 8.89-2.576z" style="fill:#050608;fill-rule:evenodd"></path><path d="M313.198 424.26c5.272 6.074 14.553 10.829 25.99 6.182 6.158-2.503 11.4-5.698 16.593-8.893 1.825-1.122 3.656-1.489 6.498 1.023 4.286 3.787 9.645 5.157 15.81 2.396.464-.208.742-.123.53.278-1.89 3.559-4.896 5.534-9.19 5.08-2.327-.247-4.543-2.737-5.914-4.245-.317-.349-.305.005-.318.116-.335 2.804.465 3.937 1.009 4.849.867 1.455 1.783 3.123 2.48 4.682.232.522.115 1.167-.055 1.713-.563 1.822-1.035 3.311-1.309 5.268-.083.593.24.992.234 1.377-.006.4-.08.784-.345 1.083-.226.255-.546.502-.886.519-.488.024-.942.044-1.441.142-.249.048-.402-.804-.35-1.052.566-2.634 1.375-4.658 2.15-7.332.05-.17-.099-.38-.254-.465-1.29-.697-2.83-1.106-3.995-1.835.146.735.414 1.456.438 2.204.018.606.079 1.258-.043 1.868-.447 2.228-1.466 4.995-1.5 6.597-.004.207.368.428.227.579-.917.98-2.004 1.804-3.133 2.53-.123.078-.259-.258-.2-.391.933-2.135 1.67-4.861 2.251-7.296-.083-.362-.145-.771-.304-1.075-.423-.81-1.289-1.352-1.653-2.191-.686-1.585-.517-3.083-1.45-4.976-6.087 4.882-12.428 9.309-19.296 12.75-1.906.955-2.233 2.476-2.097 4.341.189 2.574.402 5.146.602 7.718.059.375.323.775.177 1.124-.203.484-.649.87-1.113 1.116-.369.194-.919.39-1.245.132-.325-.259-.122-.824-.149-1.238-.156-2.38-.189-4.77-.4-7.146a7.5 7.5 0 0 0-.4-1.825c-.36-1.02-.862-1.986-1.293-2.98l-3.567 4.377c.605.47 1.297.848 1.816 1.413.464.505.725 1.165 1.087 1.748.394.798.406 1.488.277 2.082-1.535-.86-3.133-1.615-4.604-2.578-.313-.205-.51-.559-.69-.888-.425-.778-.857-1.57-1.115-2.419-.11-.364-.186-.832.036-1.141.792-1.102 2.039-2.493 3.058-3.74l-.341-.566c-2.215-1.641-5.63-4.186-6.148-5.403-.27-.633-.73-1.109-1.796-1.02-.68.057-1.339-.1-2.029.132.148.342.134.8.413 1.136.174.21.535.115.802.173l1.938-.743c.688 2.231-.321 3.518-1.588 4.66l3.637 8.107c-.918 1.348-1.597 2.784-1.74 4.418l-1.439-2.51c-.3 1.116-.557 1.899-.799 2.537l-.461.132-2.358-4.94q-1.14 1.009-2.284 2.018l-2.138-4.64c-3.358.498-6.25.466-7.074-1.922 1.092-1.055 2.576-1.653 4.591-1.634-.579-1.14-1.165-2.275-1.736-3.418-.827-1.655-.487-3.309.481-4.883.517-.84 1.13-1.619 1.694-2.428 2.955-3.108 4.79-6.821 5.42-10.786m-.346 7.13c-.54.148-.547 1.261-.162 1.953.387.695 1.194.732 2.572.735.302-.514.364-2.12-.082-2.6-.445-.479-1.12-.42-2.328-.089m-1.01 14.058 1.018-.47a.554.554 0 0 1 .732.27l.47 1.02a.554.554 0 0 1-.27.732l-1.02.47a.554.554 0 0 1-.731-.27l-.47-1.02a.554.554 0 0 1 .27-.732" style="fill:none"></path><path d="M305.743 438.085c3.095.305 5.93-1.105 8.891-2.576-.275 1.05-.606 2.438-.881 3.488l2.801-.14" style="fill:none"></path><path d="M314.634 435.509c-2.962 1.47-5.796 2.88-8.891 2.576-.696 1.39-.862 2.83-.141 4.273.571 1.143 1.157 2.279 1.736 3.418-2.015-.019-3.5.579-4.59 1.634.823 2.387 3.715 2.42 7.073 1.922l2.138 4.64 2.284-2.017 2.358 4.94.461-.133c.242-.638.5-1.421.799-2.537l1.439 2.51c.143-1.633.822-3.07 1.74-4.418l-3.637-8.107c1.267-1.142 2.276-2.428 1.588-4.66l-1.938.743c-.267-.058-.628.038-.802-.173-.279-.336-.265-.794-.413-1.136.234-.078.465-.112.695-.125l-2.78.138c.275-1.05.606-2.438.881-3.488m-2.793 9.94 1.02-.47a.554.554 0 0 1 .731.27l.47 1.019a.554.554 0 0 1-.27.732l-1.02.47a.554.554 0 0 1-.731-.27l-.47-1.02a.554.554 0 0 1 .27-.732M312.69 433.343c.386.695 1.194.732 2.572.735.302-.514.364-2.12-.082-2.6-.445-.479-1.12-.42-2.328-.089-.54.149-.547 1.262-.162 1.953" style="fill:#fff;fill-rule:evenodd"></path><path d="M315.262 434.078c-1.378-.003-2.186-.04-2.572-.735-.385-.692-.378-1.805.162-1.954 1.207-.331 1.883-.39 2.328.09.446.479.384 2.085.082 2.599m-.628 1.431c-.275 1.05-.606 2.438-.881 3.488l2.78-.138c.445-.025.885.03 1.334-.007 1.066-.089 1.526.387 1.796 1.02.518 1.217 3.933 3.762 6.148 5.403l.34.566c-1.019 1.247-2.265 2.638-3.057 3.74-.222.309-.146.777-.036 1.141.258.85.69 1.64 1.115 2.42.18.328.377.682.69.887 1.471.963 3.07 1.719 4.604 2.578.13-.594.118-1.284-.277-2.082-.362-.582-.623-1.243-1.087-1.748-.519-.565-1.21-.942-1.816-1.413l3.567-4.377c.431.994.934 1.96 1.293 2.98.207.587.344 1.205.4 1.825.211 2.376.244 4.766.4 7.146.027.414-.176.98.149 1.238.326.259.876.062 1.245-.132.464-.246.91-.632 1.113-1.116.146-.35-.118-.75-.177-1.124-.2-2.572-.413-5.144-.602-7.717-.136-1.866.19-3.387 2.097-4.342 6.868-3.441 13.209-7.867 19.295-12.75.934 1.893.765 3.39 1.451 4.976.364.84 1.23 1.38 1.653 2.191.16.304.22.713.305 1.075-.581 2.435-1.319 5.16-2.252 7.296-.059.133.077.469.2.39 1.13-.725 2.216-1.549 3.133-2.529.141-.15-.231-.372-.226-.579.033-1.602 1.052-4.37 1.499-6.596.122-.611.062-1.263.043-1.869-.024-.748-.292-1.47-.438-2.204 1.165.729 2.706 1.138 3.995 1.835.155.084.304.296.254.466-.776 2.673-1.584 4.697-2.15 7.331-.053.248.101 1.1.35 1.052.499-.097.953-.118 1.441-.142.34-.017.66-.264.886-.519.264-.3.338-.684.345-1.083.006-.385-.317-.784-.234-1.377.274-1.957.746-3.446 1.31-5.268.169-.546.286-1.191.053-1.713-.696-1.56-1.612-3.227-2.48-4.682-.543-.912-1.343-2.044-1.009-4.849.014-.111.002-.465.318-.116 1.371 1.508 3.588 3.998 5.915 4.244 4.294.455 7.3-1.52 9.19-5.079.212-.4-.066-.486-.53-.278-6.165 2.761-11.524 1.39-15.81-2.396-2.843-2.512-4.673-2.145-6.498-1.023-5.194 3.195-10.435 6.39-16.592 8.893-11.438 4.647-20.72-.108-25.992-6.181-.63 3.965-2.465 7.678-5.42 10.786-.565.81-1.177 1.588-1.693 2.428a8 8 0 0 0-.341.61c3.095.305 5.93-1.105 8.891-2.576z" style="fill:#050608;fill-rule:evenodd"></path><path d="M315.262 434.078c-1.378-.003-2.186-.04-2.572-.735-.385-.692-.378-1.805.162-1.954 1.207-.331 1.883-.39 2.328.09.446.479.384 2.085.082 2.599m-.628 1.431c-.275 1.05-.606 2.438-.881 3.488l2.78-.138c.445-.025.885.03 1.334-.007 1.066-.089 1.526.387 1.796 1.02.518 1.217 3.933 3.762 6.148 5.403l.34.566c-1.019 1.247-2.265 2.638-3.057 3.74-.222.309-.146.777-.036 1.141.258.85.69 1.64 1.115 2.42.18.328.377.682.69.887 1.471.963 3.07 1.719 4.604 2.578.13-.594.118-1.284-.277-2.082-.362-.582-.623-1.243-1.087-1.748-.519-.565-1.21-.942-1.816-1.413l3.567-4.377c.431.994.934 1.96 1.293 2.98.207.587.344 1.205.4 1.825.211 2.376.244 4.766.4 7.146.027.414-.176.98.149 1.238.326.259.876.062 1.245-.132.464-.246.91-.632 1.113-1.116.146-.35-.118-.75-.177-1.124-.2-2.572-.413-5.144-.602-7.717-.136-1.866.19-3.387 2.097-4.342 6.868-3.441 13.209-7.867 19.295-12.75.934 1.893.765 3.39 1.451 4.976.364.84 1.23 1.38 1.653 2.191.16.304.22.713.305 1.075-.581 2.435-1.319 5.16-2.252 7.296-.059.133.077.469.2.39 1.13-.725 2.216-1.549 3.133-2.529.141-.15-.231-.372-.226-.579.033-1.602 1.052-4.37 1.499-6.596.122-.611.062-1.263.043-1.869-.024-.748-.292-1.47-.438-2.204 1.165.729 2.706 1.138 3.995 1.835.155.084.304.296.254.466-.776 2.673-1.584 4.697-2.15 7.331-.053.248.101 1.1.35 1.052.499-.097.953-.118 1.441-.142.34-.017.66-.264.886-.519.264-.3.338-.684.345-1.083.006-.385-.317-.784-.234-1.377.274-1.957.746-3.446 1.31-5.268.169-.546.286-1.191.053-1.713-.696-1.56-1.612-3.227-2.48-4.682-.543-.912-1.343-2.044-1.009-4.849.014-.111.002-.465.318-.116 1.371 1.508 3.588 3.998 5.915 4.244 4.294.455 7.3-1.52 9.19-5.079.212-.4-.066-.486-.53-.278-6.165 2.761-11.524 1.39-15.81-2.396-2.843-2.512-4.673-2.145-6.498-1.023-5.194 3.195-10.435 6.39-16.592 8.893-11.438 4.647-20.72-.108-25.992-6.181-.63 3.965-2.465 7.678-5.42 10.786-.565.81-1.177 1.588-1.693 2.428a8 8 0 0 0-.341.61c3.095.305 5.93-1.105 8.891-2.576z" style="fill:#050608;fill-rule:evenodd" data-source="https://football-logos.cc"></path><path d="M155.813 254.244c22.561-10.448 46.26-17.969 69.046-23.02 26.397-5.851 51.57-8.384 72.328-8.314 24.564.082 48.589 2.503 72.392 7.335 23.807 4.833 47.386 12.075 71.053 21.797l1.162.477-.118 1.25c-5.048 53.201-21.63 105.752-45.378 153.61-25.911 52.22-60.362 98.873-97.672 134.704l-1.145 1.1-1.173-1.073c-37.001-33.875-72.262-81.078-98.387-133.924-23.73-48.002-39.938-100.685-43.091-152.301l-.07-1.153zm143.924 119.54.083 162.404c35.673-35.096 68.524-80.108 93.435-130.31a491 491 0 0 0 14.508-32.058zm-4.718 162.504-.082-162.505-108.729-.036a472 472 0 0 0 14.756 32.937c25.1 50.775 58.667 96.275 94.055 129.604M184.308 368.946l225.392.075c14.566-36.672 24.644-75.32 28.478-114.32-23.085-9.404-46.073-16.427-69.264-21.134-23.585-4.788-47.39-7.187-71.727-7.269-20.537-.069-45.454 2.44-71.597 8.235-22.19 4.919-45.265 12.21-67.296 22.306 2.436 37.554 11.831 75.676 26.013 112.107" style="fill:#050608;fill-rule:evenodd"></path><path d="m183.87 371.346 226.5.075M297.335 371.075l.086 167.456" style="fill:#f18300;fill-rule:evenodd"></path><path d="m242.216 368.965 112.97.038a369 369 0 0 0-38.178-4.08l-.007.013c-.178.37-.412.697-.788.863-.32.14-.725.234-1.05.103-.466-.188-.898-.364-1.406-.487-.15-.037-.132-.359-.06-.656q-1.78-.08-3.562-.141c-.962.365-1.97.612-2.987.788l.431.44-.807-.104-5.956-.763-1.949.397-3.718 1.748-.22.104-.136-.204-1.614-2.421-8.208 2.015-1.137.28.885-.769 1.77-1.535q-2.292.075-4.584.182a.8.8 0 0 1-.122.27.7.7 0 0 1-.196.364c-.398.364-.98.533-1.52.562-.427.023-1.025-.03-1.218-.412-.1-.2-.03-.416.082-.633a337 337 0 0 0-36.716 4.038z" style="fill:#36b254;fill-rule:evenodd"></path><path d="M232.967 267.473h6.272a17.6 17.6 0 0 1-.231-2.91q.004-1.253.202-2.45h-6.243zM294.167 227.79v4.62a22.8 22.8 0 0 1 5.36-.185v-4.435zM355.882 262c.195 1 .297 2.042.294 3.124a14 14 0 0 1-.186 2.235h5.684V262zM276.631 292.36c-.195-1.206-.428-1.839-1.564-1.585-.87.193-1.697.735-1.736 1.548s.532 1.745 1.63 1.745c1.221.001 1.866-.5 1.67-1.707M268.528 303.648h-1.154a.57.57 0 0 0-.567.567v1.154c0 .311.255.567.567.567h1.154a.57.57 0 0 0 .567-.567v-1.154a.57.57 0 0 0-.567-.567M275.172 332.28c-.196-1.206-.428-1.839-1.564-1.585-.646.144-1.267.479-1.56.974q-.044.139-.05.29c-.04.814.532 1.745 1.63 1.746.737 0 1.264-.183 1.523-.594q.099-.34.021-.83M267.636 344.135a.57.57 0 0 0-.567-.567h-1.154a.57.57 0 0 0-.436.207 1 1 0 0 0-.005.077v1.153c0 .312.255.567.567.567h1.153c.175 0 .332-.08.436-.206a1 1 0 0 0 .005-.077zM288.489 353.672c-1.903.062-2.877 1.035-3.543 2.47q-.08.194-.157.396c-.931 2.483-1.839 4.975-2.758 7.463a2 2 0 0 0-.042.206q2.589-.12 5.176-.2l3.683-3.194.08-7.256q-1.22.075-2.44.115M302.306 352.16l.018 8.33 3.373 3.437q.84.019 1.682.04c1.478-1.454 2.967-3.244 4.277-4.907.073-.325.156-.664.141-.963-.047-.939-.622-1.816-.6-2.756.041-1.775.843-3.1.787-5.27a146 146 0 0 1-9.678 2.089M314.685 358.36c-1.314 1.802-3.327 3.84-4.133 5.31-.01.124.052.28.06.4q1.648.058 3.295.133a1 1 0 0 1 .102-.204c1.645-2.193 3.254-3.727 5.105-5.854a.58.58 0 0 0-.107-.325c-.884-1.18-2.114-2.207-2.891-3.36-.127.64-.21 1.294-.462 1.891-.13.304-.253.626-.397.938-.159.374-.336.746-.573 1.07" style="fill:#fff;fill-rule:evenodd"></path><path d="M326.353 398.916h-.01zm-6.712 10.473c-3.358.498-6.25.465-7.073-1.923 1.092-1.055 2.576-1.652 4.59-1.633-.578-1.14-1.164-2.275-1.736-3.418-.72-1.443-.554-2.884.141-4.273a8 8 0 0 1 .341-.61c.517-.84 1.129-1.619 1.694-2.428 2.954-3.108 4.79-6.822 5.42-10.787 5.272 6.074 14.554 10.829 25.991 6.181 6.158-2.502 11.399-5.697 16.593-8.892 1.824-1.123 3.655-1.49 6.498 1.022 4.286 3.787 9.644 5.158 15.809 2.397.465-.208.742-.123.53.278-1.89 3.558-4.895 5.534-9.19 5.079-2.326-.246-4.543-2.736-5.914-4.245-.316-.348-.304.005-.318.117-.334 2.804.466 3.936 1.01 4.848.867 1.456 1.783 3.123 2.48 4.683.232.521.114 1.167-.055 1.713-.563 1.821-1.035 3.31-1.309 5.267-.083.594.24.993.233 1.378-.007.399-.08.783-.344 1.083-.226.255-.546.502-.886.518-.489.024-.943.045-1.442.142-.248.049-.402-.803-.349-1.051.566-2.634 1.374-4.659 2.15-7.332.05-.17-.1-.381-.255-.465-1.288-.698-2.83-1.107-3.994-1.836.145.735.414 1.457.437 2.205.02.606.08 1.258-.043 1.868-.446 2.227-1.466 4.995-1.499 6.597-.005.207.368.428.227.579-.917.98-2.004 1.804-3.134 2.529-.123.078-.258-.257-.2-.39.934-2.136 1.671-4.862 2.252-7.296-.084-.362-.145-.771-.304-1.075-.424-.81-1.29-1.352-1.653-2.192-.687-1.585-.518-3.082-1.45-4.976-6.088 4.883-12.428 9.31-19.296 12.75-1.907.956-2.234 2.477-2.097 4.342.188 2.573.401 5.145.602 7.718.059.374.323.774.177 1.124-.203.484-.65.87-1.113 1.115-.37.195-.92.391-1.246.132-.324-.258-.12-.823-.148-1.237-.156-2.38-.189-4.77-.401-7.147a7.5 7.5 0 0 0-.4-1.824c-.359-1.021-.861-1.987-1.292-2.98l-3.568 4.376c.606.471 1.298.848 1.816 1.413.464.505.725 1.166 1.088 1.749.394.798.406 1.488.276 2.082-1.534-.86-3.132-1.615-4.603-2.579-.313-.205-.511-.558-.69-.887-.426-.779-.858-1.57-1.115-2.419-.11-.364-.187-.833.036-1.142.792-1.102 2.038-2.493 3.057-3.74l-.34-.565c-2.215-1.642-5.63-4.186-6.148-5.403-.27-.633-.73-1.11-1.796-1.02-.442.037-.875-.016-1.313.006h-.022l-.013.001a2.6 2.6 0 0 0-.681.125c.147.341.134.8.412 1.136.175.21.536.115.803.172l1.938-.742c.687 2.231-.322 3.517-1.588 4.66l3.637 8.107c-.918 1.348-1.597 2.784-1.74 4.418l-1.44-2.51a26 26 0 0 1-.798 2.537l-.462.132-2.357-4.94-2.284 2.017zm88.122-35.569-108.026-.035.083 162.403c35.673-35.096 68.524-80.108 93.435-130.31a491 491 0 0 0 14.508-32.058m-94.566 50.44c5.273 6.074 14.554 10.829 25.992 6.182 6.157-2.503 11.398-5.698 16.592-8.893 1.825-1.122 3.655-1.489 6.498 1.023 4.286 3.787 9.645 5.157 15.81 2.396.464-.208.742-.123.53.278-1.89 3.559-4.896 5.534-9.19 5.08-2.327-.247-4.544-2.737-5.915-4.246-.316-.348-.304.005-.318.117-.334 2.805.466 3.936 1.01 4.849.867 1.455 1.783 3.123 2.48 4.682.232.522.115 1.167-.055 1.713-.563 1.822-1.035 3.311-1.309 5.268-.083.593.24.992.234 1.377-.007.4-.08.784-.345 1.083-.226.255-.546.502-.886.519-.488.024-.942.044-1.441.142-.249.048-.403-.804-.35-1.052.566-2.634 1.374-4.658 2.15-7.331.05-.17-.099-.382-.254-.466-1.289-.697-2.83-1.106-3.995-1.835.146.735.414 1.456.438 2.204.018.606.079 1.258-.043 1.868-.447 2.227-1.466 4.995-1.5 6.597-.004.207.368.428.227.579-.917.98-2.004 1.804-3.133 2.53-.123.078-.259-.258-.2-.391.933-2.136 1.67-4.861 2.252-7.296-.084-.362-.146-.771-.305-1.075-.423-.81-1.289-1.352-1.653-2.191-.686-1.585-.517-3.083-1.45-4.976-6.087 4.882-12.428 9.309-19.296 12.75-1.906.955-2.233 2.476-2.097 4.342.189 2.573.402 5.145.602 7.717.059.375.323.775.177 1.124-.202.484-.649.87-1.113 1.115-.37.195-.919.392-1.245.133-.325-.259-.122-.824-.149-1.238-.156-2.38-.189-4.77-.4-7.146a7.5 7.5 0 0 0-.4-1.825c-.36-1.02-.862-1.986-1.293-2.98l-3.567 4.377c.605.47 1.297.848 1.816 1.413.464.505.725 1.165 1.087 1.748.395.798.406 1.488.277 2.082-1.535-.86-3.133-1.615-4.604-2.578-.313-.205-.51-.559-.69-.888-.425-.779-.857-1.57-1.115-2.419-.11-.364-.186-.833.036-1.141.792-1.102 2.038-2.493 3.058-3.74l-.341-.566c-2.215-1.642-5.63-4.186-6.148-5.403-.27-.633-.73-1.109-1.796-1.02-.45.038-.889-.018-1.334.007-.23.012-.46.046-.695.125.148.341.134.8.413 1.136.174.21.535.115.802.172l1.938-.742c.688 2.231-.321 3.517-1.588 4.66l3.637 8.107c-.918 1.348-1.597 2.784-1.74 4.418l-1.439-2.51a26 26 0 0 1-.799 2.537l-.461.132-2.358-4.94-2.284 2.017-2.138-4.639c-3.358.498-6.25.465-7.074-1.922 1.092-1.056 2.576-1.653 4.591-1.634-.579-1.14-1.165-2.275-1.736-3.418-.72-1.443-.555-2.884.14-4.273q.154-.307.342-.61c.516-.84 1.128-1.619 1.693-2.428 2.955-3.108 4.79-6.821 5.42-10.787z" style="fill:#da0b13;fill-rule:evenodd"></path><path d="M322.673 391.446c-.54.148-.547 1.262-.163 1.953.387.696 1.195.732 2.573.736.302-.514.363-2.12-.082-2.6-.445-.479-1.121-.42-2.328-.089M315.18 431.479c-.445-.48-1.12-.421-2.328-.09-.54.149-.547 1.262-.162 1.954.386.695 1.194.732 2.572.735.302-.514.364-2.12-.082-2.6M324.064 412.011l2.357 4.94.462-.132c.241-.639.5-1.421.799-2.538l1.438 2.511c.144-1.634.823-3.07 1.74-4.418l-3.636-8.107c1.266-1.143 2.275-2.429 1.588-4.66l-1.938.742c-.267-.057-.628.039-.803-.172-.278-.337-.265-.795-.412-1.136.234-.079.465-.113.694-.125l-2.78.137c.275-1.05.607-2.437.882-3.487-2.962 1.47-5.796 2.88-8.892 2.576-.695 1.389-.86 2.83-.14 4.272.57 1.144 1.157 2.28 1.736 3.418-2.015-.018-3.5.58-4.59 1.634.823 2.388 3.714 2.42 7.072 1.923l2.139 4.64zm-.451-4.955-1.02.47a.554.554 0 0 1-.732-.27l-.47-1.019a.554.554 0 0 1 .27-.732l1.02-.47a.554.554 0 0 1 .732.27l.47 1.02a.554.554 0 0 1-.27.731M314.634 435.509c-2.962 1.47-5.796 2.88-8.891 2.576-.696 1.39-.862 2.83-.141 4.273.571 1.143 1.157 2.279 1.736 3.418-2.015-.019-3.5.579-4.59 1.634.823 2.387 3.715 2.42 7.073 1.922l2.138 4.64 2.284-2.017 2.358 4.94.461-.133c.242-.638.5-1.421.799-2.537l1.439 2.51c.143-1.633.822-3.07 1.74-4.418l-3.637-8.107c1.267-1.142 2.276-2.428 1.588-4.66l-1.938.743c-.267-.058-.628.038-.802-.173-.279-.336-.265-.794-.413-1.136.234-.078.465-.112.695-.125l-2.78.138c.275-1.05.606-2.438.881-3.488m-2.793 9.94 1.02-.47a.554.554 0 0 1 .731.27l.47 1.019a.554.554 0 0 1-.27.732l-1.02.47a.554.554 0 0 1-.731-.27l-.47-1.02a.554.554 0 0 1 .27-.732" style="fill:#fff;fill-rule:evenodd"></path><path d="m312.86 444.978-1.019.47a.554.554 0 0 0-.27.732l.47 1.02a.554.554 0 0 0 .732.27l1.02-.47a.554.554 0 0 0 .27-.732l-.47-1.02a.554.554 0 0 0-.733-.27M322.593 407.527l1.02-.47a.554.554 0 0 0 .27-.732l-.47-1.02a.554.554 0 0 0-.732-.27l-1.02.47a.554.554 0 0 0-.27.732l.47 1.02a.554.554 0 0 0 .732.27" style="fill:#050608;fill-rule:evenodd"></path><path d="m295.02 536.288-.083-162.505-108.729-.036a472 472 0 0 0 14.756 32.937c25.1 50.775 58.667 96.275 94.055 129.604" style="fill:#37afe4;fill-rule:evenodd"></path><path d="M212.27 391.952c-.272.07-.525.182-.748.33l-2.105-2.01a4.88 4.88 0 0 1 2.915-1.205zm17.574 24.661a2.5 2.5 0 0 0-.747.33l-2.105-2.01a4.88 4.88 0 0 1 2.915-1.205zm5.554-4.114c2.571-1.135 4.579-2.228 5.654-3.25.758 1.448 1.277 2.974 1.243 4.422-2.041.039-3.425.714-4.893 1.383a7.96 7.96 0 0 1 .832 3.555 7.98 7.98 0 0 1-2.345 5.657l-.006.006a7.98 7.98 0 0 1-5.657 2.346 7.97 7.97 0 0 1-4.877-1.66c-2.147.801-4.397 1.328-6.795 1.462-1.964.288-2.667-3.402-.422-3.61a28 28 0 0 0 4.917-.648 8 8 0 0 1-.717-2.196h-2.767c-.78 0-1.417-.637-1.417-1.417v-.072c0-.78.638-1.417 1.417-1.417h2.802a8 8 0 0 1 2.195-4.109l.006-.006a7.98 7.98 0 0 1 5.657-2.345 7.97 7.97 0 0 1 5.172 1.899zm-8.873 9.315 1.993-2.055a2.1 2.1 0 0 1-.32-.77l-2.853-.062a4.88 4.88 0 0 0 1.18 2.887m4.886-4.944 2.023-1.958a4.88 4.88 0 0 0-2.89-1.184l.061 2.82c.295.037.569.151.806.322m2.495-1.489-1.966 2.052c.154.238.263.51.315.795l2.851.063a4.88 4.88 0 0 0-1.2-2.91m-4.852 4.921-2.08 1.967c.79.7 1.81 1.149 2.933 1.22l-.062-2.852a2.05 2.05 0 0 1-.791-.335m-3.71-2.011 2.855-.063c.056-.278.173-.532.336-.755l-2.006-2.073a4.88 4.88 0 0 0-1.184 2.89m9.762.636-2.852.062c-.053.29-.168.558-.329.791l1.969 2.07a4.88 4.88 0 0 0 1.212-2.923m-1.65 3.36-2.065-1.975a2.1 2.1 0 0 1-.785.326l-.063 2.851a4.88 4.88 0 0 0 2.912-1.202m21.617-5.674c-.271.07-.524.182-.748.33l-2.105-2.01a4.88 4.88 0 0 1 2.916-1.205zm5.553-4.114c2.571-1.135 4.58-2.228 5.655-3.25.757 1.448 1.276 2.974 1.242 4.422-2.041.039-3.425.714-4.893 1.383a7.96 7.96 0 0 1 .833 3.555 7.98 7.98 0 0 1-2.346 5.657l-.006.006a7.98 7.98 0 0 1-5.657 2.346 7.97 7.97 0 0 1-4.876-1.66c-2.147.801-4.398 1.328-6.796 1.462-1.963.288-2.666-3.402-.421-3.61a28 28 0 0 0 4.916-.648 8 8 0 0 1-.717-2.196h-2.766c-.78 0-1.417-.637-1.417-1.417v-.072c0-.78.637-1.417 1.417-1.417h2.801a8 8 0 0 1 2.196-4.109l.006-.006a7.98 7.98 0 0 1 5.657-2.345c1.97 0 3.776.714 5.172 1.899zm-8.872 9.315 1.992-2.055a2.1 2.1 0 0 1-.32-.77l-2.853-.062a4.88 4.88 0 0 0 1.18 2.887m4.885-4.944 2.024-1.958a4.88 4.88 0 0 0-2.891-1.184l.062 2.82c.294.037.568.151.805.322m2.495-1.489-1.965 2.052c.153.238.262.51.314.795l2.851.063a4.88 4.88 0 0 0-1.2-2.91m-4.852 4.921-2.079 1.967c.79.7 1.81 1.149 2.933 1.22l-.063-2.852a2.05 2.05 0 0 1-.79-.335m-3.709-2.011 2.855-.063a1.9 1.9 0 0 1 .335-.755l-2.006-2.073a4.88 4.88 0 0 0-1.184 2.89m9.761.636-2.851.062c-.054.29-.168.558-.33.791l1.969 2.07a4.88 4.88 0 0 0 1.212-2.923m-1.65 3.36-2.065-1.975a2.1 2.1 0 0 1-.785.326l-.062 2.851a4.88 4.88 0 0 0 2.912-1.202m21.9-5.674c-.27.07-.524.182-.747.33l-2.105-2.01a4.88 4.88 0 0 1 2.916-1.205zm5.554-4.114c2.571-1.135 4.579-2.228 5.655-3.25.757 1.448 1.276 2.974 1.242 4.422-2.041.039-3.425.714-4.893 1.383a7.96 7.96 0 0 1 .833 3.555 7.98 7.98 0 0 1-2.346 5.657l-.006.006a7.98 7.98 0 0 1-5.657 2.346 7.97 7.97 0 0 1-4.876-1.66c-2.148.801-4.398 1.328-6.796 1.462-1.963.288-2.666-3.402-.422-3.61a28 28 0 0 0 4.917-.648 8 8 0 0 1-.717-2.196h-2.766c-.78 0-1.418-.637-1.418-1.417v-.072c0-.78.638-1.417 1.418-1.417h2.801a8 8 0 0 1 2.195-4.109l.006-.006a7.98 7.98 0 0 1 5.658-2.345c1.97 0 3.776.714 5.172 1.899m-8.872 9.315 1.992-2.055a2.1 2.1 0 0 1-.32-.77l-2.853-.062a4.88 4.88 0 0 0 1.18 2.887m4.885-4.944 2.023-1.958a4.88 4.88 0 0 0-2.89-1.184l.061 2.82c.295.037.569.151.806.322m2.495-1.489-1.966 2.052c.154.238.263.51.315.795l2.851.063a4.88 4.88 0 0 0-1.2-2.91m-4.852 4.921-2.079 1.967a4.88 4.88 0 0 0 2.933 1.22l-.063-2.852a2.05 2.05 0 0 1-.791-.335m-3.71-2.011 2.855-.063a1.9 1.9 0 0 1 .336-.755l-2.006-2.073a4.88 4.88 0 0 0-1.184 2.89m9.762.636-2.851.062c-.054.29-.169.558-.33.791l1.969 2.07a4.88 4.88 0 0 0 1.212-2.923m-1.65 3.36-2.065-1.975a2.1 2.1 0 0 1-.785.326l-.062 2.851a4.88 4.88 0 0 0 2.911-1.202m-39.186 18.704c-.271.07-.524.182-.748.33l-2.105-2.01a4.88 4.88 0 0 1 2.916-1.205zm5.553-4.114c2.571-1.135 4.58-2.228 5.655-3.25.757 1.448 1.276 2.974 1.242 4.422-2.041.039-3.425.714-4.893 1.383a7.96 7.96 0 0 1 .833 3.555 7.98 7.98 0 0 1-2.346 5.657l-.006.006a7.98 7.98 0 0 1-5.657 2.346 7.97 7.97 0 0 1-4.876-1.66c-2.147.801-4.398 1.328-6.796 1.462-1.963.288-2.666-3.402-.421-3.61a28 28 0 0 0 4.916-.648 8 8 0 0 1-.717-2.196h-2.766c-.78 0-1.417-.637-1.417-1.417v-.072c0-.78.637-1.417 1.417-1.417h2.801a8 8 0 0 1 2.196-4.109l.006-.006a7.98 7.98 0 0 1 5.657-2.345c1.97 0 3.776.714 5.172 1.899m-8.872 9.315 1.992-2.055a2.1 2.1 0 0 1-.32-.77l-2.853-.062a4.88 4.88 0 0 0 1.18 2.887m4.885-4.944 2.024-1.958a4.88 4.88 0 0 0-2.891-1.184l.062 2.82c.294.037.568.151.805.322m2.495-1.489-1.965 2.052c.153.238.262.51.314.795l2.851.063a4.88 4.88 0 0 0-1.2-2.91m-4.852 4.921-2.079 1.967a4.88 4.88 0 0 0 2.933 1.22l-.063-2.852a2.05 2.05 0 0 1-.79-.335m-3.709-2.011 2.855-.063a1.9 1.9 0 0 1 .335-.755l-2.006-2.073a4.88 4.88 0 0 0-1.184 2.89m9.761.636-2.851.062c-.054.29-.168.558-.33.791l1.97 2.07a4.88 4.88 0 0 0 1.211-2.923m-1.65 3.36-2.065-1.975a2.1 2.1 0 0 1-.785.326l-.062 2.851a4.88 4.88 0 0 0 2.912-1.202m31.396-5.957c-.27.07-.523.182-.747.33l-2.105-2.01a4.88 4.88 0 0 1 2.916-1.205zm5.554-4.115c2.571-1.134 4.58-2.227 5.655-3.25.757 1.448 1.276 2.974 1.242 4.422-2.041.04-3.425.715-4.893 1.383a7.96 7.96 0 0 1 .833 3.555 7.98 7.98 0 0 1-2.346 5.657l-.006.006a7.98 7.98 0 0 1-5.657 2.346 7.97 7.97 0 0 1-4.876-1.66c-2.147.802-4.398 1.328-6.796 1.462-1.963.288-2.666-3.401-.421-3.61a28 28 0 0 0 4.916-.647 8 8 0 0 1-.717-2.196h-2.766c-.78 0-1.418-.638-1.418-1.418v-.071c0-.78.638-1.418 1.418-1.418h2.801a8 8 0 0 1 2.196-4.108l.006-.006a7.98 7.98 0 0 1 5.657-2.346c1.97 0 3.776.715 5.172 1.9zm-8.872 9.315 1.992-2.055a2.1 2.1 0 0 1-.32-.769l-2.853-.063a4.88 4.88 0 0 0 1.18 2.887m4.885-4.943 2.023-1.958a4.88 4.88 0 0 0-2.89-1.184l.062 2.82c.294.036.568.15.805.322m2.495-1.49-1.965 2.052c.153.239.262.51.314.796l2.851.062a4.88 4.88 0 0 0-1.2-2.91m-4.852 4.922-2.079 1.967c.79.7 1.81 1.148 2.933 1.22l-.063-2.853a2.05 2.05 0 0 1-.79-.334m-3.71-2.012 2.855-.062c.057-.278.173-.533.336-.755l-2.006-2.074a4.88 4.88 0 0 0-1.184 2.891m9.762.636-2.851.063c-.054.289-.168.557-.33.79l1.969 2.07a4.88 4.88 0 0 0 1.212-2.923m-1.65 3.36-2.065-1.974a2.1 2.1 0 0 1-.785.325l-.062 2.852a4.88 4.88 0 0 0 2.911-1.202m-26.856 19.272c-.27.07-.524.182-.747.329l-2.105-2.01a4.88 4.88 0 0 1 2.916-1.205zm5.554-4.115c2.571-1.135 4.579-2.227 5.654-3.25.758 1.448 1.277 2.974 1.243 4.422-2.041.04-3.425.715-4.893 1.383a7.96 7.96 0 0 1 .833 3.555 7.98 7.98 0 0 1-2.346 5.657l-.006.006a7.98 7.98 0 0 1-5.657 2.346 7.97 7.97 0 0 1-4.876-1.66c-2.148.802-4.398 1.328-6.796 1.462-1.963.288-2.666-3.402-.422-3.61a28 28 0 0 0 4.917-.648 8 8 0 0 1-.717-2.195h-2.766c-.78 0-1.418-.638-1.418-1.418v-.071c0-.78.638-1.418 1.418-1.418h2.801a8 8 0 0 1 2.196-4.108l.006-.006a7.98 7.98 0 0 1 5.657-2.346c1.97 0 3.776.715 5.172 1.899zm-8.872 9.315 1.992-2.055a2.1 2.1 0 0 1-.32-.77l-2.853-.062a4.88 4.88 0 0 0 1.18 2.887m4.885-4.944 2.023-1.957a4.88 4.88 0 0 0-2.89-1.185l.061 2.82c.295.037.569.152.806.322m2.495-1.489-1.965 2.052c.153.239.262.51.314.795l2.851.063a4.88 4.88 0 0 0-1.2-2.91m-4.852 4.922-2.079 1.967c.79.7 1.81 1.148 2.933 1.22l-.063-2.853a2.05 2.05 0 0 1-.791-.334m-3.71-2.012 2.855-.063c.056-.278.173-.532.336-.754l-2.006-2.074a4.88 4.88 0 0 0-1.184 2.891m9.762.636-2.851.063c-.054.289-.169.557-.33.79l1.969 2.07a4.88 4.88 0 0 0 1.212-2.923m-1.65 3.36-2.065-1.974c-.232.159-.498.272-.785.325l-.062 2.852a4.88 4.88 0 0 0 2.911-1.202m20.2-5.673c-.272.07-.525.182-.748.329l-2.105-2.01a4.88 4.88 0 0 1 2.916-1.205zm5.553-4.115c2.571-1.135 4.579-2.227 5.655-3.25.757 1.448 1.276 2.974 1.242 4.422-2.041.04-3.425.715-4.893 1.383a7.96 7.96 0 0 1 .833 3.555 7.98 7.98 0 0 1-2.346 5.657l-.006.006a7.98 7.98 0 0 1-5.657 2.346 7.97 7.97 0 0 1-4.876-1.66c-2.148.802-4.398 1.328-6.796 1.462-1.963.288-2.666-3.402-.422-3.61a28 28 0 0 0 4.917-.648 8 8 0 0 1-.717-2.195h-2.766c-.78 0-1.418-.638-1.418-1.418v-.071c0-.78.638-1.418 1.418-1.418h2.801a8 8 0 0 1 2.195-4.108l.006-.006a7.98 7.98 0 0 1 5.658-2.346c1.97 0 3.776.715 5.172 1.899zm-8.872 9.315 1.992-2.055a2.1 2.1 0 0 1-.32-.77l-2.853-.062a4.88 4.88 0 0 0 1.18 2.887m4.885-4.944 2.023-1.957a4.88 4.88 0 0 0-2.89-1.185l.061 2.82c.295.037.569.152.806.322m2.495-1.489-1.966 2.052c.154.239.263.51.315.796l2.851.062a4.88 4.88 0 0 0-1.2-2.91m-4.852 4.922-2.079 1.967a4.88 4.88 0 0 0 2.933 1.22l-.063-2.853a2.05 2.05 0 0 1-.791-.334m-3.71-2.012 2.855-.062a1.9 1.9 0 0 1 .336-.755l-2.006-2.074a4.88 4.88 0 0 0-1.184 2.891m9.762.636-2.851.063c-.054.289-.169.557-.33.79l1.969 2.07a4.88 4.88 0 0 0 1.212-2.923m-1.65 3.36-2.065-1.974c-.232.159-.498.272-.785.325l-.062 2.852a4.88 4.88 0 0 0 2.911-1.202m-3.612 18.563c-.27.07-.524.182-.747.33l-2.105-2.01a4.88 4.88 0 0 1 2.916-1.205zm5.554-4.115c2.571-1.134 4.579-2.227 5.655-3.25.757 1.448 1.276 2.975 1.242 4.423-2.041.038-3.425.714-4.893 1.383a7.96 7.96 0 0 1 .833 3.554 7.98 7.98 0 0 1-2.346 5.657l-.006.006a7.98 7.98 0 0 1-5.657 2.346 7.97 7.97 0 0 1-4.876-1.66c-2.148.802-4.398 1.328-6.796 1.463-1.963.288-2.666-3.402-.422-3.61a28 28 0 0 0 4.917-.648 8 8 0 0 1-.717-2.196h-2.766c-.78 0-1.418-.638-1.418-1.417v-.072c0-.78.638-1.417 1.418-1.417h2.801a8 8 0 0 1 2.195-4.109l.006-.006a7.98 7.98 0 0 1 5.658-2.346c1.97 0 3.776.715 5.172 1.9zm-8.872 9.315 1.992-2.054a2.1 2.1 0 0 1-.32-.77l-2.853-.062a4.88 4.88 0 0 0 1.18 2.886m4.885-4.943 2.023-1.958a4.88 4.88 0 0 0-2.89-1.184l.061 2.82c.295.036.569.151.806.322m2.495-1.49-1.966 2.053c.154.238.263.509.315.795l2.851.062a4.88 4.88 0 0 0-1.2-2.91m-4.852 4.922-2.079 1.967a4.88 4.88 0 0 0 2.933 1.22l-.063-2.852a2.05 2.05 0 0 1-.791-.335m-3.71-2.012 2.855-.062a1.9 1.9 0 0 1 .336-.755l-2.006-2.073a4.88 4.88 0 0 0-1.184 2.89m9.762.637-2.851.062c-.054.289-.169.557-.33.79l1.969 2.07a4.88 4.88 0 0 0 1.212-2.922m-1.65 3.36-2.065-1.975a2.1 2.1 0 0 1-.785.325l-.062 2.852a4.88 4.88 0 0 0 2.911-1.202m-3.612-103.61c-.27.07-.524.181-.747.328l-2.105-2.009a4.88 4.88 0 0 1 2.916-1.205zm5.554-4.116c2.571-1.134 4.579-2.227 5.655-3.25.757 1.448 1.276 2.974 1.242 4.422-2.041.04-3.425.715-4.893 1.383a7.96 7.96 0 0 1 .833 3.555 7.98 7.98 0 0 1-2.346 5.657l-.006.006a7.98 7.98 0 0 1-5.657 2.346 7.97 7.97 0 0 1-4.876-1.66c-2.148.802-4.398 1.328-6.796 1.463-1.963.288-2.666-3.402-.422-3.61a28 28 0 0 0 4.917-.648 8 8 0 0 1-.717-2.196h-2.766c-.78 0-1.418-.638-1.418-1.417v-.072c0-.78.638-1.417 1.418-1.417h2.801a8 8 0 0 1 2.195-4.109l.006-.006a7.98 7.98 0 0 1 5.658-2.346c1.97 0 3.776.715 5.172 1.9zm-8.872 9.315 1.992-2.055a2.1 2.1 0 0 1-.32-.769l-2.853-.062a4.88 4.88 0 0 0 1.18 2.886m4.885-4.943 2.023-1.958a4.88 4.88 0 0 0-2.89-1.184l.061 2.82c.295.036.569.151.806.322m2.495-1.49-1.966 2.053c.154.238.263.509.315.795l2.851.062a4.88 4.88 0 0 0-1.2-2.91m-4.852 4.922-2.079 1.967a4.88 4.88 0 0 0 2.933 1.22l-.063-2.852a2.05 2.05 0 0 1-.791-.335m-3.71-2.012 2.855-.062a1.9 1.9 0 0 1 .336-.755l-2.006-2.073a4.88 4.88 0 0 0-1.184 2.89m9.762.636-2.851.063c-.054.289-.169.557-.33.79l1.969 2.07a4.88 4.88 0 0 0 1.212-2.923m-1.65 3.361-2.065-1.975a2.1 2.1 0 0 1-.785.325l-.062 2.852a4.88 4.88 0 0 0 2.911-1.202m-26.572-5.674c-.271.07-.524.182-.748.33l-2.105-2.01a4.88 4.88 0 0 1 2.916-1.205zm5.553-4.115c2.572-1.134 4.58-2.227 5.655-3.25.758 1.448 1.277 2.974 1.242 4.422-2.041.04-3.425.715-4.893 1.383a7.96 7.96 0 0 1 .833 3.555 7.98 7.98 0 0 1-2.346 5.657l-.006.006a7.98 7.98 0 0 1-5.657 2.346 7.97 7.97 0 0 1-4.876-1.66c-2.147.802-4.398 1.328-6.795 1.463-1.964.288-2.667-3.402-.422-3.61a28 28 0 0 0 4.917-.648 8 8 0 0 1-.718-2.196h-2.766c-.78 0-1.417-.638-1.417-1.417v-.072c0-.78.637-1.417 1.417-1.417h2.801a8 8 0 0 1 2.196-4.109l.006-.006a7.98 7.98 0 0 1 5.657-2.346c1.97 0 3.776.715 5.172 1.9zm-8.872 9.315 1.992-2.055a2.1 2.1 0 0 1-.32-.769l-2.853-.063a4.88 4.88 0 0 0 1.18 2.887m4.885-4.943 2.024-1.958a4.88 4.88 0 0 0-2.891-1.184l.062 2.82c.295.036.568.151.805.322m2.495-1.49-1.965 2.053c.153.238.262.509.314.795l2.852.062a4.88 4.88 0 0 0-1.2-2.91m-4.852 4.922-2.079 1.967c.79.7 1.81 1.148 2.933 1.22l-.063-2.852a2.05 2.05 0 0 1-.79-.335m-3.709-2.012 2.855-.062c.056-.278.173-.533.335-.755l-2.006-2.073a4.88 4.88 0 0 0-1.184 2.89m9.762.636-2.852.063c-.054.289-.168.557-.33.79l1.97 2.07a4.88 4.88 0 0 0 1.212-2.923m-1.651 3.361-2.064-1.975a2.1 2.1 0 0 1-.786.325l-.062 2.852a4.88 4.88 0 0 0 2.912-1.202m-26.288-5.674c-.271.07-.524.182-.748.33l-2.105-2.01a4.88 4.88 0 0 1 2.916-1.205zm5.553-4.115c2.571-1.134 4.58-2.227 5.655-3.25.757 1.448 1.276 2.974 1.242 4.422-2.041.04-3.425.715-4.893 1.383a7.96 7.96 0 0 1 .833 3.555 7.98 7.98 0 0 1-2.346 5.657l-.006.006a7.98 7.98 0 0 1-5.657 2.346 7.97 7.97 0 0 1-4.876-1.66c-2.147.802-4.398 1.328-6.796 1.463-1.963.288-2.666-3.402-.421-3.61a28 28 0 0 0 4.916-.648 8 8 0 0 1-.717-2.196h-2.766c-.78 0-1.418-.638-1.418-1.417v-.072c0-.78.638-1.417 1.418-1.417h2.801a8 8 0 0 1 2.196-4.109l.006-.006a7.98 7.98 0 0 1 5.657-2.346c1.97 0 3.776.715 5.172 1.9zm-8.872 9.315 1.992-2.055a2.1 2.1 0 0 1-.32-.769l-2.853-.063a4.88 4.88 0 0 0 1.18 2.887m4.885-4.943 2.024-1.958a4.88 4.88 0 0 0-2.891-1.184l.062 2.82c.294.036.568.151.805.322m2.495-1.49-1.965 2.053c.153.238.262.509.314.795l2.851.062a4.88 4.88 0 0 0-1.2-2.91m-4.852 4.922-2.079 1.967a4.88 4.88 0 0 0 2.933 1.22l-.063-2.852a2.05 2.05 0 0 1-.79-.335m-3.709-2.012 2.855-.062a1.9 1.9 0 0 1 .335-.755l-2.006-2.073a4.88 4.88 0 0 0-1.184 2.89m9.761.636-2.851.063c-.054.289-.168.557-.33.79l1.97 2.07a4.88 4.88 0 0 0 1.211-2.923m-1.65 3.361-2.065-1.975a2.1 2.1 0 0 1-.785.325l-.062 2.852a4.88 4.88 0 0 0 2.912-1.202m-20.735-9.789c2.571-1.134 4.579-2.227 5.655-3.25.757 1.448 1.276 2.974 1.242 4.422-2.041.04-3.425.715-4.893 1.383a7.96 7.96 0 0 1 .833 3.555 7.98 7.98 0 0 1-2.346 5.657l-.006.006a7.98 7.98 0 0 1-5.657 2.346 7.97 7.97 0 0 1-4.876-1.66c-2.148.802-4.398 1.328-6.796 1.463-1.963.288-2.666-3.402-.422-3.61a28 28 0 0 0 4.917-.648 8 8 0 0 1-.717-2.196h-2.766c-.78 0-1.418-.638-1.418-1.417v-.072c0-.78.638-1.417 1.418-1.417h2.801a8 8 0 0 1 2.195-4.109l.006-.006a7.98 7.98 0 0 1 5.658-2.346c1.97 0 3.776.715 5.172 1.9zm-8.872 9.315 1.992-2.055a2.1 2.1 0 0 1-.32-.769l-2.853-.063a4.88 4.88 0 0 0 1.18 2.887m4.885-4.943 2.023-1.958a4.88 4.88 0 0 0-2.89-1.184l.061 2.82c.295.036.569.151.806.322m2.495-1.49-1.965 2.053c.153.238.262.509.314.795l2.851.062a4.88 4.88 0 0 0-1.2-2.91m-4.852 4.922-2.079 1.967a4.88 4.88 0 0 0 2.933 1.22l-.063-2.852a2.1 2.1 0 0 1-.791-.335m-3.71-2.012 2.855-.062c.057-.278.173-.533.336-.755l-2.006-2.073a4.88 4.88 0 0 0-1.184 2.89m9.762.636-2.851.063c-.054.289-.168.557-.33.79l1.969 2.07a4.88 4.88 0 0 0 1.212-2.923m-1.65 3.361-2.065-1.975a2.1 2.1 0 0 1-.785.325l-.062 2.852a4.88 4.88 0 0 0 2.911-1.202" style="fill:#03030d;fill-rule:evenodd"></path><path d="M297.094 695.608a3.875 3.875 0 0 1-3.875-3.875 3.875 3.875 0 1 1 3.874 3.875M335.078 695.608a3.875 3.875 0 0 1-3.875-3.875 3.875 3.875 0 1 1 3.875 3.875M505.296 213.061c-2.707 29.749-7.3 59.476-13.844 88.78-6.39 28.61-14.629 56.792-24.776 84.168-18.465 49.815-42.693 97.08-71.266 139.564-28.481 42.347-61.28 79.942-96.994 110.579l-1.498 1.285-1.478-1.312c-36.26-32.205-67.689-68.423-94.642-108.471-26.933-40.018-49.38-83.852-67.698-131.32-10.8-27.985-20.434-56.55-27.85-86.75-7.425-30.233-12.631-62.106-14.563-96.677l-.087-1.569 1.442-.629c67.305-29.336 138.054-43.7 207.762-43.688 70.697.013 140.313 14.81 204.172 43.772l1.466.665zm-18.256 87.806c6.384-28.586 10.9-57.581 13.607-86.606-62.888-28.266-131.344-42.71-200.843-42.722-68.591-.012-138.21 14.028-204.509 42.692 1.984 33.664 7.1 64.755 14.348 94.273 7.37 30.01 16.944 58.394 27.674 86.2 18.197 47.157 40.493 90.696 67.237 130.434 26.358 39.163 57.052 74.649 92.42 106.285 34.825-30.135 66.83-66.957 94.68-108.366 28.366-42.177 52.425-89.117 70.77-138.607 10.098-27.244 18.284-55.228 24.616-83.583" style="fill:#050608;fill-rule:evenodd"></path><path d="M586.125 156.912c-1.502 41.71-6.13 83.455-13.974 124.6-7.685 40.299-18.457 80.035-32.404 118.612-25.222 69.766-56.33 133.175-95.666 190.888-39.349 57.73-86.93 109.756-145.088 156.739l-1.423 1.149-1.42-1.15c-54.664-44.217-101.147-94.35-140.195-150.108-39.027-55.728-70.604-117.056-95.48-183.694-15.343-41.102-28.879-88.138-38.194-134.779-8.527-42.7-13.53-85.136-13.164-122.479l.014-1.412 1.27-.607c42.636-20.382 87.837-35.546 134.363-45.736 48.066-10.527 97.595-15.751 147.214-15.94 52.018-.196 103.948 4.684 154.385 15.324 47.887 10.102 94.445 25.4 138.477 46.476l1.337.64zm-18.421 123.766c7.714-40.454 12.3-81.473 13.848-122.446-43.287-20.58-89.042-35.554-136.11-45.483-50.146-10.58-101.765-15.43-153.464-15.235-49.25.186-98.456 5.382-146.257 15.85-45.76 10.022-90.192 24.87-132.097 44.776-.224 36.627 4.732 78.221 13.104 120.143 9.28 46.467 22.74 93.259 37.982 134.088 24.743 66.286 56.145 127.276 94.948 182.684C198.1 649.948 243.834 699.379 297.58 743.07c57.148-46.386 103.979-97.708 142.763-154.61 39.117-57.39 70.058-120.465 95.152-189.877 13.862-38.341 24.57-77.84 32.209-117.905" style="fill:#050608;fill-rule:evenodd"></path><path d="M181.317 185.559a520 520 0 0 0-46.8 13.537v188.268a982 982 0 0 0 2.8 7.34c12.647 32.776 27.275 63.804 44 93.023V370.62c-14.547-37.254-24.138-76.291-26.487-114.736l-.07-1.153 1.053-.488a315 315 0 0 1 25.504-10.454zM227.493 459.902v96.97a563 563 0 0 0 46.8 53.102v-89.815c-16.516-17.852-32.354-38.185-46.8-60.257M320.753 519.184v90.198c16.406-16.25 32.059-33.991 46.8-52.977v-98.552c-14.364 22.191-30.152 42.81-46.8 61.33M414.863 365.129v120.69c18.074-31.335 33.836-64.699 46.8-99.329V198.75a486 486 0 0 0-46.8-13.7v57.378a415 415 0 0 1 25.77 9.615l1.161.477-.118 1.25c-3.6 37.94-13.065 75.548-26.813 111.36M320.753 223.719a366 366 0 0 1 46.8 6.12v-53.67a497 497 0 0 0-46.8-4.188zM274.294 223.794V172.18a508 508 0 0 0-46.8 4.548v53.922c16.37-3.504 32.227-5.732 46.8-6.857" style="fill:#fcd717;fill-rule:evenodd"></path><path d="M134.517 387.364V199.096a527 527 0 0 0-39.222 15.135c1.984 33.664 7.1 64.755 14.348 94.273 6.723 27.375 15.279 53.396 24.874 78.86M181.317 185.559v58.231c14.535-5.24 29.219-9.39 43.542-12.565q1.32-.293 2.634-.574v-53.922a514 514 0 0 0-46.176 8.83M274.294 172.182v51.612c8.068-.624 15.742-.908 22.893-.884 7.908.026 15.76.295 23.566.809V171.98q-10.456-.44-20.95-.442-12.737-.003-25.51.642M367.554 176.168v53.672q1.013.2 2.025.405c15.16 3.078 30.228 7.132 45.284 12.182v-57.379a491 491 0 0 0-47.31-8.88M461.664 198.749V386.49l.76-2.04c10.098-27.244 18.284-55.228 24.616-83.583 6.384-28.587 10.9-57.581 13.607-86.606a481 481 0 0 0-38.983-15.512M414.863 485.82V365.128a491 491 0 0 1-18.565 42.25 511 511 0 0 1-28.744 50.474v98.552a604 604 0 0 0 24.1-33.348 637 637 0 0 0 23.21-37.238M320.753 609.382v-90.198a434 434 0 0 1-22.127 22.9l-1.145 1.1-1.173-1.074c-7.428-6.8-14.786-14.138-22.014-21.95v89.814a562 562 0 0 0 22.68 21.449 482 482 0 0 0 23.78-22.04" style="fill:#050608;fill-rule:evenodd"></path><path d="M295.44 636.125c-36.26-32.205-67.689-68.423-94.642-108.471-26.933-40.018-49.38-83.852-67.698-131.32-10.8-27.985-20.434-56.55-27.85-86.75-7.425-30.233-12.631-62.106-14.563-96.677l-.087-1.569 1.442-.629c67.305-29.336 138.054-43.7 207.762-43.688 70.697.013 140.313 14.81 204.172 43.772l1.466.665-.146 1.603c-2.707 29.749-7.3 59.476-13.844 88.78-6.39 28.61-14.629 56.792-24.776 84.168-18.465 49.815-42.693 97.08-71.266 139.564-28.481 42.347-61.28 79.942-96.993 110.579l-1.5 1.285zm272.264-355.447c7.714-40.454 12.3-81.473 13.848-122.446-43.287-20.58-89.042-35.554-136.11-45.483-50.146-10.58-101.765-15.43-153.464-15.235-49.25.186-98.456 5.382-146.257 15.85-45.76 10.022-90.192 24.87-132.097 44.776-.224 36.627 4.732 78.221 13.104 120.143 9.28 46.467 22.74 93.259 37.982 134.088 24.743 66.286 56.145 127.276 94.948 182.684C198.1 649.948 243.834 699.379 297.58 743.07c57.148-46.386 103.979-97.708 142.763-154.61 39.117-57.39 70.058-120.465 95.152-189.877 13.862-38.341 24.57-77.84 32.209-117.905m-66.304-86.93c-4.27.761-8.485.436-12.649-.965-4.52-1.521-8.181-3.971-11.01-7.346-2.816-3.372-4.518-7.25-5.078-11.638q-.848-6.567 1.278-12.879c2.674-7.947 6.914-13.453 12.703-16.513 5.789-3.059 12.058-3.446 18.822-1.17 4.43 1.492 8.058 3.893 10.909 7.201 2.84 3.304 4.56 7.164 5.15 11.575.594 4.4.089 9.002-1.523 13.79-1.634 4.856-4.081 8.878-7.334 12.045q-4.885 4.767-11.268 5.9m-395.378-1.685-18.095 6.717-17.607-47.43 17.797-6.607c3.622-1.344 6.702-1.947 9.255-1.803q3.814.225 6.782 2.533c1.985 1.524 3.378 3.381 4.19 5.567.75 2.02.907 4.136.477 6.33q-.644 3.291-3.357 6.183c3.182-.226 5.923.39 8.211 1.851 2.296 1.447 3.958 3.556 4.983 6.316.828 2.23 1.12 4.471.89 6.73-.23 2.258-.843 4.157-1.838 5.707-1 1.539-2.442 2.966-4.32 4.267-1.89 1.304-4.342 2.516-7.368 3.639m50.764-32.21-20.54 5.656-1.221 16.24-6.847 1.885 5.282-53.93 7.096-1.954 33.29 43.31-7.347 2.023zm34.167-14.963-7.623 1.394 4.043 22.103-6.603 1.208-9.103-49.767 22.057-4.035c4.437-.812 7.89-.976 10.36-.506q3.702.705 6.39 3.716c1.791 2.007 2.933 4.384 3.433 7.118.646 3.533.044 6.72-1.796 9.559-1.839 2.838-5.08 5.012-9.733 6.545 1.902.514 3.375 1.107 4.427 1.752 2.245 1.41 4.468 3.29 6.657 5.63l11.086 11.98-8.225 1.505-8.474-9.153c-2.46-2.65-4.465-4.643-5.995-6.003-1.541-1.358-2.855-2.256-3.956-2.713a10.3 10.3 0 0 0-3.242-.771c-.769-.015-2 .126-3.703.438m68.929-1.68-21.228 1.803-4.171 15.743-7.076.601 15.057-52.054 7.334-.623 24.806 48.668-7.593.645zm53.062 14.287-17.7-25.745-8.375 7.908-.209 17.523-6.712-.08.604-50.59 6.712.08-.3 25.083 25.43-24.783 9.068.109-21.466 20.26 21.78 30.34zm46.464-11.544-21.19-2.209-7.048 14.682-7.063-.736 24.548-48.308 7.321.762 15.242 52.457-7.578-.79zm18.5 17.297 8.958-49.795 6.606 1.19-7.907 43.951 24.48 4.404-1.05 5.842zm57.049 12.463-17.687-4.519 12.523-49.019 16.888 4.315c3.811.973 6.662 1.945 8.55 2.926 2.642 1.367 4.738 3.154 6.291 5.35 2.031 2.853 3.248 6.13 3.657 9.857.42 3.73.066 7.783-1.05 12.154q-1.425 5.58-3.829 9.56c-1.601 2.654-3.33 4.753-5.168 6.288-1.85 1.533-3.712 2.638-5.607 3.297-1.885.673-4.046.996-6.471.972-2.436-.027-5.13-.423-8.097-1.181M311.145 697.875v-51.456h34.712v6.036h-27.885v16.026h24.148v6.037h-24.148v23.357zm20.058-6.142a3.875 3.875 0 1 1 7.75 0 3.875 3.875 0 0 1-7.75 0m-86.407-19.962c0-14.901 8.585-25.715 24.154-25.715 10.059 0 17.037 5.08 19.864 14.816l-6.746 1.644c-2.526-6.691-6.292-10.505-13.426-10.639-11.22-.21-16.764 8.827-16.764 19.882 0 10.759 3.949 20.618 16.307 20.923 7.601.187 12.483-5.139 14.555-13.076l6.92 1.84c-2.72 10.678-9.76 16.916-20.974 16.916-16.379 0-23.89-11.093-23.89-26.59m48.423 19.962a3.875 3.875 0 1 1 7.75 0 3.875 3.875 0 0 1-7.75 0" style="fill:#fff;fill-rule:evenodd"></path><path d="m84.015 168.953 10.257-3.808c2.782-1.033 4.71-1.962 5.779-2.773 1.425-1.069 2.333-2.31 2.729-3.714s.292-2.935-.327-4.602c-.586-1.579-1.477-2.83-2.682-3.74-1.197-.925-2.587-1.351-4.153-1.273-1.566.08-4.055.752-7.455 2.014l-9.484 3.521zM97.055 170.444l-10.975 4.074 6.074 16.362 11.814-4.386c2.031-.754 3.427-1.36 4.197-1.822 1.341-.786 2.396-1.668 3.143-2.636s1.213-2.146 1.411-3.539c.2-1.393.013-2.843-.549-4.356-.66-1.777-1.682-3.144-3.086-4.118-1.393-.978-2.992-1.427-4.8-1.358-1.798.064-4.215.66-7.23 1.779M138.103 143.951l-1.405 15.79 16.622-4.577-8.81-12.122c-2.664-3.688-4.757-6.764-6.3-9.222a72 72 0 0 1-.107 10.131M179.275 124.11l3.013 16.474L196.42 138c3.012-.55 5.295-1.292 6.872-2.227 1.579-.923 2.683-2.155 3.3-3.692.63-1.528.799-3.092.504-4.702-.43-2.351-1.632-4.143-3.612-5.35-1.98-1.205-4.806-1.467-8.479-.795zM244.423 124.158l-4.27 15.267 17.18-1.459-6.445-13.53c-1.945-4.113-3.44-7.52-4.508-10.219a71.6 71.6 0 0 1-1.957 9.941M347.795 124.341l-7.057 14.196 17.148 1.787-3.793-14.497c-1.14-4.405-1.97-8.032-2.513-10.883a71.6 71.6 0 0 1-3.785 9.397M434.828 129.588l-9.585 37.517 10.452 2.67c3.23.825 5.838 1.176 7.83 1.04s3.668-.607 5.043-1.422c1.922-1.15 3.651-2.92 5.172-5.304 1.52-2.382 2.758-5.42 3.706-9.13 1.311-5.134 1.476-9.298.504-12.487q-1.459-4.785-4.71-7.11c-1.563-1.117-4.274-2.162-8.131-3.148zM490.51 149.461c-4.274 1.991-7.621 6.58-10.044 13.78q-2.913 8.655.067 15.195 2.98 6.542 10.01 8.911c4.778 1.608 9.26 1.253 13.478-1.055q6.31-3.468 9.422-12.71c1.311-3.894 1.799-7.52 1.459-10.866-.341-3.345-1.513-6.25-3.51-8.698-2.007-2.453-4.583-4.215-7.741-5.278q-6.731-2.265-13.141.721" style="fill:#fff;fill-rule:evenodd"></path><path d="M227.493 459.902a496 496 0 0 1-29.572-51.716 474 474 0 0 1-16.604-37.565v117.106a607 607 0 0 0 23.237 37.411 581 581 0 0 0 22.94 31.734z" style="fill:#050608;fill-rule:evenodd"></path><path d="m184.308 368.946 54.567.018a338 338 0 0 1 40.35-4.618l.054-.098c.869-2.257 1.85-4.472 2.664-6.75a7.7 7.7 0 0 0 .412-1.875c.104-1.107.05-2.225.075-3.337l-4.993 2.442c.349.634.773 1.237.994 1.924.215.671.174 1.4.262 2.1.018.64-.117 1.15-.33 1.57-.112.297-.263.551-.433.776-1.062-1.462-2.229-2.855-3.187-4.387-.204-.326-.237-.741-.263-1.125-.062-.91-.125-1.834 0-2.738.034-.244.099-.522.228-.742.081-.247.212-.472.422-.592 1.173-.665 2.86-1.4 4.314-2.102l-.051-.464c-1.36-2.485-3.454-6.33-3.414-7.688.02-.706-.204-1.35-1.237-1.724-.633-.23-1.163-.635-1.862-.739-.057.3-.153.618-.067.943.072.272.45.338.675.506l2.128.14a4.7 4.7 0 0 1-.419 1.454c-.57 1.441-1.757 2.037-3.07 2.458l-.091 8.887-.123.075-.002.209c-1.437.863-2.689 1.911-3.525 3.375l-.263-2.963a27 27 0 0 1-1.837 2.025l-.488-.075-.075-5.625-3 .9v-5.25c-3.348-.98-6.033-2.255-5.775-4.837l.11-.037q.003-.121.015-.247c1.436-.503 3.034-.438 4.85.385-.047-1.196-.1-2.392-.137-3.589a4.4 4.4 0 0 1 .43-2.077c.41-1.03 1.21-1.867 2.245-2.557.844-.561 1.75-1.025 2.625-1.537 4.095-1.63 7.405-4.307 9.7-7.736 1.815 6.241 6.296 12.789 14.292 15.584.08-8.044.169-17.249.238-25.645q-1.412.095-2.827.14c-2.19.072-3.15 1.35-3.825 3.15-.931 2.483-1.839 4.976-2.758 7.463-.107.375-.032.862-.319 1.125-.397.365-.98.533-1.519.563-.428.023-1.025-.03-1.219-.413-.192-.38.241-.82.394-1.219.878-2.289 1.876-4.533 2.7-6.842a7.7 7.7 0 0 0 .413-1.875c.103-1.108.05-2.225.074-3.338l-5.212 2.55c.363.7.846 1.35 1.087 2.1.216.672.175 1.4.263 2.1.025.914-.26 1.564-.638 2.063-1.062-1.463-2.228-2.856-3.187-4.388-.204-.326-.237-.74-.263-1.125-.061-.91-.124-1.834 0-2.737.054-.387.185-.858.525-1.05 1.214-.688 2.975-1.45 4.463-2.176l-.075-.674c-1.36-2.485-3.454-6.33-3.414-7.688.021-.707-.204-1.35-1.237-1.725-.66-.24-1.207-.669-1.95-.75-.01.383-.22.805-.104 1.238.072.272.45.338.675.506l2.128.141c-.318 2.379-1.813 3.145-3.487 3.666l-.093 9.132c-1.437.863-2.689 1.912-3.525 3.375l-.263-2.962a27 27 0 0 1-1.837 2.025l-.488-.075-.075-5.625-3 .9v-5.25c-3.348-.98-6.033-2.255-5.775-4.838 1.473-.515 3.115-.434 4.988.45-.05-1.312-.109-2.625-.15-3.937-.06-1.9.969-3.298 2.55-4.35.843-.562 1.75-1.026 2.625-1.538 4.095-1.63 7.405-4.307 9.7-7.736 1.84 6.325 6.416 12.965 14.615 15.695-.058-4.867-.134-8.696-.235-10.748-4.22-1.243-8.192-3.53-11.562-6.824a30 30 0 0 1-1.177-1.218c-4.44 2.537-9.502 3.701-14.476 3.687-4.552-.013-9.034-1.013-12.9-2.847-3.912-1.858-7.21-4.573-9.337-7.996a17 17 0 0 1-1.94-4.372h-8.524v-9.045h8.509a15.5 15.5 0 0 1 .72-1.945c1.779-3.965 5.185-7.222 9.466-9.473 4.22-2.22 9.311-3.468 14.524-3.453 3.792.01 7.652.689 11.295 2.145 2.183-5.15 5.476-8.994 9.32-11.555a22.9 22.9 0 0 1 7.366-3.218v-6.443c-19.553.31-42.623 2.86-66.735 8.204-22.19 4.919-45.265 12.21-67.296 22.306 2.436 37.554 11.832 75.676 26.014 112.107zM317.699 339.412c2.186-.262 4.052.183 5.625 3.75 2.372 5.379 6.783 8.963 13.725 9.038.502.005.727.188.418.453.045.083-.002.192-.168.318-3.295 2.509-6.95 3.06-10.763.788-2.065-1.231-3.063-4.508-3.694-6.507-.145-.46-.286-.126-.347-.028q-.366.6-.604 1.119c-.688 1.636-.505 2.696-.414 3.557.184 1.732.321 3.683.3 5.438-.003.275-.09.542-.222.793-.14.394-.414.758-.69 1.066-1.31 1.458-2.391 2.645-3.489 4.353l-.037.061c-.087.271-.092.53-.13.756a371 371 0 0 1 41.482 4.637l51.009.017c14.566-36.672 24.644-75.32 28.478-114.32-23.085-9.404-46.073-16.427-69.264-21.134-22.233-4.513-44.66-6.904-67.545-7.232v6.119c3.28.545 6.46 1.809 9.297 3.78 3.71 2.578 6.836 6.366 8.832 11.331 5.29-2.146 11.294-2.624 16.874-1.667 6.059 1.038 11.647 3.775 15.317 7.91 1.409 1.588 2.57 3.373 3.358 5.355q.195.49.358.994h8.112v9.045h-7.9479999999999995a16.5 16.5 0 0 1-.885 2.327c-1.697 3.627-4.765 6.927-8.772 9.307-3.973 2.36-8.884 3.824-14.304 3.81-4.16-.01-8.62-.891-13.178-2.908q-.732.713-1.488 1.358c-4.433 3.79-9.559 5.993-14.773 6.668l.024 11.198c5.334-.044 10.372-.632 15.38-1.234 2.187-.263 4.053.182 5.626 3.75 2.371 5.378 6.783 8.962 13.725 9.037.523.006.746.205.375.487-3.295 2.51-6.95 3.06-10.763.788-2.065-1.23-3.063-4.508-3.694-6.506-.145-.461-.286-.126-.347-.028-1.518 2.474-1.258 3.874-1.143 4.96.183 1.731.32 3.682.3 5.437-.007.587-.395 1.138-.788 1.575-1.31 1.458-2.39 2.645-3.488 4.354-.332.518-.203 1.03-.374 1.386-.178.37-.413.697-.788.862-.32.141-.725.234-1.05.104-.466-.188-.899-.364-1.406-.488-.254-.062-.03-.923.126-1.132 1.661-2.215 3.287-3.757 5.16-5.918.12-.137.072-.399-.037-.544-.902-1.205-2.165-2.25-2.939-3.432-.18.749-.24 1.538-.54 2.246-.243.574-.467 1.208-.843 1.725-1.375 1.887-3.517 4.032-4.238 5.513-.093.191.16.557-.037.637-1.278.52-2.647.823-4.013 1.013-.148.02-.13-.35-.019-.45 1.79-1.592 3.651-3.819 5.24-5.841.078-.374.197-.782.18-1.134-.048-.94-.623-1.817-.601-2.757.041-1.775.843-3.1.787-5.269a145 145 0 0 1-9.766 2.104l.062 28.44c5.349-.041 10.398-.631 15.419-1.235" style="fill:#fff;fill-rule:evenodd" data-source="https://football-logos.cc"></path><!-- source: https://football-logos.cc --></svg>