<svg xmlns="http://www.w3.org/2000/svg" viewBox="421.33 134.07 1824 2398.53"><!-- Source: https://football-logos.cc --><defs data-source="https://football-logos.cc"><clipPath id="a" clipPathUnits="userSpaceOnUse"><path d="M-1316.851 606.193h2000v-2000h-2000Z"></path></clipPath><clipPath id="b" clipPathUnits="userSpaceOnUse"><path d="M-1622.682 722.03h2000v-2000h-2000Z"></path></clipPath><clipPath id="c" clipPathUnits="userSpaceOnUse"><path d="M-1428.233 1015.726h2000v-2000h-2000Z"></path></clipPath><clipPath id="d" clipPathUnits="userSpaceOnUse"><path d="M-1179.325 998.725h2000v-2000h-2000Z"></path></clipPath><clipPath id="e" clipPathUnits="userSpaceOnUse"><path d="M-1101.885 989.873h2000v-2000h-2000Z"></path></clipPath><clipPath id="f" clipPathUnits="userSpaceOnUse"><path d="M-1101.533 571.723h2000v-2000h-2000Z"></path></clipPath><clipPath id="g" clipPathUnits="userSpaceOnUse"><path d="M-1081.367 492.76h2000v-2000h-2000Z"></path></clipPath><clipPath id="h" clipPathUnits="userSpaceOnUse"><path d="M-667.731 1093.165h2000v-2000h-2000Z"></path></clipPath><clipPath id="i" clipPathUnits="userSpaceOnUse"><path d="M-1568.75 524.943h2000v-2000h-2000Z"></path></clipPath><clipPath id="j" clipPathUnits="userSpaceOnUse"><path d="M-565.964 593.53h2000v-2000h-2000Z"></path></clipPath><clipPath id="k" clipPathUnits="userSpaceOnUse"><path d="M-803.675 513.688h2000v-2000h-2000Z"></path></clipPath><clipPath id="l" clipPathUnits="userSpaceOnUse"><path d="M-1290.881 540.302h2000v-2000h-2000Z"></path></clipPath><clipPath id="m" clipPathUnits="userSpaceOnUse"><path d="M-1436.792 602.5h2000v-2000h-2000Z"></path></clipPath><clipPath id="n" clipPathUnits="userSpaceOnUse"><path d="M-651.493 969.883h2000v-2000h-2000Z"></path></clipPath><clipPath id="o" clipPathUnits="userSpaceOnUse"><path d="M-828.238 951.242h2000v-2000h-2000Z"></path></clipPath><clipPath id="p" clipPathUnits="userSpaceOnUse"><path d="M-1334.555 1002.594h2000v-2000h-2000Z"></path></clipPath><clipPath id="q" clipPathUnits="userSpaceOnUse"><path d="M-1441.306 1002.594h2000v-2000h-2000Z"></path></clipPath><clipPath id="r" clipPathUnits="userSpaceOnUse"><path d="M-1175.103 1302.68h2000v-2000h-2000Z"></path></clipPath><clipPath id="s" clipPathUnits="userSpaceOnUse"><path d="M-790.778 1339.435h2000v-2000h-2000Z"></path></clipPath><clipPath id="t" clipPathUnits="userSpaceOnUse"><path d="M-1551.222 1104.655h2000v-2000h-2000Z"></path></clipPath><clipPath id="u" clipPathUnits="userSpaceOnUse"><path d="M-610.927 992.511h2000v-2000h-2000Z"></path></clipPath><clipPath id="v" clipPathUnits="userSpaceOnUse"><path d="M-763.46 921.696h2000v-2000h-2000Z"></path></clipPath><clipPath id="w" clipPathUnits="userSpaceOnUse"><path d="M-824.545 959.624h2000v-2000h-2000Z"></path></clipPath><clipPath id="x" clipPathUnits="userSpaceOnUse"><path d="M-927.895 998.725h2000v-2000h-2000Z"></path></clipPath><clipPath id="y" clipPathUnits="userSpaceOnUse"><path d="M-1020.87 921.696h2000v-2000h-2000Z"></path></clipPath><clipPath id="z" clipPathUnits="userSpaceOnUse"><path d="M-1251.546 948.017h2000v-2000h-2000Z"></path></clipPath><clipPath id="A" clipPathUnits="userSpaceOnUse"><path d="M-1411.35 921.696h2000v-2000h-2000Z"></path></clipPath><clipPath id="B" clipPathUnits="userSpaceOnUse"><path d="M-1016.59 1589.868h2000v-2000h-2000Z"></path></clipPath><clipPath id="C" clipPathUnits="userSpaceOnUse"><path d="M-1521.266 1126.99h2000v-2000h-2000Z"></path></clipPath><clipPath id="D" clipPathUnits="userSpaceOnUse"><path d="M-1178.152 1295.82h2000v-2000h-2000Z"></path></clipPath><clipPath id="E" clipPathUnits="userSpaceOnUse"><path d="M-1005.51 1187.018h2000v-2000h-2000Z"></path></clipPath><clipPath id="F" clipPathUnits="userSpaceOnUse"><path d="M-792.068 1339.377h2000v-2000h-2000Z"></path></clipPath></defs><path d="M0 0v-230.56h-143.975V25.97C-91.039 18.701-43.087 9.79 0 0" clip-path="url(#a)" style="fill:#fff;fill-opacity:1;fill-rule:nonzero;stroke:none" transform="matrix(1.33333 0 0 -1.33333 1755.802 808.257)"></path><path d="M0 0c-47.426-29.897-96.316-114.723-96.316-114.723h-138.172V97.84C-73.864 52.701 0 0 0 0" clip-path="url(#b)" style="fill:#fff;fill-opacity:1;fill-rule:nonzero;stroke:none" transform="matrix(1.33333 0 0 -1.33333 2163.576 962.706)"></path><path d="M0 0a13.11 13.11 0 0 0-13.131 13.132c0 7.21 5.862 13.072 13.131 13.072 7.211 0 13.073-5.862 13.073-13.072C13.073 5.862 7.211 0 0 0m-16.883 74.098h-36.404V55.515h33.707V35.583h-33.707V-2.931H-74.86V94.03h57.977zM-106.809 0c-7.211 0-13.073 5.862-13.073 13.132 0 7.21 5.862 13.072 13.073 13.072 7.269 0 13.131-5.862 13.131-13.072A13.11 13.11 0 0 0-106.809 0m-23.449 87.405-3.517-13.659-.879-3.634-3.283 1.758c-4.925 2.58-10.728 3.87-17.294 3.87-9.027 0-16.062-2.638-21.456-8.032-5.392-5.452-7.972-12.779-7.972-22.393 0-8.793 2.58-16.004 7.679-21.456 5.101-5.51 12.077-8.207 21.398-8.207 7.093 0 13.131 1.172 17.821 3.517l3.399 1.642.763-3.693 2.814-13.425.469-2.11-1.935-1.055c-6.155-3.342-14.772-5.042-25.735-5.042-14.89 0-26.907 4.514-35.759 13.483-8.793 8.969-13.249 20.987-13.249 35.643 0 14.889 4.807 27.2 14.187 36.696 9.38 9.498 21.807 14.304 36.873 14.304 10.786 0 18.759-1.641 24.386-4.982l1.876-1.114zm-118.65-90.336h-60.264V94.03h58.329V74.098h-36.756V56.981h34.704V37.108h-34.704V17h38.691zm-86.702 7.152c-6.097-5.804-15.124-8.735-26.791-8.735-4.924 0-9.613.645-14.42 1.935-5.042 1.348-8.852 2.989-11.666 4.924l-1.7 1.173.527 1.934 3.635 14.187.997 3.927 3.4-2.169c6.272-3.986 13.19-6.038 20.576-6.038 4.221 0 7.503.879 9.731 2.697 2.052 1.7 3.049 3.869 3.049 6.8 0 2.521-.821 4.572-2.58 6.155-1.465 1.348-4.573 3.459-11.138 5.628-8.442 2.814-14.949 6.565-19.463 11.138-4.689 4.866-7.034 11.138-7.034 18.583 0 8.5 3.224 15.594 9.497 21.162 6.155 5.335 14.303 8.09 24.152 8.09 9.204 0 17.117-1.758 23.566-5.159l2.052-1.113-.645-2.286-4.045-13.835-.997-3.459-3.224 1.7c-5.452 2.931-11.197 4.397-17.059 4.397-4.045 0-7.034-.821-8.793-2.462-1.817-1.642-2.697-3.459-2.697-5.569 0-2.404.88-4.221 2.756-5.687 1.641-1.29 5.158-3.4 12.369-5.979 8.734-3.224 14.89-7.035 18.817-11.666 4.221-4.748 6.39-11.021 6.39-18.642 0-8.617-3.107-15.886-9.262-21.631m-71.753-7.152h-21.28l-.821 1.465-23.976 40.567c-4.397 7.68-8.09 14.538-11.138 20.576.176-7.21.234-15.476.234-24.68V-2.931h-20.459V94.03h23.332l.879-1.407 23.742-39.218c3.4-5.804 6.566-11.608 9.379-17.411-.234 6.331-.351 13.424-.351 21.338V94.03h20.459zm-92.975 0h-60.322V94.03h58.388V74.098h-36.815V56.981h34.704V37.108h-34.704V17h38.749zm-95.847 0-.82 1.583c-1.7 3.4-3.752 10.669-6.214 22.1-1.407 6.507-3.341 9.438-4.748 10.728-1.759 1.759-4.69 2.755-8.442 2.931h-6.097V-2.931h-21.455v95.26l2.403.411c7.856 1.407 16.532 2.11 25.735 2.11 13.073 0 22.804-2.814 28.842-8.265 5.569-4.925 8.442-11.783 8.442-20.518 0-6.331-1.759-11.842-5.276-16.238-2.228-2.873-4.807-5.217-7.563-6.976 4.045-3.4 6.976-8.852 8.852-16.297l.528-2.11c.411-1.701.879-3.752 1.524-6.097.469-2.111.938-3.869 1.349-5.393l.586-2.462c.469-1.759.996-3.577 1.583-5.511.234-.762.879-2.872 1.289-3.693l2.111-4.221zm-68.587 43.908c0-15.066-3.517-26.497-10.435-34.001-6.976-7.621-16.707-11.49-28.783-11.49-11.49 0-20.752 3.811-27.435 11.314-6.566 7.504-9.79 18.701-9.79 34.177V94.03h21.514V40.273c0-8.441 1.583-14.948 4.631-19.286 2.814-4.045 6.683-5.98 11.842-5.98 5.393 0 9.379 1.935 12.311 5.921 3.048 4.104 4.572 10.611 4.572 19.345V94.03h21.573zM-767.419 9.555c-8.735-9.32-20.048-14.069-33.825-14.069-13.365 0-24.386 4.69-32.711 14.011-8.265 9.145-12.428 20.986-12.428 35.115 0 14.831 4.338 27.141 12.897 36.638 8.676 9.497 19.932 14.362 33.473 14.362 13.718 0 24.915-4.689 33.239-14.01 8.265-9.145 12.428-20.987 12.428-35.232 0-15.124-4.397-27.494-13.073-36.815m-180.673 142.979 33.942-203.535H57.684l33.942 203.535z" clip-path="url(#c)" style="fill:#fff;fill-opacity:1;fill-rule:nonzero;stroke:none" transform="matrix(1.33333 0 0 -1.33333 1904.31 1354.3)"></path><path d="M0 0v-19.932h-60.263v96.961h58.329V57.098h-36.757V39.98h34.704V20.107h-34.704V0z" clip-path="url(#d)" style="fill:#1050de;fill-opacity:1;fill-rule:nonzero;stroke:none" transform="matrix(1.33333 0 0 -1.33333 1572.433 1331.633)"></path><path d="M0 0c0-8.618-3.107-15.887-9.262-21.631-6.097-5.804-15.125-8.735-26.791-8.735-4.924 0-9.613.645-14.42 1.934-5.042 1.349-8.852 2.99-11.666 4.925l-1.7 1.172.527 1.934 3.635 14.187.996 3.928 3.401-2.169c6.272-3.987 13.19-6.039 20.576-6.039 4.22 0 7.503.88 9.731 2.697 2.052 1.7 3.048 3.869 3.048 6.801 0 2.52-.82 4.572-2.579 6.155-1.465 1.348-4.573 3.458-11.138 5.627-8.442 2.814-14.949 6.566-19.463 11.139-4.689 4.865-7.034 11.138-7.034 18.583 0 8.5 3.224 15.593 9.497 21.162 6.155 5.335 14.303 8.09 24.152 8.09 9.204 0 17.117-1.759 23.566-5.159l2.052-1.113-.645-2.287-4.045-13.834-.997-3.459-3.224 1.7c-5.452 2.931-11.197 4.396-17.059 4.396-4.045 0-7.035-.82-8.793-2.462-1.817-1.641-2.697-3.459-2.697-5.569 0-2.403.88-4.22 2.755-5.686 1.642-1.29 5.159-3.4 12.37-5.98 8.734-3.224 14.889-7.034 18.817-11.665C-2.169 13.893 0 7.621 0 0" clip-path="url(#e)" style="fill:#1050de;fill-opacity:1;fill-rule:nonzero;stroke:none" transform="matrix(1.33333 0 0 -1.33333 1469.18 1319.83)"></path><path d="M0 0v-265.029h-96.023V7.386A2128 2128 0 0 0 0 0" clip-path="url(#f)" style="fill:#fff;fill-opacity:1;fill-rule:nonzero;stroke:none" transform="matrix(1.33333 0 0 -1.33333 1468.71 762.297)"></path><path d="M0 0h-161.679c.176 3.224.351 6.39.586 9.497.235 3.165.469 6.213.704 9.262.175 2.58.41 5.159.703 7.68.293 3.224.645 6.389.997 9.438.351 2.931.703 5.862 1.055 8.734 0 .118.058.235.058.293.352 2.756.762 5.453 1.173 8.149.41 2.697.821 5.334 1.289 7.914.411 2.638.88 5.159 1.349 7.679.879 4.866 1.876 9.556 2.872 14.128.586 2.521 1.114 4.983 1.759 7.387.528 2.227 1.114 4.455 1.7 6.683.528 2.168 1.172 4.338 1.759 6.448.586 2.11 1.172 4.162 1.817 6.213 0 .176.058.294.117.47.586 1.876 1.173 3.693 1.759 5.51a95 95 0 0 0 1.934 5.745c.528 1.641 1.114 3.224 1.701 4.807 1.758 4.749 3.517 9.263 5.334 13.483.821 1.935 1.642 3.752 2.462 5.569.645 1.407 1.29 2.814 1.935 4.162a340 340 0 0 0 2.286 4.631c.762 1.525 1.524 2.99 2.286 4.456.235.527.528.996.762 1.407.586 1.113 1.173 2.227 1.817 3.283a191 191 0 0 0 4.749 7.972c.762 1.29 1.583 2.521 2.403 3.752a99 99 0 0 0 1.759 2.579c1.172 1.7 2.345 3.342 3.459 4.925a102 102 0 0 0 4.572 5.862c.704.879 1.407 1.758 2.11 2.579q1.672 1.935 3.166 3.693c1.055 1.056 1.993 2.052 2.931 2.989a42 42 0 0 0 2.287 2.288c.644.585 1.23 1.172 1.817 1.758.117.117.234.234.352.292.527.528 1.113.998 1.641 1.525 3.752 3.283 6.624 5.276 8.148 6.273.293.176.586.352.762.469.294.234.47.293.47.293s.175-.059.468-.293c.176-.117.469-.293.762-.469 1.525-.997 4.397-2.99 8.149-6.273.528-.527 1.114-.997 1.642-1.525.117-.058.234-.175.351-.292.586-.586 1.172-1.173 1.817-1.758a42 42 0 0 0 2.286-2.288c.939-.937 1.876-1.933 2.932-2.989a654 654 0 0 1 3.165-3.693c.704-.821 1.407-1.7 2.111-2.579a102 102 0 0 0 4.572-5.862 119 119 0 0 0 3.459-4.925c.586-.821 1.172-1.7 1.758-2.579.821-1.231 1.642-2.462 2.404-3.752a191 191 0 0 0 4.749-7.972c.644-1.056 1.23-2.17 1.817-3.283.234-.411.527-.88.762-1.407.762-1.466 1.524-2.931 2.286-4.456a340 340 0 0 0 2.286-4.631c.645-1.348 1.29-2.755 1.935-4.162a259 259 0 0 0 2.462-5.569c1.817-4.22 3.576-8.734 5.335-13.483.586-1.583 1.172-3.166 1.7-4.807a95 95 0 0 0 1.934-5.745c.586-1.817 1.173-3.634 1.759-5.51.058-.176.117-.294.117-.47a191 191 0 0 0 1.817-6.213c.645-2.11 1.231-4.28 1.759-6.448.586-2.228 1.172-4.456 1.7-6.683.645-2.404 1.172-4.866 1.758-7.387.997-4.572 1.994-9.262 2.873-14.128.469-2.52.938-5.041 1.348-7.679.469-2.58.879-5.217 1.29-7.914.41-2.696.821-5.393 1.172-8.149 0-.058.059-.175.059-.293.352-2.872.704-5.803 1.055-8.734.352-3.049.704-6.214.997-9.438.293-2.521.527-5.1.703-7.68.235-3.049.469-6.097.704-9.262C-.352 6.39-.176 3.224 0 0" clip-path="url(#g)" style="fill:#fff;fill-opacity:1;fill-rule:nonzero;stroke:none" transform="matrix(1.33333 0 0 -1.33333 1441.823 657.013)"></path><path d="M0 0v-397.515l-60.908 80.84c-6.742 8.969-10.435 19.872-10.435 31.069V0Z" clip-path="url(#h)" style="fill:#fff;fill-opacity:1;fill-rule:nonzero;stroke:none" transform="matrix(1.33333 0 0 -1.33333 890.308 1457.553)"></path><path d="M0 0v-149.955c-33.825 17.235-67.532 32.535-100.947 45.96-3.283 47.308-21.925 66.125-34.118 73.395-6.859 4.044-15.184 4.982-22.453 1.817-22.334-9.791-23.038-43.381-23.038-46.253a1244 1244 0 0 1-71.343 20.693v40.157c-48.07 114.371-95.553 110.736-95.553 110.736-27.025-.937-41.329-34.235-48.422-60.615v-62.491c-3.518.47-7.035.938-10.552 1.348a1237 1237 0 0 1-28.431 3.166c-10.846 1.055-21.632 1.994-32.36 2.697v86.584c0 17.176-1.7 34.353-5.452 51.177a158 158 0 0 1-1.758 7.152c-1.349 4.924-2.638 9.673-4.045 14.362a334 334 0 0 1-4.221 13.483c-34.059 103.468-85.529 131.841-85.529 131.841s-51.47-28.373-85.53-131.841a352 352 0 0 1-2.931-9.32 253 253 0 0 1-3.165-10.67l-.352-1.406c-5.51-19.932-8.207-40.45-8.324-61.143v-382.683h-71.343v341.12c-17.88 74.743-48.774 67.239-48.774 67.239-63.897-10.259-99.129-83.243-112.378-117.83v-290.529h-71.342v231.497c-3.108 29.721-16.825 44.026-27.553 50.766-8.09 5.101-18.641 4.456-26.262-1.348-23.977-18.114-29.018-57.684-29.839-81.367-26.849-11.314-53.815-23.917-80.957-37.694V0s263.33 323.124 568.515 381.101C-263.272 323.065 0 0 0 0" clip-path="url(#i)" style="fill:#fff;fill-opacity:1;fill-rule:nonzero;stroke:none" transform="matrix(1.33333 0 0 -1.33333 2091.666 699.924)"></path><path d="m0 0-24.211-8.969s-2.345 13.776 8.617 21.631c4.514 3.166 11.021 1.759 13.425-3.166C-.997 7.21-.117 4.103 0 0" clip-path="url(#j)" style="fill:#fff;fill-opacity:1;fill-rule:nonzero;stroke:none" transform="matrix(1.33333 0 0 -1.33333 754.618 791.374)"></path><path d="m0 0-93.15-28.079s19.111 53.756 57.625 72.867c11.373 5.686 25.501.996 31.187-10.318C-.352 26.556 2.286 15.36 0 0" clip-path="url(#k)" style="fill:#fff;fill-opacity:1;fill-rule:nonzero;stroke:none" transform="matrix(1.33333 0 0 -1.33333 1071.567 684.917)"></path><path d="m0 0-91.684 27.318s.469 26.966 13.249 42.501c5.216 6.331 14.538 7.328 21.279 2.638C-40.977 61.084-8.852 34.822 0 0" clip-path="url(#l)" style="fill:#fff;fill-opacity:1;fill-rule:nonzero;stroke:none" transform="matrix(1.33333 0 0 -1.33333 1721.175 720.403)"></path><path d="m0 0-24.212 8.969c.118 4.104.997 7.211 2.17 9.496 2.403 4.925 8.911 6.332 13.424 3.166C2.344 13.776 0 0 0 0" clip-path="url(#m)" style="fill:#fff;fill-opacity:1;fill-rule:nonzero;stroke:none" transform="matrix(1.33333 0 0 -1.33333 1915.723 803.333)"></path><path d="M0 0c0-9.204-2.228-16.824-6.624-22.628-4.221-5.628-9.79-8.383-17-8.383h-.118c-7.093 0-12.604 2.755-16.824 8.383-4.456 5.804-6.683 13.131-6.683 21.807 0 9.028 2.227 16.649 6.565 22.687 4.221 5.745 9.849 8.559 17.177 8.559 7.152 0 12.721-2.814 16.941-8.559C-2.228 15.828 0 8.5 0 0" clip-path="url(#n)" style="fill:#fff;fill-opacity:1;fill-rule:nonzero;stroke:none" transform="matrix(1.33333 0 0 -1.33333 868.657 1293.178)"></path><path d="M0 0c0-3.635-1.172-6.39-3.693-8.383-2.638-2.227-6.214-3.283-11.021-3.283h-7.797v22.687c2.111.352 4.807.469 8.031.469 4.69 0 8.383-.996 10.962-2.931C-1.172 6.859 0 3.986 0 0" clip-path="url(#o)" style="fill:#fff;fill-opacity:1;fill-rule:nonzero;stroke:none" transform="matrix(1.33333 0 0 -1.33333 1104.317 1268.322)"></path><path d="M0 0a13.11 13.11 0 0 0-13.131-13.132c-7.211 0-13.073 5.863-13.073 13.132 0 7.21 5.862 13.073 13.073 13.073C-5.862 13.073 0 7.21 0 0" clip-path="url(#p)" style="fill:#1050de;fill-opacity:1;fill-rule:nonzero;stroke:none" transform="matrix(1.33333 0 0 -1.33333 1779.407 1336.792)" data-source="https://football-logos.cc"></path><path d="M0 0c0-7.269-5.862-13.132-13.073-13.132A13.11 13.11 0 0 0-26.205 0c0 7.21 5.863 13.073 13.132 13.073C-5.862 13.073 0 7.21 0 0" clip-path="url(#q)" style="fill:#1050de;fill-opacity:1;fill-rule:nonzero;stroke:none" transform="matrix(1.33333 0 0 -1.33333 1921.741 1336.792)"></path><path d="M0 0c1.173 1.583 1.642 2.462 1.642 2.462q.968 2.462 1.406 4.397C2.404 4.455 1.348 2.11 0 0" clip-path="url(#r)" style="fill:#1050de;fill-opacity:1;fill-rule:nonzero;stroke:none" transform="matrix(1.33333 0 0 -1.33333 1566.804 1736.906)"></path><path d="M0 0h.879c.117 0 .294 0 .411.059C.879.059.469.059 0 0" clip-path="url(#s)" style="fill:#1050de;fill-opacity:1;fill-rule:nonzero;stroke:none" transform="matrix(1.33333 0 0 -1.33333 1054.371 1785.914)"></path><path d="M0 0c-1.876-1.935-7.328.469-12.135 5.276-4.866 4.807-7.211 10.259-5.335 12.193 1.934 1.876 7.387-.469 12.193-5.334C-.469 7.328 1.933 1.876 0 0m-545.712-742.388v236.305c-14.596-11.431-37.928-8.324-37.928-8.324-22.452-1.114-20.928-19.052-20.928-19.052h-106.281c.058 1.7.351 3.341.762 4.924.176.821.41 1.583.703 2.345.235.762.528 1.524.879 2.228v.058c.352.704.704 1.407 1.056 2.052.527.997 1.113 1.993 1.758 2.873.352.527.704 1.055 1.114 1.524.41.527.821 1.055 1.231 1.524.821.938 1.642 1.817 2.463 2.697.468.469.879.879 1.348 1.289a60 60 0 0 0 5.451 4.397 89 89 0 0 0 3.928 2.579c.469.293.88.528 1.349.821 4.748 2.638 10.141 3.986 15.652 3.986h41.562c2.931 0 5.745 1.173 7.797 3.224l1.642 1.642c2.344 2.345 3.224 5.686 2.52 8.91a145 145 0 0 0-2.11 11.9c-.176 1.114-.352 2.228-.469 3.342-1.524 11.959-1.817 23.097-1.759 30.659v.704c.176 6.448 1.818 12.721 4.983 18.348.293.645.704 1.231 1.114 1.817.117.177.234.411.352.587.293.41.586.879.879 1.289.41.587.821 1.173 1.29 1.759.234.352.469.704.762.997.644.879 1.289 1.7 1.993 2.462.293.352.586.645.879.938a46 46 0 0 0 2.873 2.989 45 45 0 0 0 3.576 3.225c2.462 2.052 5.041 3.81 7.621 5.393 18.348 11.197 39.862 12.076 51.938 11.431v-42.735l23.801 7.445c-8.559-57.977 69.232-97.313 69.232-97.313l-23.155-16.296s-.059 0-.059-.059c-2.696-1.817-6.038-2.638-9.262-1.935-1.407.294-2.756.587-4.045.762-1.055.177-2.052.352-2.99.47-17.528 2.169-26.438-3.811-30.894-9.79-.468-.587-.879-1.231-1.289-1.876-.762-1.29-1.349-2.462-1.759-3.576-.234-.528-.41-1.055-.586-1.524-.176-.528-.293-.938-.352-1.349-.352-1.172-.41-1.875-.41-1.875h105.519c10.435 39.686 43.732 41.211 43.732 41.211 4.866 3.458 6.507 6.8 6.507 9.672 0 .528-.059.997-.176 1.466 0 .234-.058.41-.117.586-.117.469-.234.879-.41 1.231a11.7 11.7 0 0 1-.938 1.7c-.235.41-.469.704-.762 1.055-.059.118-.176.176-.235.293-2.403 3.166-3.635 7.094-3.635 11.08v.293c0 3.341-.058 6.449-.234 9.321-.058 1.231-.117 2.403-.234 3.576a29 29 0 0 1-.352 3.341c-.118.997-.235 1.994-.41 2.99-1.114 7.504-2.99 12.78-5.1 16.355-.176.411-.47.821-.705 1.173a18.7 18.7 0 0 1-2.109 2.755l-.176.176c-3.049 3.166-7.797 3.986-11.666 1.935-.469-.235-.879-.411-1.289-.645-.059 0-.059-.059-.059-.059l-.352-.176c-.645-.293-1.29-.645-1.935-.879-.761-.352-1.524-.645-2.227-.938a28 28 0 0 0-2.814-1.055 21 21 0 0 0-2.345-.704c-.997-.234-1.993-.469-2.873-.586-.761-.176-1.465-.234-2.11-.293-.762-.058-1.465-.117-2.169-.117-15.241 0-18.29 15.359-18.29 15.359-.586 2.521-.879 4.865-.879 6.976 0 1.055.058 2.11.234 3.107.117 1.055.293 1.993.586 2.931.411 1.524.939 2.931 1.642 4.221.234.527.469.996.762 1.407.293.469.528.937.879 1.348.176.351.411.644.645.938.176.234.41.527.586.762a24 24 0 0 0 1.642 1.817c.351.352.703.704 1.055.997a22 22 0 0 0 2.169 1.876c.293.234.645.468.997.703.293.234.644.469.996.704 3.342 2.227 7.387 3.282 11.432 3.282h43.614c4.397 0 8.735 1.525 11.842 4.514l1.231 1.407c.41.528.821 1.055 1.173 1.641.351.528.702 1.056 1.113 1.642.352.645.762 1.29 1.114 2.052.352.644.704 1.348.996 2.052a43 43 0 0 1 1.935 4.689c.352.938.704 1.876.996 2.873a84 84 0 0 1 1.349 4.572c.234.88.468 1.818.703 2.697.47 1.876.88 3.81 1.29 5.803.352 1.935.762 3.987 1.055 6.039 1.466 8.851 2.404 18.407 2.99 27.962.117 1.348.176 2.638.234 3.928.059 1.407.117 2.814.176 4.162.117 2.521.235 5.042.293 7.503.704 27.905-.937 51.939-.937 51.939l-17.177-16.296c-2.697-2.58-5.921-4.514-9.496-5.511-.646-.176-1.29-.351-1.877-.528-13.366-3.106-15.593 3.987-15.183 10.377.293 4.865 3.459 9.145 7.856 11.431 3.048 1.583 5.686 3.165 7.973 4.748.703.528 1.465 1.056 2.109 1.583q4.397 3.517 6.684 6.859c.351.469.644.938.879 1.348q.528.791.879 1.583c.234.527.469.996.645 1.466 3.635 9.262-2.403 16.238-2.403 16.238-.528.703-.997 1.348-1.524 1.876a4 4 0 0 1-.704.703c-1.642 1.583-2.931 1.759-3.986 1.231a2.6 2.6 0 0 1-.645-.469 9 9 0 0 1-.703-.762c-.235-.352-.411-.762-.646-1.173-.175-.41-.351-.82-.526-1.289a11.4 11.4 0 0 1-.47-1.524c-.235-.879-.411-1.818-.586-2.697 0-.117-.059-.176-.059-.293-.644-2.99-2.931-5.452-5.862-6.273-.059 0-.176-.058-.235-.058l-37.517-9.087c-9.849-1.582-15.066.118-17.587 3.401-.41.527-.762 1.055-.996 1.641-1.642 3.635-.939 8.383.293 12.487.117.293.175.586.293.879 1.758 4.748 5.628 8.441 10.376 10.317a154 154 0 0 1 14.772 6.742c1.701.879 3.342 1.758 4.866 2.696 2.638 1.524 5.1 3.049 7.328 4.573 2.11 1.465 4.103 2.931 5.862 4.338 1.289.996 2.462 1.993 3.576 2.931a918 918 0 0 0 3.517 3.341 56 56 0 0 1 3.869 4.28c.118.117.234.234.352.41.528.645.996 1.29 1.465 1.993 1.348 2.111 2.405 4.455 3.049 6.859.058.176.058.293.117.469 4.514 18.114-18.7.352-18.7.352-12.37-8.618-40.039-7.856-40.039-7.856l16.062 21.749c2.462 3.342 5.687 6.097 9.556 7.68.293.117.645.293.938.41 1.054.41 2.052.879 2.989 1.348 9.79 4.573 17.117 9.849 22.453 15.535.761.762 1.465 1.583 2.227 2.462 3.753 4.514 6.39 9.263 8.149 14.128.234.528.409 1.114.586 1.7a40.6 40.6 0 0 1 1.582 6.39c.118.586.176 1.172.294 1.758 3.224 23.567-10.962 45.432-10.962 45.432-30.425-60.614-27.963-12.955-27.963-12.955-52.349-35.935-39.629-72.867-39.629-72.867-.82-.293-1.699-.586-2.462-.997-2.462-1.055-4.689-2.52-6.624-4.22-.528-.411-1.055-.938-1.524-1.407a11.4 11.4 0 0 1-1.407-1.524 43 43 0 0 1-3.693-4.866 10 10 0 0 1-1.055-1.7 35 35 0 0 1-1.876-3.576c-.293-.645-.586-1.231-.821-1.817a11 11 0 0 1-.704-1.759 11.6 11.6 0 0 1-.703-1.817 74 74 0 0 1-2.521-8.794c-.058-.351-.175-.762-.234-1.113-.88-4.573-1.29-9.145-.88-13.776q.177-2.11.528-4.221c.117-.879.293-1.759.469-2.638.176-1.114.41-2.169.645-3.224.058-.528.234-1.056.352-1.524.234-.997.468-1.994.762-2.99.469-1.583.938-3.166 1.465-4.69a21 21 0 0 1 .88-2.462c4.514-12.369 11.49-24.094 19.638-34.822a151 151 0 0 1 3.752-4.807c21.455-26.438 49.008-46.311 60.907-54.283.294-.176.587-.411.881-.587a24.4 24.4 0 0 0 8.03-10.2c.293-.586.47-1.172.704-1.758a31.5 31.5 0 0 0 1.231-4.045c.059-.059.059-.059.059-.118.645-2.462 1.113-4.748 1.289-6.858 1.055-9.907-2.11-16.766-7.151-21.514-.47-.47-.939-.88-1.466-1.29-.528-.469-1.114-.879-1.642-1.29-1.113-.762-2.227-1.465-3.341-2.052a39.4 39.4 0 0 0-7.269-3.107c-.41-.176-.879-.293-1.29-.41-.352-.117-.703-.235-1.055-.293a26 26 0 0 0-2.696-.703c-7.915-1.818-14.539-1.759-14.539-1.759a67 67 0 0 1 .176 4.807q0 2.375-.176 4.572v.176a56 56 0 0 1-.527 4.514c-.645 4.104-1.642 7.972-3.049 11.607a17 17 0 0 1-.762 1.817 23 23 0 0 1-1.231 2.756 24 24 0 0 1-1.583 2.989 57 57 0 0 1-6.272 8.969c-.469.587-.997 1.173-1.524 1.759-4.807 5.276-10.377 9.731-16.297 13.483-.645.469-1.349.879-1.994 1.231-1.055.645-2.11 1.29-3.165 1.876-.938.528-1.876 1.055-2.873 1.524 0 .059-.058.059-.117.059a55 55 0 0 1-3.224 1.641 121 121 0 0 1-3.986 1.818c-.938.41-1.876.82-2.814 1.172a56 56 0 0 1-3.986 1.583 66 66 0 0 1-3.987 1.407c-2.638.938-5.158 1.7-7.503 2.403-1.173.352-2.345.645-3.459.938a158 158 0 0 1-12.135 2.755c-.234.059-.41.059-.644.118-4.397.996-8.383 3.459-10.904 7.151-.352.528-.704 1.056-.997 1.642v.059c-2.11 4.045-2.169 7.62-1.172 10.669.176.586.41 1.114.703 1.641.059.117.117.235.176.41.88 1.7 2.052 3.166 3.4 4.514.879.938 1.876 1.759 2.814 2.463l.176.176c3.283 2.696 3.869 7.503 1.583 11.137q-2.023 3.166-3.166 5.98c-.235.586-.41 1.173-.586 1.759-.176.527-.352 1.055-.469 1.583-1.172 4.572-.703 8.5.586 11.841.176.586.41 1.114.703 1.641.294.704.645 1.407 1.114 2.052.352.587.704 1.114 1.114 1.642a10 10 0 0 0 1.173 1.465c.41.469.821.938 1.231 1.348.176.235.41.411.586.587 3.4 3.224 5.276 7.738 5.276 12.369 0 .41-.059.821-.059 1.231-.762 10.435-.879 19.169-.645 26.438 0 1.055.059 2.052.118 3.049.058.938.117 1.934.176 2.814.175 2.286.351 4.338.586 6.272.058.528.117.997.176 1.466.117.938.234 1.817.41 2.638.176 1.172.352 2.345.586 3.4.235 1.231.528 2.403.762 3.4.293 1.055.586 1.993.821 2.872.235.645.41 1.231.645 1.759.293.821.586 1.583.879 2.228.235.468.41.879.645 1.289.058.059.058.176.117.235 1.524 3.165 1.173 6.917-.762 9.907 0 .117-.058.176-.117.293l-45.022 66.243c-5.979 4.748-12.193 7.386-18.466 8.441v-286.719c-1.582.293-3.341.586-5.1.996-.351.059-.703.117-1.055.235a79 79 0 0 0-5.686 1.348c-1.525.352-2.99.821-4.573 1.29a189 189 0 0 0-6.917 2.286 2 2 0 0 1-.528.234c-1.114.411-2.227.88-3.341 1.349-8.09 3.4-15.828 8.09-21.632 14.362-1.7 1.817-4.572 1.876-6.331.117a91 91 0 0 0-2.345-2.286c-.703-.645-1.406-1.348-2.169-2.052a165 165 0 0 0-9.145-8.089c-.938-.704-1.876-1.466-2.813-2.169-2.99-2.228-5.921-4.163-8.559-5.394-.645-.293-1.231-.586-1.818-.762a5.2 5.2 0 0 0-1.172-.352c-.176-.058-.352-.117-.528-.117a7.2 7.2 0 0 0-1.524-.176c-.469 0-.938.059-1.348.176 0 0-4.631-.117-10.962.176-.88.059-1.818.117-2.697.176-1.524.117-3.166.234-4.807.41-.586.059-1.114.117-1.7.176-7.621.88-15.769 2.521-21.104 5.628-.528.293-.938.586-1.407.938l-.527.351c-2.873 2.228-6.566 3.166-10.142 2.815a29 29 0 0 1-3.048-.352c-1.466-.235-2.99-.528-4.456-.938-.644-.176-1.289-.352-1.934-.586-3.107-1.114-5.921-2.814-7.679-5.276-.235-.352-.47-.704-.646-1.114q-.175-.177-.175-.352c-.176-.293-.293-.527-.352-.821-.176-.41-.352-.879-.41-1.348a12 12 0 0 1-.176-4.397s-5.569-36.287-29.135-15.71c0 0-.411-36.287-22.863-25.032 0 0-8.969 7.856-9.731 27.318 0 0-.704-.528-1.759-1.29-.586-.352-1.231-.821-1.934-1.289-.528-.352-1.055-.704-1.7-1.055-.645-.411-1.349-.821-2.052-1.232-.879-.527-1.876-.996-2.814-1.465-.938-.411-1.876-.821-2.755-1.114-2.111-.762-4.104-1.055-5.569-.528a2 2 0 0 0-.704.352c-.234.176-.41.293-.586.528-.996 1.055-1.407 2.755-1.055 5.569.059.41.117.879.234 1.407 0 .176.059.41.118.586.117.645.293 1.29.469 1.993 1.114 4.279 3.458 10.083 7.386 17.88 1.524 3.048 1.348 6.741-.469 9.614-.059.058-.059.117-.059.175-2.227 3.518-4.982 8.559-6.214 13.366-.234.704-.351 1.407-.469 2.111-1.113 6.858 1.583 12.721 14.363 12.369 0 0 36.287-13.073 79.315 22.1 0 0-1.993.469-5.158 1.7a84 84 0 0 0-2.931 1.231c-.528.235-1.056.47-1.642.763-1.114.527-2.286 1.172-3.517 1.817-.645.352-1.231.703-1.876 1.114a48 48 0 0 0-3.869 2.52c-1.29.939-2.638 1.935-3.928 3.049-1.289 1.114-2.579 2.345-3.869 3.634-8.266 8.442-15.183 20.987-15.124 39.336 0 1.465.058 2.989.176 4.513 0 .704.058 1.349.117 2.052.234 3.107-.293 6.214-1.7 8.852q-.616 1.056-1.407 2.111l-.059.058c-.469.528-.938 1.055-1.465 1.524-.293.235-.645.528-.939.704-.41.352-.879.586-1.289.82-.293.118-.645.293-.938.352-.41.176-.762.235-1.172.352h-.059c-.41.059-.821.117-1.231.117s-.879 0-1.348-.117q-.44 0-.88-.176c-.762-.117-1.524-.41-2.344-.879a6.6 6.6 0 0 1-1.232-.704 3.5 3.5 0 0 1-.879-.527c-.058 0-.058-.059-.117-.117-2.287-1.642-4.983-2.697-7.856-2.873-.058-.059-.058-.059-.117 0-.117-.059-.293-.059-.41-.059h-.88c-1.231-.058-2.579-.058-4.044-.058-2.228 0-4.749.058-7.27.176-.527 0-1.055 0-1.582.058-1.7.117-3.342.235-4.983.469a43 43 0 0 0-4.104.704c-.644.117-1.289.293-1.876.469-.586.175-1.172.351-1.7.527-1.641.587-2.989 1.29-3.869 2.169-.352.293-.645.587-.82.938-.645.88-.88 1.994-.587 3.224.059.352.176.704.352 1.114q.44.967 1.231 2.111c.235.351.528.645.821.996.234.352.527.704.938 1.055.293.411.703.763 1.114 1.114l.176.176c1.465 1.524 1.641 4.045.175 5.569a8.4 8.4 0 0 0-.879 1.055c-.235.293-.41.587-.645.88-.41.586-.762 1.231-1.114 1.993-.351.821-.644 1.7-.82 2.696-.117.411-.176.821-.235 1.29q-.264 1.671 0 3.693c0 .469.059.997.176 1.466.176 1.29.528 2.638 1.055 4.103.176.469.352.997.586 1.466.645 1.758 1.642 3.634 2.873 5.686.293.528.645 1.114 1.055 1.7 3.224 4.925 8.032 10.669 15.008 17.294l2.461 2.286c.059.058.118.117.118.176 1.641 1.524 2.462 3.576 2.462 5.745v.586c0 .176-.059.352-.059.586-.058.88-.117 1.817-.234 2.873.058.058 0 .117 0 .176 0 .703-.059 1.348-.059 2.051-.117 2.931-.058 6.097.411 8.911.117.762.234 1.465.41 2.169.117.469.234.938.41 1.348a9.5 9.5 0 0 0 1.173 2.462c.176.235.41.469.586.704.41.41.938.762 1.524.996.469.176.938.293 1.465.293 1.759 0 4.045-.996 6.918-3.399.762-.587 1.524-1.29 2.286-2.052 2.404-2.345 5.217-5.511 8.383-9.673L-591.026 9.848c.059.059.117.118.176.118 2.579 2.638 6.8 2.755 9.496.175.059 0 .118-.058.176-.117l.938-.996c2.521-2.521 2.638-6.507.293-9.204l-144.737-166.252 20.928-20.869s-33.414-7.093-13.366-17.587c.821-.41 1.759-.879 2.814-1.348.235-.117.41-.176.645-.293 2.814-1.114 5.452-2.52 7.914-4.279.058-.059.175-.117.234-.176.411-.293.88-.645 1.407-.997.469-.351 1.055-.703 1.642-1.055.586-.41 1.23-.821 1.876-1.172 4.689-2.873 11.255-6.214 19.227-8.559.938-.293 1.876-.586 2.873-.821 1.172-.293 2.345-.586 3.576-.879a39 39 0 0 1 3.751-.704c1.232-.176 2.58-.351 3.987-.527 2.638-.293 5.393-.411 8.266-.411 1.113 0 2.227 0 3.341.059.059 0 .176.059.293 0 2.286.117 4.573.293 6.917.703.88.059 1.759.235 2.697.411s1.935.352 2.931.586c.997.235 1.993.469 3.048.703a74 74 0 0 1 7.739 2.463q1.406.439 2.814 1.055c.058 0 .117.059.175.059h.059c1.524.644 2.345 2.403 2.052 3.986 0 .059-.059.176-.059.234-.645 2.462-.821 5.452 2.462 4.749.293-.059.645-.117 1.055-.294q1.055-.35 2.639-1.231a49 49 0 0 0 2.813-1.758 22 22 0 0 0 1.642-1.173c.058-.058.117-.058.175-.117a23.7 23.7 0 0 1 11.197-4.162c.763-.059 1.524-.059 2.286-.059.88 0 1.818.059 2.697.176.352 0 .704.059 1.055.117.352.059.645.059.997.176.41.059.879.118 1.29.235.527.117.996.234 1.524.41.762.235 1.524.528 2.228.821q.702.264 1.406.703c1.056.528 2.052 1.232 2.99 1.994.469.41.938.82 1.348 1.289 1.466 1.466 2.697 3.224 3.635 5.393.293.587.528 1.231.762 1.876l.352 1.055c.41 1.232.703 2.58.938 4.045 0 0-30.66-6.448-32.887 14.48 0 0-53.874-23.683-47.894 31.187 0 0 1.289.996 3.224.762.176 0 .352 0 .528-.059 1.055-.234 2.286-.82 3.517-2.052.586-.527 1.114-1.172 1.7-1.934.234-.352.469-.703.704-1.114.41-.645.761-1.29 1.172-2.052.176-.468.41-.937.645-1.407.117-.234.175-.469.293-.644 1.582-3.283 3.927-6.156 6.976-8.09.117-.118.234-.235.352-.293a7.5 7.5 0 0 1 1.172-.645c.41-.235.821-.469 1.29-.645.293-.176.586-.293.879-.469.41-.176.879-.351 1.29-.469a8.4 8.4 0 0 1 1.582-.528c.645-.175 1.29-.351 1.935-.468 1.055-.176 2.11-.294 3.224-.294 4.104 0 8.5 1.408 12.897 5.452 0 0-26.907 18.7-7.738 39.16 0 0 41.328 56.335 80.839 49.359V11.49h481.931l33.825-33.825s-61.729-304.482-515.756-720.053m-337.779 356.363-60.908 80.84c-6.741 8.969-10.434 19.872-10.434 31.069V11.49h71.342zm-187.59 627.488H-31.363L-65.306 37.929h-971.833zm85.823 269.661-24.211-8.969s-2.345 13.776 8.617 21.631c4.514 3.166 11.021 1.759 13.425-3.166 1.172-2.285 2.051-5.392 2.169-9.496m237.711 79.843-93.15-28.08s19.111 53.757 57.626 72.868c11.372 5.686 25.5.996 31.186-10.318 3.987-7.914 6.625-19.111 4.338-34.47m116.013 20.928c.176 3.225.352 6.39.586 9.497.176 3.165.411 6.213.704 9.262.175 2.58.41 5.159.703 7.68.293 3.224.645 6.389.997 9.438.351 2.931.703 5.862 1.055 8.734 0 .118.059.235.059.293.351 2.756.762 5.453 1.172 8.149.41 2.697.821 5.334 1.29 7.914.41 2.638.879 5.159 1.348 7.679.879 4.866 1.817 9.556 2.873 14.128.586 2.521 1.113 4.983 1.758 7.387.528 2.286 1.055 4.514 1.7 6.683.528 2.169 1.172 4.338 1.759 6.448.586 2.11 1.172 4.163 1.817 6.213 0 .176.059.294.117.47a656 656 0 0 0 1.759 5.51 95 95 0 0 0 1.934 5.745c.528 1.641 1.114 3.224 1.701 4.807 1.758 4.749 3.517 9.263 5.334 13.483.821 1.935 1.642 3.752 2.462 5.569.645 1.407 1.29 2.814 1.935 4.162.762 1.583 1.524 3.107 2.286 4.632s1.524 3.048 2.286 4.455c.235.527.528.996.762 1.407.587 1.113 1.173 2.227 1.817 3.283a191 191 0 0 0 4.749 7.972c.762 1.29 1.583 2.521 2.403 3.752.587.879 1.173 1.758 1.759 2.579 1.173 1.701 2.345 3.342 3.459 4.925a102 102 0 0 0 4.572 5.862c.704.879 1.407 1.758 2.111 2.579a654 654 0 0 1 3.165 3.693 47 47 0 0 0 2.931 2.989 42 42 0 0 0 2.287 2.288c.645.585 1.231 1.172 1.817 1.758.117.117.234.235.352.292a36 36 0 0 0 1.641 1.525c3.752 3.283 6.624 5.277 8.149 6.273.293.176.586.352.762.469.293.234.469.293.469.293s.175-.059.468-.293c.176-.117.47-.293.763-.469 1.524-.996 4.396-2.99 8.148-6.273a36 36 0 0 0 1.642-1.525c.117-.057.234-.175.351-.292a51 51 0 0 1 1.818-1.758 43 43 0 0 0 2.286-2.288 47 47 0 0 0 2.931-2.989 656 656 0 0 1 3.166-3.693c.703-.821 1.406-1.7 2.11-2.579a102 102 0 0 0 4.572-5.862 118 118 0 0 0 3.459-4.925c.586-.821 1.173-1.7 1.759-2.579.82-1.231 1.641-2.462 2.403-3.752a191 191 0 0 0 4.749-7.972c.644-1.056 1.23-2.17 1.817-3.283.234-.411.527-.88.762-1.407.762-1.407 1.524-2.931 2.286-4.455s1.524-3.049 2.286-4.632c.645-1.348 1.29-2.755 1.935-4.162a259 259 0 0 0 2.462-5.569c1.817-4.22 3.576-8.734 5.335-13.483.586-1.583 1.172-3.166 1.7-4.807a95 95 0 0 0 1.934-5.745c.586-1.817 1.173-3.634 1.759-5.51.059-.176.117-.294.117-.47.645-2.05 1.231-4.103 1.817-6.213.645-2.11 1.231-4.279 1.759-6.448.645-2.169 1.173-4.397 1.7-6.683.645-2.404 1.172-4.866 1.759-7.387 1.055-4.572 1.993-9.262 2.872-14.128.469-2.52.938-5.041 1.348-7.679.47-2.58.88-5.217 1.29-7.914s.821-5.393 1.173-8.149c0-.058.058-.175.058-.293.352-2.872.704-5.803 1.055-8.734.352-3.049.704-6.214.997-9.438.293-2.521.528-5.1.703-7.68.294-3.049.528-6.097.704-9.262.234-3.107.41-6.272.586-9.497zm85.822-71.577a2130 2130 0 0 0 96.023-7.386v-265.03h-96.023zm193.687 51.353s.469 26.966 13.249 42.501c5.217 6.331 14.538 7.327 21.279 2.637 16.18-11.372 48.304-37.634 57.156-72.456zm117.654-93.209v-230.56h-143.975v256.53c52.936-7.269 100.888-16.18 143.975-25.97m-885.073-68.939v.234c-.176-.059-.352-.118-.528-.234v150.189s263.447 323.299 568.75 381.159c.117 0 .176-.058.293-.058.059 0 .176.058.235.058 305.302-57.86 568.749-381.159 568.749-381.159V429.523c-.176.116-.352.175-.527.234v-.234c-33.825 17.293-67.533 32.593-100.948 46.018v.176c-3.282 47.308-21.924 66.125-34.117 73.394-6.859 4.045-15.184 4.983-22.453 1.817-22.334-9.79-23.038-43.38-23.038-46.253v-.176c-23.977 7.798-47.718 14.715-71.343 20.811v40.216c-48.07 114.37-95.553 110.736-95.553 110.736-27.025-.938-41.329-34.235-48.422-60.615v-62.491c-3.518.469-7.035.938-10.552 1.348a1242 1242 0 0 1-28.431 3.166c-10.846 1.055-21.632 1.994-32.36 2.696v86.585c0 17.176-1.7 34.353-5.452 51.177a159 159 0 0 1-1.758 7.151c-1.349 4.925-2.638 9.674-4.045 14.363a760 760 0 0 1-4.221 13.483c-34.059 103.468-85.529 131.84-85.529 131.84s-51.47-28.372-85.53-131.84c-.996-3.049-1.993-6.155-2.931-9.32a253 253 0 0 1-3.165-10.67l-.352-1.407c-5.51-19.931-8.207-40.449-8.325-61.143V267.902h-71.342v341.121c-17.88 74.743-48.774 67.239-48.774 67.239-63.897-10.259-99.129-83.243-112.378-117.83v-290.53h-71.342v231.322c-.059 0-.118-.059-.177-.059l.177.176v.059c-3.108 29.721-16.825 44.025-27.553 50.766-8.09 5.101-18.642 4.455-26.262-1.348-23.977-18.114-29.018-57.684-29.839-81.367v-.176c-26.849-11.373-53.815-23.918-80.957-37.752m980.802 81.601c.118 4.104.997 7.211 2.17 9.496 2.403 4.925 8.911 6.332 13.424 3.166 10.962-7.855 8.618-21.631 8.618-21.631zM71.46 382.625c-47.426-29.897-96.316-114.723-96.316-114.723h-138.172v212.563c160.624-45.139 234.488-97.84 234.488-97.84M-1089.078 5.276c-4.807-4.807-10.259-7.211-12.193-5.276-1.876 1.876.469 7.328 5.335 12.135 4.807 4.865 10.258 7.21 12.134 5.334 1.935-1.934-.469-7.386-5.276-12.193M67.942 73.805l59.385 81.367s-65.891-17.997-97.313-14.48c0 0 14.42 43.791 2.872 66.36-8.5 16.649-33.825 11.491-36.58-6.976L-29.839 25.442S-52.526 40.86-24.973 185.48c5.334 27.845 16.414 54.284 32.652 77.556 20.108 28.666 54.049 70.112 108.685 119.12 0 0-40.684 47.132-74.333 62.843V583.17c0 13.952-4.924 27.436-14.01 38.104-58.388 68.706-291.995 325.879-559.487 380.809a97.5 97.5 0 0 1-39.512 0c-267.491-54.93-501.041-312.103-559.428-380.809-9.086-10.668-14.011-24.152-14.011-38.104V444.999c-33.649-15.711-74.332-62.843-74.332-62.843 54.635-49.008 88.577-90.454 108.685-119.12 16.238-23.272 27.318-49.711 32.652-77.556 27.552-144.62 4.866-160.038 4.866-160.038l-26.146 174.634c-2.755 18.467-28.08 23.625-36.58 7.035-11.607-22.569 2.814-66.419 2.814-66.419-31.421-3.517-97.254 14.48-97.254 14.48l59.384-81.367-64.894-61.377c38.925-34.411 129.73-24.68 129.73-24.68 61.377-325.527 554.27-782.544 554.27-782.544S-58.271-337.779 3.106-12.252c0 0 90.806-9.731 129.672 24.68z" clip-path="url(#t)" style="fill:#1050de;fill-opacity:1;fill-rule:nonzero;stroke:none" transform="matrix(1.33333 0 0 -1.33333 2068.296 1472.873)"></path><path d="M0 0c-4.455 5.803-6.683 13.131-6.683 21.807 0 9.028 2.228 16.649 6.566 22.687 4.221 5.745 9.848 8.559 17.176 8.559 7.152 0 12.721-2.814 16.942-8.559 4.338-6.038 6.565-13.366 6.565-21.866 0-9.204-2.227-16.825-6.624-22.628-4.221-5.628-9.79-8.383-17-8.383h-.118C9.731-8.383 4.221-5.628 0 0m50.532 58.388c-8.324 9.32-19.521 14.01-33.238 14.01-13.542 0-24.798-4.865-33.474-14.362-8.559-9.497-12.897-21.808-12.897-36.639 0-14.128 4.163-25.97 12.428-35.115 8.325-9.32 19.346-14.01 32.711-14.01 13.777 0 25.091 4.748 33.825 14.069C58.563-4.338 62.96 8.031 62.96 23.156c0 14.245-4.162 26.086-12.428 35.232" clip-path="url(#u)" style="fill:#1050de;fill-opacity:1;fill-rule:nonzero;stroke:none" transform="matrix(1.33333 0 0 -1.33333 814.569 1323.348)"></path><path d="M0 0v-53.053C0-68.119-3.518-79.55-10.435-87.054c-6.976-7.62-16.707-11.489-28.783-11.489-11.49 0-20.752 3.81-27.435 11.314-6.566 7.503-9.79 18.7-9.79 34.176V0h21.514v-53.756c0-8.442 1.583-14.949 4.631-19.287 2.814-4.045 6.683-5.979 11.842-5.979 5.393 0 9.379 1.934 12.31 5.92 3.049 4.104 4.573 10.611 4.573 19.346V0z" clip-path="url(#v)" style="fill:#1050de;fill-opacity:1;fill-rule:nonzero;stroke:none" transform="matrix(1.33333 0 0 -1.33333 1017.948 1228.928)"></path><path d="M0 0c-2.638-2.228-6.214-3.283-11.021-3.283h-7.797v22.687c2.111.351 4.807.469 8.031.469 4.69 0 8.383-.997 10.963-2.931 2.345-1.7 3.517-4.573 3.517-8.559C3.693 4.748 2.521 1.993 0 0m28.021-54.811c-.41.82-1.055 2.931-1.289 3.693a169 169 0 0 0-1.583 5.51l-.586 2.462c-.411 1.525-.88 3.283-1.349 5.393-.645 2.345-1.113 4.397-1.524 6.097l-.528 2.111c-1.876 7.445-4.807 12.897-8.852 16.296 2.756 1.759 5.335 4.104 7.563 6.976 3.517 4.397 5.276 9.908 5.276 16.239 0 8.734-2.873 15.593-8.442 20.517-6.038 5.452-15.769 8.266-28.842 8.266-9.204 0-17.879-.703-25.735-2.11l-2.403-.411v-95.26h21.455v37.342h6.097c3.752-.176 6.683-1.172 8.442-2.931 1.407-1.29 3.341-4.221 4.748-10.728 2.462-11.431 4.514-18.7 6.214-22.1l.82-1.583h22.629z" clip-path="url(#w)" style="fill:#1050de;fill-opacity:1;fill-rule:nonzero;stroke:none" transform="matrix(1.33333 0 0 -1.33333 1099.393 1279.5)"></path><path d="M0 0v-19.932h-60.322v96.961h58.387V57.098h-36.814V39.98h34.704V20.107h-34.704V0Z" clip-path="url(#x)" style="fill:#1050de;fill-opacity:1;fill-rule:nonzero;stroke:none" transform="matrix(1.33333 0 0 -1.33333 1237.194 1331.633)"></path><path d="M0 0v-96.961h-21.28l-.821 1.466-23.976 40.566c-4.396 7.68-8.09 14.538-11.138 20.576.176-7.21.235-15.475.235-24.679v-37.929h-20.46V0h23.332l.879-1.407 23.742-39.218c3.4-5.804 6.566-11.607 9.38-17.411-.235 6.332-.352 13.425-.352 21.339V0Z" clip-path="url(#y)" style="fill:#1050de;fill-opacity:1;fill-rule:nonzero;stroke:none" transform="matrix(1.33333 0 0 -1.33333 1361.16 1228.928)"></path><path d="M0 0c-5.393-5.452-7.972-12.78-7.972-22.394 0-8.793 2.579-16.004 7.679-21.455 5.1-5.511 12.076-8.207 21.397-8.207 7.094 0 13.132 1.172 17.821 3.517l3.4 1.642.763-3.694 2.813-13.424.469-2.111-1.934-1.055c-6.156-3.341-14.773-5.041-25.736-5.041-14.889 0-26.906 4.514-35.758 13.483-8.794 8.969-13.249 20.987-13.249 35.642 0 14.89 4.807 27.2 14.186 36.697 9.38 9.497 21.807 14.304 36.873 14.304 10.787 0 18.759-1.641 24.387-4.983l1.876-1.114-.586-2.11-3.517-13.659-.88-3.635-3.282 1.759c-4.925 2.579-10.729 3.869-17.294 3.869C12.429 8.031 5.394 5.393 0 0" clip-path="url(#z)" style="fill:#1050de;fill-opacity:1;fill-rule:nonzero;stroke:none" transform="matrix(1.33333 0 0 -1.33333 1668.728 1264.023)"></path><path d="M0 0v-19.932h-36.404v-18.583h33.708v-19.931h-33.708v-38.515h-21.572V0Z" clip-path="url(#A)" style="fill:#1050de;fill-opacity:1;fill-rule:nonzero;stroke:none" transform="matrix(1.33333 0 0 -1.33333 1881.8 1228.928)"></path><path d="M0 0c-1.114-9.79-5.452-16.414-11.08-20.869V39.16C3.458 31.011 0 0 0 0" clip-path="url(#B)" style="fill:#1050de;fill-opacity:1;fill-rule:nonzero;stroke:none" transform="matrix(1.33333 0 0 -1.33333 1355.454 2119.824)"></path><path d="M0 0s-61.729-304.482-515.755-720.053v236.305c5.628 4.455 9.966 11.08 11.079 20.87 0 0 3.459 31.011-11.079 39.159v-60.029c-14.597-11.431-37.928-8.324-37.928-8.324-22.453-1.114-20.928-19.052-20.928-19.052h-106.282c.059 1.7.352 3.341.762 4.924.176.821.411 1.583.704 2.345.234.762.527 1.524.879 2.228v.058c.352.704.703 1.407 1.055 2.052.528.997 1.114 1.993 1.759 2.873.352.527.703 1.055 1.114 1.524.41.527.82 1.055 1.231 1.524.82.938 1.641 1.817 2.462 2.696.469.47.879.88 1.348 1.29a60 60 0 0 0 5.452 4.397 89 89 0 0 0 3.927 2.579c.47.293.88.528 1.349.821 4.748 2.638 10.141 3.986 15.652 3.986h41.563a11.05 11.05 0 0 1 7.796 3.224l1.642 1.642c2.345 2.345 3.224 5.686 2.521 8.91a145 145 0 0 0-2.111 11.9c-.176 1.114-.352 2.228-.469 3.342-1.524 11.959-1.817 23.097-1.758 30.659v.703c.175 6.449 1.817 12.722 4.983 18.349.351.587.703 1.231 1.113 1.817.118.176.235.411.352.587.293.41.586.879.88 1.289.41.587.82 1.173 1.289 1.759.234.352.469.704.762.997.645.879 1.29 1.7 1.993 2.462.293.352.587.645.88.938a46 46 0 0 0 2.872 2.989c1.172 1.114 2.345 2.228 3.576 3.225 2.462 2.052 5.042 3.81 7.621 5.393 18.349 11.197 39.863 12.076 51.939 11.431v-42.735l23.8 7.445c-8.559-57.977 69.233-97.313 69.233-97.313l-23.156-16.296s-.059 0-.059-.059c-2.696-1.817-6.037-2.638-9.262-1.935-1.406.294-2.755.587-4.045.762-1.055.176-2.052.352-2.989.47-17.528 2.169-26.439-3.811-30.894-9.79-.469-.587-.879-1.231-1.29-1.876-.762-1.29-1.348-2.462-1.758-3.576-.235-.528-.411-1.055-.587-1.524-.175-.528-.293-.938-.351-1.349-.352-1.172-.411-1.875-.411-1.875h105.519c10.435 39.686 43.733 41.211 43.733 41.211 4.865 3.458 6.506 6.8 6.506 9.672 0 .528-.058.997-.175 1.466 0 .234-.059.41-.117.586-.118.469-.234.879-.411 1.231a11.6 11.6 0 0 1-.938 1.7c-.234.41-.468.703-.762 1.055-.059.118-.176.176-.235.293-2.403 3.166-3.634 7.094-3.634 11.08v.293c0 3.341-.059 6.449-.234 9.321-.059 1.231-.117 2.403-.235 3.576a29 29 0 0 1-.352 3.341c-.117.997-.235 1.994-.41 2.99-1.114 7.503-2.99 12.78-5.1 16.355-.176.411-.469.821-.704 1.173a18.7 18.7 0 0 1-2.11 2.755l-.176.176c-3.048 3.165-7.797 3.986-11.665 1.935-.47-.235-.88-.411-1.29-.645-.059 0-.059-.059-.059-.059l-.352-.176c-.645-.293-1.289-.645-1.935-.879-.761-.352-1.523-.645-2.227-.938a28 28 0 0 0-2.814-1.055 21 21 0 0 0-2.344-.704c-.997-.234-1.994-.469-2.873-.586-.762-.176-1.466-.234-2.11-.293-.763-.058-1.466-.117-2.169-.117-15.242 0-18.29 15.359-18.29 15.359-.586 2.52-.88 4.865-.88 6.976 0 1.055.059 2.11.235 3.107.117 1.055.293 1.993.586 2.931.41 1.524.938 2.931 1.641 4.221.235.527.469.996.763 1.406.293.47.527.938.879 1.349.176.351.41.644.644.938.176.234.411.527.587.762a24 24 0 0 0 1.641 1.817c.352.352.704.704 1.056.997a22 22 0 0 0 2.169 1.876c.293.234.644.468.996.703.293.234.645.469.997.703 3.341 2.228 7.386 3.283 11.431 3.283h43.615c4.396 0 8.734 1.525 11.841 4.514l1.231 1.407c.41.528.821 1.055 1.173 1.641a80 80 0 0 0 1.113 1.642c.353.645.763 1.289 1.114 2.052.352.644.704 1.348.997 2.052a43 43 0 0 1 1.934 4.689c.352.938.704 1.876.997 2.873a85 85 0 0 1 1.349 4.572c.234.879.468 1.818.702 2.697.47 1.876.88 3.81 1.29 5.803a92 92 0 0 1 1.056 6.038c1.465 8.852 2.403 18.408 2.989 27.963.118 1.348.176 2.638.234 3.928l.176 4.162c.118 2.521.235 5.041.294 7.503.703 27.905-.938 51.939-.938 51.939l-17.176-16.296c-2.697-2.58-5.921-4.514-9.497-5.511a81 81 0 0 1-1.876-.528c-13.366-3.106-15.593 3.987-15.183 10.377.293 4.865 3.458 9.145 7.855 11.431 3.048 1.583 5.686 3.165 7.973 4.748.703.528 1.466 1.055 2.11 1.583q4.397 3.517 6.683 6.859c.352.469.644.938.879 1.348q.529.791.88 1.583c.234.527.469.996.645 1.466 3.634 9.262-2.404 16.238-2.404 16.238-.528.703-.996 1.348-1.524 1.875a4 4 0 0 1-.704.704c-1.641 1.583-2.931 1.759-3.986 1.231a2.6 2.6 0 0 1-.645-.469 9 9 0 0 1-.703-.762c-.235-.352-.411-.762-.645-1.173a28 28 0 0 1-.527-1.289 12 12 0 0 1-.47-1.524c-.234-.879-.41-1.818-.586-2.697 0-.117-.058-.176-.058-.293-.645-2.99-2.931-5.452-5.862-6.273-.059 0-.177-.058-.235-.058l-37.518-9.087c-9.848-1.582-15.066.118-17.587 3.401-.41.527-.762 1.055-.996 1.641-1.642 3.635-.938 8.383.293 12.487.117.293.176.586.293.879 1.759 4.748 5.628 8.441 10.376 10.317a154 154 0 0 1 14.773 6.742c1.7.879 3.341 1.758 4.865 2.696 2.638 1.524 5.101 3.049 7.328 4.573 2.111 1.465 4.103 2.931 5.862 4.338 1.29.996 2.462 1.993 3.576 2.931a101 101 0 0 1 3.517 3.341 56 56 0 0 1 3.87 4.28c.117.117.234.234.351.41.528.645.997 1.29 1.466 1.993 1.172 1.583 1.641 2.462 1.641 2.462q.968 2.463 1.407 4.397c.059.176.059.293.117.469 4.514 18.114-18.7.352-18.7.352-12.37-8.618-40.039-7.856-40.039-7.856l16.063 21.749c2.462 3.342 5.686 6.097 9.555 7.68.293.117.645.293.938.41 1.055.41 2.052.879 2.99 1.348 9.789 4.573 17.117 9.849 22.452 15.535.762.762 1.466 1.583 2.227 2.462 3.753 4.514 6.391 9.263 8.15 14.128.234.528.409 1.114.585 1.7a40.7 40.7 0 0 1 1.583 6.39c.117.586.176 1.172.293 1.758 3.225 23.566-10.962 45.432-10.962 45.432-30.425-60.614-27.963-12.955-27.963-12.955-52.349-35.935-39.628-72.867-39.628-72.867-.821-.293-1.7-.586-2.462-.997-2.462-1.055-4.69-2.52-6.625-4.22-.527-.411-1.055-.938-1.524-1.407a11.5 11.5 0 0 1-1.407-1.524 32.4 32.4 0 0 1-3.693-4.866 10.3 10.3 0 0 1-1.055-1.7 35 35 0 0 1-1.876-3.576c-.293-.645-.586-1.231-.821-1.817a11 11 0 0 1-.703-1.759 11.6 11.6 0 0 1-.704-1.817 74 74 0 0 1-2.52-8.794c-.059-.351-.176-.762-.235-1.113-.879-4.573-1.29-9.145-.879-13.776q.176-2.11.528-4.221c.117-.879.234-1.759.468-2.638.176-1.114.411-2.169.645-3.225.059-.527.235-1.055.352-1.523.235-.997.469-1.994.762-2.99.469-1.583.938-3.166 1.466-4.69q.351-1.231.879-2.462c4.514-12.369 11.49-24.094 19.638-34.822a152 152 0 0 1 3.752-4.807c21.456-26.438 49.008-46.311 60.908-54.283.293-.176.587-.411.88-.587a24.4 24.4 0 0 0 8.031-10.2c.293-.586.469-1.172.704-1.758a78 78 0 0 0 1.23-4.045c.059-.059.059-.059.059-.118.645-2.462 1.114-4.748 1.29-6.858 1.054-9.907-2.111-16.766-7.152-21.514-.469-.47-.938-.88-1.466-1.29-.528-.469-1.114-.879-1.641-1.29-1.114-.762-2.228-1.465-3.342-2.052a39.3 39.3 0 0 0-7.269-3.107c-.41-.176-.879-.293-1.29-.41-.352-.117-.703-.235-1.054-.293a26 26 0 0 0-2.697-.704c-7.914-1.817-14.539-1.758-14.539-1.758a67 67 0 0 1 .176 4.807 57 57 0 0 1-.176 4.572v.176a56 56 0 0 1-.527 4.514c-.645 4.104-1.642 7.972-3.048 11.607a17 17 0 0 1-.762 1.817 23 23 0 0 1-1.232 2.756 24 24 0 0 1-1.582 2.989 57 57 0 0 1-6.273 8.969 40 40 0 0 1-1.524 1.759c-4.807 5.276-10.376 9.731-16.297 13.483-.645.469-1.348.879-1.993 1.231-1.055.645-2.11 1.29-3.166 1.876-.938.528-1.875 1.055-2.872 1.524 0 .059-.059.059-.117.059a55 55 0 0 1-3.224 1.641 119 119 0 0 1-3.987 1.817c-.938.411-1.876.821-2.814 1.173a56 56 0 0 1-3.986 1.583 66 66 0 0 1-3.986 1.407c-2.638.938-5.159 1.7-7.504 2.403-1.172.352-2.345.645-3.458.938a158 158 0 0 1-12.135 2.755c-.235.059-.411.059-.645.118-4.397.996-8.383 3.459-10.904 7.151-.352.528-.703 1.056-.996 1.642v.059c-2.111 4.045-2.169 7.62-1.173 10.669.176.586.411 1.114.703 1.641.059.117.118.235.176.41.88 1.7 2.052 3.166 3.401 4.514.879.88 1.876 1.7 2.813 2.462l.177.176c3.282 2.697 3.868 7.504 1.582 11.138q-2.022 3.166-3.165 5.98c-.235.586-.411 1.173-.587 1.759-.176.527-.352 1.055-.469 1.582-1.172 4.573-.703 8.501.587 11.842.176.586.41 1.114.703 1.641.293.704.645 1.407 1.114 2.052a16 16 0 0 0 1.114 1.642 10 10 0 0 0 1.172 1.465c.411.469.821.938 1.231 1.348.176.235.41.411.586.587 3.401 3.224 5.277 7.738 5.277 12.369 0 .41-.059.821-.059 1.231-.762 10.435-.88 19.169-.645 26.438 0 1.055.058 2.052.117 3.049.059.938.117 1.934.176 2.814.176 2.286.352 4.337.586 6.272.059.528.118.997.176 1.466.117.938.235 1.817.41 2.638.176 1.172.352 2.345.587 3.4.234 1.231.527 2.403.762 3.4.293 1.055.586 1.993.821 2.872.234.645.41 1.231.644 1.759.293.821.586 1.583.879 2.228.235.468.411.879.646 1.289.058.059.058.176.117.235 1.524 3.165 1.172 6.917-.763 9.907 0 .117-.058.176-.117.293l-45.021 66.243c-5.98 4.748-12.194 7.386-18.466 8.441v93.854h481.93z" clip-path="url(#C)" style="fill:#fff;fill-opacity:1;fill-rule:nonzero;stroke:none" transform="matrix(1.33333 0 0 -1.33333 2028.354 1502.653)"></path><path d="M0 0q-.439-1.934-1.407-4.397s-.469-.879-1.641-2.462C-1.7-4.748-.644-2.404 0 0" clip-path="url(#D)" style="fill:#fff;fill-opacity:1;fill-rule:nonzero;stroke:none" transform="matrix(1.33333 0 0 -1.33333 1570.869 1727.76)"></path><path d="M0 0v-286.72c-1.583.294-3.341.587-5.1.997-.352.059-.704.117-1.055.234a79 79 0 0 0-5.687 1.349c-1.524.351-2.99.82-4.572 1.289a191 191 0 0 0-6.917 2.287 2 2 0 0 1-.528.234c-1.114.411-2.228.88-3.342 1.348-8.09 3.401-15.828 8.09-21.631 14.363-1.7 1.817-4.572 1.876-6.331.117-.704-.703-1.466-1.465-2.345-2.286-.703-.645-1.407-1.348-2.169-2.052a166 166 0 0 0-9.145-8.09c-.938-.703-1.876-1.465-2.814-2.169-2.99-2.227-5.921-4.162-8.559-5.393-.644-.293-1.231-.586-1.817-.762a5.2 5.2 0 0 0-1.173-.352c-.175-.058-.351-.117-.527-.117a7.2 7.2 0 0 0-1.524-.176c-.469 0-.938.059-1.349.176 0 0-4.631-.117-10.962.176-.879.058-1.817.117-2.696.176-1.525.117-3.166.234-4.807.41-.587.058-1.114.117-1.701.176-7.62.879-15.769 2.521-21.103 5.628-.528.293-.938.586-1.407.937l-.528.352c-2.872 2.228-6.566 3.166-10.141 2.814a29 29 0 0 1-3.049-.351c-1.465-.235-2.99-.528-4.455-.939-.645-.175-1.29-.351-1.934-.586-3.108-1.114-5.921-2.814-7.68-5.276-.235-.351-.469-.703-.645-1.114q-.176-.175-.176-.351c-.176-.293-.293-.528-.351-.821-.176-.411-.352-.879-.411-1.348a12 12 0 0 1-.176-4.397s-5.569-36.287-29.135-15.711c0 0-.41-36.287-22.862-25.031 0 0-8.969 7.855-9.732 27.318 0 0-.703-.528-1.758-1.29-.586-.352-1.231-.821-1.935-1.29-.527-.351-1.055-.703-1.7-1.055a63 63 0 0 0-2.052-1.231c-.879-.528-1.876-.996-2.813-1.465-.938-.411-1.876-.821-2.756-1.114-2.11-.762-4.103-1.055-5.569-.528a2 2 0 0 0-.703.352c-.235.176-.41.293-.586.527-.997 1.056-1.407 2.756-1.056 5.57.059.41.118.879.235 1.406 0 .176.058.411.117.586.118.646.293 1.29.469 1.994 1.114 4.279 3.459 10.083 7.387 17.879 1.524 3.049 1.348 6.742-.469 9.614-.059.059-.059.118-.059.176-2.228 3.518-4.983 8.559-6.214 13.366-.234.704-.352 1.407-.469 2.11-1.114 6.859 1.583 12.721 14.362 12.37 0 0 36.287-13.073 79.316 22.1 0 0-1.993.469-5.159 1.7-.879.352-1.876.762-2.931 1.231-.528.235-1.055.469-1.642.762-1.113.528-2.286 1.173-3.517 1.818a32 32 0 0 0-1.876 1.113 48 48 0 0 0-3.869 2.521c-1.289.938-2.638 1.935-3.927 3.049s-2.58 2.344-3.869 3.634c-8.266 8.442-15.184 20.987-15.125 39.335 0 1.466.059 2.99.176 4.514 0 .704.059 1.349.117 2.052.235 3.107-.293 6.214-1.7 8.852q-.615 1.056-1.407 2.11l-.058.059c-.469.527-.938 1.055-1.466 1.524-.293.235-.645.528-.938.703-.41.352-.879.587-1.289.821-.293.117-.645.293-.938.352-.411.176-.762.235-1.173.352h-.058c-.411.058-.821.117-1.232.117-.41 0-.879 0-1.348-.117q-.44 0-.879-.176c-.762-.117-1.525-.411-2.345-.88a6.6 6.6 0 0 1-1.231-.703 3.5 3.5 0 0 1-.88-.527c-.058 0-.058-.059-.117-.118-2.286-1.641-4.983-2.696-7.855-2.872-.059-.059-.059-.059-.117 0-.411 0-.821 0-1.29-.059-1.231-.059-2.579-.059-4.045-.059-2.228 0-4.748.059-7.269.177-.528 0-1.055 0-1.583.058-1.7.117-3.341.235-4.983.469-1.406.176-2.813.41-4.103.703-.645.118-1.29.293-1.876.469s-1.173.352-1.7.528c-1.642.586-2.99 1.29-3.869 2.169-.352.293-.645.586-.821.938-.645.879-.879 1.993-.586 3.224.059.352.176.704.352 1.114q.44.967 1.231 2.11c.234.352.527.645.821.997s.586.703.937 1.055.704.762 1.114 1.114l.176.176c1.466 1.524 1.641 4.045.176 5.569a8.4 8.4 0 0 0-.879 1.055c-.235.293-.411.586-.645.879a22 22 0 0 0-1.114 1.993 12 12 0 0 0-.821 2.697c-.117.411-.176.821-.234 1.29q-.264 1.67 0 3.693c0 .469.058.997.176 1.465.175 1.29.527 2.638 1.055 4.104.176.469.352.996.586 1.466.645 1.758 1.642 3.634 2.872 5.686.294.527.645 1.114 1.056 1.7 3.224 4.924 8.031 10.669 15.007 17.294l2.462 2.286c.059.058.117.117.117.175 1.642 1.525 2.462 3.576 2.462 5.745v.587c0 .175-.058.351-.058.586-.059.879-.118 1.817-.235 2.872.059.059 0 .118 0 .176 0 .704-.058 1.348-.058 2.052-.118 2.931-.059 6.097.41 8.911.117.762.234 1.465.411 2.169.117.469.234.938.41 1.348a9.6 9.6 0 0 0 1.172 2.462c.176.234.41.469.587.704.41.41.937.762 1.523.996.469.176.939.293 1.466.293 1.759 0 4.045-.996 6.918-3.4.761-.586 1.523-1.29 2.286-2.052 2.403-2.344 5.217-5.51 8.383-9.672l150.13 164.258c.059.059.117.117.176.117 2.579 2.639 6.8 2.756 9.497.176.058 0 .117-.058.176-.117l.938-.997c2.52-2.52 2.638-6.507.293-9.203L-178.973-84.064l20.928-20.869s-33.414-7.093-13.365-17.587c.82-.469 1.758-.938 2.813-1.348.235-.117.411-.176.645-.293 2.814-1.114 5.452-2.521 7.914-4.28.059-.058.176-.117.235-.175.41-.293.879-.645 1.407-.997.469-.352 1.055-.703 1.641-1.055.586-.41 1.231-.821 1.876-1.173 4.69-2.872 11.255-6.213 19.228-8.558.938-.352 1.876-.645 2.872-.821 1.173-.293 2.345-.586 3.576-.879a39 39 0 0 1 3.752-.704 242 242 0 0 1 3.987-.528c2.637-.293 5.393-.41 8.265-.41 1.114 0 2.228 0 3.342.059.058 0 .175.058.293 0 2.286.117 4.572.293 6.917.703.879.059 1.759.235 2.697.411s1.934.351 2.931.586c.996.234 1.993.469 3.048.703q3.781.968 7.738 2.462 1.407.44 2.814 1.056c.059 0 .117.058.176.058h.058c1.525.645 2.346 2.404 2.052 3.987 0 .058-.058.175-.058.234-.645 2.462-.821 5.452 2.462 4.748.293-.058.645-.117 1.055-.293q1.055-.352 2.638-1.231a49 49 0 0 0 2.814-1.759c.528-.351 1.055-.762 1.641-1.172.059-.058.117-.058.176-.117a23.7 23.7 0 0 1 11.197-4.162c.762-.059 1.524-.059 2.286-.059.879 0 1.817.059 2.697.176.351 0 .703.059 1.055.117s.645.059.996.176c.411.059.88.117 1.29.234.528.118.997.235 1.524.411.763.235 1.525.528 2.228.821q.704.263 1.407.703c1.055.528 2.052 1.231 2.99 1.993.468.41.938.821 1.348 1.29 1.465 1.465 2.697 3.224 3.634 5.393.294.586.528 1.231.763 1.876l.351 1.055c.411 1.231.704 2.579.938 4.045 0 0-30.659-6.448-32.887 14.48 0 0-53.873-23.684-47.894 31.187 0 0 1.29.996 3.224.762.177 0 .352 0 .528-.059 1.055-.235 2.286-.821 3.517-2.052.586-.527 1.114-1.172 1.7-1.934.235-.352.469-.704.704-1.114.41-.645.762-1.29 1.172-2.052.176-.469.411-.938.645-1.407.117-.234.176-.469.293-.645 1.583-3.282 3.928-6.155 6.976-8.089.117-.118.235-.235.352-.293.352-.235.762-.47 1.173-.645.41-.235.82-.469 1.289-.645.293-.176.586-.293.88-.469.41-.176.879-.352 1.289-.469a8.3 8.3 0 0 1 1.583-.528c.645-.176 1.29-.352 1.935-.469 1.055-.176 2.11-.293 3.224-.293 4.103 0 8.5 1.407 12.897 5.452 0 0-26.908 18.7-7.738 39.16 0 0 41.328 56.335 80.839 49.359" clip-path="url(#E)" style="fill:#fff;fill-opacity:1;fill-rule:nonzero;stroke:none" transform="matrix(1.33333 0 0 -1.33333 1340.68 1582.691)"></path><path d="M0 0c-.117-.059-.293-.059-.41-.059h-.88C-.821 0-.41 0 0 0" clip-path="url(#F)" style="fill:#fff;fill-opacity:1;fill-rule:nonzero;stroke:none" transform="matrix(1.33333 0 0 -1.33333 1056.091 1785.835)" data-source="https://football-logos.cc"></path><!-- source: https://football-logos.cc --></svg>