<svg xmlns="http://www.w3.org/2000/svg" viewBox="35.76 96.39 523.75 649.11"><!-- Source: https://football-logos.cc --><path d="M260.237 352.275c-.017 1.961-.394 3.188.85 4.353 2.193.244 1.554-.344 3.241-.72 1.036-.243 1.809-1.876 2.958-1.549.611.174 4.233 4.954 4.795 5.37 2.4 1.78 8.227-.707 8.543-.637 1.02.456 1.947 2.027 2.635 3.067 1.636 2.471 3.025 4.81 5.99 5.64 1.69.472 3.612.382 3.716 1.978-5.83.569-20.615-1.726-27.228-3.396l-12.982-2.578c-7.348-2.366-2.546-8.859-2.153-9.72 1.844-4.045 4.037-8.338-.045-11.468-1.078-.826-4.244-1.603-5.774-1.895-1.813-.345-3.912-1.531-4.709-3.128-1.323-2.649-.53-3.675-.802-6.822-.734-8.482-.293-16.144-.856-22.89-.173-2.072-.32-5.407-.306-7.34.019-2.454-.124-5.086-.213-7.624-.18-5.12-.522-10-.575-14.976-.11-10.241-1.004-20.019-1.069-30.214-.032-4.99-.43-9.808-.591-14.984-.089-2.854.378-13.408-.352-15.135-.623-1.477.131.725-.244-.499l-.201-6.693c-.048-4.648-.2-10.377-.67-15.028-.468-4.643 1.68-7.927-4.247-7.05-1.057 1.717-.981 3.166-.976 5.742.004 2.465-.22 4.6-.237 6.796l-.144 35.407c0 2.5-.26 4.517-.258 6.803.015 13.775-.547 27.906-.534 41.934q.002 3.54.002 7.08c0 2.5-.273 4.564-.266 6.8l-.354 34.858c0 2.179.417 4.973-.79 6.183-3.427 3.437-13 .09-9.216 10.491.917 2.52 2.016 1.813 3.805 3.242.605.483 1.033 1.21 1.61 1.937 1.518 1.911 2.891 9.338 3.001 11.075.185 2.902-.668 7.143 3.57 7.218 4.575.082 3.926-.233 6.59-.487 2.586-.247 4.343.593 6.765.207 1.16-.9 1.063-2.224 3.094-2.098 2.195 2.964-1.332 4.866-1.522 7.418-.298 4.005 1.913 6.523 5.012 5.267 2.45-.993 1.532-3.453 5.38-7.448.58-.601 1.48-1.4 2.228-1.85 1.23-.742 1.91-1.08 3.208-1.131 3.578-.143 4.975-.18 4.972 3.536-.004 4.498-3.408 8.761-5.497 11.216-.778 1.909-2.337 1.902-2.816 4.148-1.699 7.953 5.557 4.804 6.695 4.038 1.592-1.072 1.896-3.246 3.21-4.087.17-2.536 6.556-10.972 9.479-13.447 2.838-2.403 2.996.601 2.761 3.052-.123 1.29-.761 1.878-1.272 2.782-1.827 3.234-7.183 13.305-7.077 16.807.867.727 3.763 1.769 4.804 2.122 4.23 1.436 4.247 1.236 2.91 10.324-.302 2.052-1.242 3.711-1.05 6.382 1.29.098 1.496-.124 2.219-.891l4.743-4.758c1.298-1.3 1.914-1.95 4.249-2.11 1.528-.105 1.367-.35 2.735-.548 1.4-.204 1.336-.137 2.242-.892 2.468-2.057 8.09-6.8 9.7-9.36 1.193-1.898 1.099-2.969 3.568-2.801.236 1.072 2.407 2.516 2.067 5.77-.176 1.684-1.829 4.331-2.673 5.696-1.09 1.762-2.385 3.225-3.617 4.826-.779 1.011-1.187 1.36-1.88 2.188-.634.758-1.22 1.52-2.079 2.278-2.165 1.913-3.464 3.54-6.268 5.985-4.473 3.9-4.668 4.605-8.138 3.035-1.468-.664-3.672-2.35-4.911-3.59-.921-.105-1.954-.034-2.83-.237-.652-.151.113-.038-1.002-.325-2.124-.547-5.222-.215-7.433-.528-1.94-.274-3.335-.412-5.625-.558-2.184-.14-1.92-1.705-4.332-3.196l-.505-.317c-1.184-.662-3.922-1.307-5.655-.647-.94.358-1.477.549-2.238 1.034l-1.55 1.392c-.62.68-.932 1.09-1.483 1.8-1.627 2.095-1.524 1.493-1.505 4.882.028 4.9-.722 6.605 1.127 8.79.164.194.226.261.379.437 2.59 2.978 7.71 5.558 11.416 5.884 1.4.122 1.497.32 2.585.58l8.196 1.077c5.207 1.165 10.74 3.306 14.56 7.17 1.374 1.39 13.27 7.728 15.924 9.133l8.151 4.335c2.131 1.035 11.304 5.703 12.74 6 5.52 1.146 9.085.998 11.827-5.608.856-2.062.548-3.261 1.085-5.258.027-.1 1.662-3.72.064-5.03-1.845-.993-3.4-.086-4.557.862-3.258 2.667-2.22 4.362-4.947 4.496-.389.02-1.282-.046-1.645-.16-1.39-.433-.111-.111-1.055-.579l-8.034-4.234c-1.543-.844-2.41-1.525-2.624-3.657-.278-2.781 1.09-5.102-.643-8.11-1.67-2.9-3.892-1.324-4.812-4.375-.768-2.55 1.278-7.677 2.089-10.01.184-.53.164-.411.405-.95l1.704-3.157c2.086-3.286 4.014-6.266 6.34-9.175.47-.586 1.044-.863 1.654-1.614.89-1.097 2.122-2.458 3.79-2.271 2.439 3.13-.517 7.867 1.248 15.35.46 1.948 1.956 3.755 4.298 4.128 3.673.586 5.356-1.77 8.577.4 2.927 1.97 4.97 4.394 7.923 5.19 9.409 2.536 9.691-2.663 10.282-3.26.561-.565 2.094-1.092 3.144-1.069.676.73 1.671 2.243 2.778 1.55.99-.712.686-1.575.726-3.103 1.64-1.113 2.325-.208 5.774-2.642.913-.644 3.924-3.094 4.256-4.187 1.117-3.687-1.298-3.956-2.851-5.432-1.984-1.886-4.498-5.162-6.038-6.772l-2.06-2.297c-1.76-2.045-3.131-3.353-4.699-5.606l-4.64-6.297c-.41-.573-1.37-2.078-1.915-2.296-.348-1.2-1.654-2.688-2.35-3.753-3.202-4.91-6.1-9.928-8.861-15.091-.724-1.352-1.245-2.813-1.91-4.086l-4.454-10.767c-.3-.976-.301-1.575-.616-2.485-.965-2.79-2.182-6.117-2.637-9.18-.077-.516-.079-.764-.189-1.202-.227-.904-.306-.732-.444-1.154-.507-1.549-.548-11.889-1.351-13.967-.574-1.487-.968-3.054-1.595-4.396-.641-1.373-1.335-2.947-3.671-2.64-.906.632-1.465 1.862-1.935 2.97-1.784 4.205-1.638 8.616-1.467 13.384.018.51 1.329 5.626 2.184 6.929 1.892 2.88 4.177 7.287 3.628 11.01-.151 1.026-.77 2.722-1.467 3.43-2.76 2.807-8.158 1.056-11.58-.383l-9.221-3.054c-2.988-1.479-2.452-1.484-4.646-2.648-3.627-1.923-8.137-5.918-10.75-9.147-.856-1.057-1.162-1.69-2.13-2.76-1.34-1.476-2.93-4.023-3.956-5.843l-1.75-3.152c-.458-1.048-1.042-2.21-1.577-3.334-1.625-3.407-2.83-7.353-4.072-10.913-.931-2.667-1.56-5.031-1.93-7.896-.64-4.949-2.466-11.532-2.935-16.915-1.3-14.902-1.693-17.056-.01-32.293.077-.707.112-1.533.274-2.2 1.11-4.593 1.663-9.295 3.619-13.847l1.669-3.233a46 46 0 0 0 1.854-3.058l3.718-6.08c1.388-2.21 2.447-4.179 3.72-6.345 3.044-5.178 6.045-10.395 8.582-15.948.538-1.177 1.067-2.095 1.581-3.286 1.965-4.549 3.56-11.841 2.366-16.872-.298-1.255-.397-2.994-.75-4.116l-1.257-3.872c-1.454-4.318-1.708-3.248-1.6-8.357.063-2.997.926-7.119-.18-9.148-2.536-.177-3.783.966-5.759 2.228l-9.683 6.896c-1 .743-1.543.865-2.157 1.946-.596 1.049-.87 1.876-.911 3.52-.208 8.293 8.78 2.35 13.792 8.351 4.926 5.898-.062 16.068-3.002 21.174-1.627 2.825-5.307 7.285-7.771 8.824-1.703 1.064-5.424.27-7.118-.411-4.979-2.001-9.16-2.733-14.31-.875-1.474.53-3.972 2.198-5.079 3.357-.737.772-1.13 1.304-1.53 2.662-.658 2.233-1.589 4.111-1.661 6.469-.12 3.871-.33 8.546.423 12.104 1.84 8.69.72 10.368 1.282 17.322.114 1.4.24.725.393 1.695.163 1.022.045 3.093.094 4.282.216 5.222-.284 11.672.397 16.517.232 1.649.303 3.66.826 5.263.322.986.312 1.775.892 2.6l.231.312c1.102 1.486 1.968 2.017 2.579 3.983.913 2.936 1.109 12.474.17 15.606-.54 1.803-.727 4.902-1.46 6.657-3.805 9.127 12.999 6.053 14.627 9.508.253 1.408-.3 10.924-.655 12.125-.449 1.517-.958 3.295-1.601 4.662-.526 1.115-1.984 3.265-2.032 4.181m46.233 46.837v-.003z" style="fill:#fab216;fill-rule:evenodd" data-source="https://football-logos.cc"></path><path d="m340.497 333.757.78 8.58 3.407 10.377c1.881 4.526-.177 2.1 4.358 9.796l7.458 11.356c.675.95 1.287 1.623 1.933 2.678 1.932 3.153 10.478 6.254 9.714-2.786-.115-1.363-.675-2.354-1.448-3.284-1.599-1.922-1.364-.21-4.138-5.142-2.18-3.876-5.994-11.503-7.625-15.775-.8-2.096-.512-9.338-7.296-16.125-2.293-2.294-3.347-3.703-6.05-3.45-.81 1.238-1.093 1.785-1.093 3.775M333.628 348.733c0 3.478.524 5.84 1.611 9.313.373 1.19.457 2.54.952 3.737l2.378 6.913c.304.817.382.937.627 1.522l2.234 4.792c1.466 3.08 3.062 6.359 5.1 9.113l4.332 4.894c1.673 1.479 3.2 2.658 5.298 3.951 1.035.639 2.137 1.147 3.022 1.595 1.385.702 2.31.98 4.103.635.35-1.96-.099-2.62-.729-3.975a22 22 0 0 0-1.77-3.138c-1.548-2.285-2.378-3.396-3.748-6.054-2.196-4.26-4.375-9.388-7.704-12.163-2.2-1.834-2.468-2.723-3.89-5.962l-4.267-10.621c-1.058-3.054-.57-4.376-3.102-6.745-.975-.912-1.734-1.57-3.682-1.188-.517.922-.766 2.101-.765 3.38" style="fill:#fab119;fill-rule:evenodd"></path><path d="M281.066 297.544c0-8.8-2.427-6.255-3.682-10.703-.628-2.225-1.69-7.708-1.769-10.26-.096-3.046 1.22-10.428-3.427-6.795-2.66 2.08-3.443 4.067-3.31 8.71.096 3.393.866 7.594 1.396 10.753.126.746.476 1.522.643 2.313l2.433 9.527c3.928 10.952 7.717.482 7.716-3.545" style="fill:#f8af19;fill-rule:evenodd"></path><path d="M365.552 285.095c-2.342-.947-4.702-8.333-10.344-7.456-1.935 2.904.165 8.158 1.314 10.998l2.557 4.491c.964 1.15 2.198 1.035 2.66 2.437.225.687.145.95.112 1.707-.564.387-.476.28-.926.72-.838-.207-4.087-2.419-4.667-2.859-1.505-1.142-2.648-2.204-3.58-4.073-.733-1.472-1.88-3.587-4.051-3.065-3.914.941-6.542 4.928-2.424 9.035.644.643 1.384 1.332 1.808 1.982.488.75 1.246 1.636 1.479 2.272.649 1.772 1.076 4.25 2.364 5.334 1.577 1.328 3.741.597 7.93 1.834 1.115.329 1.603.978 2.804 1.006 3.39.081 10.016-11.56 10.8-14.118 1.767-5.775 2.722-13.958 1.519-20.485a166 166 0 0 0-4.61-18.629c-.981-3.15-4.403-7.186-.281-11.386 1.365-1.39 2.625-2.761 3.198-4.42 1.974-5.711-4.833-1.077-10.496-2.684-1.135-.322-4.298-.406-5.456.027l-1.332.902c-2.3 2.661 1.043 8.442 2.081 11.631l2.101 5.518c.217.597.21 1.01.371 1.634l1.726 4.24c.887 1.805 1.488 3.535 2.314 5.306.403.864.777 1.69 1.273 2.55 1.661 2.877 1.67 6.327 1.654 9.758-.022 4.876-.088 3.964-1.898 5.793M293.66 149.712c-.95 1.545-1.056 1.026-1.056 3.525-.001 5.53 4.276 15.608 7.08 18.781 2.612 2.954 5.182 1.529 6.959 5.848 1.249 3.036-.675 1.056 1.826 4.689.982 1.427 1.585 2.889 4.004 2.49 4.155-6.13-1.516-9.014 6.284-20.097 1.903-2.704 7.456-6.012 6.842-10.35-1.449-1.34-2.18-1.137-4.688-1.135-7.774-.007-4.964-11.055-11.52-8.238-2.887 1.24-1.401 2.954-6.296 3.804-7.162 1.244-4.776.272-9.435.683M280.08 325.206c-4.39-.003-1.837 8.228-.885 10.494.54 1.288.348 2.757 2.573 6.432 1.391 2.3 2.907 4.936 5.042 6.68 5.094 4.162 11.193 5.218 11.04.194-.082-2.71-2.811-2.426-5.13-12.87-.31-1.395-1.21-2.879-1.894-3.838-.775-1.088-2.11-2.212-3.011-3.008-1.472-1.302-1.817-1.666-3.484-2.457-1.752-.832-1.829-1.625-4.251-1.627" style="fill:#fab216;fill-rule:evenodd"></path><path d="M360.654 212.546c1.452.2 2.22.757 2.935 1.72.437.588 1.286 1.865 1.494 2.486 3.508 10.427-1.545 6.627-6.629 7.605-3.914.753-1.892 4.635-1.59 5.661.835.397 1.446 1.318 2.234 1.796.733.445 2.326.996 3.166 1.283 1.81.618 5.294 1.363 7.386 1.228 5.05-.325 5.812-8.509 5.035-12.39-.916-4.58-2.62-9.311-3.331-14.013-.208-1.374-.194-2.728-.332-4.05-.158-1.525-.48-1.771-.454-3.817.028-2.116 1.644-6.312.254-8.154-1.483-1.766-9.115.114-9.559 5.19-.344 3.935-2.057 4.827-5 6.76l-5.72 2.022c-.676.104-1.057.03-1.793.207-.747.179-.738.31-1.66.503-1.135.235-2.042.36-3.194.675-6.821 1.862-14.129 4.051-19.656 8.399-1.555 1.224-2.655 2.314-3.925 3.957-3.299 4.267-3.657 9.782-4.51 15.144-.587 3.7-.317 8.147-.127 11.875.227 4.465 3.353 9.607 2.153 13.767-2.051 7.118-5.18 7.462-3.956 11.22.681 2.089.381 5.334-1.238 6.225-1.54.848-3.735-1.453-5.034-2.097-7.747-3.84-9.916-12.363-8.315-20.472.12-.612.13-1.469.183-2.11.263-3.224 2.24-9.42 3.133-12.55l2.44-8.207c.301-.83.188-.385.334-.739l5.142-14.73c1.11-2.9 1.715-7.144 1.321-10.615-.136-1.203-.568-1.686-1.002-2.754-2.528-.412-2.545.036-3.692 1.518-.707.913-1.7 2.673-2.032 3.475-.932 2.253-.708 2.213-.957 4.527-.153 1.42-.86 2.65-1.248 4.028l-2.374 8.63c-.511 1.588-.756 2.577-1.284 4.137-.775 2.29-1.113 3.885-2.12 6.042-.905 1.94-1.701 5.415-3.782 9.801l-1.438 4.044c-1.328 4.363-2.304 9.305-2.284 14.005l.463 4.977c.37 1.686.574 3.05.921 4.576.285 1.25.331 1.011.71 1.983 2.779 7.144 9.386 11.69 16.874 13.12 2.093.4 2.093.74 4.693.742 3.593.003 5.894-1.206 7.88-3.082.644-.607 2.017-2.21 2.35-3.01 2.61-6.266 2.259-6.999 2.234-14.129-.028-7.616-1.299-6.437-1.045-9.79 2.944-.118 4.963 4.943 5.04 8.699.05 2.554.308 7.662-.474 10.04-1.06 3.221-.786 5.619 3.6 5.83 2.472.118 7.564.42 6.658-3.242-.067-.27-2.896-6.56-1.864-8.389l.66-.545c1.338.521 7.059 7.798 7.407 1.775.354-6.132-4.24-13.907.735-14.31 3.206-.259 5.553.686 4.885-4.779-.658-5.388-3.93-9.79-5.693-14.71-1.3-3.627-3.183-7.135-1.896-11.174 1.275-4-1.146-5.761-4.29-4.252-2.29 1.101-4.773 2.787-6.869 4.281-1.587 1.132-1.455.678-2.167 2.67-.826 2.31-1.498 5.66-2.385 7.453-1.112 2.25-2.7 4.604-5.353 4.984-.234-9.304-1.07-13.466 7.098-19.012l5.512-3.235c1.016-.532 1.447-.911 2.781-1.56.996-.484 1.845-.954 2.916-1.445l5.926-2.757c2.607-.955 10.857-4.323 13.719-2.94M362.273 322.904c4.571-.58 4.746 2.872 5.104 4.472.348 1.556 1.812 5.6 2.613 7.104 1.4 2.63 2.125 2.494 4.014 5.534 1.476 2.375 2.273 3.799 4.518 5.293 4.413 2.938 12.288 2.337 5.38-5.673-3.597-4.17-6.573-9.633-10.4-13.826a108 108 0 0 0-1.181-1.267c-.103-.11-1.127-1.206-1.195-1.258-.9-.693-2.73-.546-2.826-2.043-.058-.915.89-2.95 1.379-3.543 2.352-2.86-.748-4.401-3.286-4.904-3.454-.685-5.598-.705-8.777-.049-6.302 1.301-6.58-2.496-10.328-8.928-.618-1.061-1.401-2.023-3.227-1.692-3.622.655-1.645 6.502-1.551 6.975.368 1.85-.059.87.744 4.21 2.157 8.97 5.717 4.34 12.859 20.93.553 1.285.881 2.265 1.452 3.448 2.182 4.52 3.153 9.551 5.168 14.176l4.465 7.743c2.573 2.671 3.673 5.927 11.163 5.714 8.455-.24.469-8.883-.952-10.99l-4.08-5.753c-3.76-5.193-6.24-9.303-9.691-14.542-2.274-3.452-3.88-7.47-1.365-11.131M320.839 308.708c0-3.066-4.33-6.886-6.467-8.164-1.578-.943-3.893-1.823-5.793-1.203-5.105 1.665-6.018 11.385 3.852 13.023 2.09.347.759.847 4.801.04 2.326-.463 3.607-1.142 3.607-3.696M295.836 196.257l-.146 7.101c.038 1.65.072 1.295.994 2.135 2.213-.134 3.927-4.332 4.767-6.107 1.25-2.64 4.708-9.524.78-11.926-1.13-.69-3.005-1.164-4.434-.454-2.928 1.456-1.961 5.808-1.961 9.25" style="fill:#fab119;fill-rule:evenodd"></path><path d="m147.364 194.786 3.218-3.131 4.269 7.024-21.53 20.673-4.183-5.92a8.9 8.9 0 0 0 1.812-2.971c.424-1.124.627-2.328.627-3.613 0-2.388-.627-4.416-1.863-6.081-1.237-1.666-2.795-2.489-4.642-2.489-2.93 0-5.25 1.686-6.962 5.078q-2.59 5.088-2.591 13.728c0 10.156 2.016 18.686 6.03 25.61 4.031 6.925 9.012 10.377 14.974 10.377 3.083 0 5.912-.763 8.47-2.268 2.574-1.505 5.013-3.833 7.334-6.965l5.268 5.64c-4.032 7.527-8.52 13.107-13.466 16.76-4.946 3.672-10.485 5.5-16.6 5.5q-13.695 0-22.461-11.14c-5.844-7.426-8.758-16.92-8.758-28.5 0-5.761.762-11.18 2.304-16.258s3.828-9.734 6.877-13.95c3.472-4.957 7.402-8.75 11.807-11.42 4.403-2.67 8.926-3.994 13.584-3.994 3.405 0 6.505.703 9.283 2.088 2.778 1.405 5.166 3.472 7.199 6.222M412.096 186.695h53.831v17.485h-7.384l-.107-3.427c-1.606-1.231-3.46-2.155-5.565-2.791-2.105-.616-4.495-.923-7.135-.923H439.6v18.346h18.943v-6.157h7.384v22.533h-7.384v-5.294H439.6v34.722h7.491v9.358h-34.995v-9.358h5.244v-65.012h-5.244zM422.105 468.42l11.652-2.027 23.954 57.646 2.313-.403 1.323 7.535-19.635 3.417-1.324-7.535 3.71-.645-3.45-8.697-14.838 2.581-.377 9.364 3.741-.651 1.324 7.535-12.643 2.2-1.323-7.535 2.814-.49zm-269.187-1.565c6.452.963 11.297 5.053 14.523 12.282 3.24 7.215 4.078 15.888 2.528 26.005-1.556 10.15-4.955 18.19-10.21 24.136-5.244 5.93-11.098 8.421-17.55 7.458-6.473-.967-11.34-5.06-14.577-12.29-3.24-7.215-4.088-15.89-2.538-26.007s4.96-18.156 10.217-24.101c5.258-5.962 11.133-8.45 17.607-7.483m-3.856 8.308q-3.162-.472-5.481 3.624c-1.545 2.73-2.736 6.86-3.583 12.388-.605 3.948-.925 8.107-.968 12.459a88 88 0 0 0 .788 12.569c.532 3.815 1.317 6.76 2.362 8.8 1.042 2.057 2.324 3.191 3.854 3.42 2.107.314 3.934-.893 5.469-3.626 1.524-2.734 2.72-6.896 3.578-12.49.605-3.948.924-8.107.967-12.458a91.4 91.4 0 0 0-.756-12.565c-.52-3.746-1.3-6.656-2.344-8.696-1.042-2.058-2.335-3.193-3.886-3.425m27.694-2.588 19.688 2.129c6.003.648 10.562 3.17 13.665 7.561 3.104 4.392 4.281 9.978 3.548 16.726-.473 4.343-1.689 8.116-3.641 11.352-1.954 3.253-4.459 5.568-7.499 6.997.417.67.78 1.436 1.098 2.316s.623 1.977.905 3.292l3.285 14.331 2.7.292-.828 7.618-15.363-1.662a64 64 0 0 0-.154-4.19c-.097-1.313-.228-2.51-.417-3.578l-2.861-15.824-2.722-.294-1.668 15.334 3.099.335-.829 7.617-19.43-2.1.83-7.618 3.162.342 5.756-52.917-3.163-.342zm15.416 10.184-3.15 28.964 1.86.202q3.665.396 6.407-3.363c1.83-2.507 2.975-5.932 3.448-10.275.476-4.376.038-7.956-1.302-10.754-1.35-2.8-3.4-4.357-6.155-4.654zm27.026-4.67 19.818 1.398-.55 7.715-3.173-.223-3.77 52.908 3.173.224-.543 7.616-19.818-1.399.543-7.615 3.174.224 3.77-52.91-3.174-.223zm23.288 2.007 19.863.456-.178 7.782-3.18-.072-.365 15.869 11.425.262.364-15.87-3.181-.072.179-7.784 19.863.456-.18 7.783-3.18-.073-1.224 53.37 3.18.073-.175 7.682-19.863-.456.175-7.682 3.182.073.649-28.302-11.425-.262-.649 28.302 3.18.073-.176 7.682-19.862-.455.176-7.683 3.18.074 1.225-53.37-3.18-.073zm47.502 1.619 16.681-.427 1.256 48.274c.084 3.223.623 5.615 1.626 7.144 1.003 1.545 2.495 2.292 4.464 2.242 1.795-.046 3.157-.984 4.073-2.795.916-1.828 1.325-4.411 1.238-7.768l-1.033-39.674-3.18.081-.2-7.714 16.68-.427 1.577 60.614 3.18-.081.199 7.614-16.01.41-.778-6.58c-1.726 2.717-3.589 4.77-5.588 6.14-1.988 1.388-4.156 2.112-6.482 2.171-4.035.103-7.21-1.704-9.526-5.403-2.316-3.718-3.57-9.05-3.751-16.03l-1.045-40.158-3.18.081zm79.995-3.885 1.035 14.148-4.469.318-.267-2.77c-.788-.978-1.912-1.666-3.35-2.048-1.439-.381-3.281-.5-5.548-.34l-2.72.193 1.086 14.846 11.462-.815-.364-4.981 4.468-.318 1.333 18.233-4.468.318-.313-4.284-11.463.814 1.982 27.1 2.72-.193c1.964-.14 3.64-.66 5.017-1.558 1.379-.883 2.5-2.164 3.378-3.812l-.323-4.417 4.468-.318 1.297 17.735-32.574 2.315-.554-7.573 3.173-.225-3.846-52.607-3.173.225-.56-7.671zm5.26-1.151 21.526-2.588.947 7.578-4.963.596 6.409 51.27 2.449-.295c2.835-.341 4.778-1.374 5.838-3.1 1.05-1.707 1.5-4.574 1.34-8.55l4.19-.504 1.493 21.895-4.382.526-.434-2.944-26.036 3.13-.935-7.48 3.158-.38-6.495-51.957-3.157.38zm52.173 8.408-1.169 25.934 10.926-1.901zM168.881 270.932a9.656 9.656 0 0 1-9.656-9.656 9.656 9.656 0 1 1 9.656 9.656M480.43 270.932a9.656 9.656 0 0 1-9.655-9.656 9.656 9.656 0 1 1 9.656 9.656" style="fill:#fdb217;fill-rule:evenodd"></path><path d="M287.73 563.604c-13.651 2.164-25.868 8.635-35.213 17.98a65 65 0 0 0-3.896 4.264l.279 6.138 18.789.303 23.288-13.73 1.632-13.496zM275.742 664.27l28.417.387 13.74-21.321-15.68-24.141-24.75-.26-14.009 23.468zm30.164 2.952-30.424-.414-7.933 10.017 6.036 9.154-.258.17a63.9 63.9 0 0 0 24.512 4.854 64.4 64.4 0 0 0 13.376-1.398c.604-.892 5.091-7.49 7.597-10.547zm-59.321-4.554-1.24 1.026a64.5 64.5 0 0 0 7.171 8.536 64.3 64.3 0 0 0 16.999 12.19l-4.518-6.85zm-2.67-1.098 1.28-1.06-2.035-15.864c-.03-.08-6.536-17.45-9.11-24.054a65 65 0 0 0-.307 6.315c0 12.77 3.735 24.67 10.173 34.663m69.238-70.301 24.178-.067.04-12.685c-3.844-3.791-8.286-7.84-13.123-10.03a63.7 63.7 0 0 0-19.752-5.334l-9.339 2.062-1.607 13.292zm25.178 2.47-24.217.068-9.637 24.192 15.348 23.628 21.298-.277 10.965-24.57zM234.773 616.58c1.904 3.63 8.327 20.546 9.451 23.518l17.19.771 13.629-22.831-8.009-23.218-19.021-.307zm110.182 43.948 5.876 2.446c7.007-10.275 11.105-22.693 11.105-36.068 0-3.102-.221-6.153-.647-9.138l-6.785-.162-11.704 26.228-.357-.16zm4.362 4.574-5.386-2.242-19.705 14.294c-1.234 1.112-6.312 7.781-9.105 11.49 10.754-3.003 20.367-8.74 28.042-16.415a64.4 64.4 0 0 0 6.154-7.127m-98.604-85.323c12.06-12.06 28.724-19.52 47.127-19.52s35.067 7.46 47.127 19.52c12.06 12.061 19.52 28.724 19.52 47.127s-7.46 35.067-19.52 47.127-28.723 19.52-47.127 19.52c-18.403 0-35.066-7.46-47.127-19.52s-19.52-28.723-19.52-47.127c0-18.403 7.46-35.066 19.52-47.127" style="fill:#000;fill-rule:evenodd" data-source="https://football-logos.cc"></path><path d="m248.569 584.711.375 8.25-15.075 25.126M286.707 563.299l7.275 2.175 11.55-2.55M337.71 576.716l-.38 15.344 15.225 25.5 9.45.225" style="fill:none"></path><path d="m267.689 592.289 23.288-13.73 1.632-13.496-4.88-1.459c-13.65 2.164-25.867 8.635-35.212 17.98a65 65 0 0 0-3.896 4.264l.279 6.138zM293.55 578.506l19.604 12.762 24.178-.067.04-12.685c-3.844-3.791-8.286-7.84-13.123-10.03a63.7 63.7 0 0 0-19.753-5.334l-9.338 2.062zM314.115 593.806l-9.637 24.192 15.348 23.628 21.298-.277 10.965-24.57-13.757-23.04zM275.043 618.038l-8.009-23.218-19.021-.307-13.24 22.067c1.904 3.63 8.327 20.546 9.451 23.518l17.19.771zM277.47 618.934l-14.009 23.468 12.282 21.867 28.416.387 13.74-21.321-15.68-24.141zM243.161 644.645c-.03-.08-6.536-17.45-9.11-24.054a65 65 0 0 0-.307 6.315c0 12.77 3.735 24.67 10.173 34.663l1.279-1.06zM264.998 677.569l-18.412-14.902-1.24 1.026a64.5 64.5 0 0 0 7.171 8.536 64.3 64.3 0 0 0 16.999 12.19zM275.483 666.807l-7.933 10.017 6.036 9.154-.258.17a63.9 63.9 0 0 0 24.512 4.854 64.4 64.4 0 0 0 13.376-1.398c.604-.892 5.091-7.49 7.597-10.547l-12.907-11.836zM343.93 662.86l-19.704 14.293c-1.234 1.113-6.312 7.782-9.105 11.492 10.754-3.004 20.367-8.741 28.042-16.416a64.4 64.4 0 0 0 6.154-7.127zM342.443 643.675l2.512 16.853 5.876 2.446c7.007-10.275 11.105-22.693 11.105-36.068 0-3.102-.221-6.153-.647-9.138l-6.785-.162-11.704 26.228z" style="fill:#fdb217;fill-rule:evenodd"></path><path d="M44.634 101.192c43.294 21.184 86.006 31.11 127.242 30.867 42.663-.25 83.835-11.412 122.512-32.272l2.915-1.572 2.917 1.62c38.661 21.464 80.418 33.211 123.69 33.44 41.171.216 83.803-9.996 126.548-32.186l9.054-4.7-.198 10.2c-1.779 91.966-10.423 187.644-31.655 278.542-21.303 91.198-55.277 177.67-107.687 250.937-16.91 23.64-35.48 44.715-55.73 62.919-19.795 17.794-41.249 32.884-64.388 44.988l-2.916 1.525-2.869-1.62c-26.355-14.886-51.979-33.447-75.868-56.569-23.874-23.106-46.044-50.792-65.518-83.947-43.266-73.661-71.871-152.601-89.955-235.794-18.038-82.985-25.61-170.287-26.83-260.855l-.134-9.863zm127.29 43.009c-40.23.236-81.73-8.758-123.728-27.904 1.61 86.22 9.203 169.425 26.435 248.702 17.835 82.046 45.99 159.802 88.527 232.223 18.871 32.13 40.366 58.968 63.518 81.376 22.265 21.55 46.04 38.983 70.472 53.071 21.041-11.32 40.687-25.31 58.953-41.729 19.624-17.64 37.604-38.045 53.967-60.92 51.395-71.846 84.763-156.867 105.735-246.65 20.27-86.779 28.961-177.926 31.147-265.934-41.488 19.965-82.902 29.191-123.087 28.98-44.304-.234-87.024-11.941-126.629-33.366-39.542 20.783-81.636 31.894-125.31 32.15" style="fill:#fdb217;fill-rule:evenodd"></path><path d="M127.528 271.737q-13.695 0-22.46-11.14c-5.844-7.425-8.758-16.919-8.758-28.5 0-5.76.762-11.18 2.304-16.257s3.828-9.734 6.877-13.95c3.472-4.957 7.402-8.75 11.807-11.42 4.403-2.67 8.926-3.994 13.584-3.994 3.405 0 6.505.703 9.283 2.088 2.778 1.405 5.166 3.472 7.199 6.222l3.218-3.131 4.269 7.025-21.53 20.672-4.183-5.92a8.9 8.9 0 0 0 1.812-2.971c.424-1.124.627-2.328.627-3.613 0-2.388-.627-4.415-1.863-6.081-1.237-1.666-2.795-2.489-4.642-2.489-2.93 0-5.25 1.686-6.962 5.078q-2.59 5.088-2.591 13.728c0 10.156 2.016 18.686 6.03 25.61 4.031 6.925 9.012 10.377 14.974 10.377 3.083 0 5.912-.763 8.47-2.268 2.574-1.505 5.013-3.833 7.334-6.964l5.268 5.64c-4.032 7.526-8.52 13.106-13.466 16.759-4.946 3.672-10.485 5.5-16.6 5.5m44.396-127.536c-40.23.236-81.73-8.758-123.728-27.904 1.61 86.22 9.203 169.425 26.435 248.702 17.835 82.046 45.99 159.802 88.527 232.223 18.871 32.13 40.366 58.968 63.518 81.376 22.265 21.55 46.04 38.983 70.472 53.071 21.041-11.32 40.687-25.31 58.953-41.729 19.624-17.64 37.604-38.045 53.967-60.92 51.395-71.846 84.763-156.867 105.735-246.65 20.27-86.779 28.961-177.926 31.147-265.934-41.488 19.965-82.902 29.191-123.087 28.98-44.304-.234-87.024-11.941-126.629-33.366-39.542 20.783-81.636 31.894-125.31 32.15m-4.483 334.936c3.24 7.215 4.078 15.888 2.528 26.005-1.556 10.15-4.955 18.19-10.21 24.136-5.244 5.93-11.098 8.421-17.55 7.458-6.473-.967-11.34-5.06-14.577-12.29-3.24-7.215-4.088-15.89-2.538-26.007s4.96-18.156 10.217-24.101c5.258-5.962 11.133-8.45 17.607-7.483 6.452.963 11.297 5.053 14.523 12.282m9.315-6.562 19.688 2.129c6.003.648 10.562 3.17 13.665 7.561 3.104 4.391 4.281 9.978 3.548 16.726-.473 4.343-1.689 8.116-3.641 11.352-1.954 3.253-4.459 5.568-7.499 6.997.417.67.78 1.436 1.098 2.316s.623 1.977.905 3.292l3.285 14.331 2.7.292-.829 7.618-15.363-1.662a64 64 0 0 0-.153-4.19c-.097-1.313-.228-2.51-.417-3.578l-2.861-15.824-2.722-.294-1.668 15.334 3.099.335-.829 7.617-19.43-2.1.83-7.618 3.162.342 5.756-52.917-3.163-.342zm42.442 5.513 19.818 1.399-.55 7.715-3.173-.224-3.77 52.91 3.173.223-.543 7.616-19.818-1.399.543-7.615 3.174.224 3.77-52.91-3.174-.223zm23.288 2.008 19.863.455-.178 7.783-3.18-.072-.365 15.869 11.425.262.364-15.87-3.181-.072.178-7.784 19.864.456-.18 7.783-3.18-.073-1.224 53.37 3.18.073-.175 7.682-19.863-.456.175-7.682 3.182.073.649-28.302-11.425-.262-.649 28.302 3.18.073-.176 7.682-19.863-.455.177-7.683 3.18.073 1.225-53.37-3.18-.072zm47.502 1.619 16.681-.427 1.256 48.274c.084 3.223.622 5.615 1.626 7.144 1.003 1.545 2.495 2.292 4.464 2.241 1.795-.045 3.157-.983 4.073-2.794.916-1.828 1.325-4.411 1.238-7.768l-1.033-39.674-3.18.081-.2-7.714 16.68-.427 1.577 60.614 3.18-.082.199 7.615-16.01.41-.778-6.58c-1.726 2.717-3.589 4.77-5.588 6.14-1.988 1.388-4.156 2.112-6.482 2.171-4.035.103-7.21-1.704-9.526-5.404-2.316-3.717-3.57-9.049-3.751-16.028l-1.045-40.16-3.18.082zm-38.378-62.041c1.733-.66 4.47-.015 5.655.647 3.134 1.856 2.575 3.369 4.837 3.513 2.29.146 3.685.284 5.625.558 2.21.313 5.31-.019 7.433.528 1.115.287.35.174 1.002.325.876.203 1.908.132 2.83.236 1.24 1.24 3.443 2.928 4.91 3.59 3.471 1.57 3.666.866 8.139-3.034 2.803-2.445 4.103-4.072 6.268-5.985l3.959-4.466c1.232-1.6 2.526-3.064 3.617-4.826.844-1.365 2.497-4.012 2.673-5.696.34-3.254-1.831-4.698-2.067-5.77-2.469-.168-2.375.903-3.569 2.801-1.61 2.56-7.231 7.303-9.7 9.36-.905.755-.841.688-2.241.892-1.368.199-1.207.443-2.735.547-2.335.16-2.951.81-4.249 2.11l-4.743 4.759c-.723.767-.928.99-2.22.891-.19-2.67.748-4.33 1.05-6.382 1.338-9.088 1.32-8.888-2.91-10.324-1.04-.353-3.936-1.395-4.803-2.122-.106-3.502 5.25-13.573 7.077-16.807.51-.904 1.149-1.493 1.272-2.782.235-2.45.076-5.455-2.761-3.052-2.923 2.475-9.308 10.911-9.48 13.447-1.313.84-1.617 3.015-3.209 4.087-1.138.766-8.394 3.914-6.695-4.038.48-2.247 2.038-2.24 2.816-4.148 2.09-2.455 5.493-6.718 5.497-11.216.004-3.717-1.394-3.679-4.972-3.536-2.065.082-3.989 1.48-5.435 2.981-3.849 3.995-2.93 6.455-5.381 7.448-3.099 1.256-5.31-1.262-5.012-5.267.19-2.552 3.717-4.454 1.522-7.418-2.03-.126-1.934 1.198-3.094 2.098-2.422.386-4.179-.454-6.766-.207-2.663.254-2.014.569-6.589.487-4.238-.075-3.385-4.316-3.57-7.218-.11-1.737-1.483-9.164-3-11.075-.578-.728-1.006-1.454-1.61-1.937-1.79-1.43-2.889-.723-3.806-3.242-3.785-10.4 5.789-7.054 9.216-10.491 1.207-1.21.79-4.004.79-6.183l.354-34.857c-.007-2.237.266-4.3.266-6.801q0-3.54-.002-7.08c-.013-14.028.549-28.16.534-41.934-.003-2.286.258-4.302.258-6.803l.144-35.407c.017-2.195.24-4.33.237-6.796-.005-2.576-.081-4.025.976-5.741 5.927-.878 3.779 2.406 4.247 7.049.47 4.65.622 10.38.67 15.028l.2 6.666c.025.03.096.172.245.526.73 1.727.263 12.28.352 15.135.16 5.176.56 9.995.591 14.984.065 10.195.958 19.973 1.069 30.214.053 4.977.395 9.856.575 14.976.09 2.538.232 5.17.213 7.625-.015 1.932.133 5.267.306 7.339.563 6.746.122 14.408.856 22.89.273 3.147-.52 4.173.802 6.822.797 1.597 2.896 2.783 4.709 3.128 1.53.292 4.696 1.07 5.774 1.895 4.082 3.13 1.89 7.423.045 11.468-.393.861-5.195 7.354 2.153 9.72l12.982 2.578c6.613 1.67 21.399 3.965 27.228 3.396-.104-1.596-2.026-1.506-3.716-1.979-2.965-.829-4.354-3.168-5.99-5.64-.688-1.039-1.616-2.61-2.635-3.066-.316-.07-6.142 2.417-8.543.637-.562-.416-4.184-5.196-4.795-5.37-1.15-.327-1.922 1.306-2.958 1.55-1.687.375-1.048.963-3.241.72-1.244-1.166-.867-2.393-.85-4.354.048-.916 1.506-3.066 2.032-4.18.643-1.368 1.152-3.146 1.6-4.663.356-1.202.909-10.717.656-12.125-1.628-3.455-18.432-.381-14.626-9.508.732-1.755.919-4.854 1.459-6.657.94-3.132.743-12.67-.17-15.606-.611-1.967-1.477-2.497-2.579-3.983-.926-1.252-.67-1.525-1.123-2.912-.523-1.603-.594-3.614-.826-5.263-.68-4.845-.18-11.295-.397-16.517-.05-1.189.069-3.26-.094-4.282-.154-.97-.28-.294-.393-1.695-.561-6.954.557-8.631-1.282-17.323-.752-3.557-.542-8.232-.423-12.103.072-2.358 1.003-4.236 1.662-6.469.4-1.358.792-1.89 1.53-2.662 1.106-1.159 3.604-2.826 5.077-3.358 5.152-1.857 9.332-1.125 14.311.876 1.694.68 5.415 1.475 7.118.41 2.464-1.538 6.144-5.998 7.771-8.823 2.94-5.106 7.928-15.276 3.002-21.174-5.011-6.001-14-.058-13.792-8.35.041-1.645.315-2.472.911-3.521.614-1.081 1.156-1.203 2.157-1.946l9.683-6.896c1.976-1.262 3.223-2.405 5.76-2.228 1.105 2.03.242 6.15.18 9.148-.109 5.11.145 4.04 1.599 8.357l1.258 3.872c.352 1.121.45 2.86.749 4.116 1.194 5.03-.401 12.323-2.366 16.872-.514 1.191-1.043 2.108-1.58 3.286-2.538 5.553-5.539 10.77-8.583 15.948-1.273 2.166-2.332 4.136-3.72 6.344l-3.718 6.08a46 46 0 0 1-1.854 3.059l-1.67 3.232c-1.955 4.553-2.508 9.255-3.618 13.848-.162.667-.197 1.493-.274 2.2-1.683 15.237-1.29 17.39.01 32.293.469 5.383 2.295 11.966 2.935 16.914.37 2.866.999 5.23 1.93 7.897 1.243 3.56 2.447 7.505 4.072 10.913.535 1.124 1.12 2.286 1.577 3.334l1.75 3.152c1.027 1.82 2.617 4.367 3.955 5.844.969 1.069 1.275 1.702 2.13 2.76 2.614 3.227 7.124 7.223 10.751 9.146 2.194 1.164 1.658 1.169 4.646 2.647l9.221 3.055c3.422 1.44 8.82 3.19 11.58.383.698-.708 1.316-2.404 1.467-3.43.55-3.723-1.736-8.13-3.628-11.01-.855-1.303-2.166-6.418-2.184-6.929-.17-4.768-.317-9.179 1.467-13.384.47-1.108 1.029-2.339 1.935-2.97 2.336-.307 3.03 1.267 3.671 2.64.627 1.341 1.021 2.91 1.595 4.395.803 2.08.844 12.42 1.351 13.968.138.421.217.25.444 1.154.11.438.112.686.189 1.202.455 3.063 1.672 6.39 2.637 9.18.315.91.317 1.509.616 2.485l4.454 10.767c.665 1.273 1.186 2.734 1.91 4.086 2.76 5.163 5.659 10.182 8.862 15.09.695 1.066 2.001 2.555 2.349 3.754.373 0 1.642 1.92 1.915 2.296l4.64 6.297 6.759 7.903c1.54 1.61 4.054 4.885 6.038 6.772 1.553 1.476 3.968 1.745 2.85 5.432-.33 1.093-3.342 3.542-4.255 4.187-3.449 2.434-4.133 1.53-5.774 2.642-.04 1.528.264 2.391-.726 3.102-1.107.694-2.102-.82-2.778-1.549-1.05-.023-2.583.503-3.144 1.07-.59.596-.873 5.795-10.282 3.259-2.953-.796-4.996-3.22-7.923-5.19-3.221-2.17-4.904.186-8.577-.4-2.342-.373-3.839-2.18-4.298-4.128-1.765-7.483 1.191-12.22-1.248-15.35-1.668-.187-2.9 1.174-3.79 2.271-.61.751-1.184 1.028-1.653 1.614-2.327 2.909-4.255 5.889-6.34 9.175l-2.11 4.107c-.81 2.333-2.857 7.46-2.089 10.01.92 3.05 3.142 1.476 4.812 4.376 1.733 3.007.365 5.328.643 8.108.214 2.133 1.081 2.814 2.624 3.658l8.034 4.234c.944.468-.336.146 1.055.58.363.113 1.256.179 1.645.16 2.727-.136 1.689-1.83 4.947-4.497 1.157-.948 2.712-1.855 4.557-.862 1.598 1.31-.037 4.93-.064 5.03-.537 1.997-.229 3.196-1.085 5.258-2.742 6.606-6.307 6.754-11.828 5.608-1.435-.297-10.608-4.965-12.739-6l-8.151-4.335c-2.654-1.405-14.55-7.742-15.925-9.133-3.819-3.864-9.352-6.005-14.559-7.17l-8.196-1.078c-1.088-.258-1.186-.457-2.585-.58-3.706-.325-8.825-2.905-11.416-5.883-2.344-2.694-1.474-3.631-1.506-9.227-.019-3.39-.122-2.788 1.505-4.883.55-.71.863-1.12 1.482-1.8l1.55-1.39c.762-.486 1.3-.677 2.24-1.035m85.8 60.47 32.573-2.314 1.035 14.148-4.469.318-.267-2.77c-.788-.978-1.912-1.666-3.35-2.048-1.439-.381-3.281-.5-5.548-.34l-2.72.193 1.086 14.846 11.462-.815-.364-4.981 4.468-.318 1.333 18.233-4.468.318-.313-4.284-11.463.814 1.982 27.1 2.72-.193c1.964-.14 3.64-.66 5.017-1.558 1.379-.883 2.5-2.164 3.378-3.812l-.323-4.417 4.468-.318 1.297 17.735-32.574 2.315-.554-7.573 3.173-.225-3.846-52.607-3.173.225zm37.834-3.465 21.524-2.588.948 7.578-4.963.596 6.409 51.27 2.449-.295c2.835-.341 4.778-1.374 5.838-3.1 1.05-1.707 1.5-4.574 1.34-8.55l4.19-.504 1.493 21.895-4.382.526-.434-2.944-26.036 3.13-.935-7.48 3.158-.38-6.495-51.957-3.157.38zM231.193 626.906c0-18.403 7.46-35.066 19.52-47.127s28.724-19.52 47.127-19.52 35.067 7.46 47.127 19.52c12.06 12.061 19.52 28.724 19.52 47.127s-7.46 35.067-19.52 47.127-28.723 19.52-47.127 19.52c-18.403 0-35.066-7.46-47.127-19.52s-19.52-28.723-19.52-47.127m61.41-473.669c.001-2.499.107-1.98 1.057-3.525 4.66-.411 2.273.561 9.435-.683 4.895-.85 3.41-2.563 6.297-3.804 6.555-2.817 3.745 8.231 11.519 8.238 2.507-.002 3.24-.206 4.688 1.136.614 4.337-4.94 7.645-6.842 10.35-7.8 11.082-2.129 13.967-6.284 20.096-2.42.399-3.022-1.063-4.004-2.49-2.5-3.633-.577-1.653-1.826-4.689-1.777-4.32-4.347-2.893-6.959-5.848-2.804-3.173-7.081-13.251-7.08-18.78m129.502 315.184 11.652-2.028 23.954 57.646 2.313-.403 1.323 7.535-19.635 3.417-1.324-7.535 3.71-.645-3.45-8.697-14.838 2.581-.377 9.364 3.741-.651 1.324 7.535-12.643 2.2-1.323-7.535 2.814-.49zM281.768 342.132c-2.225-3.675-2.032-5.143-2.573-6.432-.952-2.266-3.506-10.497.885-10.494 2.422.002 2.5.795 4.251 1.627 1.667.79 2.012 1.155 3.484 2.456.9.798 2.236 1.921 3.01 3.009.684.96 1.586 2.443 1.896 3.838 2.318 10.444 5.047 10.16 5.13 12.87.153 5.024-5.947 3.968-11.04-.194-2.136-1.745-3.652-4.38-5.043-6.68m74.345-7.893c-7.142-16.59-10.702-11.96-12.859-20.93-.803-3.34-.376-2.36-.744-4.21-.094-.473-2.071-6.32 1.551-6.975 1.826-.33 2.61.63 3.227 1.692 3.749 6.432 4.026 10.23 10.327 8.929 3.18-.657 5.324-.637 8.777.048 2.539.503 5.64 2.044 3.286 4.904-.488.594-1.436 2.628-1.378 3.543.097 1.497 1.926 1.35 2.826 2.043.068.052 1.092 1.149 1.195 1.258l1.181 1.267c3.827 4.193 6.803 9.656 10.4 13.826 6.908 8.01-.967 8.61-5.38 5.673-2.245-1.494-3.042-2.918-4.518-5.294-1.889-3.039-2.613-2.903-4.014-5.533-.8-1.504-2.265-5.547-2.613-7.105-.358-1.6-.533-5.05-5.104-4.471-2.515 3.66-.909 7.679 1.365 11.13 3.451 5.24 5.932 9.35 9.692 14.543l4.078 5.752c1.421 2.108 9.408 10.751.953 10.991-7.49.213-8.59-3.043-11.163-5.714l-4.465-7.743c-2.015-4.625-2.986-9.657-5.168-14.176-.57-1.183-.9-2.163-1.452-3.448m-20.874 23.807c-1.087-3.473-1.61-5.836-1.611-9.313 0-1.28.248-2.458.765-3.381 1.948-.381 2.707.276 3.682 1.188 2.532 2.37 2.044 3.691 3.102 6.745l4.266 10.621c1.423 3.239 1.691 4.128 3.891 5.962 3.33 2.774 5.508 7.902 7.704 12.163 1.37 2.658 2.2 3.77 3.748 6.054.623.92 1.21 1.93 1.77 3.138.63 1.356 1.08 2.014.73 3.975-1.795.345-2.719.067-4.104-.635-.885-.448-1.987-.956-3.022-1.595-2.098-1.293-3.625-2.472-5.298-3.951l-4.331-4.894c-2.039-2.754-3.635-6.033-5.101-9.114l-2.234-4.79c-.246-.586-.324-.706-.627-1.523l-2.378-6.913c-.495-1.197-.579-2.548-.952-3.737m6.038-15.708-.78-8.58c0-1.99.283-2.538 1.093-3.776 2.703-.253 3.757 1.156 6.05 3.45 6.783 6.787 6.496 14.03 7.296 16.125 1.631 4.272 5.445 11.9 7.625 15.775 2.774 4.933 2.54 3.22 4.138 5.142.773.93 1.334 1.92 1.449 3.284.763 9.04-7.783 5.94-9.715 2.786-.646-1.055-1.258-1.728-1.933-2.678l-7.458-11.356c-4.535-7.695-2.477-5.27-4.358-9.796zm-72.4-63.842c-.132-4.643.65-6.63 3.311-8.71 4.646-3.633 3.332 3.749 3.427 6.795.08 2.552 1.14 8.035 1.769 10.26 1.255 4.448 3.681 1.903 3.683 10.703 0 4.027-3.79 14.497-7.717 3.546l-2.433-9.528c-.167-.791-.517-1.567-.643-2.312-.53-3.16-1.3-7.361-1.396-10.754m20.75-14.718c-.02-4.7.957-9.642 2.285-14.005l1.438-4.044c2.08-4.386 2.877-7.861 3.782-9.801 1.007-2.157 1.345-3.752 2.12-6.042.528-1.56.773-2.549 1.284-4.138l2.374-8.629c.387-1.378 1.096-2.608 1.248-4.028.25-2.314.025-2.274.957-4.527.332-.802 1.325-2.562 2.032-3.475 1.147-1.482 1.164-1.93 3.692-1.518.434 1.068.865 1.55 1.002 2.754.394 3.47-.212 7.715-1.32 10.615l-5.143 14.73c-.146.354-.032-.09-.335.74l-2.439 8.205c-.892 3.131-2.87 9.327-3.133 12.551-.053.641-.062 1.498-.183 2.11-1.6 8.108.568 16.633 8.315 20.472 1.299.644 3.495 2.945 5.034 2.097 1.619-.891 1.92-4.136 1.238-6.226-1.224-3.757 1.905-4.1 3.957-11.22 1.199-4.159-1.927-9.301-2.154-13.766-.19-3.728-.46-8.175.128-11.875.852-5.362 1.21-10.877 4.509-15.144 1.27-1.643 2.37-2.733 3.926-3.957 5.526-4.348 12.834-6.537 19.655-8.399 1.152-.315 2.059-.44 3.194-.676.922-.191.913-.323 1.66-.502.736-.177 1.118-.103 1.794-.207l5.72-2.021c2.942-1.935 4.655-2.826 5-6.761.443-5.077 8.075-6.956 9.558-5.19 1.39 1.842-.226 6.038-.254 8.154-.026 2.046.296 2.292.454 3.816.138 1.322.124 2.677.332 4.051.712 4.702 2.415 9.433 3.331 14.013.777 3.881.015 12.065-5.035 12.39-2.092.135-5.575-.61-7.386-1.228-.84-.287-2.433-.838-3.166-1.283-.787-.478-1.399-1.399-2.235-1.796-.3-1.026-2.323-4.908 1.592-5.662 5.083-.977 10.136 2.823 6.628-7.605-.208-.62-1.056-1.897-1.494-2.486-.715-.962-1.483-1.52-2.935-1.719-2.862-1.382-11.112 1.986-13.719 2.94l-5.925 2.758c-1.072.49-1.92.961-2.917 1.446-1.334.648-1.765 1.027-2.781 1.559l-5.512 3.235c-8.168 5.546-7.332 9.708-7.099 19.012 2.653-.38 4.242-2.735 5.354-4.984.887-1.793 1.56-5.144 2.385-7.454.713-1.99.58-1.537 2.167-2.669 2.096-1.494 4.579-3.18 6.87-4.28 3.143-1.51 5.564.25 4.29 4.25-1.287 4.04.596 7.548 1.894 11.174 1.764 4.921 5.036 9.323 5.694 14.711.668 5.465-1.68 4.52-4.885 4.78-4.975.402-.38 8.177-.735 14.309-.348 6.023-6.069-1.254-7.407-1.775l-.66.546c-1.032 1.828 1.797 8.118 1.864 8.388.906 3.663-4.186 3.36-6.658 3.241-4.386-.21-4.66-2.608-3.6-5.829.782-2.378.525-7.486.473-10.04-.076-3.756-2.095-8.817-5.038-8.699-.255 3.353 1.016 2.174 1.044 9.79.025 7.13.377 7.863-2.234 14.128-.333.8-1.706 2.404-2.35 3.012-1.986 1.875-4.287 3.085-7.88 3.081-2.6-.003-2.6-.343-4.693-.742-7.488-1.43-14.095-5.976-16.875-13.12-.378-.972-.424-.733-.709-1.984-.347-1.525-.551-2.89-.92-4.575zm-120.746 7.154a9.656 9.656 0 0 1-9.656-9.656c0-5.332 4.323-9.656 9.656-9.656s9.656 4.324 9.656 9.656-4.323 9.656-9.656 9.656m143.55 41.433c-9.87-1.639-8.957-11.359-3.852-13.024 1.9-.62 4.215.26 5.793 1.203 2.138 1.278 6.467 5.098 6.467 8.164 0 2.554-1.28 3.233-3.607 3.697-4.043.806-2.71.306-4.8-.04m44.09-23.728c-1.148-2.84-3.248-8.094-1.312-10.998 5.64-.877 8.001 6.51 10.343 7.456 1.81-1.829 1.876-.917 1.898-5.793.016-3.431.007-6.882-1.654-9.759-.496-.86-.87-1.685-1.273-2.55-.826-1.77-1.427-3.5-2.314-5.306l-1.726-4.239c-.161-.623-.155-1.037-.37-1.634l-2.102-5.518c-1.038-3.189-4.38-8.97-2.08-11.631l1.331-.902c1.158-.433 4.32-.349 5.456-.027 5.663 1.607 12.47-3.027 10.496 2.684-.574 1.659-1.834 3.03-3.198 4.42-4.122 4.2-.7 8.236.281 11.387a166 166 0 0 1 4.61 18.628c1.203 6.527.248 14.71-1.52 20.485-.783 2.559-7.41 14.2-10.8 14.119-1.2-.03-1.688-.678-2.803-1.007-4.188-1.237-6.353-.506-7.93-1.834-1.288-1.084-1.715-3.562-2.364-5.334-.233-.636-.99-1.523-1.479-2.272-.424-.65-1.164-1.34-1.808-1.982-4.118-4.107-1.49-8.094 2.424-9.035 2.171-.522 3.318 1.593 4.051 3.065.932 1.869 2.075 2.931 3.58 4.073.58.44 3.829 2.652 4.667 2.86.45-.442.362-.334.926-.721.033-.756.113-1.02-.113-1.708-.461-1.4-1.695-1.286-2.66-2.436zm90.57-18.09h-34.995v-9.358h5.243v-65.013h-5.243v-9.48h53.831v17.484h-7.384l-.107-3.427c-1.606-1.231-3.46-2.155-5.565-2.791-2.105-.616-4.495-.923-7.135-.923H439.6v18.346h18.943v-6.157h7.384v22.533h-7.384v-5.294H439.6v34.722h7.491zm23.684-9.27c0-5.333 4.323-9.657 9.656-9.657s9.656 4.324 9.656 9.656a9.656 9.656 0 0 1-9.656 9.656c-5.333 0-9.656-4.323-9.656-9.656M295.69 203.357l.145-7.101c.001-3.444-.966-7.795 1.962-9.25 1.429-.711 3.304-.237 4.433.453 3.93 2.402.472 9.286-.779 11.926-.84 1.775-2.554 5.973-4.767 6.106-.922-.839-.956-.484-.994-2.134" style="fill:#03c;fill-rule:evenodd"></path><path d="M149.062 475.163q-3.162-.472-5.481 3.624c-1.545 2.73-2.736 6.86-3.583 12.388-.605 3.948-.925 8.107-.968 12.459a88 88 0 0 0 .788 12.569c.532 3.815 1.317 6.76 2.362 8.8 1.042 2.057 2.324 3.191 3.854 3.42 2.107.314 3.934-.893 5.469-3.626 1.524-2.734 2.72-6.896 3.578-12.49.605-3.948.924-8.107.967-12.458a91.4 91.4 0 0 0-.756-12.565c-.52-3.746-1.3-6.656-2.344-8.696-1.042-2.058-2.335-3.193-3.886-3.425M192.172 482.76l-3.15 28.963 1.86.202q3.665.396 6.407-3.363c1.83-2.507 2.975-5.932 3.448-10.275.476-4.376.038-7.956-1.302-10.754-1.35-2.8-3.4-4.357-6.155-4.654zM427.416 485.087l-1.169 25.934 10.926-1.901z" style="fill:#03c;fill-rule:evenodd" data-source="https://football-logos.cc"></path><!-- source: https://football-logos.cc --></svg>