<svg xmlns="http://www.w3.org/2000/svg" viewBox="33.64 34.4 1705.82 1704.72"><!-- Source: https://football-logos.cc --><path fill="#b81218" fill-rule="evenodd" d="M1737.94 933.42c-.62 8.57-1.11 18.34-1.91 27.58-5.08 58.57-16.88 116.23-33.53 172.76-8.76 29.75-19.38 57.93-31.48 86.52q-44.68 105.64-116.08 195.17-44.99 56.42-98.67 104.8-44.83 40.41-94.56 73.69-99.34 66.5-214.05 103.69-12.43 4.03-30.74 9.23-117.42 33.35-238.17 32.22-39.53-.37-85.24-5.39-40.02-4.4-85.53-13.86c-10.98-2.28-24.74-5.76-33.19-7.92q-82.69-21.13-162.19-59.7-44.87-21.78-86.26-48.56-43.51-28.16-80.18-58.07c-51.49-41.99-99.78-91.58-140.18-145.31q-26.27-34.94-47.74-69.75-2.95-4.79-12.93-22.28-8-14.01-12.47-22.53-48.96-93.26-73.19-192.03c-3.23-13.17-5.1-20.28-7.35-31.17q-2.36-11.39-5.06-25.95-15.35-82.67-13.38-168.3 2.28-99.05 28.07-198.04 3.78-14.5 15.16-49.94 12.03-37.43 28.05-73.65 2.75-6.19 12.2-26.56 9.35-20.17 25.93-49.57 54.04-95.79 129.56-173.7c11.42-11.78 23.46-23.93 33.23-32.73q29.75-26.82 50.12-43.13 19.49-15.6 51.01-37.83 7.94-5.61 16.08-10.64c6.9-4.27 13.62-9.1 21.63-13.9 11.14-6.68 15.9-9.7 26.52-15.62q36.36-20.26 74.74-37.52 7.61-3.42 24.84-10.35c13.54-5.44 26.16-9.8 39.28-14.5Q638.59 70.46 671.24 62c13.45-3.48 34.38-8.65 51.72-11.9q31.96-5.98 49.27-8.2 106.09-13.59 208.27-2.56 33.52 3.62 77.97 12.41c13.34 2.64 26.36 6.31 39.73 9.44q8.04 1.89 15.8 4.07 118.28 33.23 220.65 97.35 32.91 20.62 64.3 44.43 121.54 92.17 203.77 218.87c26.13 40.26 48.36 82.72 67.8 127.06q7.02 16.02 13.77 33.97 50.86 135.09 54.86 279.81.99 36.06-1.21 66.67M667.04 89.19q-3.09 1.22-7.36 1.89a2.394 2.203 28.947 0 0-.37.09l-28.47 9.01a1.906 1.703 29.794 0 1-.33.07q-3.67.48-6.33 2.37a3.564 3.528-70.638 0 1-1.09.53q-3.51 1.05-6.89 2.4-4.07 1.62-6.8 2.48-6.13 1.91-10.75 3.55-1.61.57-2.32.86-5.14 2.08-10.26 3.88-5.72 2.02-10.22 3.96c-12.76 5.54-26.4 11.09-38.28 17.02q-9.38 4.68-18.81 9.19-3.79 1.81-31.13 16.39-5.11 2.72-27.92 16.39-11.94 7.16-24.36 15.67-.93.64-24.1 16.06-4.32 2.87-9.41 6.75-2.47 1.89-9.22 6.98-31.14 23.5-44.37 35.28-24.7 22-45.32 42.43-15.5 15.36-37.39 39.49c-4.53 4.99-9.17 10.93-13.12 15.32q-5.12 5.7-9.73 11.57-11.82 15.07-25.35 33.42c-10.33 14-20.53 30.19-29.12 42.91q-6.27 9.29-10.29 16.59-5.33 9.7-9.46 17.12-2.06 3.71-2.92 5-.76 1.14-3.15 4.9a3.097 2.946 70.134 0 0-.36.82q-.46 1.63-2.09 4.26-1.21 1.94-2.35 4.6-.74 1.76-7.17 13.21-3.5 6.23-10.05 20.98-.44.98-.71 1.43-.74 1.21-.81 1.37-4.14 9.2-11.15 24.2c-1.29 2.77-2.98 7.18-4.51 10.47q-2.18 4.69-2.85 6.83-1.25 3.99-2.3 7.09a3.488 3.118 73.797 0 1-.34.71q-.73 1.15-1.91 3.89-.85 1.99-7.87 20.67-6.97 18.57-14.24 42.65-2.3 7.6-2.42 7.99-1.97 6.34-2.71 10.41a.276.272-87.072 0 1-.24.22q-.11.02-.21.09a.712.706 77.787 0 0-.3.47q-.68 4.92-1.73 8.52-.99 3.36-2.23 8.27c-1.23 4.82-3.45 13.67-4.59 19.53q-2.13 10.94-4.1 20.13c-2.93 13.65-4 22-6.63 38.37q-1.57 9.71-2.55 18.22-2.64 22.91-3.17 29.35-1.62 19.59-3.08 55.08-.68 16.52-.51 25.82c.41 22.68 1.84 44.75 3.31 63.59q1.69 21.76 6.24 51.5 3.61 23.66 9.56 52.67 2.68 13.1 7.68 32.1 7.13 27.14 8.63 31.86 9.55 30.04 14.71 43.83 2.31 6.2 2.36 6.33 1.33 3.94 2.34 6.32 3.84 9.07 6.63 17.04 2.45 7 5.74 13.47 1.52 3 6.04 13.4 2.4 5.52 5.18 11.4 2.38 5.02 5.54 11.23 2.24 4.39 4.11 8.71 1.97 4.57 4.19 8.68c7.18 13.28 11.41 21.54 17.39 31.14 5.72 9.18 11.14 19.48 17.12 28.58q21.73 33.06 28.03 41.73 11.83 16.3 24.05 31.18 7.8 9.49 17.95 22.1c3.25 4.02 6.85 7.44 9.85 11.32q2.29 2.96 7.29 8.27 29.96 31.85 40.46 41.72 17.46 16.4 26.69 24.85c5.37 4.91 12.12 10.24 16.75 14.17 10.06 8.54 15.77 12.83 29.49 23.45q9.42 7.28 17.11 12.61 22.61 15.67 43.77 29.38c6.65 4.31 18.47 11.11 24.49 14.67q18.32 10.82 39.68 21.46 28.69 14.3 42.32 20.13 1.58.67 21.13 9 7.66 3.26 18.35 7.13 11.65 4.23 18.5 6.81 4.09 1.55 8.2 3.04 3.83 1.39 8.32 2.71 13.04 3.84 26.4 8.16c12.67 4.1 23.65 6.52 36.69 10.04q8.43 2.27 21.7 5.13c18.08 3.9 34.25 6.16 52.58 9.28q14.29 2.43 30.83 4.08 24.18 2.4 41.38 3.39 34.26 1.96 68.5 1.04 20.48-.55 30-1.07 32.86-1.8 61.81-5.98 26.75-3.87 60.47-10.58 13.17-2.63 30.65-7.36 29.27-7.93 30.43-8.28 6.96-2.13 26.24-8.14 9.26-2.88 25.83-9.31 6.57-2.55 19.76-7.47c10.38-3.87 16.71-6.98 27.31-11.34q9.25-3.81 20.16-9.24 24.18-12.05 41.12-20.99 12.64-6.68 26.38-14.97 19.36-11.69 25.89-15.83 14.31-9.08 42.59-29.14 2.68-1.9 4.62-3.54 1.73-1.47 4.62-3.54c11.83-8.47 26.62-20.94 36.05-28.93q21.93-18.57 42.57-38.33 9.03-8.65 19.24-19.43 16-16.9 18.74-19.91 10.92-12 31.11-36.66 6.81-8.31 9.38-11.81 6.77-9.22 9.17-11.99 3.2-3.7 6.51-8.94.8-1.27 6.37-9.03 5.95-8.28 10.79-16.01 3.69-5.9 9.85-14.4.34-.47 1.45-2.72.7-1.4 1.55-2.67c6.79-10.01 11.87-19.19 18.65-30.73 1.3-2.22 2.61-3.81 3.71-6.25q1.77-3.89 6.69-12.03.77-1.26 3.82-8.31a4.802 4.746 73.717 0 1 .47-.87q2.82-4.18 4.48-8.63c1.03-2.78 3.05-6.33 4.57-8.68q.27-.42.88-3.15a.287.269-89.553 0 1 .2-.21q.12-.03.21-.08a.884.86 89.204 0 0 .35-.37l11.81-23.74a1.555.907-59.248 0 0 .07-.2q.91-3.92 3.84-10.34c3.31-7.24 4.88-11.81 8.45-20.86q2.08-5.27 4.39-10.6c4.05-9.36 6.97-19.23 10.15-27.89 1.27-3.45 1.77-6.56 3.3-10.17q1.26-2.99 2.39-7.64 2.54-10.39 5.75-20.07 1.22-3.68 2.35-9.02.47-2.19 2.42-9.03 7.83-27.48 13.6-61.17c.15-.84.48-1.48.64-2.4q5.69-32.81 8.88-62.69 1.44-13.55 2.01-23.29 1.23-21.18 1.34-23.33c1.4-27.35 1.33-56.11-.73-84.33q-2.11-29.05-2.12-29.15-.27-3.5-3.51-31.49-1.69-14.62-4.73-31.34-6.42-35.29-11.19-54.74-2.18-8.92-13.22-47.81c-1.77-6.21-3.96-12.41-6.1-18.95q-2.39-7.33-4.95-14.07-11.1-29.25-16.92-43.98-2.78-7.05-12.09-27.43c-2.69-5.89-5.37-10.45-7.96-16.08q-2.33-5.06-5.94-12.07-11.29-21.95-11.7-22.7-4.57-8.24-16.72-28.64c-9.64-16.19-21.87-34.17-32.31-49.84q-2.23-3.34-3.62-4.97-2.54-2.96-3.68-4.98-1.53-2.73-5.18-6.82c-3.02-3.39-7.92-11.38-12.55-16.26-4.02-4.24-6.82-8.68-11.04-13.86q-6.32-7.75-16.63-20.17-3.29-3.96-12.08-13.26-6.5-6.87-12.24-13.08-18.27-19.78-38.72-38.12c-16.18-14.51-24.76-22.45-37.02-32.24q-18.01-14.37-34.42-26.82-11.74-8.9-34.16-23.9-21.34-14.27-35.93-22.51c-12.11-6.85-21.56-12.74-33.52-19q-17.2-9.01-42-20.88-7.84-3.76-12.43-5.57-8.06-3.18-12.57-5.3-6.33-2.98-18.94-7.67-7.6-2.83-21.07-7.98-18.98-7.28-49.87-16.13-27.45-7.87-48.95-12.86c-18.66-4.34-36.62-7.23-58.53-10.66q-13.99-2.19-37.62-4.69-18.62-1.97-37.79-2.93-39.7-1.98-81.01-.38c-27.25 1.06-52.31 4.16-81.23 7.58-14.03 1.67-24.89 3.92-39.32 6.73q-16.2 3.16-32.48 6.93-3.23.75-9.03 2.31-4.56 1.23-9.02 2.24-4.06.93-6.22 1.73-2.71 1-3.62 1.02a7.909 7.828-55.785 0 0-2.86.56" data-source="https://football-logos.cc"></path><path fill="#0d4d8f" fill-rule="evenodd" d="M669.9 88.63q.91-.02 3.62-1.02 2.16-.8 6.22-1.73 4.46-1.01 9.02-2.24 5.8-1.56 9.03-2.31 16.28-3.77 32.48-6.93c14.43-2.81 25.29-5.06 39.32-6.73 28.92-3.42 53.98-6.52 81.23-7.58q41.31-1.6 81.01.38 19.17.96 37.79 2.93 23.63 2.5 37.62 4.69c21.91 3.43 39.87 6.32 58.53 10.66q21.5 4.99 48.95 12.86 30.89 8.85 49.87 16.13 13.47 5.15 21.07 7.98 12.61 4.69 18.94 7.67 4.51 2.12 12.57 5.3 4.59 1.81 12.43 5.57 24.8 11.87 42 20.88c11.96 6.26 21.41 12.15 33.52 19q14.59 8.24 35.93 22.51 22.42 15 34.16 23.9 16.41 12.45 34.42 26.82c12.26 9.79 20.84 17.73 37.02 32.24q20.45 18.34 38.72 38.12 5.74 6.21 12.24 13.08 8.79 9.3 12.08 13.26 10.31 12.42 16.63 20.17c4.22 5.18 7.02 9.62 11.04 13.86 4.63 4.88 9.53 12.87 12.55 16.26q3.65 4.09 5.18 6.82 1.14 2.02 3.68 4.98 1.39 1.63 3.62 4.97c10.44 15.67 22.67 33.65 32.31 49.84q12.15 20.4 16.72 28.64.41.75 11.7 22.7 3.61 7.01 5.94 12.07c2.59 5.63 5.27 10.19 7.96 16.08q9.31 20.38 12.09 27.43 5.82 14.73 16.92 43.98 2.56 6.74 4.95 14.07c2.14 6.54 4.33 12.74 6.1 18.95q11.04 38.89 13.22 47.81 4.77 19.45 11.19 54.74 3.04 16.72 4.73 31.34 3.24 27.99 3.51 31.49.01.1 2.12 29.15c2.06 28.22 2.13 56.98.73 84.33q-.11 2.15-1.34 23.33-.57 9.74-2.01 23.29-3.19 29.88-8.88 62.69c-.16.92-.49 1.56-.64 2.4q-5.77 33.69-13.6 61.17-1.95 6.84-2.42 9.03-1.13 5.34-2.35 9.02-3.21 9.68-5.75 20.07-1.13 4.65-2.39 7.64c-1.53 3.61-2.03 6.72-3.3 10.17-3.18 8.66-6.1 18.53-10.15 27.89q-2.31 5.33-4.39 10.6c-3.57 9.05-5.14 13.62-8.45 20.86q-2.93 6.42-3.84 10.34a1.555.907-59.248 0 1-.07.2l-11.81 23.74a.884.86 89.204 0 1-.35.37q-.09.05-.21.08a.287.269-89.553 0 0-.2.21q-.61 2.73-.88 3.15c-1.52 2.35-3.54 5.9-4.57 8.68q-1.66 4.45-4.48 8.63a4.802 4.746 73.717 0 0-.47.87q-3.05 7.05-3.82 8.31-4.92 8.14-6.69 12.03c-1.1 2.44-2.41 4.03-3.71 6.25-6.78 11.54-11.86 20.72-18.65 30.73q-.85 1.27-1.55 2.67-1.11 2.25-1.45 2.72-6.16 8.5-9.85 14.4-4.84 7.73-10.79 16.01-5.57 7.76-6.37 9.03-3.31 5.24-6.51 8.94-2.4 2.77-9.17 11.99-2.57 3.5-9.38 11.81-20.19 24.66-31.11 36.66-2.74 3.01-18.74 19.91-10.21 10.78-19.24 19.43-20.64 19.76-42.57 38.33c-9.43 7.99-24.22 20.46-36.05 28.93q-2.89 2.07-4.62 3.54-1.94 1.64-4.62 3.54-28.28 20.06-42.59 29.14-6.53 4.14-25.89 15.83-13.74 8.29-26.38 14.97-16.94 8.94-41.12 20.99-10.91 5.43-20.16 9.24c-10.6 4.36-16.93 7.47-27.31 11.34q-13.19 4.92-19.76 7.47-16.57 6.43-25.83 9.31-19.28 6.01-26.24 8.14-1.16.35-30.43 8.28-17.48 4.73-30.65 7.36-33.72 6.71-60.47 10.58-28.95 4.18-61.81 5.98-9.52.52-30 1.07-34.24.92-68.5-1.04-17.2-.99-41.38-3.39-16.54-1.65-30.83-4.08c-18.33-3.12-34.5-5.38-52.58-9.28q-13.27-2.86-21.7-5.13c-13.04-3.52-24.02-5.94-36.69-10.04q-13.36-4.32-26.4-8.16-4.49-1.32-8.32-2.71-4.11-1.49-8.2-3.04-6.85-2.58-18.5-6.81-10.69-3.87-18.35-7.13-19.55-8.33-21.13-9-13.63-5.83-42.32-20.13-21.36-10.64-39.68-21.46c-6.02-3.56-17.84-10.36-24.49-14.67q-21.16-13.71-43.77-29.38-7.69-5.33-17.11-12.61c-13.72-10.62-19.43-14.91-29.49-23.45-4.63-3.93-11.38-9.26-16.75-14.17q-9.23-8.45-26.69-24.85-10.5-9.87-40.46-41.72-5-5.31-7.29-8.27c-3-3.88-6.6-7.3-9.85-11.32q-10.15-12.61-17.95-22.1-12.22-14.88-24.05-31.18-6.3-8.67-28.03-41.73c-5.98-9.1-11.4-19.4-17.12-28.58-5.98-9.6-10.21-17.86-17.39-31.14q-2.22-4.11-4.19-8.68-1.87-4.32-4.11-8.71-3.16-6.21-5.54-11.23-2.78-5.88-5.18-11.4-4.52-10.4-6.04-13.4-3.29-6.47-5.74-13.47-2.79-7.97-6.63-17.04-1.01-2.38-2.34-6.32-.05-.13-2.36-6.33-5.16-13.79-14.71-43.83-1.5-4.72-8.63-31.86-5-19-7.68-32.1-5.95-29.01-9.56-52.67-4.55-29.74-6.24-51.5c-1.47-18.84-2.9-40.91-3.31-63.59q-.17-9.3.51-25.82 1.46-35.49 3.08-55.08.53-6.44 3.17-29.35.98-8.51 2.55-18.22c2.63-16.37 3.7-24.72 6.63-38.37q1.97-9.19 4.1-20.13c1.14-5.86 3.36-14.71 4.59-19.53q1.24-4.91 2.23-8.27 1.05-3.6 1.73-8.52a.712.706 77.787 0 1 .3-.47q.1-.07.21-.09a.276.272-87.072 0 0 .24-.22q.74-4.07 2.71-10.41.12-.39 2.42-7.99 7.27-24.08 14.24-42.65 7.02-18.68 7.87-20.67 1.18-2.74 1.91-3.89a3.488 3.118 73.797 0 0 .34-.71q1.05-3.1 2.3-7.09.67-2.14 2.85-6.83c1.53-3.29 3.22-7.7 4.51-10.47q7.01-15 11.15-24.2.07-.16.81-1.37.27-.45.71-1.43 6.55-14.75 10.05-20.98 6.43-11.45 7.17-13.21 1.14-2.66 2.35-4.6 1.63-2.63 2.09-4.26a3.097 2.946 70.134 0 1 .36-.82q2.39-3.76 3.15-4.9.86-1.29 2.92-5 4.13-7.42 9.46-17.12 4.02-7.3 10.29-16.59c8.59-12.72 18.79-28.91 29.12-42.91q13.53-18.35 25.35-33.42 4.61-5.87 9.73-11.57c3.95-4.39 8.59-10.33 13.12-15.32q21.89-24.13 37.39-39.49 20.62-20.43 45.32-42.43 13.23-11.78 44.37-35.28 6.75-5.09 9.22-6.98 5.09-3.88 9.41-6.75 23.17-15.42 24.1-16.06 12.42-8.51 24.36-15.67 22.81-13.67 27.92-16.39 27.34-14.58 31.13-16.39 9.43-4.51 18.81-9.19c11.88-5.93 25.52-11.48 38.28-17.02q4.5-1.94 10.22-3.96 5.12-1.8 10.26-3.88.71-.29 2.32-.86 4.62-1.64 10.75-3.55 2.73-.86 6.8-2.48 3.38-1.35 6.89-2.4a3.564 3.528-70.638 0 0 1.09-.53q2.66-1.89 6.33-2.37a1.906 1.703 29.794 0 0 .33-.07l28.47-9.01a2.394 2.203 28.947 0 1 .37-.09q4.27-.67 7.36-1.89a7.909 7.828-55.785 0 1 2.86-.56m752.33 1394.35c32.22-28.97 62.33-60.54 89.44-94.29q33.31-41.47 60.37-86.12 14.32-23.64 22.44-39.07 21.51-40.87 39.16-85.19 3.75-9.42 5.66-14.97c4.46-12.91 8.89-24.71 12.94-37.92q11.68-38.1 19.73-77.44 27.31-133.31 9.31-268.71-3.22-24.25-9.55-55.44-3.73-18.35-8.1-35.19-26.37-101.65-76.76-191.75-11.5-20.57-34.11-55.27-8.31-12.76-20.83-29.42-13.78-18.35-22.13-28.74-26.79-33.36-57.59-63.91-6.9-6.83-15.27-14.74-28.12-26.57-62.51-53.52-30.23-23.71-65.82-45.88-34.36-21.4-66.74-37.51-39.12-19.44-86.82-37.18-16.79-6.25-31.19-10.55c-12.32-3.68-31.61-9.48-45-12.8q-69.88-17.29-140.36-21.52-40.37-2.42-72.99-1.49-51.54 1.47-106.43 9.85-12.04 1.84-31.01 5.76-20.75 4.29-30.79 6.81-30.78 7.71-62.87 18.18-31.5 10.28-67.39 26.11-39.33 17.35-81.84 41.92-36.76 21.24-71.29 46.66c-8.68 6.39-13.87 10.54-22.05 17.02q-25.75 20.42-41.54 35.14-20.15 18.76-26.98 25.51-28.98 28.63-52.98 57.75-11.13 13.51-24.11 30.14-13.15 16.85-31.96 45.54-37.55 57.29-63.54 118.18-1.11 2.61-7.95 18.93c-9.64 22.99-17.66 46.53-24.79 70.63-2.97 10.05-8 26.69-10.91 39.15q-8.83 37.86-13.72 71.13-25.4 172.61 23.04 341.32 16.53 57.58 42.89 114.36 40.6 87.48 99.82 161.19 42.98 53.5 97.16 101.83c14.79 13.19 33.19 27.99 47.89 39.09q105.49 79.73 231.16 121.35c98.88 32.74 204.28 46.23 308.48 38.87q22.42-1.59 42.35-4.29 24.43-3.32 42.09-6.53c55.3-10.06 110.12-26 162.54-47.75q29.5-12.24 43.69-19.29 31.12-15.44 52.24-27.73 52.41-30.48 103.28-70.82 6.53-5.18 16.26-13.54 13.22-11.37 15.98-13.85"></path><path fill="#fff" fill-rule="evenodd" d="M1511.67 1388.69c-27.11 33.75-57.22 65.32-89.44 94.29q-2.76 2.48-15.98 13.85-9.73 8.36-16.26 13.54-50.87 40.34-103.28 70.82-21.12 12.29-52.24 27.73-14.19 7.05-43.69 19.29c-52.42 21.75-107.24 37.69-162.54 47.75q-17.66 3.21-42.09 6.53-19.93 2.7-42.35 4.29c-104.2 7.36-209.6-6.13-308.48-38.87q-125.67-41.62-231.16-121.35c-14.7-11.1-33.1-25.9-47.89-39.09q-54.18-48.33-97.16-101.83-59.22-73.71-99.82-161.19-26.36-56.78-42.89-114.36-48.44-168.71-23.04-341.32 4.89-33.27 13.72-71.13c2.91-12.46 7.94-29.1 10.91-39.15 7.13-24.1 15.15-47.64 24.79-70.63q6.84-16.32 7.95-18.93 25.99-60.89 63.54-118.18 18.81-28.69 31.96-45.54 12.98-16.63 24.11-30.14 24-29.12 52.98-57.75 6.83-6.75 26.98-25.51 15.79-14.72 41.54-35.14c8.18-6.48 13.37-10.63 22.05-17.02q34.53-25.42 71.29-46.66 42.51-24.57 81.84-41.92 35.89-15.83 67.39-26.11 32.09-10.47 62.87-18.18 10.04-2.52 30.79-6.81 18.97-3.92 31.01-5.76 54.89-8.38 106.43-9.85 32.62-.93 72.99 1.49 70.48 4.23 140.36 21.52c13.39 3.32 32.68 9.12 45 12.8q14.4 4.3 31.19 10.55 47.7 17.74 86.82 37.18 32.38 16.11 66.74 37.51 35.59 22.17 65.82 45.88 34.39 26.95 62.51 53.52 8.37 7.91 15.27 14.74 30.8 30.55 57.59 63.91 8.35 10.39 22.13 28.74 12.52 16.66 20.83 29.42 22.61 34.7 34.11 55.27 50.39 90.1 76.76 191.75 4.37 16.84 8.1 35.19 6.33 31.19 9.55 55.44 18 135.4-9.31 268.71-8.05 39.34-19.73 77.44c-4.05 13.21-8.48 25.01-12.94 37.92q-1.91 5.55-5.66 14.97-17.65 44.32-39.16 85.19-8.12 15.43-22.44 39.07-27.06 44.65-60.37 86.12M863.407 188.08a.74.74 38.392 0 1 .723-.756l22.95-.508a.74.74 39.474 0 1 .756.724l.158 7.06a.74.74 82.523 0 0 .756.724l24.68-.548a.74.74 18.121 0 0 .724-.756l-.698-31.56a.74.74 70.613 0 0-.756-.724l-97.59 2.168a.74.74-70.547 0 0-.723.756l.517 22.973a.74.74-10.11 0 0 .743.723l7.735-.042a.74.74 73.289 0 1 .744.724l1.168 52.942a.74.74 44.6 0 1-.724.756l-6.95.148a.74.74 70.923 0 0-.724.756l.508 23.26a.74.74-14.536 0 0 .756.724l97.71-2.158a.74.74-11.369 0 0 .723-.756l-.716-32.02a.74.74-25.306 0 0-.757-.724l-25.949.578a.74.74-53.764 0 0-.724.757l.166 7.128a.74.74 28.967 0 1-.724.757l-22.369.498a.74.74 37.639 0 1-.756-.724l-.348-15.74a.74.74-57.431 0 1 .724-.756l19.86-.438a.74.74-78.081 0 0 .724-.756l-.438-19.64a.74.74-9.543 0 0-.756-.723l-20.04.447a.74.74 23.17 0 1-.757-.724zM982.39 234.5a.659.658 9.04 0 1 .76-.55q10.87 1.92 20.52 3.37c19.92 2.98 43.03-.57 46.78-24.58 1.66-10.62-1.52-22.6-10.6-29.09-9.09-6.49-20.47-9.57-31.25-11.02q-39.48-5.28-65.51-9.34a.281.273-81.044 0 0-.32.24l-3.37 22.92a.617.617 3.891 0 0 .52.7l7.92 1.16a1.213 1.213-67.687 0 1 1.02 1.38l-7.63 51.9a1.123 1.123-81.469 0 1-1.27.94l-7.83-1.15a.732.729-80.271 0 0-.83.59l-4.18 22.62a.9.895 9.612 0 0 .75 1.05l58.88 8.66a.779.778 8.387 0 0 .89-.66l3.24-22.02a1.067 1.064-78.984 0 0-.8-1.19l-9-2.27a.762.761 10.748 0 1-.58-.85zm-310.24-44.94a.358.354 81.752 0 0-.31.42l4.48 22.89a1.214 1.212 78.737 0 0 1.42.95l6.79-1.33a.634.632-11.223 0 1 .75.5l10.03 51.19a.694.692 78.929 0 1-.55.82l-6.83 1.34a1.03 1.03-45 0 0-.81 1.21l4.39 22.42a.765.765-30.18 0 0 .9.6q32.15-6.58 55.72-10.83 7-1.27 11.77-2.79c10.79-3.45 20.36-7.42 27.47-16.32 6.53-8.19 10.37-18.03 10.88-28.56.92-18.97-7.36-38.29-23.3-48.49q-11.32-7.24-26.68-7.29-11-.04-18.81 1.66-27.38 5.95-50.24 10.46-4.03.79-7.07 1.15m392.256 43.97q-4.117 10.948-3.311 22.503c1.657 23.716 17.493 40.114 39.064 48.225s44.289 6.211 61.161-10.538q8.22-8.16 12.337-19.109 4.117-10.948 3.31-22.503c-1.656-23.716-17.493-40.114-39.064-48.225s-44.289-6.211-61.16 10.538q-8.221 8.16-12.337 19.109M596.79 276.5c-2.37-1.37-4.46-3.1-7.3-4.71q-22.7-12.87-31.28-17.67-.87-.49-15.17-7.87-2.56-1.32-3.96-.63-2.83 1.4-42.7 20.54a.157.157-21.894 0 0-.07.21l10.15 20.51a1.504 1.496-24.389 0 0 1.93.72l6.12-2.63a.587.574 64.81 0 1 .75.28l23.68 47.86a.5.5 14.031 0 1-.23.67l-7.52 3.72a.57.57-71.72 0 0-.26.76l10.37 20.96a.42.411 63.133 0 0 .56.19l38.58-19.08a1.06 1.055 63.558 0 0 .47-1.41l-10.19-20.59a1.04 1.04 62.454 0 0-1.39-.47l-7.29 3.61a.86.86-81.953 0 1-1.15-.39l-15.45-31.21a.259.258-88.194 0 1 .36-.34c4.25 2.5 8.62 4.52 12.94 7q30.91 17.75 50.74 28.32 2.6 1.39 6.09-.46 12.89-6.81 26.48-12.97a.878.875-27.218 0 0 .4-1.24c-6.85-11.87-12.53-25.38-18.74-37.15q-8.87-16.83-16.44-32.79a.921.917-25.721 0 1 .43-1.22l6.79-3.36a.64.631 63.64 0 0 .28-.85l-10.28-20.78a.747.747 72.914 0 0-1-.34l-37.08 18.34a.895.89-26.566 0 0-.4 1.19l9.63 19.48a1.722 1.713-26.34 0 0 2.3.77l5.85-2.89a.608.604-26.567 0 1 .82.27l12.53 25.32a.252.25-88.144 0 1-.35.33m628.95 57.55-6.15-3.55a.775.775-51.093 0 1-.28-1.06l7.27-12.6a1.44 1.432-58.079 0 1 2.04-.48q1.37.93 7.51 4.87 2.24 1.43 2.03 4.55-1.15 17.49-1.79 44.48a1.217 1.21 15.547 0 0 .62 1.09l30.89 17.84a1.075 1.07-59.821 0 0 1.46-.39l11.39-19.74a.695.695-77.181 0 0-.25-.95l-5.94-3.43a1.493 1.484 15 0 1-.75-1.29l-.13-26.19a1.001.991 89.114 0 1 .96-1c13.09-.53 22.48-6.75 27.02-19.53 3.41-9.59 1.37-19.9-4.52-28.09-4.6-6.4-14.03-12.36-20.96-16.51q-57.19-34.26-57.27-34.35a.846.843-52.619 0 0-1.33.18l-11.6 20.37a.667.659-60.905 0 0 .25.9l5.28 3.06a1.214 1.209-60.284 0 1 .45 1.66l-26.49 45.88a.98.98 7.158 0 1-1.34.36l-6.36-3.68a1.075 1.067 29.811 0 0-1.46.39l-11.56 20.03a.717.717 1.472 0 0 .26.98l48.46 27.98a.453.444 29.742 0 0 .61-.16l11.94-20.68a.698.685 30.108 0 0-.26-.94m-815.37-15.973a.5.5-28.81 0 0 .802.347l14.7-11.278a.5.5-15.51 0 0 .18-.275l9.218-36.708a.5.5 56.563 0 0-.774-.53l-26.829 19.039a.5.5-39.644 0 0-.208.457zm15.968-3.836c-6.748 5.026-12.44 10.745-17.1 18.003-11.908 18.545-10.328 42.27 2.709 59.775s35.316 25.813 56.495 19.716c8.288-2.386 15.398-6.201 22.146-11.227s12.439-10.744 17.1-18.002c11.907-18.545 10.328-42.27-2.709-59.775-13.038-17.505-35.316-25.814-56.495-19.717-8.289 2.386-15.398 6.201-22.146 11.227m948.902 62.819 7.18 6.19a.639.635 39.933 0 1 .08.87l-10.52 13.6a.251.249-51.917 0 0 .04.34l14.48 12.5a.914.908 40.365 0 0 1.29-.1l26.61-30.83a.811.806 43.614 0 0-.03-1.08q-1.29-1.36-2.76-2.62-31.65-27.26-73.06-62.73-2.72-2.34-3.27-2.39a1.476 1.448 21.489 0 0-1.25.53l-25.89 32.04a.775.775 1.497 0 0 .11 1.09l14.98 12.1a.866.861-50.061 0 0 1.2-.11l11.07-12.83a.305.305 76.644 0 1 .43-.03l7.45 6.42a.595.595 84.788 0 1 .06.84l-34.21 39.66a.752.745-49.104 0 1-1.05.08l-5.5-4.75a1.226 1.212 40.678 0 0-1.72.12l-15.53 18a.348.341 40.95 0 0 .04.49l44 37.96a.985.978 40.696 0 0 1.39-.1l15.16-17.58a.433.433-8.715 0 0-.05-.61l-6.66-5.75a.802.795 40.642 0 1-.09-1.12l34.59-40.09a1.014 1.014 77.326 0 1 1.43-.11m-506.948-62.48c-52.269 1.652-103.514 9.901-152.766 25.534q-25.716 8.156-44.596 15.836C496.89 426.7 364.55 583.74 326.11 768.28q-24.25 116.4-1.26 230.45c19.06 94.59 61.49 182.33 123.85 256.29q28.97 34.36 67.04 67.05c45.01 38.66 96.86 69.95 151.01 92.68q72.41 30.39 152.24 40.06 31.28 3.79 64.259 4.048 12.896.103 21.206-.159 8.31-.263 21.174-1.18 32.897-2.341 63.875-8.099 79.06-14.692 149.406-49.594c52.607-26.105 102.377-60.607 144.856-102.032q35.929-35.029 62.672-71.15c57.564-77.75 94.369-167.995 107.417-263.6q15.741-115.274-15.811-229.91c-50.018-181.744-192.011-330.113-370.172-389.731q-19.327-6.472-45.507-12.988c-50.141-12.491-101.805-17.487-154.073-15.835M349.19 422.4l37.85 37.07a.622.615-45.969 0 1 .01.88l-5.84 5.97a.37.37 0 0 0 0 .52l16.52 16.17a.877.87 44.311 0 0 1.24-.01l40.37-41.21a.74.74 39.62 0 0-.01-1.05l-16.28-15.94a1.07 1.07-9.322 0 0-1.51.01l-5.78 5.89a.806.806 84.121 0 1-1.14.02l-38.06-37.29a.952.949-47.729 0 1-.06-1.3l5.2-6.02a.775.765-47.551 0 0-.04-1.05l-16.37-16.04a1.166 1.163-47.606 0 0-1.7.08q-4.42 5.28-7.77 8.73-10.35 10.66-32.24 33.3a.772.764 45.837 0 0-.01 1.06q7.71 8.29 17.35 15.96a1.087 1.08 41.259 0 0 1.45-.09l5.54-5.65a.905.898 44.332 0 1 1.28-.01m1042.39 84.88 17.8-16.19a.808.801-44.279 0 0 .02-1.17l-5.34-5.24a1.128 1.12-44.149 0 1 .03-1.64l38.03-34.59a.759.758-43.865 0 1 1.04.02l6.14 6.02a.326.319 45.651 0 0 .44.01l18.06-16.43a.326.318 48.223 0 0 .02-.45l-37.98-42.82a.864.857-41.497 0 0-1.22-.07l-17.2 15.25a1.183 1.176-41.753 0 0-.1 1.67l4.84 5.46a1.381 1.374-42.161 0 1-.1 1.93c-12.67 11.6-24.67 22.96-37.17 33.38q-2.03 1.69-3.87-.19-1.63-1.67-4.18-4.52a.517.51 47.729 0 0-.73-.04l-17.49 15.51a1.007.999-41.586 0 0-.09 1.42l37.79 42.61a.892.885-41.608 0 0 1.26.07M293.89 522.26a.31.308-26.458 0 1 .19-.56l73.2 2.18a1.341 1.322 18.447 0 0 1.12-.55l19.18-26.9a1.45 1.45 12.888 0 0-.34-2.02l-62.63-44.66a.488.48-55.649 0 1-.12-.67l4.78-6.91a.683.677 34.994 0 0-.17-.94l-19.11-13.63a.444.436 35.151 0 0-.61.1l-24.76 33.45a1.18 1.18 58.526 0 0 .25 1.65l17.95 13.28a.72.72-45 0 0 1.01-.15l4.63-6.26a.731.72 36.051 0 1 1-.15l23.1 16.46a.41.408-25.758 0 1-.26.74q-30.54-1.32-61.05-1.79-3.06-.04-3.45.16a2.118 2.095 3.891 0 0-.73.63L240.5 523.4a1.054 1.054-30.604 0 0 .25 1.47l17.83 12.71a1.038 1.028 35.962 0 0 1.43-.22l4.1-5.55a.708.702-53.458 0 1 .98-.15l42.69 31.59a.478.472-53.839 0 1 .1.67l-4.17 5.63a1.294 1.294-49.787 0 0 .27 1.81l18.67 13.81a1.123 1.121 35.682 0 0 1.59-.26l23.68-34.29a.835.832-55.438 0 0-.21-1.15l-18.54-13.23a.716.704-53.785 0 0-.98.16l-4.62 6.25a.644.638-53.671 0 1-.89.14zm1207.49 6.287a.69.69 13.919 0 1-.434 1.044l-40.59 8.892a.69.69 50.913 0 1-.694-1.096l25.349-32.771a.69.69 88.875 0 1 1.108.023l3.452 4.859a.69.69 45.739 0 0 .961.163l18.676-13.259a.69.69 89.822 0 0 .171-.951l-30.043-44.07a.69.69-35.381 0 0-.969-.174l-19.773 14.034a.69.69-28.245 0 0-.183.932l3.551 5.591a.69.69 85.337 0 1-.006.748l-45.814 70.012a.69.69 11.743 0 0 .008.767l17.054 25.023a.69.69 62.121 0 0 .703.289l80.935-15.857a.69.69-80.937 0 1 .696.278l4.79 6.754a.69.69 41.117 0 0 .952.17l20.748-14.145a.69.69-9.255 0 0 .187-.95l-24.149-36.579a.69.69-30.977 0 0-.965-.189l-19.489 13.289a.69.69 76.587 0 0-.194.94zM228.8 544.91l-16.99 36.17a.672.671-64.423 0 0 .31.88l19.74 9.82a.95.95-5.468 0 0 1.27-.43l2.17-4.36a.865.864 25.312 0 1 1.12-.4q19.15 8.53 39.8 19.41c5.46 2.87 8.83 8.3 6.08 14.53-4.82 10.95-15.61 5.17-22.98 1.65q-25.46-12.16-31.73-15.3a.94.94 64.53 0 1-.42-1.26l1.54-3.09a.806.805 25.791 0 0-.38-1.09l-20.8-9.77a1.248 1.244-64.885 0 0-1.65.6l-21.27 45.29a1.27 1.27 24.466 0 0 .61 1.69l19.84 9.32a.953.948 25.607 0 0 1.26-.44l2.43-4.89a.843.842 25.277 0 1 1.09-.39q14.75 6.64 29.71 14.07c12.05 5.97 24.69 10.37 36.86 6.2 15.21-5.22 25.42-21.3 29.97-36.05 6.13-19.92-1.46-36.35-19.99-45.23q-30.04-14.4-34.44-16.54-1.29-.62-3.03-1.65a.719.717 28.476 0 1-.28-.94l2.98-5.99a1.03 1.03 16.496 0 0-.46-1.38l-21.54-10.72a.617.608-64.059 0 0-.82.29m1273.92 105.72-4.37-6.87a.884.877-28.362 0 0-1.12-.33l-19.24 8.9a.613.609-25.125 0 0-.3.82l22.08 45.92a1.091 1.088-22.392 0 0 1.35.56q11.31-3.95 21.28-9.01a.75.75 63.962 0 0 .34-.99l-2.93-6.08a.999.99 57.591 0 1 .26-1.19q7.51-6.26 14.51-13.53 12.03-12.49 24.99-24.93a.818.817 55.759 0 1 1.31.25l2.34 5.07a.747.743-25.546 0 0 1 .35l20.86-10.03a1.633 1.624 64.876 0 0 .77-2.15l-28.77-62.23a1.157 1.151 66.728 0 0-1.47-.59l-22.02 8.73a.767.763 68.404 0 0-.43 1l2.44 6.18a.785.777 76.979 0 1-.66 1.07l-53.86 4.19a.844.835 71.857 0 1-.78-.4l-3.3-5.18a.726.725 63.219 0 0-.88-.29l-21.35 8.47a.273.27 68.003 0 0-.15.36l15.96 37.23a.896.892-23.158 0 0 1.18.47l19.53-8.37a.873.869 66.929 0 0 .46-1.15l-2.78-6.49a.331.327 75.754 0 1 .27-.46l9.97-.77a1.165 1.16 75.327 0 1 1.14.67l10.41 22.52a1.581 1.569-33.724 0 1-.37 1.82l-7.17 6.53a.332.33 52.846 0 1-.5-.07m-162.059 826.775a.84.84-60.538 0 0 .246-1.152l-18.678-29.401a.84.84 67.458 0 0-1.172-.251l-23.678 15.644a.84.84-21.558 0 0-.246 1.151l4.204 6.617a.84.84-79.223 0 1-.246 1.152l-21.64 14.292a.84.84-77.67 0 1-1.164-.238l-9.371-14.188a.84.84 88.74 0 1 .228-1.157l17.584-11.996a.84.84-74.286 0 0 .236-1.144l-11.205-17.623a.84.84 37.115 0 0-1.172-.25l-18.584 12.268a.84.84 8.855 0 1-1.171-.251l-8.729-13.741a.84.84-89.327 0 1 .246-1.152l21.36-14.099a.84.84-9.999 0 1 1.157.228l4.731 6.942a.84.84-41.868 0 0 1.167.221l22.422-15.281a.84.84 79.584 0 0 .228-1.157l-19.041-28.828a.84.84-50.129 0 0-1.164-.238l-88.558 58.484a.84.84 77.348 0 0-.238 1.164l13.502 20.44a.84.84-82.944 0 0 1.152.247l6.366-4.045a.84.84 6.225 0 1 1.152.246l32.204 48.778a.84.84 4.695 0 1-.25 1.172l-7.111 4.521a.84.84-63.356 0 0-.258 1.159l13.472 21.209a.84.84 54.87 0 0 1.171.251zm-867.047 29.765c18.044 11.2 38.554 14.853 58.063 6.658 15.083-6.338 27.033-20.048 32.163-35.738 5.51-16.87 2.75-35.12-7.472-49.7-5.701-8.13-13.13-14.596-21.549-19.822s-17.511-9.015-27.326-10.516c-17.602-2.691-35.182 2.934-47.855 15.358-11.784 11.559-18.768 28.352-17.755 44.681 1.313 21.119 13.687 37.878 31.731 49.079m157.266-13.59 4.92 1.24a.941.94 18.207 0 0 1.09-.55l9.24-22.12a.888.884 22.47 0 0-.48-1.15l-52.17-21.77a.726.726 11.345 0 0-.95.39l-9.34 22.4a.882.879-67.181 0 0 .47 1.16l6.53 2.72a.336.336 59.187 0 1 .18.44q-13.75 33.24-16.46 39.86c-5.88 14.39-6.34 31.77 4.37 44.08 10.7 12.31 29.15 20.74 45.16 21.8 18 1.19 31.37-9.52 38.44-25.47q9.1-20.52 17.35-42.47a.934.931 20.841 0 1 1.21-.54l7.83 3.06a.88.88 21.164 0 0 1.14-.5l9.19-23.5a.24.24-66.114 0 0-.13-.31l-40.87-17.06a.533.52 21.505 0 0-.69.29l-8.94 22.87a1.291 1.289 22.183 0 0 .7 1.66l3.99 1.66a1.081 1.07 22.161 0 1 .59 1.38q-8.55 22.01-15.38 37.98c-3.26 7.63-7.54 16.77-16.7 14.99q-6.14-1.19-8.5-5.84c-3.56-7.02-.81-13.14 2.53-21.04q5.88-13.9 14.92-35.28a.66.66-41.126 0 1 .76-.38m528.82 77.81c17.42 4.88 42.37-4.93 50.29-21.68 6.89-14.58 3.49-30.84-8.55-41.14-8.32-7.11-19.63-8.73-31.19-9.15q-15.51-.57-22-.71c-4.86-.11-12.27-1.04-12.1-7.4.17-5.84 8.23-8.37 13.05-8.6q8.1-.4 13.63 5.44a1.974 1.97 56.649 0 0 2.22.46l21.97-9.41a.766.756 66.653 0 0 .39-1l-12.11-28.24a.789.78 66.85 0 0-1.03-.42l-22.86 9.8a.466.462-22.622 0 0-.25.6l1.78 4.48a.491.489-5.311 0 1-.55.66q-12.02-2.33-22.35 1.92c-7.89 3.24-16.48 8.31-21.29 15.7q-11.36 17.46-1.49 34.87c3.72 6.57 10.15 11.53 16.82 13.35q8.59 2.36 14.69 2.5 16.66.38 26.18 1.2c5.67.49 12.36 2.98 11.73 9.35-.58 5.79-7.18 8.65-12.49 8.61q-9.39-.08-15.48-7.85a.918.902 60.071 0 0-1.04-.29l-23.58 9.35a1.153 1.15 68.519 0 0-.65 1.5l12.48 31.5a1.491 1.486 68.305 0 0 1.94.84l22.8-9.03a.915.915-18.531 0 0 .51-1.19l-2.1-5.32a.525.524-3.09 0 1 .63-.7m-97.53-16.48-51.71-48.16a.875.866 60.661 0 0-.77-.22l-51.46 10.08a.881.877 78.438 0 0-.69 1.05l5.2 23.71a.91.908 78.127 0 0 1.07.7l7.93-1.55a.704.704-16.37 0 1 .83.55l11.23 57.31a.743.743-43.412 0 1-.59.87l-8.15 1.6a.835.835-10.145 0 0-.66.98l4.8 24.47a.52.52 5.589 0 0 .61.41l45.02-8.82a1.2 1.2 44.327 0 0 .95-1.41l-4.73-24.13a.934.928-11.722 0 0-1.12-.73l-8.81 1.93a.43.43-68.684 0 1-.51-.33q-4.39-20.58-7.9-38.42-.12-.59-.14-.82a.293.288 19.421 0 1 .49-.23l60.17 56.03a1.742 1.73 60.948 0 0 1.52.44l35.07-6.88a1.005.999 78.524 0 0 .79-1.2l-18.34-83.73a.84.84 38.807 0 1 .64-1l7.7-1.68a.777.767-12.689 0 0 .59-.92l-5.37-24.54a.718.708-12.179 0 0-.85-.54l-42.96 9.41a1.136 1.124-12.613 0 0-.86 1.34l5.23 23.89a.724.718-11.547 0 0 .84.55l8.11-1.59a.665.661 78.338 0 1 .77.51l6.72 30.69a.4.399-74.838 0 1-.66.38m-356.02-60.56-6.09 24.22a.609.599-76.542 0 0 .44.73l8.04 2.02a.825.818 13.514 0 1 .6.97l-11.99 56.78a.93.93 50.929 0 1-1.1.72l-7.41-1.56a1.265 1.257-77.985 0 0-1.5.98l-5.08 24.03a.716.714 11.868 0 0 .55.84l58.87 12.43a.786.786 50.862 0 0 .93-.61l5.15-24.38a.687.685-77.962 0 0-.53-.82l-8.14-1.72a.59.59 46.612 0 1-.46-.7l3.68-17.41a.797.793-78.833 0 1 .92-.62l11.24 2.08a3.149 3.136 86.385 0 1 2.43 2.15l14.57 46.84a1.837 1.833 86.526 0 0 1.42 1.26l38.89 7.19a.828.822-78.757 0 0 .95-.64l5.19-24.61a.79.79 21.391 0 0-.6-.94l-7.28-1.53a.843.839-3.95 0 1-.6-.52l-10.58-26.68a.735.733-19.7 0 1 .46-.97q9.21-2.92 14.73-10.75c10.96-15.55 6.37-37.67-10.77-46.7-7.76-4.09-16.6-6.01-25.03-7.79q-9.13-1.93-14.27-2.88-34.34-6.33-57.41-11.55a.184.184 73.56 0 0-.22.14m183.942 50.23a.49.49-45.25 0 1 .488-.492l26.85-.135a.49.49 38.286 0 1 .493.487l.044 8.56a.49.49-11.322 0 0 .493.487l27.95-.144a.49.49 80.135 0 0 .488-.493l-.176-34.82a.49.49 77.723 0 0-.492-.488l-107.53.526a.49.49-25.491 0 0-.488.492l.116 25a.49.49 7.247 0 0 .492.487l8.18-.044a.49.49 38.411 0 1 .492.487l.286 59.34a.49.49 35.708 0 1-.488.493l-8.67.044a.49.49 47.813 0 0-.488.493l.126 25.3a.49.49-76.462 0 0 .492.488l108.56-.536a.49.49 48.762 0 0 .488-.492l-.176-35.66a.49.49.629 0 0-.492-.488l-28.96.146a.49.49 60.012 0 0-.488.492l.046 9.03a.49.49 26.593 0 1-.488.492l-26.57.126a.49.49-54.135 0 1-.492-.488l-.086-18.23a.49.49-80.745 0 1 .488-.492l22.14-.106a.49.49-75.991 0 0 .488-.492l-.106-21.74a.49.49-1.97 0 0-.492-.488l-21.94.106a.49.49 36.4 0 1-.493-.488z"></path><path fill="#0d4d8f" fill-rule="evenodd" d="m863.407 188.08.326 14.55a.74.74-5.09 0 0 .757.724l20.04-.447a.74.74 28.877 0 1 .756.723l.438 19.64a.74.74-56.174 0 1-.724.756l-19.86.438a.74.74 89.306 0 0-.724.756l.348 15.74a.74.74-26.356 0 0 .756.724l22.369-.498a.74.74 3.697 0 0 .724-.757l-.166-7.128a.74.74-47.785 0 1 .724-.757l25.949-.578a.74.74 31.081 0 1 .757.724l.716 32.02a.74.74 25.926 0 1-.723.756l-97.71 2.158a.74.74 31.471 0 1-.756-.724l-.508-23.26a.74.74-78.215 0 1 .724-.756l6.95-.148a.74.74 50.155 0 0 .724-.756l-1.168-52.942a.74.74-79.309 0 0-.744-.724l-7.735.042a.74.74 30.613 0 1-.743-.723l-.517-22.973a.74.74-52.858 0 1 .723-.756l97.59-2.168a.74.74-53.933 0 1 .756.724l.698 31.56a.74.74 37.836 0 1-.724.756l-24.68.548a.74.74-56.623 0 1-.756-.724l-.158-7.06a.74.74-36.504 0 0-.756-.724l-22.95.508a.74.74 8.549 0 0-.723.756M982.39 234.5l-1.89 12.81a.762.761 10.748 0 0 .58.85l9 2.27a1.067 1.064-78.984 0 1 .8 1.19l-3.24 22.02a.779.778 8.387 0 1-.89.66l-58.88-8.66a.9.895 9.612 0 1-.75-1.05l4.18-22.62a.732.729-80.271 0 1 .83-.59l7.83 1.15a1.123 1.123-81.469 0 0 1.27-.94l7.63-51.9a1.213 1.213 81.127 0 0-1.02-1.38l-7.92-1.16a.617.617 44.299 0 1-.52-.7l3.37-22.92a.281.273-81.044 0 1 .32-.24q26.03 4.06 65.51 9.34c10.78 1.45 22.16 4.53 31.25 11.02 9.08 6.49 12.26 18.47 10.6 29.09-3.75 24.01-26.86 27.56-46.78 24.58q-9.65-1.45-20.52-3.37a.659.658 9.04 0 0-.76.55m5.873-41.482-2.72 17.773a.66.66-22.884 0 0 .553.752l11.338 1.735a10.95 9.11 8.7 0 0 12.202-7.349l.163-1.067a10.95 9.11 8.7 0 0-9.446-10.662l-11.338-1.735a.66.66-72.914 0 0-.752.553M672.15 189.56q3.04-.36 7.07-1.15 22.86-4.51 50.24-10.46 7.81-1.7 18.81-1.66 15.36.05 26.68 7.29c15.94 10.2 24.22 29.52 23.3 48.49-.51 10.53-4.35 20.37-10.88 28.56-7.11 8.9-16.68 12.87-27.47 16.32q-4.77 1.52-11.77 2.79-23.57 4.25-55.72 10.83a.765.765 20.422 0 1-.9-.6l-4.39-22.42a1.03 1.03 45 0 1 .81-1.21l6.83-1.34a.694.692 78.929 0 0 .55-.82l-10.03-51.19a.634.632-11.223 0 0-.75-.5l-6.79 1.33a1.214 1.212 78.737 0 1-1.42-.95l-4.48-22.89a.358.354 81.752 0 1 .31-.42m51.55 15.422 10.201 51.051a.94.94 71.069 0 0 1.106.737l6.953-1.389a21.23 18.89 78.7 0 0 14.364-24.52l-2.25-11.257a21.23 18.89 78.7 0 0-22.683-17.117l-6.953 1.389a.94.94 89.199 0 0-.738 1.106"></path><path fill="#fff" fill-rule="evenodd" d="M988.263 193.018a.66.66-45.065 0 1 .752-.553l11.338 1.735a10.95 9.11 8.7 0 1 9.446 10.662l-.163 1.067a10.95 9.11 8.7 0 1-12.202 7.349l-11.338-1.735a.66.66 41.09 0 1-.553-.752z"></path><path fill="#0d4d8f" fill-rule="evenodd" d="M1137.903 203.883c21.571 8.111 37.408 24.509 39.064 48.225q.807 11.555-3.31 22.503t-12.337 19.109c-16.872 16.749-39.589 18.65-61.161 10.538-21.571-8.111-37.407-24.509-39.064-48.225q-.806-11.555 3.311-22.503 4.116-10.949 12.337-19.109c16.871-16.749 39.589-18.65 61.16-10.538m-9.287 21.978c-13.214-4.629-19.885 14.042-23.112 23.256-3.228 9.215-9.666 27.967 3.548 32.596 13.218 4.63 19.889-14.041 23.117-23.255 3.227-9.215 9.665-27.967-3.553-32.597"></path><path fill="#fff" fill-rule="evenodd" d="M723.7 204.982a.94.94 78.859 0 1 .738-1.106l6.953-1.389a21.23 18.89 78.7 0 1 22.683 17.117l2.25 11.257a21.23 18.89 78.7 0 1-14.364 24.52l-6.953 1.389a.94.94 71.034 0 1-1.106-.737z"></path><path fill="#0d4d8f" fill-rule="evenodd" d="M596.79 276.5a.252.25-88.144 0 0 .35-.33l-12.53-25.32a.608.604-26.567 0 0-.82-.27l-5.85 2.89a1.722 1.713-26.34 0 1-2.3-.77l-9.63-19.48a.895.89-26.566 0 1 .4-1.19l37.08-18.34a.747.747-85.442 0 1 1 .34l10.28 20.78a.64.631 63.64 0 1-.28.85l-6.79 3.36a.921.917-25.721 0 0-.43 1.22q7.57 15.96 16.44 32.79c6.21 11.77 11.89 25.28 18.74 37.15a.878.875-27.218 0 1-.4 1.24q-13.59 6.16-26.48 12.97-3.49 1.85-6.09.46-19.83-10.57-50.74-28.32c-4.32-2.48-8.69-4.5-12.94-7a.259.258-88.194 0 0-.36.34l15.45 31.21a.86.86 62.459 0 0 1.15.39l7.29-3.61a1.04 1.04-82.005 0 1 1.39.47l10.19 20.59a1.06 1.055 63.558 0 1-.47 1.41l-38.58 19.08a.42.411 63.133 0 1-.56-.19l-10.37-20.96a.57.57-71.26 0 1 .26-.76l7.52-3.72a.5.5-30.812 0 0 .23-.67l-23.68-47.86a.587.574 64.81 0 0-.75-.28l-6.12 2.63a1.504 1.496-24.389 0 1-1.93-.72l-10.15-20.51a.157.157 9.662 0 1 .07-.21q39.87-19.14 42.7-20.54 1.4-.69 3.96.63 14.3 7.38 15.17 7.87 8.58 4.8 31.28 17.67c2.84 1.61 4.93 3.34 7.3 4.71"></path><path fill="#fff" fill-rule="evenodd" d="M1128.616 225.861c13.218 4.63 6.78 23.382 3.553 32.597s-9.899 27.885-23.117 23.255c-13.214-4.629-6.776-23.381-3.548-32.596s9.898-27.885 23.112-23.256"></path><path fill="#0d4d8f" fill-rule="evenodd" d="m1226 334.99-11.94 20.68a.453.444 29.742 0 1-.61.16l-48.46-27.98a.717.717 49.918 0 1-.26-.98l11.56-20.03a1.075 1.067 29.811 0 1 1.46-.39l6.36 3.68a.98.98 24.191 0 0 1.34-.36l26.49-45.88a1.214 1.209-60.284 0 0-.45-1.66l-5.28-3.06a.667.659-60.905 0 1-.25-.9l11.6-20.37a.846.843-52.619 0 1 1.33-.18q.08.09 57.27 34.35c6.93 4.15 16.36 10.11 20.96 16.51 5.89 8.19 7.93 18.5 4.52 28.09-4.54 12.78-13.93 19-27.02 19.53a1.001.991 89.114 0 0-.96 1l.13 26.19a1.493 1.484 15 0 0 .75 1.29l5.94 3.43a.695.695-38.986 0 1 .25.95l-11.39 19.74a1.075 1.07-59.821 0 1-1.46.39l-30.89-17.84a1.217 1.21 15.547 0 1-.62-1.09q.64-26.99 1.79-44.48.21-3.12-2.03-4.55-6.14-3.94-7.51-4.87a1.44 1.432-58.079 0 0-2.04.48l-7.27 12.6a.775.775-83.328 0 0 .28 1.06l6.15 3.55a.698.685 30.108 0 1 .26.94m20.76-52.244-8.531 14.426a1.28 1.28 82.917 0 0 .45 1.754l10.32 6.103a11.21 9.46 30.6 0 0 14.465-2.436l.203-.344a11.21 9.46 30.6 0 0-4.833-13.849l-10.32-6.104a1.28 1.28-59.666 0 0-1.754.45M410.37 318.077l-2.911-28.948a.5.5-1.186 0 1 .208-.457l26.829-19.039a.5.5-63.937 0 1 .774.53l-9.218 36.708a.5.5 29.829 0 1-.18.275l-14.7 11.278a.5.5 11.37 0 1-.802-.347"></path><path fill="#fff" fill-rule="evenodd" d="M1246.76 282.746a1.28 1.28-26.445 0 1 1.754-.45l10.32 6.104a11.21 9.46 30.6 0 1 4.833 13.849l-.203.344a11.21 9.46 30.6 0 1-14.465 2.436l-10.32-6.103a1.28 1.28 83.211 0 1-.45-1.754z"></path><path fill="#0d4d8f" fill-rule="evenodd" d="M504.979 322.731c13.037 17.505 14.616 41.23 2.709 59.775-4.661 7.258-10.352 12.976-17.1 18.002s-13.858 8.841-22.146 11.227c-21.179 6.097-43.458-2.212-56.495-19.716s-14.617-41.23-2.709-59.775c4.66-7.258 10.352-12.977 17.1-18.003s13.857-8.841 22.146-11.227c21.179-6.097 43.457 2.212 56.495 19.717m-63.951 11.045c-11.172 8.165.292 24.057 5.985 31.848 5.694 7.79 17.354 23.538 28.526 15.373 11.175-8.168-.288-24.059-5.982-31.85-5.693-7.79-17.354-23.538-28.529-15.371M1375.24 377.06a1.014 1.014 38.754 0 0-1.43.11l-34.59 40.09a.802.795 40.642 0 0 .09 1.12l6.66 5.75a.433.433-7.691 0 1 .05.61l-15.16 17.58a.985.978 40.696 0 1-1.39.1l-44-37.96a.348.341 40.95 0 1-.04-.49l15.53-18a1.226 1.212 40.678 0 1 1.72-.12l5.5 4.75a.752.745-49.104 0 0 1.05-.08l34.21-39.66a.595.595 83.814 0 0-.06-.84l-7.45-6.42a.305.305 39.559 0 0-.43.03l-11.07 12.83a.866.861-50.061 0 1-1.2.11l-14.98-12.1a.775.775 81.388 0 1-.11-1.09l25.89-32.04a1.476 1.448 21.489 0 1 1.25-.53q.55.05 3.27 2.39 41.41 35.47 73.06 62.73 1.47 1.26 2.76 2.62a.811.806 43.614 0 1 .03 1.08l-26.61 30.83a.914.908 40.365 0 1-1.29.1l-14.48-12.5a.251.249-51.917 0 1-.04-.34l10.52-13.6a.639.635 39.933 0 0-.08-.87z"></path><path fill="#b81218" fill-rule="evenodd" d="M904.455 1458.699q-8.31.262-21.206.159-32.979-.258-64.259-4.048-79.83-9.67-152.24-40.06c-54.15-22.73-106-54.02-151.01-92.68q-38.07-32.69-67.04-67.05c-62.36-73.96-104.79-161.7-123.85-256.29q-22.99-114.05 1.26-230.45c38.44-184.54 170.78-341.58 344.82-412.33q18.88-7.68 44.596-15.836c49.252-15.633 100.497-23.882 152.766-25.534s103.932 3.344 154.073 15.835q26.18 6.516 45.507 12.988c178.161 59.618 320.154 207.987 370.172 389.731q31.552 114.636 15.811 229.91c-13.048 95.605-49.853 185.85-107.417 263.6q-26.743 36.121-62.672 71.15c-42.479 41.425-92.249 75.927-144.856 102.032q-70.346 34.902-149.406 49.594-30.978 5.758-63.875 8.099-12.864.917-21.174 1.18M691.15 1399.89q13.53 4.72 26.7 9.15c8.09 2.71 13.94 4.14 21.56 6.55q5.99 1.89 16.31 4.42 26.97 6.6 57.09 10.71 46.85 6.4 92.74 4.59 31.69-1.25 69.52-6.54c6.66-.93 13.65-2.77 20.29-3.89q5.77-.98 15.14-3.25 25.43-6.16 47.55-13.62 4.1-1.39 21.53-7.75 12.44-4.54 21.23-8.48 17.36-7.8 33.35-15.52 10.49-5.07 17.03-8.85 14.63-8.43 16.6-9.63 9.86-5.97 24.12-15.26 6.16-4.02 10.16-7.12c2.92-2.26 6.5-4.28 9.71-6.77q26.69-20.7 40.19-32.92 20.63-18.67 38.16-37.84 13.64-14.91 14.22-15.5 2.88-2.97 7.46-9.02 2.27-3 7.43-9.08 1.35-1.59 4.8-6.44 2.41-3.38 4.79-6.44 14.28-18.29 26-38.83c1.55-2.73 3.9-5.48 5.46-8.46q5.76-10.96 8.67-16.17 6.45-11.54 8.59-16.19 4.26-9.26 7.16-14.78 3.14-5.99 6.65-14.98 5.63-14.4 7.97-20.06 2.89-6.98 6.5-17.94 3.16-9.62 5.94-18.15 3.26-10.01 5.7-19.53 4.47-17.49 4.9-19.73 2.87-15.15 3.84-19.75c2.6-12.29 4.81-27.59 5.95-37.09q5.04-42.04 3.42-80.73-1.48-35.13-7.24-72.49c-1.82-11.83-5.36-27.96-7.58-37.75-3.23-14.25-8.3-31.46-13.6-47.13q-4.05-11.98-5.73-16.31-13.72-35.25-27.38-61.37-13.23-25.3-32.63-54.53-13.28-20-27.59-37.24-16.59-19.99-30.73-34.74-23.01-24.03-50.97-47.46c-9.39-7.87-17.08-13.2-28.97-22.12-5.63-4.22-11.46-7.29-16.61-11.07q-4.64-3.41-12.66-8.23-16.77-10.06-18.42-10.98-14.71-8.13-36.35-18.68-11.67-5.69-23.77-10.42-22.41-8.77-24.19-9.41-31.64-11.35-64.44-18.84c-6.73-1.53-13.8-2.65-19.57-3.86q-7.97-1.67-14.71-2.7-44.63-6.83-91.19-6.56-13.42.08-28.37 1.17-19.24 1.4-28.32 2.33-2.48.25-23.21 3.07-13.05 1.77-23.1 3.81-24.63 5.01-43.9 10.66c-29.25 8.58-59.58 19.87-87.66 33.95q-22.4 11.22-27.48 14.11c-10.8 6.13-25.72 15.94-41.14 25.72-8.3 5.27-16.51 12.05-23.63 17.18-7.35 5.3-16.79 12.99-22.45 18.14q-4.84 4.4-8.02 7-4.68 3.82-28.74 27.39c-5.1 5-8.45 8.94-13.84 14.51q-1.72 1.79-17.45 19.79-6.21 7.09-26.72 34.85c-4.89 6.6-7.82 11.94-12.17 18.35q-3.84 5.66-8.74 13.98c-5.75 9.78-12.05 18.98-16.93 29.24q-7.24 15.2-8.16 16.87-2.63 4.79-5.9 12.46-1.94 4.55-3.3 7.2-2.65 5.19-3.44 7.11-4.78 11.57-9.85 26.32-6.39 18.56-7.29 21.33-3.77 11.53-6.37 21.63c-5.28 20.44-10.48 44.53-13.47 67.87q-4.19 32.84-4.95 66.85-.58 26.1 1.7 51.26 4.93 54.51 19.83 107.37 3.74 13.25 15.57 45.65 1.28 3.5 7.32 17.02c2.73 6.1 4.17 10.92 6.85 15.63q2.22 3.89 5.66 11.46 4 8.79 8.79 17.74 11.82 22.06 26.18 43.33 7.29 10.82 11.29 16.46 9.11 12.83 28.41 36.09 15.28 18.41 39.6 41.65 17.9 17.11 30.75 27.35 9.63 7.68 15.52 12.42 5.37 4.33 15.97 11.77 6.29 4.42 6.62 4.62c9.67 5.96 17.64 11.9 27.77 17.59q5.8 3.26 14.1 8.23 3.28 1.97 14.62 7.42a.074.046 84.848 0 1 .03.04q.03.15.09.28a.585.582-87.13 0 0 .27.3q23.33 11.65 44.21 20.76 4.5 1.96 13.21 5.02a.155.146-84.377 0 1 .1.13l.01.25a.055.043-82.982 0 0 .03.05"></path><path fill="#fff" fill-rule="evenodd" d="M469.557 349.147c5.694 7.791 17.157 23.682 5.982 31.85-11.172 8.165-22.832-7.583-28.526-15.373-5.693-7.791-17.157-23.683-5.985-31.848 11.175-8.167 22.836 7.581 28.529 15.371"></path><path fill="#0d4d8f" fill-rule="evenodd" d="m691.12 1399.84-.01-.25a.155.146-84.377 0 0-.1-.13q-8.71-3.06-13.21-5.02-20.88-9.11-44.21-20.76a.585.582-87.13 0 1-.27-.3q-.06-.13-.09-.28a.074.046 84.848 0 0-.03-.04q-11.34-5.45-14.62-7.42-8.3-4.97-14.1-8.23c-10.13-5.69-18.1-11.63-27.77-17.59q-.33-.2-6.62-4.62-10.6-7.44-15.97-11.77-5.89-4.74-15.52-12.42-12.85-10.24-30.75-27.35-24.32-23.24-39.6-41.65-19.3-23.26-28.41-36.09-4-5.64-11.29-16.46-14.36-21.27-26.18-43.33-4.79-8.95-8.79-17.74-3.44-7.57-5.66-11.46c-2.68-4.71-4.12-9.53-6.85-15.63q-6.04-13.52-7.32-17.02-11.83-32.4-15.57-45.65-14.9-52.86-19.83-107.37-2.28-25.16-1.7-51.26.76-34.01 4.95-66.85c2.99-23.34 8.19-47.43 13.47-67.87q2.6-10.1 6.37-21.63.9-2.77 7.29-21.33 5.07-14.75 9.85-26.32.79-1.92 3.44-7.11 1.36-2.65 3.3-7.2 3.27-7.67 5.9-12.46.92-1.67 8.16-16.87c4.88-10.26 11.18-19.46 16.93-29.24q4.9-8.32 8.74-13.98c4.35-6.41 7.28-11.75 12.17-18.35q20.51-27.76 26.72-34.85 15.73-18 17.45-19.79c5.39-5.57 8.74-9.51 13.84-14.51q24.06-23.57 28.74-27.39 3.18-2.6 8.02-7c5.66-5.15 15.1-12.84 22.45-18.14 7.12-5.13 15.33-11.91 23.63-17.18 15.42-9.78 30.34-19.59 41.14-25.72q5.08-2.89 27.48-14.11c28.08-14.08 58.41-25.37 87.66-33.95q19.27-5.65 43.9-10.66 10.05-2.04 23.1-3.81 20.73-2.82 23.21-3.07 9.08-.93 28.32-2.33 14.95-1.09 28.37-1.17 46.56-.27 91.19 6.56 6.74 1.03 14.71 2.7c5.77 1.21 12.84 2.33 19.57 3.86q32.8 7.49 64.44 18.84 1.78.64 24.19 9.41 12.1 4.73 23.77 10.42 21.64 10.55 36.35 18.68 1.65.92 18.42 10.98 8.02 4.82 12.66 8.23c5.15 3.78 10.98 6.85 16.61 11.07 11.89 8.92 19.58 14.25 28.97 22.12q27.96 23.43 50.97 47.46 14.14 14.75 30.73 34.74 14.31 17.24 27.59 37.24 19.4 29.23 32.63 54.53 13.66 26.12 27.38 61.37 1.68 4.33 5.73 16.31c5.3 15.67 10.37 32.88 13.6 47.13 2.22 9.79 5.76 25.92 7.58 37.75q5.76 37.36 7.24 72.49 1.62 38.69-3.42 80.73c-1.14 9.5-3.35 24.8-5.95 37.09q-.97 4.6-3.84 19.75-.43 2.24-4.9 19.73-2.44 9.52-5.7 19.53-2.78 8.53-5.94 18.15-3.61 10.96-6.5 17.94-2.34 5.66-7.97 20.06-3.51 8.99-6.65 14.98-2.9 5.52-7.16 14.78-2.14 4.65-8.59 16.19-2.91 5.21-8.67 16.17c-1.56 2.98-3.91 5.73-5.46 8.46q-11.72 20.54-26 38.83-2.38 3.06-4.79 6.44-3.45 4.85-4.8 6.44-5.16 6.08-7.43 9.08-4.58 6.05-7.46 9.02-.58.59-14.22 15.5-17.53 19.17-38.16 37.84-13.5 12.22-40.19 32.92c-3.21 2.49-6.79 4.51-9.71 6.77q-4 3.1-10.16 7.12-14.26 9.29-24.12 15.26-1.97 1.2-16.6 9.63-6.54 3.78-17.03 8.85-15.99 7.72-33.35 15.52-8.79 3.94-21.23 8.48-17.43 6.36-21.53 7.75-22.12 7.46-47.55 13.62-9.37 2.27-15.14 3.25c-6.64 1.12-13.63 2.96-20.29 3.89q-37.83 5.29-69.52 6.54-45.89 1.81-92.74-4.59-30.12-4.11-57.09-10.71-10.32-2.53-16.31-4.42c-7.62-2.41-13.47-3.84-21.56-6.55q-13.17-4.43-26.7-9.15a.055.043-82.982 0 1-.03-.05m55.61-668.92q-14.36 13.04-23.94 24.62-29.72 35.93-41.08 82.44-5.27 21.55-5.67 47.98l-313.41-.16a1.9 1.897-85.142 0 0-1.87 1.58q-.31 1.82-.26 4.37.83 42.27 7.55 80.89 1.84 10.62 4.53 22.51 3.41 15.11 5.25 22.39 4.27 16.92 5.74 21.19 9.82 28.65 14.98 41.23 7.86 19.15 13.34 30.16 1.78 3.57 9.82 19.02c9.1 17.51 18.32 33.08 29.47 49.78 9.74 14.58 22.06 30.16 31.09 41.29q11.69 14.41 34.89 38.21c5.01 5.14 8.88 8.28 14.86 14.03q4.34 4.17 11.16 10.08 17.37 15.07 35.56 27.97 19.66 13.95 31.44 21.3 16.85 10.52 47.28 26.29 4.98 2.58 33.89 15.04c6.99 3.02 14.24 5.2 21.03 7.75q9.97 3.73 15.85 5.59 32.98 10.44 66.27 16.27c9.07 1.59 18.51 2.55 26.87 3.78 37.74 5.52 75.52 5.1 113.35 2.15 10.89-.85 22.04-2.7 31.97-3.98 7.28-.93 13.31-2.28 19.21-3.27q6.66-1.11 14.3-3c10.92-2.69 21.97-4.8 32.55-8.18q14.19-4.54 36.52-12.48 19.58-6.97 42.85-18.45c21.32-10.52 39.21-20.15 54.61-30.36q4.38-2.9 21.98-14.89c11.63-7.92 20.9-15.55 31.1-23.67 4.1-3.27 9.13-7.99 11.65-10.83a.615.615 28.846 0 0-.29-1q-.85-.24-1.92-.23-51.36.31-66 .29-96.34-.13-218.72.03-38.64.05-47.03-.07-5.49-.09-11.02-.5-3.03-.22-2.99-3.31.28-21.81.15-121.46 0-1.93.28-3.98a2.122 2.105-1.373 0 1 1.71-1.78q1.86-.36 3.87-.37 19.02-.11 128.75-.07 202.56.08 316.57-.02c4.29 0 6.48.29 8.38-3.36q9.58-18.31 17.79-34.31 4.06-7.91 5.92-12.7 2.39-6.12 5.44-12.94 2.78-6.21 6.78-17.31c6.04-16.8 10.68-29.78 14.27-44.26q.36-1.43.25-3.01a1.143 1.124 15.722 0 0-.48-.84q-1.74-1.2-2.92-1.21-19.76-.17-23.25-.17-168.57.21-306.34.12c-3.64 0-7.74.37-11.63.28a3.359 3.31-50.619 0 0-.85.09l-5.25 1.25q8.76-10.69 16.15-22.17c2.66-4.13 5.03-9 7.47-13.24q2.52-4.36 5.2-10.15c12.68-27.45 20.26-58.54 19.33-88.94q3.27 1.69 6.92 1.38 3.56-.31 4.5-.22c3.72.36 6.59.06 10.05.05q135.85-.11 296.82.04a2.03 2.019 5.523 0 0 1.99-1.63q.2-1.01.2-2.51.04-6.08-.86-19.72-1.19-17.99-1.24-19.01-.3-6.73-1.97-19.04-3.87-28.38-6.82-41.52-6.72-29.96-8.35-35.7-10.75-37.9-26.52-72.98c-3.91-8.69-9.5-19.92-12.99-26.95q-6.46-12.98-17.82-31.69-9.91-16.3-25.15-38-6.25-8.89-13.15-17.22-13.19-15.9-13.93-16.76-12.31-14.23-27.25-29.12c-5.18-5.17-10.63-9.65-14.56-13.67-2.61-2.68-5.89-5-8.19-7.34q-3.62-3.67-5.66-5.37-18.79-15.71-31.61-24.73-20.01-14.09-25.29-17.45-16.23-10.34-35.59-20.88-17.47-9.51-50.84-23.96c-7.25-3.14-14.52-5.44-22.17-8.42q-8.89-3.46-16.77-5.86-23.03-7.01-38.85-10.87-15.6-3.81-39.4-7.63-15.2-2.44-32.83-3.9c-23.41-1.96-44.04-3.28-65.52-2.08q-23.72 1.32-47.22 3.85-9.47 1.02-39.03 6.19-10.95 1.92-20.81 4.74-11.01 3.14-20.61 5.57c-4.65 1.17-8.51 2.79-12.39 3.82q-3.72.98-9.2 3.13c-10.01 3.93-22.76 8.12-32.27 12.15q-38.03 16.13-71.77 36.4-7.25 4.35-21.12 13.74c-14.3 9.67-21.66 14.36-31.78 23q-4.09 3.5-10.23 8.16-3.27 2.48-10.08 8.34a.94.937 30.29 0 0 .43 1.63q1.13.23 3.1.22 31.8-.26 33.25-.26l300.27.19q2.48 0 4.1.8a1.09 1.09 13.3 0 1 .6.97q-.35 57.93-.11 124.4.01 3.04-.74 4.42a1.848 1.789-89.472 0 1-.69.7q-.95.52-3.18.51-140.24-.16-423.79-.08c-6.03 0-13.17-.31-18.81-.49-2.66-.08-3.92.57-5.4 2.7q-3.35 4.83-6.21 10.76c-4.62 9.58-10.68 19.76-15.36 30.1q-8.4 18.58-9.65 21.64-6.97 17.2-9.51 25.61-.98 3.23-5.72 16.39-3.87 10.76-5.68 20.37c-.59 3.18 1.21 3.76 4.09 3.76q145.12-.16 331.54.31 3.58.01 6.23-.08a1.47 1.47 87.928 0 0 .87-.33l2.3-1.9a1.746 1.295-9.992 0 0 .18-.19q4.9-6.32 5.77-7.16 4.99-4.8 11.14-10.64a2.972 2.682-9.592 0 0 .53-.67q2.29-3.86 5.46-3.31"></path><path fill="#b81218" fill-rule="evenodd" d="M1091.08 884.22q-1.23-40.38-16.43-77.32-3.73-9.06-9.39-19.03-6.72-11.83-10.95-18.17c-10.59-15.9-24.66-30.56-38.95-42.54q-18.86-15.81-40.19-25.86-12.86-6.06-24.02-10.15-16.98-6.22-34.9-8.68-2.31-.31-16.5-1.98c-10.6-1.25-23.78-.34-38.52.96-35.36 3.1-69.57 16.48-98.48 36.79q-3.47 2.44-16.02 12.68-3.17-.55-5.46 3.31a2.972 2.682-9.592 0 1-.53.67q-6.15 5.84-11.14 10.64-.87.84-5.77 7.16a1.746 1.295-9.992 0 1-.18.19l-2.3 1.9a1.47 1.47-36.379 0 1-.87.33q-2.65.09-6.23.08-186.42-.47-331.54-.31c-2.88 0-4.68-.58-4.09-3.76q1.81-9.61 5.68-20.37 4.74-13.16 5.72-16.39 2.54-8.41 9.51-25.61 1.25-3.06 9.65-21.64c4.68-10.34 10.74-20.52 15.36-30.1q2.86-5.93 6.21-10.76c1.48-2.13 2.74-2.78 5.4-2.7 5.64.18 12.78.49 18.81.49q283.55-.08 423.79.08 2.23.01 3.18-.51a1.848 1.789-89.472 0 0 .69-.7q.75-1.38.74-4.42-.24-66.47.11-124.4a1.09 1.09 13.3 0 0-.6-.97q-1.62-.8-4.1-.8l-300.27-.19q-1.45 0-33.25.26-1.97.01-3.1-.22a.94.937 30.29 0 1-.43-1.63q6.81-5.86 10.08-8.34 6.14-4.66 10.23-8.16c10.12-8.64 17.48-13.33 31.78-23q13.87-9.39 21.12-13.74 33.74-20.27 71.77-36.4c9.51-4.03 22.26-8.22 32.27-12.15q5.48-2.15 9.2-3.13c3.88-1.03 7.74-2.65 12.39-3.82q9.6-2.43 20.61-5.57 9.86-2.82 20.81-4.74 29.56-5.17 39.03-6.19 23.5-2.53 47.22-3.85c21.48-1.2 42.11.12 65.52 2.08q17.63 1.46 32.83 3.9 23.8 3.82 39.4 7.63 15.82 3.86 38.85 10.87 7.88 2.4 16.77 5.86c7.65 2.98 14.92 5.28 22.17 8.42q33.37 14.45 50.84 23.96 19.36 10.54 35.59 20.88 5.28 3.36 25.29 17.45 12.82 9.02 31.61 24.73 2.04 1.7 5.66 5.37c2.3 2.34 5.58 4.66 8.19 7.34 3.93 4.02 9.38 8.5 14.56 13.67q14.94 14.89 27.25 29.12.74.86 13.93 16.76 6.9 8.33 13.15 17.22 15.24 21.7 25.15 38 11.36 18.71 17.82 31.69c3.49 7.03 9.08 18.26 12.99 26.95q15.77 35.08 26.52 72.98 1.63 5.74 8.35 35.7 2.95 13.14 6.82 41.52 1.67 12.31 1.97 19.04.05 1.02 1.24 19.01.9 13.64.86 19.72 0 1.5-.2 2.51a2.03 2.019 5.523 0 1-1.99 1.63q-160.97-.15-296.82-.04c-3.46.01-6.33.31-10.05-.05q-.94-.09-4.5.22-3.65.31-6.92-1.38m209.72-112.47a1.1 1.1 2.364 0 0-1.05-1.14q-9.78-.46-20.22-1.67-3.25-.38-2.72-3.7.33-2.11 1.55-8.02c1.07-5.19.55-11.43-.71-17.22q-4.51-20.77-8.61-35.87-2.53-9.35-2.55-13.58c-.06-12.08 3.61-21.11 8.4-34.01a1.921 1.873-8.965 0 1 .62-.83q1.67-1.27 3.59-.79 5.55 1.37 9.57 1.9a1.954 1.947 9.589 0 0 2.16-1.53q.56-2.72.59-6.54c.07-8.91.41-20.31-.65-29.55q-2.58-22.62-10.15-42.53-3.18-8.35-7.8-14.49-.3-.4-7.66-9.54c-3.81-4.73-7.83-7.51-12.23-11.19q-7.9-6.6-13.65-12.65c-3.22-3.39-8.77-4.48-13.7-5.54-4.49-.96-9.91-.16-16.08.25-6.93.46-10.29-4.82-14.4-9.63-4.3-5.04-8.96-6.66-15.25-8.43-3.36-.94-6.98.86-9.73 3.17q-7.85 6.59-10.75 16.25c-.57 1.88-4.54 7.17-2.6 9.93q2.2 3.12 3.35 4.94a3.986 3.974-15.203 0 0 3.26 1.86q5.2.15 10.18 3.71 1.76 1.26 4.17 1.25c3 0 5.95-.18 9.25 1.44q1.87.93 4 1.34c2.34.45 3.62 1.26 3.3 3.68q-.71 5.22-.77 5.81a3.755 3.695-57.067 0 0 .46 2.24c1.7 2.99 2.33 7.16 3.92 10.48q3.53 7.32 6.82 17.08c1.22 3.63 3.17 7.19 4.76 10.4a2.256 2.131-60.074 0 1 .22.92q.05 2.45-1.53 4-6.6 6.48-12.84 14.68-2.09 2.75-4.38 5c-1.66 1.64-7.13 5.87-10.23 5.74q-7.35-.32-15.97-2.89-6.69-1.99-28.84-8.96a.29.238 50.655 0 0-.1-.02l-6.48-1.04a5.496 5.486 64.488 0 1-1.86-.66q-1.07-.56-1.09-3.93-.04-4.7.46-12.16a2.559 2.558-77.218 0 0-1.6-2.54c-6.4-2.54-14.34-1.97-21.47-3.84q-5.38-1.42-10.75-2.35c-3.23-.57-4.88-.21-7.37 2.4-2.46 2.59-3.8 3.05-7.48 3.95-1.94.47-3.25 1.28-3.4 3.23q-1.01 13.42-3.25 28.04a3.489 3.485-5.749 0 1-2.25 2.75q-9.79 3.56-18.06 10.63-21.82 18.68-23.18 46.83-.54 11.08 2.05 20.34 3.16 11.32 8.13 18.75 10.44 15.6 27.77 25.39 3.85 2.18 9.11 3.92 1.95.65 3.25 1.91a1.884 1.881-38.69 0 1-.33 2.96c-1.05.64-6.5.83-11.16 1.24a4.07 4.068-1.585 0 0-3.72 3.93l-.06 2.14a3.543 3.542-89.137 0 0 3.54 3.65c14.46.02 30.98.7 47.94.65q49.61-.17 78.72-.48c11.2-.12 24.02.19 37.32-.24q16.1-.51 29.07-.12c14.1.43 24.66-.13 40.58-.23a.56.56-89.479 0 0 .56-.55z"></path><path fill="#0d4d8f" fill-rule="evenodd" d="m347.91 422.41-5.54 5.65a1.087 1.08 41.259 0 1-1.45.09q-9.64-7.67-17.35-15.96a.772.764 45.837 0 1 .01-1.06q21.89-22.64 32.24-33.3 3.35-3.45 7.77-8.73a1.166 1.163-47.606 0 1 1.7-.08l16.37 16.04a.775.765-47.551 0 1 .04 1.05l-5.2 6.02a.952.949-47.729 0 0 .06 1.3l38.06 37.29a.806.806 39.256 0 0 1.14-.02l5.78-5.89a1.07 1.07-2.144 0 1 1.51-.01l16.28 15.94a.74.74 84.586 0 1 .01 1.05L398.97 483a.877.87 44.311 0 1-1.24.01l-16.52-16.17a.37.37 0 0 1 0-.52l5.84-5.97a.622.615-45.969 0 0-.01-.88l-37.85-37.07a.905.898 44.332 0 0-1.28.01M1391.58 507.28a.892.885-41.608 0 1-1.26-.07l-37.79-42.61a1.007.999-41.586 0 1 .09-1.42l17.49-15.51a.517.51 47.729 0 1 .73.04q2.55 2.85 4.18 4.52 1.84 1.88 3.87.19c12.5-10.42 24.5-21.78 37.17-33.38a1.381 1.374-42.161 0 0 .1-1.93l-4.84-5.46a1.183 1.176-41.753 0 1 .1-1.67l17.2-15.25a.864.857-41.497 0 1 1.22.07l37.98 42.82a.326.318 48.223 0 1-.02.45l-18.06 16.43a.326.319 45.651 0 1-.44-.01l-6.14-6.02a.759.758-43.865 0 0-1.04-.02l-38.03 34.59a1.128 1.12-44.149 0 0-.03 1.64l5.34 5.24a.808.801-44.279 0 1-.02 1.17zM293.89 522.26l28.79 20.53a.644.638-53.671 0 0 .89-.14l4.62-6.25a.716.704-53.785 0 1 .98-.16l18.54 13.23a.835.832-55.438 0 1 .21 1.15l-23.68 34.29a1.123 1.121 35.682 0 1-1.59.26l-18.67-13.81a1.294 1.294-18.56 0 1-.27-1.81l4.17-5.63a.478.472-53.839 0 0-.1-.67l-42.69-31.59a.708.702-53.458 0 0-.98.15l-4.1 5.55a1.038 1.028 35.962 0 1-1.43.22l-17.83-12.71a1.054 1.054-27.756 0 1-.25-1.47l26.57-37.68a2.118 2.095 3.891 0 1 .73-.63q.39-.2 3.45-.16 30.51.47 61.05 1.79a.41.408-25.758 0 0 .26-.74l-23.1-16.46a.731.72 36.051 0 0-1 .15l-4.63 6.26a.72.72-78.097 0 1-1.01.15l-17.95-13.28a1.18 1.18 77.826 0 1-.25-1.65l24.76-33.45a.444.436 35.151 0 1 .61-.1l19.11 13.63a.683.677 34.994 0 1 .17.94l-4.78 6.91a.488.48-55.649 0 0 .12.67l62.63 44.66a1.45 1.45 73.643 0 1 .34 2.02l-19.18 26.9a1.341 1.322 18.447 0 1-1.12.55l-73.2-2.18a.31.308-26.458 0 0-.19.56M1501.38 528.547l-3.962-6.233a.69.69-88.118 0 1 .194-.94l19.489-13.289a.69.69-11.853 0 1 .965.189l24.149 36.579a.69.69 4.246 0 1-.187.95l-20.748 14.145a.69.69-85.151 0 1-.952-.17l-4.79-6.754a.69.69 54.716 0 0-.696-.278l-80.935 15.857a.69.69 32.864 0 1-.703-.289l-17.054-25.023a.69.69 78.858 0 1-.008-.767l45.814-70.012a.69.69 76.017 0 0 .006-.748l-3.551-5.591a.69.69-7.219 0 1 .183-.932l19.773-14.034a.69.69-30.061 0 1 .969.174l30.043 44.07a.69.69-80.735 0 1-.171.951l-18.676 13.259a.69.69 87.223 0 1-.961-.163l-3.452-4.859a.69.69 82.027 0 0-1.108-.023l-25.349 32.771a.69.69-14.835 0 0 .694 1.096l40.59-8.892a.69.69 1.804 0 0 .434-1.044M1300.8 771.75l-.01.32a.56.56-89.479 0 1-.56.55c-15.92.1-26.48.66-40.58.23q-12.97-.39-29.07.12c-13.3.43-26.12.12-37.32.24q-29.11.31-78.72.48c-16.96.05-33.48-.63-47.94-.65a3.543 3.542-89.137 0 1-3.54-3.65l.06-2.14a4.07 4.068-1.585 0 1 3.72-3.93c4.66-.41 10.11-.6 11.16-1.24a1.884 1.881-38.69 0 0 .33-2.96q-1.3-1.26-3.25-1.91-5.26-1.74-9.11-3.92-17.33-9.79-27.77-25.39-4.97-7.43-8.13-18.75-2.59-9.26-2.05-20.34 1.36-28.15 23.18-46.83 8.27-7.07 18.06-10.63a3.489 3.485-5.749 0 0 2.25-2.75q2.24-14.62 3.25-28.04c.15-1.95 1.46-2.76 3.4-3.23 3.68-.9 5.02-1.36 7.48-3.95 2.49-2.61 4.14-2.97 7.37-2.4q5.37.93 10.75 2.35c7.13 1.87 15.07 1.3 21.47 3.84a2.559 2.558-77.218 0 1 1.6 2.54q-.5 7.46-.46 12.16.02 3.37 1.09 3.93a5.496 5.486 64.488 0 0 1.86.66l6.48 1.04a.29.238 50.655 0 1 .1.02q22.15 6.97 28.84 8.96 8.62 2.57 15.97 2.89c3.1.13 8.57-4.1 10.23-5.74q2.29-2.25 4.38-5 6.24-8.2 12.84-14.68 1.58-1.55 1.53-4a2.256 2.131-60.074 0 0-.22-.92c-1.59-3.21-3.54-6.77-4.76-10.4q-3.29-9.76-6.82-17.08c-1.59-3.32-2.22-7.49-3.92-10.48a3.755 3.695-57.067 0 1-.46-2.24q.06-.59.77-5.81c.32-2.42-.96-3.23-3.3-3.68q-2.13-.41-4-1.34c-3.3-1.62-6.25-1.44-9.25-1.44q-2.41.01-4.17-1.25-4.98-3.56-10.18-3.71a3.986 3.974-15.203 0 1-3.26-1.86q-1.15-1.82-3.35-4.94c-1.94-2.76 2.03-8.05 2.6-9.93q2.9-9.66 10.75-16.25c2.75-2.31 6.37-4.11 9.73-3.17 6.29 1.77 10.95 3.39 15.25 8.43 4.11 4.81 7.47 10.09 14.4 9.63 6.17-.41 11.59-1.21 16.08-.25 4.93 1.06 10.48 2.15 13.7 5.54q5.75 6.05 13.65 12.65c4.4 3.68 8.42 6.46 12.23 11.19q7.36 9.14 7.66 9.54 4.62 6.14 7.8 14.49 7.57 19.91 10.15 42.53c1.06 9.24.72 20.64.65 29.55q-.03 3.82-.59 6.54a1.954 1.947 9.589 0 1-2.16 1.53q-4.02-.53-9.57-1.9-1.92-.48-3.59.79a1.921 1.873-8.965 0 0-.62.83c-4.79 12.9-8.46 21.93-8.4 34.01q.02 4.23 2.55 13.58 4.1 15.1 8.61 35.87c1.26 5.79 1.78 12.03.71 17.22q-1.22 5.91-1.55 8.02-.53 3.32 2.72 3.7 10.44 1.21 20.22 1.67a1.1 1.1 2.364 0 1 1.05 1.14m-129.507-129.448a2.57 2.57 0 0 0-1.701-3.212l-41.309-12.709a2.57 2.57 0 0 0-3.212 1.701l-.024.076a2.57 2.57 0 0 0 1.701 3.212l41.309 12.709a2.57 2.57 0 0 0 3.212-1.701zm-104.803-1.372c5.77 8.92 11.78 17.18 17.48 25.31q3.45 4.91 7.67 10.02a1.578 1.572-48.918 0 0 2.56-.18q1.66-2.7 2.22-5.86 1.14-6.35 1.67-13.13c.35-4.44-.36-8.39-2.09-12.1q-2.83-6.05-4.37-9.61c-.76-1.74-1.98-2.86-3.87-2.82q-10.86.21-20.46 5.28a2.16 2.16 59.7 0 0-.81 3.09m155.074-3.678.127-2.697a1.14 1.14 45 0 0-1.085-1.192l-14.014-.661a7.49 2.3 2.7 0 0-7.59 1.944l-.018.38a7.49 2.3 2.7 0 0 7.373 2.65l14.014.661a1.14 1.14-77.753 0 0 1.193-1.085M1088.23 684.08q1.28-2.7-.28-5.32c-3.29-5.53-9.66-11.87-13.47-18.07q-2.34-3.79-11.32-16.1-2.47-3.39-5.75-.71-7.35 5.99-12.1 12.14c-2.65 3.43-5.22 8.67-7.01 11.78q-1.29 2.25-1.64 5.29a1.947 1.945 8.022 0 0 1.62 2.15q12.38 2.06 20.49 4.37c7.99 2.28 15.73 3.29 25.15 5.54q1.6.38 3.48-.31a1.488 1.485-87.418 0 0 .83-.76m94.435-37.861a8.72 2.62-174.2 0 0 8.41 3.488 8.72 2.62-174.2 0 0 8.94-1.726 8.72 2.62-174.2 0 0-8.41-3.488 8.72 2.62-174.2 0 0-8.94 1.726m-66.415 35.521q.69-.22 1.46-.78c7.72-5.55 14.35-9.42 20.75-14.61q3.82-3.08 9.93-7.19c2.78-1.87 1.67-4.42-.67-5.88-4.59-2.88-8.45-5.47-14.13-6.74-5.69-1.27-11.64-1.86-13.64 4.53q-3.67 11.73-5.35 26.2-.18 1.55.04 3.43a1.238 1.234 77.769 0 0 1.61 1.04m45.49-28.45a1.871 1.866-7.784 0 0-1.98 2.6c1.04 2.38 2.25 3.9 3.26 6.42 3.04 7.53 6.06 13.74 6.91 20.33 1.06 8.18 1.43 16.96-.38 24.62q-.33 1.4-.88 5.09a11.872 11.72 59.886 0 1-.58 2.24q-1.46 3.92-4.05 9.71-1.48 3.33 1.55 4.34 3.23 1.09 7.42 1.04a3.234 3.215-78.653 0 0 2.91-1.95q1.04-2.39 1.1-5.98.34-21.64-.06-43c-.12-6.6 1.27-9.64 4.56-16.42q1.38-2.85-1.67-3.81c-8.75-2.75-14.27-4.68-18.11-5.23m-46.76 37.86c5.51 1.47 13.82 3.7 20.43 4.9q22.93 4.14 27.94 5.26c1.83.41 3.17-.05 3.33-2.07q1.42-18.65-7.81-34.59-3.16-5.45-8.42-1.66-11.02 7.93-16.05 11.09c-5.47 3.43-12.4 9.04-18.56 12.74q-1.32.79-1.89 2.37a1.505 1.505-72.729 0 0 1.03 1.96m133.62 78.8 2.89-.64a2.458 2.448 79.27 0 0 1.9-2.8c-.87-5.41-4.04-13.34-5.32-18.75-2.51-10.65-6.12-22.68-8.6-34.33q-3.75-17.63-7.01-36.59a2.288 2.288 74.593 0 0-3.08-1.75q-3.97 1.52-5.49 5.34-.85 2.13.42 7.66 2.99 13.03 3.96 27.25.38 5.63 1.34 8.86c1.59 5.39 4.32 11.11 4.21 17.31-.07 3.86-2.96 6.93-4.62 9.89q-3.16 5.61-2.71 11.96c.34 4.84 6.46 5.32 10.27 5.61q4.84.36 10.9.58a.066.041 58.283 0 1 .04.02q.04.02.37.26a.666.655 57.263 0 0 .53.12m-213.09-90.21q-1.13 1.01-1.18 3.04-.39 14.34.52 21.96a7.268 5.086 79.976 0 0 .19 1.01q.6 2.5 5.62 14.05 1.46 3.36 3.82 3.58a2.074 1.95-51.53 0 0 .96-.14c2.85-1.19 6.07-4.17 8.81-5.92q13.91-8.87 25.13-15.7c2.48-1.51 7.34-5.4 7.89-8.72a2.577 2.437 13.005 0 0-1.84-2.77q-5.68-1.65-13.19-2.93c-3.04-.52-5.51-1.45-8.2-1.84q-2.91-.42-6.14-1.34-8.58-2.44-21.57-4.52a.976.97 28.493 0 0-.82.24m124.94 41.74q4.25-9.89 5.02-11.71.8-1.87-.7-2.97a1.354 1.314 68.491 0 0-.53-.24q-12.67-2.61-13.57-2.77c-11.83-2.2-24.25-5.47-35.6-7.17a2.772 2.709 9.121 0 0-3.13 2.21q-.37 2.15 1.1 4.18 9.02 12.53 12.97 18.47c3.3 4.96 5.36 6.01 10.75 6.03q7.02.02 16.38.31 4.9.14 6.38-3.97.46-1.27.93-2.37m-75.32-18.41q-.51-.02-1.2.39-6.35 3.74-23.7 15.88c-4.23 2.97-8.12 4.88-11.46 8.02q-1.95 1.84.39 4.24 6.5 6.67 15.91 12.93 4.71 3.13 11.05 5.16 2.45.78 3.17.72a1.171 1.17 15.45 0 0 .83-.47q1.09-1.5 1.47-3.67 3.98-22.69 5.12-30.77.83-5.89.33-10.67a1.979 1.966-2.152 0 0-1.91-1.76m21.86 24.01a1.964 1.962 72.751 0 0 1.86.98l11.19-.87a2.146 2.139 89.103 0 0 1.98-2.05q.07-1.63-.93-3.49-.78-1.43-7.95-11.78-1.04-1.5-2.45-2.66a1.172 1.167-61.897 0 0-1.86.57q-1.32 4.32-2.27 11.25c-.37 2.71-.96 5.64.43 8.05m36.203 14.863c2.75.122 6.276-4.249 7.81-6.164 5.122-6.395-4.105-5.727-7.277-5.868s-12.302-1.622-7.767 5.201c1.359 2.043 4.484 6.709 7.234 6.831m-39.373-.713q1.27 2.56 5.46 2.99 6.36.65 16.47 1.51 1.87.16 3.49.03c2.17-.17 4.52-.09 5.55-1.17a2.324 2.254 50.521 0 0 .23-2.83c-2.09-3.21-5.7-9.46-9.23-10.5-5.25-1.57-12.55.42-16 .7a2.914 2.801 27.704 0 0-1.07.31q-4.85 2.52-5.13 7.9a2.2 2.189-57.386 0 0 .23 1.06m47.93 4.25c1.93 2.01 9.59 2.1 11.33 2.37 6.59 1.01 12.54.38 19.63.58 2.4.06 4.43-.52 6.22-2.01q2.68-2.24 5.46-4.51a1.18 1.176-55.907 0 0-.39-2.04q-2.04-.63-4.5-.68-4.91-.09-14.88.17a2.256 2.246 86.299 0 1-2.3-2.03l-.23-2.3a1.937 1.934-87.587 0 0-1.56-1.7q-2.62-.51-5.92-.57c-3.79-.06-5.63 1.07-8.3 4.05q-3.14 3.5-4.8 6a2.145 2.142 39.895 0 0 .24 2.67m-25.47 3.11q-3.08-.15-8.02-1.12-2.79-.56-12.2-.25a5.152 5.139 3.995 0 0-4.9 4.25l-.02.07a3.603 3.598 3.72 0 0 3.71 4.22q10.34-.16 20.77-3.99.85-.31 1.51-.95a1.302 1.299 24.198 0 0-.85-2.23m41.65 2.12-21.38-.63a3.758 3.644 34.996 0 0-1.37.22l-14.63 5.43a.918.914-42.754 0 0-.07 1.69q1.51.69 3.57.79 12.07.55 16.55.79 5.7.3 15.79 1.05 14.43 1.07 27.36-.03 2.7-.23 4.42-.96a1.799 1.796-41.13 0 0 .22-3.21c-3.15-1.84-8.89-2.72-11.64-3.04q-9.09-1.05-17.52-1.48-.24-.01-.8-.44a.874.862-24.823 0 0-.5-.18M228.8 544.91a.617.608-64.059 0 1 .82-.29l21.54 10.72a1.03 1.03 67.969 0 1 .46 1.38l-2.98 5.99a.719.717 28.476 0 0 .28.94q1.74 1.03 3.03 1.65 4.4 2.14 34.44 16.54c18.53 8.88 26.12 25.31 19.99 45.23-4.55 14.75-14.76 30.83-29.97 36.05-12.17 4.17-24.81-.23-36.86-6.2q-14.96-7.43-29.71-14.07a.843.842 25.277 0 0-1.09.39l-2.43 4.89a.953.948 25.607 0 1-1.26.44l-19.84-9.32a1.27 1.27 67.016 0 1-.61-1.69l21.27-45.29a1.248 1.244-64.885 0 1 1.65-.6l20.8 9.77a.806.805 25.791 0 1 .38 1.09l-1.54 3.09a.94.94 26.45 0 0 .42 1.26q6.27 3.14 31.73 15.3c7.37 3.52 18.16 9.3 22.98-1.65 2.75-6.23-.62-11.66-6.08-14.53q-20.65-10.88-39.8-19.41a.865.864 25.312 0 0-1.12.4l-2.17 4.36a.95.95 28.124 0 1-1.27.43l-19.74-9.82a.672.671-64.423 0 1-.31-.88zM1503.22 650.7l7.17-6.53a1.581 1.569-33.724 0 0 .37-1.82l-10.41-22.52a1.165 1.16 75.327 0 0-1.14-.67l-9.97.77a.331.327 75.754 0 0-.27.46l2.78 6.49a.873.869 66.929 0 1-.46 1.15l-19.53 8.37a.896.892-23.158 0 1-1.18-.47l-15.96-37.23a.273.27 68.003 0 1 .15-.36l21.35-8.47a.726.725 63.219 0 1 .88.29l3.3 5.18a.844.835 71.857 0 0 .78.4l53.86-4.19a.785.777 76.979 0 0 .66-1.07l-2.44-6.18a.767.763 68.404 0 1 .43-1l22.02-8.73a1.157 1.151 66.728 0 1 1.47.59l28.77 62.23a1.633 1.624 64.876 0 1-.77 2.15l-20.86 10.03a.747.743-25.546 0 1-1-.35l-2.34-5.07a.818.817 55.759 0 0-1.31-.25q-12.96 12.44-24.99 24.93-7 7.27-14.51 13.53a.999.99 57.591 0 0-.26 1.19l2.93 6.08a.75.75 63.962 0 1-.34.99q-9.97 5.06-21.28 9.01a1.091 1.088-22.392 0 1-1.35-.56l-22.08-45.92a.613.609-25.125 0 1 .3-.82l19.24-8.9a.884.877-28.362 0 1 1.12.33l4.37 6.87a.332.33 52.846 0 0 .5.07m13.258-34.152a.35.35 6.791 0 0-.288.486l6.374 14.943a.35.35-40.225 0 0 .55.129l20.566-17.603a.35.35-59.818 0 0-.262-.615z"></path><path fill="#fff" fill-rule="evenodd" d="m1516.478 616.548 26.94-2.66a.35.35-62.013 0 1 .262.615l-20.566 17.603a.35.35-.147 0 1-.55-.129l-6.374-14.943a.35.35-51.131 0 1 .288-.486"></path><path fill="#b81218" fill-rule="evenodd" d="M1171.269 642.378a2.57 2.57 0 0 1-3.212 1.701l-41.309-12.709a2.57 2.57 0 0 1-1.701-3.212l.024-.076a2.57 2.57 0 0 1 3.212-1.701l41.309 12.709a2.57 2.57 0 0 1 1.701 3.212zM1066.49 640.93a2.16 2.16 59.7 0 1 .81-3.09q9.6-5.07 20.46-5.28c1.89-.04 3.11 1.08 3.87 2.82q1.54 3.56 4.37 9.61c1.73 3.71 2.44 7.66 2.09 12.1q-.53 6.78-1.67 13.13-.56 3.16-2.22 5.86a1.578 1.572-48.918 0 1-2.56.18q-4.22-5.11-7.67-10.02c-5.7-8.13-11.71-16.39-17.48-25.31M1221.564 637.252a1.14 1.14-50.35 0 1-1.193 1.085l-14.014-.661a7.49 2.3 2.7 0 1-7.373-2.65l.018-.38a7.49 2.3 2.7 0 1 7.59-1.944l14.014.661a1.14 1.14 45 0 1 1.085 1.192zM1087.4 684.84q-1.88.69-3.48.31c-9.42-2.25-17.16-3.26-25.15-5.54q-8.11-2.31-20.49-4.37a1.947 1.945 8.022 0 1-1.62-2.15q.35-3.04 1.64-5.29c1.79-3.11 4.36-8.35 7.01-11.78q4.75-6.15 12.1-12.14 3.28-2.68 5.75.71 8.98 12.31 11.32 16.1c3.81 6.2 10.18 12.54 13.47 18.07q1.56 2.62.28 5.32a1.488 1.485-87.418 0 1-.83.76M1182.665 646.219a8.72 2.62-174.2 0 1 8.94-1.726 8.72 2.62-174.2 0 1 8.41 3.488 8.72 2.62-174.2 0 1-8.94 1.726 8.72 2.62-174.2 0 1-8.41-3.488M1116.25 681.74a1.238 1.234 77.769 0 1-1.61-1.04q-.22-1.88-.04-3.43 1.68-14.47 5.35-26.2c2-6.39 7.95-5.8 13.64-4.53 5.68 1.27 9.54 3.86 14.13 6.74 2.34 1.46 3.45 4.01.67 5.88q-6.11 4.11-9.93 7.19c-6.4 5.19-13.03 9.06-20.75 14.61q-.77.56-1.46.78M1161.74 653.29c3.84.55 9.36 2.48 18.11 5.23q3.05.96 1.67 3.81c-3.29 6.78-4.68 9.82-4.56 16.42q.4 21.36.06 43-.06 3.59-1.1 5.98a3.234 3.215-78.653 0 1-2.91 1.95q-4.19.05-7.42-1.04-3.03-1.01-1.55-4.34 2.59-5.79 4.05-9.71a11.872 11.72 59.886 0 0 .58-2.24q.55-3.69.88-5.09c1.81-7.66 1.44-16.44.38-24.62-.85-6.59-3.87-12.8-6.91-20.33-1.01-2.52-2.22-4.04-3.26-6.42a1.871 1.866-7.784 0 1 1.98-2.6"></path><path fill="#b81218" fill-rule="evenodd" d="M1114.98 691.15a1.505 1.505-72.729 0 1-1.03-1.96q.57-1.58 1.89-2.37c6.16-3.7 13.09-9.31 18.56-12.74q5.03-3.16 16.05-11.09 5.26-3.79 8.42 1.66 9.23 15.94 7.81 34.59c-.16 2.02-1.5 2.48-3.33 2.07q-5.01-1.12-27.94-5.26c-6.61-1.2-14.92-3.43-20.43-4.9M1248.07 769.83q-.33-.24-.37-.26a.066.041 58.283 0 0-.04-.02q-6.06-.22-10.9-.58c-3.81-.29-9.93-.77-10.27-5.61q-.45-6.35 2.71-11.96c1.66-2.96 4.55-6.03 4.62-9.89.11-6.2-2.62-11.92-4.21-17.31q-.96-3.23-1.34-8.86-.97-14.22-3.96-27.25-1.27-5.53-.42-7.66 1.52-3.82 5.49-5.34a2.288 2.288 74.593 0 1 3.08 1.75q3.26 18.96 7.01 36.59c2.48 11.65 6.09 23.68 8.6 34.33 1.28 5.41 4.45 13.34 5.32 18.75a2.458 2.448 79.27 0 1-1.9 2.8l-2.89.64a.666.655 57.263 0 1-.53-.12M1036.33 679.5q12.99 2.08 21.57 4.52 3.23.92 6.14 1.34c2.69.39 5.16 1.32 8.2 1.84q7.51 1.28 13.19 2.93a2.577 2.437 13.005 0 1 1.84 2.77c-.55 3.32-5.41 7.21-7.89 8.72q-11.22 6.83-25.13 15.7c-2.74 1.75-5.96 4.73-8.81 5.92a2.074 1.95-51.53 0 1-.96.14q-2.36-.22-3.82-3.58-5.02-11.55-5.62-14.05a7.268 5.086 79.976 0 1-.19-1.01q-.91-7.62-.52-21.96.05-2.03 1.18-3.04a.976.97 28.493 0 1 .82-.24"></path><path fill="#fff" fill-rule="evenodd" d="M1091.08 884.22c.93 30.4-6.65 61.49-19.33 88.94q-2.68 5.79-5.2 10.15c-2.44 4.24-4.81 9.11-7.47 13.24q-7.39 11.48-16.15 22.17c-3.7 4.07-7.32 8.54-11.1 12.19-16.85 16.26-34.14 30.12-55.09 40.31q-15.46 7.53-25.8 11.19-21.2 7.5-46.98 9.98c-37.98 3.66-76.97-2.77-111.2-19.75-39.93-19.79-73.18-51.67-93.67-91.54q-5.8-11.29-8.73-18.82c-6.03-15.5-9.96-31.73-12.49-47.59q-2.26-14.15-1.83-28.73.4-26.43 5.67-47.98 11.36-46.51 41.08-82.44 9.58-11.58 23.94-24.62 12.55-10.24 16.02-12.68c28.91-20.31 63.12-33.69 98.48-36.79 14.74-1.3 27.92-2.21 38.52-.96q14.19 1.67 16.5 1.98 17.92 2.46 34.9 8.68 11.16 4.09 24.02 10.15 21.33 10.05 40.19 25.86c14.29 11.98 28.36 26.64 38.95 42.54q4.23 6.34 10.95 18.17 5.66 9.97 9.39 19.03 15.2 36.94 16.43 77.32M930.7 695.64c-7.1-1.6-15.27-3.49-23.69-4.31q-16.38-1.6-35-.74c-5.39.25-9.36 1.64-13.68 3.97q-8.9 4.8-17.64 11.15c-20.12 14.61-37.61 32.84-52.37 52.61q-21.19 28.39-33.61 63.11c-2.84 7.95-4 13.12-6.73 22.77q-2.38 8.43-3.97 18.82a1.266 1.258-81.028 0 0 1.04 1.44q26.25 4.31 52.17 5.9a1.3 1.297-82.486 0 0 1.34-1.03q4.89-22.79 13.46-44.35 7.98-20.07 19.01-36.47Q842.67 771.18 853 759q15.68-18.51 37.54-35.97 2.21-1.76 12-9.18c9.05-6.85 18.41-12.48 28.23-17.69a.28.278-52.814 0 0-.07-.52m-84.93-1.63q-.5-.22-1.09-.11c-26.56 4.99-52.45 15.28-74.55 31.41-29.6 21.61-53.21 49.96-66.9 83.67q-8.15 20.08-12.03 41.42a.95.946 16.214 0 0 .58 1.05q18.09 7.17 38.59 10.44a.816.812-81.921 0 0 .94-.71q1.74-15.17 6.92-30.23 5.26-15.28 6.44-18.06 12.93-30.36 33.79-56.17 8.57-10.6 21.45-23.8 15.96-16.38 30.99-27.51 10.91-8.09 14.91-10.92a.281.277-50.168 0 0-.04-.48M855 874.97a1.688 1.686-78.822 0 0 1.67-1.12q11.63-32.4 28.85-61.07 14.68-24.45 33.23-43.29 18.65-18.94 42.46-34.99c7.09-4.77 16.7-9.85 25.13-14.62a.677.673-43.672 0 0 .03-1.16q-18.24-11.3-38.38-18.2-3.6-1.24-7.25-2.14a3.4 3.4 39.873 0 0-2.23.2c-7.23 3.27-13.56 7.73-20.21 11.82q-5.29 3.26-8.85 6c-11.05 8.51-21.23 18.37-30.91 28.89q-7.72 8.39-20.29 25.21-7.01 9.38-13.66 21.85-12.08 22.66-18.18 43.29-5.1 17.29-6.92 34.27a1.349 1.345 10.581 0 0 .99 1.44q3.71.98 7.28 1.36 16.02 1.72 27.24 2.26m211.93 74.13c2.99-9.11 5.34-15.06 6.81-22.75q4.62-24.07 4.78-41.1.16-18.57-4.23-41.38-.97-5.05-3.2-12.34-3.29-10.78-3.84-12.23c-4.63-12.16-9.61-23.46-15.87-33.59-12.06-19.52-26.4-37.98-44.71-51.65a.55.544-46.406 0 0-.67.02q-10.11 8.42-18.41 18.5-4.49 5.45-7.7 9.24a.953.95-47.313 0 0 .05 1.29q10.65 10.65 22.72 24.14 11.82 13.21 20.2 26.18 18.99 29.41 29.5 60.55 5.53 16.38 9.1 36.66 3.81 21.65 4.3 37.54.02.52.43 1.05a.428.423 34.721 0 0 .74-.13m-44.92 72.28a.315.311-21.557 0 0 .54.23q18.74-19.64 32.1-43.43 3.27-5.83 6.4-12.74a5.546 5.432 57.039 0 0 .5-2.47c-.42-15.11-2.47-27.84-5.32-43.71q-2.07-11.53-4.66-20.37-.28-.97-3.67-11.29c-12.93-39.35-35.99-74.67-65.74-103.13-3.76-3.6-7.77-6.72-12.06-10.31a.717.716 40.38 0 0-1 .08c-11.4 13.3-20.8 29.14-30.46 42.39a.77.77 42.022 0 0 .05.96q3.84 4.18 8.92 9.33c20.44 20.71 37.2 44.03 49.36 70.72q13.98 30.71 20.14 59.99c3.12 14.8 4.05 29.34 5.06 46.12q.42 7.06-.16 17.63m-46.9 36.01q20.25-11.43 39.6-27.94 2.07-1.76 2.11-3.08.65-20.95-3.88-46.04c-4.74-26.29-12.64-51.35-25-73.82-12.15-22.08-26.79-41.51-45.56-57.95q-2.73-2.38-6.1-4.73c-3.39-2.36-7.48-5.04-11.72-5.85a1.796 1.789 22.187 0 0-1.84.77l-17.06 26.08a1.525 1.519-48.256 0 0 .1 1.82q8.48 10.22 12.72 15.5c3.72 4.64 7.05 10.15 10.48 14.94q3.59 5.01 7.43 11.43c26.77 44.69 40.59 96.31 37.88 148.35a.565.564 76.746 0 0 .84.52M688.65 876.46q-.59 19.58 1.98 38.35.87 6.3 2.03 11.11a4.231 4.223-78.636 0 0 1.62 2.44c4.15 3.02 9.21 5.7 13.37 7.86q16.89 8.79 26.67 11.94 17.64 5.7 22.19 6.85 46.65 11.84 94.74 5.82 27.47-3.44 53.07-15.49a.677.676 65.593 0 0 .33-.88c-3.09-6.97-5.82-11.72-12-22.37q-2.5-4.31-5.48-7.92a1.576 1.571-25.109 0 0-1.5-.54q-27.02 4.97-53.66 5.47c-17.07.32-36.95-1.13-54.89-5.38q-13.73-3.26-15.76-3.83-32.57-9.1-61.17-26.85-5.7-3.53-10.95-6.89a.383.382-72.682 0 0-.59.31m7.59 60.88q7.66 31.56 26.49 57.87c1.27 1.78 2.6 2.8 4.46 3.86q29.5 16.91 63.07 25.14 20.51 5.02 43.99 5.89 29.63 1.09 55.84-3.01c14.98-2.34 29.76-6.65 43.93-12a1.197 1.193-21.8 0 0 .68-1.58l-20.74-48.37a1.25 1.25 41.093 0 0-1.64-.66q-19.01 8.08-38.82 10.97-18.93 2.77-28.94 2.89-35.01.46-68.91-8.52-36.96-9.78-69.08-26.87-5.07-2.7-9.71-6.03a.401.398 10.703 0 0-.62.42m41.62 75.32a.469.469-24.381 0 0-.29.77q39.1 45.07 96.26 60.61c10.28 2.8 21.19 4.21 30.42 5.14 17.21 1.73 35.07 1.42 53.2-2.16 12.49-2.46 23.75-4.97 33.92-9.67a1.317 1.306 68.995 0 0 .7-1.59l-11.69-37.58a.805.799-18.868 0 0-1.05-.51q-13.53 5.15-29.67 8.87-13.69 3.14-30.67 4.35-38.58 2.72-76.23-6.15-24.42-5.76-47.16-15.09-.55-.23-16.67-6.82-.59-.24-1.07-.17" data-source="https://football-logos.cc"></path><path fill="#5b3e17" fill-rule="evenodd" d="M930.7 695.64a.28.278-52.814 0 1 .07.52c-9.82 5.21-19.18 10.84-28.23 17.69q-9.79 7.42-12 9.18Q868.68 740.49 853 759q-10.33 12.18-21.97 29.51-11.03 16.4-19.01 36.47-8.57 21.56-13.46 44.35a1.3 1.297-82.486 0 1-1.34 1.03q-25.92-1.59-52.17-5.9a1.266 1.258-81.028 0 1-1.04-1.44q1.59-10.39 3.97-18.82c2.73-9.65 3.89-14.82 6.73-22.77q12.42-34.72 33.61-63.11c14.76-19.77 32.25-38 52.37-52.61q8.74-6.35 17.64-11.15c4.32-2.33 8.29-3.72 13.68-3.97q18.62-.86 35 .74c8.42.82 16.59 2.71 23.69 4.31"></path><path fill="#5b3e17" fill-rule="evenodd" d="M845.77 694.01a.281.277-50.168 0 1 .04.48q-4 2.83-14.91 10.92-15.03 11.13-30.99 27.51-12.88 13.2-21.45 23.8-20.86 25.81-33.79 56.17-1.18 2.78-6.44 18.06-5.18 15.06-6.92 30.23a.816.812-81.921 0 1-.94.71q-20.5-3.27-38.59-10.44a.95.946 16.214 0 1-.58-1.05q3.88-21.34 12.03-41.42c13.69-33.71 37.3-62.06 66.9-83.67 22.1-16.13 47.99-26.42 74.55-31.41q.59-.11 1.09.11"></path><path fill="#b81218" fill-rule="evenodd" d="M1159.52 723.85q-1.48 4.11-6.38 3.97-9.36-.29-16.38-.31c-5.39-.02-7.45-1.07-10.75-6.03q-3.95-5.94-12.97-18.47-1.47-2.03-1.1-4.18a2.772 2.709 9.121 0 1 3.13-2.21c11.35 1.7 23.77 4.97 35.6 7.17q.9.16 13.57 2.77a1.354 1.314 68.491 0 1 .53.24q1.5 1.1.7 2.97-.77 1.82-5.02 11.71-.47 1.1-.93 2.37"></path><path fill="#5b3e17" fill-rule="evenodd" d="M855 874.97q-11.22-.54-27.24-2.26-3.57-.38-7.28-1.36a1.349 1.345 10.581 0 1-.99-1.44q1.82-16.98 6.92-34.27 6.1-20.63 18.18-43.29 6.65-12.47 13.66-21.85 12.57-16.82 20.29-25.21c9.68-10.52 19.86-20.38 30.91-28.89q3.56-2.74 8.85-6c6.65-4.09 12.98-8.55 20.21-11.82a3.4 3.4 39.873 0 1 2.23-.2q3.65.9 7.25 2.14 20.14 6.9 38.38 18.2a.677.673-43.672 0 1-.03 1.16c-8.43 4.77-18.04 9.85-25.13 14.62q-23.81 16.05-42.46 34.99-18.55 18.84-33.23 43.29-17.22 28.67-28.85 61.07a1.688 1.686-78.822 0 1-1.67 1.12"></path><path fill="#b81218" fill-rule="evenodd" d="M1085.13 703.07a1.979 1.966-2.152 0 1 1.91 1.76q.5 4.78-.33 10.67-1.14 8.08-5.12 30.77-.38 2.17-1.47 3.67a1.171 1.17 15.45 0 1-.83.47q-.72.06-3.17-.72-6.34-2.03-11.05-5.16-9.41-6.26-15.91-12.93-2.34-2.4-.39-4.24c3.34-3.14 7.23-5.05 11.46-8.02q17.35-12.14 23.7-15.88.69-.41 1.2-.39M1106.99 727.08c-1.39-2.41-.8-5.34-.43-8.05q.95-6.93 2.27-11.25a1.172 1.167-61.897 0 1 1.86-.57q1.41 1.16 2.45 2.66 7.17 10.35 7.95 11.78 1 1.86.93 3.49a2.146 2.139 89.103 0 1-1.98 2.05l-11.19.87a1.964 1.962 72.751 0 1-1.86-.98M1143.726 729.911c3.172.141 12.399-.527 7.277 5.868-1.534 1.915-5.06 6.286-7.81 6.164s-5.875-4.788-7.234-6.831c-4.535-6.823 4.595-5.342 7.767-5.201M1103.59 740.17q.28-5.38 5.13-7.9a2.914 2.801 27.704 0 1 1.07-.31c3.45-.28 10.75-2.27 16-.7 3.53 1.04 7.14 7.29 9.23 10.5a2.324 2.254 50.521 0 1-.23 2.83c-1.03 1.08-3.38 1-5.55 1.17q-1.62.13-3.49-.03-10.11-.86-16.47-1.51-4.19-.43-5.46-2.99a2.2 2.189-57.386 0 1-.23-1.06M1151.75 745.48a2.145 2.142 39.895 0 1-.24-2.67q1.66-2.5 4.8-6c2.67-2.98 4.51-4.11 8.3-4.05q3.3.06 5.92.57a1.937 1.934-87.587 0 1 1.56 1.7l.23 2.3a2.256 2.246 86.299 0 0 2.3 2.03q9.97-.26 14.88-.17 2.46.05 4.5.68a1.18 1.176-55.907 0 1 .39 2.04q-2.78 2.27-5.46 4.51c-1.79 1.49-3.82 2.07-6.22 2.01-7.09-.2-13.04.43-19.63-.58-1.74-.27-9.4-.36-11.33-2.37"></path><path fill="#5b3e17" fill-rule="evenodd" d="M1066.93 949.1a.428.423 34.721 0 1-.74.13q-.41-.53-.43-1.05-.49-15.89-4.3-37.54-3.57-20.28-9.1-36.66-10.51-31.14-29.5-60.55-8.38-12.97-20.2-26.18-12.07-13.49-22.72-24.14a.953.95-47.313 0 1-.05-1.29q3.21-3.79 7.7-9.24 8.3-10.08 18.41-18.5a.55.544-46.406 0 1 .67-.02c18.31 13.67 32.65 32.13 44.71 51.65 6.26 10.13 11.24 21.43 15.87 33.59q.55 1.45 3.84 12.23 2.23 7.29 3.2 12.34 4.39 22.81 4.23 41.38-.16 17.03-4.78 41.1c-1.47 7.69-3.82 13.64-6.81 22.75"></path><path fill="#b81218" fill-rule="evenodd" d="M1126.28 748.59a1.302 1.299 24.198 0 1 .85 2.23q-.66.64-1.51.95-10.43 3.83-20.77 3.99a3.603 3.598 3.72 0 1-3.71-4.22l.02-.07a5.152 5.139 3.995 0 1 4.9-4.25q9.41-.31 12.2.25 4.94.97 8.02 1.12M1168.43 750.89q.56.43.8.44 8.43.43 17.52 1.48c2.75.32 8.49 1.2 11.64 3.04a1.799 1.796-41.13 0 1-.22 3.21q-1.72.73-4.42.96-12.93 1.1-27.36.03-10.09-.75-15.79-1.05-4.48-.24-16.55-.79-2.06-.1-3.57-.79a.918.914-42.754 0 1 .07-1.69l14.63-5.43a3.758 3.644 34.996 0 1 1.37-.22l21.38.63a.874.862-24.823 0 1 .5.18"></path><path fill="#5b3e17" fill-rule="evenodd" d="M1022.01 1021.38q.58-10.57.16-17.63c-1.01-16.78-1.94-31.32-5.06-46.12q-6.16-29.28-20.14-59.99c-12.16-26.69-28.92-50.01-49.36-70.72q-5.08-5.15-8.92-9.33a.77.77 42.022 0 1-.05-.96c9.66-13.25 19.06-29.09 30.46-42.39a.717.716 40.38 0 1 1-.08c4.29 3.59 8.3 6.71 12.06 10.31 29.75 28.46 52.81 63.78 65.74 103.13q3.39 10.32 3.67 11.29 2.59 8.84 4.66 20.37c2.85 15.87 4.9 28.6 5.32 43.71a5.546 5.432 57.039 0 1-.5 2.47q-3.13 6.91-6.4 12.74-13.36 23.79-32.1 43.43a.315.311-21.557 0 1-.54-.23"></path><path fill="#5b3e17" fill-rule="evenodd" d="M975.11 1057.39a.565.564 76.746 0 1-.84-.52c2.71-52.04-11.11-103.66-37.88-148.35q-3.84-6.42-7.43-11.43c-3.43-4.79-6.76-10.3-10.48-14.94q-4.24-5.28-12.72-15.5a1.525 1.519-48.256 0 1-.1-1.82l17.06-26.08a1.796 1.789 22.187 0 1 1.84-.77c4.24.81 8.33 3.49 11.72 5.85q3.37 2.35 6.1 4.73c18.77 16.44 33.41 35.87 45.56 57.95 12.36 22.47 20.26 47.53 25 73.82q4.53 25.09 3.88 46.04-.04 1.32-2.11 3.08-19.35 16.51-39.6 27.94M688.65 876.46a.383.382-72.682 0 1 .59-.31q5.25 3.36 10.95 6.89 28.6 17.75 61.17 26.85 2.03.57 15.76 3.83c17.94 4.25 37.82 5.7 54.89 5.38q26.64-.5 53.66-5.47a1.576 1.571-25.109 0 1 1.5.54q2.98 3.61 5.48 7.92c6.18 10.65 8.91 15.4 12 22.37a.677.676 65.593 0 1-.33.88q-25.6 12.05-53.07 15.49-48.09 6.02-94.74-5.82-4.55-1.15-22.19-6.85-9.78-3.15-26.67-11.94c-4.16-2.16-9.22-4.84-13.37-7.86a4.231 4.223-78.636 0 1-1.62-2.44q-1.16-4.81-2.03-11.11-2.57-18.77-1.98-38.35"></path><path fill="#b81218" fill-rule="evenodd" d="M676.04 885.96q-.43 14.58 1.83 28.73c2.53 15.86 6.46 32.09 12.49 47.59q2.93 7.53 8.73 18.82c20.49 39.87 53.74 71.75 93.67 91.54 34.23 16.98 73.22 23.41 111.2 19.75q25.78-2.48 46.98-9.98 10.34-3.66 25.8-11.19c20.95-10.19 38.24-24.05 55.09-40.31 3.78-3.65 7.4-8.12 11.1-12.19l5.25-1.25a3.359 3.31-50.619 0 1 .85-.09c3.89.09 7.99-.28 11.63-.28q137.77.09 306.34-.12 3.49 0 23.25.17 1.18.01 2.92 1.21a1.143 1.124 15.722 0 1 .48.84q.11 1.58-.25 3.01c-3.59 14.48-8.23 27.46-14.27 44.26q-4 11.1-6.78 17.31-3.05 6.82-5.44 12.94-1.86 4.79-5.92 12.7-8.21 16-17.79 34.31c-1.9 3.65-4.09 3.36-8.38 3.36q-114.01.1-316.57.02-109.73-.04-128.75.07-2.01.01-3.87.37a2.122 2.105-1.373 0 0-1.71 1.78q-.28 2.05-.28 3.98.13 99.65-.15 121.46-.04 3.09 2.99 3.31 5.53.41 11.02.5 8.39.12 47.03.07 122.38-.16 218.72-.03 14.64.02 66-.29 1.07-.01 1.92.23a.615.615 28.846 0 1 .29 1c-2.52 2.84-7.55 7.56-11.65 10.83-10.2 8.12-19.47 15.75-31.1 23.67q-17.6 11.99-21.98 14.89c-15.4 10.21-33.29 19.84-54.61 30.36q-23.27 11.48-42.85 18.45-22.33 7.94-36.52 12.48c-10.58 3.38-21.63 5.49-32.55 8.18q-7.64 1.89-14.3 3c-5.9.99-11.93 2.34-19.21 3.27-9.93 1.28-21.08 3.13-31.97 3.98-37.83 2.95-75.61 3.37-113.35-2.15-8.36-1.23-17.8-2.19-26.87-3.78q-33.29-5.83-66.27-16.27-5.88-1.86-15.85-5.59c-6.79-2.55-14.04-4.73-21.03-7.75q-28.91-12.46-33.89-15.04-30.43-15.77-47.28-26.29-11.78-7.35-31.44-21.3-18.19-12.9-35.56-27.97-6.82-5.91-11.16-10.08c-5.98-5.75-9.85-8.89-14.86-14.03q-23.2-23.8-34.89-38.21c-9.03-11.13-21.35-26.71-31.09-41.29-11.15-16.7-20.37-32.27-29.47-49.78q-8.04-15.45-9.82-19.02-5.48-11.01-13.34-30.16-5.16-12.58-14.98-41.23-1.47-4.27-5.74-21.19-1.84-7.28-5.25-22.39-2.69-11.89-4.53-22.51-6.72-38.62-7.55-80.89-.05-2.55.26-4.37a1.9 1.897-85.142 0 1 1.87-1.58zm-184.63 166.65q-1.2-3.36-1.18-4.4.18-12.68 7.98-23.1c1.89-2.52 3.96-2.99 6.7-1.5q2.96 1.62 4.67 2.68c4.38 2.7 9.2 3.31 13.8 1.19 1.95-.89 4.92-3.57 6.52-4.95 1.74-1.5 3.56-1.95 5.57-.71 3.34 2.06 7.64 5.76 12.04 4.19q3.59-1.28 6.52-1.86a2.177 2.171 78.297 0 1 2.55 1.68c.75 3.57-5.7 10.6-6.97 15.33-2.19 8.16-2.47 17.25-1.17 25.17.76 4.67 4.24 10.1 9.52 9.5a2.926 2.924 3.208 0 0 2.53-2.26q.62-2.75.15-5.8-.68-4.42-1.3-9.71-.96-8.09 2.71-16.97c3.18-7.7 5.93-12.69 7.25-19.08 1.29-6.25 2.83-12.9-2.68-17.31q-2.32-1.85-6.03-1.85c-6.51 0-8.53 3.59-12.12 8.24-2.56 3.32-5.1 2.92-6.75-1.21-1.66-4.14-3.27-7.98-8.79-6.93-5.3 1.01-7.95 4.95-11.84 9.89q-1.54 1.96-3.06 2.77a2.448 2.445 53.06 0 1-2.88-.41c-3.99-3.89-6.9-9.85-13.29-6.3-9.75 5.42-17.49 13.85-20.16 25.06-1.28 5.39-2.5 13.38-1.24 19.1 1.04 4.78 3.91 7.39 7.84 10.46 2.14 1.67 3.91 3.93 3.87 6.26q-.3 16.96-1.79 29.66c-1.16 9.84-3.52 18.32-5.75 27.83q-1 4.23 3.15 5.03a1.304 1.262-54.906 0 0 .94-.18q2.21-1.45 2.89-3.66c3.09-10.02 5.55-16.28 7.36-24.59q1.87-8.62 2.08-10.34 1.36-11.09 1.59-24.53c.08-4.76-2.13-11.12-6.62-13.41q-.07-.03-3.98-2.23a1.405 1.366 5.776 0 1-.63-.75m172.98 64.09a.35.348-70.462 0 1 .26.55l-4.89 6.87a.677.644-21.788 0 0-.11.24c-2.33 8.13 6.67 10.41 12.68 9.42q11.41-1.87 18.83-9.53c9.21-9.52 4.61-18.12-1.11-27.59q-1.68-2.78.58-3.52c5.08-1.66 8.85-2.81 11.5-7.83q1.27-2.4 1.27-8.29 0-2.43.37-8.52-.91-4.76-1.87-11.58c-1.42-10.05-.8-19.97 10.39-23.61q2.79-.9 6.25-1.83a4.014 4.004 3.852 0 0 2.65-2.31c2-4.68-.17-7.42-4.82-8.35-5.57-1.1-10.44-.92-14.13 4.16q-3.93 5.4-4.39 6.39-2.43 5.22-1.77 11.9 1.15 11.67 3.99 23.31c1.77 7.26 1.16 13.34-4.03 18.49-5.12 5.09-11.69-2.81-13.75-7.07q-3.21-6.65-3.04-14.24c.09-3.77 2.56-6.3 5.51-8.24 2.11-1.39 2.93-2.83 3.3-5.24q.4-2.64 1.1-6.85a5.066 4.835-31.134 0 1 .25-.92q1.95-5.23 3.07-10.76.88-4.31-.65-7.62-4.54-9.83-15.8-11.21-9.69-1.2-24.24.67-6.01.77-11.04 4.72c-7.23 5.67-1.92 9.53 1.02 15.08a1.398 1.395 77.637 0 1-1.31 2.05q-2.58-.15-5.05-2.56-2.22-2.17-6.84-7.31c-4.55-5.07-10.24-4.92-16.56-4.32q-5.34.51-6.91 4.84c-1.21 3.32.94 7.46 2.82 10q6.07 8.16 12.7 15.8 3.36 3.86-1.12 6.57-6.79 4.11-9.32 5.46c-3.59 1.91-7.16 8.03-2.29 11.4q7.48 5.17 10.68 10.61a3.774 3.756 2.15 0 0 1.1 1.18c3.73 2.6 6.36 1.27 7.73-2.5 1.47-4.06 3.27-7.2 8.39-6.39 3.31.53 6.53 2.46 4.48 6.11q-2.18 3.86-4.8 10.28a3.931 3.914 8.753 0 1-3.33 2.43q-8.62.65-10.24.86c-6.65.86-4.71 10.31-3.93 15.42q.7 4.61 4.5 4.92 6.77.56 13.58 3 5.3 1.9 7.24 1.92 8.45.11 15.37-4.67 2.86-1.98 5.73-1.79m-184.2 57.41q18.97-16.48 29.83-24.58c7.43-5.54 17.18-10.25 25.39-15.79 6.3-4.25 14.63-9.8 21.06-11.87q12.78-4.1 25.17 1.73 20.89 9.84 48.12 24.38.88.46 6.03 3.93a8.186 8.092-3.906 0 1 1.45 1.25q5.54 6.04 12.56 10.53c14.67 9.36 26.28 18.14 35.04 30.54 3.92 5.54 6.95 8.76 13.41 7.07 9.96-2.59 10.93-13.71 4.38-20.26q-2.97-2.98-4-3.69c-7.25-5.06-11-7.55-17.27-12.76q-2.16-1.79-14.9-11.82-25.63-20.16-35.74-27.1c-4.62-3.17-7.48-4.74-10.56-6.83q-2.93-1.98-8.24-4.54-9.1-4.38-12.32-5.87-13.07-6.09-26.17-8.05-10.79-1.62-18.64 5.43-13.77 12.36-19.96 17.51-2.06 1.71-5.49 4.01-8.31 5.55-23.05 14.9c-2.5 1.58-4.91 3.57-6.93 5.39q-6.56 5.89-18.6 16.08-2.83 2.39-6.34 4.74c-3.41 2.28-9.11 5.56-9.89 8.38-1.05 3.81 2.08 6.36 5.68 4.38 3.13-1.71 7.7-5.11 9.98-7.09m125.07 34.83q.79-2.91.51-3.92-9.42-33.16-27.25-61.03c-7.35-11.49-18.03-20.41-30.61-9.1q-7.64 6.88-12.73 15.69-5.78 9.99-8.92 17.46-4.62 11.01-3.63 23.9c.37 4.92 1.02 9.18 3.5 12.64 1.33 1.85 4.88 2.48 5.56-.46q.3-1.26.23-2.87-.37-7.69-.73-15.23c-.62-12.92 6.68-22.33 15.3-31.24 6.39-6.6 14.28-4.79 19.83 1.64q6.71 7.78 11.91 16.59 8.95 15.17 15.09 31.13.66 1.72 3.83 6.01a2.505 2.387 85.854 0 0 .76.69q4.02 2.35 6.91-1.05a2.301 2.143 74.399 0 0 .44-.85m31.72-47.21q-4.65 1.38-7.43 5.56-3.37 5.05-6.09 12.1c-2.52 6.52-5.53 13.56-6.8 17.52q-1.17 3.66-.73 8.78a1.472 1.458-75.851 0 0 .65 1.1q3.07 2.02 4.79-.64 2.65-4.12 3.64-8.53 1.37-6.16 2.24-7.82 2.22-4.28 4.48-7.35c5.9-8.02 12.94 6.15 14.59 10.71q4.54 12.54 8.74 23.78c1.57 4.19 4.47 9.65 8.52 11.78a2.124 2.111-32.835 0 0 1.13.24c9.48-.65 4.7-14.34 3.22-19.36q-5.4-18.42-16.67-35.15-2.66-3.94-6.81-8.77c-1.72-1.99-4.73-4.77-7.47-3.95m-118.97 55.71 1.13-.75a.877.83 84.616 0 0 .36-.46q1.11-3.23.66-5.19-3.8-16.52-7.41-29.73-2.35-8.58-7.61-15.99a2.355 2.332 84.84 0 0-.89-.75c-3.14-1.54-5.22 1.03-7.65 3.43q-3.09 3.05-5.17 6.41-6.99 11.27-10.39 22.39-.84 2.74-.15 5.12a2.31 2.188 66.913 0 0 3.27 1.42c3.1-1.86 4.6-8.4 5.73-11.94q.76-2.36 6.33-11.66c.98-1.63 3.17-3.58 4.91-1.67q3.44 3.78 6.05 9.49.72 1.57 2.27 10.97 1.26 7.57 3.29 13.76 1.23 3.73 3.39 5.16a1.722 1.712-45.152 0 0 1.88-.01"></path><path fill="#5b3e17" fill-rule="evenodd" d="M696.24 937.34a.401.398 10.703 0 1 .62-.42q4.64 3.33 9.71 6.03 32.12 17.09 69.08 26.87 33.9 8.98 68.91 8.52 10.01-.12 28.94-2.89 19.81-2.89 38.82-10.97a1.25 1.25-82.942 0 1 1.64.66l20.74 48.37a1.197 1.193-21.8 0 1-.68 1.58c-14.17 5.35-28.95 9.66-43.93 12q-26.21 4.1-55.84 3.01-23.48-.87-43.99-5.89-33.57-8.23-63.07-25.14c-1.86-1.06-3.19-2.08-4.46-3.86q-18.83-26.31-26.49-57.87"></path><path fill="#0d4d8f" fill-rule="evenodd" d="M492.04 1053.36q3.91 2.2 3.98 2.23c4.49 2.29 6.7 8.65 6.62 13.41q-.23 13.44-1.59 24.53-.21 1.72-2.08 10.34c-1.81 8.31-4.27 14.57-7.36 24.59q-.68 2.21-2.89 3.66a1.304 1.262-54.906 0 1-.94.18q-4.15-.8-3.15-5.03c2.23-9.51 4.59-17.99 5.75-27.83q1.49-12.7 1.79-29.66c.04-2.33-1.73-4.59-3.87-6.26-3.93-3.07-6.8-5.68-7.84-10.46-1.26-5.72-.04-13.71 1.24-19.1 2.67-11.21 10.41-19.64 20.16-25.06 6.39-3.55 9.3 2.41 13.29 6.3a2.448 2.445 53.06 0 0 2.88.41q1.52-.81 3.06-2.77c3.89-4.94 6.54-8.88 11.84-9.89 5.52-1.05 7.13 2.79 8.79 6.93 1.65 4.13 4.19 4.53 6.75 1.21 3.59-4.65 5.61-8.24 12.12-8.24q3.71 0 6.03 1.85c5.51 4.41 3.97 11.06 2.68 17.31-1.32 6.39-4.07 11.38-7.25 19.08q-3.67 8.88-2.71 16.97.62 5.29 1.3 9.71.47 3.05-.15 5.8a2.926 2.924 3.208 0 1-2.53 2.26c-5.28.6-8.76-4.83-9.52-9.5-1.3-7.92-1.02-17.01 1.17-25.17 1.27-4.73 7.72-11.76 6.97-15.33a2.177 2.171 78.297 0 0-2.55-1.68q-2.93.58-6.52 1.86c-4.4 1.57-8.7-2.13-12.04-4.19-2.01-1.24-3.83-.79-5.57.71-1.6 1.38-4.57 4.06-6.52 4.95-4.6 2.12-9.42 1.51-13.8-1.19q-1.71-1.06-4.67-2.68c-2.74-1.49-4.81-1.02-6.7 1.5q-7.8 10.42-7.98 23.1-.02 1.04 1.18 4.4a1.405 1.366 5.776 0 0 .63.75M664.39 1116.7q-2.87-.19-5.73 1.79-6.92 4.78-15.37 4.67-1.94-.02-7.24-1.92-6.81-2.44-13.58-3-3.8-.31-4.5-4.92c-.78-5.11-2.72-14.56 3.93-15.42q1.62-.21 10.24-.86a3.931 3.914 8.753 0 0 3.33-2.43q2.62-6.42 4.8-10.28c2.05-3.65-1.17-5.58-4.48-6.11-5.12-.81-6.92 2.33-8.39 6.39-1.37 3.77-4 5.1-7.73 2.5a3.774 3.756 2.15 0 1-1.1-1.18q-3.2-5.44-10.68-10.61c-4.87-3.37-1.3-9.49 2.29-11.4q2.53-1.35 9.32-5.46 4.48-2.71 1.12-6.57-6.63-7.64-12.7-15.8c-1.88-2.54-4.03-6.68-2.82-10q1.57-4.33 6.91-4.84c6.32-.6 12.01-.75 16.56 4.32q4.62 5.14 6.84 7.31 2.47 2.41 5.05 2.56a1.398 1.395 77.637 0 0 1.31-2.05c-2.94-5.55-8.25-9.41-1.02-15.08q5.03-3.95 11.04-4.72 14.55-1.87 24.24-.67 11.26 1.38 15.8 11.21 1.53 3.31.65 7.62-1.12 5.53-3.07 10.76a5.066 4.835-31.134 0 0-.25.92q-.7 4.21-1.1 6.85c-.37 2.41-1.19 3.85-3.3 5.24-2.95 1.94-5.42 4.47-5.51 8.24q-.17 7.59 3.04 14.24c2.06 4.26 8.63 12.16 13.75 7.07 5.19-5.15 5.8-11.23 4.03-18.49q-2.84-11.64-3.99-23.31-.66-6.68 1.77-11.9.46-.99 4.39-6.39c3.69-5.08 8.56-5.26 14.13-4.16 4.65.93 6.82 3.67 4.82 8.35a4.014 4.004 3.852 0 1-2.65 2.31q-3.46.93-6.25 1.83c-11.19 3.64-11.81 13.56-10.39 23.61q.96 6.82 1.87 11.58-.37 6.09-.37 8.52 0 5.89-1.27 8.29c-2.65 5.02-6.42 6.17-11.5 7.83q-2.26.74-.58 3.52c5.72 9.47 10.32 18.07 1.11 27.59q-7.42 7.66-18.83 9.53c-6.01.99-15.01-1.29-12.68-9.42a.677.644-21.788 0 1 .11-.24l4.89-6.87a.35.348-70.462 0 0-.26-.55m-37.82-10.94a1.231 1.228 61.334 0 0-.63 2.16q1.78 1.51 4.01 2.4 9.44 3.76 12.84 4.56c7.28 1.72 11.38-5.44 11.29-11.72-.04-2.48.24-4.92 2.53-5.77q5.17-1.93 7.81 1.54c1.38 1.81 1.54 5.47 2.21 7.59a1.726 1.704 11.516 0 0 .53.79q3.26 2.74 6.16.26a3.853 3.809-3.484 0 0 .6-.67c4.47-6.47 7.14-14.49 4.12-22.16q-3.98-10.13-5.71-17.53-1.61-6.89-.83-19.47c.41-6.65 8.32-6.11 9.62-12.07q.57-2.62-.11-6.44-.99-5.57-6.84-6.1-4.57-.42-12.6.11-3.67.23-4.59 3.26-1.85 6.11-2.42 7.81c-1.96 5.91-5.91 9.09-11.54 13.46-3.02 2.34-6.44.84-8.96-1.49q-6.5-6.05-12.16-14.09-1.82-2.59-4.33-3.65a1.573 1.508-69.578 0 0-2.05.99q-.48 1.48.45 2.8 5.05 7.19 11.45 14.24c3.88 4.29 7.87 9.58 3.49 14.8-1.8 2.14-7.57 4.73-10.07 6.37a2.94 2.938-35.579 0 0-.71 4.27l.06.07a4.022 4.014 57.27 0 0 4.99 1.09q5.43-2.77 9.34-7.06a2.493 2.391 8.044 0 1 .75-.54q2.89-1.32 5.35 1.09c5.92 5.8 12.03 10.74 16.95 16.8q1.65 2.04-1.03 3.21-3.53 1.55-5.94 2.28a2.968 2.847-71.54 0 0-.97.51q-3.43 2.8-3.08 7.12.57 7.18.25 10.34-.34 3.22-3.84 2.48a2.448 2.331 64.843 0 1-.72-.28q-7.41-4.43-15.67-3.36m53.25 19.11c5.34-3.42 7.25-10.34 4.18-15.57a2.314 2.045 58.134 0 0-3.04-.91q-1 .67-1.35 2.22-1.88 8.17-6.28 12.15-1.21 1.1-1.33 2.88a1.584 1.433-86.183 0 0 1.32 1.67c2.5.19 4.08-.9 6.5-2.44"></path><path fill="#5b3e17" fill-rule="evenodd" d="M737.86 1012.66q.48-.07 1.07.17 16.12 6.59 16.67 6.82 22.74 9.33 47.16 15.09 37.65 8.87 76.23 6.15 16.98-1.21 30.67-4.35 16.14-3.72 29.67-8.87a.805.799-18.868 0 1 1.05.51l11.69 37.58a1.317 1.306 68.995 0 1-.7 1.59c-10.17 4.7-21.43 7.21-33.92 9.67-18.13 3.58-35.99 3.89-53.2 2.16-9.23-.93-20.14-2.34-30.42-5.14q-57.16-15.54-96.26-60.61a.469.469-24.381 0 1 .29-.77"></path><path fill="#b81218" fill-rule="evenodd" d="M626.57 1105.76q8.26-1.07 15.67 3.36a2.448 2.331 64.843 0 0 .72.28q3.5.74 3.84-2.48.32-3.16-.25-10.34-.35-4.32 3.08-7.12a2.968 2.847-71.54 0 1 .97-.51q2.41-.73 5.94-2.28 2.68-1.17 1.03-3.21c-4.92-6.06-11.03-11-16.95-16.8q-2.46-2.41-5.35-1.09a2.493 2.391 8.044 0 0-.75.54q-3.91 4.29-9.34 7.06a4.022 4.014 57.27 0 1-4.99-1.09l-.06-.07a2.94 2.938-35.579 0 1 .71-4.27c2.5-1.64 8.27-4.23 10.07-6.37 4.38-5.22.39-10.51-3.49-14.8q-6.4-7.05-11.45-14.24-.93-1.32-.45-2.8a1.573 1.508-69.578 0 1 2.05-.99q2.51 1.06 4.33 3.65 5.66 8.04 12.16 14.09c2.52 2.33 5.94 3.83 8.96 1.49 5.63-4.37 9.58-7.55 11.54-13.46q.57-1.7 2.42-7.81.92-3.03 4.59-3.26 8.03-.53 12.6-.11 5.85.53 6.84 6.1.68 3.82.11 6.44c-1.3 5.96-9.21 5.42-9.62 12.07q-.78 12.58.83 19.47 1.73 7.4 5.71 17.53c3.02 7.67.35 15.69-4.12 22.16a3.853 3.809-3.484 0 1-.6.67q-2.9 2.48-6.16-.26a1.726 1.704 11.516 0 1-.53-.79c-.67-2.12-.83-5.78-2.21-7.59q-2.64-3.47-7.81-1.54c-2.29.85-2.57 3.29-2.53 5.77.09 6.28-4.01 13.44-11.29 11.72q-3.4-.8-12.84-4.56-2.23-.89-4.01-2.4a1.231 1.228 61.334 0 1 .63-2.16"></path><path fill="#0d4d8f" fill-rule="evenodd" d="M480.19 1174.11c-2.28 1.98-6.85 5.38-9.98 7.09-3.6 1.98-6.73-.57-5.68-4.38.78-2.82 6.48-6.1 9.89-8.38q3.51-2.35 6.34-4.74 12.04-10.19 18.6-16.08c2.02-1.82 4.43-3.81 6.93-5.39q14.74-9.35 23.05-14.9 3.43-2.3 5.49-4.01 6.19-5.15 19.96-17.51 7.85-7.05 18.64-5.43 13.1 1.96 26.17 8.05 3.22 1.49 12.32 5.87 5.31 2.56 8.24 4.54c3.08 2.09 5.94 3.66 10.56 6.83q10.11 6.94 35.74 27.1 12.74 10.03 14.9 11.82c6.27 5.21 10.02 7.7 17.27 12.76q1.03.71 4 3.69c6.55 6.55 5.58 17.67-4.38 20.26-6.46 1.69-9.49-1.53-13.41-7.07-8.76-12.4-20.37-21.18-35.04-30.54q-7.02-4.49-12.56-10.53a8.186 8.092-3.906 0 0-1.45-1.25q-5.15-3.47-6.03-3.93-27.23-14.54-48.12-24.38-12.39-5.83-25.17-1.73c-6.43 2.07-14.76 7.62-21.06 11.87-8.21 5.54-17.96 10.25-25.39 15.79q-10.86 8.1-29.83 24.58"></path><path fill="#b81218" fill-rule="evenodd" d="M684 1109.3c3.07 5.23 1.16 12.15-4.18 15.57-2.42 1.54-4 2.63-6.5 2.44a1.584 1.433-86.183 0 1-1.32-1.67q.12-1.78 1.33-2.88 4.4-3.98 6.28-12.15.35-1.55 1.35-2.22a2.314 2.045 58.134 0 1 3.04.91"></path><path fill="#0d4d8f" fill-rule="evenodd" d="M604.82 1209.79q-2.89 3.4-6.91 1.05a2.505 2.387 85.854 0 1-.76-.69q-3.17-4.29-3.83-6.01-6.14-15.96-15.09-31.13-5.2-8.81-11.91-16.59c-5.55-6.43-13.44-8.24-19.83-1.64-8.62 8.91-15.92 18.32-15.3 31.24q.36 7.54.73 15.23.07 1.61-.23 2.87c-.68 2.94-4.23 2.31-5.56.46-2.48-3.46-3.13-7.72-3.5-12.64q-.99-12.89 3.63-23.9 3.14-7.47 8.92-17.46 5.09-8.81 12.73-15.69c12.58-11.31 23.26-2.39 30.61 9.1q17.83 27.87 27.25 61.03.28 1.01-.51 3.92a2.301 2.143 74.399 0 1-.44.85M636.98 1161.73c2.74-.82 5.75 1.96 7.47 3.95q4.15 4.83 6.81 8.77 11.27 16.73 16.67 35.15c1.48 5.02 6.26 18.71-3.22 19.36a2.124 2.111-32.835 0 1-1.13-.24c-4.05-2.13-6.95-7.59-8.52-11.78q-4.2-11.24-8.74-23.78c-1.65-4.56-8.69-18.73-14.59-10.71q-2.26 3.07-4.48 7.35-.87 1.66-2.24 7.82-.99 4.41-3.64 8.53-1.72 2.66-4.79.64a1.472 1.458-75.851 0 1-.65-1.1q-.44-5.12.73-8.78c1.27-3.96 4.28-11 6.8-17.52q2.72-7.05 6.09-12.1 2.78-4.18 7.43-5.56M518.01 1217.44a1.722 1.712-45.152 0 1-1.88.01q-2.16-1.43-3.39-5.16-2.03-6.19-3.29-13.76-1.55-9.4-2.27-10.97-2.61-5.71-6.05-9.49c-1.74-1.91-3.93.04-4.91 1.67q-5.57 9.3-6.33 11.66c-1.13 3.54-2.63 10.08-5.73 11.94a2.31 2.188 66.913 0 1-3.27-1.42q-.69-2.38.15-5.12 3.4-11.12 10.39-22.39 2.08-3.36 5.17-6.41c2.43-2.4 4.51-4.97 7.65-3.43a2.355 2.332 84.84 0 1 .89.75q5.26 7.41 7.61 15.99 3.61 13.21 7.41 29.73.45 1.96-.66 5.19a.877.83 84.616 0 1-.36.46zM1340.661 1477.405l-90.848 59.994a.84.84 89.75 0 1-1.171-.251l-13.472-21.209a.84.84-62.103 0 1 .258-1.159l7.111-4.521a.84.84-40.926 0 0 .25-1.172l-32.204-48.778a.84.84-46.568 0 0-1.152-.246l-6.366 4.045a.84.84-80.016 0 1-1.152-.247l-13.502-20.44a.84.84-85.276 0 1 .238-1.164l88.558-58.484a.84.84 1.441 0 1 1.164.238l19.041 28.828a.84.84-84.535 0 1-.228 1.157l-22.422 15.281a.84.84-53.794 0 1-1.167-.221l-4.731-6.942a.84.84-41.977 0 0-1.157-.228l-21.36 14.099a.84.84 45.865 0 0-.246 1.152l8.729 13.741a.84.84 9.932 0 0 1.171.251l18.584-12.268a.84.84 39.113 0 1 1.172.25l11.205 17.623a.84.84-75.823 0 1-.236 1.144l-17.584 11.996a.84.84 58.032 0 0-.228 1.157l9.371 14.188a.84.84-74.251 0 0 1.164.238l21.64-14.292a.84.84-81.575 0 0 .246-1.152l-4.204-6.617a.84.84 2.605 0 1 .246-1.151l23.678-15.644a.84.84-89.921 0 1 1.172.251l18.678 29.401a.84.84-59.9 0 1-.246 1.152M534.819 1408.568c8.419 5.226 15.848 11.692 21.549 19.822 10.222 14.58 12.982 32.83 7.472 49.7-5.13 15.69-17.08 29.4-32.163 35.738-19.509 8.195-40.019 4.542-58.063-6.658-18.044-11.201-30.418-27.96-31.731-49.079-1.013-16.329 5.971-33.122 17.755-44.681 12.673-12.424 30.253-18.049 47.855-15.358 9.815 1.501 18.907 5.29 27.326 10.516m-44.125 40.137c-5.8 8.991-16.88 26.972-3.997 35.282 12.883 8.311 24.696-9.196 30.497-18.187s16.879-26.971 3.996-35.282c-12.882-8.311-24.696 9.196-30.496 18.187"></path><path fill="#fff" fill-rule="evenodd" d="M521.19 1430.518c12.883 8.311 1.804 26.291-3.996 35.282-5.801 8.991-17.614 26.498-30.497 18.187s-1.803-26.291 3.997-35.282 17.614-26.498 30.496-18.187"></path><path fill="#0d4d8f" fill-rule="evenodd" d="M630.12 1493.96q-9.04 21.38-14.92 35.28c-3.34 7.9-6.09 14.02-2.53 21.04q2.36 4.65 8.5 5.84c9.16 1.78 13.44-7.36 16.7-14.99q6.83-15.97 15.38-37.98a1.081 1.07 22.161 0 0-.59-1.38l-3.99-1.66a1.291 1.289 22.183 0 1-.7-1.66l8.94-22.87a.533.52 21.505 0 1 .69-.29l40.87 17.06a.24.24-30.25 0 1 .13.31l-9.19 23.5a.88.88 54.106 0 1-1.14.5l-7.83-3.06a.934.931 20.841 0 0-1.21.54q-8.25 21.95-17.35 42.47c-7.07 15.95-20.44 26.66-38.44 25.47-16.01-1.06-34.46-9.49-45.16-21.8-10.71-12.31-10.25-29.69-4.37-44.08q2.71-6.62 16.46-39.86a.336.336 15.088 0 0-.18-.44l-6.53-2.72a.882.879-67.181 0 1-.47-1.16l9.34-22.4a.726.726 11.356 0 1 .95-.39l52.17 21.77a.888.884 22.47 0 1 .48 1.15l-9.24 22.12a.941.94 18.207 0 1-1.09.55l-4.92-1.24a.66.66-88.793 0 0-.76.38M1159.07 1572.09l2.1 5.32a.915.915 14.299 0 1-.51 1.19l-22.8 9.03a1.491 1.486 68.305 0 1-1.94-.84l-12.48-31.5a1.153 1.15 68.519 0 1 .65-1.5l23.58-9.35a.918.902 60.071 0 1 1.04.29q6.09 7.77 15.48 7.85c5.31.04 11.91-2.82 12.49-8.61.63-6.37-6.06-8.86-11.73-9.35q-9.52-.82-26.18-1.2-6.1-.14-14.69-2.5c-6.67-1.82-13.1-6.78-16.82-13.35q-9.87-17.41 1.49-34.87c4.81-7.39 13.4-12.46 21.29-15.7q10.33-4.25 22.35-1.92a.491.489-5.311 0 0 .55-.66l-1.78-4.48a.466.462-22.622 0 1 .25-.6l22.86-9.8a.789.78 66.85 0 1 1.03.42l12.11 28.24a.766.756 66.653 0 1-.39 1l-21.97 9.41a1.974 1.97 56.649 0 1-2.22-.46q-5.53-5.84-13.63-5.44c-4.82.23-12.88 2.76-13.05 8.6-.17 6.36 7.24 7.29 12.1 7.4q6.49.14 22 .71c11.56.42 22.87 2.04 31.19 9.15 12.04 10.3 15.44 26.56 8.55 41.14-7.92 16.75-32.87 26.56-50.29 21.68a.525.524-3.09 0 0-.63.7M1062.17 1554.91a.4.399-74.838 0 0 .66-.38l-6.72-30.69a.665.661 78.338 0 0-.77-.51l-8.11 1.59a.724.718-11.547 0 1-.84-.55l-5.23-23.89a1.136 1.124-12.613 0 1 .86-1.34l42.96-9.41a.718.708-12.179 0 1 .85.54l5.37 24.54a.777.767-12.689 0 1-.59.92l-7.7 1.68a.84.84 38.802 0 0-.64 1l18.34 83.73a1.005.999 78.524 0 1-.79 1.2l-35.07 6.88a1.742 1.73 60.948 0 1-1.52-.44l-60.17-56.03a.293.288 19.421 0 0-.49.23q.02.23.14.82 3.51 17.84 7.9 38.42a.43.43 79.868 0 0 .51.33l8.81-1.93a.934.928-11.722 0 1 1.12.73l4.73 24.13a1.2 1.2 88.616 0 1-.95 1.41l-45.02 8.82a.52.52 26.265 0 1-.61-.41l-4.8-24.47a.835.835 23.823 0 1 .66-.98l8.15-1.6a.743.743-14.313 0 0 .59-.87l-11.23-57.31a.704.704-38.86 0 0-.83-.55l-7.93 1.55a.91.908 78.127 0 1-1.07-.7l-5.2-23.71a.881.877 78.438 0 1 .69-1.05l51.46-10.08a.875.866 60.661 0 1 .77.22zM706.15 1494.35a.184.184-40.439 0 1 .22-.14q23.07 5.22 57.41 11.55 5.14.95 14.27 2.88c8.43 1.78 17.27 3.7 25.03 7.79 17.14 9.03 21.73 31.15 10.77 46.7q-5.52 7.83-14.73 10.75a.735.733-19.7 0 0-.46.97l10.58 26.68a.843.839-3.95 0 0 .6.52l7.28 1.53a.79.79 47.169 0 1 .6.94l-5.19 24.61a.828.822-78.757 0 1-.95.64l-38.89-7.19a1.837 1.833 86.526 0 1-1.42-1.26l-14.57-46.84a3.149 3.136 86.385 0 0-2.43-2.15l-11.24-2.08a.797.793-78.833 0 0-.92.62l-3.68 17.41a.59.59 20.706 0 0 .46.7l8.14 1.72a.687.685-77.962 0 1 .53.82l-5.15 24.38a.786.786 50.894 0 1-.93.61l-58.87-12.43a.716.714 11.868 0 1-.55-.84l5.08-24.03a1.265 1.257-77.985 0 1 1.5-.98l7.41 1.56a.93.93 50.917 0 0 1.1-.72l11.99-56.78a.825.818 13.514 0 0-.6-.97l-8.04-2.02a.609.599-76.542 0 1-.44-.73zm44.757 34.626-3.807 19.227a.68.68-83.674 0 0 .535.799l14.891 2.949a11.84 10.01 11.2 0 0 13.559-7.52l.183-.922a11.84 10.01 11.2 0 0-9.671-12.119l-14.891-2.948a.68.68 23.584 0 0-.799.534M890.092 1544.58l.085 16.76a.49.49 16.254 0 0 .493.488l21.94-.106a.49.49 37.878 0 1 .492.488l.106 21.74a.49.49-57.679 0 1-.488.492l-22.14.106a.49.49-79.573 0 0-.488.492l.086 18.23a.49.49 62.36 0 0 .492.488l26.57-.126a.49.49 14.954 0 0 .488-.492l-.046-9.03a.49.49-51.37 0 1 .488-.492l28.96-.146a.49.49 27.782 0 1 .492.488l.176 35.66a.49.49 46.409 0 1-.488.492l-108.56.536a.49.49-59.278 0 1-.492-.488l-.126-25.3a.49.49-50.632 0 1 .488-.493l8.67-.044a.49.49-14.407 0 0 .488-.493l-.286-59.34a.49.49 1.894 0 0-.492-.487l-8.18.044a.49.49-17.183 0 1-.492-.487l-.116-25a.49.49 37.475 0 1 .488-.492l107.53-.526a.49.49-49.579 0 1 .492.488l.176 34.82a.49.49-58.059 0 1-.488.493l-27.95.144a.49.49-31.311 0 1-.493-.487l-.044-8.56a.49.49.212 0 0-.493-.487l-26.85.135a.49.49-44.874 0 0-.488.492"></path><path fill="#fff" fill-rule="evenodd" d="M750.907 1528.976a.68.68 42.63 0 1 .799-.534l14.891 2.948a11.84 10.01 11.2 0 1 9.671 12.119l-.183.922a11.84 10.01 11.2 0 1-13.559 7.52l-14.891-2.949a.68.68-38.67 0 1-.535-.799z" data-source="https://football-logos.cc"></path><!-- source: https://football-logos.cc --></svg>