<svg xmlns="http://www.w3.org/2000/svg" viewBox="456 190.5 1754.67 2285.67"><!-- Source: https://football-logos.cc --><defs data-source="https://football-logos.cc"><clipPath id="a" clipPathUnits="userSpaceOnUse"><path d="M-1626.782 1432.844h2000v-2000h-2000Z"></path></clipPath><clipPath id="b" clipPathUnits="userSpaceOnUse"><path d="M-1626.782 183.488h2000v-2000h-2000Z"></path></clipPath><clipPath id="c" clipPathUnits="userSpaceOnUse"><path d="M-1449.994 512.55h2000v-2000h-2000Z"></path></clipPath><clipPath id="d" clipPathUnits="userSpaceOnUse"><path d="M-1443.299 446.052h2000v-2000h-2000Z"></path></clipPath><clipPath id="e" clipPathUnits="userSpaceOnUse"><path d="M-1512.634 560.355h2000v-2000h-2000Z"></path></clipPath><clipPath id="f" clipPathUnits="userSpaceOnUse"><path d="M-694.8 966.09h2000v-2000h-2000Z"></path></clipPath><clipPath id="g" clipPathUnits="userSpaceOnUse"><path d="M-1188.466 1258.062h2000v-2000h-2000Z"></path></clipPath><clipPath id="h" clipPathUnits="userSpaceOnUse"><path d="M-1143.499 966.874h2000v-2000h-2000Z"></path></clipPath><clipPath id="i" clipPathUnits="userSpaceOnUse"><path d="M-1149.321 1095.807h2000v-2000h-2000Z"></path></clipPath><clipPath id="j" clipPathUnits="userSpaceOnUse"><path d="M-1149.321 1050.79h2000v-2000h-2000Z"></path></clipPath><clipPath id="k" clipPathUnits="userSpaceOnUse"><path d="M0 2000h2000V0H0Z"></path></clipPath><clipPath id="l" clipPathUnits="userSpaceOnUse"><path d="M0 2000h2000V0H0Z"></path></clipPath><clipPath id="m" clipPathUnits="userSpaceOnUse"><path d="M-875.014 1050.79h2000v-2000h-2000Z"></path></clipPath><clipPath id="n" clipPathUnits="userSpaceOnUse"><path d="M-979.628 1131.722h2000v-2000h-2000Z"></path></clipPath><clipPath id="o" clipPathUnits="userSpaceOnUse"><path d="M-1060.267 1131.722h2000v-2000h-2000Z"></path></clipPath><clipPath id="p" clipPathUnits="userSpaceOnUse"><path d="M0 2000h2000V0H0Z"></path></clipPath><clipPath id="q" clipPathUnits="userSpaceOnUse"><path d="M0 2000h2000V0H0Z"></path></clipPath><clipPath id="r" clipPathUnits="userSpaceOnUse"><path d="M0 2000h2000V0H0Z"></path></clipPath><clipPath id="s" clipPathUnits="userSpaceOnUse"><path d="M0 2000h2000V0H0Z"></path></clipPath><clipPath id="t" clipPathUnits="userSpaceOnUse"><path d="M-1103.717 560.355h2000v-2000h-2000Z"></path></clipPath><clipPath id="u" clipPathUnits="userSpaceOnUse"><path d="M-1103.717 1425.455h2000v-2000h-2000Z"></path></clipPath><clipPath id="v" clipPathUnits="userSpaceOnUse"><path d="M-671.167 507.656h2000v-2000h-2000Z"></path></clipPath><clipPath id="w" clipPathUnits="userSpaceOnUse"><path d="M-848.444 514.31h2000v-2000h-2000Z"></path></clipPath><clipPath id="x" clipPathUnits="userSpaceOnUse"><path d="M-849.912 289.864h2000v-2000h-2000Z"></path></clipPath><clipPath id="y" clipPathUnits="userSpaceOnUse"><path d="M-1119.57 513.332h2000v-2000h-2000Z"></path></clipPath><clipPath id="z" clipPathUnits="userSpaceOnUse"><path d="M-1267.099 492.047h2000v-2000h-2000Z"></path></clipPath><clipPath id="A" clipPathUnits="userSpaceOnUse"><path d="M-1267.099 492.047h2000v-2000h-2000Z"></path></clipPath><clipPath id="B" clipPathUnits="userSpaceOnUse"><path d="M-1385.61 446.052h2000v-2000h-2000Z"></path></clipPath></defs><path d="M0 0c-309.44-328.866-626.807-383.668-626.807-383.668S-944.173-328.866-1253.613 0v1249.356H0Zm-1284.782 1289.969V-21.53c324.804-345.257 657.975-402.751 657.975-402.751S-293.635-366.787 31.218-21.53v1311.499z" clip-path="url(#a)" style="fill:#fcbc0b;fill-opacity:1;fill-rule:nonzero;stroke:none" transform="matrix(1.33333 0 0 -1.33333 2169.043 1910.458)"></path><path d="M0 0v-1249.356c-309.44-328.865-626.807-383.668-626.807-383.668s-317.366 54.803-626.806 383.668V0Z" clip-path="url(#b)" style="fill:#e73a47;fill-opacity:1;fill-rule:nonzero;stroke:none" transform="matrix(1.33333 0 0 -1.33333 2169.043 244.65)"></path><path d="M0 0c1.272.147 2.496.343 3.572.636 7.731 1.811 11.939 10.178 9.003 17.566L-3.23 57.788h-64.588l-15.267-38.412C-88.076 4.355-71.243 0-71.243 0h-52.65c6.263.539 10.667 2.496 13.602 4.453 2.789 1.859 4.893 4.502 6.215 7.584l74.081 171.895L42.276 20.845c1.371-3.131 3.132-6.166 5.334-8.808C57.396.441 67.427 0 68.846 0Zm62.631-992.908-.147-.147c-3.963-3.719-81.029-75.5-203.993-149.827-1.908-1.174-3.816-2.349-5.773-3.474v407.546c21.138 43.989 32.979 93.214 32.979 145.277s-11.841 101.287-32.979 145.227v400.5H62.631Zm-215.491 288.84c-.49-1.419-.979-2.74-1.517-4.111a168 168 0 0 0-2.789-6.801c-.636-1.615-1.322-3.18-2.007-4.746a137 137 0 0 0-2.104-4.747c-.098-.244-.195-.489-.342-.734-.881-1.957-1.713-3.865-2.691-5.773a260 260 0 0 0-3.181-6.41c-2.593-5.138-5.333-10.129-8.171-15.022a194 194 0 0 0-3.181-5.383c-.783-1.272-1.566-2.544-2.349-3.767a137 137 0 0 0-2.838-4.453 218 218 0 0 0-7.486-11.01c-1.468-2.055-2.936-4.11-4.501-6.165-.979-1.37-2.007-2.691-3.035-4.012-.049-.098-.147-.147-.196-.245-1.125-1.468-2.25-2.936-3.473-4.404a162 162 0 0 0-4.551-5.529 120 120 0 0 0-3.376-3.963c-.441-.538-.93-1.077-1.37-1.566a81 81 0 0 0-3.376-3.768 126 126 0 0 0-3.523-3.816 373 373 0 0 0-4.306-4.502c-1.419-1.468-2.888-2.887-4.355-4.355a206 206 0 0 0-6.704-6.41c-2.25-2.104-4.55-4.159-6.85-6.214-1.566-1.37-3.132-2.691-4.697-4.012-1.958-1.713-3.963-3.328-5.97-4.943l-.587-.44c-1.028-.783-2.055-1.615-3.034-2.397-1.81-1.419-3.572-2.789-5.431-4.111a125 125 0 0 0-4.844-3.571 210 210 0 0 0-5.383-3.768c-1.468-.979-2.985-2.006-4.501-2.985a157 157 0 0 0-5.187-3.376c-1.615-1.028-3.23-2.056-4.893-3.034a87 87 0 0 0-4.013-2.398l-.293-.146c-1.224-.735-2.447-1.419-3.67-2.104-.342-.196-.636-.392-.979-.588a97 97 0 0 0-3.082-1.712c-.245-.147-.49-.245-.734-.392-4.649-2.593-9.395-4.991-14.19-7.29-2.153-1.077-4.306-2.056-6.509-3.083-1.907-.832-3.816-1.713-5.724-2.496l-4.111-1.761c-.537-.245-1.125-.44-1.663-.636-1.762-.783-3.523-1.468-5.334-2.153-.44-.196-.929-.343-1.419-.539a273 273 0 0 0-6.703-2.446 262 262 0 0 0-8.71-2.936 93 93 0 0 0-3.425-1.125c-2.349-.685-4.648-1.419-7.046-2.055-2.153-.637-4.355-1.224-6.556-1.811-5.383-1.419-10.815-2.642-16.295-3.767-2.446-.539-4.893-.979-7.339-1.42-.343-.049-.685-.146-.979-.195-2.397-.392-4.844-.832-7.291-1.174-1.811-.294-3.669-.539-5.529-.784a40 40 0 0 0-3.376-.44c-1.762-.244-3.523-.44-5.334-.636a180 180 0 0 0-5.333-.489c-1.321-.147-2.594-.245-3.866-.343-1.664-.147-3.327-.244-4.991-.342-2.201-.147-4.403-.294-6.605-.343a191 191 0 0 0-5.383-.196c-2.593-.048-5.236-.097-7.878-.097-2.691 0-5.431.049-8.122.097-1.811.049-3.621.098-5.431.196q-2.717.074-5.432.294c-3.523.195-6.997.44-10.471.783-1.37.098-2.789.244-4.159.391-3.132.343-6.263.685-9.346 1.125-1.81.245-3.572.49-5.334.784-2.25.342-4.452.685-6.703 1.076-.881.147-1.811.342-2.691.489-2.055.392-4.159.783-6.215 1.224-2.544.489-5.137 1.076-7.682 1.663a178 178 0 0 0-7.34 1.762c-.097.049-.195.049-.293.098a302 302 0 0 0-14.826 4.208c-1.468.44-2.985.929-4.453 1.419-.049 0-.098.049-.147.049-1.712.538-3.376 1.076-5.089 1.712-9.394 3.229-18.593 6.948-27.596 11.01-2.056.929-4.062 1.908-6.068 2.887-2.349 1.076-4.648 2.25-6.899 3.425a274 274 0 0 0-13.456 7.29 181 181 0 0 0-6.606 3.915c-1.664.978-3.278 2.006-4.942 3.034l-.44.293c-1.175.783-2.349 1.517-3.523 2.3-1.273.832-2.594 1.664-3.866 2.544-2.447 1.664-4.893 3.328-7.242 5.04a361 361 0 0 0-5.284 3.866c-1.37 1.027-2.692 2.006-3.964 2.985-.195.147-.391.293-.587.489a189 189 0 0 0-3.67 2.887c-1.663 1.272-3.278 2.642-4.893 4.012a225 225 0 0 0-8.22 7.095c-2.055 1.762-4.062 3.621-6.068 5.53-.978.88-1.957 1.81-2.887 2.691l-.44.44a319 319 0 0 0-5.725 5.725 189 189 0 0 0-4.355 4.502c-2.936 3.082-5.725 6.214-8.514 9.394l-1.761 2.056a38 38 0 0 0-1.762 2.055l-.049.049c-.098.097-.196.244-.293.342a567 567 0 0 0-5.089 6.214c-1.028 1.321-2.055 2.594-3.034 3.915-1.468 1.859-2.936 3.767-4.257 5.676a73 73 0 0 0-2.495 3.376 246 246 0 0 0-4.404 6.312 36 36 0 0 0-1.517 2.251c-.538.783-1.077 1.566-1.566 2.3-.049.098-.098.147-.147.244a7 7 0 0 1-.44.636c-1.076 1.713-2.202 3.426-3.278 5.187a317 317 0 0 0-3.279 5.383c-1.076 1.859-2.153 3.669-3.229 5.529-2.545 4.403-4.942 8.954-7.291 13.505-.832 1.712-1.713 3.474-2.544 5.186-.685 1.468-1.419 2.887-2.056 4.355-.88 1.762-1.663 3.572-2.446 5.383a295 295 0 0 0-2.544 5.872 273 273 0 0 0-4.698 11.939 128 128 0 0 0-2.202 6.067 128 128 0 0 0-2.055 6.116l-1.908 6.019c-.636 2.104-1.272 4.208-1.86 6.361l-.146.587c-.93 3.23-1.762 6.459-2.545 9.737-.734 2.936-1.419 5.872-2.006 8.857a48 48 0 0 0-.636 2.838 289 289 0 0 0-1.762 9.346c-.587 3.425-1.174 6.899-1.614 10.422-.049.147-.049.294-.049.489-.245 1.615-.49 3.181-.685 4.795-.245 1.958-.44 3.866-.636 5.823-.098 1.028-.245 2.104-.294 3.181a137 137 0 0 0-.391 4.453 74 74 0 0 0-.245 3.278c-.098 1.713-.245 3.474-.343 5.235-.049 1.762-.146 3.524-.195 5.285-.049.294-.049.636-.049.93a126 126 0 0 0-.098 4.355c-.098 2.104-.098 4.208-.098 6.312s0 4.208.098 6.312c0 1.468.049 2.936.098 4.355 0 .293 0 .636.049.929.049 1.762.146 3.524.195 5.285.098 1.761.245 3.523.343 5.236a72 72 0 0 0 .245 3.229c.098 1.517.244 2.985.391 4.502.049 1.076.196 2.153.294 3.18.196 1.958.391 3.866.636 5.823.195 1.615.44 3.181.685 4.795 0 .196 0 .343.049.49.44 3.474 1.027 6.948 1.614 10.422a289 289 0 0 0 1.762 9.346c.196.929.391 1.81.587 2.74.049.147.049.293.098.44.587 2.838 1.272 5.676 1.957 8.465a227 227 0 0 0 2.594 9.933c.048.147.048.245.097.392.588 2.153 1.224 4.257 1.86 6.361l1.908 6.018a128 128 0 0 0 2.055 6.117 128 128 0 0 0 2.202 6.067 273 273 0 0 0 4.698 11.939 295 295 0 0 0 2.544 5.872c.881 1.957 1.762 3.866 2.642 5.823.637 1.321 1.224 2.593 1.86 3.914.831 1.762 1.712 3.475 2.544 5.187 2.349 4.6 4.746 9.052 7.291 13.505 1.076 1.859 2.153 3.67 3.229 5.48s2.153 3.621 3.279 5.432a198 198 0 0 0 3.425 5.333 140 140 0 0 0 3.474 5.285c1.174 1.761 2.398 3.474 3.621 5.186 2.446 3.425 4.991 6.802 7.584 10.178a340 340 0 0 0 3.866 4.942 108 108 0 0 0 4.257 5.138 318 318 0 0 0 3.865 4.55c1.468 1.664 2.887 3.279 4.355 4.893a210 210 0 0 0 8.514 9.004l4.453 4.452a440 440 0 0 0 8.514 8.025c.244.196.489.391.685.587 3.131 2.888 6.312 5.627 9.541 8.318a362 362 0 0 0 4.991 4.062c1.615 1.321 3.279 2.593 4.893 3.817 1.811 1.468 3.67 2.837 5.578 4.208.098.048.196.146.294.195 3.132 2.3 6.312 4.502 9.493 6.704l5.284 3.523c1.762 1.125 3.572 2.251 5.334 3.376 1.125.734 2.3 1.419 3.425 2.104 1.419.881 2.838 1.713 4.306 2.544.734.441 1.419.833 2.153 1.272a186 186 0 0 0 6.067 3.377c.196.098.343.195.539.293a376 376 0 0 0 6.263 3.279 222 222 0 0 0 10.863 5.284 125 125 0 0 0 5.822 2.643c1.859.832 3.719 1.615 5.627 2.446.343.147.636.294.979.392q3.23 1.394 6.605 2.643c1.126.439 2.251.88 3.377 1.271 2.397.93 4.844 1.811 7.29 2.643a163 163 0 0 0 4.502 1.516c.147.049.343.147.538.196h.049c.049 0 .098.049.147.049s.147.049.196.049c2.398.782 4.746 1.566 7.193 2.251.098.049.244.049.342.098.147.049.343.098.489.147 2.692.782 5.383 1.566 8.123 2.25.44.147.881.294 1.321.392 3.083.831 6.165 1.566 9.248 2.3a298 298 0 0 0 9.053 1.907c1.614.343 3.229.686 4.844.979.88.147 1.81.343 2.691.49 2.251.391 4.453.734 6.703 1.076 1.762.294 3.524.539 5.334.783 3.083.44 6.214.783 9.346 1.126 1.37.146 2.789.293 4.159.391 3.474.342 6.948.587 10.471.783q2.715.22 5.432.293c1.81.099 3.62.147 5.431.196 2.691.049 5.431.098 8.122.098 2.642 0 5.285-.049 7.878-.098 1.811-.049 3.621-.097 5.383-.196 1.369-.048 2.788-.097 4.159-.195h.538c2.153-.147 4.257-.294 6.41-.441 2.642-.196 5.284-.44 7.927-.685.196-.049.391-.049.636-.049 2.495-.293 4.942-.587 7.437-.881 2.642-.342 5.285-.684 7.927-1.125 2.447-.342 4.894-.733 7.291-1.174.294-.049.636-.147.979-.196 2.446-.44 4.893-.881 7.339-1.419.294-.049.636-.098.979-.195 2.251-.441 4.501-.93 6.704-1.468 2.886-.636 5.773-1.37 8.612-2.105 2.201-.587 4.403-1.174 6.556-1.81a167 167 0 0 0 7.046-2.055c10.128-3.132 20.062-6.753 29.701-10.862 2.349-.979 4.649-2.007 6.949-3.035.146-.049.293-.147.439-.196a156 156 0 0 0 6.509-3.082 179 179 0 0 0 6.898-3.425c2.301-1.125 4.552-2.349 6.803-3.572a216 216 0 0 0 5.724-3.181 280 280 0 0 0 10.471-6.263c2.74-1.712 5.432-3.425 8.123-5.235.147-.098.343-.196.489-.294l1.322-.881c2.788-1.908 5.578-3.816 8.269-5.823a243 243 0 0 0 9.101-6.801c.979-.783 2.006-1.615 3.034-2.397l.587-.441c2.007-1.615 4.012-3.229 5.97-4.942 1.565-1.321 3.131-2.642 4.697-4.012 2.3-2.006 4.6-4.11 6.85-6.214 2.3-2.105 4.501-4.208 6.704-6.41a184 184 0 0 0 4.355-4.355c1.468-1.468 2.886-2.985 4.306-4.502a126 126 0 0 0 3.523-3.817 81 81 0 0 0 3.376-3.767c.44-.49.929-1.028 1.37-1.566q1.762-1.981 3.376-3.963a161 161 0 0 0 4.551-5.53c1.223-1.419 2.348-2.935 3.473-4.404.049-.097.147-.146.196-.244 1.028-1.321 2.056-2.642 3.035-4.013 1.565-2.006 3.033-4.061 4.501-6.116 2.055-2.936 4.111-5.872 6.067-8.856.245-.392.538-.783.783-1.224.979-1.517 1.958-2.984 2.887-4.501a144 144 0 0 0 2.839-4.551 476 476 0 0 0 3.914-6.606 273 273 0 0 0 7.29-13.456c1.175-2.25 2.35-4.599 3.426-6.899a144 144 0 0 0 2.935-6.214c.196-.44.441-.93.637-1.37a185 185 0 0 0 2.789-6.459c.342-.832.685-1.615 1.027-2.447.196-.489.392-.929.538-1.418a131 131 0 0 0 1.86-4.649c.587-1.419 1.125-2.887 1.664-4.355a128 128 0 0 0 1.663-4.599c.685-1.86 1.37-3.719 1.957-5.628.686-2.006 1.321-4.012 1.958-6.018a190 190 0 0 0 2.201-7.486c.49-1.664.93-3.328 1.371-4.991.196-.734.391-1.517.587-2.251 1.369-5.138 2.544-10.325 3.621-15.609.44-1.957.783-3.915 1.125-5.872.244-1.174.489-2.398.685-3.572 0-.147.049-.245.049-.392v-.048c.245-1.37.489-2.789.685-4.16.391-2.495.734-4.99 1.076-7.486.294-2.006.539-3.963.735-5.97.244-2.006.44-4.012.636-5.969.391-4.012.685-8.074.93-12.086.146-2.055.244-4.061.293-6.116.146-4.062.244-8.123.244-12.233s-.098-8.172-.244-12.233a129 129 0 0 0-.293-6.116c-.245-4.013-.539-8.074-.93-12.086-.196-1.958-.392-3.964-.636-5.97a124 124 0 0 0-.735-5.969 11 11 0 0 0-.195-1.273 152 152 0 0 0-.637-4.648c-.44-2.887-.929-5.774-1.419-8.612-.439-2.349-.88-4.697-1.369-6.997-.49-2.544-1.077-5.138-1.664-7.682v-.049c-.588-2.545-1.174-5.089-1.86-7.585a264 264 0 0 0-4.256-15.07c-.93-3.034-1.958-6.068-2.986-9.053-.831-2.446-1.662-4.844-2.592-7.192m-193.425-539.954c-33.273-12.82-67.916-24.368-103.734-34.056-.391-.147-.832-.245-1.223-.343-.391.098-.832.196-1.224.343-35.817 9.688-70.46 21.236-103.733 34.056v331.948a329 329 0 0 1 74.13-15.658h.049c10.521-1.028 21.187-1.517 32.001-1.517a336 336 0 0 1 46.289 3.181h.098c19.719 2.74 38.9 7.143 57.347 13.162zm-408.917 97.666c-1.957 1.125-3.865 2.3-5.773 3.474-122.964 74.327-200.03 146.108-203.994 149.827l-.146.147v945.102h209.913v-405.735c-19.621-42.57-30.532-89.985-30.532-139.992 0-50.008 10.911-97.422 30.532-140.041zM-951.562 3.328c6.508 3.082 10.863 9.444 11.793 16.587l21.529 165.583 74.033-148.017 73.054 148.017 21.236-163.332c.343-22.166 26.57-23.438 26.57-23.438h-66.204c5.138.392 8.71 3.572 10.716 6.165 1.37 1.762 2.006 3.964 1.81 6.214l-9.444 114.45-63.708-132.75-65.567 130.842-9.688-108.334c0-10.324 13.749-15.95 13.749-15.95h-53.432c5.724.88 10.128 2.348 13.553 3.963m-13.553 303.665h209.914v-79.415h-209.914zm350.737-128.052s10.324 0 14.679 3.425v-38.411s-3.523 9.884-9.15 17.468c-3.719 4.991-9.59 7.83-15.805 7.83h-45.897V91.208h37.873c6.312 0 12.428 3.033 15.707 8.416 1.419 2.3 2.691 5.137 3.572 8.758V67.965s-1.077 3.181-3.279 6.704c-3.376 5.383-9.444 8.514-15.804 8.514h-37.775V8.857h44.38c4.551 0 9.101 1.272 12.869 3.817 7.389 5.04 19.083 15.265 25.2 32.832 0 0 1.663-28.135-13.75-47.267h-109.116s6.165 1.174 11.547 8.563c3.23 4.452 4.698 9.933 4.698 15.462v139.747c0 3.67-1.664 7.193-4.649 9.395-3.229 2.397-8.22 5.334-15.217 7.535zm-81.275 29.163 95.563 14.581v-26.031h-95.563zm349.368-255.91V-274.21c-32.637 10.619-67.524 16.344-103.734 16.344-37.089 0-72.809-6.019-106.18-17.126v227.186ZM-553.068 173.95c-2.886 2.104-6.703 4.013-11.645 4.795h82.889c7.046 0 13.995-1.615 20.209-4.893 11.988-6.263 28.135-19.572 26.422-45.31 0 0-1.859-30.778-40.172-48.49 0 0 49.567-72.859 78.485-73.691 0 0 6.997-1.027 13.457 1.126 5.577 1.908 9.247 7.29 9.247 13.162v134.658c0 7.732-4.06 14.875-10.716 18.888-2.593 1.565-5.773 3.131-9.59 4.55h67.476s-3.327-.636-7.437-2.005c-8.612-2.937-14.435-11.01-14.435-20.112V18.349c0-4.354 1.517-8.661 4.501-11.841 3.083-3.327 7.732-6.802 13.946-7.29h-90.474c-4.355 0-8.612 1.076-12.428 3.229-9.737 5.48-28.478 18.251-40.222 40.466-1.418 2.642-2.837 5.236-4.453 7.78-6.605 9.982-23.976 34.936-36.11 38.264 0 0 55.83-2.055 51.866 43.989 0 0 2.3 39.781-58.521 35.817V19.23c0-6.556 2.691-12.967 7.78-17.028 2.691-2.104 6.214-3.963 10.765-4.796h-62.485s8.22.147 15.071 10.766c2.544 3.963 3.67 8.66 3.67 13.358v137.839c0 5.675-2.496 11.205-7.096 14.581m-1.908 133.043h209.914v-79.415h-209.914zm262.564-132.896c-2.985 2.398-7.095 4.55-12.135 4.648h102.951c6.899 0 13.701-1.125 20.209-3.523 15.168-5.676 40.123-19.621 52.062-52.454 7.536-20.746 7.095-43.451-.391-64.247-7.535-20.893-22.949-46.875-54.167-56.319C-189.216.588-194.794 0-200.373 0h-105.739s5.871 2.153 11.254 6.018c5.333 3.866 8.465 10.081 8.465 16.686v138.377c0 5.04-2.105 9.884-6.019 13.016m145.13 132.896H62.632v-79.415h-209.914zm-929.543 22.068V-920.294c309.44-328.866 626.806-383.669 626.806-383.669s317.367 54.803 626.807 383.669V329.061Z" clip-path="url(#c)" style="fill:#fff;fill-opacity:1;fill-rule:nonzero;stroke:none" transform="matrix(1.33333 0 0 -1.33333 1933.325 683.4)"></path><path d="M0 0h-57.689l28.771 72.467z" clip-path="url(#d)" style="fill:#fff;fill-opacity:1;fill-rule:nonzero;stroke:none" transform="matrix(1.33333 0 0 -1.33333 1924.398 594.735)"></path><path d="M0 0v-945.103l-.147-.146c-3.964-3.719-81.03-75.501-203.993-149.827-1.909-1.175-3.817-2.349-5.774-3.474v407.546c21.138 43.989 32.979 93.214 32.979 145.276S-188.776-444.44-209.914-400.5V0Z" clip-path="url(#e)" style="fill:#000;fill-opacity:1;fill-rule:nonzero;stroke:none" transform="matrix(1.33333 0 0 -1.33333 2016.846 747.14)"></path><path d="M0 0c-19.621-42.57-30.533-89.984-30.533-139.992S-19.621-237.413 0-280.032v-412.783c-1.957 1.126-3.865 2.3-5.774 3.475-122.963 74.326-200.03 146.108-203.993 149.826l-.147.147v945.103H0Z" clip-path="url(#f)" style="fill:#000;fill-opacity:1;fill-rule:nonzero;stroke:none" transform="matrix(1.33333 0 0 -1.33333 926.401 1288.12)"></path><path d="M0 0h-376.867v18.105h16.539v234.868h18.643v-18.202h7.926v18.202h16.343v-18.202h7.927v18.202h18.692v-62.142h21.529v27.059h-15.315v16.881h192.25V217.89h-15.266v-27.059h21.529v62.142h18.692v-18.202h7.927v18.202h16.342v-18.202h7.879v18.202h18.642V18.105H0zm-350.591 296.326c.93 1.468 1.957 2.936 2.985 4.355 1.125 1.566 2.251 3.132 3.425 4.649a94 94 0 0 1 1.761 2.299 26 26 0 0 0 1.762 2.251c.93 1.175 1.86 2.349 2.838 3.523a71 71 0 0 0 3.083 3.621l3.376 3.817c2.153 2.446 4.404 4.795 6.752 7.144.93.929 1.86 1.859 2.79 2.74 1.859 1.859 3.767 3.621 5.675 5.333l14.925-11.596a183 183 0 0 1-14.827-14.093l13.799-10.715a169 169 0 0 0 15.217 13.749 162 162 0 0 0 3.377 2.692c5.431 4.061 11.058 7.828 16.93 11.254l-8.367 15.755a170 170 0 0 1-16.93-11.303l-8.857 16.735c2.104 1.614 4.257 3.18 6.459 4.599a299 299 0 0 0 6.508 4.306c1.81 1.126 3.67 2.251 5.48 3.279 1.615.929 3.23 1.859 4.893 2.74 1.615.929 3.278 1.761 4.942 2.593 1.811.93 3.67 1.859 5.578 2.74a174 174 0 0 0 16.001 6.557q3.009 1.101 6.018 2.055l9.199-17.272a167 167 0 0 1-19.23-6.9l8.514-15.951a149 149 0 0 0 19.475 6.458 100 100 0 0 0 7.584 1.762c6.606 1.37 13.359 2.349 20.209 2.789v18.251a153 153 0 0 1-20.209-2.495v19.67a185 185 0 0 0 30.974 2.594q3.596 0 7.192-.147c.294 0 .636-.049.93-.049 2.398-.098 4.844-.245 7.291-.441 1.761-.146 3.474-.342 5.235-.537 2.741-.294 5.481-.637 8.221-1.126 1.027-.147 2.055-.343 3.034-.49V363.9a162 162 0 0 1-20.209 2.593v-18.251a153 153 0 0 0 20.209-2.936 128 128 0 0 0 8.563-2.055c6.605-1.81 13.064-4.012 19.327-6.703l8.514 15.951c-6.214 2.74-12.624 5.138-19.132 7.095l9.15 17.224h.049c2.007-.685 3.964-1.37 5.921-2.104 1.321-.489 2.642-.979 3.914-1.517a71 71 0 0 0 4.992-2.006 185 185 0 0 0 7.094-3.23 179 179 0 0 0 18.252-10.03c.783-.49 1.614-.979 2.397-1.517 1.86-1.175 3.768-2.398 5.579-3.67a53 53 0 0 0 2.935-2.055c1.566-1.077 3.034-2.202 4.502-3.328l-8.906-16.734c-5.382 4.159-10.96 8.025-16.783 11.499l-8.367-15.756a169 169 0 0 0 16.783-11.45c1.273-1.027 2.545-2.006 3.768-3.034a183 183 0 0 0 14.973-13.945l13.75 10.667c-4.6 5.04-9.493 9.786-14.582 14.239l14.875 11.548a66 66 0 0 0 3.327-3.132c.783-.734 1.517-1.468 2.3-2.251 2.3-2.299 4.551-4.599 6.704-6.997a116 116 0 0 0 5.627-6.361 138 138 0 0 0 4.355-5.285c1.321-1.663 2.642-3.327 3.914-5.039 3.327-4.404 6.508-8.955 9.444-13.652a268 268 0 0 0 3.866-6.214l-14.338-11.108a186 186 0 0 1-11.155 16.833l-13.554-10.472a171 171 0 0 0 11.204-16.881c.979-1.664 1.958-3.327 2.887-5.04h-25.248c-26.814 40.417-70.069 66.644-118.804 66.644s-91.991-26.227-118.805-66.644h-25.248a129 129 0 0 0 4.159 7.144c3.474 5.823 7.291 11.352 11.352 16.686l-13.554 10.52c-4.061-5.334-7.829-10.912-11.352-16.735l-14.337 11.157a243 243 0 0 0 5.676 8.758m478.839-132.113a128 128 0 0 1-.294 6.116c-.244 4.012-.537 8.074-.929 12.086-.196 1.957-.391 3.963-.636 5.969a125 125 0 0 1-.734 5.97c-.343 2.496-.685 4.991-1.077 7.486-.196 1.371-.44 2.79-.684 4.16v.048c0 .147-.049.245-.049.392a92 92 0 0 1-.686 3.572c-.342 1.957-.685 3.915-1.125 5.872-1.077 5.284-2.251 10.471-3.621 15.609-.196.734-.391 1.517-.587 2.251-.441 1.663-.881 3.327-1.37 4.991a169 169 0 0 1-2.202 7.486c-.636 2.006-1.272 4.012-1.957 6.018-.588 1.909-1.273 3.768-1.957 5.628a130 130 0 0 1-1.664 4.599c-.539 1.468-1.077 2.936-1.664 4.355a131 131 0 0 1-1.859 4.649c-.147.489-.343.929-.538 1.418-.343.832-.686 1.615-1.028 2.447a183 183 0 0 1-2.789 6.459c-.196.44-.44.93-.636 1.37a145 145 0 0 1-2.936 6.214 180 180 0 0 1-3.426 6.899 273 273 0 0 1-7.29 13.456c-1.273 2.202-2.594 4.404-3.914 6.606a144 144 0 0 1-2.838 4.551c-.93 1.517-1.909 2.984-2.888 4.501-.245.441-.538.832-.782 1.224-1.958 2.984-4.013 5.92-6.067 8.856a284 284 0 0 1-4.503 6.116c-.978 1.371-2.006 2.692-3.033 4.013-.049.098-.147.147-.196.244-1.125 1.469-2.251 2.985-3.474 4.404a160 160 0 0 1-4.551 5.53 121 121 0 0 1-3.376 3.963c-.44.538-.93 1.076-1.37 1.566a81 81 0 0 1-3.376 3.767 126 126 0 0 1-3.523 3.817c-1.419 1.517-2.838 3.034-4.306 4.502a183 183 0 0 1-4.355 4.355 208 208 0 0 1-6.703 6.41 272 272 0 0 1-6.851 6.214 341 341 0 0 1-4.697 4.012c-1.957 1.713-3.964 3.327-5.97 4.942l-.587.441c-1.028.782-2.055 1.614-3.034 2.397a243 243 0 0 1-9.101 6.801c-2.691 2.007-5.48 3.915-8.269 5.823l-1.322.881c-.147.098-.342.196-.489.294-2.691 1.81-5.382 3.523-8.122 5.235a280 280 0 0 1-10.471 6.263 338 338 0 0 1-5.725 3.181c-2.252 1.223-4.502 2.447-6.802 3.572a179 179 0 0 1-6.899 3.425 157 157 0 0 1-6.508 3.082c-.147.049-.294.147-.441.196-2.299 1.028-4.599 2.056-6.948 3.035a307 307 0 0 1-29.701 10.862c-2.299.685-4.648 1.419-7.046 2.055-2.153.636-4.354 1.223-6.556 1.81-2.838.735-5.726 1.469-8.612 2.105a149 149 0 0 1-6.704 1.468c-.342.097-.685.146-.978.195-2.447.538-4.894.979-7.34 1.419-.343.049-.685.147-.979.196-2.397.441-4.844.832-7.29 1.174-2.643.441-5.285.783-7.927 1.125-2.496.294-4.942.588-7.438.881-.245 0-.44 0-.636.049a432 432 0 0 1-7.927.685c-2.153.147-4.257.294-6.41.441h-.538c-1.37.098-2.789.147-4.159.195-1.762.099-3.572.147-5.383.196a417 417 0 0 1-7.877.098c-2.692 0-5.432-.049-8.123-.098-1.811-.049-3.621-.097-5.431-.196a100 100 0 0 1-5.432-.293 246 246 0 0 1-10.471-.783c-1.37-.098-2.789-.245-4.159-.391-3.132-.343-6.263-.686-9.346-1.126a171 171 0 0 1-5.333-.783 318 318 0 0 1-6.704-1.076c-.881-.147-1.81-.343-2.691-.49a166 166 0 0 1-4.844-.979 298 298 0 0 1-9.053-1.907c-3.082-.734-6.165-1.469-9.248-2.3-.44-.098-.88-.245-1.321-.392-2.74-.684-5.431-1.468-8.122-2.25-.147-.049-.343-.098-.489-.147-.098-.049-.245-.049-.343-.098-2.447-.685-4.795-1.469-7.193-2.251-.049 0-.147-.049-.196-.049s-.098-.049-.146-.049h-.049c-.196-.049-.392-.147-.539-.196a162 162 0 0 1-4.501-1.516 184 184 0 0 1-7.291-2.643c-1.125-.391-2.251-.832-3.376-1.271a134 134 0 0 1-6.606-2.643c-.342-.098-.636-.245-.978-.392-1.909-.831-3.768-1.614-5.628-2.446a125 125 0 0 1-5.822-2.643 222 222 0 0 1-10.863-5.284 376 376 0 0 1-6.263-3.279c-.196-.098-.343-.195-.538-.293a186 186 0 0 1-6.068-3.377c-.734-.439-1.419-.831-2.153-1.272a123 123 0 0 1-4.306-2.544c-1.125-.685-2.299-1.37-3.425-2.104-1.761-1.125-3.572-2.251-5.333-3.376l-5.285-3.523c-3.181-2.202-6.361-4.404-9.493-6.704-.098-.049-.195-.147-.293-.195-1.909-1.371-3.768-2.74-5.578-4.208-1.615-1.224-3.279-2.496-4.893-3.817a350 350 0 0 1-4.991-4.062c-3.23-2.691-6.411-5.43-9.542-8.318-.196-.196-.44-.391-.685-.587a440 440 0 0 1-8.514-8.025l-4.453-4.452a210 210 0 0 1-8.514-9.004c-1.468-1.614-2.887-3.229-4.355-4.893a318 318 0 0 1-3.865-4.55 108 108 0 0 1-4.257-5.138 340 340 0 0 1-3.866-4.942c-2.593-3.376-5.138-6.753-7.584-10.178-1.223-1.712-2.447-3.425-3.621-5.186a141 141 0 0 1-3.474-5.285 198 198 0 0 1-3.425-5.333 320 320 0 0 1-3.278-5.432 542 542 0 0 1-3.23-5.48 324 324 0 0 1-7.291-13.505c-.831-1.712-1.712-3.425-2.544-5.187-.636-1.321-1.223-2.593-1.86-3.914-.88-1.957-1.761-3.866-2.642-5.823a307 307 0 0 1-2.544-5.872 272 272 0 0 1-4.697-11.939 127 127 0 0 1-2.202-6.067 128 128 0 0 1-2.055-6.117l-1.909-6.018c-.636-2.104-1.272-4.208-1.859-6.361-.049-.147-.049-.245-.098-.392a226 226 0 0 1-2.593-9.933c-.685-2.789-1.371-5.627-1.958-8.465-.049-.147-.049-.293-.098-.44-.195-.93-.391-1.811-.587-2.74a286 286 0 0 1-1.761-9.346c-.587-3.474-1.175-6.948-1.615-10.422-.049-.147-.049-.294-.049-.49-.245-1.614-.489-3.18-.685-4.795-.244-1.957-.44-3.865-.636-5.823-.098-1.027-.245-2.104-.294-3.18-.146-1.517-.293-2.985-.391-4.502a72 72 0 0 1-.245-3.229c-.098-1.713-.244-3.475-.342-5.236-.049-1.761-.147-3.523-.196-5.285-.049-.293-.049-.636-.049-.929a126 126 0 0 1-.098-4.355c-.098-2.104-.098-4.208-.098-6.312s0-4.208.098-6.312c0-1.468.049-2.936.098-4.355 0-.294 0-.636.049-.93.049-1.761.147-3.523.196-5.285.098-1.761.244-3.522.342-5.235.049-1.077.147-2.202.245-3.278.098-1.468.245-2.985.391-4.453.049-1.077.196-2.153.294-3.181.196-1.957.392-3.865.636-5.823.196-1.614.44-3.18.685-4.795 0-.195 0-.342.049-.489.44-3.523 1.028-6.997 1.615-10.422a286 286 0 0 1 1.761-9.346c.196-.979.392-1.909.636-2.838.587-2.985 1.273-5.921 2.007-8.857a217 217 0 0 1 2.544-9.737l.147-.587c.587-2.153 1.223-4.257 1.859-6.361l1.909-6.019c.636-2.055 1.321-4.11 2.055-6.116a127 127 0 0 1 2.202-6.067 272 272 0 0 1 4.697-11.939 307 307 0 0 1 2.544-5.872 180 180 0 0 1 2.447-5.383c.636-1.468 1.37-2.887 2.055-4.355.832-1.712 1.713-3.474 2.544-5.186 2.349-4.551 4.746-9.102 7.291-13.505 1.077-1.86 2.153-3.67 3.23-5.529a316 316 0 0 1 3.278-5.383c1.076-1.761 2.202-3.474 3.278-5.187.147-.195.294-.391.441-.636.049-.097.097-.146.146-.244.49-.734 1.028-1.517 1.566-2.3.489-.783.979-1.517 1.517-2.251a246 246 0 0 1 4.404-6.312 74 74 0 0 1 2.495-3.376 155 155 0 0 1 4.257-5.676c.979-1.321 2.007-2.594 3.034-3.915a567 567 0 0 1 5.089-6.214c.098-.098.195-.245.293-.342l.049-.049a38 38 0 0 1 1.762-2.055l1.761-2.056c2.789-3.18 5.579-6.312 8.515-9.394a187 187 0 0 1 4.354-4.502 319 319 0 0 1 5.725-5.725l.441-.44c.929-.881 1.908-1.811 2.887-2.691 2.006-1.86 4.012-3.719 6.067-5.53a225 225 0 0 1 8.22-7.095c1.615-1.37 3.23-2.691 4.894-4.012a189 189 0 0 1 3.669-2.887c.196-.196.392-.342.587-.489 1.273-.979 2.594-1.958 3.964-2.985a356 356 0 0 1 5.285-3.866c2.348-1.712 4.795-3.376 7.241-5.04 1.272-.88 2.594-1.712 3.866-2.544 1.174-.783 2.349-1.517 3.523-2.3l.44-.293c1.664-1.028 3.279-2.056 4.942-3.034a215 215 0 0 1 6.606-3.915 274 274 0 0 1 13.456-7.29c2.251-1.175 4.551-2.349 6.899-3.425 2.007-.979 4.013-1.958 6.068-2.887 9.003-4.062 18.202-7.781 27.597-11.01 1.713-.636 3.376-1.174 5.089-1.712.048 0 .097-.049.146-.049 1.468-.49 2.985-.979 4.453-1.419a302 302 0 0 1 14.826-4.208c.098-.049.196-.049.294-.098 2.446-.588 4.893-1.224 7.339-1.762 2.545-.587 5.138-1.174 7.683-1.663 2.055-.441 4.159-.832 6.214-1.224.881-.147 1.81-.342 2.691-.489 2.251-.391 4.453-.734 6.704-1.076a174 174 0 0 1 5.333-.784c3.083-.44 6.214-.782 9.346-1.125 1.37-.147 2.789-.293 4.159-.391 3.474-.343 6.948-.588 10.471-.783q2.716-.22 5.432-.294c1.81-.098 3.62-.147 5.431-.196 2.691-.048 5.431-.097 8.123-.097 2.642 0 5.284.049 7.877.097 1.811.049 3.621.098 5.383.196 2.202.049 4.404.196 6.606.343 1.663.098 3.327.195 4.991.342 1.272.098 2.544.196 3.865.343 1.811.147 3.572.293 5.334.489 1.81.196 3.572.392 5.333.636q1.689.147 3.376.44c1.86.245 3.719.49 5.53.784 2.446.342 4.893.782 7.29 1.174.294.049.636.146.979.195 2.446.441 4.893.881 7.34 1.42 5.48 1.125 10.911 2.348 16.294 3.767 2.202.587 4.403 1.174 6.556 1.811 2.398.636 4.698 1.37 7.046 2.055 1.126.342 2.3.734 3.426 1.125a263 263 0 0 1 8.709 2.936c2.251.783 4.502 1.615 6.704 2.446.489.196.978.343 1.419.539 1.81.685 3.572 1.37 5.333 2.153.539.196 1.126.391 1.664.636l4.11 1.761c1.908.783 3.817 1.664 5.725 2.496 2.202 1.027 4.355 2.006 6.508 3.083 4.795 2.299 9.542 4.697 14.19 7.29.245.147.49.245.734.392 1.028.538 2.055 1.125 3.083 1.712.342.196.636.392.978.588 1.223.685 2.447 1.369 3.67 2.104l.294.146a87 87 0 0 1 4.012 2.398c1.663.978 3.278 2.006 4.893 3.034a157 157 0 0 1 5.187 3.376c1.516.979 3.033 2.006 4.502 2.985a208 208 0 0 1 5.381 3.768 122 122 0 0 1 4.844 3.571c1.861 1.322 3.622 2.692 5.432 4.111.979.782 2.006 1.614 3.034 2.397l.587.44c2.006 1.615 4.013 3.23 5.97 4.943a341 341 0 0 1 4.697 4.012c2.299 2.055 4.6 4.11 6.851 6.214 2.3 2.104 4.501 4.257 6.703 6.41 1.468 1.468 2.936 2.887 4.355 4.355a365 365 0 0 1 4.306 4.502 126 126 0 0 1 3.523 3.816 81 81 0 0 1 3.376 3.768c.44.489.93 1.028 1.37 1.566q1.762 1.981 3.376 3.963a161 161 0 0 1 4.551 5.529c1.223 1.468 2.349 2.936 3.474 4.404.049.098.147.147.196.245 1.027 1.321 2.055 2.642 3.033 4.012a201 201 0 0 1 4.503 6.165 218 218 0 0 1 7.486 11.01 136 136 0 0 1 2.837 4.453 245 245 0 0 1 2.349 3.767 194 194 0 0 1 3.181 5.383c2.838 4.893 5.578 9.884 8.171 15.022a260 260 0 0 1 3.181 6.41c.979 1.908 1.81 3.816 2.691 5.773.147.245.245.49.343.734a139 139 0 0 1 2.103 4.747c.686 1.566 1.371 3.131 2.007 4.746a164 164 0 0 1 2.788 6.801 102 102 0 0 1 1.518 4.111c.929 2.348 1.762 4.746 2.593 7.192 1.028 2.985 2.055 6.019 2.985 9.053a382 382 0 0 1 4.257 15.07c.636 2.496 1.272 5.04 1.859 7.585v.049c.587 2.544 1.174 5.138 1.664 7.682.489 2.3.93 4.648 1.37 6.997.49 2.838.978 5.725 1.419 8.612.245 1.566.44 3.083.636 4.648.098.441.147.832.196 1.273.293 2.006.538 3.963.734 5.969.245 2.006.44 4.012.636 5.97.392 4.012.685 8.073.929 12.086.147 2.055.245 4.061.294 6.116.147 4.061.245 8.123.245 12.233s-.098 8.171-.245 12.233" clip-path="url(#g)" style="fill:#e73b47;fill-opacity:1;fill-rule:nonzero;stroke:none" transform="matrix(1.33333 0 0 -1.33333 1584.621 1677.416)"></path><path d="m0 0-13.554-10.471A171 171 0 0 0-2.349-27.352c.979-1.664 1.957-3.328 2.886-5.04H-24.71C-51.525 8.025-94.78 34.252-143.515 34.252s-91.99-26.227-118.805-66.644h-25.248a130 130 0 0 0 4.159 7.144c3.474 5.823 7.291 11.352 11.352 16.685l-13.554 10.52c-4.061-5.333-7.829-10.911-11.352-16.734l-14.336 11.156a242 242 0 0 0 5.675 8.759c.979 1.468 1.958 2.936 2.985 4.355 1.126 1.565 2.251 3.131 3.425 4.648a94 94 0 0 1 1.762 2.3 25 25 0 0 0 1.762 2.251 182 182 0 0 0 2.837 3.523 72 72 0 0 0 3.083 3.621l3.376 3.816c2.153 2.447 4.404 4.795 6.753 7.144.929.93 1.859 1.86 2.789 2.74 1.859 1.86 3.768 3.621 5.676 5.334l14.924-11.597a183 183 0 0 1-14.826-14.092l13.798-10.716a168 168 0 0 0 15.218 13.75c1.125.929 2.251 1.81 3.376 2.691 5.431 4.061 11.058 7.829 16.93 11.254l-8.367 15.756a170 170 0 0 1-16.93-11.303l-8.857 16.734c2.104 1.615 4.257 3.181 6.459 4.6a299 299 0 0 0 6.508 4.306c1.81 1.125 3.67 2.25 5.48 3.278 1.615.93 3.23 1.86 4.893 2.74 1.615.93 3.279 1.762 4.942 2.593 1.811.93 3.67 1.86 5.579 2.741a174 174 0 0 0 16 6.556q3.009 1.101 6.019 2.055l9.199-17.272a167 167 0 0 1-19.23-6.899l8.514-15.952a149 149 0 0 0 19.474 6.459c2.496.685 5.04 1.272 7.584 1.761 6.606 1.371 13.359 2.349 20.209 2.789v18.252a153 153 0 0 1-20.209-2.496v19.671a185 185 0 0 0 30.974 2.593q3.596 0 7.193-.147c.293 0 .636-.049.929-.049 2.398-.098 4.845-.245 7.291-.441 1.762-.146 3.474-.342 5.236-.537 2.74-.294 5.48-.637 8.22-1.125 1.028-.147 2.055-.343 3.034-.49V72.711a162 162 0 0 1-20.209 2.594V57.054a154 154 0 0 0 20.209-2.936 129 129 0 0 0 8.563-2.055c6.606-1.811 13.064-4.013 19.327-6.704l8.515 15.952c-6.215 2.74-12.625 5.137-19.132 7.095l9.15 17.223h.048c2.007-.685 3.964-1.37 5.921-2.104 1.321-.489 2.642-.978 3.915-1.517a71 71 0 0 0 4.991-2.006 186 186 0 0 0 7.095-3.229 179 179 0 0 0 18.251-10.031c.783-.489 1.614-.979 2.398-1.517 1.859-1.174 3.767-2.397 5.578-3.67a54 54 0 0 0 2.936-2.055c1.565-1.076 3.033-2.202 4.501-3.327l-8.905-16.735c-5.383 4.16-10.961 8.025-16.784 11.499l-8.367-15.756a169 169 0 0 0 16.784-11.45c1.272-1.027 2.544-2.006 3.767-3.033A183 183 0 0 0-28.086 6.753l13.749 10.666c-4.6 5.04-9.493 9.787-14.582 14.24l14.875 11.547a66 66 0 0 0 3.328-3.131c.783-.735 1.516-1.468 2.299-2.251 2.301-2.3 4.551-4.6 6.704-6.997a117 117 0 0 0 5.627-6.361 138 138 0 0 0 4.355-5.285c1.321-1.664 2.642-3.327 3.915-5.04 3.327-4.404 6.507-8.954 9.443-13.652a265 265 0 0 0 3.866-6.214L11.156-16.832A186 186 0 0 1 0 0" clip-path="url(#h)" style="fill:#fbaf0b;fill-opacity:1;fill-rule:nonzero;stroke:none" transform="matrix(1.33333 0 0 -1.33333 1524.665 1289.165)"></path><path d="M0 0h-24.27v45.016a10.61 10.61 0 0 0 10.618 10.619h3.034A10.61 10.61 0 0 0 0 45.016Zm-87.978 28.576h-29.995v27.059h29.995zm-1.077-177.131h-39.83v112.639c0 10.57 8.563 19.181 19.181 19.181h1.469c10.617 0 19.18-8.611 19.18-19.181zm-44.576 177.131h-31.365v27.059h31.365zm-36.062-177.131h-39.879v112.639c0 10.57 8.612 19.181 19.23 19.181h1.419c10.618 0 19.23-8.611 19.23-19.181zm-40.906 204.19h29.995V28.576h-29.995zM-274.307 0h-24.27v45.016a10.61 10.61 0 0 0 10.618 10.619h3.033a10.61 10.61 0 0 0 10.619-10.619zM22.557-144.151V90.718H3.915V72.516h-7.879v18.202h-16.343V72.516h-7.926v18.202h-18.692V28.576h-21.529v27.059h15.266v16.881h-192.25V55.635h15.315V28.576h-21.529v62.142h-18.692V72.516h-7.927v18.202h-16.343V72.516h-7.927v18.202h-18.642v-234.869h-16.539v-18.104H39.145v18.104z" clip-path="url(#i)" style="fill:#fbaf0b;fill-opacity:1;fill-rule:nonzero;stroke:none" transform="matrix(1.33333 0 0 -1.33333 1532.428 1461.076)"></path><path d="M0 0v-45.016h-24.27V0a10.61 10.61 0 0 0 10.618 10.618h3.034A10.61 10.61 0 0 0 0 0" clip-path="url(#j)" style="fill:#e73a47;fill-opacity:1;fill-rule:nonzero;stroke:none" transform="matrix(1.33333 0 0 -1.33333 1532.428 1401.054)"></path><path d="M1061.343 932.769h-29.995v27.059h29.995z" clip-path="url(#k)" style="fill:#e73a47;fill-opacity:1;fill-rule:nonzero;stroke:none" transform="matrix(1.33333 0 0 -1.33333 0 2666.667)"></path><path d="M968.717 932.769h-29.995v27.059h29.995z" clip-path="url(#l)" style="fill:#e73a47;fill-opacity:1;fill-rule:nonzero;stroke:none" transform="matrix(1.33333 0 0 -1.33333 0 2666.667)"></path><path d="M0 0v-45.016h-24.27V0a10.61 10.61 0 0 0 10.618 10.618h3.034A10.61 10.61 0 0 0 0 0" clip-path="url(#m)" style="fill:#e73a47;fill-opacity:1;fill-rule:nonzero;stroke:none" transform="matrix(1.33333 0 0 -1.33333 1166.685 1401.054)"></path><path d="M0 0v-112.639h-39.879V0c0 10.569 8.612 19.181 19.23 19.181h1.419C-8.612 19.181 0 10.569 0 0" clip-path="url(#n)" style="fill:#e73a47;fill-opacity:1;fill-rule:nonzero;stroke:none" transform="matrix(1.33333 0 0 -1.33333 1306.171 1508.963)" data-source="https://football-logos.cc"></path><path d="M0 0v-112.639h-39.83V0c0 10.569 8.563 19.181 19.181 19.181h1.468C-8.563 19.181 0 10.569 0 0" clip-path="url(#o)" style="fill:#e73a47;fill-opacity:1;fill-rule:nonzero;stroke:none" transform="matrix(1.33333 0 0 -1.33333 1413.689 1508.963)"></path><path d="M1015.691 932.769h-31.365v27.059h31.365z" clip-path="url(#p)" style="fill:#e73a47;fill-opacity:1;fill-rule:nonzero;stroke:none" transform="matrix(1.33333 0 0 -1.33333 0 2666.667)"></path><path d="M694.801 1715.029H484.887v79.415h209.914z" clip-path="url(#q)" style="fill:#000;fill-opacity:1;fill-rule:nonzero;stroke:none" transform="matrix(1.33333 0 0 -1.33333 0 2666.667)"></path><path d="M1104.941 1715.029H895.027v79.415h209.914z" clip-path="url(#r)" style="fill:#000;fill-opacity:1;fill-rule:nonzero;stroke:none" transform="matrix(1.33333 0 0 -1.33333 0 2666.667)"></path><path d="M1512.634 1715.029H1302.72v79.415h209.914z" clip-path="url(#s)" style="fill:#000;fill-opacity:1;fill-rule:nonzero;stroke:none" transform="matrix(1.33333 0 0 -1.33333 0 2666.667)"></path><path d="M0 0v-226.404c-32.637 10.618-67.525 16.343-103.734 16.343-37.09 0-72.809-6.018-106.18-17.125V0Z" clip-path="url(#t)" style="fill:#000;fill-opacity:1;fill-rule:nonzero;stroke:none" transform="matrix(1.33333 0 0 -1.33333 1471.623 747.14)"></path><path d="M0 0v-331.116c-33.273-12.82-67.916-24.368-103.734-34.056-.391-.147-.832-.245-1.223-.343-.392.098-.832.196-1.223.343-35.818 9.688-70.461 21.236-103.734 34.056V.832a329 329 0 0 1 74.13-15.658h.049c10.52-1.028 21.187-1.517 32.001-1.517a336 336 0 0 1 46.289 3.181h.098C-37.628-10.422-18.447-6.019 0 0" clip-path="url(#u)" style="fill:#000;fill-opacity:1;fill-rule:nonzero;stroke:none" transform="matrix(1.33333 0 0 -1.33333 1471.623 1900.607)"></path><path d="M0 0c1.37 1.762 2.006 3.964 1.81 6.214l-9.443 114.45-63.709-132.75-65.567 130.842-9.688-108.334c0-10.324 13.749-15.951 13.749-15.951h-53.432c5.725.881 10.128 2.349 13.554 3.964 6.507 3.082 10.862 9.444 11.792 16.587l21.53 165.583 74.032-148.017L7.682 180.605 28.918 17.273c.343-22.166 26.57-23.438 26.57-23.438h-66.204C-5.578-5.773-2.006-2.593 0 0" clip-path="url(#v)" style="fill:#000;fill-opacity:1;fill-rule:nonzero;stroke:none" transform="matrix(1.33333 0 0 -1.33333 894.89 676.875)"></path><path d="M0 0h-109.116s6.165 1.174 11.548 8.563c3.229 4.453 4.697 9.933 4.697 15.462v139.748c0 3.67-1.664 7.192-4.649 9.394-3.229 2.398-8.22 5.334-15.217 7.536h99.917s10.324 0 14.679 3.425v-38.411s-3.523 9.883-9.15 17.468c-3.718 4.991-9.59 7.829-15.805 7.829h-45.897V92.969h37.873c6.312 0 12.428 3.034 15.707 8.417 1.418 2.299 2.691 5.137 3.572 8.758V69.727s-1.077 3.18-3.279 6.703c-3.376 5.383-9.443 8.514-15.804 8.514h-37.775V10.618h44.38c4.551 0 9.101 1.273 12.869 3.817 7.389 5.04 19.083 15.266 25.2 32.833 0 0 1.663-28.136-13.75-47.268" clip-path="url(#w)" style="fill:#000;fill-opacity:1;fill-rule:nonzero;stroke:none" transform="matrix(1.33333 0 0 -1.33333 1131.26 685.748)"></path><path d="M0 0v-26.032h-95.562v11.451z" clip-path="url(#x)" style="fill:#000;fill-opacity:1;fill-rule:nonzero;stroke:none" transform="matrix(1.33333 0 0 -1.33333 1133.216 386.485)"></path><path d="M0 0h-90.473c-4.355 0-8.612 1.076-12.429 3.229-9.737 5.481-28.477 18.251-40.221 40.466-1.419 2.643-2.838 5.236-4.453 7.781-6.605 9.981-23.976 34.936-36.111 38.263 0 0 55.83-2.055 51.867 43.989 0 0 2.3 39.781-58.522 35.818V20.013c0-6.557 2.692-12.967 7.781-17.029 2.691-2.104 6.214-3.963 10.765-4.795h-62.485s8.22.147 15.07 10.765c2.545 3.963 3.67 8.661 3.67 13.358v137.839c0 5.676-2.495 11.206-7.095 14.582-2.887 2.103-6.703 4.012-11.645 4.795h82.889c7.046 0 13.994-1.615 20.208-4.893 11.988-6.264 28.136-19.573 26.423-45.311 0 0-1.859-30.777-40.172-48.49 0 0 49.567-72.859 78.485-73.69 0 0 6.997-1.028 13.456 1.125 5.578 1.908 9.248 7.291 9.248 13.162v134.658c0 7.732-4.061 14.876-10.716 18.888-2.593 1.566-5.774 3.132-9.591 4.551H3.426s-3.328-.636-7.438-2.006c-8.612-2.936-14.435-11.01-14.435-20.111V19.132c0-4.355 1.517-8.661 4.502-11.841C-10.863 3.963-6.214.489 0 0" clip-path="url(#y)" style="fill:#000;fill-opacity:1;fill-rule:nonzero;stroke:none" transform="matrix(1.33333 0 0 -1.33333 1492.761 684.442)"></path><path d="M0 0c-9.444-7.437-21.285-11.254-33.322-11.254h-45.31v159.515h46.043c11.059 0 22.019-3.18 31.023-9.541 34.301-24.319 34.545-69.874 34.545-69.874C34.3 34.007 15.217 11.939 0 0m53.579 102.267C41.64 135.099 16.685 149.044 1.517 154.72c-6.508 2.398-13.31 3.523-20.209 3.523h-102.951c5.04-.098 9.15-2.25 12.135-4.648 3.914-3.132 6.018-7.976 6.018-13.016V2.202c0-6.605-3.131-12.82-8.465-16.685-5.382-3.866-11.254-6.019-11.254-6.019h105.74c5.578 0 11.157.588 16.49 2.202 31.218 9.444 46.631 35.426 54.167 56.32 7.486 20.795 7.927 43.5.391 64.247" clip-path="url(#z)" style="fill:#000;fill-opacity:1;fill-rule:nonzero;stroke:none" transform="matrix(1.33333 0 0 -1.33333 1689.465 656.063)"></path><path d="M0 0c-9.444-7.437-21.285-11.254-33.322-11.254h-45.31v159.515h46.043c11.059 0 22.019-3.18 31.023-9.541 34.301-24.319 34.545-69.874 34.545-69.874C34.3 34.007 15.217 11.939 0 0" clip-path="url(#A)" style="fill:#fff;fill-opacity:1;fill-rule:nonzero;stroke:none" transform="matrix(1.33333 0 0 -1.33333 1689.465 656.063)"></path><path d="m0 0 28.771 72.467L57.689 0Zm67.965-65.862c-1.077-.293-2.3-.489-3.572-.636h68.846c-1.419 0-11.45.441-21.236 12.037-2.202 2.643-3.964 5.677-5.334 8.808l-72.27 163.087-74.083-171.895c-1.321-3.082-3.425-5.724-6.214-7.584-2.935-1.957-7.34-3.914-13.602-4.453h52.649s-16.832 4.355-11.841 19.377L-3.426-8.71h64.59l15.804-39.585c2.936-7.389-1.272-15.756-9.003-17.567" clip-path="url(#B)" style="fill:#000;fill-opacity:1;fill-rule:nonzero;stroke:none" transform="matrix(1.33333 0 0 -1.33333 1847.48 594.735)" data-source="https://football-logos.cc"></path><!-- source: https://football-logos.cc --></svg>