<svg xmlns="http://www.w3.org/2000/svg" id="Capa_1" data-name="Capa 1" viewBox="0.41 8.2 37.03 65.17"><!-- Source: https://football-logos.cc --><defs data-source="https://football-logos.cc"><style>.cls-1{fill:#fff}.cls-2{fill:#ecb340}.cls-4{fill:#1e1e1c}.cls-5{fill:#efc238}.cls-6{fill:#c84730}.cls-7{fill:#efc33b}</style></defs><path d="M.41 25.33h10.64v-.63a.66.66 0 0 0 .11-.6.74.74 0 0 0-.45-.45l.1-.49-.6-.05h-.77l.15-.58c.14-.53-.37-1-1.56-1.39L7.51 21l.24-.46a1.2 1.2 0 0 1 .25-.38l.21-.23-.09-.3a.9.9 0 0 1 0-.28 1 1 0 0 1 0-.29l.07-.23-.12-.21a1 1 0 0 1-.15-.51 1 1 0 0 1 .16-.54l.13-.2-.06-.23a1 1 0 0 1 0-.26 1 1 0 0 1 .31-.7l.11-.18v-.23a1 1 0 0 1 .58-.89l.19-.09.08-.2a1 1 0 0 1 .7-.59h.21l.12-.17a.93.93 0 0 1 .74-.4h.21l.14-.14a1 1 0 0 1 .65-.25h.27l.15-.11a1 1 0 0 1 .53-.16h.31l.16-.09a.87.87 0 0 1 .45-.12h.36l.17-.08a.8.8 0 0 1 .38-.09.6.6 0 0 1 .2 0h.17l.16-.07a.9.9 0 0 1 .32-.06h.52a.8.8 0 0 1 .27 0h.51l.1-.46a1.4 1.4 0 0 1 .09-.29l.3-.74H17V9.14h1V8.2h1.83v.94h1v1.76h-.57l.3.74a1.4 1.4 0 0 1 .09.29l.1.46h.52a.8.8 0 0 1 .26 0h.31a.8.8 0 0 1 .22 0 .9.9 0 0 1 .31.06l.16.07h.16a.8.8 0 0 1 .21 0 .8.8 0 0 1 .38.09l.17.08h.36a.87.87 0 0 1 .45.12l.16.09h.31a1 1 0 0 1 .53.16l.15.11h.27a.94.94 0 0 1 .65.25l.15.14h.2a1 1 0 0 1 .75.4l.12.17h.2a1 1 0 0 1 .7.59l.08.2.19.09a1 1 0 0 1 .58.87V16l.16.18a1 1 0 0 1 .31.7.8.8 0 0 1 0 .26l-.06.23.13.2a1 1 0 0 1 0 1.05l-.13.21.07.23a1 1 0 0 1 0 .29 1 1 0 0 1 0 .28l-.09.3.21.22a1.4 1.4 0 0 1 .24.36l.23.46-.5.17c-1.19.41-1.71.86-1.57 1.39l.15.58h-.78l-.49.05v.55A1 1 0 0 1 27 24l-.33 1.33h10.77L19 73.37Z" class="cls-1"></path><path d="m18.95 71.58 17.33-45.4H1.61z" class="cls-2"></path><path d="M34.23 27.59c-.12.3-15.28 40-15.28 40-.21-.53-15.17-39.72-15.29-40Z" class="cls-1"></path><path d="M28.13 31.79c-2.57 6.71-5.31 13.9-9.13 24.05-3.93-10.15-6.67-17.34-9.24-24.05Z" class="cls-2"></path><path d="M26.38 33 19 52.46c-.11-.27-7.38-19.31-7.43-19.46Z" style="fill:#d03d2a"></path><path d="M22.35 56.38 20 55.47l.62-1.62.38.15-.43 1.15.56.21.38-1 .4.15-.38 1 1 .39ZM21.44 51.63l.18-.48 1.3.49a2.4 2.4 0 0 0 .41.14.38.38 0 0 0 .29-.06.6.6 0 0 0 .21-.28.52.52 0 0 0 0-.34.32.32 0 0 0-.16-.2 4 4 0 0 0-.4-.18l-1.27-.5.18-.48 1.25.48a3.5 3.5 0 0 1 .59.27.64.64 0 0 1 .24.25.7.7 0 0 1 .09.36 1.2 1.2 0 0 1-.1.48 1.6 1.6 0 0 1-.27.48.7.7 0 0 1-.31.2.7.7 0 0 1-.32 0 4 4 0 0 1-.62-.19ZM25.63 47.78l-2-.75-.26.7-.4-.15.72-1.88.4.15-.27.7 2 .75ZM24.52 43.57l.36-1a4 4 0 0 1 .18-.41 1 1 0 0 1 .19-.21.6.6 0 0 1 .27-.1.55.55 0 0 1 .31 0 .6.6 0 0 1 .27.2.66.66 0 0 1 .12.33.62.62 0 0 1 .34-.25.55.55 0 0 1 .4 0 .8.8 0 0 1 .29.19.68.68 0 0 1 .15.66c0 .09-.09.28-.2.59l-.31.81Zm.58-.33.54.21.12-.31a3 3 0 0 0 .13-.35.36.36 0 0 0 0-.23.31.31 0 0 0-.36-.15.36.36 0 0 0-.15.15s-.08.18-.17.41Zm.94.36.63.24.17-.44a1.3 1.3 0 0 0 .11-.34.3.3 0 0 0 0-.21.33.33 0 0 0-.18-.14.35.35 0 0 0-.2 0 .4.4 0 0 0-.16.11 2 2 0 0 0-.2.42ZM27.29 39.91a1.6 1.6 0 0 1-.57-.34 1.2 1.2 0 0 1-.24-.34.9.9 0 0 1-.09-.39 1.3 1.3 0 0 1 .1-.55 1.16 1.16 0 0 1 .64-.71 1.32 1.32 0 0 1 1 0 1.34 1.34 0 0 1 .78.66 1.32 1.32 0 0 1-.64 1.67 1.27 1.27 0 0 1-.98 0m.17-.49a.93.93 0 0 0 .69 0 .68.68 0 0 0 .36-.94.92.92 0 0 0-.51-.38.93.93 0 0 0-.68-.06.63.63 0 0 0-.38.4.64.64 0 0 0 0 .56 1 1 0 0 0 .52.42M30.18 35.85 27.83 35l.18-.47 2 .74.41-1.27.4.16ZM16.54 54.5v-.52a1.07 1.07 0 0 1 .71.13 1 1 0 0 1 .43.56 1.08 1.08 0 0 1 0 .9 1.3 1.3 0 0 1-.77.64 1.38 1.38 0 0 1-1 0 1.14 1.14 0 0 1-.64-.68 1.08 1.08 0 0 1 0-.81 1 1 0 0 1 .34-.41l.29.43a.53.53 0 0 0-.2.66.55.55 0 0 0 .35.35 1 1 0 0 0 .68-.06 1.15 1.15 0 0 0 .58-.41.55.55 0 0 0 0-.5.5.5 0 0 0-.25-.28.74.74 0 0 0-.52 0M15.52 49.19l-2.36.9-.16-.48 1.95-.75-.45-1.18.4-.16ZM10.81 44l-.18-.48 1.3-.49a3 3 0 0 0 .39-.17.43.43 0 0 0 .18-.24.55.55 0 0 0 0-.35.53.53 0 0 0-.2-.27.4.4 0 0 0-.26-.05l-.41.14-1.32.5-.19-.47 1.25-.48a3.4 3.4 0 0 1 .62-.19.7.7 0 0 1 .36 0 .75.75 0 0 1 .3.2 1.3 1.3 0 0 1 .24.43 1.3 1.3 0 0 1 .12.54.8.8 0 0 1-.1.36.7.7 0 0 1-.21.23 2.7 2.7 0 0 1-.59.28ZM8.34 37.51 8 36.56a3 3 0 0 1-.14-.43.7.7 0 0 1 0-.28.9.9 0 0 1 .14-.26.64.64 0 0 1 .25-.18.57.57 0 0 1 .34 0 .55.55 0 0 1 .31.16.65.65 0 0 1 .1-.44.67.67 0 0 1 .32-.25.64.64 0 0 1 .34 0 .6.6 0 0 1 .32.11.67.67 0 0 1 .24.28c0 .07.11.26.23.57l.31.8Zm.22-.63.54-.21-.1-.31c-.07-.19-.12-.3-.14-.35a.35.35 0 0 0-.16-.16.26.26 0 0 0-.21 0 .28.28 0 0 0-.15.13.3.3 0 0 0 0 .21c0 .05.06.19.15.41Zm.94-.36.63-.24-.13-.45a2.4 2.4 0 0 0-.14-.32.3.3 0 0 0-.16-.14.37.37 0 0 0-.23 0 .4.4 0 0 0-.16.12.4.4 0 0 0 0 .19 2.4 2.4 0 0 0 .13.44ZM9.47 31v-2.58h.77l.47 1.73.45-1.73h.77V31h-.48v-2L11 31h-.49L10 29v2ZM13.41 28.42h.51v1.38a2 2 0 0 0 0 .43.38.38 0 0 0 .15.25.53.53 0 0 0 .34.1.5.5 0 0 0 .33-.09.34.34 0 0 0 .13-.22 2.4 2.4 0 0 0 0-.44v-1.41h.52v1.34a4 4 0 0 1 0 .64.65.65 0 0 1-.16.32.7.7 0 0 1-.3.21 1.3 1.3 0 0 1-.48.08 1.3 1.3 0 0 1-.55-.09.7.7 0 0 1-.3-.22.7.7 0 0 1-.14-.28 2.7 2.7 0 0 1-.05-.64ZM16.94 31v-2.58H18a1.7 1.7 0 0 1 .59.07.54.54 0 0 1 .3.24.77.77 0 0 1 .11.4.68.68 0 0 1-.17.47.74.74 0 0 1-.49.24 1 1 0 0 1 .27.21 4 4 0 0 1 .28.41l.31.5h-.6l-.37-.56A3 3 0 0 0 18 30a.4.4 0 0 0-.15-.1.9.9 0 0 0-.26 0h-.11V31Zm.51-1.47h.38a2 2 0 0 0 .46 0 .26.26 0 0 0 .14-.11.36.36 0 0 0 .05-.19.3.3 0 0 0-.07-.21.35.35 0 0 0-.19-.1h-.77ZM22.1 30l.5.16a1.14 1.14 0 0 1-.38.62 1.12 1.12 0 0 1-.68.2 1.06 1.06 0 0 1-.83-.35 1.3 1.3 0 0 1-.33-.94 1.37 1.37 0 0 1 .33-1 1.11 1.11 0 0 1 .86-.35 1.05 1.05 0 0 1 .76.27.93.93 0 0 1 .26.47l-.5.12a.55.55 0 0 0-.19-.31.53.53 0 0 0-.35-.12.58.58 0 0 0-.46.2 1 1 0 0 0-.18.66 1.13 1.13 0 0 0 .17.69.57.57 0 0 0 .46.21.56.56 0 0 0 .35-.13.76.76 0 0 0 .21-.4M24 31v-2.58h.51V31ZM28.25 31h-.56l-.21-.58h-1l-.21.58h-.57l1-2.54h.55Zm-.93-1L27 29l-.34.95ZM19 24.71a9.34 9.34 0 0 1 4.84 1.35H25V26a.45.45 0 0 0-.14-.24l.12-.16.4-.27.62.15-.35-.53.11-.47.12-.16a.46.46 0 0 0 .26 0 .42.42 0 0 0 .17-.76l-.2-.14a1.73 1.73 0 0 1 1.4-.69h.07v-.07c-.19-.76.38-1.36 1.76-1.84h.06v-.06a1.5 1.5 0 0 0-.9-.72.6.6 0 0 0 .56-.6.59.59 0 0 0-.5-.58.62.62 0 1 0 0-1.23.4.4 0 0 0-.16 0 .59.59 0 0 0 0-1.17.6.6 0 0 0-.37.14.4.4 0 0 1-.05-.09.56.56 0 0 0 0-1.11.55.55 0 0 0-.51.33.4.4 0 0 0-.08-.1.55.55 0 0 0 .39-.51.52.52 0 0 0-.53-.52.52.52 0 0 0-.51.4l-.09-.07a.5.5 0 0 0 .24-.42.5.5 0 0 0-.5-.5.48.48 0 0 0-.49.45h-.08a.46.46 0 0 0 .13-.32.48.48 0 0 0-.47-.48.47.47 0 0 0-.48.34h-.07a.5.5 0 0 0 .07-.24.44.44 0 0 0-.88 0h-.07a.5.5 0 0 0 0-.18.42.42 0 0 0-.42-.41.41.41 0 0 0-.41.41h-.09a.5.5 0 0 0 0-.13.39.39 0 0 0-.77 0h-.09a.36.36 0 1 0-.7-.1h-.08a.3.3 0 0 0 0-.09.33.33 0 0 0-.66 0v.06h-.07a.4.4 0 0 0 0-.1.31.31 0 0 0-.61 0 .3.3 0 0 0 0 .09h-.34a1.27 1.27 0 0 0 .34-.86 1.29 1.29 0 0 0-.81-1.19v-.57h.95v-.91h-.95v-.93h-.93v.93h-.95v.93h.95v.57a1.29 1.29 0 0 0-.81 1.19 1.27 1.27 0 0 0 .34.86h-.34a.3.3 0 0 0 0-.09.31.31 0 0 0-.61 0 .4.4 0 0 0 0 .1H17v-.06a.33.33 0 1 0-.66 0 .3.3 0 0 0 0 .09h-.04a.36.36 0 1 0-.7.1h-.09a.39.39 0 0 0-.78 0 .3.3 0 0 0 0 .13h-.1a.41.41 0 0 0-.41-.41.42.42 0 0 0-.42.41.5.5 0 0 0 0 .18h-.06a.45.45 0 0 0-.45-.43.44.44 0 0 0-.44.44.5.5 0 0 0 .15.21h-.07a.47.47 0 0 0-.47-.45.48.48 0 0 0-.47.48.43.43 0 0 0 .14.32h-.09a.48.48 0 0 0-.49-.45.5.5 0 0 0-.5.5.5.5 0 0 0 .24.42l-.09.18a.52.52 0 0 0-1 .12.54.54 0 0 0 .38.51.4.4 0 0 0-.08.1.55.55 0 0 0-1.06.22.56.56 0 0 0 .55.56.4.4 0 0 1-.05.09.58.58 0 1 0-.37 1 .5.5 0 0 0-.17 0 .62.62 0 0 0 0 1.23.59.59 0 0 0 .08 1.17 1.5 1.5 0 0 0-.91.72v.06h.06c1.38.48 2 1.08 1.76 1.84v.07h.07a1.73 1.73 0 0 1 1.4.69l-.2.14a.4.4 0 0 0-.17.27.2.2 0 0 0 0 .07.46.46 0 0 0 .08.25.4.4 0 0 0 .27.17.46.46 0 0 0 .26 0l.12.16c0 .06.1.43.11.47l-.35.53.62-.15.4.27.12.16a.45.45 0 0 0-.14.32h1.12a9.35 9.35 0 0 1 4.9-1.33m4.59-3.18c.71.11 1.08-.09 1.2-.64a.79.79 0 0 0-.31-.89 7.5 7.5 0 0 0 .28-1.92 3.85 3.85 0 0 0-.35-1.68 3.8 3.8 0 0 1 2.06 4 .8.8 0 0 0-.29.12 1 1 0 0 0-.45.83 1.7 1.7 0 0 0 .18.75.72.72 0 0 0-.38.3.83.83 0 0 0-.11.43s0 .09 0 .14a11.7 11.7 0 0 0-2-.93c.05-.2.11-.46.12-.51Zm-3-1.63a.5.5 0 0 0 0-.12.8.8 0 0 0-.44-.72 3.33 3.33 0 0 0 .66-2.19 7.2 7.2 0 0 0-.21-1.64c1.16.79 1.64 1.81 1.64 3.63v.52a.78.78 0 0 0-.61.55.9.9 0 0 0-.08.38c0 .34.23.6.71.83l-.21.51a13 13 0 0 0-2.36-.36c0-.23 0-.49-.05-.54.64-.1.95-.36.95-.85m-4.31 0a.78.78 0 0 0-.61-.55v-.52c0-1.82.48-2.84 1.64-3.63a7.2 7.2 0 0 0-.21 1.64 3.33 3.33 0 0 0 .66 2.19.8.8 0 0 0-.44.72s0 .08 0 .12c0 .49.31.75 1 .85 0 .05 0 .31-.05.54a13.3 13.3 0 0 0-2.36.36l-.21-.51c.48-.23.72-.49.72-.83a1 1 0 0 0-.14-.35ZM12.51 23v-.14a.83.83 0 0 0-.11-.43.72.72 0 0 0-.38-.3 1.7 1.7 0 0 0 .18-.75.94.94 0 0 0-.45-.83.8.8 0 0 0-.29-.12 3.82 3.82 0 0 1 2.06-4 3.85 3.85 0 0 0-.35 1.68 8 8 0 0 0 .29 1.89.79.79 0 0 0-.31.89c.12.55.49.75 1.2.64 0 0 .07.31.12.55a12 12 0 0 0-1.96.92" class="cls-4"></path><path d="M18.81 13.73a1.27 1.27 0 0 1-.68-.29h-.52a.29.29 0 0 1-.23.1.3.3 0 0 1-.22-.09H17a.31.31 0 0 1-.28.16.34.34 0 0 1-.27-.13h-.16a.37.37 0 0 1-.33.21.34.34 0 0 1-.29-.16h-.16a.39.39 0 0 1-.67.1h-.17a.41.41 0 0 1-.39.29.41.41 0 0 1-.31-.14h-.14a.46.46 0 0 1-.44.35.47.47 0 0 1-.3-.12l-.15.05a.46.46 0 0 1-.46.38.5.5 0 0 1-.24-.07l-.18.09a.5.5 0 0 1-.49.43.3.3 0 0 1-.14 0l-.19.15a.52.52 0 0 1-.53.52 2 2 0 0 0-.13.16.3.3 0 0 1 0 .1.56.56 0 0 1-.42.54 1.2 1.2 0 0 0-.1.2.57.57 0 0 1 .13.36.58.58 0 0 1-.45.56s0 .07 0 .1a.6.6 0 0 1 .34.54.62.62 0 0 1-.47.6.59.59 0 0 1 .14 1.28h.19a1.11 1.11 0 0 1 1 .52 1.1 1.1 0 0 1 .33-.07 5 5 0 0 1-.36-1.76 3 3 0 0 1 .25-1.26c.51-1.14 1.74-1.95 3.75-2.49l.37-.1L15 15a3.34 3.34 0 0 0-1.66 3.07 7.7 7.7 0 0 0 .26 1.85l.18-.1c.22-.13.44-.26.51-.51a.52.52 0 0 1-.43-.51.53.53 0 0 1 .52-.52.52.52 0 0 1 .21 1 1 1 0 0 0 .66.09 2 2 0 0 1 .35 0v-.51c0-1.93.52-3 1.8-3.8l.12-.08v.14a7.2 7.2 0 0 0-.24 1.76 3.26 3.26 0 0 0 .58 2.12l.32-.09a1.5 1.5 0 0 0 .43-.13.62.62 0 0 1-.27-.51.61.61 0 0 1 .3-.52.63.63 0 0 1-.32-.54.61.61 0 0 1 .35-.56.53.53 0 0 1-.26-.45.55.55 0 0 1 .26-.46.47.47 0 0 1-.2-.39.5.5 0 0 1 .22-.4.41.41 0 0 1 0-.68.33.33 0 0 1-.11-.25.34.34 0 0 1 .23-.29m-4.41 4.56a.57.57 0 0 1-.58-.57.58.58 0 0 1 .58-.58.57.57 0 0 1 .57.58.56.56 0 0 1-.57.57m.31-1.12a.52.52 0 0 1-.52-.52.52.52 0 0 1 .52-.52.53.53 0 0 1 .52.52.52.52 0 0 1-.52.52m.47-.93a.48.48 0 1 1 .48-.47.47.47 0 0 1-.48.47m.59-.77a.43.43 0 0 1-.43-.43.44.44 0 0 1 .43-.44.44.44 0 0 1 .44.44.44.44 0 0 1-.44.43m.66-.6a.4.4 0 0 1 0-.79.4.4 0 1 1 0 .79m.69-.45a.35.35 0 1 1 .35-.35.35.35 0 0 1-.35.35m.68-.32a.31.31 0 1 1 .31-.31.31.31 0 0 1-.31.31M27.78 19.44a.6.6 0 0 1 .58-.59.62.62 0 0 1-.47-.6.6.6 0 0 1 .34-.54s0-.07 0-.1a.59.59 0 0 1-.45-.56.57.57 0 0 1 .13-.36l-.09-.2a.56.56 0 0 1-.43-.54s0-.07 0-.1a2 2 0 0 0-.13-.16.52.52 0 0 1-.53-.52l-.25-.17a.3.3 0 0 1-.14 0 .5.5 0 0 1-.49-.43l-.18-.09a.5.5 0 0 1-.24.07.46.46 0 0 1-.46-.38l-.15-.05a.47.47 0 0 1-.3.12.44.44 0 0 1-.43-.35h-.15a.41.41 0 0 1-.31.14.41.41 0 0 1-.39-.29h-.17a.39.39 0 0 1-.67-.1h-.16a.34.34 0 0 1-.29.16.37.37 0 0 1-.33-.21h-.16a.34.34 0 0 1-.27.13.32.32 0 0 1-.28-.16h-.18a.3.3 0 0 1-.22.09.29.29 0 0 1-.23-.1h-.52a1.23 1.23 0 0 1-.68.29.34.34 0 0 1 .2.31.33.33 0 0 1-.11.25.41.41 0 0 1 0 .68.48.48 0 0 1 0 .79.53.53 0 0 1 .26.46.51.51 0 0 1-.26.45.61.61 0 0 1 .35.56.63.63 0 0 1-.32.54.61.61 0 0 1 .3.52.6.6 0 0 1-.27.51 1.5 1.5 0 0 0 .44.13c.1 0 .21.05.31.09a3.2 3.2 0 0 0 .66-2.14 7.2 7.2 0 0 0-.24-1.76v-.14l.12.08c1.28.82 1.8 1.87 1.8 3.8v.51a2 2 0 0 1 .35 0 1 1 0 0 0 .66-.09.53.53 0 1 1 .3 0c.07.25.29.38.52.51l.17.1a7.3 7.3 0 0 0 .27-1.85A3.36 3.36 0 0 0 22.94 15l-.33-.2.37.1c2 .54 3.24 1.35 3.75 2.49a3.05 3.05 0 0 1 .27 1.27 5 5 0 0 1-.37 1.76 1.1 1.1 0 0 1 .33.07A1.11 1.11 0 0 1 28 20h.19a.6.6 0 0 1-.41-.56m-7.69-5.34a.31.31 0 1 1 .31-.31.31.31 0 0 1-.31.31m.68.32a.35.35 0 1 1 .35-.35.35.35 0 0 1-.35.35m.29.06a.4.4 0 1 1 .79 0 .4.4 0 0 1-.79 0m.62.56a.44.44 0 0 1 .44-.44.44.44 0 0 1 .43.44.43.43 0 0 1-.43.43.44.44 0 0 1-.44-.47Zm2.39 2.68a.58.58 0 0 1-1.15 0 .58.58 0 1 1 1.15 0m-.37-1.07a.52.52 0 0 1-.52.52.52.52 0 0 1-.52-.52.53.53 0 0 1 .52-.52.52.52 0 0 1 .52.52m-1-1.36a.48.48 0 1 1-.48.48.47.47 0 0 1 .49-.48Z" class="cls-2"></path><path d="M10.49 22.64a2 2 0 0 0 0-.24c0-.67-.6-1.21-1.81-1.64a1.46 1.46 0 0 1 1.23-.68 1 1 0 0 1 .93.51v.05a.79.79 0 0 1 .76 0 .86.86 0 0 1 .4.74 1.54 1.54 0 0 1-.2.76v.07h.07a.6.6 0 0 1 .37.27.7.7 0 0 1 .1.37.8.8 0 0 1 0 .21l-.47.3a1.85 1.85 0 0 0-1.38-.72M27.37 22.4a2 2 0 0 0 0 .24 1.86 1.86 0 0 0-1.42.74l-.47-.3a.8.8 0 0 1 0-.21.7.7 0 0 1 .09-.37.6.6 0 0 1 .37-.27H26v-.07a1.66 1.66 0 0 1-.2-.76.86.86 0 0 1 .4-.74.79.79 0 0 1 .76 0h.05v-.05a1 1 0 0 1 .93-.51 1.46 1.46 0 0 1 1.23.68c-1.17.41-1.8.95-1.8 1.62" class="cls-2"></path><path d="M19 22.11a11.86 11.86 0 0 0-6.8 2.13l.11.15.4.27.62-.15s-.32.5-.35.53.07.3.12.47l.11.16a10.21 10.21 0 0 1 11.58 0l.11-.15c0-.18.1-.45.11-.48l-.35-.53.62.15.4-.27.11-.15A11.85 11.85 0 0 0 19 22.11m-1.82 1.27a.37.37 0 0 1-.22.14 10.5 10.5 0 0 0-2.33.73.34.34 0 0 1-.45-.17.33.33 0 0 1 .17-.44 10.8 10.8 0 0 1 2.48-.78.34.34 0 0 1 .26.05.38.38 0 0 1 .14.21.34.34 0 0 1-.1.26Zm2.05-.16-.23.59-.24-.59-.64-.22.59-.24.18-.46.06-.13s.21.55.23.59l.59.24Zm4.58.86a.33.33 0 0 1-.44.17 10.8 10.8 0 0 0-2.37-.73.37.37 0 0 1-.22-.14.4.4 0 0 1-.05-.26.38.38 0 0 1 .14-.21.34.34 0 0 1 .26-.05 10.8 10.8 0 0 1 2.48.78.33.33 0 0 1 .15.44Z" class="cls-5"></path><path d="M19 11.19a1.4 1.4 0 0 0-.36.05v-.64h-.95v-.7h.95V9h.71v.9h.95v.7h-1v.64a1.3 1.3 0 0 0-.3-.05" class="cls-2"></path><path d="M17.78 12.47a1.17 1.17 0 1 1 2.33 0 1.17 1.17 0 0 1-2.33 0" class="cls-2"></path><path d="m18.78 22.85.15-.37.14.37.38.15-.38.15-.14.37-.15-.37-.35-.15ZM14.23 24a.23.23 0 0 1 .12-.3 11 11 0 0 1 2.46-.7.23.23 0 0 1 .19 0 .25.25 0 0 1 .1.15.23.23 0 0 1-.18.26 10.3 10.3 0 0 0-2.36.74.23.23 0 0 1-.33-.15M23.36 24.15a10.3 10.3 0 0 0-2.36-.74.21.21 0 0 1-.14-.1.2.2 0 0 1 0-.16.25.25 0 0 1 .1-.15.25.25 0 0 1 .17 0 11 11 0 0 1 2.45.77.23.23 0 0 1 .12.3.23.23 0 0 1-.34.08" class="cls-6"></path><path d="M19 24.6a9.36 9.36 0 0 1 4.82 1.4h1a.33.33 0 0 0-.11-.15 10.07 10.07 0 0 0-11.55 0 .33.33 0 0 0-.11.15h1A9.37 9.37 0 0 1 19 24.6" class="cls-2"></path><path d="M11.81 24.23a.34.34 0 0 1-.2-.13.28.28 0 0 1 0-.23.32.32 0 0 1 .12-.2 12.67 12.67 0 0 1 14.53 0 .32.32 0 0 1 .12.2.28.28 0 0 1 0 .23.34.34 0 0 1-.2.13.37.37 0 0 1-.23-.05 12 12 0 0 0-13.81 0 .37.37 0 0 1-.33.05" class="cls-2"></path><path d="M12.39 25s-.06-.24-.09-.39l.33.22.39-.09-.22.33.09.39-.33-.22-.39.1ZM25.27 24.77l.31-.21-.09.39.22.34-.39-.1-.33.22.09-.39-.22-.33.39.09Z" class="cls-6"></path><path d="M26.54 20.33a3.89 3.89 0 0 0-2.27-4.11 3.35 3.35 0 0 0-1-1.11c1.78.53 2.88 1.29 3.35 2.33a3.05 3.05 0 0 1 .24 1.22 4.9 4.9 0 0 1-.32 1.67M11 18.66a2.9 2.9 0 0 1 .25-1.22c.46-1 1.56-1.8 3.34-2.33a3.35 3.35 0 0 0-1 1.11 3.9 3.9 0 0 0-2.27 4.11 4.9 4.9 0 0 1-.32-1.67" class="cls-5"></path><path d="M18.72 14a.23.23 0 1 1 .33.2h-.21000000000000002a.23.23 0 0 1-.12-.2M18.64 14.64a.3.3 0 0 1 .31-.3.29.29 0 0 1 .3.3.31.31 0 0 1-.17.28h-.27a.31.31 0 0 1-.17-.28M18.58 15.37a.37.37 0 0 1 .73 0 .38.38 0 0 1-.22.34.3.3 0 0 0-.14 0 .3.3 0 0 0-.15 0 .38.38 0 0 1-.22-.34M18.52 16.22a.43.43 0 0 1 .85 0 .44.44 0 0 1-.3.4h-.25a.44.44 0 0 1-.3-.4M18.43 17.23a.52.52 0 1 1 .52.51.51.51 0 0 1-.52-.51M22.34 15.77a.38.38 0 0 1 .37-.37.37.37 0 0 1 .36.37.36.36 0 0 1-.36.36.37.37 0 0 1-.37-.36M22.78 16.65a.41.41 0 1 1 .81 0 .41.41 0 1 1-.81 0M23 17.72a.47.47 0 1 1 .46.46.47.47 0 0 1-.46-.46M19.89 13.79a.2.2 0 0 1 .4 0 .2.2 0 0 1-.4 0M20.53 14.07a.24.24 0 1 1 .24.24.24.24 0 0 1-.24-.24M21.18 14.48a.27.27 0 0 1 .28-.28.28.28 0 0 1 .28.28.29.29 0 0 1-.28.28.28.28 0 0 1-.28-.28M21.79 15a.32.32 0 0 1 .33-.32.32.32 0 0 1 0 .64.32.32 0 0 1-.33-.32M20.32 13.24a.19.19 0 0 1 .19-.19.2.2 0 0 1 .19.19.19.19 0 0 1-.19.19.18.18 0 0 1-.19-.19M21 13.28a.22.22 0 1 1 .22.22.22.22 0 0 1-.22-.22M21.7 13.34a.25.25 0 0 1 .25-.25.25.25 0 0 1 0 .5.25.25 0 0 1-.25-.25M22.49 13.42a.27.27 0 0 1 .27-.27.28.28 0 1 1 0 .55.27.27 0 0 1-.27-.28M23.33 13.56a.31.31 0 0 1 .61 0 .31.31 0 1 1-.61 0M24.19 13.77a.33.33 0 0 1 .33-.33.34.34 0 0 1 0 .67.33.33 0 0 1-.33-.34M25.07 14.06a.36.36 0 1 1 .36.35.36.36 0 0 1-.36-.35M26 14.48a.39.39 0 0 1 .39-.39.39.39 0 1 1 0 .77.39.39 0 0 1-.39-.38M26.78 15.09a.41.41 0 0 1 .42-.41.41.41 0 0 1 .41.41.41.41 0 0 1-.41.42.42.42 0 0 1-.42-.42M27.48 15.92a.45.45 0 1 1 .45.45.45.45 0 0 1-.45-.45M27.88 17a.47.47 0 1 1 .94 0 .47.47 0 1 1-.94 0M28 18.22a.51.51 0 0 1 .5-.5.5.5 0 0 1 .5.5.5.5 0 0 1-.5.5.5.5 0 0 1-.5-.5M27.89 19.44a.49.49 0 1 1 .49.49.49.49 0 0 1-.49-.49M15.18 16.13a.36.36 0 0 1-.36-.36.37.37 0 1 1 .73 0 .36.36 0 0 1-.37.36M14.71 17.06a.41.41 0 0 1-.41-.41.41.41 0 1 1 .81 0 .4.4 0 0 1-.4.41M14.4 18.18a.47.47 0 0 1 0-.93.47.47 0 0 1 0 .93M17.8 14a.2.2 0 0 1-.2-.2.2.2 0 0 1 .4 0 .2.2 0 0 1-.2.2M17.12 14.31a.24.24 0 1 1 .24-.24.24.24 0 0 1-.24.24M16.43 14.76a.29.29 0 0 1-.28-.28.28.28 0 0 1 .28-.28.27.27 0 0 1 .28.28.28.28 0 0 1-.28.28M15.77 15.36a.32.32 0 1 1 .33-.36.32.32 0 0 1-.33.36M17.38 13.43a.19.19 0 0 1-.19-.19.2.2 0 0 1 .19-.19.2.2 0 0 1 .2.19.19.19 0 0 1-.2.19M16.7 13.5a.22.22 0 1 1 .22-.22.22.22 0 0 1-.22.22M15.94 13.59a.25.25 0 1 1 .25-.25.25.25 0 0 1-.25.25M15.13 13.7a.28.28 0 1 1 0-.55.28.28 0 0 1 0 .55M14.26 13.87a.31.31 0 1 1 0-.61.31.31 0 0 1 0 .61M13.37 14.11a.34.34 0 1 1 .34-.34.34.34 0 0 1-.34.34M12.46 14.41a.36.36 0 1 1 .36-.35.36.36 0 0 1-.36.35M11.55 14.86a.39.39 0 1 1 .39-.38.39.39 0 0 1-.39.38M10.69 15.51a.41.41 0 0 1-.41-.42.41.41 0 0 1 .41-.41.41.41 0 0 1 .42.41.42.42 0 0 1-.42.42M10 16.37a.45.45 0 1 1 .45-.45.45.45 0 0 1-.45.45M9.54 17.49a.47.47 0 0 1-.47-.49.47.47 0 1 1 .93 0 .47.47 0 0 1-.46.49M9.39 18.72a.5.5 0 0 1-.5-.5.5.5 0 0 1 .5-.5.51.51 0 0 1 .5.5.5.5 0 0 1-.5.5M9.51 19.93a.49.49 0 1 1 .49-.49.49.49 0 0 1-.49.49M19.44 18.29a.5.5 0 0 0-.33-.46h-.32a.49.49 0 0 0-.34.46.52.52 0 0 0 .26.44.6.6 0 0 0 .18-.28l.06-.18.05.18a.6.6 0 0 0 .18.28.52.52 0 0 0 .26-.44M24 18.81a.41.41 0 0 0-.82 0 .4.4 0 0 0 .3.39.3.3 0 0 0 .07-.08l.1-.15v.24a.41.41 0 0 0 .35-.4M14.75 18.81a.41.41 0 1 0-.48.4s0 0 0-.06V19l.1.15a.3.3 0 0 0 .07.08.4.4 0 0 0 .31-.42M22.39 21.08h-.05c-.48-.21-.7-.45-.7-.76a.9.9 0 0 1 .07-.33c.22-.54.58-.51 1-.48a.94.94 0 0 0 .83-.21c.06.34.33.5.59.65s.55.31.55.71a1 1 0 0 1 0 .22c-.11.51-.44.68-1.13.56h-.05s-.08.36-.13.63c-.39-.14-.78-.26-1.18-.37ZM14.44 21.41c-.68.12-1-.05-1.13-.56a2 2 0 0 1 0-.22c0-.4.27-.55.55-.71s.53-.31.59-.65a1 1 0 0 0 .84.21c.38 0 .74-.06 1 .48a.9.9 0 0 1 .07.33c0 .31-.22.55-.69.76h-.05s.13.34.24.59c-.4.11-.79.23-1.18.37-.16-.24-.24-.6-.24-.6" class="cls-2"></path><path d="M18.34 20.65c-.64-.09-.92-.31-.92-.76v-.1c0-.58.41-.66.78-.75a1 1 0 0 0 .75-.43.93.93 0 0 0 .74.43c.37.09.73.17.78.75v.1c0 .45-.29.67-.92.76h-.05s0 .36.06.64h-1.23c0-.26.05-.58.05-.58v-.06Z" class="cls-2"></path><path d="M15.72 35.15a.21.21 0 0 0-.14-.1.09.09 0 0 0 .09-.08.1.1 0 0 0-.08-.09.09.09 0 1 0 0-.18.09.09 0 0 0 .08-.09.09.09 0 0 0-.08-.08h-.06a.09.09 0 0 0 .09-.09.09.09 0 0 0-.09-.08.08.08 0 0 0-.07 0 .08.08 0 0 0 .05-.08.07.07 0 0 0-.07-.07.08.08 0 0 0-.08.06.1.1 0 0 0 0-.07.08.08 0 0 0-.08-.07.08.08 0 0 0-.07.07.07.07 0 0 0-.14 0 .06.06 0 0 0-.06-.06s-.07 0-.07.06a.06.06 0 0 0-.06-.06.06.06 0 0 0-.06.06.06.06 0 0 0-.12 0 .06.06 0 0 0-.06 0h-.05l-.05-.05a.05.05 0 0 0 0 .05h-.1a.2.2 0 0 0 .05-.13.17.17 0 0 0-.12-.17v-.09h.14v-.13h-.14v-.14h-.13v.14H14v.13h.14v.09a.17.17 0 0 0-.12.17.2.2 0 0 0 .05.13h-.12a.05.05 0 0 0 0-.05l-.05.05h-.05a.06.06 0 0 0-.06 0 .06.06 0 0 0 0-.06.06.06 0 0 0-.06.06.06.06 0 1 0-.12 0 .07.07 0 0 0-.07-.06.06.06 0 0 0-.06.06.07.07 0 0 0-.14 0 .08.08 0 0 0-.07-.07.08.08 0 0 0-.08.07.1.1 0 0 0 0 .07.08.08 0 0 0-.08-.06.08.08 0 0 0-.08.07.09.09 0 0 0 .06.08.08.08 0 0 0-.08 0 .09.09 0 0 0-.08.08.09.09 0 0 0 .08.09h-.06a.09.09 0 0 0-.08.08.09.09 0 0 0 .08.09.09.09 0 1 0 0 .18.09.09 0 0 0 0 .17.21.21 0 0 0-.14.1c.2.07.28.16.25.27a.26.26 0 0 1 .21.1v.07l-.05.08h.15a.05.05 0 0 0 0 .08.06.06 0 0 0 .08 0 1.36 1.36 0 0 1 .78-.24A1.3 1.3 0 0 1 15 36a.1.1 0 0 0 0-.05h.15l-.05-.08v-.07a.26.26 0 0 1 .21-.1c0-.11 0-.2.25-.27Zm-2.45.33a.14.14 0 0 0 0-.07s0 0-.05 0a.3.3 0 0 0 0-.11.14.14 0 0 0-.06-.12h-.05a.58.58 0 0 1 .3-.59.7.7 0 0 0-.05.25 1.6 1.6 0 0 0 0 .28.12.12 0 0 0 0 .13c0 .08.07.11.18.09a.3.3 0 0 0 0 .08 1.5 1.5 0 0 0-.27.06m.83-.25a1.4 1.4 0 0 0-.35.05v-.08c.07 0 .11-.07.11-.12 0-.06-.06-.08-.09-.08v-.08a.58.58 0 0 1 .23-.53 1 1 0 0 0 0 .24.5.5 0 0 0 .1.32.12.12 0 0 0-.1.05c0 .08 0 .11.15.13Zm.56.05a1.4 1.4 0 0 0-.35-.05v-.08c.1 0 .14 0 .14-.13a.12.12 0 0 0-.06-.11.5.5 0 0 0 .1-.32 1.2 1.2 0 0 0 0-.24.57.57 0 0 1 .24.53V35s-.06 0-.09.08c0 .05 0 .09.11.12a.3.3 0 0 0-.09.08m.63-.18a.14.14 0 0 0-.06.12.3.3 0 0 0 0 .11s0 0-.05 0a.14.14 0 0 0 0 .07 1.5 1.5 0 0 0-.28-.14v-.08c.11 0 .16 0 .18-.09s0-.11-.05-.13a1 1 0 0 0 .05-.28.5.5 0 0 0-.06-.25.55.55 0 0 1 .27.67" class="cls-4"></path><path d="M14.18 34.12a.11.11 0 0 1-.09 0H14a.05.05 0 0 1-.05 0 .07.07 0 0 1-.06 0 .06.06 0 0 1-.06.05.08.08 0 0 1-.07.05h-.56a.08.08 0 0 1-.07.07.08.08 0 0 1-.08.08.08.08 0 0 1-.07.08s0 0 0 .05a.1.1 0 0 1-.07.09.08.08 0 0 1 .05.08.1.1 0 0 1-.07.09.09.09 0 0 1 .09.09s0 .06-.06.08a.16.16 0 0 1 .15.08.9.9 0 0 1-.05-.26.6.6 0 0 1 0-.18.71.71 0 0 1 .55-.36h.05-.05a.5.5 0 0 0-.24.45 1 1 0 0 0 0 .27s.06 0 .07-.07a.07.07 0 0 1-.06-.07.07.07 0 0 1 .07-.08.08.08 0 0 1 .08.08s0 .05 0 .07h.15v-.08a.57.57 0 0 1 .26-.55 1.2 1.2 0 0 0 0 .25.47.47 0 0 0 .1.32h.07a.07.07 0 0 1 0-.07.09.09 0 0 1 0-.08.08.08 0 0 1-.05-.08.1.1 0 0 1 .05-.08.06.06 0 0 1 0-.06.08.08 0 0 1 0-.07.08.08 0 0 1 0-.06v-.05a.08.08 0 0 1 .11-.13m-.64.67a.09.09 0 0 1-.08-.08.09.09 0 0 1 .08-.09.09.09 0 0 1 .09.09.09.09 0 0 1-.09.08m.05-.16a.08.08 0 1 1 0-.16.08.08 0 0 1 0 .16m.07-.14a.07.07 0 1 1 0-.14.07.07 0 1 1 0 .14m.08-.11a.07.07 0 0 1-.06-.07.06.06 0 0 1 .06-.06.07.07 0 0 1 .07.06.07.07 0 0 1-.07.07m.1-.09a.06.06 0 0 1-.06-.06.06.06 0 0 1 .12 0 .06.06 0 0 1-.06.06m.1-.06a.06.06 0 0 1 0-.06h.1a.06.06 0 0 1-.1.06m.1 0-.04-.05ZM15.49 35a.09.09 0 0 1 .09-.09.1.1 0 0 1-.07-.09.08.08 0 0 1 .05-.08.1.1 0 0 1-.07-.09s0 0 0-.05a.09.09 0 0 1-.06-.08.08.08 0 0 1-.08-.08.08.08 0 0 1-.07-.07h-.06a.08.08 0 0 1-.07-.05.09.09 0 0 1-.07-.05.07.07 0 0 1-.06 0 .05.05 0 0 1-.05 0 .05.05 0 0 1-.05 0h-.08a.12.12 0 0 1-.1 0 .05.05 0 0 1 0 .05v.05a.08.08 0 0 1 0 .06.08.08 0 0 1 0 .07.06.06 0 0 1 0 .06s.05.05.05.08a.08.08 0 0 1-.05.08.09.09 0 0 1 0 .08.07.07 0 0 1 0 .07h.07a.47.47 0 0 0 .1-.32.8.8 0 0 0 0-.25.57.57 0 0 1 .26.55V35h.15v-.07a.07.07 0 0 1 .08-.08.07.07 0 0 1 .07.08.09.09 0 0 1-.06.07s0 .05.07.07a1 1 0 0 0 0-.27.5.5 0 0 0-.24-.45.73.73 0 0 1 .55.36.6.6 0 0 1 0 .18.65.65 0 0 1-.06.26.16.16 0 0 1 .15-.08.09.09 0 0 1-.39-.07m-1.12-.78h.05l-.05-.04Zm.1 0a.06.06 0 0 1-.05-.06h.1a.06.06 0 0 1-.05.07Zm0 0a.06.06 0 0 1 .12 0 .06.06 0 0 1-.12 0m.09.08a.07.07 0 0 1 .07-.06.06.06 0 0 1 .06.06.07.07 0 0 1-.06.07.07.07 0 0 1-.03-.06Zm.35.4a.09.09 0 0 1-.08.08.09.09 0 0 1-.09-.08.09.09 0 0 1 .09-.09.09.09 0 0 1 .17.1Zm0-.16a.09.09 0 0 1-.08.08.08.08 0 0 1 0-.16.09.09 0 0 1 .07.09Zm-.15-.2a.07.07 0 1 1-.07.07.07.07 0 0 1 .06-.06ZM13 35.42s-.09-.18-.27-.24a.21.21 0 0 1 .18-.1.17.17 0 0 1 .14.07.11.11 0 0 1 .11 0 .17.17 0 0 1 .06.11.24.24 0 0 1 0 .11h.06a.13.13 0 0 1 0 .06h-.07a.3.3 0 0 0-.21-.01" class="cls-2"></path><path d="M15.43 35.39a.3.3 0 0 0-.21.11h-.07a.13.13 0 0 1 0-.06h.06a.24.24 0 0 1 0-.11.14.14 0 0 1 .06-.11.11.11 0 0 1 .11 0 .17.17 0 0 1 .14-.07.22.22 0 0 1 .18.1q-.27-.01-.27.14" class="cls-2"></path><path d="M14.2 35.35a1.7 1.7 0 0 0-1 .31h.15l-.05.07v.07a1.46 1.46 0 0 1 1.69 0v-.07l.01-.03h.15a1.7 1.7 0 0 0-.95-.35m-.26.18a1.4 1.4 0 0 0-.34.11.05.05 0 0 1-.07 0v-.06a1.4 1.4 0 0 1 .36-.11s.11.05.05.06m.3 0v.08zh-.09zv-.07.09h.09Zm.67.12a.05.05 0 0 1-.07 0 1.4 1.4 0 0 0-.34-.11 1.5 1.5 0 0 1 .36.11l.05-.02Z" class="cls-5"></path><path d="M14.2 33.75v-.09H14v-.1h.14v-.14h.11v.14h.13v.1h-.13v.09ZM14 33.94a.17.17 0 0 1 .16-.17.17.17 0 1 1 0 .34.17.17 0 0 1-.16-.17" class="cls-2"></path><path d="M14.18 35.45v-.05zM13.52 35.63v-.05a2.5 2.5 0 0 1 .36-.11 1.4 1.4 0 0 0-.35.1s-.01.07-.01.06M14.85 35.64a1.4 1.4 0 0 0-.35-.1 2 2 0 0 1 .35.11v.05s.01-.05 0-.06" class="cls-6"></path><path d="M14.2 35.62a1.5 1.5 0 0 1 .85.26 1.3 1.3 0 0 0-.79-.25 1.35 1.35 0 0 0-.79.25h-.06a1.5 1.5 0 0 1 .79-.26" class="cls-2"></path><path d="M13.16 35.66a1.85 1.85 0 0 1 2.11 0 1.74 1.74 0 0 0-2 0Z" class="cls-2"></path><path d="M13.25 35.76v-.06h.05v.11h-.05ZM15.13 35.73v.11h-.06a.4.4 0 0 1 0-.06v-.05Z" class="cls-6"></path><path d="M15.31 35.09a.57.57 0 0 0-.33-.6.43.43 0 0 0-.14-.16.63.63 0 0 1 .48.34.33.33 0 0 1 0 .17.8.8 0 0 1-.01.25M13.05 34.84a.5.5 0 0 1 0-.17.67.67 0 0 1 .49-.34.43.43 0 0 0-.14.16.56.56 0 0 0-.33.6.6.6 0 0 1-.02-.25" class="cls-7"></path><path d="M14.16 34.26h.05a.05.05 0 0 1-.05 0M14.15 34.36a.06.06 0 0 1 .06 0h-.060000000000000005M14.14 34.49a.06.06 0 0 1 .06-.06s.07 0 .07.06a.07.07 0 0 1 0 .06.07.07 0 0 1-.13-.06" class="cls-2"></path><path d="M14.13 34.63a.07.07 0 0 1 .07-.07.07.07 0 0 1 .08.07.07.07 0 0 1-.08.08.07.07 0 0 1-.07-.08M14.7 34.42l.05-.05a.05.05 0 1 1 0 .1zM14.76 34.55a.06.06 0 0 1 .06-.06.06.06 0 0 1 0 .12.06.06 0 0 1-.06-.06M14.8 34.71a.07.07 0 0 1 .07-.07.08.08 0 0 1 .07.07s0 .06-.07.06a.07.07 0 0 1-.07-.06M14.44 34.17s0 .02 0 0M14.53 34.23h.08zM14.62 34.31h.05zM14.5 34.06h.06zM14.72 34.08h.08zM14.84 34.1h.05v.08zM15 34.13v-.05.1zM15.1 34.17h.05z" class="cls-2"></path><circle cx="15.28" cy="34.23" r=".06" class="cls-2"></circle><path d="M15.35 34.32a.06.06 0 0 1 .12 0 .06.06 0 0 1-.12 0M15.45 34.44a.06.06 0 0 1 .06-.06.07.07 0 0 1 .07.06.07.07 0 0 1-.07.07.07.07 0 0 1-.06-.07M15.51 34.6a.08.08 0 0 1 .07-.07s.06 0 .06.07a.07.07 0 0 1-.06.07.07.07 0 0 1-.07-.07M15.53 34.78a.07.07 0 1 1 .07.07.07.07 0 0 1-.07-.07M15.51 35a.07.07 0 1 1 .07.07.07.07 0 0 1-.07-.07M13.66 34.47a.05.05 0 1 1 0-.1.05.05 0 0 1 0 .1M13.59 34.61a.06.06 0 1 1 0-.12.06.06 0 1 1 0 .12M13.54 34.77a.07.07 0 0 1-.07-.06.07.07 0 0 1 .14 0 .07.07 0 0 1-.07.06M13.94 34.21s.06 0 0 0M13.84 34.27h.08zM13.74 34.36a.05.05 0 0 1-.05 0s0 0 .05 0M13.88 34.09v-.06zM13.65 34.12v-.08zM13.52 34.14v-.08zM13.39 34.18v-.1zM13.26 34.22h.05zM13.13 34.29a.06.06 0 0 1-.06-.06.06.06 0 0 1 .06 0 .06.06 0 0 1 0 .06M13 34.38a.06.06 0 0 1-.06-.06.06.06 0 0 1 .12 0 .06.06 0 0 1-.06.06M12.89 34.51a.07.07 0 0 1-.06-.07.06.06 0 0 1 .06-.06.07.07 0 0 1 .07.06.07.07 0 0 1-.07.07M12.83 34.67a.08.08 0 0 1-.07-.07.08.08 0 0 1 .07-.07.08.08 0 0 1 .07.07.07.07 0 0 1-.07.07M12.81 34.85a.07.07 0 1 1 .07-.07.07.07 0 0 1-.07.07M12.83 35a.07.07 0 1 1 .07 0 .07.07 0 0 1-.07 0M14.28 34.79a.08.08 0 0 0 0-.07h-.05a.08.08 0 0 0 0 .07.07.07 0 0 0 0 .06.07.07 0 0 0 .05-.06M14.94 34.87a.06.06 0 0 0-.06-.06.05.05 0 0 0-.06.06s0 .05 0 .05a.05.05 0 0 0 .12-.05M13.59 34.87a.05.05 0 0 0-.06-.06.06.06 0 0 0-.06.06.05.05 0 0 0 0 .05s.12-.03.12-.05M14.71 35.2c-.07 0-.1-.06-.1-.11 0-.07.08-.07.14-.07a.11.11 0 0 0 .12 0A.15.15 0 0 0 15 35s.08 0 .08.1c0 .08-.06.1-.16.09v.1l-.17-.06ZM13.55 35.24c-.1 0-.15 0-.16-.09 0-.06 0-.08.08-.1a.15.15 0 0 0 .09-.1.11.11 0 0 0 .12 0c.06 0 .11 0 .14.07 0 .05 0 .08-.1.11v.08l-.17.06ZM14.12 35.13c-.1 0-.14 0-.14-.11 0-.09.06-.1.12-.11a.13.13 0 0 0 .1-.06.17.17 0 0 0 .11.06c.06 0 .11 0 .12.11 0 .07 0 .1-.14.11v.1h-.18a.4.4 0 0 0 0-.09Z" class="cls-2"></path><path d="M25.2 35.15a.19.19 0 0 0-.13-.1.09.09 0 0 0 .08-.08.09.09 0 0 0-.07-.09.09.09 0 1 0 0-.18.08.08 0 0 0 .08-.09.08.08 0 0 0-.08-.08h-.06a.09.09 0 0 0 .08-.09.09.09 0 0 0-.08-.08.09.09 0 0 0-.08 0 .09.09 0 0 0 .06-.08.08.08 0 0 0-.08-.07s-.07 0-.07.06a.1.1 0 0 0 0-.07.07.07 0 0 0-.07-.07.08.08 0 0 0-.08.07.07.07 0 0 0-.07-.07.08.08 0 0 0-.07.07.06.06 0 0 0-.06-.06.07.07 0 0 0-.07.06.06.06 0 1 0-.12 0 .06.06 0 0 0-.06-.06.06.06 0 0 0 0 .06.06.06 0 0 0-.06 0 .05.05 0 0 0-.05 0L24 34v.05h-.1a.2.2 0 0 0 .05-.13.18.18 0 0 0-.11-.17v-.09h.13v-.13h-.13v-.14h-.14v.14h-.14v.13h.14v.09a.17.17 0 0 0-.12.17.2.2 0 0 0 .05.13h-.13a.05.05 0 1 0-.1 0h-.1a.06.06 0 1 0-.12 0A.06.06 0 0 0 23 34a.06.06 0 0 0-.06.06s0-.06-.07-.06a.06.06 0 0 0-.06.06.07.07 0 1 0-.14 0 .07.07 0 1 0-.14 0 .1.1 0 0 0 0 .07.08.08 0 0 0-.08-.06.07.07 0 0 0-.07.07.08.08 0 0 0 .05.08.08.08 0 0 0-.07 0 .08.08 0 0 0-.08.08.08.08 0 0 0 .08.09h-.05a.09.09 0 0 0-.09.08.09.09 0 0 0 .09.09.09.09 0 1 0 0 .18.09.09 0 0 0-.07.09.08.08 0 0 0 .08.08.17.17 0 0 0-.13.1c.2.07.29.16.26.27a.25.25 0 0 1 .21.1s0 .06 0 .07l-.05.08h.15a.06.06 0 0 0 0 .08.07.07 0 0 0 .09 0 1.39 1.39 0 0 1 1.56 0s0 0 0-.05h.15l-.05-.08v-.07a.23.23 0 0 1 .2-.1c0-.11 0-.2.25-.27Zm-2.45.33a.14.14 0 0 0 0-.07s0 0-.05 0a.3.3 0 0 0 0-.11.14.14 0 0 0-.06-.12.55.55 0 0 1 .3-.59.5.5 0 0 0 0 .25 1 1 0 0 0 0 .28s-.06.06-.05.13.07.11.18.09 0 .05 0 .08a2 2 0 0 0-.32.06m.83-.25a1.3 1.3 0 0 0-.34.05v-.08c.07 0 .1-.07.1-.12a.1.1 0 0 0-.09-.08v-.08a.57.57 0 0 1 .24-.53 1 1 0 0 0 0 .24.5.5 0 0 0 .09.32.12.12 0 0 0-.06.11c0 .08 0 .11.14.13a.4.4 0 0 0-.08.04m.56.05a1.4 1.4 0 0 0-.35-.05v-.08c.09 0 .14 0 .14-.13a.15.15 0 0 0-.07-.11.44.44 0 0 0 .1-.32 1 1 0 0 0 0-.24.57.57 0 0 1 .24.53.2.2 0 0 1 0 .08s-.06 0-.08.08c0 .05 0 .09.11.12Zm.64-.18h-.05a.14.14 0 0 0-.06.12.16.16 0 0 0 0 .11h-.06a.14.14 0 0 0 0 .07 2 2 0 0 0-.29-.14 1 1 0 0 0 0-.08c.1 0 .15 0 .17-.09a.11.11 0 0 0 0-.13 1.6 1.6 0 0 0 0-.28.7.7 0 0 0-.05-.25.58.58 0 0 1 .34.67" class="cls-4"></path><path d="M23.67 34.12a.12.12 0 0 1-.1 0h-.08a.05.05 0 0 1-.05 0 .07.07 0 0 1-.05 0 .07.07 0 0 1-.06 0 .09.09 0 0 1-.07.05.08.08 0 0 1-.07.05h-.06a.08.08 0 0 1-.07.07.07.07 0 0 1-.08.08.09.09 0 0 1-.06.08s0 0 0 .05a.1.1 0 0 1-.06.09.08.08 0 0 1 .05.08.1.1 0 0 1-.07.09.09.09 0 0 1 .09.09.1.1 0 0 1 0 .08.16.16 0 0 1 .15.08h.05a.65.65 0 0 1-.06-.26.6.6 0 0 1 0-.18.73.73 0 0 1 .55-.36.5.5 0 0 0-.24.45 1.5 1.5 0 0 0 0 .27s.06 0 .07-.07a.09.09 0 0 1-.06-.07.07.07 0 0 1 .08-.08.07.07 0 0 1 .07.08.1.1 0 0 1 0 .07h.14v-.08a.56.56 0 0 1 .27-.55.8.8 0 0 0 0 .25.53.53 0 0 0 .1.32h.07a.07.07 0 0 1 0-.07.12.12 0 0 1 0-.08v-.08a.1.1 0 0 1 0-.08.05.05 0 0 1 0-.06.07.07 0 0 1 0-.07.06.06 0 0 1 0-.06v-.05a.05.05 0 0 1-.45-.13m-.65.67a.09.09 0 0 1-.08-.08.09.09 0 0 1 .08-.09.09.09 0 0 1 .09.09.09.09 0 0 1-.11.08Zm.05-.16a.08.08 0 1 1 0-.16.08.08 0 0 1 0 .16m.07-.14a.07.07 0 1 1 .07-.07.07.07 0 0 1-.07.07m.08-.11a.07.07 0 0 1-.06-.07.06.06 0 0 1 .06-.06.07.07 0 0 1 .07.06.07.07 0 0 1-.07.07m.1-.09a.06.06 0 0 1-.06-.06.06.06 0 0 1 .12 0 .06.06 0 0 1-.06.06m.1-.06a.06.06 0 0 1-.05-.06.05.05 0 1 1 .1 0 .06.06 0 0 1-.05.06m.1 0a.05.05 0 0 1-.05 0s0 0 .05 0v-.05Z" class="cls-2"></path><path d="M25 35a.08.08 0 0 1 .08-.09.1.1 0 0 1-.07-.09.08.08 0 0 1-.01-.12.1.1 0 0 1 0-.1v-.05a.08.08 0 0 1-.06-.08.08.08 0 0 1-.08-.08.08.08 0 0 1-.08-.07h-.06a.08.08 0 0 1-.07-.05.06.06 0 0 1-.06-.05h-.05a.07.07 0 0 1-.06 0 .05.05 0 0 1-.05 0h-.12000000000000001a.14.14 0 0 1-.1 0 .1.1 0 0 1 0 .05v.05a.1.1 0 0 1 0 .06.08.08 0 0 1 0 .07.06.06 0 0 1 0 .06.1.1 0 0 1 .05.08.08.08 0 0 1-.05.08.09.09 0 0 1 0 .08.08.08 0 0 1 0 .07h.06a.47.47 0 0 0 .1-.32 1.2 1.2 0 0 0 0-.25.56.56 0 0 1 .26.55v.2h.15v-.07a.08.08 0 0 1 .08-.08.07.07 0 0 1 .07.08.07.07 0 0 1-.06.07s0 .05.08.07a1 1 0 0 0 0-.27.5.5 0 0 0-.24-.45h-.05.06a.71.71 0 0 1 .54.36.4.4 0 0 1 0 .18.9.9 0 0 1-.05.26A.18.18 0 0 1 25 35m-1.13-.78-.02-.04Zm.1 0a.06.06 0 0 1-.05-.06.05.05 0 1 1 .1 0 .06.06 0 0 1-.02.07Zm.05 0h.05a.06.06 0 0 1 .06 0 .06.06 0 0 1-.06.06.06.06 0 0 1-.07-.05Zm.09.08a.06.06 0 0 1 .06-.06.06.06 0 0 1 .06.06.07.07 0 0 1-.06.07s-.08-.02-.08-.06Zm.34.4a.08.08 0 1 1-.16 0 .08.08 0 1 1 .16 0m-.05-.16a.08.08 0 0 1-.08.08.08.08 0 0 1 0-.16.08.08 0 0 1 .06.09Zm-.14-.2a.07.07 0 0 1 0 .14.07.07 0 1 1 0-.14M22.45 35.42q0-.15-.27-.24a.22.22 0 0 1 .18-.1.16.16 0 0 1 .14.07.11.11 0 0 1 .11 0 .14.14 0 0 1 .06.11.24.24 0 0 1 0 .11h.06a.13.13 0 0 1 0 .06h-.07a.3.3 0 0 0-.21-.01M24.92 35.39a.3.3 0 0 0-.21.11h-.07a.13.13 0 0 1 0-.06h.06a.3.3 0 0 1 0-.11.16.16 0 0 1 0-.11.11.11 0 0 1 .11 0 .17.17 0 0 1 .14-.07.21.21 0 0 1 .18.1c-.13-.04-.21.04-.21.14" class="cls-2"></path><path d="M23.69 35.35a1.66 1.66 0 0 0-1 .31h.15l-.05.07v.07a1.46 1.46 0 0 1 1.69 0v-.14h.15a1.7 1.7 0 0 0-.94-.31m-.27.18a1.4 1.4 0 0 0-.34.11.06.06 0 0 1-.07 0v-.06a1.7 1.7 0 0 1 .36-.11s.06.05.05.06m.3 0v.08zh-.08zv-.07.09h.09Zm.67.12a.05.05 0 0 1-.07 0 1.2 1.2 0 0 0-.34-.11 1.4 1.4 0 0 1 .36.11l.05-.02Z" class="cls-5"></path><path d="M23.69 33.75h-.05v-.09h-.14v-.1h.14v-.14h.1v.14h.14v.1h-.14v.09ZM23.52 33.94a.17.17 0 0 1 .17-.17.17.17 0 0 1 0 .34.17.17 0 0 1-.17-.17" class="cls-2"></path><path d="M23.66 35.45v-.05zh.05zh-.06ZM23 35.63v-.05a2 2 0 0 1 .36-.11 1.4 1.4 0 0 0-.35.1s-.01.07-.01.06M24.33 35.64a1.3 1.3 0 0 0-.34-.1 2.5 2.5 0 0 1 .36.11v.05s0-.05-.02-.06" class="cls-6"></path><path d="M23.69 35.62a1.5 1.5 0 0 1 .84.26 1.35 1.35 0 0 0-.79-.25 1.3 1.3 0 0 0-.79.25.06.06 0 0 1-.07 0 1.5 1.5 0 0 1 .81-.26" class="cls-2"></path><path d="M22.65 35.66a1.9 1.9 0 0 1 1.06-.33 1.9 1.9 0 0 1 1.06.33 1.7 1.7 0 0 0-1-.32 1.73 1.73 0 0 0-1 .32Z" class="cls-2"></path><path d="M22.73 35.76v-.06h.1v.11h-.13ZM24.61 35.73v.11h-.1v-.11h.06Z" class="cls-6"></path><path d="M24.8 35.09a.56.56 0 0 0-.34-.6.43.43 0 0 0-.14-.16.67.67 0 0 1 .49.34.5.5 0 0 1 0 .17.8.8 0 0 1-.01.25M22.53 34.84a.33.33 0 0 1 0-.17.65.65 0 0 1 .48-.34.43.43 0 0 0-.14.16.57.57 0 0 0-.33.6.8.8 0 0 1-.01-.25" class="cls-7"></path><path d="M23.64 34.26h.05s-.05.02-.05 0M23.63 34.36a.06.06 0 0 1 .06 0s-.06.03-.06 0M23.63 34.49a.05.05 0 0 1 .06-.06.06.06 0 0 1 .06.06.08.08 0 0 1 0 .06.06.06 0 0 1-.12-.06" class="cls-2"></path><path d="M23.61 34.63a.08.08 0 0 1 .08-.07.07.07 0 0 1 .07.07.07.07 0 0 1-.07.08.08.08 0 0 1-.08-.08M24.18 34.42a.06.06 0 0 1 .06-.05.05.05 0 1 1 0 .1.06.06 0 0 1-.06-.05M24.25 34.55a.06.06 0 0 1 .05-.06.06.06 0 1 1 0 .12.06.06 0 0 1-.05-.06M24.28 34.71a.07.07 0 0 1 .14 0 .07.07 0 0 1-.14 0M23.83 34.13s0 .02 0 0M23.92 34.17s0 .02 0 0M24.1 34.31a.05.05 0 0 1 .1 0 .05.05 0 0 1-.1 0M23.89 34.05s0 .02 0 0M24.2 34.08v.08zM24.33 34.1v.08zM24.45 34.13a.05.05 0 1 1 .05 0zM24.58 34.17a.05.05 0 1 1 .05 0zM24.71 34.23h.11a.06.06 0 0 1-.05.06.06.06 0 0 1-.06-.06M24.83 34.32a.06.06 0 1 1 .12 0 .06.06 0 1 1-.12 0M24.93 34.44a.07.07 0 0 1 .07-.06.06.06 0 0 1 .06.06.07.07 0 0 1-.06.07.07.07 0 0 1-.07-.07M25 34.6a.07.07 0 1 1 .14 0 .07.07 0 1 1-.14 0M25 34.78a.07.07 0 1 1 .07.07.07.07 0 0 1-.07-.07M25 35a.07.07 0 1 1 .07.07A.07.07 0 0 1 25 35M23.14 34.47h.05zM23.07 34.61a.06.06 0 1 1 .06-.06.06.06 0 0 1-.06.06M23 34.77a.06.06 0 0 1-.06-.06.07.07 0 0 1 .06-.07.07.07 0 0 1 .07.07.07.07 0 0 1-.07.06M23.52 34.16h.06zM23.32 34.27h.08zM23.22 34.36h.05zM23.36 34.09v-.06zM23.25 34.1h.08zM23.13 34.12v-.08zM23 34.14v-.08zM22.87 34.18a.05.05 0 0 1 0-.1.05.05 0 1 1 0 .1M22.74 34.22h.05zM22.61 34.29a.06.06 0 0 1-.06-.06.06.06 0 0 1 .06 0h.05a.06.06 0 0 1-.05.06M22.48 34.38a.06.06 0 0 1-.06-.06.06.06 0 0 1 .06-.06.06.06 0 0 1 .06.06.05.05 0 0 1-.06.06M22.38 34.51a.07.07 0 0 1-.07-.07.07.07 0 0 1 .07-.06.06.06 0 0 1 .06.06.07.07 0 0 1-.06.07M22.32 34.67a.07.07 0 0 1-.07-.07.08.08 0 0 1 .07-.07s.06 0 .06.07a.07.07 0 0 1-.06.07M22.29 34.85a.07.07 0 1 1 0-.14.07.07 0 1 1 0 .14M22.31 35a.07.07 0 1 1 .07-.07.07.07 0 0 1-.07.07M23.76 34.79a.08.08 0 0 0-.05-.07h-.05a.09.09 0 0 0-.05.07.07.07 0 0 0 0 .06.07.07 0 0 0 .15-.06M24.42 34.87a.06.06 0 1 0-.12 0s0 .05 0 .05zM23.07 34.87s0-.06-.05-.06a.05.05 0 0 0-.06.06v.05s.11-.03.11-.05M24.19 35.2c-.07 0-.1-.06-.1-.11 0-.07.09-.07.14-.07a.11.11 0 0 0 .12 0 .15.15 0 0 0 .09.1s.08 0 .08.1c0 .08-.07.1-.17.09v.1l-.17-.06a.5.5 0 0 0 .01-.15M23 35.24c-.1 0-.15 0-.16-.09 0-.06 0-.08.09-.1a.16.16 0 0 0 .08-.1.11.11 0 0 0 .12 0c.06 0 .11 0 .14.07 0 .05 0 .08-.1.11a.3.3 0 0 0 0 .08l-.17.06z" class="cls-2"></path><path d="M23.6 35.13c-.1 0-.14 0-.14-.11 0-.09.06-.1.12-.11a.17.17 0 0 0 .11-.06s.06 0 .11.06.1 0 .11.11c0 .07 0 .1-.13.11v.1h-.18v-.09Z" class="cls-2"></path><path d="M20.46 47.57a.3.3 0 0 0-.13-.11.09.09 0 0 0 .08-.08.09.09 0 0 0-.08-.09.09.09 0 1 0 0-.18.09.09 0 0 0 .07-.11.08.08 0 0 0-.08-.08.07.07 0 0 0-.06 0 .08.08 0 0 0 .08-.08.09.09 0 0 0-.08-.08.08.08 0 0 0-.08 0 .07.07 0 0 0 .06-.07.09.09 0 0 0-.08-.08.09.09 0 0 0-.08.06.07.07 0 0 0 0-.06.08.08 0 0 0-.08-.07.09.09 0 0 0-.07.06.07.07 0 0 0-.14 0 .07.07 0 0 0-.06-.07s-.06 0-.07.07a.06.06 0 1 0-.12 0 .06.06 0 0 0-.06-.06.06.06 0 0 0-.05.06.06.06 0 0 0-.06-.06.06.06 0 0 0-.05.06h-.05a.05.05 0 0 0-.05 0h-.05a.17.17 0 0 0 .05-.12.17.17 0 0 0-.12-.17v-.21h.14V46H19v-.14h-.13V46h-.14v.13h.14v.09a.17.17 0 0 0-.12.17.17.17 0 0 0 0 .12h-.1a.05.05 0 1 0-.1 0 .06.06 0 1 0-.12 0 .05.05 0 0 0-.06-.06.06.06 0 0 0-.06.06.07.07 0 0 0-.07-.07.07.07 0 0 0-.06.07.07.07 0 0 0-.14 0 .07.07 0 0 0-.07-.06.08.08 0 0 0-.08.07.07.07 0 0 0 0 .06.09.09 0 0 0-.08-.06.08.08 0 0 0-.07.08s0 .07 0 .07a.08.08 0 0 0-.07 0 .09.09 0 0 0-.09.08.08.08 0 0 0 .09.08s0 0-.06 0a.08.08 0 0 0-.08.08.09.09 0 0 0 .08.09.09.09 0 1 0 0 .18.1.1 0 0 0-.08.09.09.09 0 0 0 .09.08.26.26 0 0 0-.14.11c.2.07.28.16.25.27a.26.26 0 0 1 .21.1v.14h.15a.06.06 0 0 0 0 .08.07.07 0 0 0 .09 0 1.32 1.32 0 0 1 .78-.25 1.37 1.37 0 0 1 .78.25h.15v-.14a.26.26 0 0 1 .21-.1c0-.11.05-.2.25-.27ZM18 47.9a.14.14 0 0 0 0-.07.3.3 0 0 0 0-.11.13.13 0 0 0-.06-.12.55.55 0 0 1 .3-.59.5.5 0 0 0-.05.25 1 1 0 0 0 0 .28s-.06.06 0 .13.07.11.18.09 0 0 0 .08a1.5 1.5 0 0 0-.37.06m.83-.26a2 2 0 0 0-.35.06v-.08c.07 0 .11-.07.11-.12 0-.06-.06-.08-.09-.08v-.08a.56.56 0 0 1 .24-.53.7.7 0 0 0 0 .24.53.53 0 0 0 .09.32.11.11 0 0 0-.06.1c0 .07 0 .11.14.13Zm.56.06a2 2 0 0 0-.35-.06.4.4 0 0 0 0-.07c.1 0 .15-.06.15-.13a.11.11 0 0 0-.06-.1.53.53 0 0 0 .1-.32 1 1 0 0 0 0-.24.57.57 0 0 1 .23.53v.08s-.06 0-.09.08 0 .09.11.12a.22.22 0 0 0-.08.11Zm.64-.18h-.05a.13.13 0 0 0-.06.12.3.3 0 0 0 0 .11.1.1 0 0 0-.05 0 .14.14 0 0 0 0 .07 1.5 1.5 0 0 0-.28-.14s0-.07 0-.08.15 0 .17-.09a.12.12 0 0 0 0-.13 2 2 0 0 0 0-.28.6.6 0 0 0-.05-.25.58.58 0 0 1 .29.67Z" class="cls-4"></path><path d="M18.93 46.54a.15.15 0 0 1-.1 0h-.13a.05.05 0 0 1-.05 0h-.05a.07.07 0 0 1-.06 0 .08.08 0 0 1-.07 0h-.06a.07.07 0 0 1-.07.06h-.06a.07.07 0 0 1-.07.06.09.09 0 0 1-.08.08.09.09 0 0 1-.06.08.1.1 0 0 1 0 .05.09.09 0 0 1-.06.08.08.08 0 0 1 .05.08.08.08 0 0 1-.07.08.09.09 0 0 1 .09.09.07.07 0 0 1-.06.07.16.16 0 0 1 .15.08.65.65 0 0 1-.06-.26.5.5 0 0 1 0-.18.74.74 0 0 1 .55-.37h.05-.05a.5.5 0 0 0-.24.45 1.5 1.5 0 0 0 0 .27.16.16 0 0 0 .07-.07.09.09 0 0 1-.06-.08.07.07 0 0 1 .07-.07.07.07 0 0 1 .08.07.08.08 0 0 1-.05.07.2.2 0 0 0 .1 0h.05v-.07a.57.57 0 0 1 .26-.55.9.9 0 0 0 0 .26.43.43 0 0 0 .1.31h.07a.07.07 0 0 1 0-.07.12.12 0 0 1 0-.08.08.08 0 0 1 0-.08s0-.06.06-.08a.07.07 0 0 1 0-.07.06.06 0 0 1 0-.06.06.06 0 0 1 0-.06.1.1 0 0 1 0-.06.1.1 0 0 1 0-.06.05.05 0 0 1-.24.03m-.65.67a.09.09 0 0 1-.08-.09.09.09 0 0 1 .08-.08.09.09 0 0 1 .09.08.09.09 0 0 1-.09.09m0-.17a.08.08 0 0 1-.08-.07.09.09 0 0 1 .08-.08.08.08 0 0 1 .07.08.1.1 0 0 1-.02.03Zm.07-.13a.07.07 0 1 1 .07-.07.07.07 0 0 1-.02.07Zm.08-.11a.07.07 0 0 1-.06-.07.06.06 0 0 1 .06-.06.07.07 0 0 1 .07.06.07.07 0 0 1-.02.07Zm.1-.09a.06.06 0 1 1 .06-.06.06.06 0 0 1-.01.06Zm.1-.07h.05Zm.1 0-.05-.05h.05l.05.01Z" class="cls-2"></path><path d="M20.23 47.38a.09.09 0 0 1 .09-.09.08.08 0 0 1-.07-.08.08.08 0 0 1 .05-.08.08.08 0 0 1-.07-.08.1.1 0 0 1 0-.05.08.08 0 0 1-.07-.08.09.09 0 0 1-.08-.08.07.07 0 0 1-.07-.06h-.06a.07.07 0 0 1-.07-.06h-.06a.06.06 0 0 1-.06 0 .07.07 0 0 1-.06 0h-.05a.05.05 0 0 1-.05 0h-.12000000000000001a.2.2 0 0 1-.1 0 .1.1 0 0 1 0 .05.06.06 0 0 1 0 .06v.06a.1.1 0 0 1 0 .06.07.07 0 0 1 0 .06A.08.08 0 0 1 19 47a.1.1 0 0 1 .05.08.08.08 0 0 1-.05.08.09.09 0 0 1 0 .08.07.07 0 0 1 0 .07h.07a.43.43 0 0 0 .1-.31.9.9 0 0 0 0-.26.57.57 0 0 1 .26.55v.07a.16.16 0 0 0 .1 0 .08.08 0 0 1-.05-.07.08.08 0 0 1 .08-.07.07.07 0 0 1 .07.07.08.08 0 0 1-.06.08s0 0 .08.07a1 1 0 0 0 0-.27.5.5 0 0 0-.24-.45h-.05.05a.74.74 0 0 1 .55.37.34.34 0 0 1 0 .18.9.9 0 0 1-.05.26.16.16 0 0 1 .15-.08.09.09 0 0 1 .17-.07m-1.12-.78v-.05h.05zm.1 0h.05l-.05.04Zm0 0a.06.06 0 1 1 .06.06.1.1 0 0 1-.02-.01Zm.09.08a.07.07 0 0 1 .07-.06.06.06 0 0 1 .06.06.07.07 0 0 1-.06.07.1.1 0 0 1-.03-.02Zm.35.39a.09.09 0 0 1-.08.09.09.09 0 0 1-.09-.09.09.09 0 0 1 .09-.08.09.09 0 0 1 .12.13Zm-.01-.07a.07.07 0 0 1-.08.07.07.07 0 0 1-.07-.07.08.08 0 0 1 .07-.08.08.08 0 0 1 .08.08m-.15-.2a.07.07 0 0 1 0 .14.07.07 0 1 1 0-.14M17.71 47.84s-.09-.18-.27-.24a.22.22 0 0 1 .18-.1.15.15 0 0 1 .14.07.11.11 0 0 1 .11 0 .11.11 0 0 1 .06.11.24.24 0 0 1 0 .11.1.1 0 0 1 .06 0 .1.1 0 0 1 0 .06h-.07a.26.26 0 0 0-.21-.01M20.17 47.81A.28.28 0 0 0 20 48h-.07a.1.1 0 0 1 0-.06.1.1 0 0 1 .06 0 .24.24 0 0 1 0-.11.14.14 0 0 1 .06-.11.11.11 0 0 1 .11 0 .15.15 0 0 1 .14-.07.21.21 0 0 1 .18.1q-.31-.09-.31.06" class="cls-2"></path><path d="M19 47.76a1.8 1.8 0 0 0-1 .31h.15l-.05.08a.3.3 0 0 0 0 .07 1.5 1.5 0 0 1 1.69 0v-.07l-.05-.08h.15a1.8 1.8 0 0 0-.89-.31m-.27.19a1.4 1.4 0 0 0-.34.11.05.05 0 0 1-.07 0V48a2 2 0 0 1 .36-.12.06.06 0 0 1 0 .12Zm.3 0L19 48v-.08h-.08.08v-.07.09h.09Zm.67.12a.05.05 0 0 1-.07 0 1.4 1.4 0 0 0-.34-.11 2 2 0 0 1 .36.12v-.03Z" class="cls-5"></path><path d="M19 46.17h-.06v-.09h-.13V46h.13v-.13H19V46h.14v.11H19v.09Z" class="cls-2"></path><path d="M18.78 46.36a.16.16 0 0 1 .17-.17.17.17 0 0 1 .17.17.18.18 0 0 1-.17.17.17.17 0 0 1-.17-.17" class="cls-2"></path><path d="M18.92 47.87h.05zL19 48v-.06h-.05ZM18.26 48.05a1.7 1.7 0 0 1 .36-.11 2 2 0 0 0-.35.11s0 .01-.01 0M19.59 48.06a2 2 0 0 0-.34-.11 1.7 1.7 0 0 1 .36.11s0 .01-.02 0" class="cls-6"></path><path d="M19 48a1.5 1.5 0 0 1 .84.26 1.35 1.35 0 0 0-.79-.25 1.3 1.3 0 0 0-.79.25.07.07 0 0 1-.07 0A1.5 1.5 0 0 1 19 48" class="cls-2"></path><path d="M17.91 48.07A1.85 1.85 0 0 1 20 48a1.74 1.74 0 0 0-2 0Z" class="cls-2"></path><path d="M18 48.18v-.06h.05a.2.2 0 0 1 0 .06h-.06ZM19.87 48.15v.06h-.1v-.06h.06Z" class="cls-6"></path><path d="M20.05 47.5a.57.57 0 0 0-.33-.6.5.5 0 0 0-.14-.16.73.73 0 0 1 .49.34.6.6 0 0 1 0 .18.5.5 0 0 1-.02.24M17.79 47.26a.4.4 0 0 1 0-.18.69.69 0 0 1 .48-.34.5.5 0 0 0-.14.16.58.58 0 0 0-.33.6.7.7 0 0 1-.01-.24" class="cls-7" data-source="https://football-logos.cc"></path><path d="M18.9 46.68h.05a.05.05 0 0 1-.05 0M18.89 46.78a.06.06 0 0 1 .06-.05l.05.05a.09.09 0 0 1-.11 0M18.88 46.9a.07.07 0 0 1 .07-.06.06.06 0 0 1 .06.06.06.06 0 0 1-.01.1.06.06 0 0 1-.12-.1" class="cls-2"></path><path d="M18.87 47.05A.07.07 0 0 1 19 47a.07.07 0 0 1 .07.07.08.08 0 0 1-.07.08.08.08 0 0 1-.13-.1M19.44 46.84v-.05a.05.05 0 1 1 0 .1zM19.5 47a.06.06 0 0 1 .06-.06.06.06 0 1 1 0 .12.06.06 0 0 1-.06-.06" class="cls-2"></path><path d="M19.54 47.12a.07.07 0 0 1 .14 0 .07.07 0 1 1-.14 0M19.18 46.59s0 .02 0 0M19.27 46.65h.08zM19.36 46.73h.05v.05zM19.15 46.47s0 .02 0 0M19.24 46.48h-.07ZM19.46 46.5h.08zM19.59 46.52v-.05zM19.71 46.55h.05a.05.05 0 0 1 0 .1zM19.84 46.59a.05.05 0 1 1 .05 0zM20 46.65a.06.06 0 0 1 .05-.06.06.06 0 1 1 0 .12.06.06 0 0 1-.05-.06M20.09 46.74a.06.06 0 1 1 .06.06.06.06 0 0 1-.06-.06M20.19 46.86a.07.07 0 0 1 .07-.06.06.06 0 0 1 .06.06.07.07 0 0 1-.06.07.07.07 0 0 1-.07-.07M20.25 47a.07.07 0 0 1 .07-.07.07.07 0 0 1 0 .14.07.07 0 0 1-.07-.07M20.27 47.2a.07.07 0 1 1 .14 0 .07.07 0 0 1-.14 0M20.25 47.38a.07.07 0 1 1 .14 0 .07.07 0 0 1-.14 0M18.4 46.89a.05.05 0 1 1 0-.1zM18.33 47a.06.06 0 1 1 .06-.06.06.06 0 0 1-.06.06M18.28 47.19a.07.07 0 0 1-.06-.07.06.06 0 0 1 .06-.06.07.07 0 0 1 .07.06.07.07 0 0 1-.07.07M18.68 46.63h.06zM18.58 46.69v-.08zM18.48 46.78v-.05h.05zM18.62 46.51h.06zM18.39 46.54v-.08zM18.26 46.56v-.05zM18.13 46.6a.05.05 0 0 1 0-.1.05.05 0 0 1 0 .1M18 46.64h.05zM17.87 46.71a.06.06 0 0 1 0-.12.06.06 0 0 1 0 .12M17.74 46.8a.06.06 0 0 1 0-.12.06.06 0 1 1 0 .12M17.64 46.93a.07.07 0 0 1-.07-.07.07.07 0 0 1 .07-.06.06.06 0 0 1 .06.06.07.07 0 0 1-.06.07M17.57 47.09a.07.07 0 0 1 0-.14.07.07 0 0 1 0 .14M17.55 47.27a.07.07 0 0 1-.07-.07.07.07 0 1 1 .14 0 .07.07 0 0 1-.07.07M17.57 47.45a.08.08 0 0 1-.07-.07.07.07 0 1 1 .14 0 .08.08 0 0 1-.07.07M19 47.21a.08.08 0 0 0-.05-.07.08.08 0 0 0-.05.07.07.07 0 0 0 0 .06.07.07 0 0 0 .1-.06M19.68 47.28a.06.06 0 0 0-.06-.06.06.06 0 0 0-.06.06.07.07 0 0 0 0 .06.06.06 0 0 0 .12-.06M18.33 47.28a.06.06 0 0 0-.06-.06.06.06 0 0 0-.05.06s0 .06 0 .06a.05.05 0 0 0 .11-.06M19.45 47.61c-.07 0-.1-.06-.1-.11 0-.08.08-.07.14-.07a.11.11 0 0 0 .12 0s.05.07.09.1.08 0 .08.1c0 .08-.06.1-.16.08v.09h-.17ZM18.29 47.66c-.1 0-.15 0-.16-.08 0-.06 0-.08.08-.1s.08-.05.09-.1a.11.11 0 0 0 .12 0c.06 0 .11 0 .14.07s0 .08-.1.11v.09h-.17Z" class="cls-2"></path><path d="M18.86 47.55c-.1 0-.14 0-.14-.11 0-.09.06-.1.12-.11a.15.15 0 0 0 .11-.07.12.12 0 0 0 .1.07c.06 0 .11 0 .12.11 0 .07 0 .1-.13.11v.09h-.18v-.08Z" class="cls-2"></path><path d="M17.3 39.29a.26.26 0 0 0-.14-.11.09.09 0 1 0 0-.17.09.09 0 1 0 0-.18.09.09 0 0 0 .08-.09.09.09 0 0 0-.08-.08.1.1 0 0 0-.06 0 .08.08 0 0 0 .09-.08.09.09 0 0 0-.09-.08.08.08 0 0 0-.07 0 .09.09 0 0 0 .06-.08.08.08 0 0 0-.08-.07.08.08 0 0 0-.08 0 .07.07 0 0 0 0-.06.08.08 0 0 0-.08-.07.08.08 0 0 0-.07.07.07.07 0 0 0-.14 0 .06.06 0 0 0-.06-.06s-.07 0-.07.06a.06.06 0 0 0-.06-.06.06.06 0 0 0-.06.06.06.06 0 1 0-.12 0 .06.06 0 0 0-.06-.06.06.06 0 0 0 0 .06l-.05-.05a.05.05 0 0 0-.05.05h-.05a.2.2 0 0 0 .05-.13.17.17 0 0 0-.12-.17v-.09H16v-.13h-.14v-.14h-.13v.14h-.14v.13h.14v.09a.17.17 0 0 0-.12.17.2.2 0 0 0 .05.13h-.11a.05.05 0 0 0 0-.05l-.05.05a.06.06 0 0 0-.05-.06.06.06 0 0 0-.06.06.06.06 0 1 0-.12 0 .06.06 0 0 0-.06-.06.06.06 0 0 0-.06.06s0-.06-.07-.06a.06.06 0 0 0-.06.06.07.07 0 0 0-.14 0 .08.08 0 0 0-.07-.07.08.08 0 0 0-.08.07.07.07 0 0 0 0 .06.08.08 0 0 0-.08 0 .07.07 0 0 0-.07.07.08.08 0 0 0 .05.08.08.08 0 0 0-.07 0 .09.09 0 0 0-.09.08.08.08 0 0 0 .08.08h-.06a.09.09 0 0 0-.08.08.09.09 0 0 0 .08.09.09.09 0 1 0 0 .18.09.09 0 1 0 0 .17.26.26 0 0 0-.14.11c.2.07.28.16.25.27a.26.26 0 0 1 .21.1s0 .06 0 .07l-.05.07h.15a.06.06 0 0 0 0 .08.06.06 0 0 0 .08 0 1.36 1.36 0 0 1 1.57 0 .1.1 0 0 0 0-.05h.15v-.14a.26.26 0 0 1 .21-.1c0-.11.05-.2.25-.27Zm-2.45.33a.14.14 0 0 0 0-.07s0 0-.05 0a.3.3 0 0 0 0-.11.13.13 0 0 0-.06-.12.56.56 0 0 1 .29-.59.6.6 0 0 0-.05.25 2 2 0 0 0 0 .28.12.12 0 0 0 0 .13c0 .08.07.11.18.09v.08a1.5 1.5 0 0 0-.31.06m.83-.25a1.4 1.4 0 0 0-.35.05v-.08c.07 0 .11-.07.11-.12 0-.06-.06-.08-.09-.08V39a.58.58 0 0 1 .23-.53 1 1 0 0 0 0 .24.53.53 0 0 0 .1.32.12.12 0 0 0-.06.11c0 .07 0 .11.14.13Zm.56.05a1.4 1.4 0 0 0-.35-.05.4.4 0 0 0 0-.08c.1 0 .14-.06.14-.13A.12.12 0 0 0 16 39a.53.53 0 0 0 .1-.32 1 1 0 0 0 0-.24.58.58 0 0 1 .23.53v.08s-.06 0-.09.08c0 .05 0 .09.11.12a.34.34 0 0 0-.11.17m.63-.18a.13.13 0 0 0-.06.12.3.3 0 0 0 0 .11s0 0-.05 0a.14.14 0 0 0 0 .07 1.5 1.5 0 0 0-.28-.14s0-.07 0-.08.16 0 .18-.09 0-.11-.05-.13a1.1 1.1 0 0 0 .05-.28.5.5 0 0 0-.06-.25.55.55 0 0 1 .27.67" class="cls-4"></path><path d="M15.76 38.26a.15.15 0 0 1-.09 0h-.08a.05.05 0 0 1-.05 0 .07.07 0 0 1-.06 0 .08.08 0 0 1-.07 0h-.06a.08.08 0 0 1-.07.05h-.06a.08.08 0 0 1-.07.07.08.08 0 0 1-.08.08.09.09 0 0 1-.06.08s0 0 0 .05a.1.1 0 0 1-.07.09.08.08 0 0 1 .05.08.1.1 0 0 1-.07.09.09.09 0 0 1 .09.09s0 .06-.06.08a.16.16 0 0 1 .15.08h.05a.65.65 0 0 1-.06-.26.5.5 0 0 1 0-.18.71.71 0 0 1 .55-.36h.05-.05a.5.5 0 0 0-.24.45 1 1 0 0 0 0 .27s.06 0 .07-.07A.09.09 0 0 1 15 39a.07.07 0 0 1 .07-.07.07.07 0 0 1 .08.07.07.07 0 0 1 0 .07.16.16 0 0 0 .1 0V39a.57.57 0 0 1 .26-.55.8.8 0 0 0 0 .25.43.43 0 0 0 .1.31h.07a.07.07 0 0 1 0-.07.09.09 0 0 1 0-.08.08.08 0 0 1-.05-.08s0-.06.05-.08a.07.07 0 0 1 0-.06.08.08 0 0 1 0-.07.08.08 0 0 1 0-.06v-.05a.08.08 0 0 1 .08-.2m-.64.67a.09.09 0 0 1-.08-.08.09.09 0 0 1 .08-.09.09.09 0 0 1 .09.09.09.09 0 0 1-.09.08m.05-.16a.08.08 0 1 1 0-.16.08.08 0 0 1 0 .16m.07-.14a.07.07 0 1 1 0-.14.07.07 0 1 1 0 .14m.08-.11a.07.07 0 0 1-.06-.07.06.06 0 0 1 .06-.06.07.07 0 0 1 .07.06.07.07 0 0 1-.07.07m.1-.09a.06.06 0 0 1-.06-.06.06.06 0 0 1 .12 0 .06.06 0 0 1-.06.06m.1-.07h.1zm.1 0v-.04ZM17.07 39.1a.09.09 0 0 1 .09-.09.1.1 0 0 1-.07-.09.08.08 0 0 1 .05-.08.1.1 0 0 1-.07-.09s0 0 0-.05a.08.08 0 0 1-.07-.08.08.08 0 0 1-.08-.08.08.08 0 0 1-.07-.07h-.06a.08.08 0 0 1-.07-.05h-.12a.08.08 0 0 1-.07 0 .07.07 0 0 1-.06 0 .05.05 0 0 1-.05 0 .07.07 0 0 1-.05 0h-.47a.15.15 0 0 1-.09 0 .1.1 0 0 1 0 .05v.05a.06.06 0 0 1 0 .06.07.07 0 0 1 0 .07.07.07 0 0 1 0 .06.1.1 0 0 1 .05.08.08.08 0 0 1-.05.08.09.09 0 0 1 0 .08.07.07 0 0 1 0 .07h.07a.43.43 0 0 0 .1-.31.8.8 0 0 0 0-.25.57.57 0 0 1 .26.55v.08a.16.16 0 0 0 .1 0 .07.07 0 0 1-.05-.07.07.07 0 0 1 .08-.07.07.07 0 0 1 .07.07.08.08 0 0 1-.06.08s0 .05.07.07a1 1 0 0 0 0-.27.5.5 0 0 0-.24-.45h-.05.05a.71.71 0 0 1 .55.36.37.37 0 0 1 .24.19.65.65 0 0 1-.06.26H17a.16.16 0 0 1 .15-.08s-.08-.05-.08-.08M16 38.32h.05zm.1 0h-.05a.05.05 0 1 1 .1 0l-.1.04Zm0 0a.06.06 0 0 1 .12 0 .06.06 0 0 1-.12 0m.09.08a.07.07 0 0 1 .07-.06.06.06 0 0 1 .06.06.07.07 0 0 1-.06.07.07.07 0 0 1-.08-.02Zm.35.4a.09.09 0 0 1-.08.08.09.09 0 0 1-.09-.08.09.09 0 0 1 .09-.09.09.09 0 0 1 .07.14Zm-.05-.16a.09.09 0 0 1-.08.08.08.08 0 0 1 0-.16.09.09 0 0 1 .07.13Zm-.15-.2a.07.07 0 1 1-.07.07.07.07 0 0 1 .06-.02ZM14.55 39.56s-.09-.18-.27-.24a.22.22 0 0 1 .18-.1.17.17 0 0 1 .14.07.11.11 0 0 1 .11 0 .14.14 0 0 1 .06.11.24.24 0 0 1 0 .11s0 0 .06 0a.13.13 0 0 1 0 .06h-.07a.3.3 0 0 0-.21-.01M17 39.53a.3.3 0 0 0-.21.11h-.07a.13.13 0 0 1 0-.06s.05 0 .06 0a.24.24 0 0 1 0-.11.14.14 0 0 1 .06-.11.11.11 0 0 1 .11 0 .17.17 0 0 1 .14-.07.22.22 0 0 1 .18.1q-.27-.01-.27.14" class="cls-2"></path><path d="M15.78 39.49a1.7 1.7 0 0 0-1 .31h.15l-.05.07v.07a1.46 1.46 0 0 1 1.69 0v-.07l-.05-.07h.15a1.7 1.7 0 0 0-.89-.31m-.26.18a1.4 1.4 0 0 0-.34.11.05.05 0 0 1-.07 0v-.06a2 2 0 0 1 .36-.12s.06.06.05.07m.3 0v.08zh-.09zv-.07.09h.09Zm.67.12a.05.05 0 0 1-.07 0 1.4 1.4 0 0 0-.34-.11 2 2 0 0 1 .36.12l.05-.03Z" class="cls-5"></path><path d="M15.78 37.89v-.09h-.18v-.1h.13v-.13h.11v.13H16v.11h-.13v.09ZM15.62 38.08a.17.17 0 0 1 .16-.17.17.17 0 0 1 0 .34.17.17 0 0 1-.16-.17" class="cls-2"></path><path d="M15.76 39.59v-.05zM15.1 39.77v-.05a1.7 1.7 0 0 1 .36-.11 1.4 1.4 0 0 0-.35.1s0 .07-.01.06M16.43 39.78a1.4 1.4 0 0 0-.35-.1 1.7 1.7 0 0 1 .36.11v.05s.01-.05-.01-.06" class="cls-6"></path><path d="M15.78 39.76a1.5 1.5 0 0 1 .85.26h-.07a1.3 1.3 0 0 0-.79-.25 1.35 1.35 0 0 0-.79.25h-.06a1.5 1.5 0 0 1 .86-.26" class="cls-2"></path><path d="M14.74 39.79a1.85 1.85 0 0 1 2.11 0h-.07a1.74 1.74 0 0 0-2 0Z" class="cls-2"></path><path d="M14.83 39.9v-.06h.05a.4.4 0 0 1 0 .06h-.08ZM16.71 39.87v.11h-.06v-.06h.05Z" class="cls-6"></path><path d="M16.89 39.23a.57.57 0 0 0-.33-.6.36.36 0 0 0-.14-.16.69.69 0 0 1 .49.33.6.6 0 0 1 0 .18.8.8 0 0 1-.02.25M14.63 39a.4.4 0 0 1 0-.18.65.65 0 0 1 .48-.33.36.36 0 0 0-.14.16.57.57 0 0 0-.33.6.8.8 0 0 1-.01-.25" class="cls-7"></path><path d="M15.74 38.4h.05zM15.73 38.5a.06.06 0 0 1 .06 0h-.060000000000000005M15.72 38.63a.07.07 0 0 1 .06-.07.07.07 0 0 1 .07.07.05.05 0 0 1-.13 0" class="cls-2"></path><path d="M15.71 38.77a.07.07 0 0 1 .07-.07.07.07 0 0 1 .08.07.08.08 0 0 1-.08.08.08.08 0 0 1-.07-.08M16.28 38.56v-.05a.05.05 0 1 1 0 .1zM16.34 38.69a.06.06 0 0 1 .06-.06.06.06 0 0 1 0 .12.06.06 0 0 1-.06-.06M16.38 38.85a.07.07 0 1 1 .14 0 .07.07 0 0 1-.14 0M16 38.31s0 .02 0 0M16.11 38.37h.08zM16.2 38.45h.05zM16.08 38.2h.06zM16.3 38.22h.08zM16.42 38.24v.08zM16.55 38.27l.05-.05a.05.05 0 0 1 0 .1z" class="cls-2"></path><path d="M16.68 38.31a.05.05 0 1 1 .05 0zM16.81 38.37h.05a.06.06 0 0 1 .06 0 .06.06 0 0 1-.06.06.06.06 0 0 1-.05-.06M16.93 38.46a.06.06 0 0 1 .07-.06.06.06 0 0 1 .06.06.06.06 0 0 1-.06.06.05.05 0 0 1-.07-.06M17 38.58a.06.06 0 0 1 .06-.06.07.07 0 0 1 .07.06.07.07 0 0 1-.07.07.07.07 0 0 1-.06-.07M17.09 38.74a.08.08 0 0 1 .07-.07.08.08 0 0 1 .07.07.08.08 0 0 1-.07.07.07.07 0 0 1-.07-.07M17.11 38.92a.07.07 0 1 1 .07.07.07.07 0 0 1-.07-.07M17.09 39.1a.07.07 0 1 1 .07.07.07.07 0 0 1-.07-.07M15.24 38.61a.05.05 0 1 1 0-.1zM15.17 38.75a.06.06 0 1 1 0-.12.06.06 0 1 1 0 .12M15.12 38.91a.07.07 0 0 1-.07-.06.07.07 0 0 1 .14 0 .07.07 0 0 1-.07.06M15.52 38.35s.02 0 0 0M15.42 38.41h.08zM15.56 38.22s.01 0 0 0M15.46 38.23v-.06zM15.23 38.26v-.08zM15.1 38.28v-.08zM15 38.32v-.1zM14.84 38.36h.05zM14.71 38.43a.06.06 0 0 1-.06-.06s0 0 .06 0a.06.06 0 0 1 0 .06M14.58 38.52a.06.06 0 0 1-.06-.06.06.06 0 0 1 .06-.06.06.06 0 0 1 .06.06.05.05 0 0 1-.06.06M14.48 38.65a.07.07 0 0 1-.07-.07.07.07 0 0 1 .07-.06.06.06 0 0 1 .06.06.07.07 0 0 1-.06.07M14.41 38.81a.08.08 0 0 1-.07-.07.08.08 0 0 1 .07-.07.08.08 0 0 1 .07.07.07.07 0 0 1-.07.07M14.39 39a.07.07 0 1 1 .07-.07.07.07 0 0 1-.07.07M14.41 39.17a.07.07 0 1 1 .07-.07.07.07 0 0 1-.07.07M15.86 38.93a.08.08 0 0 0 0-.07h-.05a.08.08 0 0 0 0 .07.07.07 0 0 0 0 .06.07.07 0 0 0 .05-.06M16.52 39a.06.06 0 0 0-.06 0h-.06a.07.07 0 0 0 0 .06.06.06 0 0 0 .12-.06M15.17 39h-.06a.06.06 0 0 0-.06 0 .06.06 0 0 0 0 .06.07.07 0 0 0 .12-.06M16.29 39.34c-.07 0-.1-.06-.1-.11 0-.07.08-.07.14-.07a.11.11 0 0 0 .12 0 .15.15 0 0 0 .09.1s.08 0 .08.1c0 .08-.06.1-.16.08v.1a1 1 0 0 0-.17-.06ZM15.13 39.38c-.1 0-.15 0-.16-.08 0-.06 0-.08.08-.1a.15.15 0 0 0 .09-.1.11.11 0 0 0 .12 0c.06 0 .11 0 .14.07 0 .05 0 .08-.1.11v.08a1 1 0 0 0-.17.06ZM15.7 39.27c-.1 0-.14 0-.14-.11 0-.09.06-.1.12-.11a.13.13 0 0 0 .1-.06.17.17 0 0 0 .11.06c.06 0 .11 0 .12.11 0 .07 0 .1-.14.11v.1h-.17v-.09Z" class="cls-2"></path><path d="M22 43.43a.3.3 0 0 0-.13-.11.09.09 0 0 0 .08-.08.09.09 0 0 0-.07-.09.09.09 0 1 0 0-.18.09.09 0 0 0 .08-.09.09.09 0 0 0-.08-.08.07.07 0 0 0-.06 0 .08.08 0 0 0 .08-.08.09.09 0 0 0-.08-.08.08.08 0 0 0-.08 0 .09.09 0 0 0 .06-.08.08.08 0 0 0-.08-.07.08.08 0 0 0-.08 0 .07.07 0 0 0 0-.06.07.07 0 0 0-.08-.07.09.09 0 0 0-.07.06.07.07 0 0 0-.14 0 .07.07 0 0 0-.06-.07s-.06 0-.07.07a.06.06 0 1 0-.12 0 .06.06 0 0 0-.06-.06.06.06 0 0 0 0 .06.06.06 0 0 0-.06-.06.06.06 0 0 0-.05.06v-.05.05h-.1a.17.17 0 0 0 .05-.12.17.17 0 0 0-.12-.17V42h.14v-.13h-.14v-.14h-.13v.14h-.14V42h.14v.09a.17.17 0 0 0-.12.17.17.17 0 0 0 .05.12h-.1a.05.05 0 1 0-.1 0 .05.05 0 1 0-.1 0 .06.06 0 1 0-.12 0 .06.06 0 0 0-.06-.06.06.06 0 0 0-.06.06.07.07 0 0 0-.07-.07.07.07 0 0 0-.06.07.07.07 0 0 0-.14 0s0-.06-.07-.06a.08.08 0 0 0-.08.07.07.07 0 0 0 0 .06.08.08 0 0 0-.08 0 .07.07 0 0 0-.07.07.08.08 0 0 0 .05.08.08.08 0 0 0-.07 0 .08.08 0 0 0-.08.08.07.07 0 0 0 .08.08s0 0-.06 0a.09.09 0 0 0-.08.08.09.09 0 0 0 .08.09.09.09 0 1 0 0 .18.1.1 0 0 0-.08.09.09.09 0 0 0 .09.08.26.26 0 0 0-.14.11c.2.07.28.16.26.27a.25.25 0 0 1 .21.1V44l-.05.07h.15a.08.08 0 0 0 0 .09.07.07 0 0 0 .09 0 1.32 1.32 0 0 1 .78-.25 1.37 1.37 0 0 1 .78.25.1.1 0 0 0 0-.05h.15L21.5 44a.26.26 0 0 1 .21-.1c0-.11 0-.2.25-.27Zm-2.45.33a.14.14 0 0 0 0-.07.1.1 0 0 0-.05 0 .3.3 0 0 0 0-.11.13.13 0 0 0-.06-.12.55.55 0 0 1 .3-.59.5.5 0 0 0 0 .25 1 1 0 0 0 0 .28s-.06.06-.05.13.07.11.18.09 0 .05 0 .08a1.5 1.5 0 0 0-.28.06Zm.83-.25a1.3 1.3 0 0 0-.34.05v-.08c.06 0 .1-.07.1-.12a.1.1 0 0 0-.09-.08v-.08a.57.57 0 0 1 .24-.53 1 1 0 0 0 0 .24.53.53 0 0 0 .09.32.11.11 0 0 0-.06.1c0 .07 0 .11.14.13a.4.4 0 0 0-.04.05Zm.56.05a1.4 1.4 0 0 0-.35-.05s0-.08 0-.08.15-.06.15-.13a.11.11 0 0 0-.06-.1.53.53 0 0 0 .1-.32 1 1 0 0 0 0-.24.58.58 0 0 1 .23.53v.08s-.06 0-.09.08 0 .09.11.12Zm.64-.18h-.05a.13.13 0 0 0-.06.12.3.3 0 0 0 0 .11h-.05a.14.14 0 0 0 0 .07 1.5 1.5 0 0 0-.28-.14s0-.07 0-.08.15 0 .17-.09a.11.11 0 0 0 0-.13 2 2 0 0 0 0-.28.6.6 0 0 0-.05-.25.58.58 0 0 1 .36.67Z" class="cls-4"></path><path d="M20.51 42.4a.15.15 0 0 1-.1 0h-.08a.05.05 0 0 1-.05 0 .07.07 0 0 1-.05 0 .07.07 0 0 1-.06 0 .08.08 0 0 1-.07 0h-.06a.07.07 0 0 1-.07.06h-.06a.07.07 0 0 1-.07.06.08.08 0 0 1-.08.08.09.09 0 0 1-.06.08.1.1 0 0 1 0 .05s0 .08-.06.08a.08.08 0 0 1 0 .08.08.08 0 0 1-.07.08.09.09 0 0 1 .09.09.1.1 0 0 1 0 .08.16.16 0 0 1 .15.08h.05a.65.65 0 0 1-.06-.26.5.5 0 0 1 0-.18.76.76 0 0 1 .55-.37.5.5 0 0 0-.24.45 1.5 1.5 0 0 0 0 .27.16.16 0 0 0 .07-.07.09.09 0 0 1-.06-.08.07.07 0 0 1 .08-.07.07.07 0 0 1 .07.07.07.07 0 0 1 0 .07.13.13 0 0 0 .09 0H20v-.08a.57.57 0 0 1 .26-.55.9.9 0 0 0 0 .26.43.43 0 0 0 .1.31h.07a.07.07 0 0 1 0-.07.12.12 0 0 1 0-.08v-.08a.1.1 0 0 1 0-.08.06.06 0 0 1 0-.06.07.07 0 0 1 0-.07.06.06 0 0 1 0-.06.1.1 0 0 1 0-.06v-.06c0-.06 0 0 0 0a.05.05 0 0 1 .08.03m-.65.67a.09.09 0 0 1-.08-.09.09.09 0 0 1 .08-.08.09.09 0 0 1 .14.1.09.09 0 0 1-.14.07m.05-.17a.08.08 0 0 1-.08-.07.09.09 0 0 1 .08-.08.08.08 0 0 1 .07.08.07.07 0 0 1-.07.07m.07-.13a.07.07 0 1 1 .07-.07.07.07 0 0 1-.05.07Zm.08-.11a.07.07 0 0 1-.06-.07.06.06 0 0 1 .06-.06.07.07 0 0 1 .07.06.07.07 0 0 1-.07.07m.1-.09a.06.06 0 1 1 .06-.06.06.06 0 0 1-.06.06m.1-.07v-.1zm.1 0-.05-.05h.05v.01ZM21.81 43.24a.09.09 0 0 1 .09-.09.08.08 0 0 1-.07-.08.08.08 0 0 1 .05-.08.08.08 0 0 1-.07-.08.1.1 0 0 1 0-.05.08.08 0 0 1-.07-.08.09.09 0 0 1-.08-.08.07.07 0 0 1-.07-.06h-.06a.07.07 0 0 1-.07-.06h-.06a.06.06 0 0 1-.06 0 .07.07 0 0 1-.06 0 .05.05 0 0 1-.05 0h-.12000000000000001a.2.2 0 0 1-.1 0 .1.1 0 0 1 0 .05.07.07 0 0 1 0 .06v.06a.1.1 0 0 1 0 .06.08.08 0 0 1 0 .07.07.07 0 0 1 0 .06.1.1 0 0 1 .05.08.08.08 0 0 1-.05.08.09.09 0 0 1 0 .08.08.08 0 0 1 0 .07h.06a.43.43 0 0 0 .1-.31 1.3 1.3 0 0 0 0-.26.57.57 0 0 1 .26.55v.08h.05a.16.16 0 0 0 .1 0 .07.07 0 0 1-.05-.07.08.08 0 0 1 .08-.07.07.07 0 0 1 .07.07.08.08 0 0 1-.06.08s0 .05.08.07a1 1 0 0 0 0-.27.5.5 0 0 0-.24-.45h-.05.05a.74.74 0 0 1 .55.37.4.4 0 0 1 0 .18.9.9 0 0 1-.05.26.16.16 0 0 1 .15-.08s-.3-.13-.3-.16m-1.12-.78v-.05zm.1 0a.05.05 0 1 1 .05 0l-.05.04Zm.05 0a.06.06 0 0 1 .05-.06.06.06 0 1 1 0 .12.06.06 0 0 1-.05-.01Zm.09.08a.06.06 0 0 1 .06-.06.06.06 0 0 1 .06.06.07.07 0 0 1-.06.07s-.06.02-.06-.02Zm.34.39a.08.08 0 1 1-.16 0 .08.08 0 1 1 .16 0m-.05-.15a.07.07 0 0 1-.08.07.07.07 0 0 1-.07-.07.08.08 0 0 1 .07-.08.08.08 0 0 1 .08.13Zm-.15-.2a.07.07 0 1 1 0 .14.07.07 0 1 1 0-.14M19.29 43.7q0-.15-.27-.24a.22.22 0 0 1 .18-.1.17.17 0 0 1 .14.07.11.11 0 0 1 .11 0 .11.11 0 0 1 .06.11.24.24 0 0 1 0 .11s0 0 .06 0a.1.1 0 0 1 0 .06h-.07a.3.3 0 0 0-.21-.01" class="cls-2"></path><path d="M21.75 43.67a.3.3 0 0 0-.21.11h-.07a.1.1 0 0 1 0-.06s.05 0 .06 0a.3.3 0 0 1 0-.11.13.13 0 0 1 0-.11.11.11 0 0 1 .11 0 .17.17 0 0 1 .14-.07.21.21 0 0 1 .18.1q-.21-.01-.21.14" class="cls-2"></path><path d="M20.53 43.63a1.7 1.7 0 0 0-1 .31h.15l-.05.07v.07a1.5 1.5 0 0 1 1.69 0v-.14h.15a1.7 1.7 0 0 0-.94-.31m-.27.18a1.4 1.4 0 0 0-.34.11s-.05 0-.07 0v-.06a2 2 0 0 1 .36-.12s.06.06.05.07m.3 0v.08zh-.08zv-.07.09h.09Zm.67.12a.05.05 0 0 1-.07 0 1.4 1.4 0 0 0-.34-.11 2 2 0 0 1 .36.12l.05-.03Z" class="cls-5"></path><path d="M20.53 42h-.19v-.11h.13v-.13h.11v.13h.14V42h-.14ZM20.36 42.22a.17.17 0 0 1 .17-.17.17.17 0 1 1 0 .34.17.17 0 0 1-.17-.17" class="cls-2"></path><path d="M20.5 43.73h.05zv.06zh-.05ZM19.84 43.91a1.4 1.4 0 0 1 .35-.11 2 2 0 0 0-.35.11s.01.01 0 0M21.17 43.92a2 2 0 0 0-.34-.11 1.7 1.7 0 0 1 .36.11s0 .01-.02 0" class="cls-6"></path><path d="M20.53 43.9a1.5 1.5 0 0 1 .84.26h-.06a1.35 1.35 0 0 0-.79-.25 1.3 1.3 0 0 0-.79.25.06.06 0 0 1-.07 0 1.5 1.5 0 0 1 .87-.26" class="cls-2"></path><path d="M19.48 43.93a1.85 1.85 0 0 1 2.11 0h-.07a1.74 1.74 0 0 0-2 0Z" class="cls-2"></path><path d="M19.57 44h.1v.06h-.06ZM21.45 44v.05h-.1v-.06h.06Z" class="cls-6"></path><path d="M21.63 43.36a.55.55 0 0 0-.33-.59.46.46 0 0 0-.14-.17.73.73 0 0 1 .49.34.6.6 0 0 1 0 .18.5.5 0 0 1-.02.24M19.37 43.12a.4.4 0 0 1 0-.18.69.69 0 0 1 .48-.34.46.46 0 0 0-.14.17.56.56 0 0 0-.33.59.7.7 0 0 1-.01-.24" class="cls-7"></path><path d="M20.48 42.54h.05a.05.05 0 0 1-.05 0M20.47 42.64a.06.06 0 0 1 .06 0h-.03a.1.1 0 0 1-.03 0M20.46 42.77a.07.07 0 0 1 .07-.07.07.07 0 0 1 .06.07.05.05 0 0 1-.05 0 .05.05 0 0 1-.08 0M20.45 42.91a.07.07 0 0 1 .08-.07.07.07 0 0 1 .07.07.08.08 0 0 1-.07.08.08.08 0 0 1-.08-.08M21 42.7l.05-.05a.05.05 0 1 1 0 .1zM21.08 42.83a.06.06 0 0 1 .06-.06.06.06 0 1 1 0 .12.06.06 0 0 1-.06-.06M21.12 43a.07.07 0 0 1 .14 0 .07.07 0 1 1-.14 0M20.76 42.45s0 .02 0 0M20.85 42.51h.08zM20.94 42.59h.05a.05.05 0 0 1-.05 0M20.73 42.33s0 .02 0 0M21 42.36h.08zM21.17 42.38h.08zM21.29 42.41a.05.05 0 1 1 .05.05zM21.42 42.45h.1zM21.55 42.51h.11a.06.06 0 0 1-.06.06.06.06 0 0 1-.05-.06M21.67 42.6a.06.06 0 1 1 .12 0 .06.06 0 1 1-.12 0M21.77 42.72a.07.07 0 0 1 .07-.06.06.06 0 0 1 .06.06.07.07 0 0 1-.06.07.07.07 0 0 1-.07-.07M21.83 42.88a.07.07 0 0 1 .07-.07.07.07 0 0 1 0 .14.07.07 0 0 1-.07-.07M21.85 43.06a.07.07 0 1 1 .07.07.07.07 0 0 1-.07-.07M21.83 43.24a.07.07 0 0 1 .14 0 .07.07 0 0 1-.14 0M20 42.75a.05.05 0 1 1 0-.1.05.05 0 0 1 0 .1M19.91 42.89a.06.06 0 1 1 .06-.06.06.06 0 0 1-.06.06M19.86 43.05a.07.07 0 0 1-.06-.05.06.06 0 0 1 .06-.06.07.07 0 0 1 .07.06.07.07 0 0 1-.07.05M20.36 42.44h.06zM20.16 42.55v-.08zM20.06 42.64h.05zM20.2 42.37v-.06zM20 42.4v-.08zM19.84 42.42v-.05l.05.05zM19.71 42.46a.05.05 0 0 1 0-.1.05.05 0 0 1 0 .1M19.58 42.5a.05.05 0 1 1 .05 0zM19.45 42.57a.06.06 0 0 1-.06-.06.06.06 0 0 1 .06 0h.05a.06.06 0 0 1-.05.06M19.32 42.66a.06.06 0 0 1-.06-.06.06.06 0 0 1 .06-.06.06.06 0 0 1 .06.06.05.05 0 0 1-.06.06M19.22 42.79a.07.07 0 0 1-.07-.07.07.07 0 0 1 .07-.06.06.06 0 0 1 .06.06.07.07 0 0 1-.06.07M19.15 43a.07.07 0 0 1 0-.14.07.07 0 0 1 0 .14" class="cls-2"></path><path d="M19.13 43.13a.07.07 0 1 1 .07-.07.07.07 0 0 1-.07.07M19.15 43.31a.08.08 0 0 1-.07-.07.07.07 0 0 1 .14 0 .08.08 0 0 1-.07.07M20.6 43.07a.08.08 0 0 0-.05-.07h-.05a.08.08 0 0 0-.05.07.07.07 0 0 0 0 .06.07.07 0 0 0 .15-.06M21.26 43.14a.06.06 0 0 0-.06-.06.06.06 0 0 0-.06.06.07.07 0 0 0 0 .06.06.06 0 0 0 .12-.06M19.91 43.14a.06.06 0 0 0-.05-.06.06.06 0 0 0-.06.06s0 .06 0 .06a.05.05 0 0 0 .11-.06M21 43.48c-.07 0-.1-.06-.1-.11 0-.08.08-.07.14-.07a.11.11 0 0 0 .12 0 .15.15 0 0 0 .09.1s.08 0 .08.1c0 .08-.06.1-.16.08v.09H21ZM19.87 43.52c-.1 0-.15 0-.16-.08 0-.06 0-.08.08-.1s.08-.05.09-.1a.11.11 0 0 0 .12 0c.06 0 .11 0 .14.07s0 .08-.1.11v.08h-.17Z" class="cls-2"></path><path d="M20.44 43.41c-.1 0-.14 0-.14-.11 0-.09.06-.1.12-.11a.15.15 0 0 0 .11-.07.12.12 0 0 0 .1.07c.06 0 .11 0 .12.11 0 .07 0 .1-.14.11a.4.4 0 0 0 0 .09h-.18v-.08Z" class="cls-2"></path><path d="M18.88 43.43a.26.26 0 0 0-.14-.11.09.09 0 1 0 0-.17.09.09 0 1 0 0-.18.09.09 0 0 0 .08-.09.09.09 0 0 0-.08-.08.07.07 0 0 0-.06 0 .08.08 0 0 0 .08-.08.09.09 0 0 0-.08-.08.08.08 0 0 0-.08 0 .09.09 0 0 0 .06-.08.08.08 0 0 0-.08-.07.08.08 0 0 0-.08 0 .07.07 0 0 0 0-.06.08.08 0 0 0-.08-.07.09.09 0 0 0-.07.06.07.07 0 0 0-.14 0 .07.07 0 0 0-.06-.07.07.07 0 0 0-.07.07.06.06 0 0 0-.06-.06.06.06 0 0 0-.06.06.06.06 0 0 0-.06-.06.06.06 0 0 0-.05.06.06.06 0 0 0-.06-.06.06.06 0 0 0-.05.06v-.05a.05.05 0 0 0-.05.05h-.19a.17.17 0 0 0 .05-.12.17.17 0 0 0-.12-.17V42h.14v-.13h-.14v-.14h-.13v.14h-.14V42h.14v.09a.17.17 0 0 0-.12.17.17.17 0 0 0 .05.12h-.1a.05.05 0 0 0-.05-.05l-.05.05a.05.05 0 1 0-.1 0 .06.06 0 0 0-.05-.06.06.06 0 0 0-.06.06.06.06 0 0 0-.06-.06.06.06 0 0 0-.06.06.07.07 0 0 0-.07-.07.07.07 0 0 0-.06.07.07.07 0 1 0-.14 0s0-.06-.07-.06a.08.08 0 0 0-.08.07.07.07 0 0 0 0 .06.08.08 0 0 0-.08 0 .07.07 0 0 0-.07.07.08.08 0 0 0 .05.08.08.08 0 0 0-.07 0 .09.09 0 0 0-.09.08.08.08 0 0 0 .09.08.07.07 0 0 0-.06 0 .09.09 0 0 0-.08.08.09.09 0 0 0 .03.16.09.09 0 1 0 0 .18.1.1 0 0 0-.08.09.09.09 0 0 0 .09.08.26.26 0 0 0-.14.11c.2.07.28.16.25.27a.26.26 0 0 1 .21.1V44l-.05.07h.15a.08.08 0 0 0 0 .09.06.06 0 0 0 .08 0 1.36 1.36 0 0 1 1.57 0 .1.1 0 0 0 0-.05h.15l.11-.11a.26.26 0 0 1 .21-.1c0-.11.05-.2.25-.27Zm-2.45.33a.14.14 0 0 0 0-.07.1.1 0 0 0-.05 0 .3.3 0 0 0 0-.11.13.13 0 0 0-.06-.12.55.55 0 0 1 .3-.59.5.5 0 0 0-.06.25 1.1 1.1 0 0 0 .05.28s-.06.06-.05.13.07.11.18.09v.08a1.5 1.5 0 0 0-.31.06m.83-.25a1.4 1.4 0 0 0-.35.05v-.08c.07 0 .11-.07.11-.12 0-.06-.06-.08-.09-.08v-.08a.58.58 0 0 1 .23-.53 1 1 0 0 0 0 .24.53.53 0 0 0 .1.32.11.11 0 0 0-.06.1c0 .07 0 .11.14.13Zm.56.05a1.4 1.4 0 0 0-.35-.05s0-.08 0-.08.14-.06.14-.13a.11.11 0 0 0-.06-.1.53.53 0 0 0 .1-.32 1 1 0 0 0 0-.24.58.58 0 0 1 .23.53v.08s-.06 0-.09.08 0 .09.11.12a.3.3 0 0 0-.08.11m.63-.18a.13.13 0 0 0-.06.12.3.3 0 0 0 0 .11.1.1 0 0 0-.05 0 .14.14 0 0 0 0 .07 1.5 1.5 0 0 0-.28-.14.15.15 0 0 1 0-.08c.1 0 .15 0 .17-.09a.12.12 0 0 0 0-.13 2 2 0 0 0 0-.28.6.6 0 0 0-.05-.25.56.56 0 0 1 .27.67" class="cls-4"></path><path d="M17.35 42.4a.15.15 0 0 1-.1 0h-.08a.05.05 0 0 1-.05 0h-.05a.07.07 0 0 1-.05 0 .07.07 0 0 1-.06 0 .08.08 0 0 1-.07 0h-.06a.07.07 0 0 1-.07.06h-.06a.07.07 0 0 1-.07.06.09.09 0 0 1-.08.08.08.08 0 0 1-.07.08.1.1 0 0 1 0 .05.08.08 0 0 1-.48.27.08.08 0 0 1 0 .08.08.08 0 0 1-.07.08.09.09 0 0 1 .09.09.09.09 0 0 1-.06.08.16.16 0 0 1 .15.08h.05a.65.65 0 0 1-.06-.26.5.5 0 0 1 0-.18.74.74 0 0 1 .55-.37.5.5 0 0 0-.24.45 1 1 0 0 0 0 .27.16.16 0 0 0 .07-.07.09.09 0 0 1-.06-.08.07.07 0 0 1 .07-.07.07.07 0 0 1 .08.07.07.07 0 0 1-.05.07.2.2 0 0 0 .1 0h.05v-.08a.57.57 0 0 1 .26-.55.9.9 0 0 0 0 .26.43.43 0 0 0 .1.31h.07a.07.07 0 0 1 0-.07.09.09 0 0 1 0-.08.08.08 0 0 1-.05-.08.1.1 0 0 1 .05-.08.07.07 0 0 1 0-.06.07.07 0 0 1 0-.07.06.06 0 0 1 0-.06.1.1 0 0 1 0-.06v-.06c0-.06 0 0 0 0a.05.05 0 0 1 .25-.16m-.65.67a.09.09 0 0 1-.08-.09.09.09 0 0 1 .08-.08.09.09 0 0 1 .09.08.09.09 0 0 1-.09.09m.05-.17a.08.08 0 0 1-.08-.07.09.09 0 0 1 .08-.08.08.08 0 0 1 .07.08.07.07 0 0 1-.07.07m.07-.13a.07.07 0 1 1 .07-.07.07.07 0 0 1-.07.07m.08-.11a.07.07 0 0 1-.06-.07.06.06 0 0 1 .06-.06.07.07 0 0 1 .07.06.07.07 0 0 1-.07.07m.1-.09a.06.06 0 1 1 .06-.06.06.06 0 0 1-.06.06m.1-.07a.05.05 0 0 1 0-.1zm.1 0-.05-.05h.05v.01ZM18.65 43.24a.09.09 0 0 1 .09-.09.08.08 0 0 1-.07-.08.08.08 0 0 1 0-.08.08.08 0 0 1-.07-.08.1.1 0 0 1 0-.05.08.08 0 0 1-.07-.08.09.09 0 0 1-.08-.08.07.07 0 0 1-.07-.06h-.06a.07.07 0 0 1-.07-.06h-.06a.08.08 0 0 1-.07 0 .07.07 0 0 1-.06 0 .07.07 0 0 1-.05 0h-.13a.15.15 0 0 1-.09 0 .1.1 0 0 1 0 .05v.06c0 .06 0 0 0 0a.1.1 0 0 1 0 .06.08.08 0 0 1 0 .06.08.08 0 0 1 0 .07.07.07 0 0 1 0 .06.1.1 0 0 1 .05.08.08.08 0 0 1-.05.08.09.09 0 0 1 0 .08.07.07 0 0 1 0 .07h.07a.43.43 0 0 0 .1-.31.9.9 0 0 0 0-.26.57.57 0 0 1 .26.55v.08h.05a.16.16 0 0 0 .1 0 .07.07 0 0 1-.05-.07.07.07 0 0 1 .08-.07.07.07 0 0 1 .07.07.08.08 0 0 1-.06.08.16.16 0 0 0 .07.07 1 1 0 0 0 0-.27.5.5 0 0 0-.24-.45H18a.74.74 0 0 1 .55.37.5.5 0 0 1 0 .18.65.65 0 0 1-.06.26h.05a.16.16 0 0 1 .15-.08s-.04-.13-.04-.16m-1.12-.78v-.05zm.1 0a.05.05 0 1 1 .05 0l-.05.04Zm0 0a.06.06 0 1 1 .06.06.1.1 0 0 1-.02-.01Zm.09.08a.07.07 0 0 1 .07-.06.06.06 0 0 1 .06.06.07.07 0 0 1-.06.07.1.1 0 0 1-.03-.02Zm.35.39a.09.09 0 0 1-.08.09.09.09 0 0 1-.09-.09.09.09 0 0 1 .1-.03.09.09 0 0 1 .11.1Zm-.05-.15a.08.08 0 0 1-.08.07.07.07 0 0 1-.07-.07.08.08 0 0 1 .07-.08.09.09 0 0 1 .12.13Zm-.15-.2a.07.07 0 1 1-.07.07.07.07 0 0 1 .11-.02Z" class="cls-2"></path><path d="M16.13 43.7s-.09-.18-.27-.24a.22.22 0 0 1 .18-.1.17.17 0 0 1 .14.07.11.11 0 0 1 .11 0 .11.11 0 0 1 .06.11.24.24 0 0 1 0 .11s0 0 .06 0a.1.1 0 0 1 0 .06h-.07a.3.3 0 0 0-.21-.01M18.59 43.67a.3.3 0 0 0-.21.11h-.07a.1.1 0 0 1 0-.06s.05 0 .06 0a.24.24 0 0 1 0-.11.11.11 0 0 1 .06-.11.11.11 0 0 1 .11 0 .17.17 0 0 1 .14-.07.21.21 0 0 1 .18.1q-.27-.01-.27.14" class="cls-2"></path><path d="M17.36 43.63a1.7 1.7 0 0 0-1 .31h.15l-.05.07v.07a1.5 1.5 0 0 1 1.69 0v-.14h.15a1.7 1.7 0 0 0-.94-.31m-.26.18a1.4 1.4 0 0 0-.34.11.05.05 0 0 1-.07 0v-.06a2 2 0 0 1 .36-.12s.06.06.05.07m.3 0v.08zh-.09zv-.07.09h.09Zm.67.12a.05.05 0 0 1-.07 0 1.4 1.4 0 0 0-.34-.11 2 2 0 0 1 .36.12l.05-.03Z" class="cls-5"></path><path d="M17.36 42h-.18v-.11h.13v-.13h.11v.13h.14V42h-.14ZM17.2 42.22a.17.17 0 0 1 .16-.17.17.17 0 0 1 0 .34.17.17 0 0 1-.16-.17" class="cls-2"></path><path d="M17.34 43.73h.05zv.06zh-.05ZM16.68 43.91a1.7 1.7 0 0 1 .36-.11 2 2 0 0 0-.35.11s0 .01-.01 0M18 43.92a2 2 0 0 0-.34-.11 1.7 1.7 0 0 1 .36.11s-.02.01-.02 0" class="cls-6"></path><path d="M17.36 43.9a1.5 1.5 0 0 1 .85.26h-.06a1.35 1.35 0 0 0-.8-.25 1.3 1.3 0 0 0-.78.25.06.06 0 0 1-.07 0 1.5 1.5 0 0 1 .86-.26" class="cls-2"></path><path d="M16.32 43.93a1.85 1.85 0 0 1 2.11 0h-.06a1.74 1.74 0 0 0-2 0Z" class="cls-2"></path><path d="M16.41 44h.1v.06h-.06ZM18.29 44v.05h-.06v-.06h.06Z" class="cls-6"></path><path d="M18.47 43.36a.56.56 0 0 0-.33-.59.46.46 0 0 0-.14-.17.69.69 0 0 1 .48.34.4.4 0 0 1 0 .18.7.7 0 0 1-.01.24M16.21 43.12a.4.4 0 0 1 0-.18.69.69 0 0 1 .48-.34.46.46 0 0 0-.14.17.56.56 0 0 0-.33.59.7.7 0 0 1-.01-.24" class="cls-7"></path><path d="M17.32 42.54h.05a.05.05 0 0 1-.05 0M17.31 42.64a.05.05 0 0 1 .05 0 .06.06 0 0 1 .06 0h-.05a.1.1 0 0 1-.06 0M17.3 42.77a.07.07 0 0 1 .06-.07.07.07 0 0 1 .07.07.05.05 0 0 1-.05 0 .05.05 0 0 1-.08 0M17.29 42.91a.07.07 0 0 1 .07-.07.07.07 0 0 1 .08.07.08.08 0 0 1-.08.08.08.08 0 0 1-.07-.08M17.86 42.7l.05-.05a.05.05 0 1 1 0 .1zM17.92 42.83a.06.06 0 0 1 .06-.06.06.06 0 1 1 0 .12.06.06 0 0 1-.06-.06M18 43a.07.07 0 0 1 .14 0 .07.07 0 1 1-.14 0M17.6 42.45s0 .02 0 0M17.69 42.51h.08zM17.57 42.33s0 .02 0 0M17.88 42.36h.08zM18 42.38l.05-.05v.05zM18.13 42.41h.05a.05.05 0 0 1 0 .1zM18.26 42.45a.05.05 0 1 1 .1 0zM18.39 42.51h.05a.06.06 0 0 1 .06 0 .06.06 0 0 1-.06.06.06.06 0 0 1-.05-.06M18.51 42.6a.06.06 0 0 1 .06-.06.06.06 0 0 1 .06.06.06.06 0 0 1-.06.06.05.05 0 0 1-.06-.06M18.61 42.72a.07.07 0 0 1 .07-.06.06.06 0 0 1 .06.06.07.07 0 0 1-.06.07.07.07 0 0 1-.07-.07M18.67 42.88a.07.07 0 0 1 .07-.07.07.07 0 0 1 0 .14.07.07 0 0 1-.07-.07M18.69 43.06a.07.07 0 1 1 .07.07.07.07 0 0 1-.07-.07M18.67 43.24a.07.07 0 0 1 .14 0 .07.07 0 0 1-.14 0M16.82 42.75a.05.05 0 1 1 0-.1zM16.75 42.89a.06.06 0 1 1 0-.12.06.06 0 1 1 0 .12M16.7 43.05a.08.08 0 0 1-.07-.07s0-.06.07-.06a.07.07 0 0 1 .07.06.07.07 0 0 1-.07.07M17.1 42.49s.02 0 0 0M17 42.55v-.08zM16.9 42.64h.05zM17.14 42.36s.01 0 0 0M17 42.37v-.06zM16.81 42.4v-.08zM16.68 42.42v-.05l.05.05zM16.55 42.46v-.1a.05.05 0 0 1 0 .1M16.42 42.5a.05.05 0 0 1 0-.1zM16.29 42.57a.06.06 0 0 1-.06-.06.06.06 0 0 1 .06 0h.05a.06.06 0 0 1-.05.06M16.16 42.66a.06.06 0 0 1-.06-.06.06.06 0 0 1 .06-.06.06.06 0 0 1 .06.06.05.05 0 0 1-.06.06M16.06 42.79a.07.07 0 0 1-.07-.07.07.07 0 0 1 .07-.06.06.06 0 0 1 .06.06.07.07 0 0 1-.06.07M16 43a.07.07 0 0 1 0-.14.07.07 0 1 1 0 .14" class="cls-2"></path><path d="M16 43.13a.07.07 0 1 1 .07-.07.07.07 0 0 1-.07.07M16 43.31a.08.08 0 0 1-.07-.07.07.07 0 0 1 .14 0 .08.08 0 0 1-.07.07M17.44 43.07a.08.08 0 0 0-.05-.07h-.05a.08.08 0 0 0-.05.07.07.07 0 0 0 0 .06.07.07 0 0 0 .15-.06M18.1 43.14a.06.06 0 0 0-.06-.06.06.06 0 0 0-.06.06.07.07 0 0 0 0 .06.06.06 0 0 0 .12-.06M16.75 43.14a.06.06 0 0 0-.06-.06.06.06 0 0 0 0 .12.07.07 0 0 0 .06-.06M17.87 43.48c-.07 0-.1-.06-.1-.11 0-.08.08-.07.14-.07a.11.11 0 0 0 .12 0 .15.15 0 0 0 .09.1s.08 0 .08.1c0 .08-.06.1-.16.08a1 1 0 0 1 0 .09h-.17ZM16.71 43.52c-.1 0-.15 0-.16-.08 0-.06 0-.08.08-.1s.08-.05.09-.1a.11.11 0 0 0 .12 0c.06 0 .11 0 .14.07s0 .08-.1.11v.08h-.17z" class="cls-2"></path><path d="M17.28 43.41c-.1 0-.14 0-.14-.11 0-.09.06-.1.12-.11a.12.12 0 0 0 .1-.07.15.15 0 0 0 .11.07c.06 0 .11 0 .12.11 0 .07 0 .1-.14.11v.09h-.17v-.08Z" class="cls-2"></path><path d="M23.62 39.29a.3.3 0 0 0-.13-.11.09.09 0 0 0 .08-.08.09.09 0 0 0-.07-.1.09.09 0 1 0 0-.18.09.09 0 0 0 .08-.09.09.09 0 0 0-.08-.08h-.06a.08.08 0 0 0 .08-.08.09.09 0 0 0-.08-.08.09.09 0 0 0-.08 0 .09.09 0 0 0 .06-.08.08.08 0 0 0-.08-.07s-.07 0-.07 0a.07.07 0 0 0 0-.06.08.08 0 0 0-.08-.07.08.08 0 0 0-.07.07.07.07 0 0 0-.07-.07.08.08 0 0 0-.07.07.06.06 0 0 0-.06-.06.07.07 0 0 0-.07.06.06.06 0 1 0-.12 0 .06.06 0 0 0-.06-.06.06.06 0 0 0-.05.06.06.06 0 1 0-.11 0l-.05-.05v.05h-.1a.2.2 0 0 0 .05-.13.17.17 0 0 0-.12-.17v-.09h.14v-.13h-.14v-.14H22v.14h-.1v.13h.1v.09a.17.17 0 0 0-.12.17.2.2 0 0 0 0 .13h-.05a.05.05 0 1 0-.1 0 .05.05 0 1 0-.1 0 .06.06 0 1 0-.12 0 .06.06 0 0 0-.06-.06.06.06 0 0 0-.06.06s0-.06-.07-.06a.06.06 0 0 0-.06.06.07.07 0 0 0-.14 0 .08.08 0 0 0-.12.02.07.07 0 0 0-.07.07.06.06 0 0 0 0 .06.08.08 0 0 0-.08 0 .07.07 0 0 0-.07.07.08.08 0 0 0 .05.08.08.08 0 0 0-.07 0 .08.08 0 0 0-.08.08.07.07 0 0 0 .08.08h-.05a.09.09 0 0 0-.09.08.09.09 0 0 0 .09.09.09.09 0 1 0 0 .18.1.1 0 0 0-.08.09.09.09 0 0 0 .09.08.26.26 0 0 0-.14.11c.2.07.28.16.26.27a.25.25 0 0 1 .21.1s0 .06 0 .07l-.05.07h.15a.06.06 0 0 0 0 .08.07.07 0 0 0 .09 0 1.34 1.34 0 0 1 1.56 0s0 0 0-.05l.2.09h.09l-.05-.07v-.07a.26.26 0 0 1 .21-.1c0-.11.05-.2.25-.27Zm-2.45.33a.14.14 0 0 0 0-.07.3.3 0 0 0 0-.11.13.13 0 0 0-.06-.12.55.55 0 0 1 .3-.59.5.5 0 0 0-.05.25 1 1 0 0 0 0 .28s-.06.06 0 .13.07.11.18.09v.08a1.5 1.5 0 0 0-.37.06m.83-.25a1.3 1.3 0 0 0-.34.05.2.2 0 0 1 0-.08c.07 0 .1-.07.1-.12a.1.1 0 0 0-.09-.08V39a.57.57 0 0 1 .24-.53 1 1 0 0 0 0 .24.53.53 0 0 0 .09.32.12.12 0 0 0-.06.11c0 .07 0 .11.14.13a.4.4 0 0 0-.08.1m.56.05a1.4 1.4 0 0 0-.35-.05s0-.08 0-.08.15-.06.15-.13a.12.12 0 0 0-.06-.11.53.53 0 0 0 .1-.32 1 1 0 0 0 0-.24.59.59 0 0 1 .24.53.2.2 0 0 1 0 .08s-.06 0-.09.08c0 .05 0 .09.11.12a.34.34 0 0 0-.1.12m.64-.18h-.05a.13.13 0 0 0-.06.12.16.16 0 0 0 0 .11h-.06a.14.14 0 0 0 0 .07 2 2 0 0 0-.29-.14s0-.07 0-.08.15 0 .17-.09a.11.11 0 0 0 0-.13 2 2 0 0 0 0-.28.6.6 0 0 0-.05-.25.58.58 0 0 1 .34.67" class="cls-4"></path><path d="M22.09 38.26a.15.15 0 0 1-.1 0h-.08a.07.07 0 0 1-.05 0s0 0-.05 0a.07.07 0 0 1-.06 0 .08.08 0 0 1-.07 0h-.06a.08.08 0 0 1-.07.05h-.45a.08.08 0 0 1-.07.07.07.07 0 0 1-.08.08.09.09 0 0 1-.06.08s0 0 0 .05a.1.1 0 0 1-.06.09.08.08 0 0 1 .05.08.1.1 0 0 1-.07.09.09.09 0 0 1 .09.09.1.1 0 0 1-.05.08.16.16 0 0 1 .15.08.65.65 0 0 1-.06-.26.5.5 0 0 1 0-.18.73.73 0 0 1 .55-.36h.05-.05a.5.5 0 0 0-.24.45 1.5 1.5 0 0 0 0 .27s.06 0 .07-.07a.09.09 0 0 1-.06-.08.07.07 0 0 1 .08-.07.07.07 0 0 1 .07.07.07.07 0 0 1 0 .07.13.13 0 0 0 .09 0h.05V39a.57.57 0 0 1 .26-.55.8.8 0 0 0 0 .25.48.48 0 0 0 .19.3h.07a.07.07 0 0 1 0-.07.12.12 0 0 1 0-.08v-.08a.1.1 0 0 1 .05-.08.06.06 0 0 1 0-.06.07.07 0 0 1 0-.07.06.06 0 0 1 0-.06.06.06 0 0 0 0-.1.05.05 0 0 1-.03-.14m-.65.67a.09.09 0 0 1-.08-.08.09.09 0 0 1 .08-.09.09.09 0 0 1 .09.09.09.09 0 0 1-.09.08m0-.16a.08.08 0 1 1 0-.16.08.08 0 0 1 0 .16m.07-.14a.07.07 0 1 1 .07-.07.07.07 0 0 1-.02.07Zm.08-.11a.07.07 0 0 1-.06-.07.06.06 0 0 1 .06-.06.07.07 0 0 1 .07.06.07.07 0 0 1-.02.07Zm.1-.09a.06.06 0 0 1-.06-.06.06.06 0 0 1 .12 0 .06.06 0 0 1-.01.06Zm.1-.07h-.05a.05.05 0 1 1 .1 0Zm.1 0h-.05zl.05-.04ZM23.4 39.1a.08.08 0 0 1 .08-.09.1.1 0 0 1-.07-.09.08.08 0 0 1 .05-.08.1.1 0 0 1-.07-.09s0 0 0-.05a.08.08 0 0 1-.07-.08.08.08 0 0 1-.08-.08.08.08 0 0 1-.07-.07h-.06a.08.08 0 0 1-.07-.05h-.06a.06.06 0 0 1-.06 0h-.05a.07.07 0 0 1-.06 0 .05.05 0 0 1-.05 0 .07.07 0 0 1-.05 0h-.12000000000000001a.2.2 0 0 1-.1 0 .1.1 0 0 1 0 .05v.05a.1.1 0 0 1 0 .06.08.08 0 0 1 0 .07.07.07 0 0 1 0 .06.1.1 0 0 1 .05.08.08.08 0 0 1-.05.08.09.09 0 0 1 0 .08.08.08 0 0 1 0 .07h.06a.43.43 0 0 0 .1-.31 1 1 0 0 0 0-.25.56.56 0 0 1 .26.55v.08a.16.16 0 0 0 .1 0 .07.07 0 0 1-.31-.09.08.08 0 0 1 .08-.07.07.07 0 0 1 .07.07.08.08 0 0 1-.06.08s0 .05.08.07a1 1 0 0 0 0-.27.5.5 0 0 0-.24-.45h-.05.06a.71.71 0 0 1 .54.36.4.4 0 0 1 0 .18.9.9 0 0 1-.05.26.16.16 0 0 1 .15-.08.1.1 0 0 1 .12-.05m-1.13-.78h.05zm.1 0h-.05a.05.05 0 1 1 .1 0l-.05.04Zm.05 0a.06.06 0 0 1 .06 0 .06.06 0 0 1-.06.06v-.01Zm.09.08a.06.06 0 0 1 .06-.06.06.06 0 0 1 .06.06.07.07 0 0 1-.06.07s-.06.02-.06-.02Zm.34.4a.08.08 0 1 1-.16 0 .08.08 0 1 1 .16 0m-.05-.16a.08.08 0 0 1-.08.08.08.08 0 0 1 0-.16.08.08 0 0 1 .08.13Zm-.15-.2a.07.07 0 1 1 0 .14.07.07 0 0 1 0-.14M20.87 39.56q0-.15-.27-.24a.22.22 0 0 1 .18-.1.17.17 0 0 1 .14.07.11.11 0 0 1 .11 0 .14.14 0 0 1 .06.11.24.24 0 0 1 0 .11s0 0 .06 0a.13.13 0 0 1 0 .06h-.07a.3.3 0 0 0-.21-.01M23.33 39.53a.3.3 0 0 0-.21.11h-.07a.13.13 0 0 1 0-.06s.05 0 .06 0a.24.24 0 0 1 0-.11.17.17 0 0 1 .06-.11.11.11 0 0 1 .11 0 .17.17 0 0 1 .14-.07.21.21 0 0 1 .18.1q-.27-.01-.27.14" class="cls-2"></path><path d="M22.11 39.49a1.66 1.66 0 0 0-1 .31h.15l-.05.07a.3.3 0 0 0 0 .07A1.46 1.46 0 0 1 23 40s0-.06 0-.07l-.05-.07h.15a1.68 1.68 0 0 0-.99-.37m-.27.18a1.4 1.4 0 0 0-.34.11.05.05 0 0 1-.07 0v-.06a2 2 0 0 1 .36-.12s.06.06.05.07m.3 0v.08zh-.08zv-.07.09h.09Zm.67.12a.05.05 0 0 1-.07 0 1.2 1.2 0 0 0-.34-.11 2 2 0 0 1 .36.12l.05-.03Z" class="cls-5"></path><path d="M22.11 37.89h-.06v-.09h-.13v-.1h.13v-.13h.11v.13h.14v.11h-.14v.09ZM21.94 38.08a.17.17 0 0 1 .17-.17.17.17 0 0 1 0 .34.17.17 0 0 1-.17-.17" class="cls-2"></path><path d="M22.08 39.59v-.05zh.05zM21.42 39.77v-.05a1.4 1.4 0 0 1 .35-.11 1.4 1.4 0 0 0-.35.1s.01.07 0 .06M22.75 39.78a1.5 1.5 0 0 0-.34-.1 1.7 1.7 0 0 1 .36.11v.05s0-.05-.02-.06" class="cls-6"></path><path d="M22.11 39.76A1.5 1.5 0 0 1 23 40h-.1a1.35 1.35 0 0 0-.79-.25 1.3 1.3 0 0 0-.79.25.06.06 0 0 1-.07 0 1.5 1.5 0 0 1 .86-.24" class="cls-2"></path><path d="M21.06 39.79a1.82 1.82 0 0 1 1.06-.33 1.8 1.8 0 0 1 1.05.33h-.07a1.7 1.7 0 0 0-1-.32 1.73 1.73 0 0 0-1 .32Z" class="cls-2"></path><path d="M21.15 39.9v-.06h.05v.06zh-.06ZM23 39.87V40a.4.4 0 0 1 0-.06h.06Z" class="cls-6"></path><path d="M23.21 39.23a.55.55 0 0 0-.33-.6.36.36 0 0 0-.14-.16.69.69 0 0 1 .49.33.6.6 0 0 1 0 .18.6.6 0 0 1-.02.25M21 39a.4.4 0 0 1 0-.18.67.67 0 0 1 .48-.33.36.36 0 0 0-.14.16.57.57 0 0 0-.33.6A.8.8 0 0 1 21 39" class="cls-7"></path><path d="M22.06 38.4h.05a.05.05 0 0 1-.05 0M22.05 38.5a.06.06 0 0 1 .06 0h.05-.05a.06.06 0 0 1-.06 0M22.05 38.63s0-.07.06-.07a.07.07 0 0 1 .06.07.05.05 0 0 1-.05 0s-.07.02-.07 0M22 38.77a.07.07 0 0 1 .08-.07.07.07 0 0 1 .07.07.08.08 0 0 1-.07.08.08.08 0 0 1-.08-.08M22.6 38.56a.05.05 0 0 1 0-.05.05.05 0 1 1 0 .1.05.05 0 0 1 0-.05M22.66 38.69a.06.06 0 0 1 .06-.06.06.06 0 0 1 0 .12.06.06 0 0 1-.06-.06M22.7 38.85a.07.07 0 1 1 .14 0 .07.07 0 0 1-.14 0M22.34 38.31s0 .02 0 0M22.52 38.45h.1a.05.05 0 0 1-.05 0zM22.31 38.19s0 .02 0 0M22.62 38.22h.08zM22.75 38.24h.08zM22.87 38.27a.05.05 0 1 1 .05 0zM23 38.31a.05.05 0 1 1 .05 0zM23.13 38.37h.11a.06.06 0 0 1-.06.06.06.06 0 0 1-.05-.06M23.25 38.46a.06.06 0 1 1 .12 0 .06.06 0 0 1-.12 0" class="cls-2"></path><circle cx="23.42" cy="38.58" r=".06" class="cls-2"></circle><path d="M23.41 38.74a.07.07 0 1 1 .14 0 .07.07 0 1 1-.14 0M23.43 38.92a.07.07 0 1 1 .07.07.07.07 0 0 1-.07-.07M23.41 39.1a.07.07 0 1 1 .07.07.07.07 0 0 1-.07-.07M21.56 38.61a.05.05 0 1 1 0-.1zM21.49 38.75a.06.06 0 1 1 .06-.06.06.06 0 0 1-.06.06M21.44 38.91a.06.06 0 0 1-.06-.06.07.07 0 0 1 .06-.07.07.07 0 0 1 .07.07.07.07 0 0 1-.07.06M21.94 38.3H22zM21.74 38.41h.08zM21.64 38.5h.05zM21.78 38.23v-.06zM21.55 38.26v-.08zM21.42 38.28v-.08zM21.29 38.32a.05.05 0 0 1 0-.1.05.05 0 0 1 0 .1M21.16 38.36h.05zM21 38.43a.06.06 0 0 1-.06-.06.06.06 0 0 1 .06 0 .06.06 0 0 1 0 .06M20.9 38.52a.06.06 0 0 1-.06-.06.06.06 0 0 1 .06-.06.06.06 0 0 1 .06.06.05.05 0 0 1-.06.06M20.8 38.65a.07.07 0 0 1-.07-.07.07.07 0 0 1 .07-.06.06.06 0 0 1 .06.06.07.07 0 0 1-.06.07M20.74 38.81a.07.07 0 0 1-.07-.07.08.08 0 0 1 .07-.07s.06 0 .06.07a.07.07 0 0 1-.06.07M20.71 39a.07.07 0 1 1 0-.14.07.07 0 1 1 0 .14M20.73 39.17a.07.07 0 1 1 .07-.07.07.07 0 0 1-.07.07M22.18 38.93a.08.08 0 0 0-.05-.07h-.05a.08.08 0 0 0 0 .07.07.07 0 0 0 0 .06.07.07 0 0 0 .1-.06M22.84 39a.06.06 0 0 0-.12 0 .07.07 0 0 0 0 .06.06.06 0 0 0 .12-.06M21.5 39a.06.06 0 0 0-.06 0h-.06v.06a.06.06 0 0 0 .12-.06M22.61 39.34c-.07 0-.1-.06-.1-.11 0-.07.08-.07.14-.07a.11.11 0 0 0 .12 0 .15.15 0 0 0 .09.1s.08 0 .08.1c0 .08-.06.1-.16.08v.1a1 1 0 0 0-.17-.06ZM21.45 39.38c-.1 0-.15 0-.16-.08 0-.06 0-.08.08-.1a.15.15 0 0 0 .09-.1.11.11 0 0 0 .12 0c.06 0 .11 0 .14.07 0 .05 0 .08-.1.11v.08l-.17.06Z" class="cls-2"></path><path d="M22 39.27c-.1 0-.14 0-.14-.11 0-.09.06-.1.12-.11a.17.17 0 0 0 .11-.06.13.13 0 0 0 .1.06c.06 0 .11 0 .12.11 0 .07 0 .1-.13.11a.5.5 0 0 0 0 .1H22v-.09Z" class="cls-2" data-source="https://football-logos.cc"></path><!-- source: https://football-logos.cc --></svg>