<svg xmlns="http://www.w3.org/2000/svg" viewBox="12.59 34.99 570.09 771.9"><!-- Source: https://football-logos.cc --><path d="M474.248 351.825c-1.015 4.754-1.743 9.65 2.919 12.351 4.006 2.322 12.255 5.32 16.88 5.338 6.196.023 9.634-1.748 11.915-8.923 2.393-7.532 5.185-16.208 7.314-25.802 1.037-4.674.294-7.976-4.378-10.563-3.979-2.204-13.134-4.799-17.677-5.02-5.261-.257-7.377 1.314-9.056 5.708-2.86 7.483-6.205 18.888-7.917 26.911m-3.478-35.069c3.564-7.842 8.024-10.006 17.116-9.765 8.496.225 22.764 3.974 29.983 8.464 7.516 4.675 11.254 11.757 9.291 20.17-2.89 12.392-6.352 23.008-9.805 32.786-3.132 8.869-9.077 13.346-18.253 13.233-8.782-.108-23.29-4.54-30.694-8.647-8.67-4.81-10.457-13.471-8.186-21.953 2.788-10.408 6.06-24.417 10.548-34.288M415.986 322.935l19.046 5.376c8.267 2.333 11.838-.169 14.38-9.067 2.206-7.726 1.854-11.372-6.84-14.03l-19.445-5.942zm15.74 16.053-18.596-5.302-6.429 22.774-13.584-3.91 20.066-67.809 34.715 9.985c7.895 2.27 15.224 6.05 16.381 13.484.903 5.802-2.393 15.886-4.434 21.006-2.745 6.887-9.126 8.258-15.224 7.234l-.106.377c7.807 2.696 10.788 7.733 8.475 15.926l-4.365 15.463-13.132-3.782 3.927-13.804c1.48-5.207-1.094-9.703-7.694-11.642M331.166 335.04l19.137-67.794 36.206 10.22c12.663 3.574 17.409 8.788 13.55 22.786-2.472 8.972-6.859 12.68-14.408 11.81l-.129.456c8.064 3.712 9.887 9.485 7.006 19.16-3.855 12.95-10.669 17.671-24.024 13.901zm21.733-26.08-5.177 18.639 17.16 4.843c9.487 2.678 12.846 2.41 15.036-6.384 1.861-7.47.005-9.469-7.408-11.561zm7.692-26.898-4.732 17.222 17.16 4.844c7.706 2.175 11.087 1.956 13.054-5.428 1.883-7.07.374-9.34-6.043-11.151zM306.326 266.304l-5.116 16.961 32.222 9.096-3.223 10.839-32.097-8.959-5 17.713 33.825 9.548-3.14 11.126-47.215-13.328 19.616-67.752 46.917 13.408-3.168 11.22zM236.09 294.162l-3.619 12.823-11.785-3.327 3.62-12.823zM168.232 276.86l16.745 4.618c11.13 3.069 15.348 2.195 19.928-7.218 1.408-2.894 4.45-13.83 5.697-19.022 1.706-7.108 5.267-14.32-10.33-18.722l-19.06-5.381zm-16.307 7.25 19.575-67.696 32.987 9.218c13.526 3.779 22.276 10.073 21.26 22.722-.351 4.367-1.621 9.042-3.351 15.17-2.054 7.276-3.086 13.355-5.253 17.872-7.132 14.864-17.9 16.07-32.787 11.868zM140.337 267.104l-3.62 12.823-11.785-3.327 3.62-12.823zM110.471 245.76l13.294 3.752-1.166 4.133c-2.634 9.335-6.97 16.63-17.36 16.087-10.2-.533-22.486-3.82-32.065-8.691-8.584-4.366-9.46-11.468-8.18-20.109 1.686-11.388 7.262-28.406 12.454-38.463 4.915-9.521 14.952-8.96 26.557-5.91 7.643 2.01 18.126 5.154 21.736 8.087 8.193 6.656 5.149 14.682 3.153 24.157l-13.184-3.722c1.654-5.7 3.452-10.087-1.634-13.128-2.064-1.234-6.569-2.641-10.874-3.856-7.11-2.007-13.016-3.045-15.905 4.659-2.708 7.222-6.09 18.502-8.422 27.218-1.266 4.733-1.175 9.386 3.74 12.217 4.217 2.43 12.988 5.212 17.68 5.338 5.296.142 7.497-2.28 8.925-7.338z" style="fill:#005a9f;fill-rule:evenodd" data-source="https://football-logos.cc"></path><path d="M436.865 154.03c.28-4.494 3.735-7.314 7.425-7.575 16.834-1.19 33.414 8.224 39.225 21.825.334.781.15 1.681-.038 2.475-.396 2.708-1.584 6.574-2.662 8.025-.94 1.267-2.768 2.059-4.33 2.278-3.05.428-6.057.047-9.02-.403-8.691-11.795-19.308-20.03-30.6-26.625M422.907 179.392c-.914-3.563-2.949-6.198-5.025-8.776-2.022-2.51-4.783-2.746-7.425-2.774-2.538-.028-4.411.63-6.431 1.425-1.193.47-2.478 1.2-3.094 2.325-11.067 20.203-7.913 39.566 5.025 48.375 2.172 1.479 5.963 1.638 7.875-.375-.78-9.376 2.581-26.51 9.075-40.2" style="fill:none"></path><path d="M437.888 238.831c-4.477 3.005-8.56 2.826-12.816 1.247-17.518-6.5-5.426-45.322-1.735-50.672.525-.5.96-1.117 1.576-1.5 1.496-.93 3.36-1.871 5.175-2.475 2.149-.715 4.838-1.032 6.675.225 2.524 1.729 4.042 4.96 5.625 7.725.437.764.514 1.814.093 2.587-7.664 14.087-9.404 30.793-4.593 42.863" style="fill:none"></path><path d="M486.308 174.954c7.24 3.135 9.852 9.243 7.5 16.95-1.48 4.849-5.221 8.132-9.3 10.8-11.313 7.401-22.48 12.414-33.075 15-.648.158-1.384-.097-1.95-.45-2.197-1.37-4.288-2.782-6.3-4.35-1.45-1.13-2.004-2.732-2.006-4.303-.005-3.195 1.555-5.972 2.906-8.897.267-.577.727-1.22 1.35-1.35 16.927-3.545 30.477-10.437 40.875-23.4" style="fill:none"></path><path d="M488.454 203.201c6.396 3.347 5.927 8.21 4.575 13.5-1.445 5.653-6.335 8.956-10.95 12-9.649 6.366-19.647 11.521-31.2 12.9-.803.096-1.655-.157-2.344-.581-2.18-1.343-4.045-3.008-6.056-4.594-1.58-1.247-2.138-3.301-1.425-5.775.799-2.772 1.793-5.215 3.9-7.725.46-.547 1.26-.708 1.95-.9 14.989-4.156 28.795-10.14 41.55-18.825" style="fill:none"></path><path d="M445.349 140.724c-31.73 0-57.6 24.634-57.6 54.373 0 29.74 25.701 53.642 57.43 53.642 31.73 0 57.47-23.902 57.47-53.642s-25.571-54.373-57.3-54.373" style="fill:#005a9f;fill-rule:evenodd"></path><path d="M410.711 165.158c1.293-8.62 6.167-12.779 14.25-13.35 3.823-.27 6.277.827 8.55 2.25 11.244 7.037 22.136 14.79 30.3 26.925.5.742.449 1.895.394 2.719-.144 2.16-.472 4.037-1.246 6.14-1.742 4.729-6.801 5.07-12.91 4.8-.682-.03-1.525-.122-1.912-.684-9.247-13.41-21.646-25.842-37.426-28.8" style="fill:#fff;fill-rule:evenodd"></path><path d="M444.29 146.455c-3.69.26-7.145 3.08-7.425 7.575 11.292 6.594 21.909 14.83 30.6 26.625 2.963.45 5.97.83 9.02.403 1.562-.22 3.39-1.012 4.33-2.278 1.078-1.451 2.266-5.317 2.662-8.025.188-.794.372-1.694.038-2.475-5.81-13.6-22.39-23.015-39.225-21.825M422.907 179.392c-.914-3.563-2.949-6.198-5.025-8.776-2.022-2.51-4.783-2.746-7.425-2.774-2.538-.028-4.411.63-6.431 1.425-1.193.47-2.478 1.2-3.094 2.325-11.067 20.203-7.913 39.566 5.025 48.375 2.172 1.479 5.963 1.638 7.875-.375-.78-9.376 2.581-26.51 9.075-40.2" style="fill:#fff;fill-rule:evenodd"></path><path d="M425.072 240.078c4.255 1.579 8.338 1.758 12.816-1.247-4.81-12.07-3.07-28.776 4.593-42.863.421-.773.344-1.823-.093-2.587-1.583-2.764-3.1-5.996-5.626-7.725-1.836-1.257-4.525-.94-6.675-.225-1.813.604-3.678 1.545-5.175 2.475-.615.383-1.05 1-1.575 1.5-3.69 5.35-15.783 44.173 1.735 50.672" style="fill:#fff;fill-rule:evenodd"></path><path d="M493.808 191.904c2.352-7.706-.26-13.815-7.5-16.95-10.398 12.963-23.948 19.855-40.875 23.4-.623.13-1.083.773-1.35 1.35-1.351 2.925-2.912 5.702-2.906 8.897.002 1.571.556 3.173 2.006 4.303 2.012 1.568 4.103 2.98 6.3 4.35.566.353 1.302.608 1.95.45 10.594-2.586 21.761-7.599 33.075-15 4.079-2.668 7.82-5.951 9.3-10.8" style="fill:#fff;fill-rule:evenodd" data-source="https://football-logos.cc"></path><path d="M493.029 216.701c1.352-5.29 1.82-10.153-4.575-13.5-12.755 8.684-26.561 14.669-41.55 18.825-.69.191-1.49.352-1.95.9-2.107 2.51-3.101 4.953-3.9 7.725-.713 2.474-.155 4.528 1.425 5.775 2.01 1.586 3.876 3.25 6.056 4.594.69.424 1.541.677 2.344.581 11.553-1.379 21.551-6.534 31.2-12.9 4.615-3.044 9.505-6.347 10.95-12" style="fill:#fff;fill-rule:evenodd"></path><path d="M293.03 804.773c-15.531-8.146-32.151-17.09-48.308-26.864-16.54-10.005-33.083-21.131-48.456-33.647-50.12-40.806-89.939-92.53-119.047-145.076-34.692-62.626-54.265-126.62-57.992-174.832-3.453-44.658-5.368-89.826-6.177-136.065-.804-45.937-.494-92.698.493-140.933l.167-8.182 8.174-.4c40.962-2.001 98.624-11.386 154.537-31.854 42.091-15.408 83.047-37.04 114.806-66.432l5.938-5.495 5.939 5.495c32.849 30.4 75.215 53.013 118.698 68.85 54.49 19.846 110.474 28.979 151.759 29.457l8.559.1.125 8.55c.676 46.223.575 92.561-.33 138.965-.9 46.168-2.578 92.2-5.058 138.039-2.743 50.48-21.886 112.276-55.313 172.337-29.93 53.775-71.373 106.319-122.814 148.263-29.42 23.988-64.163 42.198-94.188 57.935l-3.412 1.789-4.051 2.124zm-39.247-41.899c14.933 9.034 29.586 17.017 43.304 24.257 29.105-15.256 62.663-32.904 90.59-55.675 49.616-40.457 89.629-91.207 118.557-143.183 32.131-57.73 50.511-116.778 53.116-164.717a3978 3978 0 0 0 5.06-137.42c.846-43.44.987-86.803.444-130.047-42.014-1.561-96.302-11.072-149.024-30.274-42.874-15.615-84.861-37.681-118.668-67.16-32.747 28.483-73.288 49.583-114.7 64.742-54.076 19.795-109.859 29.55-151.572 32.402-.855 45.197-1.088 89.093-.334 132.216.795 45.39 2.708 90.164 6.177 135.035 3.555 45.983 22.382 107.306 55.795 167.623 28.132 50.783 66.54 100.711 114.791 139.995 14.532 11.831 30.436 22.51 46.464 32.206" style="fill:#005a9f;fill-rule:evenodd"></path><path d="M568.22 298.4 42.492 149.12l2.674-9.534 525.726 149.28ZM569.458 434.855 19.833 283.872l2.597-9.534 549.625 150.984z" style="fill:#005a9f;fill-rule:evenodd"></path><path d="m297.152 211.137 267.24 75.883.017-.885c.847-43.44.988-86.802.445-130.045-42.014-1.562-96.302-11.073-149.024-30.275-42.874-15.615-84.861-37.681-118.668-67.16l-.01.008zm205.497-16.04c0 29.74-25.74 53.642-57.47 53.642-31.729 0-57.43-23.902-57.43-53.642s25.87-54.373 57.6-54.373c31.729 0 57.3 24.634 57.3 54.373" style="fill:#fff;fill-rule:evenodd"></path><path d="M297.152 212.562v-154.8c-32.745 28.48-73.807 48.902-115.215 64.06-34.431 12.604-76.024 21.918-107.767 27.191zM297.077 358.777 28.96 285.162l.021 1.202c.751 42.924 2.578 86.795 5.7 129.219l262.471.15zM195.76 728.208l97.871-145.05 3.525-5.223 3.517 5.24 98.33 146.475-7.042 4.717-94.812-141.235-94.346 139.826z" style="fill:#005a9f;fill-rule:evenodd"></path><path d="m198.871 723.597 94.76-140.439 3.521-5.218.003-.005-.003-162.202H36.182q.269 3.659.551 7.317c3.555 45.983 22.382 107.306 55.795 167.623 26.47 47.783 62.038 94.81 106.343 132.925zM30.379 276.522l529.063 145.335a3980 3980 0 0 0 4.735-124.605L57.134 153.277a496 496 0 0 1-26.244 2.522c-.78 41.189-1.042 81.296-.511 120.723m192.017-12.997c-2.054 7.275-3.086 13.354-5.253 17.871-7.132 14.864-17.9 16.07-32.787 11.868l-32.43-9.154 19.574-67.696 32.987 9.218c13.526 3.779 22.276 10.072 21.26 22.722-.351 4.367-1.621 9.042-3.351 15.17m-82.059 3.58-3.62 12.822-11.785-3.327 3.62-12.823zm83.968 23.73 11.786 3.327-3.62 12.823-11.785-3.327zm52.277 28.465 19.616-67.752 46.917 13.408-3.168 11.22-33.621-9.872-5.116 16.961 32.222 9.096-3.223 10.839-32.097-8.959-5 17.713 33.825 9.548-3.14 11.125zm54.584 15.74 19.137-67.794 36.206 10.22c12.663 3.574 17.409 8.788 13.55 22.786-2.472 8.972-6.859 12.68-14.408 11.81l-.129.456c8.064 3.712 9.887 9.485 7.006 19.16-3.855 12.95-10.669 17.671-24.024 13.901zm61.951 17.51 20.066-67.809 34.715 9.985c7.895 2.27 15.224 6.05 16.381 13.484.903 5.802-2.393 15.886-4.434 21.006-2.745 6.887-9.126 8.258-15.224 7.234l-.106.377c7.807 2.696 10.788 7.733 8.475 15.926l-4.365 15.463-13.132-3.782 3.927-13.804c1.48-5.207-1.094-9.703-7.694-11.642l-18.596-5.302-6.429 22.774zm75.29 20.447c-8.67-4.81-10.456-13.471-8.185-21.953 2.788-10.408 6.06-24.417 10.548-34.288 3.564-7.842 8.024-10.006 17.116-9.765 8.496.225 22.764 3.974 29.983 8.464 7.516 4.675 11.254 11.757 9.291 20.17-2.89 12.392-6.352 23.008-9.805 32.786-3.132 8.869-9.077 13.346-18.253 13.233-8.782-.108-23.29-4.54-30.694-8.647M110.472 245.759l13.294 3.753-1.166 4.133c-2.634 9.335-6.97 16.63-17.36 16.087-10.2-.533-22.486-3.82-32.065-8.691-8.584-4.366-9.46-11.468-8.18-20.109 1.686-11.388 7.262-28.406 12.454-38.464 4.915-9.52 14.952-8.959 26.557-5.908 7.643 2.009 18.126 5.153 21.736 8.086 8.193 6.656 5.149 14.682 3.153 24.157l-13.184-3.722c1.654-5.7 3.452-10.087-1.634-13.128-2.064-1.235-6.569-2.641-10.874-3.856-7.11-2.007-13.016-3.045-15.905 4.658-2.708 7.223-6.09 18.502-8.422 27.219-1.266 4.733-1.175 9.386 3.74 12.217 4.217 2.43 12.988 5.212 17.68 5.338 5.296.142 7.497-2.28 8.925-7.338z" style="fill:#fff;fill-rule:evenodd"></path><path d="M184.977 281.478c11.13 3.069 15.348 2.195 19.928-7.218 1.408-2.894 4.45-13.83 5.697-19.022 1.706-7.108 5.267-14.32-10.33-18.722l-19.06-5.381-12.98 45.726zM360.591 282.062l-4.732 17.222 17.16 4.844c7.706 2.175 11.087 1.956 13.054-5.428 1.883-7.07.374-9.34-6.043-11.151zM372.51 314.497 352.9 308.96l-5.177 18.638 17.16 4.843c9.487 2.678 12.846 2.41 15.037-6.384 1.86-7.47.005-9.469-7.409-11.561M423.127 299.272l-7.14 23.663 19.045 5.376c8.267 2.333 11.838-.169 14.38-9.067 2.206-7.726 1.854-11.372-6.84-14.03zM482.165 324.914c-2.86 7.483-6.205 18.888-7.917 26.911-1.015 4.754-1.743 9.65 2.919 12.351 4.006 2.322 12.255 5.32 16.88 5.338 6.196.023 9.634-1.748 11.915-8.923 2.393-7.532 5.185-16.208 7.314-25.802 1.037-4.674.294-7.976-4.378-10.563-3.979-2.204-13.134-4.799-17.677-5.02-5.261-.257-7.377 1.314-9.056 5.708" style="fill:#fff;fill-rule:evenodd"></path><path d="M502.134 415.733H297.152l.003 119.799.01 42.909 3.059 5.296 95.412 142.658c45.915-39.286 84.223-88.081 111.573-137.222 30.288-54.42 50.067-112.503 54.223-158.855ZM252.939 658.576l-30.903 45.676v37.95c10.005 7.254 20.477 14.085 30.956 20.45zM282.272 614.449l.02 164.915c2.768 1.511 5.594 8.526 8.305 9.975l13.095-.9c3.102-1.632 6.31-7.707 9.48-9.398V616.477l-7.384-11.239-9.351-16.069zM342.81 660.505l-.027 101.86c10.497-6.199 20.955-12.556 30.928-19.72l.019-36.466z" style="fill:#005a9f;fill-rule:evenodd"></path><path d="M222.036 741.958v-37.505l-16.63 24.648q.954.786 1.913 1.568a332 332 0 0 0 14.717 11.289M252.936 658.658V762.36l.847.513c9.674 5.852 19.23 11.263 28.49 16.317V615.18ZM313.173 617.002v161.645c9.713-5.181 19.696-10.657 29.619-16.517V661.124ZM373.692 707.153v34.986a288 288 0 0 0 15.488-11.914zM297.152 415.733h202.694L297.08 360.032Z" style="fill:#fff;fill-rule:evenodd" data-source="https://football-logos.cc"></path><!-- source: https://football-logos.cc --></svg>