<svg xmlns="http://www.w3.org/2000/svg" xml:space="preserve" viewBox="0 0 2000.01 1922.07"><!-- Source: https://football-logos.cc --><path d="m15000 12270.1-960.1-2295-5.4-13-8.7-72.5c-10.8-91.8-22.7-184.7-35.1-275.5l-1.7-12.7c-719.9-5199.8-3893.5-8072-6429.3-9565.998L7500 0l-59.9 35.5C4908.6 1527.1 1738.9 4394.4 1013.8 9582.6l-5.5 37.3c-12.3 90.9-23.898 181.8-34.198 269.9l-5.204 43.7L0 12275q17.549 10.95 35.098 21.6C552 12615.6 1099 12905.2 1661.8 13157.9l21.4 9.7 259.3-801.4 698 302.2-217.5 805.5 17.9 6.8c292.4 111.7 597.7 216.6 907.5 311.6l14.7 4.5c573.5 175 1163.9 315 1754.7 416.2l21.7 3.7 104-827.3 843.3 114-60.1 834.9 20.3 2c482.1 49.9 970.9 75.2 1452.9 75.2s972.8-25.3 1455.1-75.2l20.3-2-60.4-835.9 843.3-114.6 104.1 827 21.7-3.7c915.1-156.5 1815.9-402 2677.5-729.5l17.7-6.7-216.9-810.2 695.9-302.5 261 806.4 21.5-9.7c502-225.8 996.8-484.5 1470.5-768.8l7.9-4.9 5.1-1.5 5.4-4.9 5.5-3.5c27.3-17.2 54.2-34.2 81.3-51.7l51.3-32.7 32.4-20.7z" style="fill:#53399c;fill-opacity:1;fill-rule:nonzero;stroke:none" transform="matrix(.13333 0 0 -.13333 0 1922.067)" data-source="https://football-logos.cc"></path><path d="M13672.1 9762.7c-.5-3.4-.9-6.6-1.4-10-4-31-8.1-61.8-12.4-92.5-3.5-25.9-7.2-51.9-11-77.6-3.5-25.9-7.4-51.9-11.2-77.6-352.7-2367.3-1270.9-4457.8-2731.4-6217.3-927.1-1117.1-2061.2-2085-3371-2877.098l-33.7-20.403-33.8 20.403C6156.4 1202.7 5022.3 2170.8 4095.2 3287.7 2634.8 5047.1 1716.7 7137.7 1363.8 9505c-3.8 25.9-7.7 51.7-11.2 77.8-3.8 25.8-7.5 51.6-11 77.5-4.4 31.5-8.6 63.1-12.7 94.7-.5 2.6-.8 5.2-1.1 7.8l-5.1 39.3 32.5 22.7c3.5 2.4 7.1 4.9 10.6 7.4 16.4 11.3 32.8 22.9 49.4 34.1 20.7 14.3 41.6 28.4 62.4 42.3 21 14.3 42 28.4 63.1 42.2 1671.1 1105.9 3777.6 1712.7 5959.2 1712.7s4287.9-606.8 5959.1-1712.7c21-13.8 42-27.8 63.1-42 20.9-14 41.9-28.2 62.6-42.5 15.8-10.7 31.6-21.8 47.4-32.7 4.3-2.9 8.4-5.8 12.6-8.7l32.5-22.7-5.1-39.3zm-6172.1 2118c-2377 0-4651.2-701.9-6408.9-1977 10.9-91 22.4-181.2 34.7-270.8.8-4.9 1.4-10 2.1-14.9 711-5136.9 3834.5-7985.6 6372.1-9480.898C10037.6 1632.4 13161.1 4481.1 13872.1 9618c.6 4.3 1.2 8.4 1.8 12.7 12.4 90.2 24.1 181.2 35 272.9-1757.9 1275.1-4032.1 1977-6408.9 1977z" style="fill:#c79128;fill-opacity:1;fill-rule:nonzero;stroke:none" transform="matrix(.13333 0 0 -.13333 0 1922.067)"></path><path d="M13537.6 9740.3c-6.6-49.4-13.3-98.7-20.6-147.7L7499.9 6710.9l-6017 2881.7c-7.2 49.1-14 98.3-20.6 147.7 29.5 20.4 59.2 40.7 89 60.8L7500 6951.9l5948.7 2849.2c29.8-20.1 59.5-40.3 89-60.8zM2960.8 11705.7c91.9 36.6 184.2 71.9 274.3 104.8 70.7 26.1 144 52.3 222.7 79.5l-62.2 246.2-23.9 94.5-1.9-.6c-32.8-11-65.5-22.1-98-33.3-7.4-2.6-14.8-5.1-22.2-7.7-32.6-11.3-65.1-22.8-97.2-34.3-90.8-32.2-183.8-66.7-276.7-102.5l-9.5-3.7q-48-18.3-95.7-37.2l-21.3-8.4c-30.7-12.2-61.3-24.5-91.7-36.9-1.6-.7-3.2-1.3-4.8-2l106-341.1c65.8 27.7 133.5 55.4 202 82.5zM12910.7 11713.6c-23.3 11-46.5 21.9-69.7 32.5-37.8 17.6-75.3 34.7-112.9 51.6-18.8 8.5-37.7 16.9-56.5 25.3-27.2 12.1-54.2 23.8-81.1 35.5-9.8 4.3-19.6 8.6-29.3 12.7l-5.4 2.3c-23.5 10.1-46.8 20.1-69.9 29.8-5.6 2.4-11.1 4.7-16.6 7l-106-340.8c220.6-95.7 436.6-197.9 647.8-306.5l125.9 340.7c-1.6.8-3.1 1.6-4.7 2.4-28.7 14.3-57.8 28.6-87 42.9-6.9 3.4-13.8 6.7-20.7 10-30.2 14.6-60.6 29.2-91.1 43.7-7.6 3.6-15.2 7.2-22.8 10.7zM9382.4 12757.7c-2.7.4-5.3.8-8 1.1-17.4 2.5-34.4 4.9-51.4 7.2-1.8.3-3.6.5-5.3.7-24.7 3.4-49.4 6.7-74.1 10-15.8 2.1-31.5 4.1-47.3 6.1-26.5 3.3-53.2 6.7-79.8 9.9-.9.1-1.7.2-2.6.3-33.1 4-66.3 7.9-99.4 11.7-15.8 1.8-31.7 3.6-47.6 5.4-31.4 3.5-62.8 6.9-94 10.1-3.5.4-7.1.7-10.6 1.1l-26.2-336.9c270.8-28.3 539.6-65.2 806-110.7l10 73.5 35.8 263.3c-1 .2-2.1.4-3.1.5-35.9 6-71.8 11.8-107.6 17.4-8 1.3-16.1 2.6-24 3.8-39.7 6.2-79.3 12.2-118.5 17.9-17.3 2.6-34.7 5-52.2 7.5zM6911.4 12540.4c1.3 0 2.7.1 4 .2 37.8 1.7 75.7 3.3 113.8 4.6 1.1 0 2.2 0 3.3.1 28.3 1 56.5 2.1 84.8 2.9l-2.7 135.2-4 201.7c-3 0-5.9-.1-8.9-.2-5-.1-10.1-.3-15.1-.5-19.3-.6-38.7-1.2-58.3-1.9-7.4-.3-14.9-.5-22.4-.8-18.1-.7-36.3-1.4-54.7-2.1-7.5-.3-14.9-.6-22.4-.9-25.4-1.1-51-2.2-77.2-3.4-109.9-5.3-218.7-11.8-323.3-19.4-40.7-2.9-81.6-6-122.3-9.3-5.8-.5-11.7-.9-17.5-1.4-36.9-3-73.8-6.2-110.5-9.6-2.7-.3-5.5-.5-8.2-.8l4.2-53.6 22.1-283.4c82.9 7.8 166.7 14.8 250 20.9 102.6 7.7 209.5 14.2 317.6 19.6 15.8.8 31.9 1.4 47.8 2.1zM13820.8 11233.2c-10.9 6.4-21.8 12.9-32.8 19.3-35.9 21-71.9 41.8-107.9 62.3-81 46-162.4 90.9-242 133.4-36.8 19.8-73.9 39.4-111.2 58.8-11 5.8-22.1 11.5-33.2 17.2-13.2 6.8-26.4 13.5-39.5 20.2l-56.8-153.7-69.6-188.4c202-107 399.6-219.9 592.4-338.6l146.3 342.3c-15.2 9.1-30.4 18.1-45.7 27.1zM1691.1 11520.8c-5.8-3-11.5-6-17.2-9-13.8-7.2-27.5-14.4-41.2-21.6-5.2-2.7-10.4-5.5-15.6-8.2-18.4-9.7-36.6-19.4-54.5-29.1-78.4-41.7-157.6-85.3-242.4-133.4-1.2-.7-2.4-1.4-3.6-2-34.5-19.6-69.2-39.6-103.9-59.8-11-6.4-22-12.9-33-19.4-15.4-9.1-30.8-18.2-46.1-27.3l147.1-344c56.5 34.8 110.9 67.4 164.7 98.9 73.3 43.5 150.6 87.8 235.9 135.1 62.8 34.8 127.2 69.7 192.1 103.9l-59.2 160.3-67.9 184c-18.6-9.5-37-19-55.2-28.4M3800 12002.1c95.9 29.9 193.6 58.8 290.3 86.1 79.4 22.5 158.2 43.9 235 63.9l-66 339.3c-1.9-.5-3.8-1-5.7-1.4-8-2-15.8-4.1-23.7-6.1-15.8-4.1-31.5-8.1-47-12.2-8.2-2.1-16.3-4.3-24.3-6.4-15.9-4.2-31.6-8.4-47.2-12.5-6.8-1.8-13.6-3.6-20.3-5.4-22.1-5.9-44-11.9-65.6-17.9-99.7-27.3-199.1-55.8-295.6-85l-.5-.2-.6-.2c-34.9-10.5-69.8-21.3-104.6-32.1-7-2.2-14-4.3-21-6.5-34.2-10.7-68.3-21.5-102.2-32.4-1.6-.5-3.2-1-4.8-1.6l85.8-339.6c72.3 24 145.4 47.5 218.1 70.1zM1913.7 11632.9c-16.8-8.2-33.4-16.5-50-24.8l126.4-342.4c62 31.9 123.7 62.7 184 91.9 82.4 40.6 168.7 81.5 255.9 121.4 69.9 32 139.7 63.1 208.2 92.7l-106.4 342.5c-9.4-3.9-18.7-7.9-28.1-11.9l-17.7-7.5c-23.7-10-47.5-20.2-71.3-30.5-5.4-2.4-10.8-4.7-16.3-7.1-23-10-46.1-20.1-69-30.3l-8-3.6c-4.7-2-9.4-4.2-14.1-6.2-50.6-22.5-101.9-45.7-155-70.3l-.4-.2c-27.2-12.6-54.4-25.3-81.5-38.1-1.1-.5-2.2-1-3.3-1.6l-.3-.2c-39-18.4-78.1-37.3-117-56.2-12-5.8-23.9-11.8-35.9-17.7zM4683.9 12240c102.1 23.4 204 45.3 303.1 65.1 79.7 16.2 161.8 32 244.6 47l-46 338.2c-1.4-.2-2.8-.5-4.2-.7-13.2-2.3-26.5-4.7-39.8-7.1s-26.6-4.8-39.8-7.2c-8.8-1.6-17.6-3.2-26.5-4.9-41-7.6-82-15.4-122.8-23.4l-3.1-.6c-3.2-.6-6.4-1.2-9.6-1.9l-6.4-1.2h-.1c-24-4.7-48.2-9.6-72.5-14.5-1-.2-2.1-.4-3.2-.6-21.1-4.3-42.3-8.7-63.5-13.1-11.2-2.4-22.5-4.7-33.6-7.1-18.6-3.9-37-7.8-55.4-11.8-24.7-5.3-49.5-10.8-74.3-16.3-4-.9-8.2-1.8-12.2-2.7-18.1-4.1-36.4-8.2-54.9-12.4-7.7-1.8-15.5-3.6-23.3-5.4-16-3.7-32.1-7.4-48.4-11.2-7.4-1.7-14.8-3.5-22.3-5.2q-27-6.3-54.3-12.9c-5.7-1.4-11.3-2.7-17-4.1-4.1-1-8.3-2-12.4-3l13-66.8 52.8-271.7c74.9 18.7 152.7 37.3 232.1 55.5M5371.4 12721.4c-16.7-2.7-33.5-5.3-50.1-8.1-2.3-.4-4.7-.8-7-1.2l20-147.3 25.9-190.2c80.2 13.6 161.5 26.7 242.7 38.9 108.9 16.4 211.1 30.3 312.5 42.7 82.4 10.4 166.6 20 250.7 28.7l-26.2 337.2c-11.6-1.2-23.3-2.3-34.8-3.5-26.7-2.8-53.4-5.6-80-8.5-6-.7-12-1.3-17.9-2-3.5-.4-6.9-.8-10.4-1.2-37.1-4.2-74.2-8.5-110.8-12.9l-1.6-.2c-43.3-5.3-86.4-10.7-129.5-16.3-9.1-1.2-18.3-2.3-27.3-3.5-53.3-7.2-106.8-14.5-160.1-22.3h-.6q-51.45-7.65-102.6-15.6c-31-4.8-61.8-9.7-92.6-14.7zM11419.9 11929.9l85.5 338.6c-2.6.8-5.1 1.7-7.6 2.5-5.5 1.8-11 3.5-16.5 5.3-16.1 5.2-32.4 10.4-48.8 15.6-7.3 2.3-14.7 4.7-22.2 7-15.7 4.9-31.6 9.9-47.6 14.9-7 2.2-13.9 4.3-20.9 6.5-22.8 7.1-45.9 14.1-69.5 21.3-95.2 28.8-194.8 57.5-296 85.3-33.8 9.3-68.2 18.6-102.8 27.8-8.1 2.2-16.2 4.3-24.3 6.5-34.1 9-68.3 18-102.9 26.8-1.3.3-2.6.7-3.9 1l-64.3-330.6-1.5-7.9c159.9-41.9 318.7-86.9 476.4-135.2 89.6-27.5 178.5-56 266.8-85.4zM10615.7 12520.5c-2.2.5-4.4 1.1-6.7 1.6-34.5 8.4-69.3 16.6-104.1 24.8-8.6 2-17.2 4-25.7 6-36.1 8.4-72.2 16.7-108.4 24.8l-1.9.4c-45.6 10.1-91.2 20-137 29.6-13.1 2.8-26 5.5-38.9 8.2-8.6 1.8-17.2 3.6-25.8 5.3l-101.9 20.5c-1 .2-2.1.4-3.1.6-38.2 7.6-76.4 14.9-114.5 22-17.6 3.3-34.7 6.4-52.1 9.6-22.2 4.1-44.4 8.2-66.5 12.1-4.3.8-8.5 1.5-12.8 2.3l-45.8-337.4c262.3-47.7 522.3-103.8 779.5-168.1l65.6 337.7zM12131.9 12046.5l-2.8 1.1-56.5 20 .4 1.2c-74.1 28.1-149.1 56-224.1 82.7-42.7 15.3-85.7 30.3-128.8 45.1l-39.6 13.5c-17 5.8-33.9 11.4-50.9 17.1l-85.7-339.4c237.5-81.9 470.5-170.9 698.8-266.8l105.6 339.5c-4.3 1.8-8.7 3.6-13 5.3l-.3.1c-33.2 13.5-66.5 27-99.9 40.1-34.6 13.9-68.9 27.3-103.1 40.5zM7650.3 12889.6c-49.8.6-99.6 1-149.3 1h-5.1c-38.3 0-76.3-.2-114.2-.5-8.6 0-17.1-.1-25.7-.2-36.4-.4-72.6-.9-108.4-1.5-2.2 0-4.3 0-6.5-.1l2.8-144.3 3.8-192.5c4.7 0 9.6.1 14.3.2l22 .3c32.4.5 64.8 1 97.7 1.3h14.7c33.1.3 66.3.5 99.7.5h5.2c11.8 0 23.9-.1 35.8-.2 28.8 0 57.7-.2 86.5-.4 8 0 16-.2 24-.3 35-.4 70.1-.9 105.1-1.6h2.1l2.7 137.9 3.8 198.6c-22.1.4-44.1.9-66.3 1.3-14.8.2-29.6.5-44.4.7zM8475.9 12855h-2.1c-104.8 7.9-210.6 14.3-323.4 19.7-38.6 1.9-77.2 3.6-115.6 5.1-8.7.4-17.5.7-26.2 1-37.2 1.4-74.3 2.7-111.1 3.7-2 0-4 .1-6.1.2l-2.4-125.3-4.1-211.5h2.1c274.8-8.2 547.9-25 819.1-50.5l26.2 336.6c-2.7.3-5.5.5-8.2.8q-58.05 5.25-117.3 10.2c-1.8.1-3.5.3-5.3.4-40.7 3.3-81.7 6.5-122.9 9.5-.9 0-1.8.1-2.8.2zM993.898 10684.2c56.902 37.7 115.502 75.6 174.802 112.9l-90.7 212-57.3 134c-4-2.4-8-4.9-12-7.4-19.399-11.9-39.001-23.9-58.598-36.2-6.5-4.1-13-8.1-19.602-12.2-24.5-15.3-49.199-30.8-74-46.6-26.102-16.6-52.102-33.3-78-50-6.199-4-12.398-8-18.602-12.1-25-16.3-49.898-32.6-74.398-48.9-1.301-.9-2.5-1.7-3.801-2.5l161-345.2c49 33.8 99.699 67.9 151.301 101.9zM14238.6 10974.6c-6.1 4-12.2 8-18.4 11.9-25.7 16.7-51.4 33.2-76.8 49.3-33.7 21.5-67.6 42.8-101.6 63.9-9.9 6.2-19.8 12.2-29.7 18.4-11 6.8-21.9 13.3-32.9 20l-95.7-223.9-51.4-120.4c110.2-69.8 218.9-141.5 325.9-215.2l160.2 343.5c-1.1.8-2.3 1.5-3.5 2.3q-38.25 25.35-76.2 50.1zM7651.9 13921.3c-8.4 0-16.8.2-25.2.2q-62.55.6-125.7.6h-5.1c-39.8 0-80.2-.2-120.8-.6-8.6 0-17.1-.1-25.7-.2-39.5-.4-79.3-1-119.2-1.7-2.4 0-4.8-.1-7.2-.1l1.9-101 3.8-199.6c3.7 0 7.5.1 11.2.2 8.2.2 16.4.3 24.5.4 17.3.3 34.5.6 51.7.8 9.7.1 19.3.2 28.9.4 16.9.2 33.8.3 50.6.5 8.5 0 17 .1 25.5.2h14.4l60.2.1h70.3v-.3c29.8-.1 59.5-.3 89.4-.6 16.3-.2 32.6-.5 48.9-.7 22.9-.3 45.8-.6 68.7-1l3 153.1 2.9 147.4c-2.6 0-5.2.1-7.8.2-39.4.8-79.2 1.4-119.3 1.8zM3119 13221.5c-69.1-23-139.5-47.2-209.5-71.9l-4.1-1.5c-15.3-5.4-30.5-10.8-45.6-16.4l-12-4.3c-15.7-5.6-31.4-11.3-47-17-12.5-4.5-24.4-8.9-36.4-13.2l-8.6-3.2q-34.35-12.6-68.7-25.5c-5.8-2.2-11.5-4.4-17.3-6.5l88.1-302.4c2 .8 4 1.5 5.9 2.3 11.7 4.6 24 9.3 36.3 13.9 9.3 3.6 18.8 7.2 28.3 10.8 4.1 1.5 8.1 3.1 12.2 4.6q22.35 8.4 45 16.8c31.4 11.8 63.1 23.3 95 34.8l1.7.6.6.2 3.2 1.2c10.4 3.8 20.9 7.5 31.3 11.2 27.1 9.7 54.5 19.5 82.3 29.3 11.2 3.9 22.2 7.9 33.4 11.8l24.6 8.4c21.2 7.3 42.5 14.7 64.1 22l-76.5 302.8zM11617.4 13304.1c-7.2 2.3-14.5 4.5-21.7 6.7-37.5 11.6-75.3 23.2-113.2 34.6-104.2 31.4-209.4 61.5-312.6 89.6-48.1 13.2-96.5 26.1-144.8 38.8-14.8 3.9-29.6 7.6-44.4 11.5-20.6 5.3-41.1 10.5-61.7 15.7l-58.7-301.9c2.1-.6 4.3-1.1 6.4-1.7 36.8-9.5 73.6-19.2 110.3-29.1 7.9-2.1 15.8-4.3 23.7-6.4 37.6-10.2 75-20.4 112.1-30.8 77.5-21.7 158.2-45.2 240.4-70v.2l63.5-19.5c1.1-.3 2.2-.7 3.4-1l58.2-17.9v-.3c26-8.2 52.1-16.3 78.3-24.7 14.2-4.5 28.4-9.2 42.6-13.8 18.8-6.1 37.5-12 56.2-18.2l33.7 133.2 42.7 168.8c-1.9.6-3.9 1.3-5.8 1.9-35.8 11.5-72.1 23-108.6 34.4zM13514.5 12180.4c11.9-6.3 23.8-12.4 35.6-18.7 39.6-21 79-42.1 117.9-63.4 61.7-33.4 124-68.3 186-103.7v.3l64.1-36.8.9-.5 49.2-28.5c10.4-6.1 20.8-12.1 31.1-18.2 7.5-4.4 15-8.8 22.4-13.2 23.1-13.6 46-27.2 68.5-40.8 2.7-1.6 5.5-3.3 8.2-4.9l129.9 303.8c-1.4.8-2.8 1.7-4.3 2.5-28.3 16.6-57 33.2-86 49.9-6.5 3.7-13 7.4-19.4 11.1-29.8 17.1-59.9 34.2-90.2 51.2-60.3 33.8-122.5 67.9-188.8 103.5-22.1 11.9-44.6 23.9-67.7 36.1-24 12.7-48 25.1-71.9 37.6-35.1 18.4-70 36.3-105.1 54l-2.1 1.1c-6.5 3.3-12.9 6.5-19.3 9.7l-112.4-304.3c17.8-9.2 35.5-18.7 53.3-28zM6324.3 13874.1c-39.5-3.2-78.9-6.6-118.1-10.2-2.8-.3-5.6-.5-8.4-.8l23.3-300.7c20.8 1.9 41.7 3.9 62.5 5.7 27 2.5 54.1 4.8 81.4 7l18.5 1.6c14 1.2 28.1 2.2 42.2 3.3l63.8 4.8h1l65 4.8v-.2c93.9 6.4 183.2 11.7 270.7 15.7 40.5 2 81.2 3.8 121.7 5.4 8.6.3 17.3.7 25.9 1 39.3 1.5 78.5 2.8 117.5 4 2.4 0 4.8.2 7.1.2l-5.8 300.7-11.3-.3c-20.9-.6-41.7-1.2-62.6-2l-50.8-1.8c-47.5-1.7-94.8-3.5-141.9-5.8l-10.8-.5c-52.7-2.6-105.7-5.3-158.7-8.5-14.7-.8-29.2-1.8-43.7-2.6-47.1-2.9-93.5-6-138.7-9.3l-3.5-.3c-39.8-2.8-79.8-5.9-119.7-9.1l-26.7-2.1zM8036.4 13610.8c9.5-.4 18.8-.8 28.3-1.1 37.6-1.6 74.8-3.2 111.4-5 88.5-4.2 179.2-9.6 270.2-15.9l66-4.7h1.1l63.1-4.7v-.2c14.9-1.2 29.9-2.2 44.7-3.5 3.8-.3 8.3-.6 12.8-1.1 35.6-2.8 71.2-5.8 106.8-9.2l4.4-.4c8.4-.7 16.9-1.5 25.3-2.3l6.7-.6 2.2-.2 1.7-.2 23.3 300.7c-2.1.2-4.1.4-6.2.6-12.6 1.2-25.1 2.3-37.5 3.4-5 .4-10.1.9-15.1 1.3-15.9 1.4-31.7 2.8-47.1 4-35 3-71 5.9-108.5 8.8-5.4.4-10.8.8-16.3 1.3-3.5.3-7.2.5-10.8.8-11 .8-22.1 1.7-33.5 2.5h-1.5c-108.1 8-223 14.9-341.5 20.6-52.1 2.5-104.6 4.7-157.1 6.6-16.3.6-32.7 1.1-49 1.6q-35.4 1.2-70.8 2.1l-5.9-300.4 10.8-.3c41-1.3 81.6-2.7 121.9-4.3zM897.301 12233.1c-15-8.5-29.903-17-44.699-25.5-5.5-3.1-10.903-6.3-16.301-9.4-15.602-9-31.102-18-46.403-26.9-3.398-2-6.898-4-10.296-6-2.704-1.6-5.301-3.1-8-4.7L901.5 11857c18.398 11.1 36.5 21.8 54.5 32.5 5.898 3.5 11.699 6.9 17.602 10.4 12.5 7.4 24.898 14.7 37.298 21.9 6.2 3.6 12.5 7.3 18.6 10.9 15.4 9 30.8 17.8 46 26.6l5.6 3.3c84.2 48.7 168.9 96 251.6 140.7 18.8 10.3 37.9 20.6 57.1 30.9 5.9 3.2 11.8 6.3 17.8 9.5 14 7.5 28 14.9 42.2 22.5 6.3 3.3 12.6 6.6 18.9 10 14.7 7.8 29.6 15.5 44.5 23.3 5.5 2.9 11 5.8 16.6 8.6 3.2 1.7 6.4 3.3 9.6 5l-89.7 243-22.6 61.3c-19.5-9.8-39.1-19.8-59-30l-13.5-6.9c-15.9-8.1-31.9-16.4-48.1-24.8-5.3-2.8-10.6-5.5-16-8.3-20.5-10.6-41.1-21.4-62.2-32.5-29.1-15.4-58.1-30.9-87-46.4-3.6-1.9-7.2-3.9-10.8-5.8-14.7-7.9-29.3-15.8-43.8-23.8-3.6-2-7.1-3.9-10.7-5.9-35-19-69.6-38.2-104.102-57.6l-.597-.3c-20-11.2-39.801-22.4-59.5-33.5-4.903-2.8-9.602-5.5-14.5-8.2zM11788.6 12921.2c8.7-3 17.3-6 26-8.9l45-15.6c8.1-2.8 16.2-5.6 24.3-8.5 16-5.6 31.9-11.2 47.8-16.9 6.8-2.4 13.7-4.8 20.5-7.3 22.5-8 44.8-16 66.9-24.1 22.8-8.3 45.5-16.6 68-24.9 6.2-2.3 12.3-4.6 18.5-6.9 16.9-6.3 33.7-12.5 50.3-18.8 6.3-2.4 12.7-4.8 19-7.2 19.4-7.3 38.6-14.6 57.6-22 2.8-1.1 5.6-2.1 8.3-3.2l2.5-1 88.2 302.4c-4.6 1.7-9.4 3.6-14 5.3-6.7 2.5-13.3 4.9-19.9 7.4-17 6.4-33.9 12.6-50.6 18.8-7.2 2.7-14.4 5.3-21.5 7.9-16.6 6.1-33 12.1-49.3 17.9-6.3 2.3-12.6 4.6-18.8 6.8-22.1 8-44.1 15.8-65.7 23.5-35.2 12.5-70.5 24.8-105.7 36.9-7.7 2.7-15.5 5.3-23.2 8-34.7 11.9-69.3 23.6-103.6 35.1-1 .3-2 .7-3 1l-76.5-302.9c3-1 6-2.1 9-3.1zM3269.6 13270.8l76.3-301.8 2.1.7c34.1 11.2 68.6 22.3 103.4 33.4 8 2.6 16 5.1 24.1 7.6 15.8 5 31.7 10 47.6 15v.2l58.2 17.8 1.4.4 65.4 20.1v-.3c2.8.8 5.6 1.7 8.3 2.5l3 .9c38.3 11.5 76.2 22.6 113.9 33.5 38.9 11.3 77.6 22.3 115.6 32.9 24.3 6.8 48.6 13.4 72.7 20 8.1 2.2 16.1 4.4 24.2 6.6 16.2 4.4 32.3 8.7 48.4 13 9.1 2.4 18.1 4.8 27.1 7.2 15.6 4.1 31.1 8.2 46.6 12.2 8.3 2.2 16.7 4.4 25 6.5 2.9.7 5.8 1.5 8.7 2.3l-12.1 62.4-46.6 239.6c-1.6-.4-3.2-.8-4.9-1.2-7.1-1.8-14.3-3.6-21.5-5.5-17-4.3-34.1-8.7-51.4-13.2-7.8-2-15.7-4.1-23.6-6.1-17.5-4.6-35.1-9.2-52.9-13.9-7.2-1.9-14.3-3.8-21.6-5.7-24.8-6.6-49.7-13.3-75.2-20.3-104.6-28.5-209.6-58.4-312.1-89.1l-.6-.2h-.3c-39.7-11.9-79.5-24.1-119.1-36.4-5.1-1.6-10.3-3.2-15.5-4.8-33.8-10.5-67.5-21.2-101-31.9-4.5-1.4-8.9-2.9-13.4-4.3zM446.398 11568.7c19.704 13.2 39.602 26.3 59.602 39.5 6.5 4.3 13 8.6 19.5 12.8q37.2 24.45 74.699 48.6c17 11 34.301 22 51.699 33.1 6.5 4.2 13.204 8.3 19.704 12.5 11.296 7.2 22.699 14.3 34.097 21.5 7.102 4.4 14.102 8.9 21.199 13.3 12.5 7.8 25.204 15.7 37.801 23.5 5.403 3.3 10.699 6.6 16 9.9 2.699 1.7 5.301 3.3 8 5l-130.5 305c-1.699-1-3.301-2-5-3-25.097-15.1-50-30.2-74.597-45.2-6.801-4.2-13.602-8.3-20.403-12.5-26.398-16.2-52.5-32.3-78.199-48.4-27.199-16.9-54.801-34.4-82.699-52.1-6.199-3.9-12.301-7.8-18.5-11.8-27-17.2-54.102-34.7-81.5-52.6-1.699-1.1-3.403-2.2-5.102-3.4l141.801-304c4 2.7 8.102 5.4 12.199 8.1zM1697.1 12649.5c-3.1-1.5-6.2-3-9.3-4.4-19.1-9.1-38.1-18.2-56.9-27.3-7.1-3.4-14.2-6.8-21.2-10.2-20-9.7-39.9-19.4-59.5-29-1.9-.9-3.8-1.9-5.7-2.8l111.9-303.2c4.9 2.4 9.7 4.8 14.6 7.2 13.9 7.1 28.4 14.3 43 21.5 7.6 3.8 15.2 7.5 22.8 11.3 19.2 9.5 38.5 19 57.8 28.5l3.6 1.8c1.8.9 3.5 1.7 5.3 2.6l-106.3 304.1zM14701.7 11863.2l-13.8 9c-13.1 8.5-26.3 17.1-39.7 25.7-5.6 3.6-11.1 7.2-16.7 10.8-13 8.3-26.1 16.7-39.4 25.2-5.4 3.4-10.8 6.9-16.2 10.3-18.4 11.6-37 23.4-56 35.2-25.7 16.1-51.9 32.3-78.2 48.5-6.9 4.2-13.8 8.5-20.8 12.7-24.8 15.2-49.7 30.3-74.8 45.4-1.4.9-2.9 1.7-4.3 2.6l-98.7-230.9-31.8-74.4c1.2-.8 2.5-1.6 3.8-2.3 27.2-16.8 54.6-33.9 82.2-51.2 5.9-3.7 11.9-7.5 17.8-11.3 28.2-17.8 56.5-35.9 84.8-54.2 34.5-22.2 68.8-44.8 103.1-67.4l29.4-19.5c11.1-7.4 22.2-14.7 33.3-22.1l141.8 304.1c-1.9 1.2-3.8 2.5-5.7 3.7zM13202.3 12338.6c17.1-8.3 34.3-16.8 51.6-25.3 6.4-3.2 12.8-6.3 19.2-9.4 23.4-11.6 47-23.4 70.6-35.3l.7-.3 111.9 303c-11.5 5.7-23 11.3-34.6 17-29 14.2-58.1 28.3-87.4 42.3-10.2 4.9-20.4 9.7-30.6 14.6l-106.4-304c1.7-.8 3.4-1.7 5-2.5zM10043.6 13382.2l1-.2c3-.5 6.7-1.2 10.5-2 36.1-6.9 72.2-13.9 108.1-21.1 86.5-17.4 171.5-35.4 253.8-53.6l66.9-15c1-.2 2.1-.5 3.1-.7l57.4-13.1c23.7-5.6 47.4-11.2 70.9-16.7l.7-.2 35.4-8.4 6.3-1.5c5.4-1.3 10.9-2.7 16.3-4 20-4.9 39.9-9.7 59.7-14.6l58.6 301.2c-21.6 5.2-43.2 10.5-64.8 15.6-24 5.8-48.1 11.4-72.1 16.9-41.7 9.7-83.3 19.3-124.8 28.5l-1.2.3c-71.8 15.9-146.2 31.7-221.7 47.1-34.1 6.9-68.4 13.8-103 20.6-24.3 4.8-48.8 9.5-73.6 14.3-7.9 1.5-15.9 3-23.9 4.5-17.1 3.2-34.2 6.4-51.5 9.6l-27.9 5.1c-16.3 3-32.6 5.9-49 8.9-9.7 1.7-19.4 3.5-29.2 5.2-2.7.5-5.3.9-8 1.4l-41-301.4c28.7-5.1 57.2-10.4 85.7-15.8 19-3.5 38.1-7 57.4-10.9zM5055.2 13711.2c-38.3-6.7-76.9-13.7-115.5-20.8l-24-4.5c-39.5-7.4-79-14.9-118.4-22.6l-4.7-.9c-17.2-3.3-34.3-6.7-51.5-10.2l-3.9-.8c-16.3-3.3-32.5-6.5-48.8-9.9-76.9-15.7-147.5-30.6-216-45.7l-1.3-.3-1.8-.4c-33.8-7.5-67.7-15.1-101.4-22.9l-2.5-.6c-12.8-2.9-25.6-5.9-38.4-8.9-5.7-1.3-11.3-2.6-17-3.9-32.3-7.6-64.5-15.2-96.5-23-1.3-.3-2.7-.7-4-1l58.6-301.3c4 1 7.9 2 11.8 3l16.7 4.2 45.4 10.9c9.8 2.4 19.6 4.7 29.5 7.1l2.5.6 2.7.6q40.35 9.6 80.7 18.9v.2l60.5 13.7 2.1.5 64.7 14.7v-.2c53 11.7 107.2 23.3 162.3 34.7 30.4 6.3 60.9 12.5 91.7 18.7 26.3 5.2 52.2 10.3 77.8 15.3 7 1.3 13.8 2.7 20.7 4 18.7 3.6 37.2 7.1 55.6 10.6 7.9 1.5 15.9 3 23.8 4.4 17.5 3.2 34.8 6.4 52.1 9.6 7.8 1.4 15.6 2.9 23.4 4.3 3.1.6 6.3 1.2 9.4 1.7l-40.9 301.4c-1.8-.3-3.6-.6-5.3-.9zM13989.8 12705.1c-18.8 10.1-37.1 19.8-55.4 29.3-16.8 8.9-33.3 17.6-49.6 26-5.9 3.1-11.4 5.9-16.9 8.7l-7.3 3.7c-17.9 9.4-35.3 18.3-52.8 27.2-65.7 33.6-130.2 65.9-191.9 96-67.3 33.1-137.9 66.9-210.8 100.9l-58.1-166.2c19.1-9.1 38.1-18.3 57.1-27.5 12.7-6.1 25.4-12.1 38.1-18.3 19.9-9.7 39.7-19.4 59.5-29.1v.3l63.7-31.6 1.6-.8 52.3-26.1c68-34.4 137.2-70 206.6-106.6 1.8-.9 3.6-1.9 5.4-2.8l1.6-.9.4-.2c1.1-.6 2.2-1.2 3.4-1.8 19.6-10.4 38.8-20.7 57.7-30.8 6.1-3.3 12.1-6.5 18.1-9.7 15.3-8.2 30.4-16.4 45.3-24.5 4.7-2.6 9.5-5.2 14.2-7.7 18.9-10.3 37.6-20.6 56-30.7l67.9 166.3c-21.2 11.5-42.4 23-63.7 34.4-14.2 7.7-28.1 15.1-42.1 22.5zM6293 14064c2.5.2 5.1.4 7.7.6q45 3.75 90 7.2c3.3.3 6.6.5 9.9.8l-9.5 162.5c-1 0-1.9-.1-2.9-.2-35.3-2.5-70-5.2-104.5-8.1-27.8-2.3-55.6-4.7-83.3-7.1l-25.4-2.3 12.7-162.5c2.8.3 5.7.5 8.5.7 32.2 2.9 64.5 5.8 96.9 8.5zM1384.6 12900.4c-83.9-41-171.9-85.4-269.2-135.6-37.6-19.6-75.4-39.4-112.9-59.5-10.898-5.7-21.199-11.2-31.398-16.7l-9-4.8c-14.301-7.7-28.801-15.4-43.204-23.3-4.796-2.6-9.5-5.2-14.296-7.7l67.796-166.3c15.5 8.6 31.102 17.1 46.702 25.6 2.5 1.4 5 2.7 7.5 4.1 12.7 6.9 25.6 13.9 38.5 20.8 3.9 2.1 7.7 4.2 11.5 6.2 1.2.6 2.3 1.2 3.5 1.9 28.8 15.5 57.8 31 87.1 46.5 70.5 37.1 137.1 71.5 202.1 104.3l12 6 52.3 26.1h.2q25.35 12.75 51.3 25.5l13.7 6.8c47.3 23.2 96.1 46.7 145.7 70.3 3 1.4 6.1 2.9 9.1 4.3l-58.2 166.2c-68.7-32-139.3-65.8-210.9-100.7zM598.699 12480.9c-89.801-52.3-170.801-100.7-247.398-147.8-65.102-39.8-129.602-80.1-192.5-120.4l77.898-167.1c2.403 1.6 4.801 3.1 7.199 4.6 23.301 15.1 46.403 30 69.5 44.7 7.204 4.6 14.5 9.2 21.704 13.8 25.597 16.2 51 32.3 76 47.9 63.097 39.5 128.796 79.6 195.5 119.5l49.199 29.3.801.4 63.199 37.4v-.2l12.597 7.2c11.704 6.8 23.403 13.6 35.204 20.4 7.699 4.5 15.5 8.9 23.296 13.4 13 7.4 26 14.9 39.204 22.4 6.199 3.5 12.296 7 18.5 10.5 3.097 1.8 6.097 3.5 9.199 5.3l-68.199 167.2c-63.704-35.5-127.704-71.9-190.801-108.5zM3364.3 13675.3c-23.5-7-46.9-14.1-70-21.4-23.9-7.2-47-14.5-70-21.7-29.1-9.1-57.8-18.2-86.5-27.4-99.8-32-201.7-66.1-303-101.3l-5.3-1.9c-22.1-7.7-44.1-15.5-66.2-23.3l-9-3.2c-18.1-6.4-36.2-12.9-54.3-19.4l-23.7-8.6c-24.2-8.7-48.5-17.5-72.7-26.5-6.2-2.3-12.3-4.5-18.4-6.8l48-164.7c2.8 1 5.5 2.1 8.3 3.1 23.1 8.6 46.2 17.3 69.4 25.7l8.4 3.1c12.3 4.6 24.6 9.1 37 13.5 15.4 5.7 31.4 11.4 47.4 17.1l11.6 4.2c15.1 5.5 30.8 11.1 46.5 16.7l4.2 1.5c70.9 25.1 142.1 49.5 211.7 72.7l9.9 3.4c8.5 2.9 17.1 5.7 25.6 8.5v.2l57.9 18.9c15.1 4.9 30.3 9.8 45.5 14.7l20.9 6.9c34 10.8 68.1 21.6 102.4 32.2 29.3 9.1 56.8 17.7 82.8 25.6l-38.2 164.3c-6.8-2-13.5-4.1-20.3-6.1zM14648.7 12328.4c-83.6 51.3-166.9 101-247.3 147.7-61.3 35.7-124.2 71.5-190.6 108.7l-68.2-167.1c2.8-1.6 5.6-3.2 8.5-4.8 6.2-3.5 12.3-7 18.5-10.5 13.4-7.6 26.7-15.3 40-22.9 7-4.1 14.1-8.1 21.1-12.1 13.2-7.6 26.3-15.3 39.4-22.9 3.4-2 6.8-3.9 10.2-5.9v.2l64.1-37.9.2-.1 49-29.1c23-13.9 45.9-27.7 68.6-41.5 7.3-4.4 14.5-8.9 21.8-13.3 35.5-21.7 70.6-43.4 105.1-65 19.3-12.1 38.1-23.9 56.8-35.7 4.1-2.6 8.2-5.2 12.2-7.8 15.7-9.9 31.1-19.8 46.4-29.6 3.1-2 6.3-4 9.3-6 16.6-10.7 33.1-21.3 49.3-31.9l78 167.1c-61.5 39.5-124.9 79.3-192.3 120.7zM4092.2 13873.5c-105.7-25.6-214.4-53.5-323.1-82.7-85.6-22.9-172.6-47.2-259.2-72.3l15.5-66.4 22.7-97.4c1.5.4 3 .9 4.5 1.3 36 10.6 72.3 21 108.6 31.3 8.2 2.3 16.4 4.6 24.7 7 37.1 10.5 74.3 20.8 111.5 30.9 91 24.8 176.7 47.3 260.4 68.3l57 14.2c1.1.3 2.2.6 3.3.8l66.5 16.3v-.2c28.4 6.9 56.6 13.7 84.9 20.4 3.5.8 7 1.7 10.5 2.5 16.8 4 33.8 8 50.9 11.9l6.7 3.2h7.9c3.9 1 7.8 1.8 11.7 2.7 8.3 1.9 16.7 3.9 24.9 5.8l-28.6 163.5c-85.7-19.1-173.4-39.5-261.3-60.9zM10909.3 13871.2c-85.9 20.9-173.5 41.3-261.1 60.9l-19.2-109.5-9.5-54.1c3.5-.8 7-1.6 10.4-2.4 9.1-2 18.6-4.2 28.3-6.5 7.9-1.8 16-3.8 24-5.6 29.6-6.9 59.1-13.7 88.6-20.8l2.7-.6c14.3-3.4 28.9-6.9 43.5-10.4v.2l62.7-15.5c1.3-.3 2.6-.6 3.9-1l60.3-14.8v-.4c86.4-21.8 173.6-44.5 260.2-68.3 47.5-12.9 95.4-26.4 143.5-40.1 14.9-4.2 29.7-8.6 44.6-12.9 20.4-5.9 40.7-11.7 61-17.7l38.2 164c-84.1 24.4-171 48.8-259.2 72.7-105.9 28.6-214.6 56.5-323.1 82.9zM4751.6 14017.1c-31.9-6.1-63.9-12.3-95.6-18.7-48-9.6-95.8-19.4-143.5-29.5-10.5-2.2-21-4.4-31.4-6.7l28.6-163.2c12.4 2.7 24.8 5.3 37.4 8 3.8.8 7.7 1.6 11.5 2.4 12.5 2.6 25.2 5.3 38 8 5.1 1.1 10.3 2.1 15.5 3.2 16.4 3.4 33 6.8 50 10.3 16.3 3.4 32.9 6.7 49.5 10.1l3.7.7c17.3 3.5 34.8 6.9 52.3 10.4l4.6.9c40.2 7.9 80.5 15.5 120.7 23 8.7 1.6 17.3 3.2 26 4.8 39 7.2 77.9 14.2 116.6 21 2.4.4 4.9.9 7.4 1.3l-22.3 163.2c-89.9-15.6-180.1-32-269.1-49.2zM12008.2 13554.3q-66.75 22.2-134.1 44.1c-3.7 1.1-7.5 2.3-11.3 3.6l-3.1 1c-18.1 5.8-36.2 11.7-54.2 17.4l-14.1 4.4c-18 5.7-35.9 11.3-54 16.9-25.1 7.9-50 15.5-74.9 23.1-15.1 4.6-30.3 9.2-45.5 13.8l-37.1-159.2-1.2-5.3c3.5-1.1 6.9-2.1 10.4-3.2 9.2-2.8 18.3-5.6 27.5-8.4 15.4-4.8 30.8-9.5 46.1-14.3 8.8-2.7 17.6-5.5 26.3-8.2 16.8-5.3 33.4-10.6 50-15.9 7-2.2 14-4.5 21-6.7 1.3-.4 2.6-.8 3.9-1.3v.2l66.4-21.7 1.6-.5 56.3-18.4v-.2c47.3-15.7 95.1-31.9 143-48.5 34.6-12 69.3-24 104-36.3q32.1-11.4 64.8-23.1c7.1-2.5 14.3-5.2 21.4-7.7 15.6-5.6 31.3-11.4 47.2-17.2 7.2-2.7 14.5-5.3 21.8-8 18.3-6.7 36.8-13.6 55.6-20.6 4.4-1.6 8.7-3.2 13.2-4.9 3-1.1 6-2.2 9-3.4l48 164.7c-79.5 29.5-161.7 59-245.1 88.2-54 18.7-108.2 37.2-162.8 55.6zM10348.4 13995.8c-32.7 6.6-65.5 13-98.3 19.4l-19.4 3.7c-12.7 2.4-25.5 4.9-38.2 7.2-24.5 4.7-48.6 9.1-72.7 13.5s-48.2 8.8-72.3 13.1q-33.15 6-66.3 11.7l-22.2-163.2c4.6-.8 9.1-1.6 13.7-2.5 8.6-1.5 17.2-3.1 25.7-4.6 17.1-3.1 34.1-6.1 51-9.2 10-1.8 20.1-3.7 30.1-5.5 16.1-3 32-6 47.9-9 9.5-1.8 19.1-3.6 28.6-5.4 24.7-4.7 49.3-9.5 73.6-14.3 25.6-5 51.1-10.1 76.4-15.2l23.7-4.8q27.15-5.55 54-11.1l24.3-5.1c19.5-4.1 38.8-8.2 58.1-12.3 5.6-1.2 11.1-2.4 16.7-3.6 3.1-.7 6.2-1.3 9.3-2l25.1 143.5 3.4 19.6c-14.8 3.2-29.6 6.3-44.4 9.4-42.9 9.3-85.3 17.9-127.8 26.5zM7849.7 14272.3c-92.3 2.3-187.4 3.7-283.5 4.1V14114h12.9c9.2 0 18.5-.1 27.7-.2 17.9-.1 35.8-.3 53.6-.5 9.8-.1 19.5-.2 29.3-.4 17.8-.2 35.5-.5 53.2-.8 9-.2 17.9-.3 26.8-.5 4 0 8-.1 11.9-.2l63.7-1.4h1.9l64.8-1.7v-.3c93.6-2.7 187.6-6 280.6-10.5 27.4-1.3 54.6-2.7 81.7-4.2 7.5-.4 14.9-.8 22.3-1.2q29.55-1.65 58.8-3.3l24.9-1.5c19.3-1.2 38.3-2.4 57.3-3.6 7.2-.5 14.5-.9 21.7-1.4 4-.3 8.1-.5 12.1-.8l9.4 162.4c-94.2 6.3-189.1 11.7-282.9 16.2-114.9 5.5-232.1 9.6-348.3 12.4zM6804.1 14260.5c-93.9-4.4-188.8-9.9-282.9-16.2l9.5-162.4 26 1.8c10.3.7 20.5 1.2 30.8 1.9 72 4.6 146 8.7 221.3 12.3h1.6c95.5 4.5 189.2 8 279.8 10.5v.2l65 1.5h.1l65.4 1.5v-.2c20.6.4 41 .7 61.5 1l23.9.3c41 .5 81.8.9 122.3 1.1h7.5v162.6c-94.7-.4-189.8-1.7-283.5-4-115.8-2.6-232.9-6.6-348.2-11.9zM8783.3 14220.3c-47.2 4.1-94.6 8.1-141.9 11.8-10.2.8-20.3 1.5-30.4 2.3l-6.6-113.1-2.9-49.4c3.3-.3 6.4-.5 9.7-.8 11.7-.9 23.3-1.8 34.7-2.7 5.1-.4 10.3-.8 15.4-1.2 16.2-1.3 32.3-2.7 48.1-4 15.2-1.3 30.8-2.6 46.6-4 5.4-.5 10.9-1 16.3-1.5 11.4-1 22.8-2 34.4-3.1 2.6-.2 5-.5 7.6-.7l12.6 162.7c-14.5 1.3-29 2.6-43.5 3.8h-.1zM3854.8 12934.8c-6.6-1.9-13.3-3.8-20-5.8-16.7-4.8-33.5-9.7-50.4-14.6-7.9-2.3-15.8-4.6-23.8-7-15.7-4.6-31.4-9.3-47.2-14-8.7-2.6-17.3-5.2-26-7.8-3.2-1-6.4-1.9-9.6-2.9l2.6-11.3 77.7-333.4 1.8.5c34 10 68.2 19.9 102.6 29.8 8.2 2.3 16.3 4.7 24.5 7 34.5 9.8 69.1 19.5 103.7 28.9 77.7 21.5 158.1 42.7 243.5 64.4v.4l60.2 14.8 1.2.3 65.3 16.3v-.4c1.4.3 2.8.6 4.2 1 8.6 2.1 17.1 4.1 25.6 6.1 16.1 3.9 32.2 7.7 48.2 11.5 7.8 1.8 15.7 3.7 23.5 5.5 17.5 4.1 34.9 8.1 52.2 12.1 6.1 1.4 12.3 2.8 18.4 4.2 2.9.7 5.8 1.4 8.7 2l-61.8 353.7c-1.7-.4-3.5-.8-5.2-1.2q-44.4-10.35-88.5-21l-91.7-22.4c-19.8-4.9-39.7-9.7-59.3-14.7l-1.1-.3-3.1-.8c-98.8-24.9-202.1-52.3-307.2-81.6-22.8-6.4-45.9-12.9-69-19.5zM2891.6 12247l.6.2c33 12.5 65.9 24.7 98.7 36.8 6.9 2.5 13.8 5.1 20.7 7.6 32.5 11.9 64.9 23.6 97 35 75.5 27.1 153 53.8 231.1 79.9v.2l56.2 18.4 1.6.5 66.4 21.8v-.2c12.5 4 25.1 8 37.6 12 7.7 2.5 15.4 4.9 23.1 7.3q51.3 16.2 102.9 32.1c1.8.6 3.6 1.1 5.4 1.7l-28.6 122.5-51.7 221.6c-1.9-.6-3.8-1.2-5.6-1.8-5.2-1.6-10.4-3.3-15.7-4.9-18-5.7-35.9-11.3-53.7-17-7-2.3-14.1-4.5-21.1-6.8-16.9-5.4-33.7-10.9-50.3-16.3-6.2-2-12.5-4.1-18.7-6.1-22.5-7.4-44.9-14.8-67.1-22.2-8.5-2.8-16.8-5.7-25.3-8.6-33.8-11.4-67.4-22.9-100.9-34.5-19-6.6-37.8-13.2-56.6-19.8-12.8-4.5-25.7-9-38.5-13.6-17-6-33.7-12-50.4-18.1-7.3-2.6-14.8-5.3-22-7.9-34.1-12.3-68.5-25-103-37.8-16.6-6.2-33.1-12.4-49.6-18.7-22.7-8.6-45.3-17.1-68-25.9-4-1.5-7.8-3-11.7-4.6l13.6-46.6 83.5-286.3zM10465.3 12739c36.6-8.4 73-16.9 109.4-25.5 7.4-1.8 14.7-3.5 22.1-5.3 14.6-3.5 29.3-7 43.8-10.5v.3l66.8-16.7.6-.2 59.4-14.7v-.3c82.5-21 164.2-42.7 243.4-64.5 35.5-9.8 70.7-19.6 105.7-29.6 7.3-2.1 14.6-4.2 21.9-6.2 34.8-10 69.4-20 103.5-30l1.4-.4 80.3 344.5c-3 .9-5.9 1.8-8.9 2.7-10.1 3.1-20.2 6.1-30.3 9.1-13.9 4.2-27.8 8.3-41.5 12.4-9.7 2.9-19.3 5.7-29 8.5-15 4.4-29.8 8.7-44.6 13-8 2.3-16.1 4.7-24.1 7-22.7 6.5-45.3 12.9-67.5 19.1-97.2 27.3-196.5 53.8-295.5 78.9l-13.9 3.5c-17.7 4.6-35.6 8.9-53.5 13.3-17.8 4.5-35.1 8.7-52.5 13-10.2 2.6-20.1 5-30.1 7.4-6.1 1.5-12.2 2.9-18.2 4.4-7.4 1.8-14.9 3.6-22.4 5.3l-3.2.8c-2.4.7-4.8 1.2-7.2 1.7-4.6 1.1-9 2.2-13.5 3.2-7.4 1.8-14.9 3.5-22.3 5.2-3.7.8-7.4 1.7-11.1 2.6-4.2 1-8.3 1.9-12.5 2.9l-48.9-279.8-12.9-73.8c1.8-.4 3.5-.8 5.3-1.2zM6584.8 13039.5c1.9.1 3.8.2 5.7.4 37.2 2.5 74.8 4.8 112.7 7 8.1.5 16.2.9 24.4 1.4 39.1 2.2 78.3 4.3 117.8 6.2 92.1 4.3 178.5 7.5 262.6 9.9l64.9 1.7h2.1l63.5 1.4h7.3c8 .1 16 .3 24 .4 16.6.3 33.3.5 50 .7l28.5.3c15.8.2 31.5.3 47.4.4 9.5 0 19.1.1 28.6.2h11.5v367.2h-7.9c-38.1-.2-76.6-.6-115.4-1.1-8.2-.1-16.5-.2-24.7-.4-40.3-.6-80.7-1.3-121.3-2.3-82.3-1.9-166.1-4.7-250-8.3q-42-1.8-84-3.9c-24.9-1.2-50-2.4-75.2-3.8-6.4-.3-13-.7-19.4-1.1-19-1-38-2.1-57.3-3.3-7.8-.5-15.7-.9-23.5-1.4-18.7-1.1-37.6-2.4-56.6-3.6l-22.8-1.5c-4.6-.3-9.4-.7-14.1-1l.4-6.3 21-359.5zM7834.1 13433c-50.4 1.2-101.2 2.1-151.9 2.8-16.1.2-32.2.3-48.3.5-22.6.2-45.1.3-67.7.4v-367c22.2-.1 44.5-.4 66.7-.7 15.5-.2 30.8-.3 46.3-.5 28.2-.4 56.2-1 84.3-1.5l63.4-1.3h2.2l64.8-1.7c86.3-2.4 174.4-5.8 262.8-10.2 25.5-1.2 50.6-2.5 75.5-3.8 9.1-.5 18.1-1 27.2-1.5 15.9-.9 31.8-1.8 47.5-2.7l30-1.8c15.5-1 30.9-1.9 46.3-2.9 9-.6 18-1.2 26.9-1.8 2.5-.2 5-.3 7.4-.5l21.3 365.8c-2.5.2-5.1.4-7.6.5-38.9 2.7-77.6 5.2-116.2 7.5-8.9.5-17.9 1-26.8 1.6-39.7 2.3-79.3 4.5-118.4 6.3-36.6 1.8-73.5 3.4-110.4 5-9.4.4-18.8.8-28.2 1.1-37.3 1.5-74.6 2.8-111.7 4-24.3.8-48.4 1.5-72.6 2.1l-11.3.3h-1.5M12179.6 12586.9c-15.9 6.1-31.8 12.2-47.9 18.3-7.2 2.7-14.4 5.4-21.6 8.2-15.8 5.9-31.6 11.9-47.6 17.8-6.8 2.5-13.5 5.1-20.4 7.6-22.4 8.3-44.9 16.6-67.6 24.8-93.9 34.1-191.5 68.2-290.2 101.4l-3.4 1.1c-45.3 15.2-90.8 30-136.1 44.6-14 4.5-28 8.9-42 13.4-18.2 5.8-36.2 11.4-54.2 17l-59.8-256.5-20.3-87.1c3.7-1.1 7.2-2.2 10.9-3.4 7.5-2.3 14.9-4.6 22.4-7 15.8-4.9 31.5-9.8 47-14.7 7.8-2.5 15.7-4.9 23.4-7.4 16-5.1 31.9-10.2 47.6-15.2 5.8-1.9 11.8-3.8 17.6-5.7l8.5-2.8c17-5.5 33.8-11 50.5-16.6l7.4-2.4h.1l57.6-19.1v-.2c77.1-25.8 154.6-52.3 231.1-79.7 42.9-15.3 85.9-31 128.8-46.8 12.6-4.7 25.1-9.4 37.7-14.1 16.8-6.3 33.6-12.5 50.3-18.8l97 332.8c-3 1.1-5.8 2.3-8.8 3.4-6 2.3-12.2 4.7-18.2 7zM1769.7 12129.4c-13.4-6.7-26.8-13.3-40.1-20.1-24.4-12.1-48.3-24.2-72.1-36.3-2.4-1.2-4.9-2.5-7.3-3.7-57.4-29.4-113.7-58.8-168.4-88-29.4-15.7-58.5-31.3-86.8-46.8-29.6-16-59.4-32.3-89.3-48.9-5.9-3.3-11.9-6.6-17.8-9.9-28.7-16-57.5-32.2-86.3-48.6-2-1.1-3.9-2.3-5.9-3.4l124.7-305.5c18.4 10.3 36.5 20.3 54.5 30.2 5.5 3 11 6.1 16.5 9.1 13.1 7.2 26.2 14.4 39.2 21.4 5.7 3.1 11.5 6.2 17.2 9.3q26.7 14.4 53.1 28.5c64.1 34.5 131.2 69.5 199.9 104.5l43.2 21.9c3 1.5 5.9 3 8.9 4.5l65.2 32.7v-.2c17.5 8.7 34.9 17.3 52.4 25.9 12.2 6 24.4 11.8 36.6 17.8 17 8.3 34 16.6 51 24.8l-67 191.7-44.5 127.1c-25.6-12.5-51.3-25.2-77.1-38zM2320.2 12385.6l-5.8-2.5c-42.1-18.2-85.6-37.4-132.9-58.8-22.7-10.1-45.2-20.3-67.7-30.7l-27.1-12.4c-25.7-11.8-51.8-24-77.8-36.3-14.7-6.9-29.3-13.8-43.9-20.7l111.8-319.7c8.5 4 16.8 7.8 25.2 11.7l35.3 16.4c25.1 11.5 50.1 22.9 75.3 34.2l20.6 9.2c8.1 3.6 16.3 7.2 24.5 10.9l16.8 7.5 1.2.5.6.3h.1c23.9 10.6 48.2 21.2 72.7 31.9 7 3 13.8 6 20.8 9 22.4 9.7 45 19.4 67.8 29 10 4.3 20.4 8.7 30.8 13.1l10.7 4.5c20.9 8.8 41.8 17.5 62.8 26.1l14.8 6.1 56.9 23.5c50.1 20.3 100.7 40.5 151.4 60.2 1.4.5 2.7 1.1 4 1.6l-72.7 249.2-24.2 83c-23.7-9.5-47.7-19.1-71.7-28.8l-3.4-1.4c-16.5-6.7-32.9-13.3-49.2-20.2-30.8-12.5-60.9-25.2-91.1-37.8-24.6-10.3-49-20.6-73.5-31.3-21.6-9.2-42.4-18.1-63.3-27.3zM634.602 11101.6c19.898 13.2 40 26.3 60.097 39.4 6.699 4.3 13.301 8.6 20 13 23.903 15.4 47.801 30.8 71.801 46 61.602 39.2 122.699 77.1 182.301 113.3l48.699 29.4 64.1 38.4v-.3c14.9 8.8 29.7 17.5 44.6 26.2 10.7 6.3 21.3 12.4 32 18.6 15.9 9.2 31.8 18.6 47.7 27.7l-124.4 304.6c-16-9.3-32.2-18.8-48.5-28.5l-14.7-8.7c-13.5-8-27.198-16.1-40.902-24.4-5.597-3.3-11.097-6.7-16.796-10.1-18.403-11-36.903-22.2-55.801-33.8-80.801-49.2-159.5-98.5-234.102-146.6-27.199-17.6-54.301-35.3-81.301-53-5.898-3.9-11.796-7.7-17.597-11.6-26.102-17.2-52.102-34.5-77.699-51.7-1.403-.9-2.704-1.8-4.102-2.8l135.801-291.2 8.699 5.7zM14465.1 11411.5c-10.7 7.1-21.3 14.2-32 21.3q-51.9 34.35-104.1 68.1c-57.6 37.2-115 73.5-171.6 108.5l-58.6 35.9c-1.2.7-2.5 1.5-3.7 2.3l-48.4 29.4c-1.3.8-2.5 1.6-3.8 2.3-5.3 3.2-10.7 6.5-16.1 9.7-13.2 7.9-26.5 15.9-39.9 23.8-5.1 3.1-10.3 6.1-15.4 9.2q-26.25 15.6-53.1 31.2l-1.3-3.2-123-301.4c15.6-9 31.1-18.1 46.7-27.2 11.2-6.5 22.5-13 33.7-19.6 14.6-8.6 29.1-17.2 43.6-25.8l64.1-38.3.9-.6 47.8-28.9v-.2c60.8-37 121.9-74.8 182.4-113.4 23.4-14.9 47.1-30.1 70.9-45.5 6.5-4.2 12.9-8.4 19.4-12.6 21.1-13.7 42.3-27.6 63.5-41.6 2.2-1.5 4.5-2.9 6.7-4.4l135.6 290.9c-14.8 10-29.6 20-44.5 29.9zM9746.3 13249.5l-11 1.9c-48.7 8.2-97.6 16.2-146.5 23.8-10.2 1.6-20.4 3.1-30.5 4.7l-42.1-360.9c4.5-.7 8.9-1.4 13.4-2.1 47.2-7.2 94.7-14.7 142.2-22.6h.3c11.1-1.8 22.2-3.6 33.3-5.5l62.9-10.6c.9-.1 1.7-.3 2.6-.4l1.3-.2 1-.2 60.9-10.5c9.8-1.8 19.5-3.5 29.3-5.3 1.9-.3 3.7-.6 5.6-1 18.1-3.2 36.4-6.6 54.9-10 6.6-1.2 13.2-2.5 19.8-3.7q26.25-4.95 52.8-9.9l20.4-3.9c23.5-4.5 47-9 70.6-13.7l8.5-1.7c28-5.5 56.3-11.2 85-17.1l7.9-1.6c2.4-.5 5.6-1.1 8.8-1.8l6.9-1.4c10.4-2.2 20.6-4.3 30.8-6.4 32.1-6.7 64.5-13.7 97.2-20.7l61.9 354.2-8.1 1.8c-8.8 2-17.7 3.9-26.6 5.8-15.7 3.4-31.5 6.9-47.4 10.3-8.7 1.9-17.5 3.7-26.2 5.6-16.9 3.6-34 7.2-51 10.8-7.7 1.6-15.4 3.2-23.2 4.8-24.7 5.1-49.5 10.2-74.4 15.2-35.8 7.2-71.8 14.2-107.8 21.1l-2.2.5c-2.3.5-4.6.9-7 1.3l-2.1.4c-18.7 3.7-37.2 7.2-56 10.6-48.8 9.2-97.4 17.9-146.2 26.5-23.3 4.1-46.6 8.1-69.8 12zM13046.7 11842.3c30.4-14.6 60.7-29.3 90.7-44.1 6.6-3.2 13.1-6.5 19.7-9.7 8.5-4.2 17-8.4 25.4-12.5l65.2-32.7 1.3-.6 50.8-25.7v-.2c67-34.2 134.1-69.1 199.9-104.5 26.2-14 52.6-28.3 79.1-42.7 7.3-4 14.7-8 22-12 24.2-13.3 48.5-26.7 72.8-40.3 2.1-1.2 4.1-2.3 6.2-3.4l50.5 123.8 74 181.5c-16.4 9.4-32.9 18.8-49.3 28.1-12 6.8-24 13.6-36.1 20.3-37.9 21.2-75.7 42.1-113.3 62.4-83.7 45.7-169.2 90.9-254.2 134.4l-1.3.7c-1.3.6-2.5 1.3-3.8 1.9-27.9 14.3-55.7 28.4-83.5 42.3-7.6 3.8-15.3 7.7-22.9 11.5-27.7 13.8-55.4 27.5-82.8 40.9-1.1.6-2.3 1.1-3.4 1.7l-21.5-61.4-90-257.4c1.5-.7 2.9-1.4 4.3-2.1zM12819.3 12320.3c-90.5 40.9-183.2 81.3-275.4 120.1-70.4 29.8-142.5 59.3-215.3 88.3l-96.8-332.1c17.1-6.7 34.2-13.5 51.3-20.3 2.2-.9 4.4-1.8 6.6-2.6 11.6-4.6 23.1-9.1 34.6-13.7 20-8 40.1-16.1 60-24.3.9-.4 1.9-.8 2.8-1.1v.2l66-27.2h.2l55-22.8 2.3-1.1c60.6-25.4 122.7-52.2 185.5-80 5.6-2.5 11.2-4.9 16.9-7.4l16.9-7.5c17.5-7.8 34.2-15.3 50.6-22.6l.8-.4c47.8-21.5 95.5-43.3 142.5-65.2l111.8 319.7-14.1 6.6c-65.1 30.9-133 62.3-202.2 93.4M5185.6 13239.3c-70.2-12.2-141.4-25.3-215.1-39.4-34.8-6.7-70.1-13.5-106.3-20.7-25.2-5-50.1-10.2-75-15.3-7.4-1.5-14.7-3-22-4.6q-25.95-5.4-51.6-10.8c-9-1.9-18.1-3.8-27.1-5.8-15.4-3.3-30.6-6.6-45.8-9.9-9.3-2-18.7-4.1-27.9-6.1-2.6-.6-5.1-1.1-7.7-1.7l61.9-354.2c3.3.7 6.5 1.4 9.8 2.1 27 5.8 54 11.6 80.9 17.2 8.5 1.8 17 3.6 25.5 5.3l44.1 9c1.9.4 3.9.8 5.8 1.2 1.7.3 3.5.7 5.2 1 7.3 1.5 14.6 3 22 4.4 16.7 3.4 34 6.8 51.3 10.2l.7.1 6.4 1.2c15 2.9 29.5 5.7 44.2 8.5 10.8 2.1 21.5 4.2 32.4 6.2 5.1 1 10 1.9 15 2.8 15.1 2.8 30.1 5.7 45.2 8.5 4.6.9 9.3 1.7 13.9 2.5 9.5 1.7 18.9 3.4 28.3 5.1 18.2 3.3 36.4 6.6 54.8 9.8 4.4.8 8.8 1.5 13.2 2.3l56.2 9.7c2 .3 4.1.7 6.1 1.1l51 8.7c3.1.5 6.2 1 9.4 1.5l6 1c61.1 10.1 123 20 185.2 29.4l3.9.6-42.1 361c-86.1-13.2-172.7-27.4-258.1-42.2zM5615 12939.3l1 .1q42.6 6 85.8 11.7c5.4.7 10.9 1.5 16.3 2.2 6.9.9 13.8 1.7 20.7 2.6 43.5 5.7 87.3 11.2 131.3 16.5 55 6.7 110.6 13.1 166.6 19.2 5.4.6 10.9 1.2 16.3 1.8l21 2.1c18.6 2 37.2 3.9 55.8 5.8l63.7 6.3 1.7.1 64.5 6.2c2.9.1 5.7.4 8.6.7l6.2.6c23.7 2.2 47.4 4.2 71.1 6.2 5.6.5 11.2 1 16.9 1.4 19.6 1.7 39.5 3.3 59.4 4.9 11 .8 22 1.7 32.9 2.5l-21.4 365.6c-13.3-1-26.6-2-39.8-3.1l-18.3-1.5c-26.6-2.1-53.2-4.4-79.8-6.8-42.8-3.8-85.4-7.8-127.9-11.9-114-11.2-224.9-23.5-329.5-36.5-88.7-10.8-177.6-22.7-265.2-35.3zM9164 13334.7c-31.7 4-63.4 7.8-95.2 11.4-27.7 3.3-55.1 6.4-82.6 9.4l-6.7.7c-1.5.1-2.9.3-4.3.5l-2.1.2c-42.7 4.7-85.5 9.2-128.5 13.5l-10.2 1c-22.9 2.3-45.6 4.4-68.5 6.5-6.9.6-13.7 1.2-20.6 1.9l-16.5 1.5c-35.6 3.2-71 6.3-106.4 9.2l-2.2.2c-3.1.4-6.3.6-9.4.8-14.1 1.2-27.9 2.2-41.9 3.3l-19.3-331.9-2-33.6c3-.2 6.1-.5 9.1-.7 10.1-.8 20.1-1.6 30.2-2.4 16.7-1.3 33.5-2.7 50.5-4.1 7.3-.6 14.6-1.2 21.8-1.8 15.5-1.3 31.2-2.7 46.9-4.1 12.1-1.1 24.2-2.2 36.2-3.3v.2l65.7-6.4h.5l63.7-6.2v-.2c5.8-.6 11.8-1.2 17.6-1.8 20.1-2.1 40.3-4.3 60.6-6.5l38.1-4.2c20.9-2.3 41.9-4.7 62.8-7.1 26.9-3.1 53.8-6.3 80.6-9.5 3-.4 6.1-.8 9.1-1.1 36.4-4.4 72.8-9 109.1-13.8 12.9-1.7 25.7-3.3 38.6-5 2.4-.3 4.8-.7 7.2-1 30.4-4.1 60.6-8.3 90.8-12.6l42.1 361.4c-83.9 12.2-171.4 23.9-260.8 35l-4.2.5zM14097.4 10413.9l-138-326.5-17.7 12.7c-1773.3 1270-4061.1 1969.4-6441.8 1969.4s-4667-698.9-6439.8-1968.1l-28.5-20.5-146.6 323.6 19.602 13.6C2703.8 11660.6 5005.8 12356.6 7386.4 12377.9c70.3.6 143.2.6 216.7 0l23.9-.3c26.1-.2 54.8-.6 87.4-1.2l16.8-.3c29.1-.5 60.5-1.3 96.3-2.2 40.2-1 83.6-2.3 136.3-4.3l35.5-1.4c48.4-1.9 87.4-3.7 122.3-5.4l74.9-3.8c1221.9-67.5 2405.2-308.6 3517.1-716.9l6.6-2.4c90.1-33.1 181.3-68 271-103.7 89-35.4 178-72.2 264.4-109.4l2.4-1c84.2-35.9 170.8-74.3 257.4-114.1 84.5-38.6 169.7-79.1 253.1-120.2 79.9-39 159-78.9 241.5-122.1l4.2-2.2c81.1-42.4 161.8-85.9 240-129.3 80.4-44.8 158.8-89.8 233.1-133.9 55.6-32.8 110.8-66.1 163.9-98.8l62.1-38.6c71.5-44.5 145.2-91.8 218.9-140.6 56.4-37.4 112-75.1 165.3-112.2z" style="fill:#c79128;fill-opacity:1;fill-rule:nonzero;stroke:none" transform="matrix(.13333 0 0 -.13333 0 1922.067)"></path><path d="M13493.7 9419.1c-358.7-2307.5-1262.5-4346.8-2689.5-6065.9C9894.4 2257 8782.9 1305.6 7499.9 525 6217 1305.6 5105.4 2257 4195.6 3353.2c-1427 1719.1-2330.8 3758.4-2689.5 6065.7l5965.7-2857 28.1-13.5z" style="fill:#fff;fill-opacity:1;fill-rule:nonzero;stroke:none" transform="matrix(.13333 0 0 -.13333 0 1922.067)"></path><path d="M6245.3 2615c0-210.2 52.2-408.4 144-582.6 16.6 9.5 36.1 13.9 56.4 10.9 2.7-.4 271.5-40.4 433.3-40.4 544.5 0 729.4 110.6 777.6 149.5-91.9 137.8-181.1 268.5-246.9 364.6-50.5-13.1-126.4-26.5-226.4-26.5-416.8 0-825.1 166-934.6 214.1-2.1-29.6-3.6-59.4-3.6-89.5zM7031.3 2674.4c50.4-4.9 101.3-7.9 152.2-7.9 101.8 0 169 16.6 201.7 26.8 115 187.6 617.4 780.3 911.2 890.5-162.6 133.9-359.4 227.4-575.1 266-2.7-18.7-11.1-36.6-25.7-50.7-183.1-176.4-663.3-700.2-686.2-1001.9l-.5-4.8c-1-15.9 8.7-65.9 22.4-118M6296.1 2876.3c3.3-1.5 245.9-114.4 547.8-173.9-6.3 31.9-10.9 63.7-10.9 89.9 0 7.6.6 14.5 1.4 21.1 29.8 362.5 513.3 883.9 682.3 1055.9-5.6 0-11.1.4-16.6.4-599.9 0-1102.5-423.3-1225.6-986.8 7.3-1.3 14.6-3.3 21.7-6.6zM7500 1360.3c200.5 0 390.1 47.6 558.4 131.6-1.3 2.4-2.8 4.6-3.9 7.1-44.1 103.1-166.7 301.2-300.2 505.6-99.5-73.9-335.4-177.8-875.2-177.8-118.7 0-282.2 18.7-378.9 31.2 229.3-302.1 592.1-497.8 999.9-497.8zM8596.9 2157c-46.9 128.3-479.4 720.4-664.8 920.6-167.5-171.7-326.1-360.5-384.1-450.9l1.1-1.7c197.1-288.3 560.1-819.5 661-1043.6 189.7 130.7 341.5 312.2 436.3 524.6-22.2 9-40.7 26.8-49.5 51M8754.7 2615c0 320.6-121 613.4-319.6 835.4-14.1-13.5-32.5-22.8-53.4-24.5-67.5-5.5-191.4-100.7-324.5-225.4 180.3-194.4 528.6-665.9 659.4-892.5 24.8 98.3 38.1 201.1 38.1 307" style="fill:#c79128;fill-opacity:1;fill-rule:evenodd;stroke:none" transform="matrix(.13333 0 0 -.13333 0 1922.067)"></path><path d="M5809.7 4888.9c0-183.6-148.9-332.5-332.5-332.5h-776.9l-106.5 161.8c-121.7 185.1-238.2 376.8-346.3 569.9-125.8 224.4-244.1 457.9-351.9 694.3-43.9 96.1-86.7 194.3-127.4 292.3-29.3 70.2-57.3 140.1-83.9 208.5-23.4 59.8-46.5 121.1-68.7 182.2l-.7 1.9c-7.4 19.9-14.7 40-21.9 60.1l-.4 1.2c-104.7 292.1-197.1 594.4-275.4 902.2l2372.6-1136.3c65.3-31.3 112.1-74.8 116.3-108.2l3.6-28.3V4888.8Zm776.2 1675.7L3187 8192.3l-41.3 19.8-284.2 136.1-761.8 364.9c31.3-162.6 65.7-323.7 102.9-483.2 99-424.1 218.8-837.5 359.3-1239.8 50-143.2 102.6-285.1 157.9-425.5 1.6-4.1 3.2-8.1 4.8-12.1 17.9-45.3 36-90.3 54.4-135.3 77-188.3 158.9-374 245.5-557 115-243.4 238.5-482 370.4-715.9 112.3-199.5 230.7-395.4 355.2-587.8 111.9-173 228.7-343.1 350.2-510.3H6430c275.4 0 498.7 223.2 498.7 498.7v1475.3c0 232.4-133.4 444.1-342.9 544.5zM12623.4 8600.7c118.3 56.7 248.5-51.9 213.9-178.5l-1.6-6.3c-2.7-9.3-5.7-20.5-9.3-33.8l-3.3-12c-1.6-6.3-3.5-13.1-5.5-20.2l-15.6-57c-2.7-9.3-5.2-18.8-7.9-28.9-4.4-15.3-8.7-31.1-13.1-48-76.1-278.1-207.9-760-314.6-1143.1-16.9-60.3-32.7-117.3-47.2-168.9-17.2-62.2-69-108.9-132.6-119.5l-431.7-72-461.7-77.2-20.7-3.5 34.7 97.1c97.7 272.3 184.7 553.7 259.2 839.7l-2468-1181.9v-1830h1101.1l106.7 161.8c111.9 170.6 219.7 346.8 320.4 524.5l-588.4-98.5h-68c116 209.9 221.3 425.7 315.7 647.3l410.7 68.5 622.2 104.2 500.5 83.5c65.8 11.2 117.3-56.2 89.2-116.8-10.9-23.5-22.1-47.2-33.3-70.9-71.2-150.4-145.5-299.1-223-445.9-48-90.6-97.1-180.7-147.4-269.9-112.4-199.5-230.9-395.4-355.3-587.8-96.3-149-196.2-295.8-299.6-440.5-31.4-43.7-81.9-69.9-135.6-69.9H8577.7c-275.4 0-498.6 223.2-498.6 498.6v1680.7c0 121.4 69.6 232.2 179.3 284.6l939.8 450 2954.1 1414.9 127.2 60.9 336.5 161.3 7.4 3.6z" style="fill:#53399c;fill-opacity:1;fill-rule:nonzero;stroke:none" transform="matrix(.13333 0 0 -.13333 0 1922.067)"></path><path d="m13321.7 9884.6-1806-864.9-107.1-51.3-83.2-39.8-295.5-141.5-1217.8-583.3-216.4-103.7-2.3-1.1-2093.3-1002.6-2.6 1.3L5290 8155l-99.7 47.8-2.1 1h-.2l-65.8 31.6-690.7 330.7-67.4 32.3-1568.3 750.9-130 62.3-242.8 116.3-744.9 356.7c1639.3 1064.9 3693.9 1648 5822 1648s4182.1-583.2 5821.6-1648" style="fill:#fff;fill-opacity:1;fill-rule:nonzero;stroke:none" transform="matrix(.13333 0 0 -.13333 0 1922.067)"></path><path d="M5017.2 10749.9c0 66.9 54.6 121.5 121.5 121.5 7.3 0 14.4-.8 21.5-2.2-56.8-10.1-99.9-59.5-99.9-119.3s43.2-109.4 99.9-119.5c-7.1-1.4-14.2-1.9-21.5-1.9-66.9 0-121.5 54.2-121.5 121.4m787.5-186.7c-10.1 7.6-37.4 28.4-68.5 57.1-15.6 14.5-32.2 31.1-48.3 47.2-29.2 29.8-55.4 55.7-78.9 73.7-41.7 32.5-91.1 50.2-133.7 60 19.7 4.7 42.6 7.9 67.6 7.9 53.2 0 89-14.2 123.9-27.8l2.7-1.1c29.2-11.5 56-21.8 86.8-21.8 18.5 0 32.7 1.6 43.1 4.9l71.7 24-67.9 33.3c-15 7.4-46.1 23.5-82.9 48.1l-7.1 4.9c-6 4.1-12 7.9-17.7 12-66.9 45.8-149.3 102.6-268.3 102.6-85.9 0-148.2-17.1-208.2-33.8-54.5-15.4-106.1-29.8-172.2-29.8-101.8 0-202.8 6.8-253.8 10.6h-2.4v17.5c8.7 2.7 14.5 9 14.5 19.7 0 15.8-26.5 64.9-30.3 64.9-4.3 0-30-49.1-30-64.9 0-10.7 5.4-16.9 14.4-19.7v-462h31.4v66c26.2-8.7 71.7-17.1 148.5-17.1 64.6 0 131.5 15.6 196.2 30.8l2.4.5c76.9 18 156.4 36.6 245.4 36.6 134.8 0 219.6-42 270.4-66.9 15.3-7.9 27.8-14.2 39.8-18.3 28.9-10.4 73.6-13.9 91.4-14.7l103.4-5.5-83.5 61.1z" style="fill:#c79128;fill-opacity:1;fill-rule:nonzero;stroke:none" transform="matrix(.13333 0 0 -.13333 0 1922.067)"></path><path d="M5160.2 10630.4c-7.1-1.4-14.2-1.9-21.5-1.9-66.9 0-121.5 54.2-121.5 121.4s54.6 121.5 121.5 121.5c7.3 0 14.4-.8 21.5-2.2-56.8-10.1-99.9-59.5-99.9-119.3s43.2-109.4 99.9-119.5m505.9 15.3c-26.2 26.5-53.5 53.8-75.9 71-80.8 62.5-193.2 65.5-214.3 65.5h-3.5l-12.3-.2 9.9 7.3s67.4 50.7 173 50.7c60.6 0 101.6-16.6 137.8-30.8 27-10.6 50.2-19.9 75.7-19.9 17.1 0 27.5 1.7 33.3 3.5-14.5 7.1-47.3 24-86.5 50.2-8.4 5.8-17.2 11.5-25.6 17.4-66.4 45.6-141 96.9-250.3 96.9-81.8 0-141.8-16.6-200-32.7-56.5-15.9-110-30.8-180.4-30.8-110.5 0-217.2 7.6-256.3 10.6v-314.6c19.1-7.9 62.7-19.4 148.5-19.4 60.3 0 122.7 14.5 189.1 30 79.4 18.5 161.2 37.9 254.9 37.9 142.1 0 231.1-43.9 284.3-70.1 13.9-7.1 25.9-13.1 36-16.7 23.5-8.4 62.4-11.9 82.9-13-14.4 10.6-41.4 31.6-71.2 59.2-15.9 14.7-32.8 31.6-49.1 48" style="fill:#dd1c2e;fill-opacity:1;fill-rule:nonzero;stroke:none" transform="matrix(.13333 0 0 -.13333 0 1922.067)" data-source="https://football-logos.cc"></path><path d="M5163.5 9674.7c-95 26.4-227.7 52.8-387.3 52.8s-292.1-26.4-387.1-52.8l.4 96.6c11.4 3.8 23.6 7.6 36.5 11.3 9.3 2.8 19 5.5 29.1 8.2v20.2l.3 82.9c26.3 6 55.1 11.9 86.3 17v-100.1c9.4 1.8 19 3.5 28.9 5.2 35.7 6 74.1 10.9 114.9 13.9 9.5.7 19.3 1.3 29.1 1.8v97.2c16.2.7 32.8 1.2 49.8 1.3h24.3c16.9-.1 33.5-.6 49.7-1.3v-97.2c9.8-.5 19.4-1.1 28.9-1.7 40.9-3 79.3-7.9 115-13.9 10-1.6 19.7-3.4 29.2-5.3v24.8l-.4 75.3c31.1-5.1 59.9-11 86.2-17l.4-82.9v-20.1c10.1-2.7 19.7-5.4 29-8.1 12.7-3.7 24.7-7.5 36-11.2l.9-.7.2-96.2zM4986.9 9978c-8.2 1.3-16.8 2.4-26 3.6-32.1 4.2-64.8 7.3-97.2 9.2-29 1.8-58.3 2.7-87.1 2.7s-58.6-.9-87.9-2.7c-32.4-1.9-65.1-5-97.2-9.2-9.3-1.2-17.8-2.4-25.9-3.5l.3 177.5v7.9c3.1 2.7 12.8 8.7 33.3 15.1q5.7 1.8 12 3.6l3.6 1c3.2.8 6.7 1.6 10.2 2.6 11.4 2.6 24.2 4.9 38.1 6.9 7.5 1.1 15.2 2 23.5 2.9h1.2c12.8 1.4 25.4 2.5 38.7 3.1h1.9c7.1.5 14.5.8 21.8 1 7.5.2 16.5.4 25.9.4s18.8-.2 26.5-.4c6.7-.2 13.3-.5 19.6-.9h2.6c8.2-.5 16.7-1.1 25-1.9h.4c3.5-.2 7.1-.6 10.4-1h.6q4.95-.6 9.6-1.2h.5c4.4-.4 8.7-1 12.8-1.6 4.3-.6 8.9-1.2 13.3-1.9 55.5-9.1 82.9-22.7 88.5-28.5l.6-184.7zM4364.1 9349.4v-750.9l-1568.2 750.9ZM11325.4 8928.6l-295.5-141.5-1217.8-583.3H6425.9v724.8zM5040 10318c-.2 1-.2 2-.2 2.8v84.9c-7.1 6.1-20 14.5-43.4 22.8h-31l-31-9.1v-67q-16.2 3.15-33.6 5.7c-19.8 3-40.8 5.5-62.7 7.1v63.3h-123.3v-50.6c0-1 0-1.8-.2-2.8v-9.9c-22.2-1.7-43.4-4.1-63.3-7.2l-1.1-.2c-11-1.7-21.6-3.5-31.9-5.6v67.1l-30.9 9.1h-31.2c-23.2-8.5-36.3-16.7-43.4-22.8v-84.9l-.4-100.5c28.5 9.6 64.1 19.8 105.9 27.9 46.6 9.1 100.9 15.5 161.2 15.2 57.8-.2 109.9-6.4 155-15.2 41.7-8.1 77.4-18.4 106.1-28l-.4 97.7zM5122.2 9613.1V8235.4l-690.7 330.7v1047.7c10.4 6.6 24.9 12.2 42.3 17.7 2.7.6 5.5 1.4 8.2 2.2 25.4 7.1 56.2 13.1 90.5 17.5 2.7.5 5.5.8 8.5 1.4 37.1 4.9 78.6 7.9 120.9 9.8 2.7 0 5.5.3 8.1.3 21.9.6 44.2 1.4 66.1 1.4s43.9-.8 65.8-1.4c3 0 5.8-.3 8.5-.3 42.3-1.9 83.7-4.9 120.9-9.8 2.6-.6 5.7-.9 8.4-1.4 34.4-4.4 65.2-10.4 90.6-17.5 2.9-.8 5.7-1.6 8.4-2.2 18-5.7 32.8-11.7 43.4-18.5zM4364.1 9527.9v-116.2H2665.9L2423 9527.9zM4239.8 9612.6h124.4V9528h-124.4zM3937.4 9612.6h124.4V9528h-124.4zM3635.1 9612.6h124.4V9528h-124.4zM3332.7 9612.6h124.4V9528h-124.4zM3030.4 9612.6h124.4V9528h-124.4zM2728.1 9612.6h124.4V9528h-124.4zM11515.7 9019.7l-107.1-51.2H6425.9v51.2h-.1v53.1h53v-53.1h109.7v53.1h52.9v-53.1h109.7v53.1h52.9v-53.1h109.7v53.1h53v-53.1h109.6v53.1h53v-53.1H7239v53.1h53v-53.1h109.6v53.1h52.9v-53.1h109.8v53.1h52.9v-53.1h109.6v53.1h53.1v-53.1h109.6v53.1h53v-53.1h109.7v53.1h52.9v-53.1h109.7v53.1h52.9v-53.1h109.8v53.1h52.9v-53.1H8540v53.1h53v-53.1h109.7v53.1h53v-53.1h109.6v53.1h53v-53.1H9028v53.1h52.9v-53.1h109.7v53.1h52.9v-53.1h109.7v53.1h53v-53.1h109.6v53.1h53.1v-53.1h109.6v53.1h52.9v-53.1h109.8v53.1h52.9v-53.1h109.7v53.1h52.9v-53.1h109.7v53.1h53v-53.1h109.6v53.1h53v-53.1h109.7v53.1h52.9v-53.1h109.7v53.1h52.9v-53.1h109.8v53.1h52.9v-53.1h109.6v53.1h53v-53.1h109.7v53.1h53v-53.1h109.7v53.1h52.9v-53.1z" style="fill:#c79128;fill-opacity:1;fill-rule:nonzero;stroke:none" transform="matrix(.13333 0 0 -.13333 0 1922.067)"></path><path d="M9398.5 10651.1c-68.1 210.4 45 423.9 150.5 473.3-272.4-66.2-426.1-301.5-342-523.8 84-222.3 374.7-349.6 647.1-283.4-157.5 27.8-391.5 136.2-455.6 333.9M3146.7 10481.5l4.8-62.7c.8-10.9 10.2-19.6 22-20.4l67.4-4.5-67.4-4.5c-11.8-.8-21.1-9.5-22-20.4l-4.8-62.7-4.8 62.7c-.8 10.9-10.2 19.6-22 20.4l-67.4 4.5 67.4 4.5c11.8.8 21.1 9.5 22 20.4zM3675.7 10277.1l4.8-62.7c.8-10.9 10.2-19.6 22-20.4l67.4-4.5-67.4-4.5c-11.8-.8-21.1-9.5-22-20.4l-4.8-62.7-4.8 62.7c-.8 10.9-10.2 19.6-22 20.4l-67.4 4.5 67.4 4.5c11.8.8 21.1 9.5 22 20.4zM8264.6 10781.4l4.8-62.7c.8-10.9 10.2-19.6 22-20.4l67.4-4.5-67.4-4.5c-11.8-.8-21.1-9.5-22-20.4l-4.8-62.7-4.8 62.7c-.8 10.9-10.2 19.6-22 20.4l-67.4 4.5 67.4 4.5c11.8.8 21.1 9.5 22 20.4zM8358.8 9929.9l4.8-62.7c.8-10.9 10.2-19.6 22-20.4l67.4-4.5-67.4-4.5c-11.8-.8-21.1-9.5-22-20.4l-4.8-62.7-4.8 62.7c-.8 10.9-10.2 19.6-22 20.4l-67.4 4.5 67.4 4.5c11.8.8 21.1 9.5 22 20.4zM6655.5 11364.7l4.8-62.7c.8-10.9 10.2-19.6 22-20.4l67.4-4.5-67.4-4.5c-11.8-.8-21.1-9.5-22-20.4l-4.8-62.7-4.8 62.7c-.8 10.9-10.2 19.6-22 20.4l-67.4 4.5 67.4 4.5c11.8.8 21.1 9.5 22 20.4zM8730.2 11300l4.8-62.7c.8-10.9 10.2-19.6 22-20.4l67.4-4.5-67.4-4.5c-11.8-.8-21.1-9.5-22-20.4l-4.8-62.7-4.8 62.7c-.8 10.9-10.2 19.6-22 20.4l-67.4 4.5 67.4 4.5c11.8.8 21.1 9.5 22 20.4zM10460.4 10017.5l4.8-62.7c.8-10.9 10.2-19.6 22-20.4l67.4-4.5-67.4-4.5c-11.8-.8-21.1-9.5-22-20.4l-4.8-62.7-4.8 62.7c-.8 10.9-10.2 19.6-22 20.4l-67.4 4.5 67.4 4.5c11.8.8 21.1 9.5 22 20.4zM9528.4 9581.1l4.8-62.7c.8-10.9 10.2-19.6 22-20.4l67.4-4.5-67.4-4.5c-11.8-.8-21.1-9.5-22-20.4l-4.8-62.7-4.8 62.7c-.8 10.9-10.2 19.6-22 20.4l-67.4 4.5 67.4 4.5c11.8.8 21.1 9.5 22 20.4zM11460.6 10573.9l4.8-62.7c.8-10.9 10.2-19.6 22-20.4l67.4-4.5-67.4-4.5c-11.8-.8-21.1-9.5-22-20.4l-4.8-62.7-4.8 62.7c-.8 10.9-10.2 19.6-22 20.4l-67.4 4.5 67.4 4.5c11.8.8 21.1 9.5 22 20.4zM11928.6 9783.2l4.8-62.7c.8-10.9 10.2-19.6 22-20.4l67.4-4.5-67.4-4.5c-11.8-.8-21.1-9.5-22-20.4l-4.8-62.7-4.8 62.7c-.8 10.9-10.2 19.6-22 20.4l-67.4 4.5 67.4 4.5c11.8.8 21.1 9.5 22 20.4zM2473.9 10170.7l9.1-117.5c1.6-20.5 19.1-36.8 41.2-38.3l126.5-8.4-126.5-8.4c-22.1-1.5-39.6-17.8-41.2-38.3l-9.1-117.5-9.1 117.5c-1.6 20.5-19.1 36.8-41.2 38.3l-126.5 8.4 126.5 8.4c22.1 1.5 39.6 17.8 41.2 38.3zM4012.1 10814.7l9.1-117.5c1.6-20.5 19.1-36.8 41.2-38.3l126.5-8.4-126.5-8.4c-22.1-1.5-39.6-17.8-41.2-38.3l-9.1-117.5-9.1 117.5c-1.6 20.5-19.1 36.8-41.2 38.3l-126.5 8.4 126.5 8.4c22.1 1.5 39.6 17.8 41.2 38.3zM10414.4 10978.8l9.1-117.5c1.6-20.5 19.1-36.8 41.2-38.3l126.5-8.4-126.5-8.4c-22.1-1.5-39.6-17.8-41.2-38.3l-9.1-117.5-9.1 117.5c-1.6 20.5-19.1 36.8-41.2 38.3l-126.5 8.4 126.5 8.4c22.1 1.5 39.6 17.8 41.2 38.3zM8970.3 10170.7l9.1-117.5c1.6-20.5 19.1-36.8 41.2-38.3l126.5-8.4-126.5-8.4c-22.1-1.5-39.6-17.8-41.2-38.3l-9.1-117.5-9.1 117.5c-1.6 20.5-19.1 36.8-41.2 38.3l-126.5 8.4 126.5 8.4c22.1 1.5 39.6 17.8 41.2 38.3zM11230.2 9815.2l9.1-117.5c1.6-20.5 19.1-36.8 41.2-38.3l126.5-8.4-126.5-8.4c-22.1-1.5-39.6-17.8-41.2-38.3l-9.1-117.5-9.1 117.5c-1.6 20.5-19.1 36.8-41.2 38.3l-126.5 8.4 126.5 8.4c22.1 1.5 39.6 17.8 41.2 38.3zM12631.5 10170.7l9.1-117.5c1.6-20.5 19.1-36.8 41.2-38.3l126.5-8.4-126.5-8.4c-22.1-1.5-39.6-17.8-41.2-38.3l-9.1-117.5-9.1 117.5c-1.6 20.5-19.1 36.8-41.2 38.3l-126.5 8.4 126.5 8.4c22.1 1.5 39.6 17.8 41.2 38.3zM6163.9 10319.5l4.8-62.7c.8-10.9 10.2-19.6 22-20.4l67.4-4.5-67.4-4.5c-11.8-.8-21.1-9.5-22-20.4l-4.8-62.7-4.8 62.7c-.8 10.9-10.2 19.6-22 20.4l-67.4 4.5 67.4 4.5c11.8.8 21.1 9.5 22 20.4zM5600.5 10217.1l9.1-117.5c1.6-20.5 19.1-36.8 41.2-38.3l126.5-8.4-126.5-8.4c-22.1-1.5-39.6-17.8-41.2-38.3l-9.1-117.5-9.1 117.5c-1.6 20.5-19.1 36.8-41.2 38.3l-126.5 8.4 126.5 8.4c22.1 1.5 39.6 17.8 41.2 38.3z" style="fill:#53399c;fill-opacity:1;fill-rule:nonzero;stroke:none" transform="matrix(.13333 0 0 -.13333 0 1922.067)"></path><path d="M6325.7 9116.4V9061l-64.4 26.5v57.3l-47.7 20.8v-58.3l-71.6 29.2v60.3l-52.7 22.9v-61.4l-80 32.8v63.5l-58.9 25.6V9215l-89.3 36.8v67.4l-66.3 28.9v-69.3l-101 41.5v71.7l-75 32.8v-73.7l-114.6 47.2v76.4l-85.7 37.4v-78.6l-131.6 53.7v82.1l-99.1 43.2v-200.9l1180.8-443.2v129.4l-43.2 18.5zm-1137.7 233V8203.8h466.1v643.6c0 77.6 61.2 118.2 131.9 92.5 66.2-24 116.7-98.1 116.7-166.7v-569.4h466.1v724.8z" style="fill:#c79128;fill-opacity:1;fill-rule:nonzero;stroke:none" transform="matrix(.13333 0 0 -.13333 0 1922.067)"></path><path d="m5221.72 8187.73-31.52 15.07-2 1 2.1-1z" style="fill:#68447d;fill-opacity:1;fill-rule:nonzero;stroke:none" transform="matrix(.13333 0 0 -.13333 0 1922.067)"></path><path d="m7500.1 7096.5-2.6 1.2L5290 8155.1l-68.28 32.63-31.42 15.07-2.1 1h4623.9l-216.4-103.7-2.3-1z" style="fill:#f3e7c7;fill-opacity:1;fill-rule:nonzero;stroke:none" transform="matrix(.13333 0 0 -.13333 0 1922.067)"></path><path d="M8530.4 8100.4v2.6c-.8 19.4-5.4 40.3-7.3 48.2q-1.35 6.45-3.9 12.3c-44.2 131.4-49.9 154.8-50.6 158.1l-.1.6c-8.2 38.4-15.3 83.2-16.3 102v.7c-.5 7.5.6 31.4 1.4 47.2l.4 9.4v2.6c1.8 40.4 2.2 51.3-.4 63.4-4.1 17.9-11.6 50.4-53.3 65.4l-2.1.7q-1.35.6-3 1.2c-8.9 3.6-17.9 5.9-25.6 7.6-10.2 2.4-18.7 4.6-25.9 9 2.6 4.5 5.2 9.1 7.7 13.8l.6 1c20.3 32.1 50 104.2 62.7 165.1 15.5 75.1 26.3 246.4 14.9 286.1l-.9 3.3-.3.9c-7.6 26.3-16.1 56.1-55.1 81.3-15.6 10.1-34.3 16.3-55.7 18.7-34.4 42.4-61.1 54.6-67.3 59.1-26.6 19.5-81.5 50.6-114.8 62.9-55.4 20.5-132.5 27.8-186.1 27.8-3.7 0-7.3 0-10.8-.1-42.7-1-75.3-2.6-93.2-3.6-16.1 29.2-44.9 49.6-78.2 55-11.7 52.2-33 102.1-51.2 140.4-3.1 24.3-10.3 68.9-14.2 92.2 2.2 6.8 5.8 17.4 11.4 33.9 10.7 10.7 17.2 24.7 18.4 39.8 4.6 44 11.2 139.2 11.7 149.3v3.3c0 16.6-6.1 32.1-17.3 43.9-3.3 3.6-9.4 10.4-19.9 22.9l-.6.7c-10.2 11.7-20.9 23.9-28.3 32.3-2.3 2.6-4.9 5.1-7.6 7.3-1.3 1-2.6 2-3.9 2.9 2.1.3 4.1.6 6.2 1.1l3.6.9c17.2 4.9 30.9 16.7 38.8 31.7 5.3.4 10.6 1.4 15.7 3.1q2.4.75 4.8 1.8c23.7 10.2 39 33.5 39 59.4 0 1.9 0 3.7-.3 5.6-.2 2.3-.7 8.5-.9 14.5.5 1.6 1.3 3.8 2.7 7.4l.5 1.4c4.3 10.3 10.4 25.4 12.3 46.1l1.7.4 2.3.3 1 .1c31.3 4.5 55 31.7 55 63.4s-22.2 57.9-53 63.1l-2.2.4h-.6l-.9.2c-3 .5-7 1.2-8.3 1.7 0 0-.8.6-2.3 2.2l-1 1.1c-4.3 4.4-9 10.1-12.8 14.8-14.8 24.1-58.6 83.9-127.7 83.9-4.2 0-8.5-.2-12.7-.7-12-.6-24-2.9-36.6-6.9-19.4-5.7-36.1-15.6-49.5-29.4l-1.9-1.9-1.6-1.6c-19.5-21-27.3-47.7-31.9-68.8-.4-1.9-.8-3.8-1.2-5.6-2.3-.5-4.7-1-7.1-1.7-3.1-.7-5.8-1.5-7.9-2.2l-1.7-.6c-21-6.7-40.7-18.6-54.2-28-14.3-4.6-26.8-14.3-34.8-27.2-19-29.7-25.4-39.8-26.4-56.3-.8-2.3-1.6-4.5-2.2-6.9-17.5-14.9-37.3-36-36.7-67.8.1-7.1 1.3-14.1 3.6-20.7-.1-1.8-.2-3.6-.2-5.4-20.3-22.9-24-56-8.6-86.6 8-16.2 21-26.7 31.9-33.1-1.7-3.4-3.1-7-4.2-10.5-6.6-6.1-11.8-13.6-15.3-21.7l-1.2-2c-4.7-6.9-10-14.1-15.7-21.5l-1-1.3-2.9-3.9c-9.9-13.5-21-28.7-30.6-45.8q-4.65-7.65-6.9-16.5c-1.1-3.8-1.7-7.6-2-11.5-.1-1.5-.2-4-.1-7.2-9.8 10.6-20.3 19.2-28.4 25.9l-.5.4-1.3 1c-2.1 1.7-4.3 3.5-6.3 5.1-4.2 3.5-8.7 6.5-13.6 8.8-11 6-22.9 9.7-35.5 10.8l-98.3 115-1 1.1-202.6 225.4c55 4.7 95.1 20.1 122 46.7 39.9 39.9 56.7 95.2 71.5 143.9l.5 1.8c7.5 25.1 16.6 55.2 26.6 71.6 13.5 1.4 37.3 1.5 55.6 1.6h10.3c49.1 0 116.3 0 188.3 14.5 64.8 13.1 116.6 63.5 166.7 112.2l.6.6c43.9 42.9 90.7 83.4 135.1 89.3 46.1 6.2 92.5 6.6 105.6 6.6h7.6c31.5 0 57.7 24.3 60.1 55.7s-19.8 59.4-50.9 64.2c-3.4.5-84.3 13-119.7 17.3-20.1 2.4-53.7 4.9-87.9 4.9-25.1 0-47-1.3-65.8-3.8 20.5 41 36.3 60.4 79.5 74.4l108.7 35.6c29.3 9.6 46.6 39.7 40.2 69.8-6 28.1-30.8 47.8-58.9 47.8-2 0-4.1-.1-6.2-.3l-113.5-11.6c-156-16-219.6-80-266.1-126.8-29.8-29.8-40.6-39.5-66.2-40.2-2.4 0-4.8 0-7.3-.1h-4.7c-71.5 0-135.8 15.1-197.9 29.7-46.6 11-94.7 22.3-137.9 22.3-47.2 0-84.5-13.2-114-40.4-76-70-94.7-136.1-107.1-179.8-7.2-25.1-11.6-39-21.4-49.3-2.6-1.5-19.5-9.8-70.4-9.8-33 0-68.3 3.5-95.9 7.5l-9.4 10.3c0 15.7-6.3 31.2-18.3 42.9l-78.2 76c-1.6 1.6-3.3 3.1-5.1 4.4l-105.8 81.9c-10.9 8.4-23.9 12.6-36.9 12.6-14.4 0-28.7-5.1-40.1-15.3-21.7-19.3-26.5-51.4-11.5-76.2l63.9-105.6c1.1-1.9 2.4-3.7 3.8-5.5l70.8-92.3c10.7-13.9 26.4-22 42.8-23.4L6966 9855l94.1-110c-.1-24.2 11.6-47 27-70-80.7 99.1-183 164.1-283.1 177.7-8.1 1.2-15.5 2.1-22.7 2.6l-2.2.1-3.5.2c-5.1.5-10.4.8-15.4.9l-6.2.2h-3.2c-2.2.2-4.4.2-6.6.2-1.8 0-3.6 0-5.4-.2h-3.2c-1.8 0-3.6 0-5.5-.2h-2.4c-2.5 0-5-.2-7.5-.5h-.5c-1.1-.1-2.2-.2-3.4-.3-2.9-.3-5.8-.5-8.4-.8l-2.5-.3-2.2-.3-1.8-.3c-3.1-.3-6.4-.7-10.2-1.4l-1.5-.2-1.8-.3c-1.5-.2-3-.5-4.5-.8l-2.1-.5c-.8-.2-1.6-.4-2.6-.6-1.3-.2-2.6-.5-3.8-.8l-1.8-.5c-3-.6-6.1-1.3-9.5-2.3l-4.6-1.4-2.1-.6-1-.3-1.3-.4c-24.6 18.1-53 32.3-86.1 43-2.4.8-4.9 1.4-7.4 1.9-4.2.9-8.5 1.3-12.8 1.3-8.5 0-16.7-1.7-24.4-4.9-8.3-3.2-15.7-8-21.9-14.2-3.1-3.1-5.8-6.4-8.1-10l-1.7-2.8c-1.6-2.6-2.9-5.3-4.1-8.1-12-.5-23.5-4.3-33.7-11.1-.9-.6-1.7-1.2-2.6-1.8-2.7-2-5.2-4.1-7.6-6.4-7.2-7.2-10.8-14.5-12-16.9-.9-1.9-1.8-3.8-2.5-5.8-9.6-25.6-2.1-54.8 18.7-72.6l.7-.6 3.1-2.6c1.7-1.6 3.3-2.8 4.4-3.8l.7-.6 1.3-1.2 2.1-2.1c1.1-1.1 2.4-2.2 3.6-3.6l1.7-1.7c8.5-8.5 15.6-17 21.2-25.4 1.7-2.6 3.4-5.2 5-7.7l.9-1.5c-2.3-3.2-4.1-6.5-5.5-9.5-3.3-6.3-5.5-13.1-6.7-20.1l-9.1-19.6c-1.5-3.1-2.5-5.9-3.1-7.9-6.4-17.3-8.1-34.2-9.2-44.6-.8-6.8-1.4-12-2.4-15.9l-.8-2.6c-1.3-3.6-2.4-6.9-3.4-9.9l-.6-1.7c-10.3-28.1-18-51.8-23.4-72-2.3-3.5-4.2-7.2-5.8-11.1-2.8-6.3-4.6-12.9-5.3-19.7-.5-4.7-.6-9.3-.2-13.9-3.9-15.7-8.5-34.6-10.6-46.9l-2.6-14.7-1.7-9.9c-1.9-10.5-3.5-19.8-4.8-28.4-3.8-14.9-4.4-31.5-1.7-47.3 1.6-11.9 5.3-23 11-33 7.8-13.5 16.7-22.9 25.6-29.4 14.9-18.4 33-30.1 52.9-34.2 5.4-1.1 10.2-1.6 14.3-2 2.6-.2 7.8-.6 14.3-.6 2.3 0 4.6 0 6.8.2 4.6-1.2 9.4-2.1 14.4-2.5 2.6-.2 5-.3 7.3-.3 8.7 0 17 1.4 25.5 4.2 1.8.6 3.5 1.3 5.2 2 17.9.8 34.2 6.5 47.3 16.5 29.8-32.3 66.2-68.6 105.4-100.9 7.4-37.4 17.6-73.5 27.8-99.4l.5-1.1 3.8-9c4.3-10.7 9.7-24.1 12.8-32 0-1.5.2-3 .3-4.6 0-5.1-1.8-19.2-3-28.6l-.4-2.9c-1.6-11.8-3.2-24.6-3.8-36.6l-.2-3.2v-.9c-1.8-27.8-2.2-45.5 10.2-85.6 2-6.5 3.7-12.1 5.4-17.2-14.2-11.1-23.3-23.5-31.5-34.6-1.2-1.6-2.5-3.4-3.9-5.2-4.4-6-9-12.1-15.3-19.5l-.4-.5c-8.1-9.8-25.7-20.2-39.9-28.6l-.5-.3-1.1-.7c-14.3-8.6-27.8-16.8-38.8-28.6-.8-.9-1.7-1.7-2.4-2.6-21.8-24.9-28.1-41.3-30.6-79.5-.9-13.5 1.1-29.9 14.3-81.5 9.5-38.4 26.6-101.3 43.7-153 11.2-37.1 14.6-47.2 16.5-52.2 7.8-21.5 19.6-38.7 36-52.7l2.2-1.8c10.4-8.1 20-12.6 27-16l6.7-3.2 2.2-1.1c5.4-9.2 12.3-19.1 22.3-28.4l1-.9c14-12.3 31.5-21.2 50.7-25.6 2.6-.6 5.2-1 7.8-1.3 18.3-2.8 67.6-8.8 74.2-9.6 8.7-1.2 14.4-2 18.3-2.4 3.4-.6 6.8-.8 10.4-.8 16.9 0 33.1 6.2 46.3 17.6 8.7 7 15.8 16 20.7 26.5 10.7 20.8 12.8 44.6 5.7 65.6l-.2.6c-9.1 26.3-21.4 52-33.9 70.7-18.9 28.8-50.6 58.2-56 63.1-11.1 10.3-25.8 16.4-41.1 17.1h-.3c-.8.7-1.6 1.4-2.5 2.1l-.7.5-33.6 26.2-19.4 67.5q.9 1.8 1.5 3.6l14.6 37.6 1.2 1.2 90.6 21.4 12.2-36.1c1-2.9 2.2-5.8 3.7-8.5l37.8-72.4 4.5-94.8c.2-4 .8-7.9 1.7-11.7 1.7-6.9 6.3-20.1 17.5-31.4l1.4-1.4 14.7-13.9 20.6-110.8-13.3-99.8c-.4-2.6-.5-5.3-.5-8v-1.8l-4.6-2.4c-2.7-1.4-5.3-3.1-7.8-4.9-7-4.9-12.9-11.2-17.4-18.4-.8-1.3-1.6-2.6-2.3-3.9l-44.8-78.1c-1.2-2-2.2-4.2-3.2-6.3-7.7-18-7.1-38.2 1.5-55.5 1.1-2.3 2.4-4.4 3.8-6.5 12.2-18.4 32.6-29.4 54.4-29.4h138.9c26.1 0 49.6 15.5 59.9 39.6l.6 1.4c20.6 47.6 27.7 70.1 27.9 88.3v4.4c13.7 14 22.1 32.3 23.1 51.1v2.7c.2 1.5.4 3 .5 4.5v.8c2.2 27.3 3.4 53.8-5.6 78l-.4 1.1c-4.5 11.4-18.2 62.8-20 75.2-.4 4.3-.9 9-1.4 13.9-.5 4.5-1 9.3-1.5 14.2l-.2 1.6c-4.4 36.9-6.5 59.3-6.3 66.5 0 3.2 1.4 9.7 2.6 15.4l.5 2.5.2.8c2.9 14.3 6.6 32.1 5.3 51.6-1.2 21-8.5 40.5-14.9 57.7l-.6 1.6-2 5.5c-1.7 4.6-4.2 11.4-4.9 14.1-1.5 9-2.3 39.9-2.2 63.4 3.7 15.1 10.7 45.2 16.4 76.5 25.4-3.8 52.5-6.5 81.1-8.3 9-25.4 30.2-46.2 57.4-55.2l1.4-.4 1.3-.5 1.4-.5c8.6-2.9 20.4-6.9 37.5-6.9 12.9 0 27.3 2.3 46.1 6.1 27.2 3.9 47.3 8.7 66.8 13.3l6.5 1.5 1 .2c15.5 3.9 33 8.4 56.4 12.7.9.2 1.8.3 2.6.6 28.7 6.7 51.2 25 63.5 51.7 3.7 7.8 6.3 16.2 8 25.2 20.7 6.5 42.6 13.6 65.8 21.3 15.7-27.6 28.9-44.4 40.7-59.4l.3-.4c6.6-8.2 12.2-15.6 17.6-23.3 9.5-13.4 23.2-30.1 37.6-47.7l8-9.8.5-.6c8.3-9.9 28.6-34.2 36.7-45.4 2.9-18.8 4.5-68.1 2.3-83.1-3.5-21.4-19-80.2-23.1-92.1-1.3-2.9-4.7-10.4-7.6-16.5l-4.4-9.6c-38.2-82.9-46.5-102.1-46.4-120.8l-4.5-2.8c-11-6.4-18-14.7-22.2-21.7-2.7-4.3-4.7-8.6-6.1-12.7l-17.5-45.1c-1.2-2.5-2.3-5.2-3.2-7.9l-10-26.1c-.3-.9-.7-1.8-1-2.7-7-21.1-3-43.9 10.6-61 12.8-15.9 31.3-24.9 51.1-24.9h125.8c27 0 51.5 17.2 61.1 42.8q1.5 3.9 2.4 8.1c1.2 5.2 9.8 37 11.9 43.3-.3-.9-.6-1.6-.8-2.1 1.9 4.9 8.3 22.2 8.9 42.7l1.1.8c16.8 12 27.7 29.7 30.5 49.9 10.1 72.3 45.2 65.7 61.4 32.8l.3-1c4.4-13.9 11-27.8 20.1-42.2 3.1-7.4 6.6-13.8 10.9-19.7 22.6-32 51.7-56.2 68.2-68.5 3.9-3.3 6.4-5.4 8.4-7l3.9-3.3 1.8-1.4c11.2-8.9 25.3-13.8 39.7-13.8 5.4 0 10.7.7 15.8 2-2.1-5.1-4.3-10.4-6.4-15.7l-3.8-9c-6.5-15.4-10.2-24.4-12.5-30.6l-.7-2.3c-1.6-4.8-2.1-7.7-2.2-11.3-1.6-14.7 1.7-29.5 9.7-41.9 11.7-18.9 32.3-30.4 55-30.4h129c24.9 0 47.3 14 58.6 36.5 1.1 2.1 2 4.3 2.8 6.5l15.1 41.8c1.8 4.3 3.1 8.7 3.9 13.3.6 3 1 6 1.1 9 .5 11.9.5 26.2-3.4 40.9 14.1 19.6 17.3 41.1 18.3 56.1.4 4.8.4 8.9.4 11.8z" style="fill:#fff;fill-opacity:1;fill-rule:nonzero;stroke:none" transform="matrix(.13333 0 0 -.13333 0 1922.067)"></path><path d="M7367.7 10650c-6.9-1.2-14.6-1.7-22.7-1.7h-3.4c-1 0-2 .2-3.2 0-1.5-.2-3 0-4.2.2h-2.5c-8.9.2-18.3 1.5-27.9 3l-66.4 11.1 57.7 34.5c3.2 2 8.1 4.2 14.1 7.2 10.4 4.9 24.7 11.6 40.5 22.2 1.7 1.2 3.7 2.5 5.7 3.9-225.5-107.3-227-15.3-351.6-17.8-36.6-.7-65.3-5.1-89-13.3-22.1 36.9-40.2 76.2-55.8 116.4-10.4-2.7-19.2-7.4-26.6-14.3-1.5-1.5-3.2-3-4.7-4.7 10.6-25.4 22.2-50.6 35.3-75.3 6.3-12.9 13.2-25.1 20.7-37.1-37.9-24.4-59.6-65.5-83.3-127.7-40.2-105.8-156.7-143.3-199.8-154.2l35.8-39.2c34.5 5.9 72.3 26.4 117.4 54.8 47.6 30.3 71.3 83.9 85.9 115.2 14.6 31.1 18.7 77.7 50.8 106.3 4.5 4 9.8 8.1 15.6 12.1 41.1-56.6 93.3-105.2 142.8-155.2 3.2 4.2 6.7 8.1 10.4 11.8 3.9 3.9 8.6 6.9 14.1 9.1-31.8 31.3-63.9 62.2-93.8 95-16.6 17.5-31.4 36.3-44.7 55.9 33.3 15.8 76.1 24.6 121.7 9.2 70.1-23.9 95-40.2 173.2-37 72.3 2.7 109.5.7 148.8 11.3-3.5-.7-6.9-1.5-10.6-2z" style="fill:#dd1c2e;fill-opacity:1;fill-rule:nonzero;stroke:none" transform="matrix(.13333 0 0 -.13333 0 1922.067)"></path><path d="M7351.7 9359.9c-4.7 1.2-9.6 1.7-14.8 1.5l-44.9-2.7c-8.1-.5-15.3-5.9-18-13.6l-2.5-6.4c-2.5.2-5.7 0-9.6-2-2.7-1.5-6.7-5.2-8.6-7.6l-33.6-3.2-1.5 5.2-3.7-.5 3.5 2-.7 1.7c-.2 1.2-.7 2.7-1.2 4.4l-2.5 6.4-3.5-1.2 3.2 2.5-1 2c-.5 1.5-1 3-1.7 4.4l-1.2 3.5c-1 2-1.7 4.2-2.7 6.4l-1 2c-1 2.5-2.2 4.9-3.5 8.1l-.5 1c-1.5 3.2-3 6.4-4.7 9.6l-.5 1.2c6.7 17 12.3 32.3 17 45.6 1.5-2 2.7-3.7 4.2-5.7 2.2-3.2 4.2-6.4 6.7-9.1 3.7-9.4 12.1-15.5 24.9-18 18.3-3.2 43.2 2.7 51.1 12.3l.7 2c1 10.4 11.1 34.3 15 37.7l34.8 5.7-1.7-30.3c-.2-1 .2-2 1-2.7.5-.7 1.5-1.2 2.5-1.2h6.2l-7.2-60.9zm-700.9-56.7c31.1-23.7 75.3-55.5 124.3-84.4.2-4.9.5-10.1 1-15.3 0-1 .5-12.8 2-28.1-49.3 41.2-95 90.3-127.3 127.8m-2.8 48.8c1.5 0 2.7.2 3.9 1 2.7 1.7 4.2 4.4 3.9 7.4 6.7 7.4 12.3 13.8 15.8 17.5 3 2.7 4.2 3.5 4.9 3.7l2.2 1.2c5.4 1.7 12.1 4.9 18.3 8.4 3.2 1.5 6.4 3.2 9.4 5.2l1 .5c1.5.7 3 1.7 4.7 3 3.9 2.5 7.6 5.4 10.9 8.6 1.2 1 2.2 2 4 3.7l.7 1c1 1.2 2 2.5 3 3.7l2 2.7 1 1.2c3.2 4.4 6.4 9.4 9.6 14.8h1.5c1-.7 2.2-1.2 3.5-1h.2c1.7-4.9 3.5-10.9 5.7-17.3l11.4-42.2v-11.8c0-2.5 2-4.4 4.4-4.7l2.5-16c.7-11.3 1-25.2 1-43.9 0-15.1 0-32.3.7-52.1-58.5 35.8-109 74.5-135.2 95.2 3.2 3.2 6.2 6.7 9.1 10.1zm-72.2 1188c64.4 0 106.8 11.1 129.8 33.8 26.2 26.4 35 57.2 43.7 87.1 10.9 37.5 23.9 84.1 78.5 135.9 1.5 1.7 3 3 4.4 4.4 1.7 1.5 3.5 3 5.4 4.2 1.7 1.5 3.7 2.7 5.7 3.7 2 1.2 4.2 2.2 6.2 3.2 2.2 1 4.4 1.7 6.7 2.5l1.5.5 1.5.2c8.6 2.5 18.5 3.7 29.6 3.7 32.6 0 74.3-9.6 118.4-20.2 63.9-14.8 136.2-31.8 217.4-31.8 4.4 0 8.9.2 13.6.2 61.2 1.5 92 32.3 124.8 65.1 31.8 31.8 66.6 67.1 136.9 87.6-29.4-24.9-46.6-56.5-63.7-92.3-23.2-49.1-54-79-80.7-97.5-2-1.5-3.9-2.7-5.7-3.9-15.8-10.6-30.1-17.3-40.5-22.2-5.9-3-10.9-5.2-14.1-7.2l-57.7-34.5 66.4-11.1c9.6-1.5 19-2.7 27.9-3h2.5c1.2-.2 2.7-.5 4.2-.2h1.2c.7-.2 1.7-.2 2.7-.2l1.5.2h1.2c7.6-.5 15.3 0 22.7 1.7 3.7.5 7.2 1.2 10.6 2 3.5 1 6.9 1.7 9.9 2.7 1.2.5 2.5 1 3.7 1.2 17.8 5.9 31.6 14.3 43.9 21.7 2.7 1.7 5.4 3.2 8.1 4.9l2.2 1.2c15 8.9 32.3 19.2 54.8 28.9 8.9 3.7 31.3 9.9 83.6 9.9h9.9c-43.2-21.5-82.4-56.3-119.7-92.8-43.2-41.9-83.9-81.7-124.1-89.8-63.9-12.8-126.1-12.8-171.7-12.8h-10.6c-46.6-.2-76.5-.7-95.5-9.4-5.7-2.2-10.1-5.2-14.1-9.1-3.7-3.7-7.2-7.6-10.1-12.1-21.2-27.4-32.6-65.6-43.7-102.9l-.5-1.7c-12.6-41.2-25.4-83.6-50.1-108.3-15.3-15.3-51.3-23.7-101.2-23.7-37.3 0-82.7 4.7-128.8 13.3l-13.7 15.3-234.8 258.6c30.1-3.9 66.1-7.1 99.9-7.1zm1888.1-2401.1-.5 1c-8.1 24.2-49.1 145.6-54 169.7-7.6 35.8-16.3 86.1-17.5 111.8-.7 12.3.7 40.5 1.7 62.9v1c1.2 28.4 2 44.9 1 49.3-3.7 16-5.2 18.3-14.8 21.7-2 .5-4 1.5-6.7 2.5-4.7 2-10.4 3.5-17 4.9-14.8 3.5-34.8 8.4-53.3 22.7-1.7 1.2-3.5 3-5.2 5.2-10.9 10.9-20.2 22-27.6 33.1.5 1 .7 2 1.2 3l.5 1.2c5.9 9.1 17 27.6 27.6 47.1l1.7 2.7c17 26.9 43.7 93 54.5 145.1 14.6 70.6 13.6 231.9 6.2 257.1l-1 3.5c-6.7 23.2-9.9 35-30.1 48.1-17.5 11.3-43.9 10.4-52.8 9.6-7.9 10.4-41.7 54.5-62.9 69.8-22.9 16.8-73 45.1-100.4 55.3-48.1 17.8-122.4 24.9-174.9 23.9-55.3-1.2-95.2-3.7-105.4-4.4h-.7l-1.2-.2h-.5l-29.1-2.5c.7 1.7 1.2 3.9 1.2 5.9 0 8.1-3.7 12.6-6.2 14.8l-.2.2-.2 1.5c-5.4 22.2-25.2 37.5-47.9 37.5h-6.4c-5.7 0-16-1.7-27.6-3.9-3.2 63.2-32.3 132.7-58.2 186.3-1.5 18-15.5 103.9-17.3 113.5 2.2 8.1 13.6 41.5 19.7 59.5l3.2 9.4c2.5 1 4.7 1.7 6.4 2.5 1.2.7 2.2 1.7 2.2 3.2 4.4 41.9 11.1 138.4 11.6 147.5 0 1-.2 2-1 2.7-5.9 6.4-13.8 15.5-22 25.2-10.1 11.6-20.7 23.7-28.1 32.1-1.2 1-3 1.5-4.4.7l-11.6-4.9-10.6 7.4-.7.7-1.7 1.2c-1.2.7-2.2 1.5-3.5 2.5l-.2.2-15.5 11.1c9.6 16.5 7.4 23.7 1.2 37.3-1.5 3.2-3 6.7-4.7 11.1 17.3 16 17.3 20.5 15.3 38.2-.2 1.7-.5 3.5-.7 5.4 8.1.2 9.4 3 9.6 3.7.7 1.2 4.7 9.4 9.6 19.7 2.2 4.9 3.9 8.9 4.4 9.6.5 1 1.5 3.2-1.5 11.1 1.5 3.5 4.7 12.3 6.4 24.9 2 15.8 1.2 25.7-3.2 41.9 0 .5-.2 1-.7 2-1.2 5.7-2.7 10.1-4.2 13.6-3.5 7.2-10.6 17-14.6 22 2 1.2 5.4 2.5 10.4 2.7 5.9-1.5 14.1-5.2 21-14.3 2.5-3.7 4.4-7.4 5.4-10.4.5-1.7 1.7-5.9 2.7-8.9.5-6.2-.5-12.6-1.7-20-1.7-10.9-3.9-23.4-2.2-39v-1.2c2-16.5 7.2-33.8 16.5-53.3l.5-1 .2-.5 1-1.7c.5-1.5 1.7-2.2 3.2-2.2l1.2.2c1.7.5 2.7 2.5 2.5 4.2-1.2 7.2-2.2 14.1-3 21-.2 6.7-.7 16.3-.5 23.9 0 3.5.5 6.4.7 8.9 1 4.7 3.9 12.1 7.2 20 5.2 12.6 10.4 25.4 10.9 34.8.5 2.7.7 5.9.7 9.4v1.5c.2 6.2 0 13.1-2 19.2 5.4-3.2 11.8-8.4 15.8-16 4.2-7.6 3.2-16.8 2-27.6-.7-7.2-1.7-15.3-1-24.4v-1.7l.2-1.7c1.7-21 13.8-35.5 14.3-36.3 1-1.2 2.7-1.5 4.2-1 1.7.7 2.5 2.2 2.5 4 0 0-1.2 13.3-1.2 24.9 1.2 10.4 4.4 18 7.6 26.4 3.7 8.9 7.4 18 8.4 30.3.5 4.4.5 8.4 0 12.8-1.7 21-12.6 40.5-22.2 49.3-1.5 1.7-3.2 3.2-4.7 4.2-4.9 5.2-8.6 8.1-8.9 8.1-1.2 1-2.7 1.2-4.2.5-10.4 5.4-20.5 7.4-27.4 8.4-1.7.2-3.5.2-4.9.2l-2 .2c-2.7 3.2-9.1 10.4-18.3 13.1-5.4 1.7-10.4 2.2-15.8.7-5.4-.7-10.1-2.5-14.3-4.7 2.2 2.2 4.9 4.2 7.9 5.9.7.5 1.7 1 2.7 1.5l1 .5c5.9 2.7 12.1 3.9 19 4.4 25.7 1 52.6-18.5 72.3-32.6 8.6-6.2 15.3-11.1 20.5-13.3s10.6-4.2 16.3-5.7c7.2-2.2 13.3-3 20.5-2.5 6.7 0 11.4 1.2 13.1 1.7l5.9.7c1.7.2 3.2 2 3.2 3.7 0 2-1.2 3.5-3 3.7l-2.7.5c-14.3 2.5-29.1 4.7-45.6 22.7-6.7 6.9-13.3 15-19 22.2-1.5 2.5-36 64.4-85.9 57.5-8.4-.2-16.3-2-23.9-4.4-10.4-3-18-7.6-24.2-14.1l-2.2-2.2c-9.6-10.4-14.3-27.4-17.3-41-1.5-6.4-2.7-12.8-3.7-19.5-2.2-11.6-4.7-24.4-5.7-30.6-6.4 1-20.2 2.2-37.5-1.2-1.7-.2-3.7-.7-5.9-1.5l-1.2-.2-2-.5-2.2-.7c-21.5-6.7-43.4-23.7-48.4-27.6l-5.2-.2c-1 0-2.2-.7-2.7-1.7-17.5-27.4-17.5-28.1-17.5-29.6l.5-1.7c.5-1 2-2.7 3.2-4.2-7.4-7.2-10.1-12.8-7.6-25.7-2-2.2-6.7-5.9-11.1-9.4-13.8-11.1-23.9-19.5-23.7-27.6 0-2 .7-4.7 3.5-6.7 1.2-1.5 3.2-3.2 5.2-4.4-7.9-11.3-5.2-24.2-3.2-34 .2-1 .5-2 .7-3-3.2-3.5-11.6-12.6-15.8-17-6.2-4.7-6.7-12.6-2-21.7 2.5-5.2 10.1-9.4 14.6-10.9 10.6-6.2 26.9-4.2 38.2-2.7 2 .2 3.9.5 5.4.7l3.5-16.8c-3.2-4.7-1.7-12.1-.5-16.8-14.8-11.3-15.3-16-14.6-32.1v-1c-1-.2-2.2-.5-3.2-.7-4.4-1.2-12.6-3.2-12.3-11.1-3.2-6.9-8.1-16-13.1-22.4l-2.2-.2c-1.5-.7-2.5-2.5-2.2-3.9l.2-1-4.4-5.9-.5-.7c-6.2-9.1-12.8-18.3-19.5-26.9-10.6-14.6-21.7-29.4-30.6-45.4l-.5-1.5c-.5-6.4 3.7-101.7 8.9-132.2l-30.6 13.8v7.2c0 1.5-.7 2.7-2 3.5l-67.1 31.1c4.7 20-18.3 38.7-36.8 54-2.7 2.2-5.4 4.4-7.9 6.4l-1.5.7c-11.6 7.6-23.9 5.4-34.8 2.7L7050 9910.9l-299.2 332.9h.1c27.9-4.2 65.4-8.4 102.1-8.4 47.9 0 94.7 7.2 118.7 30.8 29.4 29.4 43.2 75.7 56.7 120.4 12.6 41.9 24.7 81.7 47.6 104.6 11.3 11.3 51.1 11.1 97.2 11.3h5.4c50.1 0 111.5.2 176.4 13.3 47.6 9.6 91 52.1 137.2 97 53.3 52.1 107.8 97.7 169.3 105.8 48.1 6.4 95.5 7.2 113.5 7.2h7.6s-82.9 12.8-117.7 17c-16.8 2-48.1 4.4-80.7 4.4-35.3 0-71.8-2.7-93.3-11.8-25.2-10.9-43.7-22-60-31.6-2.2-1.2-4.7-2.7-6.9-4.2-8.6-5.2-17-10.6-26.9-15v-.2c-14.6-6.7-31.8-11.6-55.3-11.6-10.1 0-21.5 1-34.5 3.2 9.9 5.9 36.5 15.3 66.9 38 9.4 6.9 19 15.1 28.9 24.9 19.2 19.2 38.7 44.7 54.8 78.5 27.4 57 51.6 95.5 121.4 118.2l108.6 35.5-113.5-11.6c-134.5-13.8-187-66.6-229.5-109.3-31.6-31.6-56.7-56.7-108.1-58-4.2 0-8.6-.2-12.8-.2-78.5 0-148.8 16.5-211.7 31.3-47.1 11.1-88.8 20.7-124.1 20.7-28.9 0-53.5-6.4-73-24.4-63.2-58.2-78.2-110.3-90.1-152-8.4-29.1-15.8-54.5-37.5-76.2-20.2-20.2-64.9-26.6-112.3-26.6s-94.7 5.9-126.3 11.6l-46.4 51.1-2.5 3 9.6 12.1-78.2 76-105.8 81.9 63.9-105.6 70.8-92.3 14.6 8.6 636.5-716.2 116.7-136.4-.5-.7c-.7-1-.7-2.5-.2-3.7-.5-1-1.2-2.2-2-3.5h-2c-1.2-.2-2.2-1.2-2.7-2.7-2.7-12.3 13.1-35 34-63.7 6.7-8.9 12.3-16.8 14.3-20.7l2-1.7c5.2-2.2 11.6-4.7 17.8-7.2l8.6-3.5 43.7-70.6c.5-1 1.5-1.5 2.5-1.7s2 0 2.7.5c3 1.7 7.9 5.2 11.8 7.4l50.8-56-22.4-15.3c-4.7-1.5-12.6-2-21-2.5-22.9-1.7-51.6-3.9-53.8-23.2l-.5-.7c-2.5-1.5-4.4-3.7-5.2-6.7-5.9-18.8-14.3-42.9-24.7-69.8-23.7 44.7-56.3 98-97.2 163.3-.5 1-1 1.7-1.5 2.5l-.7.7v2c0 2.5-1.7 4.4-4.2 4.7-75.7 116.5-181.1 193.9-282.3 207.5-6.7 1-12.8 1.7-19 2.2l-5.7.2c-3.9.5-8.1.7-11.8.7l-7.2.2c-2.7 0-5.2.2-7.6.2-2.2-.2-3.9-.2-5.9-.2h-2.7c-2.7-.2-5.4-.2-7.9-.2-2-.2-3.9-.5-5.9-.5-2.7-.2-5.4-.5-7.9-.7-1.7-.2-3.7-.5-5.4-.7-2.5-.2-4.7-.5-7.2-1-1.7-.2-3.2-.5-4.9-.7-2.2-.5-4.2-1-6.9-1.5l-4-1c-1.7-.2-3.7-.7-5.4-1.2l-4.2-1.2c-1.5-.5-3.2-1-4.7-1.5l-3.7-1.2c-1.2-.5-2.7-1-3.9-1.5l-9.4-3.7c-1-.5-1.7-1-2.7-1.5l1.5-3.5-2.5 3-1.2-.5c-1.5-.7-2.7-1.5-4.2-2.5l-1.5-1c-24.4 25.4-54.3 43.2-93.8 56h-.2c-.7.2-1.7.5-2.7-.2-1-.2-1.7-.5-2.2-1l-.2-.5c-1.2-1.5-1.2-3.7-.5-5.2 3.9-6.9 8.1-13.3 12.1-18.8l4.2-6.4 1-1.2 2.7-4.7c.7-1 1.5-2 2-3.2l1.2-2.5 1.5-2.5.5-1.5.5-1.2 1-2.5c.2-.5.5-1 .7-2.5.2-.7.7-1.7 1-2.7l.2-1.5.2-1.5.2-1.2c-23.4 10.6-50.3 17.8-82.2 21-1.2 0-2.2-.5-3-1l-1-.7-.7-1.2c-.7-2-.2-4.2 1.5-5.7l4.4-3.7c1.2-1.2 3.2-2.7 5.2-4.4l3-2.7c2.5-2.5 5.4-5.2 8.4-8.4 11.3-11.3 21-22.9 28.6-34.3 2.5-3.7 4.7-7.2 6.7-10.4l1.7-3c1.2-2.2 2.7-4.4 3.7-6.4l2.2-4.2c.7-1.2 1.5-2.7 2-3.9l1.5-2.7c.5-1.2 1.2-2.7 1.7-3.9l1.2-2.5c.2-1 .7-2.2 1.5-3.7l1.2-3.5 3.5 1.2-3-2.7.7.2c-.7-1.2-2.2-3.9-4.7-8.4l3.2-1.7-3.7.5-.5-1c-3 .5-5.2-2-5.2-4.9v-4.9l-4.2-8.1-.5-1-.2-.5-1-.2-2.2-1.2-1.2-2.2c-1-1.5-1.5-3.2-1.5-4.9l.5-2.5v-.2l-14.3-30.8s-.2-1-.7-2.2c-3.9-10.1-5.2-21.2-6.2-31.1-1-8.9-2-17.3-4.2-25.7l-.2-1.2c-.5-1-.7-2-1-3.2-1.7-4.4-3.2-9.1-4.7-13.6-8.6-23.4-20-56.3-25.7-82.7-1 0-2-.2-2.5-.7-1.2-.7-2-1.7-2.19-3v-.2c-.5-.7-1-1.5-1-2.5-.5-2.7.5-5.4 2.19-7.2-6.19-23.7-11.59-46.4-13.59-57.7l-2.71-15c-2.7-15.5-5.2-28.9-6.69-39.7l-.21-1c-2.19-7.2-2.7-16.3-.99-25.2.5-4.7 1.69-8.6 3.7-12.1 5.39-9.4 10.6-12.6 14.3-13.3 3.69-5.9 12.8-19 24.19-21.2 2.2-.5 4.7-.7 7.4-1s16-1.2 24.4 1.5c2-2 5.2-3.9 10.91-4.4 2.99-.2 5.39 0 8.4 1v.2c2 .5 3.5 1.2 5.4 2.5 1.2 1 2.19 1.7 3.2 2.5l.7 1c1.2-.2 2.5-.5 4.2-.7 7.39-1 17.5-.7 23.4 5.7 3.5 3.5 5.4 8.1 7.2 12.6.7 2 1.5 4.2 2.5 6.7 2.7 7.6 5.7 16.3 11.09 24.9 1.2 2 3.2 4.7 5.4 7.4 35-42.7 98.9-115 168.8-169 1.2-6.7 2.2-13.3 3.7-19.2 6.7-34 16-68.1 25.2-91l3.91-9.4c17-42.2 17.8-44.4 17.5-47.1-.21-1.5-.5-3.5 0-7.9.7-9.6-1.51-26.2-3.7-43.7-1.51-11.1-3-22.7-3.5-32.6l-.2-3.7c-1.51-23.2-2.2-32.8 7.6-64.6 9.6-31.8 12.1-36.8 22.7-53.3-1.2-7.4-13.1-14.3-23.7-20.2-3.5-2-6.9-4.2-10.1-6.2-9.9-6.4-15.5-14.1-24.2-25.9-5.4-7.2-11.8-16.3-21.7-27.9-14.8-17.8-37.3-31.1-55.5-41.9-11.8-7.2-22.2-13.3-27.4-19.2l-.7-.7c-12.1-13.8-14.1-17-15.8-43.7-.5-7.6 3.7-28.1 12.6-62.9 9.6-39 26.4-100.4 42.7-149.5 7.2-23.7 13.3-43.7 15.5-49.6 4.2-11.6 10.1-20.5 18.5-27.6 5.4-4.2 10.6-6.7 16.3-9.4l6.7-3.2c7.6-3.7 12.8-6.2 20.2-12.3 1.2-1.2 3.2-4.7 5.2-7.9 3.2-5.9 7.4-13.3 13.8-19.2 8.4-7.4 18-10.6 24.4-12.1h.7c4.9-1 41-5.7 75.5-9.9 10.4-1.5 18.3-2.5 19.7-2.5l1-.2c2.7 0 5.4 1.5 7.6 3.7 2.2 1.5 3.9 3.7 5.2 6.7 3.7 6.7 4.7 14.1 2.7 20-7.4 21.5-17.5 42.7-27.1 57-15.8 24.2-46.6 52.1-46.6 52.1-.7.7-2.2 1.2-3.2 1.2l-20 1.2-2.7-1-12.1-9.6-14.3 5.2 12.1 12.1c1 1 1.5 2.5 1.5 3.9-.2 1.2-.7 2.5-2 3.5l-49.1 38.2-31.6 110 10.1 18.5 19.2 49.3 22.2 22.2 160.6 38 29.9-88.1 43.9-84.1 5.2-108.1c.2-1 1-2.7 1.7-3.5l29.1-27.4 25.9-139.6-14.6-109.3v-1.5l4.4-34.3-41.2-21.7-1-.7-1.2-1.2-.7-1.2-45.1-78.7c-.7-1.7-.7-3.5 0-4.9 1-1.5 2.5-2.5 4.2-2.5h138.9c1.7 0 3.7 1.2 4.4 3 5.4 12.6 23.7 54.3 23.7 66.9.2 10.6-3.9 18-6.4 21.5l3.9 15c6.7.5 13.6 3.5 18.5 8.1 4.4 3.9 6.9 8.9 7.2 13.3 0 2 .2 4.4.5 7.4l.2 1.2c1.2 15.5 3.2 39-2 52.8-6.2 15.5-22.4 76.5-23.9 91-.7 8.4-2 18.3-3 28.9-3.5 28.9-7.2 61.7-6.7 75.7.2 8.6 2.2 17.8 4.2 27.6 2.5 12.1 5.2 24.9 4.4 36.8-.7 12.6-6.4 27.4-11.8 41.9-3.7 10.1-7.9 20.5-9.6 29.1-3.5 18.3-3.5 67.6-3.2 82.4v.2c2 7.9 24.4 98.9 24.9 140.6 2.5-.7 5.39-1.5 9.09-2.5 20-4.7 62.9-13.6 128.5-17.5.5 0 32.1-2.2 73-2-38.7-25.4-19-50.3-1.7-56 1-.2 1.7-.5 2.7-.7l.21-.2c14.79-4.9 17.8-6.7 55.8 1 28.1 4 47.6 8.9 69.6 14.1 16.5 4.2 35 8.9 60.2 13.6 10.6 2.5 18 8.6 22.4 18.3 5.9 12.6 5.2 28.9 2 44.4 67.6 20 136.9 43.9 148.5 47.9 3.5 1 6.9 2.2 10.1 3.5 3.9-11.8 8.4-22.5 13.1-31.6 16.5-31.3 29.4-47.9 42.9-65.1 5.9-7.4 12.6-16 19.69-26.1 9.9-13.8 26.9-34.3 43.21-54.3 20.2-24.2 42.89-51.6 46.59-60.7 6.7-15.3 9.4-91 5.7-115.7-3.9-24.7-21.2-91-26.59-105.1-1.7-4.2-7.4-16.3-13.31-29.1-32.1-69.6-41.2-91.3-40.7-96.5 1-11.1 4.9-16 8.41-18.3l-2.01-10.4-40.7-25.2-1.2-1-.7-1.5-19.69-50.8-.5-1-11.1-28.9c-.5-1.5-.5-3.2.5-4.4s2.5-2.2 4-2.2h125.8c2.2 0 3.9 1.7 4.7 3.7 1 4.4 11.8 45.4 14.3 51.3 3 6.7 6.2 24.4 3 31.6-1.7 3.2-4 8.1-5.4 11.4l7.2 22.7c6.7-.7 18.7-1.5 25.9 3.7 3.5 2.5 5.4 5.7 5.9 9.6 1.2 7.9 9.4 55.5 24.4 141.6l1.5 8.4c2.5 6.7 58.2 164.8 72.5 197.4 5.7 13.1 6.2 25.2 1.2 36-5.7 12.6-17.8 20.5-23.9 22.4-18.5 5.7-38.7 33.6-39.2 73.8 0 7.2.2 15.1.7 23.9l2.2-1.2c30.6-27.1 53-44.9 80.4-63.2 12.3-8.1 22.2-14.1 30.8-19.5 13.1-7.9 25.4-15.5 43.7-28.6-.7-3.5-2.2-9.4-4-17.8-.7-.7-1-1.7-.7-3v-.2c-5.4-25.9-15.3-76-20.5-131.3-8.1-84.1-4.9-148.8 9.6-197.6 3.2-10.1 8.6-21 16.8-33.1 1.7-5.2 3.5-8.9 5.7-11.8 18.5-26.4 43.7-46.9 56.7-56.5 4.9-4.2 8.1-6.9 8.9-7.4l5.2-4.4c1.2-1 3.5-1 4.7.3 1.5 1.2 1.7 3.2.7 4.7l-3.9 6.9c-18 29.4-29.9 53.3-33.6 67.1-2 6.9-4.2 13.1-6.4 19.2-5.4 15.1-10.6 29.6-9.4 58.5.7 19.5 4.7 38.5 8.4 52.8.2-4.2 1-8.9 1.7-13.8 2-20.2 5.7-37.3 10.9-50.6 13.6-42.7 38.7-62.9 40-63.9l3.9-3c1.2-1 3.2-1 4.4 0 1.5 1.2 1.7 3 1 4.7l-2 4.2c-1 2-21 45.4-29.1 94-6.4 39.2-1 64.2 4.2 88.3 1.5 6.4 3 13.1 3.9 19.7 3.9 22.9 1.5 75.5-.2 103.9l56.7-81.2 52.1-137.9c.2-2.5 11.4-62.4 12.3-85.6.2-6.2-.7-17.3-2-29.6-1.2-12.3-2.5-26.4-3-39.7-.2-8.4.7-16.3 1.7-23.7.5-3.7 1-7.4 1-10.6.2-6.9-.5-11.8-1-14.3l-30.1-22.4-.2-.2-.71-1-.7-1c-2.19-5.4-10.6-25.2-17.99-43.4-7.61-18.3-14.8-35.3-14.8-35.5-.5-1.5-.5-3.2.5-4.4.7-1.5 2.19-2.2 3.9-2.2h129c2 0 3.7 1.2 4.7 3.2l15.99 44.4.21 1 .2 1c.2 5.4 1 18.8-3.2 27.9-3.5 7.9-8.1 15-9.9 18l1 17.3c3.9.2 9.9 1.5 14.3 4.7 2 1.5 3.7 3.2 5.39 5.2 4.4 5.9 6.7 14.1 7.4 26.2.2 2.2.2 4.7.2 6.9-.7 17-6.2 38.5-6.2 38.5z" style="fill:#53399c;fill-opacity:1;fill-rule:nonzero;stroke:none" transform="matrix(.13333 0 0 -.13333 0 1922.067)" data-source="https://football-logos.cc"></path><!-- source: https://football-logos.cc --></svg>