<svg xmlns="http://www.w3.org/2000/svg" xml:space="preserve" id="svg3142" x="0" y="0" version="1.0" viewBox="59 17 150 178.96"><!-- Source: https://football-logos.cc --><style data-source="https://football-logos.cc">.st0{fill:#fff}.st3{fill:gray}.st6{fill:#f6df17}.st7{fill:#ec2e38}</style><g id="_x23_ffffffff" transform="matrix(.1202 0 0 .1202 -.02 -.257)"><path id="path3145" d="M1037.99 262.25c6.3.12 12.6.02 18.91.06 0 27.59.03 55.18-.01 82.76-6.3 0-12.6-.05-18.89.02-.04-27.6-.01-55.22-.01-82.84" class="st0"></path><path id="path3147" d="M1000.57 288.58c11.62-8.55 23.16-17.21 34.55-26.09.45 26.49 0 52.99.22 79.46-11.59 3.46-23.28 6.54-34.91 9.83.09-21.06-.17-42.14.14-63.2" class="st0"></path><path id="path3149" d="M1009.9 358.77c6.81-2.25 13.85-3.8 20.74-5.79.03 148.41.03 296.84 0 445.26-57.48-6.29-114.89-13.11-172.38-19.34.83-1.59 2.83-1.67 4.3-2.32 39.8-14.39 79.48-29.08 119.29-43.44.28-119.45-.15-238.91.2-358.38 9.4-5.12 18.42-10.93 27.85-15.99m-8.55 38.92c.41 24.95.04 49.93.19 74.88 3.16.01 6.34 0 9.51-.05-.07-25.04.11-50.08-.09-75.11-3.21-.09-6.42-.14-9.61.28m.37 139.64c-.48 25.03-.06 50.06-.21 75.09 3.15.02 6.31.01 9.47-.04.01-24.99.25-49.99-.11-74.96-3.06.05-6.11.04-9.15-.09m0 158.74c-.48 25.03-.08 50.08-.2 75.13 3.16 0 6.34 0 9.51-.02-.08-24.99.2-49.98-.14-74.95-3.05.01-6.12-.02-9.17-.16" class="st0"></path><path id="path3151" d="M1033.12 352.47c15.68 2.79 31.19 6.44 46.83 9.44.08 147.36.01 294.71.03 442.08-15.46-2.2-31.16-3.3-46.53-5.81-.69-14.85-.1-29.86-.3-44.78-.01-133.64.05-267.28-.03-400.93m18.83 40.36c0 24.99.01 49.96 0 74.95 3.16.05 6.32.06 9.5.05 0-25.01.06-50.03-.03-75.04-3.16.02-6.31.03-9.47.04m.79 153.91c-8.31 1.71-14.84 9.41-15.09 17.91-.68 9.69 7.12 19.1 16.88 19.86 11.24 1.78 22.36-8.54 21.23-19.91.04-11.43-12.01-20.56-23.02-17.86m-.8 139.95c.01 24.99.04 49.96-.01 74.95 3.18.07 6.35.09 9.55.04-.04-24.99.03-49.98-.04-74.95-3.18-.02-6.34-.04-9.5-.04" class="st0"></path><path id="path3153" d="M1051.11 549.92c7.51-2.79 16.8.67 20.26 8.01 3.28 6.45 1.94 15.13-3.62 19.91-7.16 6.83-20.38 4.99-25.18-3.75-5.57-8.45-.96-20.98 8.54-24.17m6.49 14.29c-.4.48-1.18 1.43-1.56 1.9 3.12 1.27 6.56.77 9.86.74 1.51.06 3.04-.4 3.8-1.81-3.88-1.41-8.08-1.18-12.1-.83" class="st0"></path><path id="path3155" d="M1472.33 650.46c12.16-9.39 24.03-19.2 36.4-28.3 6.45 13.59 13.61 26.83 20.15 40.38-18.82-4.22-37.74-7.93-56.55-12.08" class="st0"></path><path id="path3157" d="M1466.46 652.49c4.54 1 9.11 1.81 13.66 2.85-.12 44.63-.04 89.25-.05 133.88-4.51-1.05-9.01-2.09-13.55-2.99-.16-44.57-.03-89.16-.06-133.74" class="st0"></path><path id="path3159" d="M1482.53 655.93c15.96 3.31 31.98 6.43 47.85 10.11-.15 44.56-.07 89.13-.04 133.69-15.83-2.85-31.46-6.66-47.2-9.96l-.51-.49c-.2-44.45 0-88.9-.1-133.35m19.82 27.43c-.01 28.8.12 57.59-.06 86.38 3.16.44 6.36.41 9.55.06-.11-28.8-.09-57.6-.01-86.4-3.17-.38-6.34-.36-9.48-.04" class="st0"></path><path id="path3161" d="M1418.1 671.14c3.2-.5 6.46-.58 9.69-.08-.16 8.54 0 17.06-.1 25.6-3.2-.04-6.4-.05-9.59-.11.03-8.47.04-16.93 0-25.41" class="st0"></path><path id="path3163" d="M1418.18 733.79c3.18-.04 6.35-.05 9.55-.04-.03 12.55.04 25.11-.04 37.69-3.2-.04-6.4-.05-9.59-.1.08-12.52-.06-25.03.08-37.55" class="st0"></path><path id="path3165" d="M1145.07 739.88c6.32.02 12.65 0 18.99 0-.04 28.09.01 56.18-.04 84.25-6.31-.04-12.62-.05-18.94.01-.01-28.08.01-56.17-.01-84.26" class="st0"></path><path id="path3167" d="M1226.71 757.74c6.29-.26 12.58-.05 18.88-.14.03 28.01.06 56.04-.01 84.05-6.29-.09-12.56.06-18.84-.11.09-27.92.14-55.86-.03-83.8" class="st0"></path><path id="path3169" d="M1308.49 775.32h18.96c.03 27.95-.19 55.91.11 83.86-6.35.39-12.7.09-19.04.19-.02-28.03.06-56.04-.03-84.05" class="st0"></path><path id="path3171" d="M1376.25 789.87c6.29-.06 12.59.05 18.89-.06.14 28.11-.08 56.23.11 84.34-6.34.1-12.68.01-19 .06 0-28.12.01-56.23 0-84.34" class="st0"></path><path id="path3173" d="M1144.79 946.08c7.09-4.51 16.36-4.58 24.2-2.14 8.46 2.73 13.1 11.8 13.06 20.3-4.11-.1-8.31 1.06-12.35.33-.95-2.97-1.53-6.51-4.4-8.3-4.39-2.76-10.49-2.34-14.61.7-3.2 2.35-2.61 7.69.79 9.56 7.29 4.21 16.2 4.58 23.36 9.12 13.3 8.46 11.7 32.1-2.85 38.44-7.94 3.15-17.33 3.23-25.15-.3-8.22-3.98-11.74-13.38-12.44-21.95 4-.51 8.01-1.03 12.03-1.51.96 4.73 2.51 10.28 7.34 12.45 5.31 2.34 12.94 1.69 16.21-3.69 2.4-3.51 1.71-9-2.26-11.04-7.79-3.86-17.12-4.33-24.1-9.88-9.63-7.9-9.25-25.03 1.17-32.09" class="st0"></path><path id="path3175" d="M1280.25 943.04c8.61-1.65 18.33-.31 25.04 5.74 8.14 6.98 11.15 18.09 11.33 28.45.39 10.73-1.51 22.36-8.99 30.58-7.82 8.96-21.62 10.73-32.28 6.26-9.27-3.97-14.95-13.51-16.65-23.14-1.51-9.05-1.43-18.53 1.1-27.38 2.84-9.59 10.18-18.64 20.45-20.51m2.36 12.58c-7.11 2.17-10.82 9.64-11.62 16.58-1.18 8.85-.81 18.95 4.96 26.25 4.8 6.16 14.8 7.28 20.63 1.94 5.95-5.05 7.18-13.36 7.35-20.73-.09-6.69-.8-13.95-5.14-19.35-3.71-4.77-10.5-6.55-16.18-4.69" class="st0"></path><path id="path3177" d="M828.69 943.62c14.99.09 29.96.01 44.94.04.04 4.01.01 8.04.06 12.06-10.85.75-21.78.15-32.65.33.01 5.2-.02 10.39.04 15.59 10.1-.09 20.19-.04 30.29-.04-.02 4.05-.01 8.1 0 12.16-10.1-.03-20.21.04-30.31-.04 0 6.4-.04 12.8.03 19.21 11.25-.1 22.51 0 33.76-.05-.03 4.06-.03 8.12-.01 12.2-15.31.08-30.63-.21-45.94.15-.53-23.86-.11-47.75-.21-71.61" class="st0"></path><path id="path3179" d="M889.42 943.66c4.17-.03 8.35-.01 12.54-.03.02 23.81.02 47.63 0 71.44-4.21 0-8.41 0-12.61-.03.09-23.78-.06-47.58.07-71.38" class="st0"></path><path id="path3181" d="M918.55 943.61c10.51.34 21.11-.58 31.58.81 10.99 2.31 16.76 13.76 18.28 23.99 1.19 10.03 1.49 20.61-2.17 30.19-2.7 8.46-10.06 15.44-19.13 16.19-9.5.65-19.05.09-28.58.31-.02-23.83-.07-47.67.02-71.49m12.37 12.42c0 15.64-.15 31.29.06 46.93 7.09-.71 16.06 1.86 21.39-4.24 4.65-7.08 4.04-16.05 3.94-24.14-.25-6.66-2.08-14.84-8.93-17.64-5.36-1.4-10.98-.72-16.46-.91" class="st0"></path><path id="path3183" d="M978.37 1015.07c7.71-23.89 15.58-47.73 23.61-71.5 4.28.12 8.56.12 12.85-.01 8.23 23.8 16.39 47.64 24.34 71.54-4.46-.03-8.91-.04-13.36-.01-1.74-5.44-3.55-10.84-5.21-16.28-8.03 0-16.04.01-24.06-.01-1.74 5.43-3.34 10.89-5.08 16.31-4.36-.08-8.72-.04-13.09-.04m21.85-28.51c5.46.14 10.92.06 16.39.08-2.92-8.51-5.41-17.16-8.28-25.68-2.87 8.47-5.19 17.13-8.11 25.6" class="st0"></path><path id="path3185" d="M1076.3 943.66c14.95-.03 29.9.05 44.86-.05.02 4.11.04 8.24.01 12.36-10.79.22-21.56-.01-32.34.11.07 5.18.02 10.35.06 15.53 10-.06 20 .03 30-.05.01 4.08 0 8.15.03 12.24-10.03-.08-20.03 0-30.04-.05-.03 6.39 0 12.78 0 19.18 11.2-.05 22.4-.03 33.61-.01q-.06 6.06 0 12.15c-15.36.08-30.74-.1-46.1.09-.2-23.84 0-47.68-.09-71.5" class="st0"></path><path id="path3187" d="M1198.85 943.64c10.26.06 20.55-.19 30.81.48 4.55.21 8.85 2.74 11.46 6.45 4.52 6.11 4.99 14.3 3.75 21.56-1.26 7.69-7.46 14.79-15.46 15.59-5.93.56-11.9.51-17.85.4-.3 8.98-.06 17.96-.12 26.95-4.18-.01-8.35-.03-12.53.06-.16-23.82-.04-47.66-.06-71.49m12.51 12.53c.1 6.5.12 13.01-.01 19.53 5.29.71 10.79.6 15.96-.74 7.28-3.1 7.14-15.34-.25-18.24-5.16-1-10.49-1.2-15.7-.55" class="st0"></path><path id="path3189" d="M1331.04 943.62c11.59.26 23.21-.46 34.78.61 6.53.43 11.89 5.45 13.73 11.58 2.06 7.19 1.67 15.74-3.21 21.76-2.62 3.33-6.69 5.01-10.71 5.93 9.59 8.4 13.86 20.78 20.04 31.58-4.97 0-9.94-.01-14.9 0-5.07-8.72-9.49-17.89-15.35-26.11-2.64-3.92-7.7-3.71-11.86-3.52.06 9.88-.04 19.74.05 29.61-4.2.04-8.4.04-12.59 0 .06-23.83-.01-47.63.02-71.44m12.52 12.41c-.04 5.91.05 11.84-.05 17.76 6.2-.03 12.51.5 18.65-.59 8.23-1.62 7.58-16.83-1.12-17.03-5.83-.29-11.65-.01-17.48-.14" class="st0"></path><path id="path3191" d="M1392.74 943.61c16.05.11 32.11.01 48.16.05.06 4.14.16 8.29-.2 12.43-5.88-.04-11.74-.08-17.6.04-.03 19.65.01 39.3-.01 58.95-4.19 0-8.38-.01-12.55 0 .04-19.68 0-39.35.01-59.03-5.94.04-11.88.01-17.81.03-.06-4.17-.05-8.32 0-12.47" class="st0"></path><path id="path3193" d="M1453.55 943.64c4.06 0 8.14 0 12.23.01-.16 23.8-.06 47.6-.05 71.41-4.08 0-8.15-.01-12.21 0 .04-23.8-.02-47.6.03-71.42" class="st0"></path><path id="path3195" d="M1482.36 943.64c4.09 0 8.18 0 12.28.01.46 16.65-.39 33.33.51 49.96.3 5.94 5.86 10.8 11.83 10.2 5.8.6 10.94-4.49 10.76-10.21.76-16.64.16-33.3.36-49.94 4.12-.03 8.28-.04 12.41-.03-.05 14.5 0 28.99-.03 43.49-.25 6.43-.08 13.23-3.18 19.06-3.17 6.04-9.81 9.69-16.53 10.06-7.86.56-16.98-.12-22.44-6.58-5.71-6.03-5.71-14.78-5.98-22.55-.04-14.48-.01-28.97.01-43.47" class="st0"></path><path id="path3197" d="M715.54 944.22c4.1.01 8.2.05 12.29-.1.22 19.56.11 39.15.06 58.71 10.09.16 20.19-.05 30.28.11-.08 4.02-.05 8.06-.04 12.1-14.19.05-28.39.01-42.59.03.01-23.61.02-47.24 0-70.85" class="st0"></path><path id="path3199" d="M772.27 944.27c4.18-.09 8.35-.06 12.53 0-.66 19.54.15 39.09-.03 58.64 10.11-.05 20.23.01 30.34-.03-.02 4.06-.01 8.12-.01 12.2-14.26-.05-28.54.03-42.8-.04.02-23.58.09-47.18-.03-70.77" class="st0"></path><path id="path3201" d="M1113.14 1088.12c2.84-2 5.25 1.69 7.47 3.05 13.51 12.2 19.88 30.14 23.68 47.49-11.55 5.78-22.36 13.89-29.15 25.05-7.66-10.24-17.28-19.43-29.2-24.48.37-6.75 2.65-13.2 4.78-19.56 4.48-12.18 11.17-24.41 22.42-31.55" class="st0"></path><path id="path3203" d="M1034.99 1134.28c17.21-1.8 35.18.25 50.85 7.93 11.16 5.51 20.69 14.26 27.14 24.93-5.71 11.28-6.09 25.28.05 36.46-5.56 8.12-14.69 14.24-24.76 14.33-7.6.54-15.04-2.58-20.61-7.62-6.36-5.75-11.98-12.61-15.06-20.7-5.29-13.16-5.69-27.59-9.34-41.19-1.26-5.18-4.31-9.7-8.31-13.15 0-.25.02-.74.04-.99" class="st0"></path><path id="path3205" d="M1155.14 1137.77c13.03-4.26 27.01-4.53 40.55-3.29-3.88 3.46-7.23 7.66-8.64 12.75-4.89 16.81-4.24 35.59-14.05 50.73-5.7 7.97-12.64 16.14-22.4 19.03-10.24 2.5-22.18.36-29.71-7.36-6.31-6.66-9.09-15.98-9.55-24.98-.35-10.69 5.8-20.35 13.16-27.61 8.54-8.67 19.22-15.13 30.64-19.27" class="st0"></path><path id="path3207" d="M1196.31 1194.68c11.4 11.69 22.15 25.1 25.95 41.33 3.66 14.55 4.4 30.6-1.78 44.59-4.51 10.4-15.25 16.75-25.94 19.15-17.09 3.96-35.31-11.41-34.8-28.8-.16-9.4 1.69-18.99 6.3-27.25 6.95-12.6 17.85-22.33 25.94-34.11 2.99-4.39 4.09-9.68 4.33-14.91" class="st0"></path><path id="path3209" d="M1001.74 1229.35c5.55-11.58 13.8-21.8 23.2-30.46.06 5.25 1.22 10.58 4.16 15 9.28 14 22.8 25.48 28.35 41.74 3.04 10.49 4.81 22.58-.48 32.66-4.57 7.76-12.24 14.14-21.28 15.74-10.06 1.69-20.24-2.45-28.01-8.65-7.81-6.16-11.15-16.19-12.26-25.73-1.3-13.68.99-27.67 6.32-40.3" class="st0"></path><path id="path3211" d="M1226 1236.82c14.51-7.7 30.65-13.81 47.35-12.84 3.66.22 7.45.65 10.8 2.29 2.32 7.75.4 16.1-1.91 23.68-4.03 11.74-10.71 22.45-18.65 31.94-11.81-5.51-25.01-7.91-38-6.46 4.1-12.47 3.7-26.02.41-38.61" class="st0"></path><path id="path3213" d="M936.24 1230.06c7.49-2.66 15.69-2.75 23.46-1.49 12.19 1.69 23.68 6.54 34.51 12.18-3.14 12.69-3.49 26.24.39 38.81-11.88-1.5-24.04.49-35.03 5.12-1.2.26-2.98 1.71-3.86.14-9.91-12.38-18.31-26.79-20.38-42.76-.21-3.96-.72-8.31.91-12" class="st0"></path><path id="path3215" d="M1222.94 1281.88c.75-1.12 1.07-3.09 2.81-2.97 14.85-2.23 30.33 1.32 43.18 8.99 12.53 7.49 23.13 18.06 30.96 30.35-10.7-2.29-20.23 3.99-29.04 9.05-11.61 6.76-23.69 14.34-37.53 14.79-10.71.64-22.98-.9-30.4-9.51-7.57-7.83-9.4-19.7-6.62-29.95 11.35-2.63 21.46-10.25 26.64-20.75" class="st0"></path><path id="path3217" d="M965.5 1285.55c9.76-3.35 20.3-3.71 30.46-2.44 4.81 11.75 15.5 20.79 27.93 23.48 3.18 10.75.64 23.21-7.5 31.14-7.94 7.99-19.95 8.95-30.59 8.39-14.71-1.07-27.24-9.6-39.66-16.71-7.78-4.54-16.59-9.36-25.91-6.9 10.69-16.6 26.32-30.7 45.27-36.96" class="st0"></path></g><g id="_x23_00457cff" transform="matrix(.1202 0 0 .1202 -.02 -.257)"><path id="path3220" d="M887.22 143.63c151.8-.01 303.6.09 455.41-.05.08 22.16 0 44.31.04 66.46 72.53 22.25 145.14 44.21 217.61 66.61-.21 15.44-.01 30.88-.11 46.3 59.59.04 119.16.13 178.74-.04.08 33.08.54 66.18-.97 99.23-5.56 156.63-32.58 312.74-82.51 461.39-63.8 191.19-165.76 369.43-297.69 521.76-72.64 84.08-154.16 160.5-243 227.24-79.51-60.08-153.4-127.6-220.15-201.6C773.18 1296.59 675.23 1141 607.41 973.08c-70.65-174.04-108.63-360.86-115.34-548.41-1.59-3.69-1.11-7.49-.06-11.24.19-30.14.05-60.28.08-90.41 59.09-.05 118.19-.01 177.28-.01-.02-15.4.13-30.8-.09-46.2 33.63-10.74 67.51-20.7 101.24-31.14 38.83-11.79 77.58-23.85 116.44-35.46.59-22.18.05-44.39.26-66.58m46.54 46.52c-.01 18.15.09 36.29-.05 54.43-72.69 21.93-145.23 44.34-217.86 66.4-.25 19.5.06 38.99-.15 58.49-56.21-.06-112.43 0-168.64-.03-3.23-.06-6.45-.02-9.66.25-.11 38.41 1.89 76.79 4.88 115.08 8 118.91 30.66 236.7 65.41 350.66.71 2.35 1.35 4.76 2.64 6.89.44 3.45 1.86 6.68 2.85 10 16.19 51.06 35.68 101.03 57.28 150.04 6.92 16.3 15.11 32.05 22.3 48.24l.51.05c1.44 3.86 3.5 7.45 5.33 11.14 6.81 13.2 13.01 26.71 20.56 39.53 13.01 22.81 25.75 45.79 38.89 68.53 8.18 12.39 15.79 25.18 24.33 37.3 6.55 11.06 13.94 21.65 20.76 32.56 7.5 10.81 15.5 21.28 23.14 32 13.38 17.9 25.76 36.58 40.31 53.56 7.46 8.71 14.28 18 22.06 26.43l-.01.45c6.36 7.69 12.64 15.45 19.04 23.11 11.39 12.81 23.14 25.28 34.61 38 8.96 9.31 17.08 19.46 26.55 28.26v.38c34.3 34.15 68.96 68.05 106.06 99.19 12.83 11.4 26.41 22.01 39.81 32.78 13.76-10.44 27.16-21.38 40.23-32.68 36.95-31.55 72.15-65.1 106.3-99.65 10.76-10.56 20.39-22.23 30.79-33.14 16.76-18.58 34.11-36.69 49.16-56.69 6.78-7.58 12.98-15.64 19.51-23.41 6.08-7.66 12.69-14.91 18.29-22.95 15.29-20.99 30.61-41.93 45.88-62.93 7.61-11.53 15.03-23.18 22.46-34.79 8.41-12.94 16.76-25.91 25.08-38.9 14.7-25.75 29.23-51.6 43.81-77.41 6.86-13.39 13.56-26.86 20.38-40.28 6.62-14.03 13.34-28 19.9-42.06 6.28-14.53 12.51-29.06 18.79-43.59 6.89-18.1 14.6-35.86 21.03-54.14 11.21-29.81 20.95-60.15 30.3-90.59 29.2-99.4 49.18-201.59 58.49-304.79 4.18-48.7 7.62-97.54 7.34-146.45-59.54.02-119.06.09-178.6-.04-.01-19.53.16-39.05-.1-58.56-72.59-21.85-145.03-44.25-217.56-66.29-.12-17.91.1-35.84-.1-53.75l-.55-.55c-120.62-.15-241.2 0-361.78-.08" style="fill:#00457c"></path></g><g id="_x23_69cbe6ff" transform="matrix(.1202 0 0 .1202 -.02 -.257)"><path id="path3223" d="M933.76 190.15c120.58.07 241.16-.07 361.74.07l.55.55c.2 17.91-.03 35.84.1 53.75 72.54 22.04 144.98 44.44 217.56 66.29.26 19.51.09 39.04.1 58.56 59.54.12 119.06.06 178.6.04.29 48.91-3.16 97.75-7.34 146.45-9.31 103.2-29.29 205.39-58.49 304.79-11.88-2.2-23.61-5.09-35.46-7.45-.06-49.05.09-98.1-.07-147.14-28.05-15.51-56.05-31.1-84.03-46.73-13.43 10.41-26.51 21.29-40.11 31.44-19.26.89-38.68.11-57.99.38.07 40.9.01 81.81.03 122.71-94.2-20.63-188.55-40.63-282.73-61.38.29-116.81.04-233.64.12-350.45-7.75-7.89-15.76-15.51-23.36-23.54.15-16.99.09-33.99.04-50.98-15.39-9.18-30.59-18.73-46.13-27.61-7.35-1.01-14.89-.06-22.3-.42-3.66.23-7.96-.94-10.96 1.77-8.55 6.49-17.28 12.76-25.74 19.36.09 25.28.18 50.55-.05 75.83-6.29 3.38-12.38 7.1-18.58 10.64-.11 121.46.06 242.94-.09 364.4-39.43 14.29-78.83 28.68-118.24 43.03-4.46 1.44-8.88 4.14-13.73 3.1-12.7-1.9-25.7-2.3-38.26-4.81-5.05-10.36-9.85-20.88-14.73-31.34-.78-1.47-1.49-3.56-3.53-3.39-35.18-3.83-70.33-7.85-105.49-11.71.15-9.44.1-18.89.04-28.31-12.38-1.12-24.71-2.7-37.09-3.9-12.54 49.41-25.15 98.8-37.85 148.16-1.29-2.12-1.92-4.54-2.64-6.89-34.75-113.96-57.41-231.75-65.41-350.66-2.99-38.29-4.99-76.66-4.88-115.08 3.21-.27 6.44-.31 9.66-.25 56.21.03 112.43-.04 168.64.03.21-19.5-.1-38.99.15-58.49 72.64-22.06 145.18-44.48 217.86-66.4.18-18.13.08-36.27.09-54.42" style="fill:#69cbe6"></path></g><g id="_x23_000000ff" transform="matrix(.1202 0 0 .1202 -.02 -.257)"><path id="path3226" d="M1023.64 261.27c3-2.71 7.3-1.55 10.96-1.77 7.41.36 14.95-.59 22.3.42 15.54 8.89 30.74 18.44 46.13 27.61.05 16.99.11 33.99-.04 50.98 7.6 8.03 15.61 15.65 23.36 23.54-.09 116.81.16 233.64-.12 350.45 94.18 20.75 188.53 40.75 282.73 61.38-.01-40.9.05-81.81-.03-122.71 19.31-.26 38.73.51 57.99-.37 13.6-10.15 26.69-21.03 40.11-31.44 27.98 15.63 55.98 31.21 84.03 46.73.16 49.04.01 98.09.07 147.14 11.85 2.36 23.59 5.25 35.46 7.45-9.35 30.44-19.09 60.78-30.3 90.59-6.43 18.28-14.14 36.04-21.03 54.14-6.28 14.53-12.51 29.06-18.79 43.59-6.56 14.06-13.28 28.04-19.9 42.06-29.89-.03-59.76-.09-89.65-.01-35.28-.31-70.55.21-105.85 0-13-.74-25.99.34-38.99-.08-13.68.43-27.33-.31-40.99.01-35.43.1-70.84-.09-106.26.12-19.26-.69-38.54.4-57.8-.35-7.4.46-14.8.2-22.19.22-27.18.24-54.31-.2-81.48.14-8.18-.1-16.35.2-24.51-.21-26.7.4-53.41-.16-80.09.18-35.43 0-70.86-.15-106.28 0-18.89-.38-37.79-.01-56.68-.09-10.85-.35-21.74.72-32.56-.33l-.51-.05c-7.19-16.19-15.38-31.94-22.3-48.24-21.6-49.01-41.09-98.98-57.28-150.04-.99-3.32-2.41-6.55-2.85-10 12.7-49.36 25.31-98.75 37.85-148.16 12.38 1.2 24.71 2.78 37.09 3.9.06 9.42.11 18.88-.04 28.31 35.16 3.86 70.31 7.89 105.49 11.71 2.04-.17 2.75 1.91 3.53 3.39 4.88 10.46 9.67 20.98 14.73 31.34 12.56 2.51 25.56 2.91 38.26 4.81 4.85 1.04 9.26-1.66 13.73-3.1 39.41-14.35 78.81-28.74 118.24-43.03.15-121.46-.03-242.94.09-364.4 6.2-3.54 12.29-7.26 18.58-10.64.22-25.28.14-50.55.05-75.83 8.46-6.6 17.19-12.88 25.74-19.36m14.35.98c0 27.61-.02 55.24.01 82.85 6.29-.08 12.59-.03 18.89-.03.04-27.59.01-55.18.01-82.76-6.31-.03-12.61.07-18.91-.06m-37.42 26.33c-.31 21.06-.05 42.14-.14 63.2 11.64-3.29 23.33-6.36 34.91-9.83-.22-26.48.22-52.98-.22-79.46-11.38 8.88-22.92 17.54-34.55 26.09m9.33 70.19c-9.43 5.06-18.45 10.88-27.85 16-.35 119.46.08 238.93-.2 358.38-39.81 14.36-79.49 29.05-119.29 43.44-1.47.65-3.48.74-4.3 2.33 57.49 6.22 114.9 13.05 172.38 19.34q.045-222.645 0-445.26c-6.89 1.97-13.93 3.52-20.74 5.77m23.22-6.3c.07 133.65.01 267.29.02 400.93.2 14.91-.39 29.93.3 44.78 15.36 2.51 31.06 3.61 46.53 5.81-.01-147.36.05-294.71-.03-442.08-15.63-3.01-31.14-6.66-46.82-9.44m439.21 297.99c18.81 4.15 37.74 7.86 56.55 12.08-6.54-13.55-13.7-26.79-20.15-40.38-12.38 9.1-24.24 18.91-36.4 28.3m-5.87 2.03c.03 44.58-.1 89.16.06 133.74 4.54.9 9.04 1.94 13.55 2.99.01-44.63-.08-89.25.05-133.88-4.54-1.03-9.12-1.85-13.66-2.85m16.07 3.44c.1 44.45-.1 88.9.1 133.35l.51.49c15.74 3.3 31.38 7.11 47.2 9.96-.04-44.56-.11-89.13.04-133.69-15.88-3.68-31.89-6.8-47.85-10.11m-64.43 15.21c.04 8.48.03 16.94 0 25.41 3.19.06 6.39.08 9.59.11.1-8.54-.06-17.06.1-25.6-3.23-.49-6.49-.42-9.69.08m.08 62.65c-.14 12.51 0 25.03-.08 37.55 3.19.05 6.39.06 9.59.1.08-12.58.01-25.14.04-37.69-3.2-.01-6.38.01-9.55.04m-273.11 6.09c.01 28.09 0 56.18.01 84.26 6.31-.06 12.62-.05 18.94-.01.05-28.08 0-56.16.04-84.25-6.33 0-12.66.03-18.99 0m81.64 17.86c.16 27.94.11 55.88.03 83.8 6.28.17 12.55.03 18.84.11.07-28.01.04-56.04.01-84.05-6.3.09-12.59-.12-18.88.14m81.78 17.58c.09 28.01.01 56.03.04 84.05 6.34-.1 12.69.2 19.04-.19-.3-27.95-.09-55.91-.11-83.86zm67.76 14.55c.01 28.11 0 56.23 0 84.34 6.33-.05 12.66.04 19-.06-.19-28.11.03-56.23-.11-84.34-6.3.11-12.6 0-18.89.06m-231.46 156.21c-10.41 7.06-10.8 24.19-1.18 32.1 6.98 5.55 16.31 6.01 24.1 9.88 3.97 2.04 4.66 7.53 2.26 11.04-3.28 5.38-10.9 6.03-16.21 3.69-4.82-2.17-6.38-7.72-7.34-12.45-4.01.49-8.03 1-12.03 1.51.7 8.58 4.21 17.98 12.44 21.95 7.83 3.53 17.21 3.45 25.15.3 14.55-6.34 16.15-29.98 2.85-38.44-7.16-4.55-16.07-4.91-23.36-9.13-3.4-1.88-3.99-7.21-.79-9.56 4.12-3.04 10.22-3.46 14.61-.7 2.88 1.79 3.45 5.33 4.4 8.3 4.04.74 8.24-.43 12.35-.33.04-8.5-4.6-17.58-13.06-20.3-7.83-2.43-17.11-2.37-24.19 2.14m135.46-3.04c-10.28 1.86-17.61 10.91-20.45 20.51-2.53 8.85-2.61 18.33-1.1 27.38 1.7 9.63 7.38 19.16 16.65 23.14 10.65 4.46 24.45 2.7 32.28-6.26 7.47-8.21 9.38-19.85 8.99-30.58-.18-10.36-3.19-21.48-11.33-28.45-6.71-6.05-16.43-7.39-25.04-5.74m-451.56.58c.1 23.86-.31 47.75.2 71.61 15.31-.36 30.63-.08 45.94-.15-.01-4.08-.01-8.14.01-12.2-11.25.05-22.51-.05-33.76.05-.06-6.41-.03-12.81-.03-19.21 10.1.08 20.21.01 30.31.04-.01-4.06-.02-8.11 0-12.16-10.1 0-20.19-.05-30.29.04-.06-5.2-.03-10.39-.04-15.59 10.88-.18 21.8.42 32.65-.33-.05-4.03-.03-8.05-.06-12.06-14.97-.03-29.95.05-44.93-.04m60.73.04c-.14 23.8.01 47.6-.08 71.39 4.2.03 8.4.03 12.61.03.02-23.81.02-47.63 0-71.44-4.18 0-8.35-.01-12.53.02m29.13-.05c-.09 23.83-.04 47.66-.02 71.49 9.53-.22 19.08.34 28.58-.31 9.06-.75 16.43-7.73 19.13-16.19 3.66-9.58 3.36-20.16 2.17-30.19-1.51-10.23-7.29-21.68-18.28-23.99-10.47-1.39-21.07-.48-31.58-.81m59.82 71.46c4.36 0 8.73-.04 13.09.04 1.74-5.43 3.34-10.89 5.08-16.31 8.03.03 16.04.01 24.06.01 1.66 5.44 3.47 10.84 5.21 16.28 4.45-.03 8.9-.01 13.36.01-7.95-23.9-16.11-47.74-24.34-71.54-4.29.14-8.58.14-12.85.01-8.03 23.77-15.89 47.61-23.61 71.5m97.93-71.41c.09 23.83-.11 47.66.1 71.49 15.36-.19 30.74-.01 46.1-.09q-.06-6.09 0-12.15c-11.21-.01-22.41-.04-33.61.01 0-6.4-.03-12.79 0-19.18 10.01.05 20.01-.03 30.04.05-.03-4.09-.01-8.16-.03-12.24-10 .08-20-.01-30 .05-.04-5.18.01-10.35-.06-15.53 10.78-.12 21.55.11 32.34-.11.03-4.12.01-8.25-.01-12.36-14.97.11-29.92.03-44.87.06m122.55-.02c.03 23.83-.1 47.66.06 71.49 4.18-.09 8.35-.08 12.53-.06.06-8.99-.18-17.98.12-26.95 5.95.11 11.92.16 17.85-.4 8-.8 14.2-7.9 15.46-15.59 1.24-7.26.77-15.45-3.75-21.56-2.61-3.71-6.91-6.24-11.46-6.45-10.26-.66-20.55-.41-30.81-.48m132.19-.02c-.03 23.81.04 47.61-.04 71.43 4.19.04 8.39.04 12.59 0-.09-9.88.01-19.74-.05-29.61 4.16-.19 9.22-.4 11.86 3.53 5.86 8.23 10.28 17.39 15.35 26.11 4.96-.01 9.93 0 14.9 0-6.17-10.8-10.45-23.18-20.04-31.58 4.03-.91 8.09-2.6 10.71-5.92 4.89-6.03 5.27-14.58 3.21-21.76-1.84-6.13-7.2-11.15-13.73-11.58-11.55-1.08-23.17-.36-34.76-.62m61.7-.01c-.05 4.15-.06 8.3 0 12.46 5.94-.01 11.88.01 17.81-.03-.01 19.68.03 39.35-.01 59.03 4.18-.01 8.36 0 12.55 0 .03-19.65-.01-39.3.01-58.95 5.86-.11 11.72-.07 17.6-.04.36-4.14.26-8.29.2-12.43-16.05-.03-32.11.07-48.16-.04m60.81.03c-.05 23.81.01 47.61-.04 71.43 4.06-.01 8.14 0 12.21 0-.01-23.81-.11-47.61.05-71.41-4.08-.02-8.16-.02-12.22-.02m28.81 0c-.03 14.5-.05 28.99.01 43.49.26 7.77.26 16.53 5.98 22.55 5.46 6.45 14.57 7.14 22.44 6.58 6.71-.38 13.35-4.02 16.53-10.06 3.1-5.84 2.93-12.64 3.17-19.06.03-14.5-.03-28.99.03-43.49-4.14-.01-8.29 0-12.41.03-.2 16.64.4 33.3-.36 49.94.18 5.73-4.96 10.81-10.76 10.21-5.96.6-11.53-4.26-11.83-10.2-.9-16.64-.05-33.31-.51-49.96-4.11-.03-8.2-.03-12.29-.03m-766.82.58c.02 23.61.01 47.24 0 70.85 14.2-.01 28.4.03 42.59-.03-.01-4.04-.04-8.08.04-12.1-10.09-.16-20.19.05-30.28-.11.05-19.56.16-39.15-.06-58.71-4.09.15-8.19.11-12.29.1m56.73.05c.11 23.59.05 47.19.03 70.78 14.26.06 28.54-.01 42.8.04 0-4.08-.01-8.14.01-12.2-10.11.04-20.23-.03-30.34.03.17-19.55-.64-39.1.03-58.64-4.18-.07-8.35-.1-12.53-.01"></path><path id="path3228" d="M1282.61 955.62c5.68-1.86 12.46-.08 16.18 4.69 4.34 5.4 5.05 12.66 5.14 19.35-.18 7.36-1.4 15.68-7.35 20.73-5.82 5.34-15.82 4.23-20.62-1.94-5.78-7.3-6.14-17.4-4.96-26.25.79-6.94 4.5-14.41 11.61-16.58"></path><path id="path3230" d="M930.92 956.03c5.48.19 11.1-.49 16.46.91 6.85 2.8 8.68 10.98 8.93 17.64.1 8.09.71 17.06-3.94 24.14-5.33 6.1-14.3 3.53-21.39 4.24-.21-15.64-.06-31.29-.06-46.93"></path><path id="path3232" d="M1211.36 956.17c5.21-.65 10.54-.45 15.7.55 7.39 2.9 7.53 15.14.25 18.24-5.18 1.34-10.67 1.45-15.96.74.14-6.52.11-13.03.01-19.53"></path><path id="path3234" d="M1343.56 956.03c5.82.12 11.65-.15 17.47.15 8.7.2 9.35 15.4 1.12 17.03-6.14 1.09-12.45.56-18.65.59.11-5.93.03-11.86.06-17.77"></path><path id="path3236" d="M1000.22 986.56c2.91-8.46 5.24-17.13 8.11-25.6 2.86 8.51 5.35 17.16 8.28 25.68-5.46-.02-10.92.05-16.39-.08"></path></g><g id="_x23_808080ff" transform="matrix(.1202 0 0 .1202 -.02 -.257)"><path id="path3239" d="M1051.95 392.83c3.16-.01 6.31-.02 9.47-.04.09 25.01.03 50.03.03 75.04-3.18.01-6.34 0-9.5-.05.01-24.99 0-49.96 0-74.95" class="st3"></path><path id="path3241" d="M1001.35 397.69c3.19-.42 6.4-.38 9.61-.29.2 25.04.01 50.08.09 75.11-3.18.05-6.35.06-9.51.05-.15-24.94.22-49.92-.19-74.87" class="st3"></path><path id="path3243" d="M1001.72 537.33c3.04.12 6.09.14 9.15.09.36 24.98.13 49.98.11 74.96-3.16.05-6.33.06-9.48.04.16-25.03-.25-50.06.22-75.09" class="st3"></path><path id="path3245" d="M1502.35 683.36c3.14-.31 6.31-.34 9.47.04-.07 28.8-.1 57.6.01 86.4-3.19.35-6.39.38-9.55-.06.2-28.8.06-57.58.07-86.38" class="st3"></path><path id="path3247" d="M1051.94 686.69c3.16 0 6.33.01 9.5.04.06 24.98 0 49.96.04 74.95-3.2.05-6.38.04-9.55-.04.04-24.98.02-49.96.01-74.95" class="st3"></path><path id="path3249" d="M1001.72 696.07c3.05.14 6.11.18 9.18.15.34 24.98.06 49.96.14 74.95-3.17.02-6.35.02-9.51.02.12-25.05-.28-50.1.19-75.12" class="st3"></path></g><g id="_x23_757575ff" transform="matrix(.1202 0 0 .1202 -.02 -.257)" data-source="https://football-logos.cc"><path id="path3252" d="M1052.74 546.74c11.01-2.7 23.06 6.43 23.01 17.86 1.14 11.38-9.99 21.69-21.23 19.91-9.75-.76-17.55-10.18-16.88-19.86.26-8.49 6.78-16.19 15.1-17.91m-1.63 3.18c-9.5 3.19-14.11 15.73-8.54 24.18 4.8 8.74 18.01 10.58 25.18 3.75 5.56-4.79 6.9-13.46 3.62-19.91-3.46-7.35-12.75-10.81-20.26-8.02" style="fill:#757575"></path></g><g id="_x23_767676ff" transform="matrix(.1202 0 0 .1202 -.02 -.257)"><path id="path3255" d="M1057.6 564.21c4.03-.35 8.22-.58 12.1.83-.76 1.41-2.29 1.88-3.8 1.81-3.3.04-6.74.54-9.86-.74a92 92 0 0 1 1.56-1.9" style="fill:#767676"></path></g><g id="_x23_f6df17ff" transform="matrix(.1202 0 0 .1202 -.02 -.257)"><path id="path3258" d="M693.26 1050.64c10.83 1.05 21.71-.03 32.56.33 18.89.07 37.79-.29 56.68.09-.06 52.03.22 104.06-.14 156.08-8.54-12.12-16.15-24.91-24.33-37.3-13.14-22.74-25.88-45.71-38.89-68.53-7.55-12.81-13.75-26.33-20.56-39.53-1.82-3.69-3.88-7.27-5.32-11.14" class="st6"></path><path id="path3260" d="M888.77 1051.06c26.68-.34 53.39.22 80.09-.18.16 58.83.11 117.65.02 176.48-11.74-2.9-24.71-4.2-36.13.59-.3 7.59-1.01 15.4 1.24 22.79 3.65 13.39 10.79 25.58 19.16 36.54-19.79 11.24-35.86 29.14-44.84 50.05 4.48-6.01 10.18-12.96 18.6-11.99 15.84 2.36 27.43 14.84 42.03 20.38-.09 31.94.15 63.88-.12 95.8-9.48-8.8-17.59-18.95-26.55-28.26-11.48-12.73-23.23-25.19-34.61-38-6.4-7.66-12.68-15.43-19.04-23.11l.01-.45c.44-28.19.08-56.39.19-84.59-.03-72.03.09-144.04-.05-216.05" class="st6"></path><path id="path3262" d="M1074.85 1050.96c7.39-.03 14.79.24 22.19-.22 19.26.75 38.54-.34 57.8.35.06 27.83-.01 55.64.05 83.46-2.54.79-5.03 1.64-7.53 2.49-4.36-17.83-11.07-36.29-25.12-48.8-3-2.32-7.14-6.65-10.83-3.08-16.88 11.96-24.35 32.63-29.09 51.95-2.47-.94-4.94-1.9-7.46-2.66.04-27.83.08-55.67-.01-83.49" class="st6"></path><path id="path3264" d="M1261.1 1050.96c13.66-.32 27.31.41 40.99-.01 13 .41 25.99-.66 38.99.07.05 100.23-.14 200.45.1 300.68-15.05 20-32.4 38.11-49.16 56.69-10.4 10.91-20.03 22.58-30.79 33.14-.4-34.76.3-69.55-.35-104.31 8.99-5.35 17.56-11.8 27.7-14.88 4.41-1.41 9.53-1.46 13.6 1 4.74 2.6 7.51 7.4 10.61 11.63-8.94-21.56-25.29-40.1-45.56-51.66 8.4-11.09 15.39-23.44 19.14-36.89 2.16-7.2.94-14.76 1.35-22.12-8.15-4.25-17.74-4.21-26.61-2.93.02-56.81.04-113.61-.01-170.41" class="st6"></path><path id="path3266" d="M1446.93 1051.02c29.89-.08 59.76-.01 89.65.01-6.81 13.41-13.51 26.89-20.38 40.28-14.59 25.81-29.11 51.66-43.81 77.41-8.31 12.99-16.66 25.96-25.08 38.9-1.34-13.9.61-27.84-.35-41.74.05-8.72.03-17.45.25-26.18-.7-29.55.07-59.12-.28-88.68" class="st6"></path><path id="path3268" d="M1129.61 1218.77c8.09 3.05 17.14 3.29 25.21.05.06 33.65.01 67.31.01 100.98-6.94 4.95-13.44 10.55-20.73 14.99-.45-38.71-2.28-77.38-4.49-116.02" class="st6"></path><path id="path3270" d="M1074.95 1218.75c8.04 3.46 17.12 2.99 25.24.05-2.69 41.21-4.34 82.5-4.7 123.81-7.32-3.98-13.72-9.4-20.62-14.03.09-36.61-.07-73.22.08-109.83" class="st6"></path><path id="path3272" d="M1134.3 1358.23c6.66-5.24 13.66-10.01 20.47-15.05.25 65.99-.06 131.99.15 197.99-13.06 11.3-26.46 22.24-40.23 32.68-13.4-10.76-26.99-21.38-39.81-32.78-.01-62.5.05-125-.04-187.5 6.71 4.56 13.33 9.28 20.14 13.69.18 43.78.99 87.59 4.66 131.23 1.1 13.54 1.25 27.4 5.59 40.43 1.51 3.95 3.81 8.38 8.09 9.84 4.25.9 7.78-2.5 9.44-6.06 4.11-8.37 4.95-17.88 5.96-27.03.94-12.88 1.91-25.74 2.91-38.6 2.68-39.55 3.12-79.21 2.67-118.84" class="st6"></path></g><g id="_x23_ec2e38ff" transform="matrix(.1202 0 0 .1202 -.02 -.257)"><path id="path3275" d="M782.5 1051.06c35.41-.15 70.85 0 106.28 0 .14 72.01.01 144.03.05 216.04-.11 28.2.25 56.4-.19 84.59-7.79-8.42-14.6-17.71-22.06-26.43-14.55-16.99-26.94-35.66-40.31-53.56-7.64-10.73-15.64-21.19-23.14-32-6.83-10.91-14.21-21.5-20.76-32.56.35-52.02.07-104.06.13-156.08" class="st7"></path><path id="path3277" d="M968.86 1050.88c8.16.41 16.34.11 24.51.21 27.16-.34 54.3.1 81.48-.14.09 27.83.05 55.66.01 83.49-19.7-5.33-41.06-5.36-60.53.98 7.43-.64 16.5-1.35 21.5 5.43 7.93 11.25 7.05 25.79 10.14 38.68 3.94 16.01 13.43 32.19 28.98 39.23-.15 36.61.01 73.23-.09 109.84-10.84-7.64-21.73-15.21-32.55-22.89 7.46-3.66 14.65-8.8 18.11-16.63 6.28-13.43 2.98-29.16-3.27-41.96-6.7-14.93-21.7-24.15-28.11-39.24-2.5-5.34-1.27-11.85 2.25-16.43 2.25-2.61 4.88-4.88 7.06-7.54-19.48 12.55-35.53 31.29-43.08 53.36-8.71-3.53-17.16-7.8-26.39-9.91.09-58.83.14-117.65-.02-176.48" class="st7"></path><path id="path3279" d="M1154.84 1051.08c35.43-.21 70.84-.03 106.26-.12.05 56.8.03 113.6 0 170.4-12.71 1.66-24.54 6.72-36.09 12.04-6.18-18.53-18.61-34.53-33.6-46.83-2.14-1.86-4.51-3.41-6.99-4.75 2.69 3.7 6.36 6.95 7.53 11.55 1.39 4.35.36 9.08-1.72 13.03-4.26 7.94-10.51 14.53-16.45 21.21-11.49 12.54-18.69 29.86-16.98 47 1.18 12.35 10.23 22.98 21.83 26.99-7.44 6.66-15.93 12.04-23.79 18.2 0-33.66.05-67.33-.01-100.98 14.14-6.43 22.99-20.49 27.91-34.69 4.09-14.15 2.49-30.21 10.84-42.95 5.18-7.06 14.66-6.51 22.43-5.79-19.75-6.01-41.24-6.5-61.11-.85-.08-27.82 0-55.63-.06-83.46" class="st7"></path><path id="path3281" d="M1341.08 1051.02c35.3.21 70.58-.31 105.85 0 .35 29.56-.41 59.13.29 88.69-.22 8.72-.2 17.45-.25 26.18.96 13.9-.99 27.84.35 41.74-7.44 11.61-14.85 23.26-22.46 34.79-15.26 21-30.59 41.94-45.88 62.93-5.6 8.04-12.21 15.29-18.29 22.95-6.54 7.77-12.74 15.84-19.51 23.41-.24-100.24-.05-200.46-.1-300.69" class="st7"></path><path id="path3283" d="M1154.77 1343.18c12.38-9.06 24.68-18.23 37.15-27.14 1.59 12.93 10.9 24.76 23.73 27.99 15.16 3.99 31.65.65 45.23-6.82.65 34.76-.05 69.55.35 104.31-34.15 34.55-69.35 68.1-106.3 99.65-.22-66 .09-132-.16-197.99" class="st7"></path><path id="path3285" d="M1027.9 1322.17c4.1 1.55 7.36 4.54 10.99 6.9 12.01 8.13 23.94 16.39 35.96 24.5.09 62.5.03 125 .04 187.5-37.1-31.14-71.76-65.04-106.06-99.19v-.38c.27-31.93.04-63.86.12-95.8 12.99 4.35 27.86 6.36 40.7.44 9.64-4.28 16.39-13.68 18.25-23.97" class="st7"></path></g><g id="_x23_7c7c81ff" transform="matrix(.1202 0 0 .1202 -.02 -.257)"><path id="path3288" d="M1111.41 1085.16c3.69-3.57 7.83.75 10.83 3.08 14.05 12.51 20.76 30.98 25.12 48.8 2.5-.85 4.99-1.7 7.53-2.49 19.88-5.65 41.36-5.16 61.11.85-7.76-.72-17.25-1.28-22.43 5.79-8.35 12.74-6.75 28.8-10.84 42.95-4.93 14.2-13.78 28.26-27.91 34.69-8.08 3.24-17.13 3-25.21-.05 2.21 38.64 4.04 77.31 4.5 116.01 7.29-4.44 13.79-10.04 20.73-14.99 7.86-6.16 16.35-11.54 23.79-18.2-11.6-4.01-20.65-14.64-21.83-26.99-1.71-17.14 5.49-34.46 16.98-47 5.94-6.69 12.19-13.28 16.45-21.21 2.09-3.95 3.11-8.68 1.72-13.03-1.16-4.6-4.84-7.85-7.53-11.55 2.47 1.34 4.85 2.89 6.99 4.75 14.99 12.3 27.43 28.3 33.6 46.83 11.55-5.31 23.38-10.38 36.09-12.04 8.88-1.29 18.46-1.32 26.61 2.93-.41 7.36.81 14.93-1.35 22.13-3.75 13.45-10.74 25.8-19.14 36.89 20.28 11.56 36.63 30.1 45.56 51.66-3.1-4.22-5.88-9.02-10.61-11.62-4.07-2.46-9.19-2.41-13.6-1-10.14 3.08-18.71 9.53-27.7 14.88-13.58 7.47-30.06 10.81-45.23 6.83-12.83-3.23-22.14-15.06-23.72-27.99-12.48 8.91-24.78 18.08-37.15 27.14-6.81 5.04-13.81 9.81-20.48 15.05.45 39.63.01 79.29-2.66 118.83-1 12.86-1.97 25.72-2.91 38.6-1.01 9.15-1.85 18.65-5.96 27.03-1.66 3.56-5.19 6.96-9.44 6.06-4.28-1.46-6.58-5.89-8.09-9.84-4.34-13.03-4.49-26.89-5.59-40.43-3.68-43.64-4.49-87.45-4.66-131.23-6.81-4.41-13.43-9.12-20.14-13.69-12.03-8.11-23.95-16.38-35.96-24.5-3.62-2.36-6.89-5.35-10.99-6.9-1.86 10.29-8.61 19.69-18.25 23.98-12.84 5.93-27.71 3.91-40.7-.44-14.6-5.54-26.19-18.01-42.03-20.38-8.43-.98-14.13 5.97-18.6 11.99 8.98-20.91 25.05-38.81 44.84-50.05-8.38-10.96-15.51-23.15-19.16-36.54-2.25-7.39-1.54-15.2-1.24-22.79 11.41-4.79 24.39-3.49 36.13-.59 9.23 2.11 17.68 6.39 26.39 9.91 7.55-22.07 23.6-40.81 43.08-53.36-2.19 2.66-4.81 4.93-7.06 7.54-3.53 4.57-4.75 11.09-2.25 16.43 6.41 15.09 21.41 24.31 28.11 39.24 6.25 12.8 9.55 28.54 3.28 41.96-3.46 7.83-10.65 12.96-18.11 16.62 10.83 7.68 21.71 15.25 32.55 22.89 6.9 4.63 13.3 10.05 20.63 14.03.36-41.31 2.01-82.6 4.7-123.81-8.11 2.94-17.2 3.41-25.24-.05-15.55-7.04-25.04-23.21-28.98-39.23-3.09-12.89-2.21-27.43-10.14-38.68-5-6.77-14.08-6.06-21.5-5.43 19.46-6.34 40.83-6.3 60.53-.97 2.53.76 4.99 1.72 7.46 2.66 4.73-19.34 12.21-40 29.08-51.96m1.73 2.96c-11.25 7.14-17.94 19.38-22.43 31.55-2.12 6.36-4.4 12.81-4.78 19.56 11.93 5.05 21.54 14.24 29.2 24.48 6.79-11.16 17.6-19.28 29.15-25.05-3.8-17.35-10.16-35.29-23.68-47.49-2.21-1.36-4.63-5.05-7.46-3.05m-78.15 46.16c-.01.25-.04.74-.05.98 4 3.45 7.05 7.97 8.31 13.15 3.65 13.6 4.05 28.03 9.34 41.19 3.09 8.09 8.7 14.95 15.06 20.7 5.57 5.05 13.01 8.16 20.61 7.62 10.07-.09 19.2-6.2 24.76-14.33-6.14-11.19-5.76-25.19-.05-36.46-6.45-10.66-15.97-19.41-27.14-24.93-15.67-7.67-33.63-9.72-50.84-7.92m120.15 3.49c-11.41 4.14-22.1 10.6-30.64 19.26-7.36 7.26-13.51 16.93-13.16 27.61.46 9 3.24 18.31 9.55 24.98 7.54 7.72 19.48 9.86 29.71 7.36 9.76-2.89 16.7-11.05 22.4-19.03 9.81-15.14 9.16-33.91 14.05-50.73 1.41-5.09 4.76-9.29 8.64-12.75-13.54-1.22-27.53-.96-40.55 3.3m41.17 56.91c-.24 5.22-1.34 10.51-4.33 14.9-8.09 11.79-18.99 21.51-25.94 34.11-4.61 8.26-6.46 17.85-6.3 27.25-.51 17.39 17.71 32.76 34.8 28.8 10.69-2.4 21.43-8.75 25.94-19.15 6.18-13.99 5.44-30.04 1.77-44.59-3.79-16.22-14.54-29.63-25.94-41.32m-194.57 34.67c-5.33 12.64-7.61 26.63-6.31 40.3 1.11 9.54 4.45 19.56 12.26 25.73 7.78 6.2 17.95 10.34 28.01 8.65 9.04-1.6 16.7-7.98 21.28-15.74 5.29-10.09 3.51-22.18.48-32.66-5.55-16.26-19.08-27.74-28.35-41.74-2.94-4.42-4.1-9.75-4.16-15-9.41 8.66-17.66 18.88-23.21 30.46m103.56-13.88c-1.58.76-2 2.49-2.06 4.1-1.12 25.03-2.8 50.03-3.43 75.09-1.04 18.09-.57 36.23-1.36 54.31-5.72-3.04-10.62-7.34-16.04-10.84-14.64-10.35-29.4-20.55-43.91-31.05-3.61-1.01-7.44-.1-11.04.54.3 3.2.38 6.43.9 9.63 2.78 3.12 6.72 4.86 10.05 7.32 19.71 13.65 39.56 27.11 59.3 40.71 1.22 3.26.21 7.14.47 10.65.76 37.08.65 74.24 3.93 111.21 1.46 14.17 1.3 28.55 4.15 42.58 1.06 4.89 2.2 10.06 5.44 14.05 1.74 2.7 5.86 1.49 7.16-1 4.35-7.34 5.04-16.04 6.29-24.28 1.15-17.11 2.84-34.18 3.73-51.31 2.21-36.9 2.41-73.88 2.45-110.84 20.12-15.34 41.09-29.61 60.99-45.25.18-2.65.34-5.27.43-7.9-3.16-.12-6.31-.51-9.46-.31-17.61 12.44-34.46 25.99-52.16 38.28-1.16-19.88-.4-39.83-1.8-59.69-.59-20.44-1.91-40.83-2.95-61.24-.2-1.6-.07-3.56-1.67-4.48-3.7-2.59-6.86-5.8-10.01-9-2.79 3.3-5.81 6.36-9.4 8.72m120.7 21.35c3.29 12.59 3.69 26.14-.41 38.6 12.99-1.45 26.19.95 38 6.46 7.94-9.49 14.62-20.2 18.65-31.94 2.31-7.57 4.24-15.93 1.91-23.68-3.35-1.64-7.14-2.06-10.8-2.29-16.7-.96-32.84 5.15-47.35 12.85m-289.76-6.76c-1.62 3.69-1.11 8.04-.9 12 2.06 15.98 10.46 30.39 20.38 42.76.89 1.58 2.66.12 3.86-.14 10.99-4.64 23.15-6.62 35.03-5.12-3.88-12.57-3.53-26.13-.39-38.81-10.84-5.64-22.33-10.49-34.51-12.18-7.79-1.26-15.99-1.17-23.47 1.49m286.7 51.82c-5.18 10.5-15.29 18.11-26.64 20.74-2.78 10.25-.95 22.12 6.62 29.95 7.42 8.61 19.69 10.15 30.4 9.51 13.84-.45 25.91-8.03 37.53-14.79 8.81-5.06 18.34-11.34 29.04-9.05-7.84-12.29-18.44-22.86-30.96-30.35-12.85-7.66-28.33-11.21-43.18-8.99-1.74-.1-2.06 1.86-2.81 2.98m-257.44 3.67c-18.95 6.26-34.58 20.36-45.28 36.95 9.33-2.46 18.14 2.36 25.91 6.9 12.43 7.11 24.95 15.64 39.66 16.71 10.64.56 22.65-.4 30.59-8.39 8.14-7.93 10.67-20.39 7.5-31.14-12.43-2.69-23.11-11.72-27.93-23.48-10.15-1.27-20.69-.9-30.45 2.45" style="fill:#7c7c81"></path></g><g id="_x23_2a9827ff" transform="matrix(.1202 0 0 .1202 -.02 -.257)" data-source="https://football-logos.cc"><path id="path3291" d="M1105.3 1215.47c3.59-2.36 6.61-5.43 9.38-8.71 3.15 3.2 6.31 6.41 10.01 9 1.6.91 1.47 2.88 1.67 4.47 1.04 20.41 2.36 40.8 2.95 61.24 1.4 19.86.64 39.81 1.8 59.69 17.7-12.29 34.55-25.84 52.16-38.28 3.15-.2 6.3.19 9.46.31-.09 2.62-.25 5.25-.43 7.9-19.9 15.64-40.86 29.91-60.99 45.25-.04 36.96-.24 73.94-2.45 110.84-.89 17.14-2.57 34.2-3.72 51.31-1.25 8.24-1.94 16.94-6.29 24.28-1.3 2.49-5.42 3.7-7.16 1-3.24-3.99-4.38-9.16-5.44-14.05-2.85-14.03-2.69-28.4-4.15-42.58-3.28-36.97-3.16-74.14-3.93-111.21-.26-3.51.75-7.39-.47-10.65-19.74-13.6-39.59-27.06-59.3-40.71-3.32-2.46-7.28-4.2-10.05-7.32-.53-3.2-.6-6.43-.9-9.62 3.6-.64 7.43-1.55 11.04-.54 14.51 10.5 29.28 20.7 43.91 31.05 5.41 3.5 10.31 7.8 16.04 10.84.79-18.09.32-36.23 1.36-54.31.62-25.06 2.3-50.06 3.43-75.09.07-1.62.49-3.35 2.07-4.11" style="fill:#2a9827"></path></g><!-- source: https://football-logos.cc --></svg>