<svg xmlns="http://www.w3.org/2000/svg" viewBox="13.83 141.19 567.61 559.17"><!-- Source: https://football-logos.cc --><path d="m439.016 243.772 2.108 64.407c-21.79 15.596-47.295 32.174-70.196 49.42-69.107 52.044-140.177 103.327-209.414 147.455-4.585 2.922-10.404 6.155-11.531.093-3.275-17.604-2.851-39.282-1.125-62.39z" style="fill:none" data-source="https://football-logos.cc"></path><path d="m238.989 442.172-.168.117zm.013-1.13 8.763-60.294 5.88-4.082 9.604 48.351-5.882 4.11-1.827-10.8-8.513 6.078-2.063 13.568-5.975 4.199zm25.57-16.921-.094-55.091 5.73-3.752 8.287 28.306.01-34.383 5.346-3.575.035 54.97-5.53 3.597-8.276-26.156.077 32.554zm22.813-52.796c.478-8.482 3.42-21.72 10.756-26.863 5.94-4.165 9.927.186 11.321 7.36 1.677 8.622.766 21.087.282 25.09-.918 7.59-4.134 19.196-10.663 23.783-5.86 4.117-9.486-.43-11.014-7.024-1.82-7.851-.851-19.347-.682-22.346m34.097 12.68.221-55.082 8.514-5.974c2.144-1.504 4.098-2.532 5.19-2.404 6.207.73 6.925 13.81 6.668 22.24-.332 10.88-.676 27.31-10.106 33.895zm23.868-16.742.135-54.633 7.04-5.024c2.804-2.001 4.623-3.154 5.49-3.345 5.433-1.197 5.879 10.008 5.797 12.718-.424 14.072-2.672 19.663-12.719 26.136l.038 20.154zm38.715-81.85 6.09-4.198 5.354 34.302 2.447-19.86c.892-7.236 1.6-14.578 2.372-21.853l6.2-4.133-8.088 60.511-5.877 3.995zm-11.982 62.945.099-44.837-7.326 5.315.017-10.166 19.192-13.257.07 10.087-6.687 4.168.436 44.743zm36.19-38.725c-1.821-7.852-.887-19.171-.718-22.17.48-8.483 3.092-21.792 10.428-26.935 5.94-4.164 9.927.187 11.322 7.36 1.676 8.623.765 21.088.282 25.09-.918 7.59-4.134 19.197-10.663 23.784-5.86 4.117-9.123-.535-10.652-7.13m32.851-1.454-2.109-64.407-290.157 198.985c-1.726 23.108-2.15 44.786 1.125 62.39 1.127 6.062 6.946 2.829 11.531-.093 69.237-44.128 140.307-95.411 209.414-147.454 22.901-17.247 48.407-33.825 70.196-49.421M208.628 417.714c-4.248 4.356-5.445 13.756-5.51 22.085-.019 2.226-.579 18.705 5.078 14.526 3.632-2.684 4.672-10.95 5.028-15.063l5.32.013c-.747 7.494-3.229 20.468-9.896 25.14-9.958 6.977-11.064-16.015-11.109-20.813-.098-10.313 1.563-29.667 10.657-36.022 2.578-1.802 5.616-1.9 7.376.28 1.267 1.571 3.025 5.572 2.81 9.724l-5.303 6.64c-.315-2.707-.776-4.781-1.44-6.065-.595-1.15-1.988-1.494-3.01-.445m-14.59 22.241-.008 9.982-11.546 7.686-.004 14.071 13.23-9.938.01 10.417-19.239 13.82.202-55.41 18.21-12.396.044 10.382-12.585 8.707.01 10.68zm-26.933 29.206-.003 23.265-5.759 4.159.054-23.345-8.88-25.514 6.45-4.41 5.017 16.247 4.956-23.569 6.543-4.315zm266.232-163.904-.164-11.013 5.179-3.513.011 11.484z" style="fill:#fad13b;fill-rule:evenodd"></path><path d="m433.337 305.257-.164-11.013 5.179-3.513.011 11.484z" style="fill:#f3573e;fill-rule:evenodd"></path><path d="M412.741 292.698c.15 6.153.256 10.373 1.586 12.584 1.326 2.205 2.891 2.689 4.714 1.404 3.696-2.606 5.035-10.22 5.45-14.598.501-5.263.71-17.15-1.594-21.041-1.258-2.126-2.435-2.146-4.339-.804-5.658 3.991-5.972 16.11-5.817 22.455m-5.186-5.236c.48-8.482 3.092-21.79 10.429-26.934 5.94-4.164 9.927.187 11.321 7.36 1.677 8.623.766 21.088.282 25.09-.918 7.59-4.134 19.197-10.663 23.784-5.86 4.117-9.123-.535-10.652-7.13-1.82-7.851-.886-19.17-.717-22.17M392.563 334.177l-8.498-48.764 6.09-4.198 5.354 34.302 2.447-19.86c.892-7.236 1.6-14.578 2.372-21.853l6.2-4.133-8.088 60.511zM372.083 348.358l.099-44.837-7.326 5.315.017-10.166 19.192-13.257.07 10.087-6.687 4.168.436 44.743z" style="fill:#fd5241;fill-rule:evenodd"></path><path d="m351.013 318.54-.008 15.011c.96-.658 1.77-1.408 2.516-1.972 3.858-2.924 4.573-7.24 4.606-11.368.016-2.09-.187-4.726-2.099-4.686-1.133.023-3.77 2.125-5.015 3.015zm-5.663 48.723.135-54.633 7.04-5.024c2.804-2.001 4.623-3.154 5.49-3.345 5.433-1.197 5.879 10.008 5.797 12.718-.424 14.072-2.672 19.663-12.719 26.136l.038 20.154zM327.745 335.074l.02 34.828 2.976-2.24c5.937-4.466 5.533-14.205 5.709-21.938.21-9.282-.81-16.089-4.595-13.481zm-6.042-6.151 8.514-5.974c2.144-1.504 4.098-2.532 5.19-2.404 6.207.73 6.925 13.81 6.668 22.24-.332 10.88-.676 27.31-10.106 33.895l-10.487 7.325z" style="fill:#ef5740;fill-rule:evenodd"></path><path d="m264.573 424.12-.095-55.09 5.73-3.752 8.287 28.306.01-34.383 5.346-3.575.035 54.97-5.53 3.597-8.276-26.156.077 32.554z" style="fill:#fd5241;fill-rule:evenodd"></path><path d="m253.764 409.418-2.715-14.215-2.683 18.008zm9.485 15.6-5.882 4.11-1.827-10.802-8.513 6.08-2.063 13.567-6.143 4.316 8.944-61.541 5.88-4.082z" style="fill:#f3573e;fill-rule:evenodd"></path><path d="m213.224 439.262 5.32.013c-.747 7.494-3.229 20.468-9.896 25.14-9.958 6.977-11.064-16.015-11.109-20.812-.098-10.314 1.563-29.668 10.657-36.023 2.578-1.802 5.616-1.9 7.376.28 1.267 1.571 3.025 5.572 2.81 9.724l-5.303 6.64c-.315-2.707-.776-4.781-1.44-6.065-.595-1.15-1.988-1.494-3.01-.445-4.249 4.356-5.446 13.756-5.512 22.085-.017 2.226-.578 18.705 5.079 14.526 3.632-2.684 4.672-10.95 5.028-15.063M176.482 485.993l.201-55.41 18.21-12.396.045 10.382-12.585 8.707.01 10.68 11.675-8-.008 9.98-11.546 7.687-.004 14.071 13.23-9.938.01 10.417zM161.344 496.585l.053-23.345-8.88-25.514 6.45-4.41 5.017 16.247 4.957-23.569 6.543-4.315-8.38 37.482-.002 23.265z" style="fill:#f6583d;fill-rule:evenodd"></path><path d="M292.899 376.631c.15 6.154.255 10.373 1.585 12.584 1.327 2.205 3.125 2.968 4.714 1.405 3.744-3.684 4.766-10.28 5.182-14.658.5-5.262.602-16.53-1.7-20.42-1.258-2.126-2.201-2.38-3.894-.78-5.611 5.304-6.043 15.525-5.887 21.87m-5.514-5.306c.478-8.482 3.42-21.72 10.756-26.863 5.94-4.165 9.927.186 11.321 7.36 1.677 8.622.766 21.087.282 25.09-.918 7.59-4.134 19.196-10.663 23.783-5.86 4.117-9.486-.43-11.014-7.024-1.82-7.851-.851-19.347-.682-22.346" style="fill:#fd5241;fill-rule:evenodd"></path><path d="m221.385 454.276.153-54.687 5.847-3.898.01 44.493 11.718-8.731-.124 10.719z" style="fill:#f6583d;fill-rule:evenodd"></path><path d="m251.049 395.203-2.683 18.008 5.398-3.793zM292.899 376.631c.15 6.154.255 10.373 1.585 12.584 1.327 2.205 3.125 2.968 4.714 1.405 3.744-3.684 4.766-10.28 5.182-14.658.5-5.262.602-16.53-1.7-20.42-1.258-2.126-2.201-2.38-3.894-.78-5.611 5.304-6.043 15.525-5.887 21.87M327.745 335.074l.02 34.828 2.976-2.24c5.937-4.466 5.533-14.205 5.709-21.938.21-9.282-.81-16.089-4.595-13.481zM351.013 318.54l-.008 15.011c.96-.658 1.77-1.408 2.516-1.972 3.858-2.924 4.573-7.24 4.606-11.368.016-2.09-.187-4.726-2.099-4.686-1.133.023-3.77 2.125-5.015 3.015zM412.741 292.698c.15 6.153.256 10.373 1.586 12.584 1.326 2.205 2.891 2.689 4.714 1.404 3.696-2.606 5.035-10.22 5.45-14.598.501-5.263.71-17.15-1.594-21.041-1.258-2.126-2.435-2.146-4.339-.804-5.658 3.991-5.972 16.11-5.817 22.455" style="fill:#fad13b;fill-rule:evenodd"></path><path d="M287.825 252.074c.196-.43.595-1.003 1.063-.937l6.687.937c1.67.234 1.934 2.011 1.688 3.313-.23 1.212-.58 2.793-.875 5.5-.196 1.79-.93 3.136-2.25 3.25-2.684.23-4.926-.408-7.25-1.563-.926-.46-1.655-1.738-1.438-2.75.61-2.837 1.348-5.496 2.375-7.75" style="fill:#004384;fill-rule:evenodd"></path><path d="M284.543 231.419c8.43.04 17.517.794 26.625 2.562 1.061.206 1.986 1.256 1.437 2.125-.997 1.58-2.025 3.149-2.875 4.812-.142.28-.486.723-.062.938 1.983 1.008 3.192.868 4.875 1.562.962.397 1.782 2.187 1.062 2.938-1.184 1.235-3.098 1.957-4.375 3.25-.449.454-.794 1.226-.406 1.734.597.784 1.15 1.748.875 2.5-.191.525-1.178.967-1.719.766-.52-.194-1.454-.533-1.625.375-.32 1.699-.32 3.435-.156 5.156.15 1.566.391 3.841 1.047 4.844.878 1.341 2.035 1.206 3.172.938.871-.206 1.71-.675 2.563-.812 1.035-.167 1.9.288 2.53 1.125 2.009 2.658 2.63 5.961 3.285 9.062.175.828.45 2.18-.219 2.563-.905.518-2.167.673-3.03 1.312-.32.236-.45.958-.126 1.188 2.26 1.598 4.143 1.942 7.188 3.187 1.254.514 1.334 1.52.75 1.813-2.401 1.2-3.97 1.085-6.5.945-1.906-.105-2.69 1.362-2.313 2.242.606 1.414 4.953 2.837 7.313 4.75.45.366 1.312 1.331.625 1.625-1.518.65-3.5-.315-4.876.876-.446.385-.817 1.353-.25 1.75 1.286.898 2.821.35 4.625.875.904.263 1.672 1.372 1.625 2.312-.137 2.739-3.771 2.9-5.937 2.688-2.233-.218-4.31-.819-6.5-1.75-.909-.387-1.227-1.353-1.375-2.625-.543-4.658.203-7.339-.5-11.625-.619-3.766-3.735-6.123-8.25-7.938-2.05-.824-4.498-.808-6.625.25-2.119 1.055-3.657 3.397-4.25 5.688-1.304 5.038-1.184 10.144-1.25 15.563-3.899.213-12.62 3.628-17.876 3.437-2.103-.076-3.776-2.04-5.125-3.687-.626-.766-.003-2.21.438-2.938.775-1.28 2.328-1.58 3.781-1.937 2.718-.67 5.773.268 8.532-.86 1.556-.635 1.26-1.91 0-2.39-2.259-.86-4.55-.332-7.25-.187-.82.044-1.958-.546-2.11-1.352-.143-.761.796-1.418 1.484-1.774 1.221-.63 2.466-.714 4.032-1.375.953-.402.815-1.836.219-2.187a2.28 2.28 0 0 0-2.438.062c-.75.49-2.025.603-2.687-.062-.737-.74-1.365-1.922-.188-3.125 1.877-1.919 3.83-2.867 6.937-3.062.744-.047 2.183-.48 2.188-1.625.003-.792-.031-1.566-1.22-1.844-.877-.205-1.801.655-2.843.219-.894-.375-.798-1.858-.75-2.812.21-4.13 1.293-6.43 3.125-9 1.349-1.892 2.694-3.833 3.75-5.876 1.18-2.28 1.673-4.934 1.75-7.5.2-6.612.139-13.772-.127-19.69" style="fill:none"></path><path d="M294.138 264.137c-2.684.23-4.926-.408-7.25-1.563-.926-.46-1.655-1.738-1.438-2.75.61-2.837 1.348-5.496 2.375-7.75.196-.43.595-1.003 1.063-.937l6.687.937c1.67.234 1.934 2.011 1.688 3.313-.23 1.212-.58 2.793-.875 5.5-.196 1.79-.93 3.136-2.25 3.25m17.03-30.156c-9.108-1.768-18.194-2.521-26.625-2.562.266 5.917.327 13.077.128 19.69-.078 2.565-.571 5.219-1.75 7.5-1.057 2.042-2.402 3.983-3.75 5.875-1.833 2.57-2.916 4.87-3.126 9-.048.954-.144 2.437.75 2.812 1.042.436 1.966-.424 2.844-.219 1.188.278 1.222 1.052 1.219 1.844-.005 1.145-1.444 1.578-2.188 1.625-3.106.195-5.06 1.143-6.937 3.062-1.177 1.203-.549 2.385.187 3.125.663.665 1.938.553 2.688.062a2.28 2.28 0 0 1 2.438-.062c.596.351.734 1.785-.219 2.187-1.566.66-2.81.745-4.032 1.375-.688.356-1.627 1.013-1.484 1.774.152.806 1.29 1.396 2.11 1.352 2.7-.145 4.991-.672 7.25.187 1.26.48 1.556 1.755 0 2.39-2.759 1.128-5.814.19-8.532.86-1.453.357-3.006.657-3.781 1.937-.441.728-1.064 2.172-.438 2.938 1.349 1.648 3.022 3.611 5.125 3.687 5.255.191 13.977-3.224 17.875-3.437.067-5.419-.053-10.525 1.25-15.563.594-2.291 2.132-4.633 4.25-5.688 2.128-1.058 4.575-1.074 6.626-.25 4.515 1.815 7.631 4.172 8.25 7.938.703 4.286-.043 6.967.5 11.625.148 1.272.466 2.238 1.375 2.625 2.19.931 4.267 1.532 6.5 1.75 2.166.212 5.8.05 5.937-2.688.047-.94-.72-2.05-1.625-2.312-1.804-.525-3.339.023-4.625-.875-.568-.397-.196-1.365.25-1.75 1.376-1.19 3.358-.226 4.876-.876.687-.294-.175-1.26-.625-1.625-2.36-1.913-6.707-3.336-7.313-4.75-.377-.88.407-2.347 2.313-2.242 2.53.14 4.099.255 6.5-.945.584-.293.504-1.3-.75-1.813-3.045-1.245-4.929-1.589-7.188-3.187-.325-.23-.194-.952.125-1.188.864-.639 2.126-.794 3.031-1.312.669-.383.394-1.735.219-2.563-.654-3.1-1.276-6.404-3.284-9.062-.632-.837-1.496-1.292-2.531-1.125-.853.137-1.692.606-2.563.812-1.137.268-2.294.403-3.172-.938-.656-1.003-.898-3.278-1.047-4.844-.164-1.72-.164-3.457.156-5.156.171-.908 1.104-.569 1.625-.375.541.201 1.528-.24 1.72-.765.274-.753-.28-1.717-.876-2.5-.388-.509-.043-1.28.406-1.735 1.277-1.292 3.19-2.015 4.375-3.25.72-.751-.1-2.54-1.062-2.938-1.683-.694-2.892-.553-4.875-1.562-.424-.215-.08-.659.062-.937.85-1.664 1.878-3.233 2.875-4.813.549-.869-.376-1.919-1.437-2.125" style="fill:#fff;fill-rule:evenodd"></path><path d="M300.664 283.78c.513-.427 1.406-.903 1.938-.5 1.781 1.349 3.207 3.21 4.25 5.187 1 1.896 1.45 4.065 1.75 6.188.227 1.61.215 3.3-.188 4.875-.285 1.114-.855 2.3-1.812 2.937-.8.533-1.92.283-2.875.188-1.151-.116-2.354-.27-3.375-.813-1.002-.533-2.176-1.224-2.5-2.312-.72-2.42-.63-5.045-.438-7.563.145-1.91.731-3.783 1.438-5.562.392-.989.995-1.945 1.812-2.626M273.173 214.78h1.108c.623 0 1.133.51 1.133 1.133v.795c0 .623-.51 1.134-1.133 1.134h-1.108c-.623 0-1.133-.51-1.133-1.134v-.795c0-.623.51-1.134 1.133-1.134M301.205 216.78h1.107c.624 0 1.134.51 1.134 1.134v.795c0 .623-.51 1.134-1.134 1.134h-1.107c-.623 0-1.134-.51-1.134-1.134v-.795c0-.623.51-1.134 1.134-1.134M324.72 217.473h.755c.426 0 .774.348.774.773v.542a.776.776 0 0 1-.774.774h-.755a.776.776 0 0 1-.774-.774v-.542c0-.425.348-.773.774-.773M316.665 225.156h1.313c.739 0 1.343.51 1.343 1.133v.795c0 .624-.604 1.134-1.343 1.134h-1.313c-.739 0-1.344-.51-1.344-1.134v-.794c0-.624.605-1.134 1.344-1.134M306.745 307.457h1.227a1.26 1.26 0 0 1 1.257 1.257v.88a1.26 1.26 0 0 1-1.257 1.257h-1.227a1.26 1.26 0 0 1-1.257-1.257v-.88a1.26 1.26 0 0 1 1.257-1.257" style="fill:#fff;fill-rule:evenodd"></path><path d="M275.228 221.844c.719-.208 1.9-.278 2.72.313 1.182.851 2.624 1.181 2.624 2.624 0 .613.213 1.592-.266 1.973-1.288 1.025-1.73 1.323-2.671 2.117-.652.55-1.516.81-2.25.374-1.319-.78-2.188-1.493-2.938-2.718-.32-.523-.135-1.313-.016-1.918.315-1.588 1.41-2.363 2.797-2.765" style="fill:#fffdfe;fill-rule:evenodd"></path><path d="M288.475 222.266c.737-.125 1.727-.278 2.719.312 1.252.746 3.015 1.588 3.015 3.031 0 .613-.178 1.186-.656 1.567-1.289 1.025-1.884 1.634-2.851 1.605-1.175-.034-1.951-.03-2.805-.051-1.21-.031-2.075-.302-3.172-1.438-.426-.44-.457-1.572.078-2.152.904-.978 1.753-2.55 3.672-2.874M300.274 224.244c.598-.297 1.317-.2 2.655-.047.944.108 2.478.596 3 1.29.274.365.12 1.326-.195 1.435-.706.244-1.249.299-1.869.244-1.052-.094-1.275.214-2.247.265-1.563.083-2.478-.635-2.478-1.259v-.794c0-.624.575-.858 1.134-1.134M271.672 307.701l2.229-.98a2.5 2.5 0 0 1 3.284 1.28l.703 1.599a2.5 2.5 0 0 1-1.278 3.285l-2.229.98a2.5 2.5 0 0 1-3.285-1.28l-.703-1.599a2.5 2.5 0 0 1 1.28-3.285M261.735 309.95h1.404c.791 0 1.439.546 1.439 1.213v.85c0 .668-.648 1.215-1.439 1.215h-1.404c-.792 0-1.439-.547-1.439-1.214v-.85c0-.668.647-1.214 1.439-1.214M271.734 320.013c-.38.345-.604 1.058-.344 1.5.404.687 1.23 1.106 2 1.312 1.159.311 2.448.543 3.594.188 2.118-.657 4.102-1.792 5.875-3.125.481-.362.904-1.222.562-1.719-.672-.98-1.865-1.647-3.03-1.875-1.27-.248-2.656.02-3.845.531-1.767.76-3.389 1.894-4.812 3.188M285.547 310.591c-.3.392-.21 1.177.187 1.469.87.637 2.029.777 3.094.938.763.114 1.573.095 2.313-.125.973-.29 1.953-.708 2.718-1.376.372-.324.739-.992.47-1.406-.63-.965-1.71-1.598-2.75-2.093-.743-.354-1.683-.7-2.439-.375-1.427.613-2.647 1.736-3.593 2.968M311.434 315.176h1.227a1.26 1.26 0 0 1 1.257 1.257v.88c0 .691-.573 1.357-1.257 1.257l-1.18-.172c-.684-.1-1.304-.393-1.304-1.085v-.88a1.26 1.26 0 0 1 1.257-1.257M290.606 318.708h1.055c.691-.001 1.055.36 1.25 1.022l.343 1.17c.194.662-.73 1.202-1.421 1.202h-1.228c-.69 0-1.542-.643-1.366-1.311l.242-.92c.176-.67.433-1.163 1.124-1.163M297.287 311.872c-.51.166-.883.88-.781 1.406.334 1.724.852 3.546 2 4.875.52.6 1.632.468 2.375.187 1.406-.53 2.762-1.368 3.75-2.5.426-.487.633-1.536.125-1.937-2.402-1.9-4.513-2.999-7.469-2.031M315.725 307.685c-.026-.42.342-.82.687-1.062.672-.472 1.44-.873 2.25-1 .708-.111 1.435.122 2.126.312.458.127.928.307 1.28.625.628.566 1.273 1.189 1.594 1.97.27.654.417 1.493.094 2.124-.476.932-1.339 1.702-2.281 2.156-.414.2-1 .405-1.438.22-.78-.332-1.56-.696-2.25-1.188-.45-.321-1.192-.662-1.437-1.157-.457-.92-.561-1.974-.625-3M326.063 225.094h1.23c.693 0 1.26.567 1.26 1.26v.883c0 .693-.568 1.287-1.26 1.26l-1.617-.06c-.692-.027-1.555-.634-1.26-1.26l.387-.823c.295-.627.567-1.26 1.26-1.26M233.628 315.596c-.442.382-1.09.317-1.472-.125-.383-.443-.553-.817-.181-1.269 1.024-1.244 2.295-1.515 3.346-1.528 1.02-.012 1.938.338 2.976 1.047.766.524 1.361 1.025 2.093 1.635.197.165.257.248.73.605.084.064.575.412.655.472.419.31.896.502 1.345.522.59.026 1.067.053 1.973-.41 1.462-.745 2.57-1.438 3.988-2.05.731-.314 1.385-.616 2.042-.912.534-.24 1.46.264 1.7.798.241.534-.06 1.476-.593 1.716-.758.341-1.552.769-2.248 1.069-1.435.618-2.541 1.22-3.8 1.968-1.227.728-2.756.852-3.615.704-1.031-.177-1.63-.885-2.552-1.607-.259-.204-1.115-.726-1.5-1.026-.703-.548-.94-.871-1.695-1.388-.674-.46-1.306-.688-1.88-.681-.538.006-.804.021-1.312.46M236.539 329.247c-.43.087-.345 1.317.093 1.313 5.204-.048 11.095 2.568 16.938 6.875.413.304 1.01 1.048 1.376.688 2.604-2.57 6.91-4.277 10.814-4.594 3.577-.29 6.86 2.157 10.375 2.875 1.204.247 2.516.37 3.687 0 5.162-1.631 10.067-4.632 16-5 .439-.026.564-1.296.125-1.311-5.325-.181-10.369.907-14.656 3.124-.716.37-1.616-.066-2.407-.219-4.39-.847-8.652-2.847-13.124-2.78-3.471.051-6.927.852-9.937 3.125-.504.38-1.28-.155-1.844-.438-2.62-1.31-4.79-3.71-7.656-4.312-3.2-.67-6.58.004-9.784.654" style="fill:#fff;fill-rule:evenodd"></path><path d="M233.918 343.625c-.012.27.422.493.687.437 2.006-.42 3.83-1.935 5.875-1.812 1.721.103 3.253.95 4.563 2.437.957 1.087 1.99 2.224 3.312 2.813 1.446.643 3.11.639 4.688.75 1.103.077 2.207-.168 3.312-.188 3.054-.055 5.504-2.144 7.938-3.375 1.236-.624 2.62-1.24 4-1.125 1.054.089 1.878.809 2.688 1.688.644.7 1.358 1.486 2.28 1.718.446.112 1.155-.425 1.063-.875-.32-1.57-.948-3.224-2.125-4.312-1.187-1.098-2.884-1.747-4.5-1.813-1.642-.066-3.238.723-4.718 1.438-2.454 1.184-4.424 3.335-7 4.22-1.383.474-2.998.176-4.376-.313-1.248-.444-2.155-1.544-3.187-2.375-1.427-1.15-2.574-2.694-4.188-3.563-1.18-.635-2.621-1.063-3.937-.812-2.014.384-3.957 1.35-5.563 2.625-.67.532-.775 1.581-.812 2.437M232.261 357.69c-.09.373.74.806.961.491 1.362-1.935 4.779-2.682 7.446-2.648 4.532.058 9.21 1.101 13.28 3.094.768.375 1.58-.592 1.313-.906-2.073-2.441-6.956-4.752-10.781-5.438-3.411-.611-7.612-.34-10.25 1.75-1.085.86-1.643 2.311-1.969 3.657" style="fill:#fffef1;fill-rule:evenodd"></path><path d="M294.348 536.347q.092.444.162.896c.516 3.368.95 6.692.896 10.111a3.5 3.5 0 0 1-.094.74q.26-.493.555-.96c.833-1.318 2.245-1.807 3.684-2.127 3.023-.671 6.326-.456 9.23-1.336 2.32-.702 4.567-1.812 6.488-3.296 5.268-4.07 10.872-8.361 15.121-13.505a2.5 2.5 0 0 1 .938-.708c.966-.423 2.07-.196 2.847.498.718.64 1.059 1.561 1.102 2.507.384 8.336-3.979 16.276-8.604 22.914-4.035 5.791-10.255 10.803-16.708 13.621-2.961 1.294-6.528 1.374-9.61.459-2.488-.74-4.45-2.87-5.584-5.14-1.14-2.281-1.287-4.926-1.078-7.428a14.3 14.3 0 0 1 .846-3.767 5.6 5.6 0 0 1-.973 1.122c-.76.659-1.645 1.426-2.176 2.295.018.141.097.365.137.469.835 2.196 1.629 4.215 2.064 6.544.375 2.005-1.164 3.47-3.092 3.362-4.484-.25-8.846-2.103-11.364-5.96-1.745-2.673-2.22-5.754-2.844-8.812-.474-2.319-.324-4.618-.557-6.925-.102.972-.366 1.945-.618 2.93-.181.707-.223 1.493-.273 2.219-.09 1.301-.196 2.564-.676 3.792-.726 1.857-3.352 2.565-4.989 1.506-2.695-1.742-4.833-3.782-6.07-6.785-1.997-4.85-3.604-10.124-3.237-15.424.359-5.185.673-10.973 4.397-14.993 1.075-1.16 2.612-2.06 4.244-1.873q.336.039.668.115a12 12 0 0 1-1.882-1.407c-1.34-1.216-1.912-3.445-1.046-5.084 2.69-5.09 8.958-8.178 14.377-9.413 6.028-1.373 12.639-.587 18.39 1.578 6.323 2.38 11.304 4.727 14.677 11.048.994 1.861.774 4.85-1.337 5.852-3.545 1.682-7.476 2.034-11.334 2.311-1.64.119-3.256-.548-4.562-1.5-1.636-1.195-2.605-2.748-3.959-4.178-1.001-1.057-1.906-1.698-3.384-1.27-2.572.743-5.214.964-7.815 1.532-2.755.602-4.977 1.955-7.958 1.857a7.6 7.6 0 0 1-1.777-.279 8.4 8.4 0 0 1 1.643 1.436c1.217 1.382 2.07 3.213 2.12 5.07a7 7 0 0 1-.05 1.037c-.21 1.793-1.045 3.215-1.36 4.884-.262 1.397-.764 3.123-.603 4.532.271 2.362.688 4.277 1.55 6.394l-.02-.098c-.374-1.886-1.039-3.494-.941-5.483.154-3.138.258-6.335 1.802-9.166 1.766-3.236 4.354-6.319 7.73-7.934 2.565-1.227 5.6-.667 8.1.446 1.856.826 2.664 2.245 2.994 4.201.215 1.277-.106 2.039-.95 2.9-.374.671-1.26 1.932-1.315 2.408-.089.77-.04 1.583.065 2.398.058-.94.258-1.866.644-2.726.778-1.736 2.386-3.17 4.193-3.761 2.596-.849 4.962-.497 7.577-.716 1.91-.16 3.802-.824 5.489-1.715 3.087-1.63 6.268-3.553 8.822-5.944.98-.917 1.913-1.871 2.862-2.803q-.21.138-.422.272c-1.407.883-3.505.547-4.544-.757-5.725-7.184-12.846-12.03-21.916-13.919a2.1 2.1 0 0 1-1.09-.605c-1.384-1.456-.098-4.038 1.836-4.009 5.574.084 11.164-.105 16.666.975 5.578 1.093 9.874 4.085 13.41 8.447 1.065 1.314 1.624 3.283.753 4.842-.314.563-.68 1.092-1.085 1.59q.385-.285.789-.552c1.426-.945 3.594-.615 4.685.7 1.652 1.99 3.113 4.28 3.554 6.871.57 3.344-.991 6.819-3.14 9.315-5.595 6.504-11.353 12.048-18.524 16.855-2.54 1.702-5.586 3.045-8.7 2.896-3.04-.146-6.127-1.655-8.179-3.89a10.2 10.2 0 0 1-1.667-2.499" style="fill:#013e7d;fill-rule:evenodd"></path><path d="M265.724 516.515c.646-.697 1.619-1.358 2.563-1.25 1.306.149 2.568.95 3.437 1.937.913 1.037 1.588 2.432 1.625 3.813.05 1.889-1.026 3.643-1.375 5.5-.319 1.69-.821 3.415-.625 5.125.312 2.72.769 4.964 2.125 7.937.674 1.477.132 3.174-.28 4.782-.478 1.86-.176 3.992-.875 5.78-.26.664-1.465.95-2.063.563-2.58-1.668-4.307-3.434-5.313-5.875-1.886-4.579-3.435-9.59-3.093-14.53.341-4.923.62-10.27 3.874-13.782m2.282-8.67c-.43.812-.056 2.069.625 2.687 1.301 1.18 3.026 2.16 4.782 2.219 2.56.084 4.966-1.266 7.469-1.813 2.55-.557 5.18-.775 7.688-1.5 2.227-.644 3.839.191 5.375 1.813 1.236 1.305 2.235 2.878 3.688 3.938.926.676 2.106 1.208 3.25 1.125 3.602-.26 7.362-.576 10.625-2.125.95-.45.933-2.197.437-3.125-3.241-6.073-8.33-8.131-13.625-10.125-5.401-2.033-11.622-2.782-17.25-1.5-5.048 1.15-10.73 3.99-13.064 8.405m27.75-15.064c-.25-.004-.558.636-.312.687 9.659 2.011 17.143 7.196 23.064 14.626.407.511 1.383.66 1.937.312 1.747-1.096 3.432-2.512 4.438-4.312.436-.781 0-1.93-.563-2.625-2.938-3.624-6.755-6.672-12.25-7.75-5.345-1.048-10.867-.856-16.313-.938m31.659 14.972c.579-.384 1.618-.222 2.062.313 1.428 1.72 2.75 3.732 3.125 5.937.462 2.713-.917 5.63-2.687 7.688-5.33 6.193-10.758 11.561-18.126 16.5-2.194 1.472-4.86 2.69-7.5 2.563-2.513-.121-5.111-1.397-6.812-3.25-1.79-1.95-2.357-4.794-2.938-7.375-.334-1.486-.373-3.173.25-4.563.55-1.225 1.724-2.27 3-2.687 2.266-.741 4.788-.429 7.126-.625 2.173-.182 4.321-.919 6.25-1.937 3.29-1.738 6.62-3.786 9.25-6.25 2.294-2.147 4.38-4.58 7-6.314m-29.871 40.441c.488-.771 1.546-1.052 2.438-1.25 3.083-.684 6.352-.458 9.375-1.374 2.55-.772 5.016-1.995 7.125-3.625 5.463-4.222 11.176-8.653 15.438-13.812.377-.456 1.316-.154 1.375 1.125.358 7.773-3.828 15.342-8.25 21.688-3.902 5.601-9.897 10.327-15.874 12.938-2.523 1.102-5.611 1.158-8.25.375-1.921-.571-3.479-2.333-4.375-4.125-.96-1.919-1.054-4.238-.875-6.375.163-1.95.827-3.91 1.873-5.565m-5.653-26.558c.242-.504.863-.493.687-1.531-.25-1.484-.748-2.231-1.843-2.719-2.107-.938-4.534-1.38-6.438-.469-2.963 1.418-5.27 4.21-6.844 7.094-1.35 2.475-1.423 5.497-1.562 8.313-.083 1.692.576 3.339.906 5 .254 1.277.677 2.522.844 3.813.313 2.425.104 4.916.594 7.312.568 2.782 1.01 5.747 2.562 8.125 1.956 2.996 5.484 4.821 9.813 5.063.358.02 1.202-.1 1.03-1.016-.425-2.276-1.155-4.068-1.968-6.203-.257-.676-.422-1.436-.062-2.063.653-1.138 1.665-2.047 2.656-2.906.529-.459 1.145-1.423 1.156-2.125.053-3.376-.378-6.546-.874-9.781-.36-2.352-1.272-4.594-1.687-6.938-.336-1.896-.782-3.837-.562-5.75.136-1.19 1.074-2.14 1.592-3.219" style="fill:#fbfffc;fill-rule:evenodd"></path><path d="M370.928 357.6C301.82 409.643 230.75 460.926 161.514 505.054c-4.585 2.922-10.404 6.155-11.531.093-3.275-17.604-2.851-39.282-1.125-62.39l290.158-198.985 2.108 64.407c-21.79 15.596-47.295 32.174-70.196 49.42m-230.434 93.715c-1.249 18.087-.9 35.778.25 53.25.389 5.901 2.302 10.49 7.735 13.281 3.129 1.607 6.145 2.796 10.016 3.719 3.381.806 8.711-1.224 11.815-3.459l94.311-67.915 66.25-46.5 71.126-51.124c17.688-12.562 35.525-24.917 53.063-37.687 1.692-1.232 1.53-2.607 1.5-4.062l-1.312-60.5c0-1.271-.368-2.612-1.126-3.625-2.134-2.857-4.623-5.727-7.375-7.75-2.127-1.564-4.267-1.69-6.343-1.72-3.07-.04-4.157 1.386-6.407 2.22l-24.25 18.125-20.75 16.187c-80.18 52.23-159.752 106.357-239.253 159.684-6.146 4.124-8.692 9.794-9.25 17.876" style="fill:#023e86;fill-rule:evenodd"></path><text x="239.112" y="270.798">
    <tspan font-size="45" style="font-size:45px;font-family:Arial;fill:#023b88">Y</tspan>
  </text><text x="338.612" y="270.798">
    <tspan font-size="45" style="font-size:45px;font-family:Arial;fill:#023b88">Y</tspan>
  </text><path d="M230.82 199.753h140.828v85.281l-35.385 23.372c.195-14.591-.846-25.983-.871-26.447-.224-4.12-2.137-7.864-3.862-9.732-1.643-1.78-2.423-4.344-2.685-6.75-1.025-9.41-1.24-18.907-1.14-28.37.009-.838.38-1.69 1.462-2.042 2.812-.915 3.04-3.433 3.105-5.873.112-4.116.515-8.352-.494-12.344-.638-2.524-1.83-5.646-4.277-6.534-2.151-.781-4.894-.612-6.893-.285-1.782.291-3.007 2.036-3.76 3.897-.428 1.058-.917 1.922-2.01 2.246-.648.192-1.68.236-2.331.176-2.155-.197-2.647-1.808-3.107-3.168-.708-2.092-.73-4.541-2.073-6.295-.98-1.28-2.75-1.991-4.358-2.103-3.598-.251-7.373-.164-10.77 1.047-2.093.746-4.272 2.394-4.887 4.534-.395 1.376-.88 2.677-1.87 3.615-1.162 1.102-2.233.923-3.09.41-2.406-1.443-4.861-3.269-7.658-3.498-2.099-.172-4.476.793-5.847 2.39-1.332 1.551-1.334 3.958-1.344 6.002l-.046 9.338c3.469 3.163 6.185 5.211 8.267 8.599 1.487 2.419 1.759 5.437 2.093 8.257.408 3.444.885 7.023.12 10.406-.785 3.467-3.046 6.425-4.647 9.598-3.304 6.549-7.789 12.594-10.064 19.566-1.672 5.121-.663 10.776-1.575 16.086-.135.785-.726 1.71-1.509 1.853-8.705 1.6-18.872 2.758-29.025-2.323z" style="fill:none"></path><path d="M371.648 199.753H230.82l.297 100.909c10.153 5.08 20.32 3.924 29.025 2.323.783-.144 1.374-1.068 1.509-1.853.912-5.31-.097-10.965 1.574-16.086 2.276-6.972 6.761-13.017 10.065-19.566 1.6-3.173 3.862-6.131 4.647-9.598.765-3.383.288-6.962-.12-10.406-.334-2.82-.606-5.839-2.093-8.257-2.082-3.388-4.798-5.437-8.267-8.6l.046-9.337c.01-2.044.012-4.451 1.344-6.002 1.371-1.597 3.748-2.562 5.847-2.39 2.797.23 5.252 2.055 7.659 3.498.856.513 1.927.692 3.09-.41.99-.939 1.474-2.239 1.87-3.615.614-2.14 2.793-3.788 4.886-4.534 3.397-1.211 7.172-1.299 10.77-1.047 1.609.112 3.378.822 4.358 2.103 1.343 1.754 1.365 4.203 2.073 6.295.46 1.36.951 2.97 3.107 3.168.652.06 1.683.016 2.33-.176 1.094-.324 1.583-1.188 2.01-2.246.753-1.861 1.98-3.606 3.76-3.897 2-.327 4.743-.496 6.894.285 2.447.888 3.639 4.01 4.277 6.534 1.009 3.992.606 8.228.494 12.344-.066 2.44-.293 4.958-3.105 5.873-1.081.351-1.454 1.204-1.462 2.041-.1 9.464.115 18.962 1.14 28.37.262 2.407 1.042 4.972 2.685 6.75 1.725 1.869 3.638 5.613 3.862 9.732.025.465 1.066 11.857.871 26.447q9.448-6.255 18.904-12.485l16.481-10.886zm-132.536 38.953h6.77l6.762 12.707 6.583-12.707h6.643l-10.484 18.63v13.462h-5.79v-13.506zm109.984 32.092v-13.506l-10.484-18.586h6.77l6.762 12.707 6.584-12.707h6.642l-10.483 18.63v13.462z" style="fill:#f3573e;fill-rule:evenodd"></path><path d="M221.48 186.806h152.865a2.85 2.85 0 0 1 2.835 2.834v304.781c0 64.598-29.292 134.425-79.188 172.762-49.092-32.568-71.117-66.663-78.059-114.595-2.425-16.748-1.288-36.104-1.288-58.167v-304.78a2.843 2.843 0 0 1 2.835-2.835" style="fill:none"></path><path d="m264.954 450.82-40.683 29.296.12 60.121c.071 35.431 20.222 73.472 29.977 79.19 3.187 1.867 6.339 2.927 10.586 3.297v-74.018a12.6 12.6 0 0 1-1.846-3.123c-1.997-4.85-3.604-10.124-3.237-15.424.359-5.185.673-10.973 4.397-14.993.212-.228.442-.447.686-.649zM330.872 403.692l.178 103.162c1.633 1.978 3.071 4.249 3.508 6.816.57 3.344-.991 6.819-3.14 9.315l-.368.427v2.892q.135-.08.278-.142c.966-.422 2.07-.196 2.847.498.718.64 1.059 1.561 1.102 2.507.256 5.554-1.595 10.932-4.227 15.866v76.082c0 1.125 1.346 1.49 2.035.593 18.307-23.828 38.453-74.655 38.372-122.825l-.21-124.224c-12.967 9.33-25.927 18.672-38.899 27.996z" style="fill:#f3573e;fill-rule:evenodd" data-source="https://football-logos.cc"></path><path d="M304.194 542.736c-3.04-.146-6.127-1.655-8.179-3.89a10.2 10.2 0 0 1-1.667-2.499q.092.444.162.896c.516 3.368.95 6.692.896 10.111a3.5 3.5 0 0 1-.094.74q.26-.493.555-.96c.833-1.318 2.245-1.807 3.684-2.127 3.023-.671 6.326-.456 9.23-1.336 2.32-.702 4.567-1.812 6.488-3.296 5.268-4.07 10.872-8.361 15.121-13.505.187-.226.41-.417.66-.566v-2.892c-5.481 6.32-11.143 11.726-18.156 16.428-2.54 1.702-5.586 3.045-8.7 2.896" style="fill:#013d85;fill-rule:evenodd"></path><path d="M304.194 542.736c-3.04-.146-6.127-1.655-8.179-3.89a10.2 10.2 0 0 1-1.667-2.499q.092.444.162.896c.516 3.368.95 6.692.896 10.111a3.5 3.5 0 0 1-.094.74q.26-.493.555-.96c.833-1.318 2.245-1.807 3.684-2.127 3.023-.671 6.326-.456 9.23-1.336 2.32-.702 4.567-1.812 6.488-3.296 5.268-4.07 10.872-8.361 15.121-13.505.187-.226.41-.417.66-.566v-2.892c-5.481 6.32-11.143 11.726-18.156 16.428-2.54 1.702-5.586 3.045-8.7 2.896" style="fill:#013d85;fill-rule:evenodd"></path><path d="M295.312 548.094q.26-.493.555-.96c.833-1.318 2.245-1.807 3.684-2.127 3.023-.671 6.326-.456 9.23-1.336 2.32-.702 4.567-1.812 6.488-3.296 5.268-4.07 10.872-8.361 15.121-13.505.187-.226.41-.417.66-.566v-2.892c-5.481 6.32-11.143 11.726-18.156 16.428-2.54 1.702-5.586 3.045-8.7 2.896-3.04-.146-6.127-1.655-8.179-3.89a10.2 10.2 0 0 1-1.667-2.499q.092.444.162.896c.516 3.368.95 6.692.896 10.111a3.5 3.5 0 0 1-.094.74M240.48 342.25c-2.045-.123-3.869 1.392-5.875 1.812-.265.056-.699-.166-.687-.437.037-.856.142-1.905.812-2.437 1.606-1.275 3.549-2.241 5.563-2.625 1.316-.251 2.757.177 3.937.812 1.614.869 2.76 2.413 4.188 3.563 1.032.83 1.939 1.93 3.187 2.375 1.378.49 2.993.787 4.375.312 2.577-.885 4.547-3.035 7-4.22 1.481-.714 3.077-1.503 4.72-1.437 1.615.066 3.312.715 4.5 1.813 1.176 1.087 1.803 2.742 2.124 4.312.092.45-.617.987-1.062.875-.923-.232-1.637-1.018-2.282-1.718-.81-.88-1.633-1.6-2.687-1.688-1.38-.116-2.764.5-4 1.125-2.434 1.23-4.884 3.32-7.938 3.375-1.105.02-2.21.265-3.312.188-1.579-.111-3.242-.107-4.688-.75-1.323-.59-2.355-1.726-3.312-2.813-1.31-1.487-2.842-2.334-4.563-2.437m95.784-33.844c.194-14.591-.847-25.983-.872-26.447-.224-4.12-2.137-7.864-3.862-9.732-1.643-1.78-2.423-4.344-2.685-6.75-1.025-9.41-1.24-18.907-1.14-28.37.009-.838.38-1.69 1.462-2.042 2.812-.915 3.04-3.433 3.105-5.873.112-4.116.515-8.352-.494-12.344-.638-2.524-1.83-5.646-4.277-6.534-2.151-.781-4.894-.612-6.893-.285-1.782.291-3.007 2.036-3.76 3.897-.428 1.058-.917 1.922-2.01 2.246-.648.192-1.68.236-2.331.176-2.155-.197-2.647-1.808-3.107-3.168-.708-2.092-.73-4.541-2.073-6.295-.98-1.28-2.75-1.991-4.358-2.103-3.598-.251-7.373-.164-10.77 1.047-2.093.746-4.272 2.394-4.887 4.534-.395 1.376-.88 2.677-1.87 3.615-1.162 1.102-2.233.923-3.09.41-2.406-1.443-4.861-3.269-7.658-3.498-2.099-.172-4.476.793-5.847 2.39-1.332 1.551-1.334 3.958-1.344 6.002l-.046 9.338c3.469 3.163 6.185 5.211 8.267 8.599 1.487 2.419 1.759 5.437 2.093 8.257.408 3.444.885 7.023.12 10.406-.785 3.467-3.046 6.425-4.647 9.598-3.304 6.549-7.789 12.594-10.064 19.566-1.672 5.121-.663 10.776-1.575 16.086-.135.785-.726 1.71-1.509 1.853-8.705 1.6-18.872 2.758-29.025-2.323l-.297-100.91h140.828v85.282l-16.48 10.886a9365 9365 0 0 0-18.905 12.486m0 0q9.447-6.256 18.903-12.486l-.094.062zM218.645 189.64v205.25799999999998l158.535-108.72V189.64a2.85 2.85 0 0 0-2.835-2.834H221.48a2.843 2.843 0 0 0-2.835 2.834m34.925 147.795c-5.843-4.307-11.734-6.923-16.938-6.875-.438.004-.523-1.226-.093-1.313 3.203-.65 6.585-1.325 9.784-.654 2.866.601 5.036 3.003 7.656 4.312.565.283 1.34.818 1.844.438 3.01-2.273 6.466-3.074 9.938-3.125 4.47-.067 8.733 1.932 13.123 2.78.791.153 1.691.59 2.407.22 4.287-2.218 9.33-3.306 14.656-3.126.44.016.314 1.286-.124 1.313-5.934.367-10.838 3.368-16 5-1.172.37-2.484.246-3.688 0-3.516-.72-6.798-3.166-10.375-2.876-3.904.317-8.21 2.024-10.814 4.594-.365.36-.963-.384-1.376-.688m20.811-23.57a2.5 2.5 0 0 1-3.285-1.28l-.703-1.599a2.5 2.5 0 0 1 1.28-3.285l2.228-.98a2.5 2.5 0 0 1 3.285 1.28l.703 1.599a2.5 2.5 0 0 1-1.28 3.285zm16.54-12.882c-3.899.213-12.62 3.628-17.876 3.438-2.103-.077-3.776-2.04-5.125-3.688-.626-.766-.003-2.21.438-2.938.775-1.28 2.328-1.58 3.781-1.937 2.718-.67 5.773.268 8.532-.86 1.556-.635 1.26-1.91 0-2.39-2.259-.86-4.55-.332-7.25-.187-.82.044-1.958-.546-2.11-1.352-.143-.761.796-1.418 1.484-1.774 1.221-.63 2.466-.714 4.032-1.375.953-.402.815-1.836.219-2.187a2.28 2.28 0 0 0-2.438.063c-.75.49-2.025.602-2.687-.063-.737-.74-1.365-1.922-.188-3.125 1.877-1.919 3.83-2.867 6.937-3.062.744-.047 2.183-.48 2.188-1.625.003-.792-.031-1.566-1.22-1.844-.877-.205-1.801.655-2.843.219-.894-.375-.798-1.858-.75-2.812.21-4.13 1.293-6.43 3.125-9 1.349-1.892 2.694-3.833 3.75-5.876 1.18-2.28 1.673-4.934 1.75-7.5.2-6.612.139-13.772-.127-19.69 8.43.042 17.517.795 26.625 2.563 1.061.206 1.986 1.256 1.437 2.125-.997 1.58-2.024 3.149-2.875 4.813-.142.278-.485.722-.062.937 1.983 1.009 3.192.868 4.875 1.562.962.398 1.782 2.187 1.062 2.938-1.184 1.235-3.098 1.958-4.375 3.25-.448.455-.794 1.226-.406 1.734.597.784 1.15 1.748.875 2.5-.191.525-1.177.967-1.719.766-.52-.194-1.453-.533-1.625.375-.32 1.699-.32 3.435-.156 5.156.15 1.566.391 3.841 1.047 4.844.878 1.341 2.035 1.206 3.172.938.871-.206 1.71-.675 2.563-.812 1.035-.167 1.9.288 2.53 1.125 2.009 2.658 2.63 5.961 3.285 9.062.175.828.45 2.18-.219 2.563-.905.518-2.167.673-3.03 1.312-.32.236-.45.958-.126 1.188 2.26 1.598 4.143 1.942 7.188 3.187 1.254.514 1.334 1.52.75 1.813-2.401 1.2-3.97 1.085-6.5.945-1.906-.105-2.69 1.362-2.313 2.242.606 1.414 4.953 2.837 7.313 4.75.45.366 1.312 1.331.625 1.625-1.518.65-3.5-.315-4.876.876-.446.385-.817 1.353-.25 1.75 1.286.898 2.821.35 4.625.875.904.263 1.672 1.372 1.625 2.312-.137 2.739-3.771 2.9-5.937 2.688-2.233-.218-4.31-.818-6.5-1.75-.909-.387-1.227-1.353-1.375-2.625-.543-4.658.203-7.339-.5-11.625-.619-3.765-3.735-6.123-8.25-7.937-2.05-.825-4.498-.81-6.625.25-2.119 1.054-3.657 3.396-4.25 5.687-1.304 5.038-1.184 10.145-1.25 15.563m7.93-14.578c.393-.988.996-1.945 1.813-2.625.513-.427 1.406-.903 1.938-.5 1.781 1.349 3.207 3.21 4.25 5.187 1 1.896 1.45 4.065 1.75 6.188.227 1.61.215 3.3-.188 4.875-.285 1.114-.855 2.3-1.812 2.937-.8.533-1.92.283-2.875.188-1.151-.115-2.354-.27-3.375-.813-1.002-.533-2.176-1.224-2.5-2.312-.72-2.42-.63-5.045-.438-7.563.145-1.91.731-3.782 1.438-5.562m-48.869 30.76c-1.435.62-2.541 1.222-3.8 1.969-1.227.728-2.756.852-3.615.704-1.031-.177-1.63-.885-2.552-1.607-.259-.204-1.115-.726-1.5-1.026-.703-.548-.94-.871-1.695-1.388-.674-.46-1.306-.688-1.88-.681-.538.006-.804.021-1.312.46-.442.382-1.09.317-1.472-.125-.383-.443-.553-.817-.181-1.269 1.024-1.244 2.295-1.515 3.346-1.528 1.02-.012 1.938.338 2.976 1.047.766.524 1.361 1.025 2.093 1.635.197.165.257.248.73.605l.655.472c.419.31.896.502 1.345.522.59.026 1.067.053 1.973-.41 1.462-.745 2.57-1.438 3.988-2.05.732-.314 1.385-.616 2.043-.912.533-.24 1.46.264 1.7.798s-.06 1.476-.594 1.716c-.758.341-1.552.769-2.248 1.069m25.402-87.92c-1.318-.78-2.187-1.493-2.937-2.718-.32-.523-.135-1.313-.015-1.918.315-1.588 1.409-2.363 2.796-2.765.719-.208 1.9-.278 2.72.313 1.182.851 2.624 1.181 2.624 2.624 0 .613.213 1.592-.266 1.973-1.288 1.025-1.73 1.323-2.67 2.117-.653.55-1.517.81-2.252.374M234.23 354.033c2.638-2.09 6.839-2.361 10.25-1.75 3.825.686 8.708 2.997 10.781 5.438.267.314-.545 1.281-1.312.906-4.071-1.993-8.749-3.036-13.281-3.094-2.667-.034-6.084.713-7.446 2.648-.221.315-1.051-.118-.96-.491.325-1.346.883-2.797 1.968-3.657m55.01-33.242.241-.92c.176-.669.433-1.163 1.125-1.163h1.055c.691-.001 1.055.36 1.25 1.023l.343 1.17c.195.661-.731 1.2-1.421 1.2h-1.227c-.69 0-1.543-.642-1.367-1.31m9.266-2.638c-1.148-1.329-1.666-3.15-2-4.875-.102-.526.272-1.24.781-1.406 2.956-.967 5.067.13 7.47 2.031.507.401.3 1.45-.126 1.938-.988 1.131-2.344 1.969-3.75 2.5-.743.28-1.856.413-2.375-.188m17.219-10.468c-.026-.42.342-.82.688-1.062.671-.472 1.439-.873 2.25-1 .707-.111 1.434.122 2.125.312.458.127.928.307 1.28.625.628.566 1.273 1.189 1.594 1.97.27.654.417 1.493.094 2.124-.476.932-1.339 1.702-2.281 2.156-.414.2-1 .405-1.438.22-.78-.332-1.56-.696-2.25-1.188-.45-.321-1.192-.662-1.437-1.157-.457-.92-.561-1.974-.625-3m-5.548 8.748a1.26 1.26 0 0 1 1.257-1.257h1.227a1.26 1.26 0 0 1 1.257 1.257v.88c0 .691-.573 1.356-1.257 1.257l-1.18-.171c-.684-.1-1.304-.394-1.304-1.085zm-36.787 6.392c-.77-.206-1.596-.625-2-1.312-.26-.442-.036-1.155.344-1.5 1.423-1.294 3.045-2.428 4.812-3.188 1.189-.51 2.575-.779 3.844-.531 1.166.228 2.359.896 3.032 1.875.34.497-.082 1.357-.563 1.719-1.773 1.333-3.757 2.468-5.875 3.125-1.146.355-2.435.123-3.594-.188m12.344-10.765c-.398-.292-.488-1.077-.187-1.469.945-1.232 2.166-2.355 3.593-2.968.756-.325 1.696.021 2.438.375 1.04.495 2.121 1.128 2.75 2.093.27.414-.097 1.082-.469 1.407-.765.667-1.745 1.085-2.718 1.375-.74.22-1.55.24-2.313.125-1.065-.16-2.225-.3-3.094-.938m-24 1.168c-.79 0-1.438-.546-1.438-1.214v-.85c0-.668.647-1.214 1.439-1.214h1.404c.792 0 1.439.546 1.439 1.213v.851c0 .668-.647 1.214-1.439 1.214zm43.754-4.514a1.26 1.26 0 0 1 1.257-1.257h1.227a1.26 1.26 0 0 1 1.257 1.257v.88a1.26 1.26 0 0 1-1.257 1.257h-1.227a1.26 1.26 0 0 1-1.257-1.257zm20.188-80.278c-.692-.026-1.555-.633-1.26-1.26l.387-.822c.295-.627.567-1.26 1.26-1.26h1.23c.693 0 1.26.567 1.26 1.26v.883c0 .693-.568 1.287-1.26 1.26zm-24.058-1.005c-1.563.083-2.478-.635-2.478-1.259v-.794c0-.624.575-.858 1.134-1.134.598-.297 1.317-.2 2.655-.047.944.108 2.478.596 3 1.29.274.365.12 1.326-.195 1.435-.706.244-1.249.299-1.869.244-1.052-.094-1.275.214-2.247.265m-13.721 1.299c-1.21-.031-2.075-.302-3.172-1.438-.426-.44-.457-1.573.078-2.152.905-.978 1.753-2.55 3.672-2.874.737-.125 1.727-.278 2.719.312 1.252.746 3.015 1.588 3.015 3.031 0 .613-.178 1.186-.656 1.567-1.289 1.025-1.884 1.634-2.851 1.605-1.175-.034-1.951-.03-2.805-.051m28.768-.512c-.739 0-1.344-.51-1.344-1.134v-.794c0-.624.605-1.134 1.344-1.134h1.312c.74 0 1.344.51 1.344 1.134v.794c0 .624-.604 1.134-1.344 1.134zm8.055-8.656a.776.776 0 0 1-.774-.774v-.542c0-.425.348-.773.774-.773h.755c.426 0 .774.348.774.773v.542a.776.776 0 0 1-.774.774zm-23.515.28c-.623 0-1.134-.51-1.134-1.133v-.795c0-.623.51-1.134 1.134-1.134h1.107c.624 0 1.134.51 1.134 1.134v.795c0 .623-.51 1.134-1.134 1.134zm-28.032-2c-.623 0-1.133-.51-1.133-1.134v-.795c0-.623.51-1.134 1.133-1.134h1.108c.623 0 1.133.51 1.133 1.134v.795c0 .623-.51 1.134-1.133 1.134z" style="fill:#013e7d;fill-rule:evenodd"></path><path d="M274.167 550.862c-.726 1.857-3.352 2.565-4.988 1.506-1.64-1.06-3.075-2.23-4.225-3.662v74.018c-4.247-.37-7.4-1.43-10.586-3.298-9.755-5.717-29.906-43.758-29.977-79.189l-.12-60.121 40.683-29.296v63.697c.998-.823 2.247-1.374 3.558-1.224q.336.039.668.115a12 12 0 0 1-1.882-1.407c-1.34-1.216-1.912-3.445-1.046-5.084 2.69-5.09 8.958-8.178 14.377-9.413 6.028-1.373 12.639-.587 18.39 1.578 6.323 2.38 11.304 4.728 14.677 11.048.994 1.861.774 4.85-1.337 5.852-3.544 1.682-7.476 2.034-11.334 2.311-1.64.119-3.256-.548-4.562-1.5-1.636-1.195-2.605-2.748-3.959-4.178-1.001-1.057-1.906-1.698-3.384-1.27-2.572.743-5.214.964-7.815 1.532-2.755.602-4.977 1.955-7.958 1.857a7.6 7.6 0 0 1-1.777-.279 8.4 8.4 0 0 1 1.643 1.436c1.217 1.382 2.07 3.213 2.12 5.07a7 7 0 0 1-.05 1.037c-.21 1.793-1.045 3.215-1.36 4.884-.262 1.397-.764 3.123-.603 4.532.272 2.362.688 4.277 1.55 6.394l-.02-.098c-.374-1.886-1.039-3.494-.941-5.483.155-3.138.258-6.335 1.803-9.166 1.765-3.236 4.354-6.319 7.729-7.934 2.565-1.227 5.6-.667 8.1.446 1.856.826 2.664 2.245 2.994 4.202.215 1.276-.105 2.038-.95 2.9-.373.67-1.26 1.93-1.315 2.407-.089.77-.04 1.583.065 2.398.058-.94.259-1.866.644-2.726.778-1.736 2.387-3.17 4.193-3.761 2.596-.849 4.962-.497 7.577-.716 1.91-.16 3.802-.824 5.489-1.715 3.087-1.63 6.268-3.553 8.822-5.944.98-.917 1.913-1.871 2.863-2.803l-.423.272c-1.407.883-3.505.548-4.544-.757-5.725-7.184-12.846-12.03-21.916-13.919a2.1 2.1 0 0 1-1.09-.605c-1.384-1.456-.098-4.038 1.837-4.009 5.573.084 11.164-.105 16.665.975 5.578 1.093 9.874 4.085 13.41 8.447 1.065 1.314 1.624 3.283.753 4.842-.314.563-.68 1.092-1.085 1.59q.385-.285.789-.552c1.426-.945 3.594-.615 4.685.7l.046.055-.178-103.163-66.25 46.5-45.977 33.108v11.122c0 22.062-1.138 41.42 1.288 58.167 6.942 47.932 28.967 82.027 78.06 114.595 49.895-38.337 79.187-108.164 79.187-172.762V370.405l-5.933 4.265.21 124.213c.081 48.17-20.065 98.997-38.372 122.825-.689.897-2.035.532-2.035-.593v-76.082c-1.319 2.472-2.833 4.832-4.377 7.048-4.035 5.791-10.255 10.803-16.708 13.621-2.961 1.294-6.528 1.374-9.61.459-2.488-.74-4.45-2.87-5.584-5.14-1.14-2.281-1.287-4.926-1.078-7.428a14.3 14.3 0 0 1 .846-3.767 5.6 5.6 0 0 1-.973 1.122c-.76.659-1.645 1.426-2.176 2.295.018.141.097.365.137.469.835 2.196 1.629 4.215 2.064 6.544.375 2.005-1.164 3.47-3.092 3.362-4.484-.25-8.846-2.103-11.364-5.96-1.745-2.673-2.22-5.754-2.844-8.812-.474-2.319-.324-4.618-.557-6.925-.102.972-.366 1.945-.618 2.93-.181.707-.223 1.493-.273 2.219-.09 1.301-.196 2.564-.676 3.792" style="fill:#013e7d;fill-rule:evenodd"></path><path d="M297.66 165.107c-7.98-6.711-15.12-16.032-27.624-16-13.823.033-31.045 9.483-36.375 11.125-3.173.977-6.81 2.243-11.875 2-7.326-.353-14.785-.412-22-.501-3.699-.046-5.841 1.691-7.062 4.922-1.474 3.898-1.129 13.203.312 20.453.392 1.974.897 3.925 2.687 4.844 1.806.926 4.07 1.994 5.344 3.593.995 1.249 1.094 3.017 1.094 4.938v332.876c0 73.879 54.101 121.56 97.876 146.125 43.312-44.784 88.405-88.323 88.5-160.25.142-107.355.644-214.709 1.063-322.063.008-1.98 1.914-4.041 3.844-4.922 2.662-1.213 4.552-1.72 7.234-2.187.834-.145.88-.641 1.047-.953 1.541-5.083 1.627-11.642 1.625-17.5a16.26 16.26 0 0 0-1.906-7.672c-.752-1.416-2.682-1.816-4.22-2.016-6.291-.817-15.47-.067-23.093.344-4.816.259-9.11-.123-12.969-1.813-11.797-5.164-22.926-11.433-34.342-11.532-12.991-.112-20.21 7.888-29.16 16.189" style="fill:none"></path><path d="M297.66 165.107c-7.98-6.711-15.12-16.032-27.624-16-13.823.033-31.045 9.483-36.375 11.125-3.173.977-6.81 2.243-11.875 2-7.326-.353-14.785-.412-22-.501-3.699-.046-5.841 1.691-7.062 4.922-1.474 3.898-1.129 13.203.312 20.453.392 1.974.897 3.925 2.687 4.844 1.806.926 4.07 1.994 5.344 3.593.995 1.249 1.094 3.017 1.094 4.938v197.722q8.24-5.548 16.484-11.095V189.64a2.843 2.843 0 0 1 2.835-2.834h152.865a2.85 2.85 0 0 1 2.835 2.834v91.829q5.907-3.864 11.817-7.714l.297-.232q.154-38.176.306-76.354c.008-1.98 1.914-4.042 3.844-4.922 2.662-1.213 4.552-1.72 7.234-2.187.834-.145.88-.641 1.047-.953 1.541-5.084 1.627-11.642 1.625-17.5a16.26 16.26 0 0 0-1.906-7.672c-.752-1.416-2.682-1.816-4.22-2.016-6.291-.817-15.47-.067-23.093.344-4.816.259-9.11-.123-12.969-1.813-11.797-5.164-22.926-11.433-34.342-11.532-12.991-.112-20.21 7.888-29.16 16.189M218.645 483.3l-16.484 11.87v38.187c0 73.879 54.101 121.56 97.876 146.125 43.312-44.784 88.405-88.323 88.5-160.25.07-52.43.225-104.859.414-157.288l-11.771 8.461v124.016c0 64.598-29.292 134.425-79.188 172.762-49.092-32.568-71.117-66.663-78.059-114.595-2.425-16.748-1.288-36.105-1.288-58.167z" style="fill:#fad13b;fill-rule:evenodd"></path><path d="M196.523 200.72c-.003-1.013-.339-2.13-1.048-2.853-1.07-1.09-2.897-1.196-3.98-2.272-1.494-1.483-3.187-3.144-3.56-5.215-1.32-7.343-2.148-15.474-1.395-22.341.814-7.418 5.165-10.411 10.165-11.536 6.826-1.536 15.869-.165 23.8.026 5.627.136 9.956-.81 14.385-2.882 17.297-8.088 23.578-10.455 35.802-10.226 11.119.207 24.346 4.833 27.354 14.16 14.305-15.317 23.677-15.41 37.096-16.004 16.832-.747 28.367 6.409 40.265 12.867 2.8 1.52 6.227 1.73 9.414 1.674 5.558-.097 11.789-.38 17.849.468 4 .56 8.383 3.361 9.798 7.132 4.055 10.805 4.803 23.118 1.672 34.584-.65 2.38-3.135 4.089-6.073 4.059-1.408-.015-3.011-.4-4.35.035-.93.302-2.101 1.16-2.1 2.137l.534 325.068c.129 78.39-51.117 123.047-94.44 156.958l-9.865-2.041c-68.108-38.16-101.307-91.035-101.416-157.86.031-108.646.409-217.292.093-325.938" style="fill:none"></path><path d="M196.523 200.72c.195 67.084.126 134.168.037 201.253l5.601-3.77V200.48c0-1.921-.1-3.69-1.094-4.938-1.274-1.599-3.538-2.667-5.344-3.593-1.79-.919-2.295-2.87-2.687-4.844-1.44-7.25-1.786-16.555-.312-20.453 1.221-3.23 3.363-4.968 7.062-4.922 7.215.089 14.674.148 22 .5 5.066.244 8.702-1.022 11.875-2 5.33-1.641 22.552-11.09 36.375-11.125 12.503-.03 19.644 9.29 27.625 16 8.948-8.3 16.168-16.3 29.159-16.188 11.416.099 22.545 6.368 34.342 11.532 3.86 1.69 8.153 2.072 12.969 1.813 7.623-.411 16.802-1.161 23.094-.344 1.537.2 3.467.6 4.219 2.016a16.27 16.27 0 0 1 1.906 7.672c.002 5.858-.084 12.416-1.625 17.5-.167.312-.213.808-1.047.953-2.682.466-4.572.974-7.234 2.187-1.93.88-3.837 2.942-3.844 4.922q-.152 38.178-.306 76.354l12.42-9.69-.097-59.3c-.002-.977 1.17-1.835 2.1-2.137 1.339-.436 2.942-.05 4.35-.035 2.938.03 5.423-1.68 6.073-4.059 3.13-11.466 2.383-23.779-1.672-34.584-1.415-3.77-5.798-6.573-9.798-7.132-6.06-.849-12.291-.565-17.85-.468-3.186.056-6.612-.154-9.413-1.674-9.076-4.927-17.955-9.353-29.107-12.18-6.904-1.75-15.776-1.07-21.368 0-8.57 1.641-16.463 4.157-26.886 15.317-3.008-9.327-16.235-13.953-27.354-14.16-12.224-.229-18.505 2.138-35.802 10.226-4.43 2.072-8.758 3.018-14.385 2.882-7.931-.19-16.974-1.562-23.8-.026-5 1.125-9.351 4.118-10.165 11.536-.753 6.867.075 14.997 1.395 22.341.373 2.071 2.066 3.732 3.56 5.215 1.083 1.076 2.91 1.181 3.98 2.271.71.724 1.046 1.84 1.048 2.854M469.054 592.573c-14.474 10.927-28.647 24.11-34.931 33.606 39.863 9.613 70.493-8.673 95.323-38.332 5.123-6.12 11.31-14.938 14.597-22.19-8.778 1.07-22.736-1.681-39.859 6.55 26.85-13.445 38.558-37.41 50.598-59.732 9.695-17.975 17.431-42.448 20.039-57.753-7.384 4.14-10.696 6.834-17.554 12.347 7.617-9.815 11.448-16.722 16.35-28.42 9.88-23.572 8.326-52.723 6.402-68.257-2.615 3.477-5.126 5.615-13.301 17.62 1.422-4.978 4.48-12.348 5.55-29.973.425-7.014.54-12.727.189-19.742-.41-8.153-1.933-16.088-3.038-24.176-1.489-10.896-4.3-25.815-7.609-35.152-2.697 4.188-3.717 7.784-5.736 12.607 1.672-22.637-4.8-43.23-13.381-63.389-1.42-3.336-3.196-6.509-4.794-9.763-2.888 9.634-4.84 13.987-6.152 24.094-1.987-31.632-25.877-68.476-45.712-79.993-.028 27.277 4.501 39.37 12.204 57.39-4.41-4.267-11.126-8.176-14.57-10.476 2.6 21.615 6.532 49.185 19.619 67.54-.183-.148-9.06-6.001-11.533-7.278 2.345 11.913 2.506 29.37 13.13 49.574l-1.085.684c-2.19 15.533-3.327 38.756 3.04 67.801-.559-1.009-2.095-3.354-3.391-4.539-1.466 4.81-10.438 36.205-9.342 68.828l-2.6-12.532c-13.209 25.078-20.458 40.114-23.768 69.654-27.742 19.07-65.121 72.419-64.02 111.045 25.99-2.159 56.994-39.314 61.106-72.936-.777 16.902 2.374 37.666 4.229 45.293m49.677-78.266c7.255-24.024 9.382-44.798 5.652-69.808 3.396 6.985 4.941 9.553 7.692 13.454-4.288 14.373-6.838 36.43-5.697 41.991-1.936 4.413-6.283 11.277-7.647 14.363m-6.96 15.792c-2.913 7.785-6.909 20.955-13.15 44.271-7.15 2.956-16.109 8.383-25.432 15.142 24.629-31.359 28.502-64.804 25.835-97.303 1.795 15.207 7.455 27.444 12.748 37.89m13.204-229.906c3.226 3.104 6.015 4.416 9.094 5.602 3.173 10.766 9.276 20.732 12.34 25.726-1.22 10.5-1.846 10.016-2.307 20.553-3.418-25.448-8.63-36.925-19.127-51.881m18.291 66.814c-.598 17.513-1.163 24.288 4.276 51.973-2.007 3.723-6.67 13.772-7.188 15.246 2.796-19.766 2.406-27.946-1.398-47.698-2.678-13.9-5.888-19.449-12.864-32.372 4.325 4.823 11.371 9.056 17.174 12.851m-20.148-114.013c1.623 1.202 3.158 2.323 6.892 5.097-.57 3.3-.797 7.506-.662 10.035.004.05-1.342-5.942-6.23-15.132" style="fill:#013e7d;fill-rule:evenodd"></path><path d="M370.972 618.647c32.268.638 63.8 10.677 94.75 28.624.528.306.706.594-.062.938-17.798 7.971-54.176 14.28-76.47 9.281-14.137-3.17-27.353-10.98-33.952-20.234" style="fill:none"></path><path d="M372.117 618.673c31.869.85 63.022 10.864 93.605 28.598.528.306.706.594-.062.938-17.798 7.971-54.176 14.28-76.47 9.281-13.334-2.99-25.849-10.108-32.765-18.672q8.757-9.688 15.692-20.145" style="fill:#fad13b;fill-rule:evenodd"></path><path d="M372.548 615.27c30.516-1.352 64.768 10.943 101.125 33.187.287.175.188.878-.125 1-31.866 12.502-67.529 18.243-93.093 10.344-11.02-3.405-25.218-12.244-26.75-19.625" style="fill:none"></path><path d="M356.425 638.818c6.916 8.564 19.431 15.682 32.766 18.672 22.293 4.999 58.67-1.31 76.469-9.281.768-.344.59-.632.062-.938-30.583-17.734-61.736-27.748-93.605-28.598a161 161 0 0 0 2.237-3.468c30.059-.8 63.678 11.446 99.32 33.252.286.175.187.878-.125 1-31.867 12.502-67.53 18.243-93.094 10.344-10.426-3.22-23.694-11.306-26.394-18.418q1.199-1.275 2.364-2.565" style="fill:#013e7d;fill-rule:evenodd"></path><path d="M464.577 518.733c.18 19.444-5.054 40.187-11.675 53.713-9.851 20.12-24.323 34.337-43.116 42.709.274-5.775 2.03-15.851 6.6-27.003 10.489-25.597 31-58.464 48.19-69.419M442.076 624.483c12.823-17.736 36.024-36.972 60.773-47.203 11.053-4.569 23.391-6.472 33.384-7.183-1.383 3.051-3.77 5.45-5.71 8.568-10.652 17.115-28.538 31.3-37.759 36.444-16.485 9.195-34.692 11.366-50.688 9.374M472.639 582.983c-5.361-52.952-.265-97.886 18.375-132.437 3.46 19.948 6.299 33.365 4.625 67.438-2.474 30.32-10.926 50.68-23 64.999M504.325 568.547c33.275-21.08 51-58.604 64.623-104.938-12.209 10.16-23.222 15.409-36.906 37.095-17.435 29.267-18.44 42.666-27.717 67.843" style="fill:#fad13b;fill-rule:evenodd"></path><path d="M513.417 520.83c6.13-22.062 9.144-43.418 8-63.876-1.216-21.722-4.024-42.992-15.75-61.5-4.906 18.744-7.005 39.067-6.157 60.595.871 22.11 6.15 47.327 13.907 64.78" style="fill:none"></path><path d="M531.354 490.58c1.713-19.54 7.761-39.233 16.5-59.25 7.873-18.034 18.546-34.644 30.25-50.75.427 14.609-.49 39.056-8.376 57.874-8.941 21.337-21.688 38.85-38.374 52.126M534.602 452.33c-11.187-17.927-17.902-37.894-21.75-59.375-3.382-18.887-5.697-39.262-4.938-62.501 12.824 16.526 22.964 39.056 27.374 58.938 4.522 20.38 2.512 41.578-.686 62.937M551.413 411.393c9.415-16.218 16.37-33.24 17.5-51.875 1.101-18.141-1.267-46.806-6.875-69.4-9.975 17.465-10.874 38.633-13.538 60.737-2.563 21.267-1.323 41.835 2.913 60.538M546.85 324.518c9.007-37.658 8.384-57.906-7.094-95.188-5.052 16.852-6.38 33.937-5.031 51.188 1.214 17.494 6.106 31.311 12.125 44M531.193 300.425c-.105-13.749-3.149-26.463-8.25-38.5-6.678-15.758-15.53-30.922-32.813-43.563 3.9 23.915 9.375 40.85 15 51.625 6.685 12.805 15.062 22.99 26.063 30.438M530.192 253.925c-1.257-17.294-5.343-30.122-9.381-40.243-5.637-14.126-13.556-28.343-29.276-42.194 1.405 20.983 5.637 37.363 12.468 51.251 6.88 13.989 16.684 24.085 26.19 31.186M541.508 361.254c-.777-16.26-4.062-31.462-10.8-45.15-7.476-15.187-16.842-29.013-32.7-37.2 5 17.493 3.804 25.969 13.2 46.5 6.34 13.855 15.568 26.216 30.3 35.85M505.667 395.455c11.726 18.507 14.534 39.777 15.75 61.5 1.144 20.457-1.87 41.813-8 63.874-7.757-17.453-13.036-42.67-13.907-64.78-.848-21.528 1.251-41.85 6.157-60.594M333.837 660.118c8.098 6.628 15.711 15.19 23.074 24.752l-8.25 9.15c-5.04-9.951-13.465-18.98-22.78-27.765a230 230 0 0 0 7.956-6.137" style="fill:#fad13b;fill-rule:evenodd"></path><path d="M336.592 657.858c9.725 6.392 17.389 16.217 24.82 26.432l-13 15.676c-.282.34-1.076.364-1.327 0-7.693-11.13-15.613-21.968-25.638-30.517a245 245 0 0 0 4.435-3.194c9.314 8.785 17.74 17.814 22.78 27.766l8.25-9.15c-7.364-9.564-14.977-18.125-23.075-24.753q1.392-1.123 2.755-2.26" style="fill:#013e7d;fill-rule:evenodd"></path><path d="M388.537 519.232c-.095 71.927-45.188 115.466-88.5 160.25-43.775-24.566-97.876-72.246-97.876-146.125V495.17l-5.717 4.116q-.01 13.686-.014 27.372c.109 66.825 33.308 119.7 101.416 157.86l9.865 2.04c43.323-33.91 94.569-78.568 94.44-156.957l-.29-176.936-12.91 9.28a68778 68778 0 0 0-.414 157.287M126.222 592.573c14.474 10.927 28.647 24.11 34.931 33.606-39.864 9.613-70.493-8.673-95.324-38.332-5.123-6.12-11.309-14.938-14.597-22.19 8.779 1.07 22.736-1.681 39.86 6.55-26.85-13.444-38.559-37.41-50.598-59.732-9.696-17.975-17.432-42.448-20.04-57.753 7.384 4.14 10.696 6.834 17.555 12.347-7.618-9.815-11.449-16.722-16.351-28.42-9.88-23.572-8.325-52.723-6.401-68.257 2.615 3.477 5.126 5.615 13.3 17.62-1.421-4.978-4.48-12.348-5.55-29.973-.425-7.014-.54-12.727-.188-19.742.41-8.153 1.933-16.088 3.038-24.176 1.488-10.896 4.3-25.815 7.608-35.152 2.697 4.188 3.717 7.784 5.736 12.607-1.671-22.637 4.8-43.23 13.382-63.389 1.42-3.336 3.196-6.509 4.793-9.763 2.889 9.634 4.84 13.987 6.152 24.094 1.988-31.632 25.877-68.476 45.713-79.993.028 27.277-4.501 39.37-12.204 57.39 4.41-4.267 11.125-8.176 14.57-10.476-2.6 21.615-6.533 49.185-19.62 67.54.183-.148 9.061-6.001 11.534-7.278-2.345 11.913-2.506 29.37-13.13 49.574l1.085.684c2.19 15.533 3.326 38.756-3.041 67.801.56-1.009 2.095-3.354 3.392-4.539 1.465 4.81 10.437 36.205 9.342 68.828l2.6-12.532c13.209 25.078 20.458 40.114 23.768 69.654 27.741 19.07 65.12 72.419 64.019 111.045-25.99-2.159-56.993-39.314-61.106-72.936.777 16.902-2.373 37.666-4.228 45.293m-49.677-78.266c-7.255-24.024-9.382-44.798-5.653-69.808-3.395 6.985-4.94 9.553-7.691 13.454 4.288 14.373 6.838 36.43 5.696 41.991 1.936 4.413 6.284 11.277 7.648 14.363m6.959 15.792c2.914 7.785 6.91 20.955 13.15 44.271 7.151 2.956 16.11 8.383 25.432 15.142-24.628-31.359-28.502-64.804-25.835-97.303-1.795 15.207-7.455 27.444-12.747 37.89M70.3 300.193c-3.226 3.104-6.016 4.416-9.094 5.602-3.173 10.766-9.276 20.732-12.34 25.726 1.22 10.5 1.846 10.016 2.306 20.553 3.419-25.448 8.631-36.925 19.128-51.881M52.01 367.007c.598 17.513 1.163 24.288-4.277 51.973 2.008 3.723 6.672 13.772 7.19 15.246-2.798-19.766-2.408-27.946 1.397-47.698 2.677-13.9 5.888-19.449 12.863-32.372-4.325 4.823-11.37 9.056-17.174 12.851m20.148-114.013c-1.623 1.202-3.158 2.323-6.893 5.097.57 3.3.798 7.506.663 10.035-.004.05 1.341-5.942 6.23-15.132" style="fill:#013e7d;fill-rule:evenodd"></path><path d="M224.304 618.647c-32.269.638-63.801 10.677-94.75 28.624-.528.306-.707.594.062.938 17.798 7.971 54.175 14.28 76.469 9.281 14.137-3.17 27.354-10.98 33.953-20.234" style="fill:none"></path><path d="M223.159 618.673c-31.87.85-63.022 10.864-93.605 28.598-.528.306-.707.594.062.938 17.798 7.971 54.175 14.28 76.469 9.281 13.334-2.99 25.85-10.108 32.766-18.672q-8.758-9.688-15.692-20.145" style="fill:#fad13b;fill-rule:evenodd"></path><path d="M222.728 615.27c-30.517-1.352-64.769 10.943-101.126 33.187-.286.175-.188.878.125 1 31.867 12.502 67.53 18.243 93.094 10.344 11.02-3.405 25.218-12.244 26.75-19.625" style="fill:none"></path><path d="M238.85 638.818c-6.916 8.564-19.43 15.682-32.765 18.672-22.294 4.999-58.671-1.31-76.47-9.281-.768-.344-.59-.632-.061-.938 30.583-17.734 61.736-27.748 93.605-28.598a161 161 0 0 1-2.237-3.468c-30.06-.8-63.678 11.446-99.32 33.252-.286.175-.188.878.125 1 31.867 12.502 67.53 18.243 93.094 10.344 10.425-3.22 23.694-11.306 26.394-18.418q-1.2-1.275-2.364-2.565" style="fill:#013e7d;fill-rule:evenodd"></path><path d="M130.699 518.733c-.18 19.444 5.053 40.187 11.675 53.713 9.851 20.12 24.322 34.337 43.116 42.709-.275-5.775-2.03-15.851-6.6-27.003-10.49-25.597-31.001-58.464-48.191-69.419M153.2 624.483c-12.823-17.736-36.025-36.972-60.773-47.203-11.054-4.569-23.392-6.472-33.385-7.183 1.384 3.051 3.77 5.45 5.71 8.568 10.652 17.115 28.539 31.3 37.76 36.444 16.485 9.195 34.692 11.366 50.688 9.374M122.637 582.983c5.36-52.952.264-97.886-18.375-132.437-3.46 19.948-6.3 33.365-4.625 67.438 2.474 30.32 10.925 50.68 23 64.999M90.951 568.547c-33.275-21.08-51-58.604-64.624-104.938 12.21 10.16 23.223 15.409 36.907 37.095 17.435 29.267 18.44 42.666 27.717 67.843" style="fill:#fad13b;fill-rule:evenodd"></path><path d="M81.859 520.83c-6.13-22.062-9.144-43.418-8-63.876 1.215-21.722 4.024-42.992 15.75-61.5 4.906 18.744 7.005 39.067 6.157 60.595-.871 22.11-6.15 47.327-13.907 64.78" style="fill:none"></path><path d="M63.922 490.58c-1.713-19.54-7.761-39.233-16.5-59.25-7.873-18.034-18.547-34.644-30.25-50.75-.428 14.609.489 39.056 8.375 57.874 8.942 21.337 21.688 38.85 38.375 52.126M60.673 452.33c11.188-17.927 17.903-37.894 21.75-59.375 3.383-18.887 5.698-39.262 4.938-62.501-12.823 16.526-22.963 39.056-27.374 58.938-4.521 20.38-2.51 41.578.686 62.937M43.862 411.393c-9.415-16.218-16.369-33.24-17.5-51.875-1.1-18.141 1.268-46.806 6.875-69.4 9.975 17.465 10.874 38.633 13.538 60.737 2.563 21.267 1.323 41.835-2.913 60.538M48.425 324.518c-9.007-37.658-8.384-57.906 7.095-95.188 5.052 16.852 6.379 33.937 5.03 51.188-1.214 17.494-6.105 31.311-12.125 44M64.083 300.425c.104-13.749 3.149-26.463 8.25-38.5 6.678-15.758 15.53-30.922 32.812-43.563-3.899 23.915-9.374 40.85-15 51.625-6.685 12.805-15.061 22.99-26.062 30.438M65.083 253.925c1.258-17.294 5.344-30.122 9.382-40.243 5.636-14.126 13.556-28.343 29.275-42.194-1.404 20.983-5.636 37.363-12.467 51.251-6.881 13.989-16.685 24.085-26.19 31.186M53.768 361.254c.777-16.26 4.062-31.462 10.8-45.15 7.476-15.187 16.842-29.013 32.7-37.2-5 17.493-3.805 25.969-13.2 46.5-6.34 13.855-15.569 26.216-30.3 35.85M89.609 395.455c-11.726 18.507-14.535 39.777-15.75 61.5-1.144 20.457 1.87 41.813 8 63.874 7.757-17.453 13.036-42.67 13.907-64.78.848-21.528-1.251-41.85-6.157-60.594M261.64 660.255c-8.096 6.627-15.71 15.189-23.073 24.752l8.25 9.15c5.04-9.952 13.465-18.98 22.78-27.766a230 230 0 0 1-7.956-6.136" style="fill:#fad13b;fill-rule:evenodd"></path><path d="M258.887 657.995c-9.726 6.391-17.39 16.216-24.82 26.431l12.998 15.676c.283.34 1.077.364 1.329 0 7.692-11.13 15.612-21.967 25.637-30.517q-2.25-1.583-4.435-3.194c-9.314 8.786-17.74 17.814-22.78 27.766l-8.25-9.15c7.364-9.563 14.978-18.125 23.075-24.752q-1.393-1.125-2.754-2.26" style="fill:#013e7d;fill-rule:evenodd" data-source="https://football-logos.cc"></path><!-- source: https://football-logos.cc --></svg>