<svg xmlns="http://www.w3.org/2000/svg" xmlns:xlink="http://www.w3.org/1999/xlink" viewBox="54.31 168.7 486.65 504.48"><!-- Source: https://football-logos.cc --><defs data-source="https://football-logos.cc"><linearGradient id="a"><stop offset="0%" stop-color="#1b1918"></stop><stop offset="100%" stop-color="#fff"></stop></linearGradient></defs><path d="m298.348 248.388.002 337.875" style="fill:url(#a)"></path><defs><linearGradient id="b"><stop offset="0%" stop-color="#1b1918"></stop><stop offset="100%" stop-color="#fff"></stop></linearGradient></defs><path d="m139.072 464.347 317.096.187" style="fill:url(#b)"></path><defs><radialGradient id="c" cx=".5" cy=".5" r="1"><stop offset="0%" stop-color="#e40709"></stop><stop offset="100%" stop-color="#a2030a"></stop></radialGradient></defs><path d="m424.492 464.514 31.676.02a170.3 170.3 0 0 1-31.676 60.79zm-63.216-.036 31.879.019.06 90.549a163.5 163.5 0 0 1-31.937 18.201zm-62.925-.038 31.873.02.081 118.505a161.3 161.3 0 0 1-31.955 3.291zm-126.712-.074 31.878.02.062 91.602a168.4 168.4 0 0 1-31.937-29.746Zm63.215.037 31.876.018.08 118.847a161 161 0 0 1-31.956-9.769z" style="fill:url(#c)"></path><defs><linearGradient id="d"><stop offset="0%" stop-color="#1b1918"></stop><stop offset="100%" stop-color="#fff"></stop></linearGradient></defs><path d="M298.35 450.363c4.509-.666 8.863 1.63 12.593 4.812 5.64 4.813 10.912 9.292 16.374 9.273 5.713-.02 10.595-4.426 15.657-8.925 3.376-3.002 6.933-5.63 11.624-5.626 4.46.004 8.461 2.551 12.45 6.3 4.423 4.158 8.943 8.192 15.244 8.231 5.268.033 9.785-3.324 14.287-7.538 3.753-3.511 7.996-6.803 13.125-6.824 5.362-.023 9.092 3.625 13.013 7.011 4.874 4.208 8.065 7.312 14.381 7.368 6.342.057 10.144-3.81 16.108-9.057 1.92-1.688 3.831-3.396 6.165-4.011" style="fill:url(#d)"></path><defs><linearGradient id="e"><stop offset="0%" stop-color="#1b1918"></stop><stop offset="100%" stop-color="#fff"></stop></linearGradient></defs><path d="M298.353 457.307c5.145-.496 10.137 2.24 14.781 7.145" style="fill:url(#e)"></path><defs><linearGradient id="f"><stop offset="0%" stop-color="#1b1918"></stop><stop offset="100%" stop-color="#fff"></stop></linearGradient></defs><path d="M341.273 464.462c4.55-4.35 8.118-7.172 13.343-7.183 5.849-.014 9.88 3.494 13.718 7.204" style="fill:url(#f)"></path><defs><linearGradient id="g"><stop offset="0%" stop-color="#1b1918"></stop><stop offset="100%" stop-color="#fff"></stop></linearGradient></defs><path d="M396.25 464.497c4.303-4.062 8.557-6.973 13.473-7.05 5.057-.08 9.427 3.072 13.679 7.07" style="fill:url(#g)"></path><defs><linearGradient id="h"><stop offset="0%" stop-color="#1b1918"></stop><stop offset="100%" stop-color="#fff"></stop></linearGradient></defs><path d="M451.309 464.53c1.515-1.754 3.738-3.521 6.184-4.91" style="fill:url(#h)"></path><defs><linearGradient id="i"><stop offset="0%" stop-color="#1b1918"></stop><stop offset="100%" stop-color="#fff"></stop></linearGradient></defs><path d="M298.35 442.496c4.273-.669 9.662 2.41 15.382 7.689 4.615 4.258 9.132 6.83 13.2 6.825 5.54-.007 10.073-3.738 14.7-7.875 3.802-3.4 7.582-6.782 12.788-6.714 4.051.053 8.536 1.944 13.725 7.135 4.047 4.05 8.774 7.318 13.763 7.679 4.944.357 9.753-3.42 14.701-7.988 4.027-3.717 8.226-6.792 12.863-6.75 4.913.044 9.191 3.4 13.576 7.161 5.026 4.313 9.085 7.452 13.988 7.463 4.819.011 9.46-3.164 14.437-7.95 2.728-2.624 5.833-5.323 9.363-6.08" style="fill:url(#i);stroke:#1b1918;stroke-width:.21600001;stroke-linecap:butt;stroke-linejoin:miter;stroke-dasharray:none"></path><path d="M423.402 464.516c-4.252-3.997-8.622-7.15-13.68-7.07-4.915.078-9.169 2.989-13.471 7.05zM457.493 459.62c-2.472 1.389-4.705 3.155-6.184 4.91l4.859.003a170 170 0 0 0 1.325-4.914zM368.33 464.48c-3.836-3.71-7.867-7.215-13.714-7.202-5.225.012-8.793 2.833-13.343 7.184l20.006.014zM313.134 464.452c-4.644-4.905-9.636-7.64-14.781-7.145l-.002 7.133z" style="fill:#0094dc;fill-rule:evenodd"></path><path d="M453.206 455.388c-5.964 5.247-9.766 9.114-16.108 9.057-6.316-.056-9.507-3.16-14.38-7.368-3.922-3.386-7.652-7.034-13.014-7.011-5.129.021-9.372 3.313-13.125 6.824-4.502 4.214-9.019 7.571-14.287 7.538-6.301-.04-10.821-4.073-15.244-8.23-3.989-3.75-7.99-6.296-12.45-6.3-4.69-.005-8.248 2.623-11.624 5.624-5.062 4.5-9.944 8.906-15.657 8.926-5.462.019-10.733-4.46-16.374-9.272-3.73-3.182-8.084-5.479-12.593-4.813l.003 6.944c5.145-.496 10.137 2.24 14.781 7.145l17.09.008 11.049.003c4.55-4.351 8.118-7.172 13.343-7.184 5.847-.014 9.878 3.492 13.714 7.2l.004.005 24.82.013h3.097c4.302-4.062 8.556-6.972 13.472-7.05 5.057-.08 9.427 3.072 13.679 7.07l1.09-.004 26.817.017c1.48-1.755 3.712-3.522 6.184-4.91a172 172 0 0 0 1.878-8.243c-2.334.615-4.246 2.322-6.165 4.011z" style="fill:#fff;fill-rule:evenodd"></path><path d="M354.42 442.421c-5.206-.068-8.986 3.313-12.789 6.714-4.626 4.137-9.158 7.868-14.7 7.874-4.067.005-8.584-2.567-13.2-6.825-5.72-5.277-11.108-8.357-15.382-7.688l.001 7.867c4.509-.666 8.864 1.63 12.593 4.812 5.64 4.813 10.912 9.292 16.374 9.273 5.713-.02 10.595-4.426 15.657-8.925 3.376-3.002 6.933-5.63 11.624-5.626 4.46.004 8.461 2.551 12.45 6.3 4.423 4.158 8.943 8.192 15.244 8.231 5.268.033 9.785-3.324 14.287-7.538 3.753-3.511 7.996-6.803 13.125-6.824 5.362-.023 9.092 3.625 13.013 7.011 4.874 4.208 8.065 7.312 14.381 7.368 6.342.057 10.144-3.81 16.108-9.057 1.92-1.688 3.831-3.396 6.165-4.011a173 173 0 0 0 1.465-8.286c-3.53.757-6.635 3.456-9.363 6.08-4.976 4.786-9.618 7.961-14.437 7.95-4.903-.01-8.962-3.15-13.988-7.463-4.385-3.761-8.663-7.117-13.576-7.161-4.637-.042-8.836 3.033-12.863 6.75-4.948 4.568-9.757 8.345-14.7 7.988-4.99-.361-9.717-3.629-13.764-7.679-5.188-5.191-9.674-7.082-13.725-7.135" style="fill:#0094dc;fill-rule:evenodd"></path><path d="M313.439 442.204c-4.553-3.966-8.202-6.975-15.09-6.983v7.275c4.274-.669 9.663 2.41 15.383 7.688 4.615 4.258 9.132 6.83 13.2 6.825 5.54-.007 10.073-3.737 14.7-7.874 3.802-3.4 7.582-6.782 12.788-6.714 4.051.053 8.536 1.944 13.725 7.135 4.047 4.05 8.774 7.318 13.763 7.679 4.944.357 9.753-3.42 14.701-7.988 4.027-3.717 8.226-6.792 12.863-6.75 4.913.044 9.191 3.4 13.576 7.161 5.026 4.313 9.085 7.452 13.988 7.463 4.819.011 9.46-3.164 14.437-7.95 2.728-2.624 5.833-5.323 9.363-6.08q.548-3.609.945-7.266c-4.84.362-7.096 2.989-9.739 5.346-5.242 4.675-10.368 8.57-15.075 8.55-3.843-.016-7.143-1.946-10.013-4.462-6.132-5.373-10.645-10.233-17.438-10.125-6.62.105-9.417 3.283-13.35 6.975-4.221 3.963-8.552 7.49-14.25 7.426-4.402-.05-8.371-2.685-12-6.075-4.683-4.376-9.215-8.2-15.34-8.25-5.503-.045-9.507 3.495-13.574 7.2-4.34 3.954-8.947 7.166-13.988 7.125-4.576-.037-9.047-3.387-13.575-7.331" style="fill:#fff;fill-rule:evenodd"></path><defs><linearGradient id="j"><stop offset="0%" stop-color="#140603"></stop><stop offset="12%" stop-color="#fff"></stop><stop offset="0%" stop-color="#d6d6d6"></stop></linearGradient><linearGradient xlink:href="#j" id="k" x1="0" x2="0" y1="0" y2="1" gradientTransform="rotate(-40 .5 .5)" gradientUnits="objectBoundingBox"></linearGradient></defs><path d="M298.35 435.22c6.887.009 10.536 3.018 15.089 6.984 4.528 3.944 9 7.294 13.575 7.331 5.04.041 9.648-3.171 13.988-7.125 4.066-3.705 8.07-7.245 13.574-7.2 6.125.05 10.657 3.874 15.34 8.25 3.629 3.39 7.598 6.025 12 6.075 5.698.064 10.029-3.463 14.25-7.426 3.933-3.692 6.73-6.87 13.35-6.975 6.793-.108 11.306 4.752 17.438 10.125 2.87 2.516 6.17 4.447 10.013 4.462 4.707.02 9.833-3.875 15.075-8.55 2.643-2.357 4.898-4.984 9.739-5.346.673-6.2 1.019-12.498 1.019-18.876 0-92.908-73.371-168.26-164.452-168.56z" style="fill:url(#k)"></path><path d="M336.299 383.52h-10.017v-16.333l5.078-4.806 4.94 4.88zm30.377 0v-16.333zm10.725-16.408v-.146l-.106-.106m-5.288-5.221-.242-.239-.248.235m-19.636.004-.242-.239m34.313 5.488v.15zm26.195-4.507 4.962 4.92-.023 16.22H407.07v-16.334zm.254-.742-.242-.239-.248.235-5.438 5.147-.112.106v.15zm24.812 5.622v16.26h-10.017l-.002-16.332 5.079-4.808zM298.23 394.24v.708h163.513v-.708zm0 5.527v.709l164.112.075v-.709zm76.902 35.207h5.998v8.588h-5.996zm12.22-.709h-12.22v-8.62h12.215zm.005 9.297h-5.52v-8.588h5.515zm31.271-33.247h8.19c-1.946 2.959-3.337 6.482-3.958 10.351a25.1 25.1 0 0 0-4.232-10.351m-36.83 14.595c.082-6.477 2.45-12.291 6.1-16.5 3.674-4.234 8.645-6.839 13.88-6.846h.109l.165.002c5.224.08 10.349 2.664 14.162 6.863 3.794 4.178 6.286 9.954 6.287 16.457l-.001.053-5.985.001c-.078-4.24-1.562-8.82-4.362-12.16-2.448-2.922-5.896-4.902-10.286-4.902h-.01v.001c-4.786.003-8.42 2.168-10.858 5.42-2.384 3.18-3.616 7.399-3.653 11.64h-5.548zm-4.574-14.596h8.331c-2.008 2.985-3.452 6.53-4.094 10.407a25.2 25.2 0 0 0-4.237-10.407m-36.588 14.551c.085-6.467 2.399-12.268 5.99-16.465 3.62-4.23 8.534-6.829 13.766-6.836h.11l.164.002c5.224.08 10.344 2.665 14.151 6.866 3.79 4.182 6.278 9.964 6.276 16.47l-.001.037h-5.964c-.08-4.24-1.563-8.82-4.362-12.16-2.447-2.92-5.894-4.9-10.284-4.9h-.01c-4.786.003-8.42 2.168-10.858 5.42-2.383 3.179-3.615 7.398-3.654 11.638h-5.324zm-4.545-14.55 8.213-.004c-1.968 2.973-3.38 6.502-4.01 10.363a25.2 25.2 0 0 0-4.203-10.359zm92.646 23.951h-12.218v-8.62l12.214-.001zm-99.073-21.489c-2.447-2.92-5.895-4.899-10.285-4.899h-.007v.001c-4.787.002-8.42 2.168-10.856 5.422-2.38 3.18-3.61 7.397-3.65 11.637l-5.238.002c.07-6.493 2.365-12.321 5.946-16.536 3.489-4.106 8.35-6.854 13.825-6.84 5.55.057 10.613 2.796 14.285 6.859 3.77 4.171 6.24 9.938 6.246 16.435v.079h-5.905c-.08-4.24-1.562-8.82-4.36-12.16zm4.365 22.195h5.574v8.59h-5.574zm-.001-9.326h11.933l.005 8.62h-11.938zm95.403 21.599.017-2.974-.01-19.117h.001v-.012c0-4.166 1.184-8.316 3.51-11.42 2.311-3.082 5.757-5.135 10.296-5.137v.001h.008c4.54 0 8.02 2.241 10.364 5.44 2.361 3.22 3.578 7.408 3.578 11.267v.001l-.14 12.832.852.011-.007-3.164 4.09-.001c.024-.236.055-.47.078-.706H457.9l.001-8.623 4.725.003c.012-.234.016-.471.027-.706l-4.754-.002c-.072-3.899-1.333-8.084-3.712-11.33-2.47-3.368-6.14-5.728-10.934-5.728v-.001h-.009c-4.787.003-8.422 2.168-10.86 5.42-2.383 3.18-3.615 7.4-3.654 11.64h-5.525v-.046c.079-6.475 2.333-12.249 5.869-16.417 3.556-4.191 8.408-6.755 13.637-6.762h.112c5.443.03 10.815 2.706 14.761 7.106 2.255 2.514 4.184 5.937 5.255 9.403.002-.309.012-.569.012-.924s-.012-.8-.015-1.201c-1.114-2.788-2.83-5.635-4.726-7.748-4.076-4.546-9.638-7.312-15.284-7.342h-.114c-5.447.008-10.49 2.666-14.178 7.012q-.646.761-1.233 1.59h-9.19a24 24 0 0 0-1.374-1.657c-3.94-4.34-9.251-7.01-14.677-7.093h-.002l-.167-.002h-.114c-5.448.008-10.61 2.705-14.414 7.09q-.69.795-1.316 1.66h-9.34a24 24 0 0 0-1.368-1.65c-3.936-4.342-9.241-7.015-14.666-7.098h-.001l-.166-.002h-.115c-5.448.007-10.554 2.7-14.302 7.082q-.683.796-1.301 1.664l-9.211.005a24 24 0 0 0-1.37-1.66c-3.921-4.338-9.211-7.006-14.636-7.09h-.002l-.166-.001h-.115c-5.448.007-10.53 2.704-14.256 7.09q-.675.794-1.288 1.66h-5.395v.707h4.913c-2.653 4.037-4.283 9.097-4.342 14.624h-.57v.706l6.515-.002.004 8.624-6.838-.001v.706h6.839v1.387c.24.092.513.499.744.6l-.043-11.802h.001v-.01c0-4.167 1.182-8.318 3.507-11.423 2.308-3.084 5.752-5.138 10.291-5.14v.002h.007c4.157 0 7.423 1.876 9.743 4.644 2.77 3.306 4.2 7.876 4.2 12.06l.001 18.271-.014 4.502c.462-.405.587-.408.72-.458v-3.335h4.835q.727-.6 1.444-1.235v-8.064h5.658l.002 3.282c.163-.115.51-.444.705-.481l-.007-12.619h.001v-.013c0-4.166 1.185-8.316 3.511-11.419 2.31-3.082 5.756-5.135 10.294-5.137v.001h.009c4.156 0 7.422 1.878 9.742 4.646 2.77 3.306 4.201 7.878 4.202 12.062l.024 21.76c.156.088.533.33.685.419v-3.202h12.223l.002 3.672-11.37.001q.768.398 1.555.706h9.329c.763-.287.67-.042 1.192-.238l-.014-23.258h.001v-.014c0-4.166 1.184-8.316 3.51-11.419 2.31-3.082 5.757-5.134 10.294-5.136h.01c4.157 0 7.423 1.878 9.743 4.647 2.769 3.305 4.2 7.876 4.2 12.062v11.28q.356.173.708.363v-1.966h5.857v6.23l.705.616v-6.846h5.657l.004 8.59h-3.7l.794.71h2.906l.001 2.427zM310.667 362.38l4.94 4.88.003 16.248-10.036.012.014-16.332zm61.087 0 4.939 4.878v16.215l-10.013.001-.005-16.286zm-20.126 0 4.939 4.878v16.215H346.55v-16.287zm40.11 0 4.939 4.878v16.214l-10.023-.002.005-16.282zm20.41 0-5.078 4.806zm-78.032-74.144a1.3 1.3 0 0 0-.262.407h-26.148a1.296 1.296 0 0 0-.26-.42l.001-7.593h26.67zm2.228-15.388-2.137 7.075h-26.862l-2.492-7.075zm-31.637-.705v-10.779l2.14.003.003 4.544 5.37-.002v-4.543l2.144-.002-.003 4.547 5.235-.002-.004-4.545h2.138l.002 4.547 5.234-.002-.005-4.545h2.138l.004 4.546 5.23-.002-.002-4.545h2.134v4.194l.003 6.586zm29.583 41.297h-28.864l-4.102-7.263h38.265zm-26.843-14.344v-9.324a1.3 1.3 0 0 0 .26-.423h26.146q.027.071.062.139c.052.103.122.199.201.284v9.324h-2.495v-4.28l-4.466-.002v4.281l-4.469.002.007-4.281-4.468-.001v4.281l-4.463.002v-4.281l-4.466-.001v4.28zm26.669 19.17q-.12.128-.204.284h-.001a1 1 0 0 0-.064.14h-2.206v.706h2.206q.027.073.064.142.084.156.206.286v4.907c-.079.082-.15.176-.205.28a1 1 0 0 0-.066.148h-1.985v.708h1.99q.026.072.062.139.084.156.205.286v6.787a1.3 1.3 0 0 0-.264.423l-3.613-.008v.706l3.612.008q.026.072.062.14c.054.102.124.197.202.282v5.39q-.12.128-.201.282c-.078.152-.126.32-.126.492 0 .173.048.34.127.492q.081.154.2.282v6.61a1.3 1.3 0 0 0-.193.278v.001a1 1 0 0 0-.06.141h-.638v.706h.633q.025.07.058.136.08.155.199.284v7.03l-28.545.002.002-7.032q.112-.127.182-.278v-.001a1 1 0 0 0 .055-.14h13.713v-.708H305.81a1.167 1.167 0 0 0-.237-.416l.001-6.614q.113-.128.183-.279v-.001q.03-.068.054-.14l20.664.001v-.706H305.81a1 1 0 0 0-.054-.142h-.001a1.2 1.2 0 0 0-.18-.276v-5.4a1.2 1.2 0 0 0 .235-.414h5.042v-.708h-5.042a1.2 1.2 0 0 0-.236-.417v-6.802q.11-.126.18-.277h.002q.032-.068.054-.14h1.134v-.706h-1.134a1 1 0 0 0-.054-.141h-.001a1.2 1.2 0 0 0-.18-.276v-4.928a1.169 1.169 0 0 0 .236-.418h4.094v-.705h-4.095a1.17 1.17 0 0 0-.236-.418v-4.127h28.542zm-17.802 53.864v-5.167l-1.08-1.066h11.386l-1.046.99v5.243zm9.26.705v10.651h-9.258l-.001-10.65zm-1.572-38.626h.352v-.353l-.002-9.476h.001c0-1.008-.481-2.022-1.224-2.773-.723-.73-1.7-1.219-2.73-1.219h-.002v.001c-1.042.001-2.049.497-2.792 1.224-.746.73-1.234 1.703-1.234 2.653v.002l.007 9.585v.353h.353zm-6.918-.709-.007-9.232h.001v-.002c0-.753.404-1.543 1.023-2.148.62-.608 1.45-1.022 2.296-1.023v.001h.002c.832 0 1.631.405 2.229 1.009.617.624 1.017 1.456 1.017 2.275h.001l.002 9.123zm78.01-20.06h-28.865l-4.102-7.263h38.265zm-26.844-14.344v-9.324a1.3 1.3 0 0 0 .26-.423h26.147q.026.071.061.139a1.3 1.3 0 0 0 .201.284v9.324h-2.495v-4.28l-4.466-.002v4.281l-4.48.002.019-4.281-4.468-.001v4.281l-4.463.002v-4.281l-4.466-.001v4.28zm26.669 19.17q-.12.128-.204.284h-.001a1 1 0 0 0-.064.14h-2.206v.706h2.206q.027.073.064.142.084.156.207.286v4.907a1.3 1.3 0 0 0-.205.28h-.001a1 1 0 0 0-.065.148h-1.986v.708h1.99q.026.072.062.139.084.156.205.286v6.787a1.3 1.3 0 0 0-.264.423l-3.613-.008v.706l3.612.008q.027.072.062.14c.054.102.124.197.202.282v5.39q-.12.128-.201.282c-.078.152-.126.32-.126.492 0 .173.048.34.127.492q.081.154.2.282v6.61a1.3 1.3 0 0 0-.193.278v.001a1 1 0 0 0-.06.141h-.637v.706h.632q.025.07.058.136.079.155.2.284v7.03l-28.546.002.002-7.032q.112-.127.183-.278v-.001q.03-.069.054-.14h13.713v-.708h-13.714a1.17 1.17 0 0 0-.236-.416v-6.614q.113-.128.183-.279v-.001q.03-.068.054-.14l20.664.001v-.706h-20.663a1 1 0 0 0-.055-.142h-.001a1.2 1.2 0 0 0-.18-.276v-5.4a1.2 1.2 0 0 0 .235-.414h5.042v-.708h-5.042a1.2 1.2 0 0 0-.235-.417v-6.802q.109-.126.18-.277a1 1 0 0 0 .056-.14h1.133v-.706h-1.133a1 1 0 0 0-.055-.141h-.001a1.2 1.2 0 0 0-.18-.276v-4.928q.109-.127.18-.277.033-.07.056-.14h4.094v-.706h-4.094a1.167 1.167 0 0 0-.236-.418v-4.127h28.542zM377.4 372.131v-5.165l-.106-.106-.975-.962h10.678l-1.045.988v5.245zm8.55.705-.002 10.651h-8.547v-10.65zm-1.146-38.626h.353v-.353l-.002-9.476c0-1.008-.48-2.022-1.224-2.773-.723-.73-1.7-1.219-2.73-1.219h-.002v.001c-1.041.001-2.049.497-2.792 1.224-.746.73-1.234 1.703-1.234 2.653v.002l.007 9.585v.353h.353zm-6.917-.709-.007-9.232v-.002c0-.753.404-1.543 1.023-2.148.62-.608 1.45-1.022 2.297-1.023v.001h.003c.832 0 1.63.405 2.228 1.009.617.624 1.017 1.456 1.017 2.275h.001l.002 9.123zm60.035 38.63-.003-5.167-1.08-1.066h10.82l-.934.884-.113.106v5.243zm8.69.705v10.651h-8.684l-.006-10.65zm-140.686-6.938-1.045.988-.003 5.246h-3.357l.004-6.234zm29.285-.706-3.84-3.792-4.007 3.792H314.52l-3.84-3.792-4.006 3.792h-4.94l3.708-7.729 28.818-.003 4.24 7.732zm1.795 6.938-.001-5.166-1.08-1.066h2.817l-.001 6.231zm8.835.706v10.651h-8.833l-.001-10.651h2.439v-.003zm20.129.002.003 10.649h-8.699v-10.654l4.343.002v.003h.353zm1.043-6.94-1.045.989.002 5.245h-2.527v-.001l-1.12-.001.005-6.232zm28.576-.706-3.84-3.792-4.007 3.792h-12.137l-3.599-3.553-.241-.239-.248.235-3.759 3.557h-5.223l3.709-7.729 28.817-.003 4.24 7.732zm1.796 6.938v-5.164l-.107-.106-.974-.962h3.24v6.231zm8.975.706v10.651h-8.975v-10.651h2.864v-.003zm21.172-6.938-1.044.988-.003 5.246h-3.217l.004-6.234zm-59.175-101.691q-.353-.17-.706-.337v2.042h3.776c-.463-.236-.924-.475-1.39-.706h-1.68zm88.98 109.036v10.231h-10.016l.019-16.273 5.068-4.82 2.528 2.446-.189-1.13-2.348-2.309-3.995 3.804h-12.28l-3.84-3.792-4.006 3.792h-4.798l3.708-7.729 25.112-.002-.262-.706-24.721.002.002-7.032q.112-.127.183-.278v-.001q.03-.068.054-.14h13.713v-.709h-13.714a1 1 0 0 0-.053-.138h-.001a1.2 1.2 0 0 0-.182-.277v-6.615q.112-.127.183-.278v-.001q.032-.068.054-.14l17.773.001c-.115-.234-.226-.472-.342-.706h-17.43a1.172 1.172 0 0 0-.236-.417v-5.4a1.2 1.2 0 0 0 .235-.415h5.042v-.708h-5.042a1.2 1.2 0 0 0-.235-.417v-6.802q.11-.126.18-.277h.001a1 1 0 0 0 .055-.14h1.133v-.706h-1.133a1.17 1.17 0 0 0-.236-.417v-4.928a1.2 1.2 0 0 0 .18-.277h.001q.032-.07.055-.14l4.898-.004-.505-.702h-4.393a1.17 1.17 0 0 0-.236-.418v-4.127h1.313l-.536-.706h-.925l-2.46-4.384a160 160 0 0 0-2.55-3.08l4.45 7.905v4.702l.126.107a.5.5 0 0 1 .12.156v.002a.47.47 0 0 1 0 .39l.002.001a.5.5 0 0 1-.122.158l-.128.107v5.547l.128.106a.5.5 0 0 1 .122.16h-.001a.47.47 0 0 1 0 .39.5.5 0 0 1-.121.158l-.128.107v7.421l.128.107a.47.47 0 0 1 .122.55.5.5 0 0 1-.122.159l-.128.107v6.016l.128.107a.5.5 0 0 1 .122.159h-.001a.47.47 0 0 1 0 .391.5.5 0 0 1-.12.158l-.126.106v7.075l-.001.163.126.106a.5.5 0 0 1 .122.16h-.001a.47.47 0 0 1 0 .39.5.5 0 0 1-.12.158l-.126.106v.165l-.002 7.457-4.01 8.36-.035.071v.08l-.004 6.585-4.769.001v-5.165l-.106-.106-5.288-5.222-.241-.238-.248.234-5.438 5.147-.112.107v5.242l-6.112-.003.001-6.581v-.093l-.042-.078-4.582-8.356v-7.605l-.127-.107a.6.6 0 0 1-.15-.186.36.36 0 0 1-.042-.162v-.001a.4.4 0 0 1 .05-.18.6.6 0 0 1 .143-.18l.124-.105v-7.238l-.125-.106a.6.6 0 0 1-.155-.188.36.36 0 0 1-.044-.166q.002-.085.044-.166h.001a.6.6 0 0 1 .154-.188l.126-.106v-6.021l-.126-.106a.6.6 0 0 1-.156-.189.35.35 0 0 1-.045-.162q.002-.085.045-.166a.6.6 0 0 1 .156-.189l.125-.105v-.166l.001-7.09v-.165l-.126-.107a.7.7 0 0 1-.159-.193.36.36 0 0 1-.046-.164q.002-.088.045-.17a.6.6 0 0 1 .15-.176l.135-.106v-5.552l-.125-.106a.7.7 0 0 1-.16-.196.36.36 0 0 1-.048-.162q.002-.08.047-.161l-.001-.001a.7.7 0 0 1 .162-.194l.127-.107v-4.675l5.811-7.967v-6.489l.001-4.639-4.522-.002-.001 4.287h-1.29v-9.638l-.126-.106a.6.6 0 0 1-.154-.19h-.001a.4.4 0 0 1-.045-.166q.001-.077.04-.15a.7.7 0 0 1 .16-.185l.125-.106v-.165l.004-7.319q-.351-.263-.706-.526l-.004 7.691a1.3 1.3 0 0 0-.262.407H368.51a1.2 1.2 0 0 0-.26-.419v-7.594h26.786q-.472-.357-.947-.707l-25.94.001-2.492-7.076h18.057c-.385-.24-.776-.47-1.164-.706h-17.04v-9.023c-.234-.108-.472-.209-.707-.315l.001 9.754 2.74 7.782v8.198l.126.105a.6.6 0 0 1 .15.185.4.4 0 0 1 .045.168.4.4 0 0 1-.045.17.6.6 0 0 1-.15.186l-.126.106v9.638h-1.907v-4.28l-4.466-.002-.001 11.01v.091l.045.081 4.454 7.886v4.702l.127.107a.5.5 0 0 1 .12.156v.002a.47.47 0 0 1 0 .39h.001a.5.5 0 0 1-.122.158l-.127.107v5.547l.127.107a.466.466 0 0 1 .12.55h.002a.5.5 0 0 1-.122.158l-.127.107v7.421l.127.107a.47.47 0 0 1 .123.55.5.5 0 0 1-.123.159l-.127.107v6.016l.127.107a.466.466 0 0 1 .121.55.5.5 0 0 1-.12.158l-.126.105v7.239l.125.106a.466.466 0 0 1 .121.55.5.5 0 0 1-.12.158l-.126.105v.166l-.002 7.457-4.01 8.36-.035.071v.08l-.004 6.584-4.343-.002v-5.161l-.106-.105-5.288-5.222-.242-.239-5.798 5.488v5.242l-6.394-.003v-6.673l-4.624-8.435v-7.605l-.127-.107a.6.6 0 0 1-.15-.186.36.36 0 0 1-.042-.162v-.001a.4.4 0 0 1 .05-.18.6.6 0 0 1 .143-.18l.124-.105v-.165l.001-6.909v-.163l-.126-.106a.6.6 0 0 1-.154-.19.4.4 0 0 1-.045-.165q.002-.085.045-.165a.6.6 0 0 1 .154-.19l.126-.105v-6.021l-.126-.106a.6.6 0 0 1-.156-.189.35.35 0 0 1-.044-.162q.002-.085.044-.166a.6.6 0 0 1 .156-.188l.126-.106v-7.421l-.126-.106a.7.7 0 0 1-.158-.192.36.36 0 0 1-.047-.164c0-.06.018-.117.045-.17a.6.6 0 0 1 .151-.177l.134-.106v-5.552l-.125-.106a.7.7 0 0 1-.16-.195.36.36 0 0 1-.047-.163c0-.051.018-.107.046-.161a.7.7 0 0 1 .161-.195l.127-.107v-4.675l5.811-7.967v-11.128l-4.522-.002v4.287h-1.29l-.001-9.474v-.164l-.126-.106a.6.6 0 0 1-.154-.19.4.4 0 0 1-.046-.166q.002-.077.041-.149a.7.7 0 0 1 .159-.186l.125-.105v-.166l.002-8.057 2.35-7.78-.003-6.996v-4.899h-3.546l.002 4.544-3.819.002-.005-4.546h-3.55l.005 4.546-3.822.002-.002-4.547h-3.549l.005 4.545-3.822.002.003-4.547-3.557.003v4.542l-3.959.002-.003-4.542-3.55-.005v11.9l2.74 7.781v8.198l.125.106a.6.6 0 0 1 .151.185.4.4 0 0 1 .044.168.4.4 0 0 1-.044.17.6.6 0 0 1-.15.186l-.127.106v9.638h-1.907v-4.28l-4.466-.002v11.101l4.498 7.967v4.702l.127.107a.5.5 0 0 1 .12.156v.002a.47.47 0 0 1 0 .39h.001a.5.5 0 0 1-.121.158l-.128.107v5.547l.128.107a.466.466 0 0 1 .12.55h.001a.5.5 0 0 1-.121.158l-.128.107v7.421l.128.106a.47.47 0 0 1 .164.356.46.46 0 0 1-.164.354l-.128.107v6.016l.128.107a.466.466 0 0 1 .121.55.5.5 0 0 1-.12.157l-.127.106v7.239l.126.106a.5.5 0 0 1 .122.159h-.001a.47.47 0 0 1 0 .39.5.5 0 0 1-.12.159l-.127.105-.002 7.623-4.045 8.431-.004 6.667-2.468.003v.706l2.468-.003h4.063l-.007 10.649h-6.522v.706l161.358.002c-.045-.235-.086-.473-.133-.708h-1.527l.02-8.624m-156.992-75.413-.001-3.93 3.055.001v4.282l5.873-.002.001-4.281 3.055.001-.001 4.282 5.874-.002.001-4.281h3.053l-.008 4.283 5.883-.002v-4.281h3.056l-.001 4.283 5.903-.001.001-4.287 3.111.001v9.955h-38.857v-6.023m60.804-3.929 3.055.001v4.282l5.874-.002v-4.28h3.055v4.282l5.874-.002v-4.28h3.053l-.019 4.282 5.895-.002v-4.281h3.055v4.283l5.903-.001v-4.287l3.112.001-.001 3.935v6.02h-38.857zm64.61 77.318-.007 10.649h-8.684v-10.65zm12.346-39.337-.003-4.366c-.231-.39-.472-.771-.706-1.158l.004 6.23 3.626.001c-.13-.235-.255-.472-.386-.706z" style="fill:#177ebe;fill-rule:evenodd"></path><path d="M423.402 464.516c-4.252-3.997-8.622-7.15-13.68-7.07-4.915.078-9.169 2.989-13.471 7.05zM457.493 459.62c-2.472 1.389-4.705 3.155-6.184 4.91l4.859.003a170 170 0 0 0 1.325-4.914zM368.33 464.48c-3.836-3.71-7.867-7.215-13.714-7.202-5.225.012-8.793 2.833-13.343 7.184l20.006.014zM313.134 464.452c-4.644-4.905-9.636-7.64-14.781-7.145l-.002 7.133z" style="fill:#0094dc;fill-rule:evenodd"></path><path d="M453.206 455.388c-5.964 5.247-9.766 9.114-16.108 9.057-6.316-.056-9.507-3.16-14.38-7.368-3.922-3.386-7.652-7.034-13.014-7.011-5.129.021-9.372 3.313-13.125 6.824-4.502 4.214-9.019 7.571-14.287 7.538-6.301-.04-10.821-4.073-15.244-8.23-3.989-3.75-7.99-6.296-12.45-6.3-4.69-.005-8.248 2.623-11.624 5.624-5.062 4.5-9.944 8.906-15.657 8.926-5.462.019-10.733-4.46-16.374-9.272-3.73-3.182-8.084-5.479-12.593-4.813l.003 6.944c5.145-.496 10.137 2.24 14.781 7.145l17.09.008 11.049.003c4.55-4.351 8.118-7.172 13.343-7.184 5.847-.014 9.878 3.492 13.714 7.2l.004.005 24.84.013h3.096c4.302-4.062 8.537-6.972 13.453-7.05 5.057-.08 9.427 3.072 13.679 7.07l1.09-.004 26.817.017c1.48-1.755 3.712-3.522 6.184-4.91a172 172 0 0 0 1.878-8.243c-2.334.615-4.246 2.322-6.165 4.011z" style="fill:#fff;fill-rule:evenodd"></path><path d="M354.42 442.421c-5.206-.068-8.986 3.313-12.789 6.714-4.626 4.137-9.158 7.868-14.7 7.874-4.067.005-8.584-2.567-13.2-6.825-5.72-5.277-11.108-8.357-15.382-7.688l.001 7.867c4.509-.666 8.864 1.63 12.593 4.812 5.64 4.813 10.912 9.292 16.374 9.273 5.713-.02 10.595-4.426 15.657-8.925 3.376-3.002 6.933-5.63 11.624-5.626 4.46.004 8.461 2.551 12.45 6.3 4.423 4.158 8.943 8.192 15.244 8.231 5.268.033 9.785-3.324 14.287-7.538 3.753-3.511 7.996-6.803 13.125-6.824 5.362-.023 9.092 3.625 13.013 7.011 4.874 4.208 8.065 7.312 14.381 7.368 6.342.057 10.144-3.81 16.108-9.057 1.92-1.688 3.831-3.396 6.165-4.011a173 173 0 0 0 1.465-8.286c-3.53.757-6.635 3.456-9.363 6.08-4.976 4.786-9.618 7.961-14.437 7.95-4.903-.01-8.962-3.15-13.988-7.463-4.385-3.761-8.663-7.117-13.576-7.161-4.637-.042-8.836 3.033-12.863 6.75-4.948 4.568-9.757 8.345-14.7 7.988-4.99-.361-9.717-3.629-13.764-7.679-5.188-5.191-9.674-7.082-13.725-7.135" style="fill:#0094dc;fill-rule:evenodd"></path><path d="M313.439 442.204c-4.553-3.966-8.202-6.975-15.09-6.983v7.275c4.274-.669 9.663 2.41 15.383 7.688 4.615 4.258 9.132 6.83 13.2 6.825 5.54-.007 10.073-3.737 14.7-7.874 3.802-3.4 7.582-6.782 12.788-6.714 4.051.053 8.536 1.944 13.725 7.135 4.047 4.05 8.774 7.318 13.763 7.679 4.944.357 9.753-3.42 14.701-7.988 4.027-3.717 8.226-6.792 12.863-6.75 4.913.044 9.191 3.4 13.576 7.161 5.026 4.313 9.085 7.452 13.988 7.463 4.819.011 9.46-3.164 14.437-7.95 2.728-2.624 5.833-5.323 9.363-6.08q.548-3.609.945-7.266c-4.84.362-7.096 2.989-9.739 5.346-5.242 4.675-10.368 8.57-15.075 8.55-3.843-.016-7.143-1.946-10.013-4.462-6.132-5.373-10.645-10.233-17.438-10.125-6.62.105-9.417 3.283-13.35 6.975-4.221 3.963-8.552 7.49-14.25 7.426-4.402-.05-8.371-2.685-12-6.075-4.683-4.376-9.215-8.2-15.34-8.25-5.503-.045-9.507 3.495-13.574 7.2-4.34 3.954-8.947 7.166-13.988 7.125-4.576-.037-9.047-3.387-13.575-7.331" style="fill:#fff;fill-rule:evenodd"></path><path d="m203.517 464.386.062 91.602a168.4 168.4 0 0 1-31.937-29.746l-.002-61.876zm94.833-29.165-.002-186.835h-.55c-91.335 0-165.377 75.468-165.377 168.563 0 77.398 51.177 143.13 120.92 163.097a160 160 0 0 0 19.499 4.292c-2.245-1.827-4.318-3.932-6.034-6.54l.004 5.47a161 161 0 0 1-31.956-9.769V464.403l31.876.018 31.62.02.003-7.134-.003-6.944-.001-7.867z" style="fill:#fff;fill-rule:evenodd"></path><path d="M205.38 298.247h1.968l.703 26.672-2.579.012c-1.537-8.42-3.034-16.755-6.984-21.504-1.284-1.544-2.843-2.356-4.64-2.203-6.656.565-8.178 10.928-7.759 15.938.212 2.533.104 4.823.83 6.663 1.279 3.236 3.565 5.27 6.272 6.274 11.087 4.111 16.797 12.992 16.875 29.192.05 10.317.103 19.622-3.398 27.95-2.93 6.97-5.819 10.691-10.664 10.64-4.491-.046-6.85-3.484-9.024-6.515-1.238 1.92-2.426 4.088-3.538 6.351h-2.098l.012-28.898h2.578c.643 4.906 1.251 10.07 2.883 14.883 1.818 5.366 4.633 9.607 9 9.563 7.134-.072 9.236-10.36 9.469-18.75.098-3.563-.702-6.876-1.874-9.797-1.22-3.043-3.72-5-6.844-6.235-6.93-2.739-10.638-7.19-12.75-12.937-1.522-4.142-2.94-10.317-3-17.813-.057-7.037 1.302-19.123 5.392-25.923 1.842-3.063 4.849-5.432 7.687-5.414 3.07.02 6.428 2.689 8.637 6.41zM213.647 332.064l21.938.012c3.926.002 7.74 2.745 10.406 6.469 4.963 6.933 7.597 18.793 8.063 34.687.41 14.01-2.354 25.8-7.5 35.813-2.831 5.507-7.696 8.132-14.531 8.132h-18.329v-3.914l5.344.024.013-77.038h-5.403zm15.237 4.31 5.953-.046c2.41-.02 4.59 1.594 5.485 4.687 3.39 11.73 2.42 23.01 2.39 34.313-.027 10.42.342 21.062-1.687 30.375-1.057 4.85-4.28 7.64-8.696 7.64h-3.304zM290.063 425.56h2.535l-.448 32.813-35.484.024-.047-5.391h5.777l.048-84.61h-5.872v-5.39l22.5.011v5.426h-6l-.023 84.703 5.145-.012c2.156-.005 3.977-.876 5.191-2.894 3.4-5.65 5.101-14.97 6.678-24.68" style="fill:#000;fill-rule:evenodd"></path><path d="M297.798 248.386c-91.335 0-165.377 75.468-165.377 168.563 0 93.096 74.052 169.334 165.377 169.314S462.796 510.038 462.8 416.95c.003-93.088-73.667-168.564-165.002-168.564m.009-8.447c-95.902 0-173.646 79.242-173.646 176.992s77.744 177.78 173.646 177.78 173.252-80.03 173.252-177.78-77.35-176.992-173.252-176.992" style="fill:#ffda00;fill-rule:evenodd"></path><path d="M334.11699999999996 341.5680000000001c-.008-.02-.574-.551-.202-1.266a1.3 1.3 0 0 1 .202-.282v-5.39l-.265-.422-3.611-.008v-.706l3.612.008.264-.423v-6.787l-.267-.424h-1.99v-.709h1.986l.066-.148q.084-.156.205-.28v-4.906l-.27-.429h-2.207v-.705h2.207l.065-.14q.084-.157.203-.284v-4.12h-28.541v4.126q.11.126.18.277l.055.141h4.095v.706h-4.094l-.057.14q-.07.151-.18.277v4.928q.11.127.182.276l.054.142h1.134v.705h-1.133l-.057.141a1.2 1.2 0 0 1-.18.277v6.802l.236.416h5.042v.709h-5.043l-.235.414v5.4q.11.126.182.276l.054.141h20.664v.707h-20.664l-.237.419v6.614q.111.127.183.277l.054.139h13.714v.708h-13.714l-.237.42-.002 7.032 28.545-.003v-7.03l-.257-.42h-.632v-.705h.637l.254-.422zM324 334.21l-7.622-.004-.007-9.94c0-1.944 1.99-3.875 4.026-3.878 2.076 0 3.956 1.987 3.955 3.992l.002 9.83zM334.259 357.46l-28.818.002-3.708 7.729h4.94l4.006-3.792 3.84 3.792h12.846l4.006-3.792 3.84 3.792h3.287zM304.879 372.132l.003-5.246.11-.105.934-.884h-4.402l-.004 6.235z" style="fill:#ecd66e;fill-rule:evenodd"></path><path d="m305.59 367.187-.017 16.333 10.038-.011-.003-16.249-4.94-4.88zM316.314 372.837v10.65h9.26v-10.651z" style="fill:#ecd66e;fill-rule:evenodd"></path><path d="M316.314 372.13h9.26v-5.243l.112-.106.933-.883h-11.386l1.08 1.066z" style="fill:#ecd66e;fill-rule:evenodd"></path><path d="M326.282 367.187v16.338l10.02-.005-.002-16.26-4.94-4.88z" style="fill:#ecd66e;fill-rule:evenodd"></path><path d="M337.007 366.965v5.164h1.734v-6.231h-2.815zM339.446 372.835h-2.44l.002 10.652h8.833v-10.651zM346.55 367.187v16.286h10.016V367.26l-4.939-4.878zM357.275 372.83299999999997v10.654h8.692l.003-10.65-4.352-.002zM362.328 365.897l-.004 6.232 1.119.003h2.527l-.002-5.246.11-.105.935-.884z" style="fill:#ecd66e;fill-rule:evenodd"></path><path d="m366.676 367.187.003 16.288 10.013-.001v-16.215l-4.94-4.878z" style="fill:#ecd66e;fill-rule:evenodd" data-source="https://football-logos.cc"></path><path d="M377.401 366.965v5.166l8.55-.001.001-5.244.111-.105.934-.883h-10.678zM385.951 372.836h-8.55v10.65h8.547z" style="fill:#ecd66e;fill-rule:evenodd"></path><path d="M386.66 367.187v16.283l10.017.003v-16.214l-4.94-4.878z" style="fill:#ecd66e;fill-rule:evenodd"></path><path d="M397.385 366.965v5.164h2.159v-6.231h-3.24zM400.25 372.835h-2.865v10.652h8.976v-10.651zM407.07 367.187v16.286h10.016V367.26l-4.939-4.878zM417.795 372.836v10.65h8.684l.006-10.649-3.922-.002zM423.272 365.897l-.004 6.235h3.217l.001-5.245 1.046-.99z" style="fill:#ecd66e;fill-rule:evenodd"></path><path d="m427.196 367.187-.001 16.334h10.017l.001-16.26-4.94-4.88z" style="fill:#ecd66e;fill-rule:evenodd"></path><path d="m437.92 366.965.002 5.166 8.69-.001v-5.243l1.046-.99H436.84zM446.613 372.836h-8.69l.006 10.65h8.684z" style="fill:#ecd66e;fill-rule:evenodd"></path><path d="m447.34 367.2-.02 16.274h10.018v-9.75a170 170 0 0 0-2.629-9.117l-2.3-2.226zM458.061 376.63l-.014 6.857h1.51a171 171 0 0 0-1.496-6.857" style="fill:#ecd66e;fill-rule:evenodd"></path><path d="M436.125 365.192h12.28l3.994-3.804 1.86 1.827a170 170 0 0 0-2.004-5.755l-25.066.002-3.708 7.73h4.798l4.006-3.793zM427.318 356.757l24.675-.002a170 170 0 0 0-6.74-15.607h-17.696l-.237.419v6.614q.11.126.183.278l.053.138h13.714v.709h-13.713l-.237.419zM427.55699999999996 340.44100000000003h17.346a169 169 0 0 0-3.272-6.233l-3.504-.001-.005-6.06a169 169 0 0 0-5.669-8.723l-4.896-.027-.056.14q-.07.151-.18.278v4.928q.11.125.182.276l.054.14h1.134v.706h-1.134l-.056.141a1.2 1.2 0 0 1-.18.277v6.802l.236.416h5.042v.709h-5.043l-.235.414v5.4q.11.126.182.276zM395.062 357.46l-28.818.002-3.708 7.729h5.223l4.006-3.792 3.84 3.792h12.138l4.006-3.792 3.84 3.792h3.712zM366.37299999999993 356.75700000000006l28.545-.003v-7.03l-.257-.42h-.632v-.705h.637l.254-.422v-6.61c-.008-.019-.574-.55-.202-1.265a1.3 1.3 0 0 1 .202-.282v-5.39l-.265-.422-3.611-.008v-.706l3.613.008.263-.423v-6.787l-.267-.425h-1.99v-.708h1.986l.066-.148q.085-.156.205-.28v-4.906l-.27-.43-2.206.001v-.705l2.206-.001.065-.14q.084-.157.204-.284v-4.12h-28.542v4.126q.11.127.18.277l.056.142h4.094v.706h-4.094l-.056.14q-.071.15-.18.277v4.928q.109.126.18.276l.056.141h1.133v.706h-1.133l-.056.14q-.071.151-.18.278v6.801l.235.417h5.042v.708h-5.043l-.235.415v5.4q.11.125.182.276l.055.14 20.663.001v.706h-20.664l-.237.42v6.613q.111.127.183.278l.054.138h13.714v.709h-13.714l-.237.42zm18.431-22.546999999999997-7.622-.004-.007-9.94c0-1.944 1.99-3.875 4.025-3.878 2.077 0 3.957 1.987 3.956 3.992l.002 9.83zM366.228 313.44h28.865l5.298-7.263h-38.264zM361.875 305.471h38.857v-9.954l-3.11-.001-.002 4.286-5.903.001v-4.282h-3.054v4.28l-5.895.002.019-4.282h-3.053v4.28l-5.875.003v-4.282l-3.054-.001v4.28l-5.875.003v-4.282l-3.054-.001-.001 3.929z" style="fill:#ecd66e;fill-rule:evenodd"></path><path d="m374.565 299.097 4.463-.002v-4.281h4.468l-.019 4.282 4.48-.002v-4.28h4.467v4.282h2.495v-9.325a1.3 1.3 0 0 1-.201-.284l-.062-.14-26.147.001-.26.423.001 9.324 1.849-.001v-4.281h4.467zM368.509 288.644h26.148l.262-.407.004-7.607H368.25v7.595zM339.588 306.177h-38.264l4.101 7.263h28.865zM301.072 305.471h38.857v-9.954l-3.11-.001-.002 4.286-5.903.001v-4.282h-3.054v4.28l-5.895.002.019-4.282h-3.053v4.28l-5.875.003v-4.282l-3.054-.001-.001 4.28-5.874.003v-4.282l-3.055-.001v3.929z" style="fill:#ecd66e;fill-rule:evenodd"></path><path d="m313.762 299.097 4.463-.002v-4.281h4.468l-.019 4.282 4.48-.002v-4.28h4.467v4.282h2.495v-9.325a1.3 1.3 0 0 1-.201-.284l-.062-.14-26.147.001-.26.423v9.324l1.85-.001v-4.281h4.467zM307.706 288.644h26.147l.262-.407.001-7.607h-26.67v7.595zM307.345 279.924h26.861l2.138-7.076h-31.49zM304.707 272.143h31.76l-.003-10.779h-2.135l.002 4.544-5.23.002-.003-4.547-2.139.001.005 4.546-5.234.002-.002-4.548h-2.137l.004 4.545-5.235.002.003-4.547-2.145.002.001 4.544-5.37.002-.004-4.544-2.14-.003zM333.683 408.422c-8.063-8.943-20.211-9.337-28.11-.018-3.576 4.218-5.876 10.043-5.947 16.535l5.239-.001c.08-8.536 5.002-17.055 14.506-17.06 4.395 0 7.841 1.975 10.292 4.9 2.799 3.34 4.281 7.918 4.36 12.159h5.905c.069-6.446-2.514-12.376-6.245-16.514zM338.863 444.27h-4.835v3.335c1.653-.893 3.262-2.042 4.835-3.334M334.028 443.562h5.573v-8.59h-5.574zM334.027 434.266h11.938l-.005-8.621h-11.933zM340.308 434.972v8.064q.346-.31.694-.626c1.63-1.486 3.252-2.946 4.964-4.156l-.002-3.282z" style="fill:#ecd66e;fill-rule:evenodd"></path><path d="M336.09 410.314a25.2 25.2 0 0 1 4.204 10.36c.63-3.862 2.04-7.39 4.009-10.364z" style="fill:#ecd66e;fill-rule:evenodd"></path><path d="M346.625 408.399c-3.592 4.198-5.905 9.998-5.99 16.466v.071h5.324c.077-8.537 5.01-17.052 14.512-17.059 9.292 0 14.503 8.917 14.655 17.06l5.965.001c.2-11.928-9.203-23.383-20.7-23.375-5.232.008-10.147 2.607-13.766 6.836M375.13 425.644v8.62h12.22l-.005-8.62zM381.13 434.973h-5.999l.001 8.589h5.997zM381.835 434.973v8.589h5.521l-.005-8.589zM387.356 444.27h-12.224l.001 3.203q.426.247.856.471h11.37zM386.868 448.65h-9.32c1.408.548 2.863.868 4.368.885 1.77.02 3.408-.307 4.952-.886M416.517 425.645v8.621h12.219l-.004-8.622zM422.374 434.972h-5.857v1.965c1.994 1.076 3.888 2.564 5.856 4.265zM423.08 434.972l-.001 6.845q.962.847 1.961 1.745h3.7l-.004-8.59zM428.74 444.27h-2.906q.552.49 1.12.99c.579.506 1.174.99 1.788 1.439zM457.902 425.643l-.001 8.624 4.042-.001q.427-4.281.642-8.62zM457.89900000000006 424.937l4.719.002q.156-3.412.178-6.855c-4.858-15.498-22.7-22.6-33.723-9.609-3.479 4.1-5.869 10.076-5.869 16.463h5.526c.077-8.538 5.01-17.055 14.513-17.061h.01c9.295.002 14.495 8.942 14.646 17.06z" style="fill:#ecd66e;fill-rule:evenodd"></path><path d="M422.859 420.666c.62-3.87 2.011-7.392 3.958-10.352h-8.19a25.1 25.1 0 0 1 4.232 10.352" style="fill:#ecd66e;fill-rule:evenodd"></path><path d="M422.498 424.939c.203-11.943-9.23-23.381-20.721-23.376-5.235.008-10.206 2.613-13.88 6.847-3.65 4.208-6.019 10.022-6.1 16.5v.028h5.547c.076-8.538 5.01-17.054 14.512-17.06 9.294 0 14.507 8.92 14.658 17.061z" style="fill:#ecd66e;fill-rule:evenodd"></path><path d="M381.46 420.72c.641-3.877 2.086-7.421 4.094-10.407h-8.332a25.2 25.2 0 0 1 4.237 10.408M427.322 318.273q.11.126.18.277l.055.141 4.4.019a172 172 0 0 0-3.322-4.563h-1.314zM428.099 313.44a167 167 0 0 0-3.235-4.113l2.31 4.113zM298.351 425.645v8.622h6.516v-8.622zM457.9 434.974h3.975q-.05.426-.094.851c-1.53.112-2.784.456-3.881.93zM298.352 384.196h161.343a182 182 0 0 1 1.625 10.046H298.352ZM298.343 394.945l163.093-.005c.15 1.55.384 3.353.525 4.912l-163.611-.084zM298.349 372.84h6.53l-.007 10.649h-6.522z" style="fill:#ecd66e;fill-rule:evenodd"></path><path d="m298.349 400.476 163.686.076c.384 3.025.82 12.402.762 15.45-.887-2.229-2.142-4.35-3.659-6.392-3.163-4.262-9.5-8.603-16.345-8.605-6.844 0-12.196 3.972-15.493 8.605h-9.191c-3.296-4.462-9.668-8.755-16.172-8.756-7.426-.002-12.881 4.593-15.881 8.756h-9.35c-3.556-4.763-9.658-8.785-16.477-8.747-6.819.037-12.76 4.85-15.434 8.74l-9.205.001c-4.605-5.882-10.492-8.697-16.162-8.745-5.835-.05-11.55 2.987-15.695 8.75l-5.386.005zM365.657 272.85l17.885-.003c2.127 1.18 7.801 4.919 10.466 7.078l-25.86.003zM365.508 263.138l2.143 1.013v1.767l3.583-.005a132 132 0 0 1 11.177 6.232H365.51zM298.349 410.315l4.914-.001c-2.927 4.434-4.321 9.766-4.34 14.625h-.572zM298.35 434.972l6.52.001v1.385c-1.858-.726-3.912-1.108-6.52-1.137z" style="fill:#ecd66e;fill-rule:evenodd"></path><path d="M297.638 182.675c-126.832 0-229.65 105.034-229.65 234.6s102.818 234.6 229.65 234.6 229.65-105.034 229.65-234.6-102.818-234.6-229.65-234.6m0-13.971c-134.386 0-243.327 111.289-243.327 248.571s108.941 248.571 243.327 248.571 243.326-111.289 243.326-248.57c0-137.283-108.94-248.572-243.326-248.572" style="fill:#ffda00;fill-rule:evenodd"></path><defs><linearGradient id="l"><stop offset="0%" stop-color="#1b1918"></stop><stop offset="100%" stop-color="#fff"></stop></linearGradient></defs><path d="m73.174 467.092 58.058.05m332.733.209 58.08-.002" style="fill:url(#l)"></path><defs><linearGradient id="m"><stop offset="0%" stop-color="#8b0304"></stop><stop offset="100%" stop-color="#c5080a"></stop></linearGradient></defs><path d="M297.807 239.939c95.902 0 173.252 79.242 173.252 176.992 0 17.493-2.477 34.419-7.094 50.42l58.08-.002c3.434-16.135 5.243-32.889 5.243-50.074 0-129.566-102.818-234.6-229.65-234.6s-229.65 105.034-229.65 234.6c0 17.094 1.79 33.761 5.186 49.816l58.058.05c-4.602-15.939-7.07-32.793-7.07-50.21 0-97.75 77.743-176.992 173.645-176.992" style="fill:url(#m)"></path><path d="m502.762 428.968 5.412.181c.473-1.086 1.26-3.994 1.346-6.726.196-6.141-2.588-9.643-7.258-9.932-4.312-.266-6.39 2.93-8.49 6.982-1.684 3.248-3.39 5.991-6.889 5.832-3.408-.155-5.097-2.324-4.973-5.75.133-3.712 2.434-4.74 5.043-5.517l.044-2.254-4.86-.06c-1.315-.017-1.039.994-1.054 2.228-.016 1.24-.483 1.83-.77 4.023-.748 5.682 1.491 10.746 6.386 11.049 4.446.275 7.296-1.072 10.032-7.338 1.583-3.628 3.77-5.564 6.567-5.31 3.162.289 4.61 3.184 4.482 5.272-.208 3.377-1.917 4.535-4.928 5.307zm-14.718-22.826c-2.108-.13-3.33-.37-4.354-1.011-1.665-1.042-1.76-2.958-1.967-5.34-.138-1.594-.47-3.723-.23-4.277.142-.329 1.57-.367 3.726-.525l8.069-.593.352 4.158c.174 2.048-.206 2.916-2.633 3.292l.163 2.28 8.255-.635-.184-2.094c-3.2-.36-3.372-1.404-3.646-4.568l-.225-2.603 9.315-.884c1.094-.103 1.657-.082 1.795 1.337l.155 1.595c.258 2.658.308 6.234-.416 6.954-.719.715-1.92 1.278-3.51 1.543l.342 2.328 6.525-.706-1.964-19.95-1.478.144c-.108 2.404-.703 2.54-3.943 2.844l-17.338 1.623c-3.673.344-4.204-.146-4.928-2.212l-1.217.143 1.91 19.664 7.502-.177zm22.205-14.567c-.599-.105-.599.396-.262.61l6.618 4.087c.574.345 2.017.054 2.382-.76.484-1.08-.269-2.47-1.65-2.709zm-3.555-13.313-2.03-7.437-1.123.263c.159 2.126-.267 2.661-1.801 3.076l-17.148 4.642-.158-.48 17.847-17.682-1.567-6.687-1.011.356c.28 1.768-.476 2.359-1.653 2.949-1.194.598-1.692.621-4.57 1.348l-16.232 4.104c-1.67.422-2.541.279-3.274-1.969l-1.055.368 1.765 7.716 1.167-.368c-.272-2.829.59-2.837 2.257-3.276l18.995-5.01.142.518-19.67 19.668.594 2.56 24.26-6.189c.891-.227 2.097-.206 3.217 1.885zm-1.677-19.304c0 .613.019 1.3.019 1.912 1.511.19 2.665.575 2.662 2.438-.003 2.017-1.45 1.657-1.218 4.388.243 2.877 2.537 3.687 5.212 4.387l.6-1.8c-1.874-.53-3.03-.88-3.075-2.681-.043-1.76 1.276-2.724 1.2-4.35-.114-2.462-1.996-3.892-5.4-4.294m-11.93-22.382c1.466 3.967-.514 8.369-9.813 11.94-7.56 2.905-13.051.882-14.223-2.29-1.636-4.427 3.208-9.41 10.366-12.105 7.292-2.744 12.36-1.095 13.67 2.455m1.914-.1c-3.213-8.352-11.138-8.612-18.019-6.07-8.02 2.961-12.382 8.531-9.697 15.798 2.545 6.89 9.098 9.583 18.004 6.293 8.357-3.086 12.457-8.884 9.712-16.021m-30.998-1.295c-.8-1.384-.575-2.552.542-4.278l3.16-4.888c1.112-1.718 2.5-3.65 2.167-5.405-.054-.283.193-.499.405-.35 3.125 2.88 6.27 3.396 9.632 1.571 2.412-1.308 3.683-3.47 3.898-5.578.206-2.02-.872-4.789-2.46-7.623l-4.82-8.61-.906.651c1.2 2.602.443 2.745-2.705 4.492l-14.053 7.798c-3.341 1.855-4.509 3.149-6.765 1.028l-1.06.61 4.506 7.672.994-.571c-.846-2.3-.227-2.86 3.017-4.619l5.91-3.206.412.679c1.656 2.727 2.115 3.418 1.28 4.725l-7.134 11.163 2.003 3.735a6.6 6.6 0 0 0 1.078 1.442zm2.988-22.134 9.399-5.312c.862-.487 1.332-.449 1.706-.357.339.082.643.517 1.163 1.293 2.665 3.984 2.274 7.01-1.81 9.386-2.843 1.655-5.147 1.327-6.517.351-1.3-.925-2.562-2.818-3.368-4.304zm-6.028-8.186-5.39-7.62-1 .738c1.02 2.37 1.003 2.967-1.239 4.547l-3.35 2.362c-1.186.837-2.37.28-2.827-.081-.448-.354-2.003-1.915-2.403-2.556-2.535-4.063.698-8.847 6.445-12.876 7.052-4.944 11.643-5.54 14.098-2.303 1.704 2.245 3.217 4.756-.162 8.229l1.529 2.007 4.81-3.896c-.559-1.452-.96-2.094-2.433-4.683-4.076-7.156-11.277-9.758-19.699-3.981-7.086 4.86-11.724 10.778-6.537 18.34 1.1 1.603 2.467 3.276 4.9 4.112.617.212.523 1.27.013 2.001l1.274 1.759 6.865-5.273c2.176-1.671 2.564-1.484 4.256-.236zm-14.536-40.678c2.957 3.025 2.944 7.85-4.088 14.906-5.717 5.737-11.555 6.13-13.92 3.712-3.299-3.374-.91-9.9 4.526-15.28 5.537-5.482 10.836-6.043 13.482-3.338m1.706-.872c-6.341-6.314-13.683-3.317-18.927 1.81-6.113 5.977-7.823 12.842-2.408 18.38 5.135 5.253 12.217 5.038 19.005-1.6 6.37-6.228 7.748-13.194 2.33-18.59m-27.21 2.309c-1.654 1.566-2.774 2.572-3.87 3.062-1.392.622-2.45.46-3.846-.644l-4.602-3.642 12.537-17.056c2.212-3.01 2.41-3.52 4.917-2.179l.715-.906-7.42-5.768-.63.775c1.583 2.26 1.391 2.777-.826 5.779l-10.285 13.923c-2.138 2.893-2.44 3.158-5.063 2.034l-.573.776 15.295 11.865 5.473-6.492zm-30.376-12.026.674-1.461c-1.801-1.403-1.499-1.686-.819-5.892l3.81-23.557-3.302-1.662-18.2 17.176c-2.636 2.487-2.83 3.206-5.23 2.637l-.684 1.222 8.339 3.926.48-1.034c-2.117-1.393-2.304-2.666-.685-4.539 1.192-1.378 2.55-2.76 3.353-3.627l9.008 4.426c-.15 1.573-.682 3.291-.873 4.685-.315 2.295-1.59 2.95-3.852 2.112l-.583 1.314zm-2.885-14.31-8.082-3.891c2.347-2.476 7.795-7.34 10.261-9.86l.326.199zm-9.017-24.153-8.343-3.1-.4 1.037c2.911 1.502 2.635 2.664.696 5.19l-11.684 15.216-.454-.167 1.292-19.777c.14-2.144.796-3.335 3.59-2.855l.363-.98-9.2-3.048-.4 1.131c2.205 1.099 1.75 1.476 1.63 5.14l-.816 25.006 2.485 1.1 15.319-18.97c2.904-3.597 3.2-4.177 5.523-4.073zm-34.421 19.047.388-1.093c-2.6-1.426-1.9-2.083-1.14-5.275l3.966-16.651c.854-3.589 1.05-3.98 3.288-3.759l.343-1.163-8.725-2.148-.327 1.143c2.664 1.306 2.404 1.586 1.508 5.166l-4.291 17.138c-.874 3.492-.866 3.28-3.421 3.597l-.223 1.058zm-7.092-23.976.609-7.311c-7.48-1.04-15.01-2.423-22.488-3.46l-1.104 7.429 2.1.32c.757-1.893 1.674-3.297 2.387-3.975.785-.746 1.037-1.277 3.462-.94.757.105 1.529.264 2.187.52l-3.037 21.271c-.521 3.65-.385 4.038-3.467 4.22l-.13 1.172 9.904 1.567.092-1.396c-2.39-.838-2.759-1.2-2.299-4.861l2.7-21.495c.724-.074 1.43-.095 2.154.031 1.755.305 2.757 1.307 3.342 2.17.57.84.888 2.174 1.107 4.475zm-24.77 17.156c-1.6.001-2.497-.778-3.433-2.608l-2.651-5.182c-.932-1.822-1.91-3.99-3.596-4.58-.272-.096-.336-.417-.1-.526 3.04-.842 5.974-3.666 5.99-7.75.01-2.744-.974-4.73-2.69-5.97-1.646-1.19-4.584-1.64-7.832-1.685l-9.866-.133.11 1.11c2.854.262 2.599.99 2.537 4.589l-.28 16.07c-.066 3.82.47 5.479-2.495 6.37l-.002 1.223 8.897-.062.003-1.146c-2.413-.418-2.588-1.234-2.489-4.923l.18-6.721.795-.017c3.19-.07 4.017-.122 4.731 1.256l6.097 11.762 4.235.134c.58.018 1.3-.076 1.79-.212zm-17.67-13.66.103-10.796c.01-.99.278-1.378.544-1.656.241-.252.77-.298 1.702-.36 4.782-.314 7.207 1.538 7.222 6.263.01 3.29-1.427 5.12-2.957 5.819-1.452.662-3.722.808-5.412.763zm-24.988-11.367c4.203-.47 8 2.51 9.232 12.395 1.002 8.037-2.28 12.881-5.642 13.256-4.69.524-8.362-5.375-9.258-12.972-.912-7.737 1.907-12.26 5.668-12.68m.362-1.882c-8.879 1.112-11.035 8.743-10.222 16.032.947 8.496 5.306 14.07 13.004 13.21 7.3-.814 11.49-6.528 10.437-15.964-.988-8.854-5.631-14.227-13.219-13.278m-37.135 8.105.338 1.213c3.013-.318 2.915.995 3.813 4.573l3.935 15.682c.897 3.577 1.62 4.71-1.187 5.768l.33 1.263 9.235-2.48-.33-1.263c-2.652.384-2.89-.347-3.82-3.917l-1.602-6.14 2.625-.76c.473-.125.9-.247 1.485-.482 4.37-1.755 8.246-5.338 6.77-10.997-.76-2.917-2.493-4.792-4.77-5.592-1.976-.693-4.954-.092-8.261.806zm7.326 1.724c-.173-.698-.509-1.238-.242-1.562.221-.268.887-.366 1.605-.601 4.452-1.465 7.668-.481 8.997 4.612 1.533 5.878-3.618 7.698-4.866 8.023-.818.214-2.148.583-2.765.512zM232.86 231.1c.514 2.049.654 3.285.352 4.457-.49 1.901-2.288 2.571-4.495 3.487-1.479.614-3.408 1.574-4.008 1.513-.357-.036-.825-1.387-1.627-3.394l-3.003-7.512 3.857-1.592c1.9-.785 2.842-.684 3.934 1.515l2.123-.845-3.1-7.677-1.94.809c.624 3.159-.32 3.638-3.252 4.855l-2.413 1.002-3.658-8.613c-.43-1.01-.58-1.554.731-2.114l1.474-.63c2.456-1.05 5.85-2.178 6.754-1.705.9.469 1.798 1.443 2.533 2.88l2.115-1.03-2.645-6.006-18.424 7.9.584 1.366c2.325-.624 2.634-.097 3.903 2.899l6.786 16.037c1.439 3.397 1.133 4.052-.618 5.366l.504 1.117 18.167-7.763-2.436-7.098zm-43.131 2.422c-.693-1.21-.97-1.797-.822-2.18.139-.358.578-.864 1.536-1.429 1.954-1.154 5.63-2.235 7.92-1.488 2.443.796 5.063 3.054 7.335 6.987 4.258 7.37 2.95 13.454-2.705 16.499-1.998 1.076-2.115 1.09-3.612-1.526zm-8.03-.564.722 1.178c2.309-1.1 2.567-.774 4.468 2.544l8.537 14.9c1.879 3.278 1.7 3.638.083 5.405l.557 1.092 7.488-4.502c4.274-2.57 6.89-5.306 8.133-9.002 1.234-3.668.265-7.15-2.548-11.916-2.08-3.525-4.589-6.265-7.313-7.11-3.6-1.117-6.822-.375-11.355 2.277zm-28.03 28.494c-.92-1.047-1.308-1.566-1.24-1.972.064-.378.393-.96 1.219-1.706 1.685-1.522 5.07-3.316 7.464-3.042 2.552.292 5.57 1.981 8.583 5.381 5.645 6.37 5.578 12.593.646 16.706-1.743 1.454-1.855 1.49-3.844-.773zm-7.98 1.052.943 1.01c2.043-1.54 2.36-1.27 4.886 1.6l11.342 12.893c2.496 2.837 2.394 3.225 1.162 5.28l.764.958 6.438-5.907c3.674-3.371 5.69-6.577 6.17-10.446.476-3.84-1.17-7.058-4.879-11.166-2.743-3.038-5.747-5.222-8.586-5.506-3.751-.375-6.76.997-10.67 4.501zm18.58 22.447-.959-.85c-1.803 1.4-2.003 1.037-5.912-.658l-21.894-9.491-2.335 2.53 12.149 22.14c1.743 3.177 2.34 3.52 1.198 5.708l1.015.963 5.858-7.115-.884-.72c-1.87 1.708-3.15 1.576-4.567-.454-1.042-1.494-2.048-3.152-2.69-4.143l6.507-7.64c1.487.531 3.022 1.47 4.326 1.999 2.147.87 2.43 2.38 1.06 4.365l.922.83zm-14.287-.564-5.762 6.875-6.993-12.448.235-.192zm-32.31 23.085c-1.173-.752-1.69-1.143-1.737-1.552-.043-.381.112-1.033.699-1.977 1.198-1.929 3.954-4.59 6.33-4.989 2.534-.426 5.901.362 9.738 2.796 7.187 4.559 8.845 10.557 5.244 15.875-1.272 1.879-1.37 1.945-3.908.32zm-7.378 3.22 1.187.708c1.536-2.044 1.916-1.874 5.137.186l14.468 9.25c3.184 2.036 3.193 2.437 2.578 4.753l.999.709 4.551-7.458c2.598-4.257 3.648-7.895 3.038-11.746-.605-3.822-3.077-6.46-7.778-9.38-3.477-2.16-6.968-3.427-9.774-2.914-3.708.678-6.22 2.828-9.009 7.279zm15.556 16.994c1.756 1.175 2.69 1.998 3.25 3.07.912 1.74.028 3.441-.995 5.601-.685 1.447-1.472 3.453-1.959 3.81-.288.212-1.541-.475-3.482-1.426l-7.266-3.558 1.793-3.767c.884-1.857 1.65-2.415 3.934-1.515l1.009-2.05-7.448-3.616-.897 1.9c2.582 1.925 2.203 2.913.844 5.783l-1.118 2.362-8.49-3.936c-.996-.462-1.472-.765-.875-2.059l.67-1.455c1.119-2.427 2.88-5.54 3.867-5.795.982-.255 2.302-.135 3.81.438l.879-2.182-5.99-2.682-8.368 18.216 1.349.622c1.306-2.022 1.888-1.839 4.839-.467l15.79 7.344c3.345 1.555 3.557 2.246 3.14 4.395l1.123.49 8.269-17.941-6.567-3.632zm-1.456 22.759-1.047-.5c-1.688 2.44-2.269 1.674-5.365.587l-16.151-5.668c-3.48-1.222-3.85-1.456-3.398-3.66l-1.122-.462-3.04 8.456 1.103.444c1.575-2.514 1.827-2.227 5.295-.965l16.6 6.043c3.383 1.231 3.174 1.2 3.225 3.775l1.028.332zm-10.777 11.484c3.535 1.641 4.455 4.062 3.61 7.07-1.3 4.628-6.54 6.128-15.202 3.523-6.42-1.93-10.83-6.053-9.597-10.338.812-2.823 1.777-4.154 6.53-4.447l-.125-1.73-5.492-1.875c-.282 1.423-1.848 3.984-2.635 6.675-2.386 8.162 3.158 13.596 11.06 16.039 6.706 2.074 14.634 2.364 17.12-6.925.713-2.665.695-7.52.896-8.677l-5.726-1.642zM87.16 392.103c.568-4.192 4.382-7.148 14.27-5.939 8.039.984 11.938 5.347 11.484 8.699-.634 4.676-7.25 6.803-14.835 5.822-7.727-.998-11.427-4.833-10.92-8.582m-1.737-.81c-1.083 8.883 5.794 12.832 13.062 13.817 8.471 1.148 14.938-1.723 15.978-9.399.986-7.279-3.536-12.732-12.944-14.007-8.828-1.197-15.17 1.999-16.096 9.59m4.885 19.5-5.414.056c-.425 1.105-1.084 4.045-1.052 6.778.071 6.144 3.005 9.52 7.684 9.606 4.319.079 6.255-3.204 8.178-7.344 1.54-3.32 3.126-6.134 6.628-6.127 3.412.007 5.193 2.1 5.219 5.53.028 3.712-2.226 4.84-4.798 5.73l.054 2.253 4.859-.15c1.313-.041.993-1.04.955-2.273-.038-1.24.402-1.85.595-4.052.499-5.71-1.959-10.672-6.862-10.761-4.454-.081-7.243 1.388-9.703 7.768-1.424 3.693-3.525 5.722-6.33 5.59-3.171-.15-4.744-2.98-4.707-5.071.061-3.383 1.718-4.615 4.693-5.517z" style="fill:#fff;fill-rule:evenodd"></path><path d="M297.807 594.71c-78.814 0-145.364-54.05-166.575-127.569l-58.056-.05c22.36 105.637 114.363 184.784 224.462 184.784 110.01 0 201.952-79.019 224.407-184.526l-58.08.002c-21.185 73.41-87.418 127.36-166.158 127.36z" style="fill:#1b1918;fill-rule:evenodd;stroke:#1b1918;stroke-width:.56690001;stroke-linecap:butt;stroke-linejoin:miter;stroke-dasharray:none"></path><path d="M306.963 589.447c.107-.232 10.664-7.534 11.1-7.65 1.237-.33 2.125-.615 3.375.075a261 261 0 0 1 10.65 6.225c1.257.773 2.427 1.375 2.25 3.075-.425 4.088-.93 7.877-1.5 11.4-.17 1.052-.648 1.887-1.8 2.775a328 328 0 0 1-12.375 9.075c-1.063.742-2.162.963-3.9.3-3.834-1.463-7.487-3.218-10.8-5.775-.484-.374-.554-.874-.45-1.425 1.016-5.36 1.814-10.7 2.475-16.05.083-.674.6-1.22.975-2.025m34.246-14.828c.107 1.304.337 2.642-.201 3.835-1.3 2.886-2.672 5.829-4.725 8.326-.863 1.05-1.994.44-3.075-.188-3.777-2.192-7.633-4.249-11.437-6.413-.943-.535-1.524-1.197-1.726-1.8-1.673-4.991-2.805-9.65-4.63-14.587-.45-1.216-.823-2.39.168-3.863 1.99-2.958 3.857-5.937 6.095-8.943.35-.47 1.004-.592 1.538-.488a12.3 12.3 0 0 1 4.903 2.107l.008.005a15.5 15.5 0 0 1 2.493 2.197l.007.008q.321.35.62.711l.003.004c4.63 5.415 8.071 11.94 9.96 19.09zm-47.934 6.917c3.637 2.056 6.99 4.62 10.425 7.837.693.65.726 1.393.525 2.7-.77 5.02-1.396 10.009-2.4 14.888-.182.882-.512 1.894-1.538 2.7-2.373 1.865-5.555 3.182-8.774 4.275-1.927.654-4.294.507-6.45-.45-4.77-2.118-8.363-5.43-11.325-9-.862-1.039-.974-2.342-.825-3.6.42-3.553 1.036-7.11 1.875-10.8.188-.83 1.209-1.64 1.35-1.8.14-.161 12.239-6.663 12.656-6.694 1.419-.103 2.792-1.01 4.481-.056m3.787-41.638.013-.001.655-.003c4.848 0 9.48.783 13.804 2.229 3.139 1.144 5.968 2.86 8.083 5.52.874 1.1.725 2.361 0 3.563-.978 1.623-1.897 3.429-2.921 4.944-.85 1.259-1.772 2.252-2.704 3.381-.349.423-.69.57-1.237.6-4.658.26-9.306.693-13.95 1.126-.926.086-1.972-.27-3.113-1.5-1.401-1.513-2.464-3.203-3.788-4.613-1.342-1.431-2.827-2.98-4.03-4.462-.956-1.177-.892-1.841.074-3.3.663-1 1.58-2.366 2.335-3.3.563-.697 1.722-1.793 2.897-2.7 1.065-.823 2.35-1.338 3.882-1.484zm-44.328 45.493c0-.171.01-.346.02-.52l.018-.357c.57-11.31 4.489-21.142 10.69-28.674 1.093-1.195 2.26-2.138 3.605-2.412.312-.064.576-.04.844.393.675 1.095 1.495 2.097 2.175 3.188.443.711.016 1.205-.319 1.744-2.036 3.275-3.443 6.713-4.594 10.105-.845 2.494-1.593 4.914-1.95 7.388-.124.866-.494 1.669-1.312 2.475-2.457 2.424-4.52 5.26-6.826 7.987-.953 1.128-1.648.897-2.212-.413-.114-.265-.142-.578-.14-.904m1.32 13.148a44.6 44.6 0 0 1-1.307-8.975c.157-.682.423-.976.856-.93.752.081.89.484.92 1.088.354 7.11 3.213 12.679 6.15 18.168.263.493.38.986.487 1.462.136.611.29 1.36-.075 1.876-.44.623-1.032-.12-1.49-.675-2.577-3.12-4.39-7.62-5.542-12.014m24.97 28.747c-4.962-2.186-9.595-5.228-13.549-9.063a43 43 0 0 1-1.447-1.472c-.865-1.33-1.8-2.684-1.707-4.207.074-1.2.103-2.33 0-3.525-.089-1.032.729-1.394 1.5-1.575 2.176-.512 4.264-1.332 6.375-1.913 1.497-.411 2.536.323 3.488 1.163a199 199 0 0 0 6 5.1c2.11 1.719 4.25 3.242 6.432 4.237.794.362 1.359.918 1.65 2.081.65 2.592 1.465 5.154 1.707 7.725.06.636-.24 1.049-.937 1.256-3.245.967-6.456 1.387-9.512.193m25.451 3.548a41.7 41.7 0 0 1-6.445.509 45.4 45.4 0 0 1-6.976-.538c-1.11-.328-2.075-.647-3.215-.98-1.114-.325-.461-.89.085-1.04 3.914-1.08 6.954-.915 9.994-.92 4.014-.005 7.225.507 9.956 1.126 1.125.254 1.531 1.01.244 1.012-1.303.001-2.479.4-3.642.831m5.931-5.358c1.916-2.562 3.845-5.226 6.113-7.8.87-.987 1.772-1.575 2.662-1.95 2.446-1.027 4.492-2.719 6.563-4.387 2.473-1.992 5.175-3.685 7.688-5.625 1.025-.79 2.185-.62 3.6-.262.786.199.668.584.488 1.087a27.8 27.8 0 0 1-3.637 6.928l-.01.014a45.5 45.5 0 0 1-5.246 5.663 47.5 47.5 0 0 1-9.726 6.84c-1.634.688-3.202 1.375-5.082 1.78-1.311.28-2.535.284-3.507-.545-.646-.55-.379-1.11.094-1.743m-12.676-87.284c-13.162 0-24.982 5.237-33.444 14.157-8.238 8.681-13.288 20.844-13.288 35.05 0 13.464 5.32 24.304 13.294 32.04 9.103 8.83 21.675 13.6 33.738 13.605 11.315 0 22.944-4.625 31.74-12.645 8.806-8.027 14.782-19.457 14.785-33.056 0-26.59-20.324-49.15-46.825-49.15m-2.825 23.686c.675 1.307.8 2.536.225 3.75-1.836 3.872-3.138 7.76-3.862 11.663-.155.834-.71 1.397-1.538 1.838-4.322 2.298-8.674 4.542-12.975 6.881-.883.48-1.708.135-2.474-.431-3.24-2.392-6.227-5.224-8.457-9.113-.64-1.116-.47-2.28 0-3.6 1.426-3.995 2.636-8.125 4.65-12.15.86-1.719 2.276-3.233 4.125-4.8 2.578-2.184 5.923-3.708 9.543-4.95.975-.335 1.801-.097 2.438.524 3.345 3.268 6.41 6.684 8.325 10.388" style="fill:#1b1918;fill-rule:evenodd"></path><path d="M270.475 560.716c-2.015 4.025-3.225 8.155-4.65 12.15-.472 1.32-.64 2.484 0 3.6 2.229 3.889 5.216 6.721 8.456 9.113.766.566 1.591.912 2.474.431 4.3-2.34 8.653-4.583 12.975-6.881.829-.441 1.383-1.004 1.538-1.838.724-3.903 2.026-7.79 3.862-11.663.575-1.213.45-2.443-.225-3.75-1.914-3.704-4.98-7.12-8.325-10.388-.637-.621-1.463-.86-2.438-.525-3.62 1.243-6.965 2.767-9.543 4.951-1.849 1.567-3.264 3.082-4.125 4.8M263.224 576.246c.739-5.129 3.762-13.02 6.543-17.493.335-.54.762-1.033.319-1.744-.68-1.091-1.5-2.093-2.175-3.188-.268-.434-.532-.457-.844-.393-1.346.274-2.512 1.218-3.605 2.412-6.201 7.532-10.12 17.364-10.69 28.674l-.038.877c-.01 1.164.878 3.06 2.351 1.317 2.306-2.727 4.369-5.563 6.826-7.987.818-.806 1.188-1.61 1.312-2.475M260.672 607.89c-2.936-5.49-5.795-11.057-6.15-18.168-.074-1.494-1.661-1.41-1.775-.158.141 3.152.59 6.146 1.306 8.975 1.715 4.206 3.667 8.238 5.87 12.014.362.622.721 1.298 1.162.675.517-.733-.037-2.636-.413-3.338M263.821 607.444c-.771.181-1.589.543-1.5 1.575.103 1.195.074 2.325 0 3.525-.094 1.523.842 2.877 1.708 4.207q.706.754 1.446 1.472c3.954 3.835 8.587 6.877 13.549 9.063 3.056 1.194 6.268.774 9.512-.193.697-.207.997-.62.937-1.256-.242-2.571-1.057-5.133-1.707-7.725-.291-1.163-.856-1.72-1.65-2.08-3.945-1.799-9.013-6.32-12.432-9.338-.952-.84-1.99-1.574-3.488-1.163-2.111.58-4.2 1.4-6.375 1.913M272.913 600.886c-.15 1.258-.037 2.561.825 3.6 2.962 3.57 6.555 6.882 11.325 9 2.156.957 4.523 1.104 6.45.45 3.219-1.093 6.4-2.41 8.774-4.275 1.026-.806 1.356-1.818 1.538-2.7 1.004-4.88 1.63-9.869 2.4-14.888.2-1.307.168-2.05-.525-2.7-3.434-3.217-6.788-5.781-10.425-7.837-1.69-.955-3.062-.047-4.481.056-.417.03-12.516 6.533-12.656 6.694s-1.162.97-1.35 1.8a103 103 0 0 0-1.875 10.8M297.918 627.866c-3.04.004-6.08-.161-9.995.92-.546.15-1.198.714-.084 1.04 1.14.332 2.105.651 3.215.979 2.325.359 4.66.541 6.976.538 2.144 0 4.3-.173 6.445-.509 1.164-.43 2.34-.83 3.643-.83 1.287-.002.88-.759-.244-1.013-2.731-.62-5.942-1.13-9.956-1.126M316.52 617.677c-2.269 2.573-4.198 5.237-6.114 7.799-.473.633-.74 1.192-.094 1.744.972.828 2.195.825 3.506.543 1.88-.404 3.449-1.09 5.083-1.78a47.5 47.5 0 0 0 9.726-6.84c4.092-3.73 7.018-7.372 8.893-12.604.18-.503.298-.888-.488-1.087-1.415-.359-2.575-.529-3.6.262-2.513 1.94-5.215 3.633-7.688 5.625-2.07 1.668-4.117 3.36-6.563 4.388-.89.374-1.791.962-2.662 1.95M303.963 608.947c3.313 2.557 6.966 4.312 10.8 5.775 1.738.663 2.838.442 3.9-.3a328 328 0 0 0 12.375-9.075c1.152-.888 1.63-1.722 1.8-2.775.57-3.523 1.075-7.312 1.5-11.4.177-1.7-.993-2.302-2.25-3.075a261 261 0 0 0-10.65-6.225c-1.25-.69-2.138-.405-3.375-.075-.436.116-10.993 7.418-11.1 7.65-.374.805-.892 1.35-.975 2.025-.66 5.35-1.459 10.69-2.475 16.05-.104.55-.034 1.051.45 1.425M321.77 580.18c3.806 2.163 7.662 4.22 11.438 6.412 1.081.627 2.212 1.237 3.075.188 2.053-2.497 3.425-5.44 4.725-8.326.538-1.193.308-2.531.201-3.835-1.888-7.149-5.33-13.674-9.959-19.089-2.068-2.5-4.693-4.377-8.034-5.032-.534-.105-1.188.018-1.538.488-2.238 3.006-4.105 5.985-6.095 8.943-.991 1.473-.618 2.647-.169 3.862 1.826 4.939 2.957 9.597 4.631 14.588.202.603.783 1.265 1.726 1.8M298.805 561.256c4.644-.433 9.292-.865 13.95-1.125.548-.03.888-.177 1.237-.6.932-1.13 1.854-2.123 2.704-3.381 1.024-1.516 1.943-3.321 2.921-4.944.725-1.202.874-2.463 0-3.563-2.115-2.66-4.944-4.377-8.083-5.521a43.4 43.4 0 0 0-13.804-2.229l-.668.005c-1.532.146-2.817.661-3.882 1.483-2.654 2.05-3.527 3.427-5.232 6-.966 1.46-1.03 2.124-.074 3.3 1.203 1.482 2.688 3.032 4.03 4.463 2.204 2.348 4.158 6.368 6.9 6.112z" style="fill:#fff;fill-rule:evenodd"></path><path d="m264.139 641.749 33.88 9.264 33.396-9.265.627-.174-.001.65-.036 21.375-.001.38-.364.098-33.45 9.076-.123.033-.129-.033-34.051-8.775-.374-.097v-22.704zm33.753 10.253-33.387-9.129v20.644l33.536 8.649 32.976-8.947.035-20.344-32.899 9.127-.13.036z" style="fill:#e5c000;fill-rule:evenodd"></path><defs><linearGradient id="n"><stop offset="0%" stop-color="#1b1918"></stop><stop offset="100%" stop-color="#fff"></stop></linearGradient></defs><path d="m298.023 652.039.018 20.127" style="fill:url(#n)"></path><defs><linearGradient id="o"><stop offset="0%" stop-color="#1b1918"></stop><stop offset="100%" stop-color="#fff"></stop></linearGradient></defs><path d="m314.503 647.467-.01 20.236" style="fill:url(#o)"></path><defs><linearGradient id="p"><stop offset="0%" stop-color="#1b1918"></stop><stop offset="100%" stop-color="#fff"></stop></linearGradient></defs><path d="m280.553 647.261.014 20.396" style="fill:url(#p)"></path><path d="m280.553 647.261.014 20.396 17.474 4.51-.017-20.129-.132-.036z" style="fill:#fff;fill-rule:evenodd"></path><path d="m298.024 652.038.017 20.128 16.452-4.463.01-20.237-16.35 4.536z" style="fill:#00851e;fill-rule:evenodd"></path><path d="m298.041 672.166-.017-20.128-.132-.036-17.339-4.74.014 20.395z" style="fill:#fff;fill-rule:evenodd"></path><path d="m280.567 667.657-.014-20.396-16.048-4.388v20.644z" style="fill:#b70000;fill-rule:evenodd"></path><path d="m314.503 647.467-.01 20.236 16.524-4.484.034-20.344z" style="fill:#ffd400;fill-rule:evenodd"></path><path d="M266.788 549.907c8.219-7.426 19.031-11.715 30.942-11.715q.31 0 .62.004V464.44l-31.62-.019zM393.154 464.498l31.336.017.015 60.86c-7.52 9-17.776 20.24-31.296 29.69zM330.224 464.475l31.055.01v108.774c-4.72 2.074-11.445 4.543-17.333 6.264-1.67-12.029-8.096-21.988-13.66-27.55z" style="fill:#fff;fill-rule:evenodd" data-source="https://football-logos.cc"></path><!-- source: https://football-logos.cc --></svg>