<svg xmlns="http://www.w3.org/2000/svg" viewBox="213.02 390.58 367.3 344.18"><!-- Source: https://football-logos.cc --><path d="M297.5-290.822c13.51 0 137.738-86.315 137.738-235.951l-60.5-22.183s-33.88 20.166-77.238 20.166c-43.36 0-77.238-20.166-77.238-20.166l-60.5 22.183c0 149.636 124.227 235.95 137.738 235.95" style="fill:#d5b400;fill-opacity:1;fill-rule:nonzero;stroke:none" transform="matrix(1.33333 0 0 1.33333 0 1122.52)" data-source="https://football-logos.cc"></path><path d="M329.866-521.837c-9.869 2.003-20.784 3.337-32.366 3.337-36.91 0-67.063-13.537-78.06-19.195l-49.198 18.039c1.675 59.963 24.059 107.673 46.68 140.854zM402.44-527.839l-150.806 190.99c21.698 21.755 40.18 33.206 45.866 35.457 7.605-3.011 38.104-22.476 68.573-61.055 25.987-32.904 56.712-86.556 58.686-157.21-4.418-1.618-13.259-4.86-22.319-8.182" style="fill:#fff;fill-opacity:1;fill-rule:nonzero;stroke:none" transform="matrix(1.33333 0 0 1.33333 0 1122.52)"></path><path d="M375.559-537.695c-7.546 3.883-24.114 11.475-45.693 15.858L216.922-378.802a289 289 0 0 0 12.005 16.355 296 296 0 0 0 22.707 25.597L402.44-527.839c-11.43-4.192-23.208-8.51-26.881-9.856M325.583-400.096l-13.376 16.94 9.755 7.704 11.467-14.52 4.083 3.223-11.466 14.52 16.638 13.137-3.523 4.462-34.56-27.289 16.898-21.402zM359.164-379.964l-4.24 5.37-6.58-5.196 4.241-5.37zM384.469-416.92q-.419 1.677-.719 3.064-.301 1.384-1.042 3.427a33 33 0 0 1-1.595 3.574q-.956 1.856-2.48 3.788-2.875 3.64-6.285 5.782a17.1 17.1 0 0 1-7.409 2.561q-3.914.41-8.284-1.069c-2.91-.984-5.874-2.667-8.884-5.045q-4.283-3.381-6.738-7.216-2.452-3.835-3.04-7.876-.57-3.917.626-7.878 1.2-3.96 4.11-7.646a28.3 28.3 0 0 1 4.92-4.853q2.794-2.154 7.074-4.102l5.437 4.294-.266.337q-4.556.894-7.79 2.76-3.228 1.867-5.681 4.97-2.006 2.542-2.762 5.25-.754 2.707-.22 5.72.524 2.936 2.51 5.909 1.988 2.974 5.486 5.735 3.661 2.894 7.05 4.017 3.392 1.126 6.237.927 2.969-.211 5.457-1.661a15.3 15.3 0 0 0 4.336-3.786q2.537-3.217 3.604-6.939 1.066-3.721.697-7.996l.248-.314zM396.27-426.958l-4.24 5.37-6.58-5.197 4.24-5.369z" style="fill:#027750;fill-opacity:1;fill-rule:nonzero;stroke:none" transform="matrix(1.33333 0 0 1.33333 0 1122.52)"></path><path d="M243.66-394.478c-.817.102-1.914.596-3.356 1.51-1.398.89-2.662 2.042-3.757 3.429-1.487 1.885-2.484 3.411-3.048 4.666a14.35 14.35 0 0 0-1.184 5.66c-.006 1.946.354 3.944 1.07 5.94.712 1.977 1.599 3.74 2.636 5.238 1.043 1.509 2.499 3.005 4.33 4.448 1.929 1.524 3.951 2.685 6.01 3.451 2.075.77 4.03 1.155 5.813 1.139 1.79-.015 3.5-.346 5.081-.983 1.55-.624 2.88-1.31 3.957-2.038 1.111-.749 2.409-2.07 3.965-4.04 1.9-2.409 3.154-4.602 3.726-6.522l.292-.844.133-.38-.224-.333-3.977-4.926c-.042-.048-.707-.638-.707-.638l-.396-.353-.285.211-.935.555.114.098-.178.583.157.274c.624 1.081 1.079 2.162 1.353 3.205.272 1.036.386 1.968.34 2.769-.05.808-.263 1.743-.633 2.774-.098.29-.36.88-1.094 2.151l-.598.789c-.988 1.25-2.385 2.218-4.143 2.868-1.737.638-3.828.604-6.217-.102-2.452-.723-5.16-2.248-8.051-4.53a26.6 26.6 0 0 1-4.08-4c-1.186-1.451-2.081-2.858-2.657-4.18-.57-1.314-.916-2.652-1.026-3.976a10.9 10.9 0 0 1 .429-3.98c.215-.697.65-1.467 1.29-2.28 1.214-1.536 2.645-2.52 4.251-2.923 1.617-.405 3.387-.244 5.258.48l.435.168.68-.669.629-1.11-.498-.321-.899-.74a33 33 0 0 0-3.546-2.442l-.214-.127zM270.57-387.575c-1.414-.312-2.96-.885-4.595-1.71-1.644-.825-3.042-1.69-4.154-2.568-1.052-.83-2.175-1.956-3.337-3.342-1.151-1.378-2.094-2.814-2.802-4.267-.693-1.428-1.1-2.705-1.21-3.798-.106-1.071.027-2.265.405-3.55a10.2 10.2 0 0 1 1.77-3.443 9.8 9.8 0 0 1 3.63-2.86c1.431-.656 2.993-.973 4.642-.94 1.664.034 3.32.405 4.924 1.102a28 28 0 0 1 6.02 3.617 30.7 30.7 0 0 1 4.11 3.928c1.24 1.428 2.154 2.747 2.716 3.918.55 1.145.874 2.405.964 3.744a8.8 8.8 0 0 1-.597 3.85c-.499 1.269-1.13 2.391-1.875 3.333a8.4 8.4 0 0 1-2.811 2.318c-1.093.552-2.319.883-3.645.98a14.3 14.3 0 0 1-4.155-.312m-7.379-30.133a16.1 16.1 0 0 0-4.411 2.082 16 16 0 0 0-3.662 3.38c-1.521 1.928-2.56 3.745-3.09 5.403-.725 2.338-1.044 4.407-.945 6.155.1 1.746.543 3.536 1.32 5.324.764 1.757 1.61 3.26 2.514 4.468.908 1.21 2.11 2.409 3.572 3.564 1.777 1.401 3.628 2.478 5.505 3.2a18.2 18.2 0 0 0 5.818 1.208c1.967.08 3.646-.063 4.986-.425 1.34-.359 2.766-1.018 4.237-1.959 1.474-.941 2.882-2.255 4.183-3.903 1.283-1.624 2.239-3.37 2.837-5.187.6-1.819.857-3.57.763-5.202-.124-2.398-.43-4.232-.933-5.602-.639-1.714-1.474-3.248-2.482-4.559-1-1.301-2.458-2.713-4.333-4.193a21.6 21.6 0 0 0-5.416-3.131 15.7 15.7 0 0 0-4.67-1.058c-2.297-.167-4.247-.02-5.793.435M275.523-433.087c.955-1.206 2.025-2.052 3.183-2.513 1.141-.453 2.213-.578 3.182-.37 1.348.297 2.465.79 3.317 1.462a7.7 7.7 0 0 1 1.93 2.258c.487.857.743 1.643.762 2.334l.001.102c0 .668-.188 1.403-.56 2.186-.623 1.253-1.268 2.308-1.911 3.12l-.13.155-3.644-2.778-1.589-1.283-3.992-3.006-1.074-.928zm3.222-7.445c-1.405.765-3.15 2.483-5.338 5.253l-3.67 4.775-1.157 1.464c0 .002-.602.88-.602.88l-.287.461c-.473.64-.65 1.11-.59 1.54l.033.233.118.118.45.468c.46.36.885.31 1.098.247.226-.061.478-.196 1.819-1.433 1.02-.939 1.452-.948 1.528-.94.096.01.678.143 2.768 1.82l3.743 2.985 5.257 4.12 2.777 2.252 2.546 1.92 1.732 1.428 3.685 3.144s.05.038.098.077l.154.343c-.025.046-.275.604-1.75 3.102l-.196.33.1.12.513 1.088.334.194.426.235.82-.66 1.27-1.74 1.9-2.362 1.897-2.49.425-.498 1.869-2.277.924-1.608-.61-.176-1.455-.615-.097.295-.79.57c-1.579 1.134-2.008 1.317-2.103 1.346a.9.9 0 0 1-.577-.004c0-.013-.979-.59-.979-.59l-7.161-5.654-2.11-1.735 1.148-1.494c.209-.263.418-.438.617-.508.077-.028.416-.11 1.469.014l7.65 1.777 9.005 2.018.283-.29.603-.672 4.934-6.34-.496-.425-.348-.308-.85-.607-.412.37c-1.115.923-1.985 1.517-2.585 1.765a4.9 4.9 0 0 1-1.787.378c-.447.008-1.589-.087-4.493-.585l-6.324-1.307c-.008 0-3.063-.707-4.333-1l.06-.772q.119-.84.118-1.63c0-2.884-1.177-5.277-3.515-7.122-1.444-1.14-3.046-1.844-4.76-2.089-1.744-.25-3.357.02-4.796.801M303.502-473.09l-.48.56-2.15 2.94c.02-.025-1.066 1.141-1.066 1.141l-1.295 1.506-1.525 2.19.673.306 1.263.673.293-.332c1.546-1.229 2.396-1.597 2.837-1.689q.317-.066.794.116c.178.067.887.44 3.635 2.43l6.204 4.46c-.029-.021 1.061.898 1.061.898l1.297 1.082.603.477 1.716 1.268c2.362 1.865 3.956 3.49 4.736 4.827.756 1.297 1.047 2.646.89 4.123-.158 1.475-1.005 3.193-2.515 5.108-.658.832-1.53 1.561-2.593 2.168-1.035.59-1.99.892-2.834.897-.86.005-1.791-.233-2.772-.709-1.034-.504-3.452-2.244-7.186-5.172l-10.37-8.1-2.192-2.02a.53.53 0 0 1-.06-.304c.005-.382.174-.774.504-1.193l.772-.847.802-1.528-.367-.258-.441-.453-1.312-.741-.325.53-3.666 4.77-2.232 2.827-.937 1.23-.36.456-.371 1.09c.004.056.482.883.482.883l.777.44.17-.083c.57-.096 1.165-.572 1.932-1.543l.823-1.088c.269-.008.727.12 1.676.87l3.171 2.503 4.666 3.772 5.897 4.569 1.433 1.131c2.07 1.635 3.789 2.635 5.251 3.058 1.114.331 2.45.393 3.971.18 1.518-.211 3.126-.848 4.78-1.89.948-.58 2.101-1.736 3.517-3.53.911-1.154 1.621-2.512 2.11-4.034.496-1.538.681-2.964.553-4.238a9.4 9.4 0 0 0-1.05-3.524c-.555-1.045-1.48-2.244-2.745-3.565-.912-.94-2.706-2.465-5.489-4.663l-2.23-1.67-1.674-1.353-4.44-3.303c-.003 0-2.858-2.14-2.858-2.14-.884-.698-1.03-1.12-1.05-1.27-.006-.053-.035-.603 1.213-2.795l.3-.53-1.752-1.459zM324.233-498.89l-.334.266-1.535 1.857-2.688 3.405-3.09 4.058.612.666c.082.078.98.478.98.478l.302.135.116-.146.6-.276.074-.09 1.624-1.312c.458-.374.687-.407.746-.409a.62.62 0 0 1 .426.145l.38.473c.097.169.588 1.267 2.776 6.703a56 56 0 0 1 1.447 4.002l-6.114-.554c-2.916-.272-4.944-.577-6.023-.908l-.25-.115-.184-.212.048-.503c.058-.226.234-.691.74-1.596l1.058-2.262-.404-.225-.132-.133c-.068-.062-.754-.411-.754-.411l-.47-.24-.262.38-.707.707-.53.863-.688 1.237-1.914 2.297-2.573 2.872-1.042 1.108-.424.531-1.554 2.137.406.432.2.218c.087.081.95.551.95.551l.473.258.268-.373.967-.945c1.289-1.328 1.634-1.535 1.69-1.563.272-.048 1.636-.07 6.826.591 3.914.5 7.958.917 12.02 1.263.857 2.18 1.743 5.064 2.635 8.631l.743 2.892.839 3.343c0 .016.128 1.324.128 1.324-.007.046-.086.389-.77 1.987l-1.21 2.38.411.258 1.065 1.087 1.004-1.187.561-.845 1.596-2.316s3.727-4.504 3.73-4.51a804 804 0 0 0 2.067-2.015l.82-1.123-.793-.712-.999-.66-.387.389c-2.547 2.266-3.164 2.6-3.293 2.647-.409.167-.708.13-1.015-.112-.32-.252-.63-.665-.918-1.227-.14-.26-.61-1.397-2.232-6.239-.659-1.952-1.008-3.044-1.202-3.69l5.802.566c3.266.366 5.559.684 6.81.948.012.003.289.094.504.167.005.019.027.049.027.064q0 .015-.004.029l-1.07 2.243-.938 1.46.263.32.443.561.663.323.477.235.243-.387.46-.482.916-1.423 2.335-3.253 1.427-1.722c.981-1.213 1.824-2.154 2.508-2.802l.85-.89.855-1.167-.66-.622c-.05-.04-.928-.477-.928-.477l-.474-.235-.28.415c-1.256 1.288-1.878 1.764-2.177 1.937a3 3 0 0 1-1.32.39c-.91.061-2.72-.059-5.385-.355l-12.577-1.243-.578-.047c-.178-.491-.582-1.617-.582-1.617l-.758-2.337a88 88 0 0 1-2.117-6.329c-.75-2.573-.953-3.619-.99-4.042l.19-2.01.972-3.33-1.332-.88z" style="fill:#fff;fill-opacity:1;fill-rule:nonzero;stroke:none" transform="matrix(1.33333 0 0 1.33333 0 1122.52)"></path><path d="M350.742-489.11c-1.414-.31-2.96-.885-4.596-1.708-1.642-.827-3.04-1.69-4.153-2.57-1.052-.829-2.174-1.954-3.337-3.342-1.151-1.378-2.094-2.813-2.802-4.267-.693-1.428-1.1-2.705-1.21-3.795-.107-1.074.027-2.268.406-3.552a10.2 10.2 0 0 1 1.767-3.443 9.8 9.8 0 0 1 3.631-2.86c1.432-.656 2.994-.972 4.644-.939 1.662.033 3.32.403 4.923 1.1a28 28 0 0 1 6.02 3.618 30.7 30.7 0 0 1 4.109 3.928c1.242 1.429 2.156 2.747 2.717 3.918.55 1.144.874 2.404.964 3.744a8.8 8.8 0 0 1-.597 3.85c-.5 1.269-1.13 2.39-1.875 3.334a8.4 8.4 0 0 1-2.81 2.317c-1.094.551-2.32.881-3.647.981-1.352.1-2.752-.003-4.154-.314m-7.378-30.133a16.2 16.2 0 0 0-4.412 2.082 16 16 0 0 0-3.662 3.38c-1.522 1.928-2.56 3.745-3.089 5.404-.726 2.339-1.045 4.408-.946 6.155.1 1.744.544 3.535 1.318 5.323.766 1.757 1.613 3.26 2.516 4.468.908 1.21 2.11 2.41 3.572 3.565 1.777 1.401 3.63 2.477 5.505 3.198a18.2 18.2 0 0 0 5.818 1.21c1.967.08 3.645-.063 4.987-.424 1.34-.36 2.766-1.02 4.235-1.96 1.476-.943 2.883-2.255 4.184-3.903 1.283-1.624 2.238-3.37 2.837-5.187.6-1.82.857-3.57.763-5.202-.125-2.399-.428-4.233-.932-5.602-.64-1.716-1.475-3.248-2.483-4.56-1-1.3-2.459-2.711-4.333-4.193a21.6 21.6 0 0 0-5.417-3.13 15.7 15.7 0 0 0-4.668-1.059c-2.299-.166-4.249-.019-5.793.435" style="fill:#fff;fill-opacity:1;fill-rule:nonzero;stroke:none" transform="matrix(1.33333 0 0 1.33333 0 1122.52)"></path><path d="M258.999-450.334c14.019-16.293 12.168-40.95-4.124-54.967-16.193-13.933-40.765-12.012-54.784 4.281-13.93 16.19-12.093 40.694 4.099 54.625 16.292 14.02 40.878 12.251 54.809-3.939" style="fill:#000;fill-opacity:1;fill-rule:evenodd;stroke:none" transform="matrix(1.33333 0 0 1.33333 0 1122.52)" data-source="https://football-logos.cc"></path><path d="M243.63-486.63c-2.129-.872-4.421-1.563-6.688-1.911-3.867-1.085-7.5-1.33-10.242-1.125q-3.166 2.564-3.723 5.446-.162 1.305-.32 2.608.074 1.027.153 2.055c.05.684.102 1.37.496 2.03.21.5.235.841.447 1.344 1.048 2.503 3.573 4.036 6.364 4.516.184.158.525.131.71.29.5-.21.843-.235 1.185-.263.503-.208 1.37-.102 2.058-.152 1.21.083 2.604.32 4.002.56 4.395 1.22 9.238 3.783 10.206 7.502 6.532-.147 10.297 1.81 12.873 4.026 1.398-1.999 2.298-3.788 3.038-5.394.424-1.236.716-1.95.981-2.999.105-.871.215-1.74.32-2.61.134-.526.082-1.21.214-1.737-2.73-4.272-8.887-8.288-15.677-11.568-2.133-.873-4.105-1.93-6.396-2.618" style="fill:#e4b307;fill-opacity:1;fill-rule:evenodd;stroke:none" transform="matrix(1.33333 0 0 1.33333 0 1122.52)"></path><path d="M223.75-503.735c-.423 1.236-.508 2.446-.244 3.633.338 2.213 1.704 4.35 3.992 7.278 1.552.055 3.105.11 4.844.325 1.898.031 3.82.402 5.583.96q2.37.595 4.74 1.192c8.477 2.81 16.764 7.697 22.864 13.267-.433-8.062-4.945-17.711-12.018-24.757l-3.68-3.166c-6.368-4.518-13.791-7.06-21.932-5.416-1.426 1.657-2.692 3.13-3.274 4.55-.476.554-.77 1.262-.875 2.134M250.246-460.434l-1.266 1.471-.95 1.105c-.318.369-.66.393-.977.763l-1.9 2.208c-1.135.946-2.085 2.05-3.222 2.996-1.291 1.13-2.927 2.285-4.377 3.604-4.406 3.257-9.335 6.378-14.214 7.954 4.687 2.745 12.826 1.102 20.47-2.57 2.006-.842 3.483-1.812 5.302-2.81 1.319-.79 2.453-1.734 3.588-2.68.817-.58 1.634-1.156 2.267-1.892.318-.37.66-.395.978-.762l.95-1.105q.713-.827 1.426-1.657c.634-.735 1.082-1.631 1.715-2.368-1.233-2.662-6.022-4.54-9.63-4.442z" style="fill:#e4b307;fill-opacity:1;fill-rule:evenodd;stroke:none" transform="matrix(1.33333 0 0 1.33333 0 1122.52)"></path><path d="M206.61-493.496c-.132.528.076 1.026-.055 1.556q.155 2.052.306 4.107c-.028 1.898.124 3.951.464 6.167.205 2.738.78 5.792 1.326 8.51 1.23 4.902 2.933 9.251 5.379 11.993 2.947 2.535 6.185 2.12 8.794.201 1.64-1.155 3.088-2.47 4.196-3.758a79 79 0 0 0 2.299-3.79l-.367-.316c-3.711-1.27-6.472-3.646-7.915-6.81-.63-1.504-1.1-3.189-1.229-4.9-.027-.344-.077-1.029.056-1.556-.052-.685.08-1.212.212-1.74.109-.866.4-1.577.69-2.29.715-1.946 1.96-3.761 3.543-5.6-1.972-3.298-3.284-6.99-3.38-10.597.082-1.212.345-2.268.612-3.318q.16-1.303.875-2.133c.446-.894 1.055-1.974 2.03-2.736-1.052-.266-2.58.021-4.424.677-.845.236-1.688.47-2.347.867q-1.501.626-3.008 1.256c-3.16 1.444-6.114 3.387-6.853 4.994-.425 1.236-.822 2.816-.853 4.712q-.439 1.067-.322 2.606c-.132.528-.08 1.213-.03 1.898" style="fill:#e4b307;fill-opacity:1;fill-rule:evenodd;stroke:none" transform="matrix(1.33333 0 0 1.33333 0 1122.52)"></path><path d="M211.999-458.427c-3.968-6.934-6.273-12.445-7.215-18.056-.546-2.719-.75-5.454-.957-8.193.029-1.899-.098-3.61.09-5.691-.103-1.37-.02-2.58.06-3.792-.027-.342-.079-1.03.057-1.554-.053-.684.077-1.214.029-1.897.13-.528.08-1.211.212-1.738-.502.21-.818.577-1.316.788l-.95 1.104c-.318.37-.66.394-.978.764-.632.734-1.081 1.629-1.715 2.366-.77 1.262-1.534 2.524-2.115 3.95-.9 1.787-1.642 3.389-2.174 5.498-1.908 6.686-1.685 14.248.674 20.442 2.072 4.667 3.28 6.986 6.014 11.256 6.416 5.204 11.248-1.531 10.284-5.247" style="fill:#e4b307;fill-opacity:1;fill-rule:evenodd;stroke:none" transform="matrix(1.33333 0 0 1.33333 0 1122.52)"></path><path d="M219.1-441.738c5.22-1.597 11.18-4.803 16.244-8.45 1.636-1.16 3.272-2.313 4.562-3.444 1.136-.948 2.086-2.052 3.221-2.997l1.9-2.21c.319-.368.476-.553.793-.92l.634-.736-.053-.686c-.598-3.4-4.411-6.039-8.28-7.127-.897-.448-1.924-.37-2.795-.481-.711-.289-1.393-.238-2.081-.187-.498.213-1 .42-1.66.814-.132.527-.105.87-.422 1.24-.398 1.578-.981 2.997-1.933 4.103-1.266 1.472-2.718 2.784-4.196 3.76-3.636 1.995-7.746 2.302-10.197 1.798-.008 4.477-3.202 7.817-7.783 8.675 2.307 3.274 8.864 5.707 12.046 6.848" style="fill:#e4b307;fill-opacity:1;fill-rule:evenodd;stroke:none" transform="matrix(1.33333 0 0 1.33333 0 1122.52)" data-source="https://football-logos.cc"></path><!-- source: https://football-logos.cc --></svg>