<svg xmlns="http://www.w3.org/2000/svg" viewBox="26.64 149.94 542 542"><!-- Source: https://football-logos.cc --><path d="M106.011 229.318c50.984-50.984 119.513-79.375 191.627-79.375s140.642 28.39 191.626 79.375 79.376 119.513 79.376 191.627-28.391 140.642-79.376 191.626c-50.984 50.985-119.512 79.376-191.626 79.376s-140.643-28.391-191.627-79.375-79.375-119.513-79.375-191.627 28.391-140.642 79.375-191.627m191.627-50.179c-64.357 0-125.483 25.323-170.983 70.823S55.832 356.589 55.832 420.945s25.323 125.483 70.823 170.983S233.28 662.75 297.638 662.75c64.356 0 125.483-25.323 170.983-70.822s70.822-106.627 70.822-170.983-25.322-125.483-70.822-170.983-106.627-70.823-170.983-70.823" style="fill:#002a9a;fill-rule:evenodd" data-source="https://football-logos.cc"></path><path d="M297.638 172.62c-68.574 0-130.656 27.795-175.593 72.732s-72.732 107.02-72.732 175.593c0 68.574 27.795 130.656 72.732 175.593s107.019 72.732 175.593 72.732 130.655-27.795 175.593-72.732 72.732-107.02 72.732-175.593c0-68.574-27.795-130.656-72.732-175.593-44.938-44.937-107.02-72.732-175.593-72.732M110.62 233.928c47.862-47.862 113.983-77.466 187.017-77.466s139.154 29.604 187.016 77.466c47.863 47.862 77.466 113.983 77.466 187.017S532.517 560.1 484.654 607.96c-47.862 47.863-113.983 77.466-187.016 77.466-73.034 0-139.155-29.603-187.017-77.465S33.155 493.978 33.155 420.945c0-73.034 29.604-139.155 77.466-187.017" style="fill:#e00000;fill-rule:evenodd"></path><path d="m115.05 444.313-43.77 1.429-.28-8.58 28.746-18.97-29.333.957-.267-8.191 43.77-1.429.289 8.855L86.01 437.06l28.772-.938zm309.476 132.138 15.205 8.278-6.13-16.127zm56.813-167.334 43.419.848-.174 8.867-36.018-.704-.429 21.954-7.4-.145zm-2.498-15.856 43.439-5.564 1.126 8.797-43.438 5.564zm-5.98-26.144 35.035-9.848-3.508-12.483 7.124-2.002 9.401 33.445-7.124 2.002-3.493-12.424-35.034 9.848zm18.098-67.251 4.12 7.853-21.014 11.026c-3.34 1.752-5.446 2.984-6.33 3.69-1.414 1.167-2.284 2.625-2.587 4.372-.307 1.762.11 3.719 1.246 5.886 1.15 2.193 2.474 3.617 3.973 4.258s2.96.727 4.405.257c1.445-.471 3.7-1.505 6.77-3.115l21.466-11.263 4.12 7.854-20.392 10.699c-4.658 2.444-8.061 3.965-10.207 4.55-2.145.584-4.177.66-6.101.219-1.92-.433-3.762-1.4-5.542-2.883-1.785-1.493-3.48-3.758-5.085-6.818q-2.907-5.537-3.122-9.068-.216-3.53.967-6.275c.79-1.83 1.836-3.3 3.16-4.443 1.95-1.68 5.103-3.657 9.445-5.935zm-71.017-17.01 32.596-29.246 8.87 9.887-16.989 25.79 27.413-14.174 8.89 9.91-32.595 29.246-5.474-6.1 25.641-23.047-31.427 16.597-5.692-6.343 19.922-29.42-25.681 23.001zm57.927 171.562 46.094-6.22-1.992 9.373-34.021 4.138 29.49 17.18-1.96 9.213-39.597-24.34zm-6.144 26.124 39.98 17.872-13.229 29.594-6.756-3.02 9.61-21.498-8.879-3.969-8.936 19.99-6.756-3.02 8.936-19.99-10.833-4.842-9.96 22.28-6.755-3.021zm-1.04 57.235-3.939 5.227c-2.552 3.387-3.994 5.606-4.347 6.667-.347 1.054-.354 2.096-.01 3.095.34 1.008 1.04 1.907 2.091 2.698 1.18.89 2.364 1.284 3.57 1.21q1.795-.125 3.367-1.625.775-.774 4.005-5.061l4.153-5.512zm-14.839-22.285 34.977 26.354-11.208 14.875c-2.816 3.737-5.182 6.217-7.085 7.438-1.91 1.23-4.043 1.74-6.414 1.55-2.379-.197-4.597-1.065-6.665-2.623-2.63-1.981-4.219-4.378-4.769-7.205s.105-5.933 1.964-9.332q-3.053 1.281-5.765 1.554c-1.815.189-4.718.095-8.701-.277l-7.348-.64 15.074 42.248-7.086 6.129-41.917-21.648 7.225-6.249 9.382 5.067 13.285-11.489-3.769-9.922 5.234-4.526 6.244-8.288 11.453.691q6.118.34 7.945.128c1.203-.14 2.225-.48 3.05-1.033q1.245-.84 3.084-3.28l1.08-1.433-14.607-11.005zm-74.012-276.738.78-17.296-11.811 12.576zM89.444 350.317l27.029 10.485 2.378-6.13q1.33-3.436 1.535-5.112c.187-1.47.044-2.793-.415-3.977q-.683-1.788-3.101-3.674c-1.607-1.268-4-2.514-7.156-3.738s-5.676-1.885-7.585-1.98c-1.905-.105-3.52.165-4.857.795-1.328.632-2.464 1.646-3.394 3.056-.7 1.041-1.706 3.242-3.004 6.587zm-10.108 5.592 5.833-15.035c1.316-3.393 2.575-5.879 3.788-7.454a14.56 14.56 0 0 1 6.144-4.68c2.46-1.013 5.167-1.45 8.127-1.33 2.947.127 6.342.93 10.163 2.412 3.364 1.305 6.091 2.844 8.2 4.624q3.87 3.257 5.521 7.16c.844 1.969 1.18 4.318 1.018 7.044-.124 2.04-.78 4.574-1.96 7.615l-6.005 15.482zm56.46-22.517L99.32 309.157l17.94-27 6.164 4.095-13.031 19.613 8.1 5.382 12.117-18.238 6.164 4.096-12.117 18.237 9.883 6.567 13.505-20.327 6.165 4.096zm2.664-64.001 8.723 8.922 3.448-3.37c2.485-2.43 3.976-4.215 4.494-5.363.517-1.147.675-2.299.458-3.47-.21-1.162-.761-2.206-1.673-3.14-1.118-1.145-2.374-1.757-3.764-1.852-1.397-.088-2.691.265-3.905 1.08-.886.596-2.466 1.998-4.74 4.221zm19.097 32.224-30.612-31.317 10.14-9.912c3.842-3.756 6.492-6.046 7.965-6.873q3.383-1.922 7.505-1.335 4.123.588 7.78 4.327c1.88 1.925 3.105 3.878 3.695 5.867.583 1.996.706 3.886.368 5.685-.345 1.79-.954 3.355-1.826 4.679-1.217 1.774-3.247 4.058-6.105 6.85l-4.111 4.02 11.544 11.809zm23.011-49.61c2.582 4.24 5.522 6.854 8.817 7.856 3.29.992 6.448.573 9.46-1.261 3.022-1.84 4.832-4.433 5.454-7.784q.912-5.028-3.054-11.543c-2.613-4.293-5.505-6.924-8.677-7.881-3.169-.971-6.31-.503-9.435 1.4-3.117 1.898-4.982 4.501-5.59 7.795-.603 3.303.401 7.108 3.025 11.418m-7.63 4.992c-2.322-3.814-3.698-7.368-4.138-10.658a20.5 20.5 0 0 1 .356-7.257q.825-3.614 2.775-6.32 2.601-3.61 7.17-6.395c5.52-3.361 10.971-4.328 16.372-2.926q8.094 2.122 13.667 11.276c3.685 6.051 4.923 11.79 3.718 17.201-1.199 5.42-4.557 9.805-10.051 13.15-5.564 3.387-11.03 4.388-16.385 2.982-5.35-1.397-9.848-5.08-13.485-11.053m51.56-31.616 6.24-1.971c4.043-1.278 6.505-2.249 7.409-2.908.894-.657 1.503-1.502 1.803-2.515.31-1.018.26-2.157-.137-3.41-.445-1.41-1.18-2.418-2.205-3.056-1.022-.629-2.253-.838-3.685-.632q-1.08.18-6.199 1.798l-6.58 2.08zm-.848 26.759-13.193-41.759 17.759-5.61c4.462-1.41 7.828-2.057 10.086-1.947 2.269.106 4.303.928 6.123 2.46 1.823 1.54 3.126 3.534 3.906 6.003.992 3.14.896 6.014-.297 8.635-1.192 2.622-3.528 4.771-7.014 6.46q3.229.73 5.597 2.08 2.383 1.351 6.926 5.275l7.667 6.536-10.08 3.185-8.927-7.208q-4.785-3.828-6.397-4.714c-1.06-.584-2.09-.9-3.083-.928-1.002-.026-2.47.267-4.415.881l-1.71.54 5.51 17.44zm49.394-12.843-4.015-36.17-12.888 1.43-.817-7.355 34.53-3.833.816 7.355-12.827 1.424 4.015 36.17zm27.197-1.64 1.681-43.76 8.863.34-1.682 43.76zm26.135 2.242-7.426-45.916 9.422 1.746 5.028 33.9 16.402-29.928 9.261 1.716-23.295 40.222zm63.527 21.2-8.782-3.756.445-10.654-16.149-6.909-7.267 7.735-8.622-3.689 32.857-33.575 8.614 3.684zM154.627 598.657l-6.465-6.071 16.245-17.3c2.582-2.75 4.168-4.602 4.773-5.559.953-1.566 1.297-3.228 1.012-4.979-.287-1.765-1.321-3.477-3.104-5.152-1.806-1.696-3.523-2.609-5.149-2.723-1.626-.115-3.034.283-4.246 1.2-1.212.918-3.004 2.633-5.376 5.16l-16.595 17.671-6.464-6.07 15.763-16.788c3.601-3.834 6.319-6.386 8.155-7.641s3.73-1.993 5.693-2.205c1.954-.22 4.012.09 6.18.909 2.175.826 4.518 2.41 7.037 4.777 3.04 2.854 5.015 5.366 5.92 7.544s1.288 4.258 1.14 6.246c-.146 1.988-.654 3.72-1.53 5.234-1.292 2.225-3.624 5.125-6.98 8.7zm.41-61.31-36.39 24.363-4.776-7.133 14.362-31.303-24.388 16.326-4.56-6.81 36.392-24.363 4.928 7.362-14.05 30.762 23.923-16.014zm-22.142-36.022L93.083 519.57l-3.694-8.062 39.811-18.246Zm-30.303-15.547c4.795-1.285 8.13-3.372 10.018-6.252 1.878-2.878 2.364-6.026 1.451-9.433-.915-3.417-2.895-5.884-5.936-7.423-3.047-1.526-7.022-1.632-11.936-.316-4.854 1.301-8.193 3.336-10.003 6.11-1.823 2.769-2.257 5.914-1.31 9.449.944 3.525 2.918 6.046 5.908 7.556 3 1.508 6.934 1.615 11.808.309m2.644 8.726c-4.313 1.156-8.11 1.477-11.39.973a20.5 20.5 0 0 1-6.865-2.382q-3.237-1.808-5.285-4.441c-1.82-2.341-3.196-5.233-4.12-8.68-1.672-6.242-1.067-11.744 1.797-16.533 2.877-4.781 7.762-8.095 14.664-9.945 6.844-1.833 12.699-1.408 17.553 1.27 4.865 2.675 8.127 7.13 9.792 13.344 1.686 6.292 1.109 11.818-1.747 16.562-2.845 4.741-7.644 8.022-14.399 9.832M298.293 594.162l4.563 9.044 8.473-5.55-.57 10.113 10.113-.571-5.551 8.473 9.044 4.563-9.044 4.562 5.551 8.474-10.113-.571.57 10.113-8.473-5.55-4.563 9.043-4.562-9.044-8.473 5.551.57-10.113-10.113.57 5.55-8.473-9.043-4.562 9.044-4.563-5.551-8.473 10.113.57-.57-10.113 8.473 5.551z" style="fill:#00309d;fill-rule:evenodd"></path><path d="M298.47 359.786c-20.986 0-39.987 8.507-53.74 22.26a76.2 76.2 0 0 0-15.285 21.897h29.99c1.163-5.239 5.937-9.942 12.69-13.438 7.348-3.805 17.158-6.26 27.075-6.384q.638-.007 1.287-.003c8.863.07 17.837 2.558 24.697 6.057 6.918 3.529 11.818 8.225 12.661 12.776h29.184a76.2 76.2 0 0 0-14.82-20.905c-13.752-13.753-32.752-22.26-53.739-22.26m-2.601 44.874h-4.32a1.417 1.417 0 0 1 0-2.835h4.33l.01-3.157h-4.34a1.417 1.417 0 0 1 0-2.834h4.35l.018-5.107h4.236l-.335 96.133c11.015-.442 19.537-2.56 25.552-5.642 6.28-3.218 9.708-7.432 10.247-11.764a36 36 0 0 1-2.848-2.608c-7.263-7.398-11.307-17.825-11.805-28.633-.497-10.773 2.529-21.956 9.401-30.913a43 43 0 0 1 3.286-3.803c-.637-3.086-4.673-6.617-10.394-9.535-6.353-3.24-14.641-5.544-22.804-5.609q-.597-.005-1.203.003c-9.248.117-18.37 2.392-25.182 5.919-6.114 3.165-10.258 7.253-10.642 11.502 7.744 9.203 11.44 20.46 11.357 31.81-.083 11.56-4.093 23.21-11.737 32.862.768 4.009 4.878 8.026 10.805 11.114 5.97 3.11 13.68 5.187 21.731 5.36l.01-2.893h-4.042a1.417 1.417 0 0 1 0-2.834h4.052l.011-3.157h-4.063a1.417 1.417 0 0 1 0-2.835h4.073l.009-2.654h-4.083a1.417 1.417 0 0 1 0-2.835h4.093l.01-3.157h-4.103a1.417 1.417 0 0 1 0-2.834h4.114l.01-2.796h-4.123a1.417 1.417 0 0 1 0-2.835h4.133l.01-3.157h-4.143a1.418 1.418 0 0 1 0-2.834h4.153l.008-2.23h-4.161a1.417 1.417 0 0 1 0-2.834h4.171l.011-3.157h-4.182a1.417 1.417 0 0 1 0-2.834h4.192l.01-2.513h-4.202a1.417 1.417 0 0 1 0-2.834h4.211l.011-3.157h-4.222a1.418 1.418 0 0 1 0-2.835h4.232l.009-2.512h-4.24a1.418 1.418 0 0 1 0-2.835h4.25l.01-3.157h-4.26a1.418 1.418 0 0 1 0-2.835h4.27l.009-2.37h-4.28a1.417 1.417 0 0 1 0-2.835h4.29l.01-3.157h-4.3a1.417 1.417 0 0 1 0-2.834h4.31zm-35.965 3.535h-32.268a75.8 75.8 0 0 0-5.148 26.08h47.966c-.598-9.364-4.053-18.503-10.55-26.08m10.627 30.333h-48.01a75.6 75.6 0 0 0 6.708 28.628h31.014c6.505-8.495 10.01-18.579 10.288-28.628m-11.621 32.88h-27.59a76.2 76.2 0 0 0 13.41 18.117c13.753 13.752 32.754 22.259 53.74 22.259s39.987-8.507 53.74-22.26a76.2 76.2 0 0 0 13.41-18.116h-26.05c-1.182 5.178-5.287 10-12.274 13.58-6.935 3.554-16.811 5.922-29.562 6.172-9.538.187-18.8-2.16-25.842-5.827-6.965-3.628-11.865-8.63-12.982-13.925m80.65-4.252h28.151a75.6 75.6 0 0 0 6.708-28.628h-49.194c.55 9.616 4.165 18.824 10.567 25.345a31.5 31.5 0 0 0 3.304 2.927zm-14.378-32.88h49.27a75.7 75.7 0 0 0-5.542-27.073h-32.927a39 39 0 0 0-2.246 2.671c-5.452 7.105-8.237 15.773-8.555 24.402m-83.859-55.638c14.625-14.625 34.83-23.67 57.147-23.67s42.522 9.045 57.147 23.67 23.67 34.83 23.67 57.147-9.045 42.522-23.67 57.147-34.83 23.67-57.147 23.67-42.522-9.045-57.147-23.67-23.67-34.83-23.67-57.147 9.045-42.522 23.67-57.147" style="fill:#000;fill-rule:evenodd"></path><path d="M387.978 528.89h14.949V301.07c-2.915-.776-5.464-1.437-8.022-2.1-3.414-.884-6.841-1.772-9.432-2.466-7.595-2.034-14.923-3.336-22.022-3.923-7.075-.585-13.923-.458-20.582.362-5.25.647-10.098 1.932-14.46 4.224-4.335 2.277-8.234 5.57-11.63 10.248-6.62 9.12-13.78 13.698-21.466 14.311-7.622.609-15.575-2.73-23.871-9.436-4.275-3.457-8.487-6.102-12.634-7.763-4.036-1.616-8.018-2.3-11.95-1.89-16.182 1.693-29.908 7.431-41.873 15.97-9.47 6.758-17.852 15.274-25.482 24.933 12.396-6.602 24.495-10.927 36.036-11.82 14.518-1.124 28.08 3.14 40.15 15.032 5.89 5.805 11.13 12.242 16.365 18.676 4.462 5.483 8.924 10.964 13.755 15.997 5.797 6.037 11.856 8.12 18.021 7.583 6.38-.554 12.989-3.847 19.606-8.477 4.787-3.35 10.59-5.896 16.27-7.535 6.263-1.806 12.429-2.523 16.979-2.015 8.499.949 16.582 4.572 22.392 10.144 5.44 5.22 8.901 12.132 8.901 20.165zm17.074 4.252h-19.2a2.126 2.126 0 0 1-2.126-2.126V401.29c0-6.79-2.95-12.659-7.59-17.109-5.136-4.926-12.326-8.134-19.916-8.981-4.044-.452-9.618.212-15.35 1.866-5.261 1.517-10.616 3.862-15.01 6.936-7.189 5.03-14.462 8.616-21.664 9.242-7.415.644-14.637-1.79-21.443-8.88-4.937-5.142-9.462-10.701-13.987-16.262-5.16-6.34-10.321-12.682-16.05-18.327-11.093-10.93-23.543-14.85-36.86-13.82-13.55 1.05-28.074 7.182-43.035 16.287l-.003-.004a2.116 2.116 0 0 1-2.83-3.028c9.48-13.387 20.082-25.17 32.538-34.058 12.535-8.945 26.924-14.958 43.9-16.733 4.64-.485 9.29.302 13.959 2.172 4.557 1.826 9.125 4.684 13.714 8.394 7.442 6.016 14.408 9.023 20.882 8.506 6.41-.511 12.526-4.53 18.36-12.567 3.8-5.237 8.192-8.937 13.091-11.51 4.871-2.56 10.2-3.984 15.922-4.689 6.945-.855 14.079-.988 21.445-.38 7.34.607 14.916 1.954 22.77 4.057 3.577.958 6.49 1.713 9.398 2.466 3.441.892 6.877 1.782 9.524 2.492a2.13 2.13 0 0 1 1.687 2.08v231.576a2.126 2.126 0 0 1-2.126 2.126z" style="fill:#000;fill-rule:evenodd"></path><path d="M285.81 381.425c5.796 6.037 11.855 8.12 18.02 7.583 6.38-.554 12.989-3.847 19.606-8.477 4.787-3.35 10.59-5.896 16.27-7.535 6.263-1.806 12.429-2.523 16.979-2.015 8.499.949 16.582 4.572 22.392 10.144 5.44 5.22 8.901 12.132 8.901 20.165v127.6h14.949V301.07c-2.915-.776-5.464-1.437-8.022-2.1-3.414-.884-6.841-1.772-9.432-2.466-7.595-2.034-14.923-3.336-22.022-3.923-7.075-.585-13.923-.458-20.582.362-5.25.647-10.098 1.932-14.46 4.224-4.335 2.277-8.234 5.57-11.63 10.248-6.62 9.12-13.78 13.698-21.466 14.311-7.622.609-15.575-2.73-23.871-9.436-4.275-3.457-8.487-6.102-12.634-7.763-4.036-1.616-8.018-2.3-11.95-1.89-16.182 1.693-29.908 7.431-41.873 15.97-9.47 6.758-17.852 15.274-25.482 24.933 12.396-6.602 24.495-10.927 36.036-11.82 14.518-1.124 28.08 3.14 40.15 15.032 5.89 5.805 11.13 12.242 16.365 18.676 4.462 5.483 8.924 10.964 13.755 15.997" style="fill:#2131a1;fill-rule:evenodd"></path><path d="M272.125 390.505c3.6-1.864 7.79-3.404 12.294-4.505a39 39 0 0 1-1.666-1.635c-4.937-5.143-9.462-10.702-13.988-16.263l-1.376-1.69a76.2 76.2 0 0 0-22.658 15.634 76.2 76.2 0 0 0-15.286 21.897h29.99c1.163-5.239 5.937-9.942 12.69-13.438M270.454 434.276c-.598-9.365-4.053-18.504-10.55-26.081h-32.268a75.8 75.8 0 0 0-5.148 26.08z" style="fill:#ffc100;fill-rule:evenodd"></path><path d="M263.426 405.777c7.744 9.203 11.44 20.46 11.357 31.81-.083 11.56-4.093 23.209-11.737 32.862.768 4.009 4.878 8.026 10.805 11.114 5.97 3.11 13.68 5.187 21.731 5.36l.01-2.893h-4.042a1.417 1.417 0 0 1 0-2.834h4.052l.011-3.157h-4.063a1.417 1.417 0 0 1 0-2.835h4.073l.009-2.654h-4.083a1.417 1.417 0 0 1 0-2.835h4.093l.01-3.157h-4.103a1.417 1.417 0 0 1 0-2.834h4.114l.01-2.796h-4.123a1.417 1.417 0 0 1 0-2.835h4.133l.01-3.157h-4.143a1.418 1.418 0 0 1 0-2.834h4.153l.008-2.23h-4.161a1.417 1.417 0 0 1 0-2.834h4.171l.011-3.157h-4.182a1.417 1.417 0 0 1 0-2.835h4.192l.01-2.512h-4.202a1.417 1.417 0 0 1 0-2.835h4.211l.011-3.156h-4.222a1.418 1.418 0 0 1 0-2.835h4.232l.009-2.512h-4.24a1.418 1.418 0 0 1 0-2.835h4.25l.01-3.157h-4.26a1.418 1.418 0 0 1 0-2.835h4.27l.009-2.37h-4.28a1.417 1.417 0 0 1 0-2.835h4.29l.01-3.157h-4.3a1.417 1.417 0 0 1 0-2.835h4.31l.01-2.512h-4.32a1.417 1.417 0 0 1 0-2.835h4.33l.01-3.157h-4.34a1.417 1.417 0 0 1 0-2.834h4.35l.011-3.257c-2.413-.633-4.795-1.674-7.139-3.182-5.437 1.01-10.509 2.708-14.703 4.88-6.114 3.165-10.258 7.253-10.642 11.502zM300.144 393.279l-.326 93.58c11.015-.441 19.537-2.56 25.552-5.64 6.28-3.219 9.708-7.433 10.247-11.765a36 36 0 0 1-2.848-2.608c-7.263-7.398-11.307-17.825-11.805-28.633-.497-10.773 2.529-21.956 9.401-30.913a43 43 0 0 1 3.286-3.803c-.637-3.086-4.673-6.617-10.394-9.535-2.634-1.344-5.602-2.527-8.756-3.456-3.44 1.474-6.88 2.44-10.305 2.738a25.4 25.4 0 0 1-4.052.034M337.845 402.95h29.184a76.2 76.2 0 0 0-14.82-20.904 76 76 0 0 0-6.857-6.081 57 57 0 0 0-4.482 1.1c-5.261 1.518-10.616 3.863-15.01 6.937a77 77 0 0 1-6.008 3.826c1.88.71 3.668 1.498 5.332 2.347 6.918 3.529 11.818 8.225 12.661 12.776" style="fill:#ffc100;fill-rule:evenodd"></path><path d="M368.91 407.203h-32.927a39 39 0 0 0-2.246 2.671c-5.452 7.105-8.237 15.773-8.555 24.402h49.27a75.7 75.7 0 0 0-5.542-27.073M374.42 438.528h-49.195c.55 9.616 4.165 18.824 10.567 25.345a31.5 31.5 0 0 0 3.304 2.927l.463.356h28.152a75.6 75.6 0 0 0 6.708-28.628M327.296 484.988c-6.935 3.554-16.811 5.922-29.562 6.172-9.538.187-18.8-2.16-25.842-5.827-6.965-3.628-11.865-8.63-12.982-13.926h-27.59a76.2 76.2 0 0 0 13.41 18.118c13.753 13.752 32.753 22.259 53.74 22.259s39.987-8.507 53.74-22.26a76.2 76.2 0 0 0 13.41-18.117h-26.05c-1.182 5.18-5.287 10.001-12.274 13.581M260.243 467.156c6.505-8.495 10.01-18.579 10.288-28.628h-48.01a75.6 75.6 0 0 0 6.708 28.628z" style="fill:#ffc100;fill-rule:evenodd" data-source="https://football-logos.cc"></path><path d="M225.945 408.313c-6.543-1.358-13.436-7.392-21.547-14.494-3.236-2.833-6.672-5.842-10.21-8.673a18 18 0 0 0-4.054-2.443 17 17 0 0 0-4.435-1.268 23 23 0 0 0-4.429-.182 27 27 0 0 0-4.38.614c-.47.103-.837.338-1.106.65-.362.416-.591.992-.696 1.62-.164.978-.292 1.93-.315 2.87-.024.92.047 1.89.273 2.96a5.36 5.36 0 0 0 1.876 3.039c2.817 2.22 5.888 4.084 8.955 5.945 4.591 2.787 9.176 5.57 13.011 9.44q.335.336.672.743c1.107 1.329 1.776 2.787 1.868 4.284.1 1.648-.466 3.225-1.859 4.606q-.218.215-.522.469c-2.096 1.745-4.227 2.852-6.254 3.903-1.854.962-3.609 1.873-4.888 3.108-.698.675-1.356 1.52-1.73 2.402-.236.555-.347 1.104-.24 1.574a10.7 10.7 0 0 0 1.092 2.853c.493.883 1.13 1.716 1.9 2.486a8.4 8.4 0 0 0 1.857 1.427c.698.39 1.454.69 2.309.95.575.174 1.37.27 2.165.364 1.294.155 2.59.31 3.909.876 1.676.72 2.901 1.749 3.72 2.93a7.06 7.06 0 0 1 1.25 3.47 7.25 7.25 0 0 1-.574 3.447 7.63 7.63 0 0 1-2.66 3.248c-5.679 3.944-14.3 2.748-21.357 1.769-1.018-.141-2-.278-3.175-.418-.689-.082-1.442.044-2.173.312a6.9 6.9 0 0 0-2.282 1.401l-.005-.005c-1.082 1.015-1.795 2.48-2.078 4.063h-.009c-.283 1.583-.114 3.254.566 4.678.274.576.82 1.077 1.486 1.464a6.2 6.2 0 0 0 2.734.828c11.4.552 22.85.118 34.298-.315 5.734-.217 11.469-.434 17.301-.529l.076 4.8c-5.668.093-11.438.311-17.207.53-11.56.437-23.12.874-34.694.314-1.641-.08-3.416-.594-4.917-1.468-1.462-.85-2.71-2.052-3.426-3.553-1.115-2.337-1.398-5.047-.942-7.595l-.009-.002c.455-2.544 1.67-4.962 3.55-6.72v-.01a11.7 11.7 0 0 1 3.902-2.398c1.407-.518 2.921-.751 4.394-.576.857.102 2.04.266 3.269.437 6.215.862 13.809 1.916 17.95-.96.448-.312.785-.732.985-1.196.16-.372.23-.774.197-1.17-.03-.372-.16-.75-.402-1.098-.33-.476-.876-.913-1.67-1.254-.679-.292-1.626-.405-2.572-.518-.966-.115-1.933-.23-2.993-.553-1.21-.367-2.278-.79-3.268-1.346a13.2 13.2 0 0 1-2.911-2.217 16.1 16.1 0 0 1-2.691-3.559 15.5 15.5 0 0 1-1.583-4.133c-.352-1.549-.1-3.089.504-4.51.645-1.518 1.711-2.91 2.823-3.983 1.779-1.718 3.84-2.788 6.016-3.917 1.813-.941 3.72-1.931 5.389-3.32q.083-.071.201-.187c.328-.325.465-.635.448-.916-.027-.433-.299-.948-.757-1.499a7 7 0 0 0-.39-.422c-3.45-3.482-7.766-6.102-12.089-8.725-3.248-1.972-6.501-3.946-9.444-6.265a10 10 0 0 1-2.302-2.607c-.617-1-1.068-2.107-1.306-3.237a17.2 17.2 0 0 1-.368-4.053c.032-1.26.182-2.41.372-3.547.244-1.45.833-2.85 1.807-3.973a6.74 6.74 0 0 1 3.704-2.194 32 32 0 0 1 5.152-.726h.009a27.5 27.5 0 0 1 5.342.22c1.95.273 3.874.83 5.696 1.625a23 23 0 0 1 5.127 3.102c3.763 3.012 7.17 5.996 10.38 8.805 7.593 6.649 14.047 12.3 19.363 13.402z" style="fill:#000;fill-rule:evenodd"></path><path d="M176.89 381.867c-.47.103-.837.338-1.106.65-.362.416-.591.992-.696 1.62-.164.978-.292 1.93-.315 2.87-.024.92.047 1.89.273 2.96a5.36 5.36 0 0 0 1.876 3.039c2.817 2.22 5.888 4.084 8.955 5.945 4.591 2.787 9.176 5.57 13.011 9.44q.335.336.672.743c1.107 1.329 1.776 2.787 1.868 4.284.1 1.648-.466 3.225-1.859 4.606q-.218.215-.522.469c-2.096 1.745-4.227 2.852-6.254 3.903-1.854.962-3.609 1.873-4.888 3.108-.698.675-1.356 1.52-1.73 2.402-.236.555-.347 1.104-.24 1.574a10.7 10.7 0 0 0 1.092 2.853c.493.883 1.13 1.716 1.9 2.486a8.4 8.4 0 0 0 1.857 1.427c.698.39 1.454.69 2.309.95.575.174 1.37.27 2.165.364 1.294.155 2.59.31 3.909.876 1.676.72 2.901 1.749 3.72 2.93a7.06 7.06 0 0 1 1.25 3.47 7.25 7.25 0 0 1-.574 3.447 7.63 7.63 0 0 1-2.66 3.248c-5.679 3.944-14.3 2.748-21.357 1.769-1.018-.141-2-.278-3.175-.418-.689-.082-1.442.044-2.173.312a6.9 6.9 0 0 0-2.282 1.401l-.005-.005c-1.082 1.015-1.795 2.48-2.078 4.063h-.009c-.283 1.583-.114 3.254.566 4.678.274.576.82 1.077 1.486 1.464a6.2 6.2 0 0 0 2.734.828c11.4.552 22.85.118 34.298-.315 4.69-.177 9.38-.355 14.125-.466-3.475-9.017-5.38-18.814-5.38-29.057 0-10.015 1.821-19.605 5.151-28.455-5.618-2.314-11.58-7.535-18.406-13.51-3.236-2.834-6.672-5.843-10.21-8.674a18 18 0 0 0-4.055-2.443 17 17 0 0 0-4.434-1.268 23 23 0 0 0-4.429-.182 27 27 0 0 0-4.38.614z" style="fill:#e00000;fill-rule:evenodd"></path><path d="m373.568 410.8 10.875-4.032 1.656 4.518-10.875 4.031z" style="fill:#1b1918;fill-rule:evenodd"></path><path d="m375.157 410.21 8.57-3.176v-5.744c0-6.79-2.951-12.659-7.59-17.109-5.137-4.926-12.327-8.134-19.917-8.981-1.31-.147-2.78-.176-4.365-.092a81 81 0 0 1 3.762 3.53c8.767 8.768 15.53 19.541 19.54 31.572" style="fill:#e00000;fill-rule:evenodd"></path><path d="M250.083 498.933c-.352 5.627-3.13 9.75-7.406 13.312-2.064 1.72-4.889 3.031-8.719 1.97-4.11-1.14-8.03.047-14.672 2.32-1.997.683-3.634 1.678-6.14 3.374-2.652 1.796-2.383 3.419.937 5.274 3.942 2.202 9.167 2.517 14.25 2.601 4.089.067 8.175-.217 12.188-1.007 4.664-.919 9.22-2.05 14.062-.657 10.138 2.918 20.581 4.148 31.219 4.313 5.156-.094 10.332.174 15.469-.281 1.271-.113 2.312-1.151 3.562-1.407 2.901-.593 5.863-.867 8.813-1.125 10.302-.898 20.697-.9 30.937-2.343 11.3-1.593 22.266-5.14 33.563-6.75 2.192-.312 4.328.031 6.562 1.031l.563-12.375c-.764 1.095-2.065 2.636-3.094 1.687-4.048-3.735-7.129-5.737-11.156-6.093-7.813-.69-19.524-.338-23.532.093-2.913.314-1.892-1.514-1.687-2.812" style="fill:none"></path><path d="M249.93 500.409c-.709 4.885-3.36 8.592-7.253 11.836-2.064 1.72-4.889 3.031-8.719 1.97-4.11-1.14-8.03.047-14.672 2.32-1.997.683-3.634 1.678-6.14 3.374-2.652 1.796-2.383 3.419.937 5.274 3.942 2.202 9.167 2.517 14.25 2.601 4.089.067 8.175-.217 12.188-1.007 4.664-.919 9.22-2.05 14.062-.657 10.138 2.918 20.581 4.148 31.219 4.313 5.156-.094 10.332.174 15.469-.281 1.271-.113 2.312-1.151 3.562-1.407 2.901-.593 5.863-.867 8.813-1.125 10.302-.898 20.697-.9 30.937-2.343 11.3-1.593 22.266-5.14 33.563-6.75 1.869-.267 3.697-.056 5.58.632v-10.297c-.52.35-1.065.455-1.549.009-4.048-3.736-7.129-5.738-11.156-6.094-7.813-.69-19.524-.338-23.532.094-1.875.202-2.12-.484-2.002-1.345-13.246 9.49-29.48 15.077-47.017 15.077-18.215 0-35.024-6.026-48.54-16.194z" style="fill:#000;fill-rule:evenodd"></path><path d="M170.344 383.346c.244-1.45.833-2.85 1.807-3.974a6.74 6.74 0 0 1 3.704-2.193 32 32 0 0 1 5.152-.726h.009a27.5 27.5 0 0 1 5.342.22c1.95.273 3.874.83 5.695 1.625a23 23 0 0 1 5.128 3.102c3.763 3.012 7.17 5.996 10.38 8.805 6.532 5.72 12.22 10.7 17.067 12.683a81 81 0 0 1 16.695-24.25 81 81 0 0 1 22.903-16.079c-3.686-4.445-7.456-8.79-11.511-12.784-11.093-10.93-23.542-14.85-36.86-13.82-13.55 1.05-28.073 7.183-43.034 16.287l-.003-.004a2.116 2.116 0 0 1-2.83-3.028c9.48-13.387 20.082-25.17 32.538-34.058 12.534-8.945 26.924-14.958 43.9-16.733 4.64-.485 9.29.302 13.959 2.172 4.557 1.826 9.125 4.684 13.714 8.394 7.441 6.016 14.408 9.023 20.881 8.506 6.41-.511 12.527-4.53 18.36-12.567 3.801-5.237 8.193-8.937 13.092-11.51 4.87-2.56 10.2-3.984 15.921-4.689 6.945-.855 14.08-.988 21.446-.38 7.34.607 14.916 1.954 22.77 4.057 3.576.958 6.49 1.713 9.398 2.466 3.441.892 6.876 1.782 9.524 2.492a2.13 2.13 0 0 1 1.687 2.08v231.576a2.126 2.126 0 0 1-2.126 2.126h-19.2a2.126 2.126 0 0 1-2.126-2.126V519.16c-1.883-.688-3.712-.898-5.58-.632-11.298 1.61-22.264 5.157-33.563 6.75-10.24 1.444-20.635 1.445-30.938 2.344-2.95.257-5.911.532-8.812 1.125-1.25.255-2.292 1.293-3.563 1.406-5.137.455-10.313.187-15.469.281-10.637-.165-21.081-1.395-31.218-4.312-4.842-1.394-9.399-.263-14.063.656-4.013.79-8.099 1.075-12.188 1.007-5.082-.083-10.308-.398-14.25-2.601-3.32-1.855-3.589-3.478-.937-5.273 2.506-1.697 4.143-2.692 6.14-3.375 6.642-2.273 10.563-3.46 14.672-2.32 3.83 1.062 6.655-.25 8.72-1.97 3.892-3.243 6.544-6.951 7.253-11.836a81 81 0 0 1-8.607-7.477 81 81 0 0 1-16.278-23.33c-5.268.102-10.618.304-15.968.507-11.559.437-23.12.875-34.694.314-1.641-.08-3.415-.594-4.917-1.467-1.461-.851-2.71-2.053-3.425-3.554-1.115-2.337-1.398-5.047-.943-7.594l-.009-.002c.455-2.545 1.67-4.963 3.551-6.721v-.01a11.7 11.7 0 0 1 3.901-2.398c1.407-.517 2.922-.751 4.394-.576.858.102 2.04.267 3.27.437 6.214.862 13.808 1.916 17.949-.96.449-.312.785-.731.985-1.196.16-.372.23-.774.198-1.17-.03-.372-.16-.75-.403-1.098-.33-.476-.876-.913-1.67-1.254-.678-.292-1.626-.405-2.571-.518-.967-.115-1.933-.23-2.994-.552-1.21-.368-2.278-.791-3.268-1.346a13.2 13.2 0 0 1-2.911-2.217 16.1 16.1 0 0 1-2.691-3.56 15.5 15.5 0 0 1-1.582-4.132c-.352-1.55-.1-3.09.503-4.51.645-1.519 1.712-2.91 2.823-3.984 1.78-1.718 3.84-2.787 6.017-3.917 1.813-.941 3.72-1.93 5.388-3.32l.202-.187c.327-.324.464-.634.447-.916-.026-.433-.298-.948-.757-1.499a7 7 0 0 0-.39-.422c-3.45-3.481-7.766-6.102-12.088-8.725-3.249-1.972-6.502-3.946-9.445-6.265a10 10 0 0 1-2.301-2.607c-.618-1-1.069-2.107-1.307-3.237a17.2 17.2 0 0 1-.367-4.052c.032-1.261.181-2.41.372-3.548zm-56.428 26.183.289 8.854L86.01 437.06l28.772-.938.268 8.191-43.77 1.429-.28-8.58 28.745-18.97-29.333.957-.267-8.191zM417.51 572.734l13.285-11.489-3.769-9.922 5.234-4.526 6.244-8.288 11.453.691q6.118.34 7.945.128c1.203-.14 2.225-.48 3.05-1.033q1.245-.84 3.084-3.28l1.08-1.433-14.607-11.005 5.337-7.084 34.977 26.354-11.208 14.875c-2.816 3.737-5.182 6.217-7.085 7.438-1.91 1.23-4.043 1.74-6.414 1.55-2.379-.197-4.597-1.065-6.665-2.623-2.63-1.981-4.219-4.378-4.769-7.206-.55-2.827.105-5.932 1.964-9.33q-3.053 1.279-5.765 1.553c-1.815.189-4.718.095-8.701-.277l-7.348-.64 15.074 42.248-7.086 6.128-41.917-21.647 7.225-6.249zm63.83-163.616 43.418.848-.174 8.867-36.018-.704-.429 21.954-7.4-.145zm-2.499-15.856 43.439-5.564 1.126 8.797-43.438 5.564zm-5.98-26.144 35.035-9.848-3.508-12.483 7.124-2.002 9.401 33.445-7.124 2.002-3.493-12.424-35.034 9.848zm-24.734-52.848-5.474-6.1 25.641-23.047-31.427 16.597-5.692-6.343 19.922-29.42-25.681 23.001-5.474-6.1 32.596-29.247 8.87 9.887-16.989 25.79 27.413-14.174 8.89 9.91zm22.124-3.539 20.708-10.865 4.12 7.854-21.014 11.026c-3.34 1.752-5.446 2.984-6.33 3.69-1.414 1.167-2.284 2.625-2.587 4.372-.307 1.762.11 3.719 1.246 5.886 1.15 2.193 2.474 3.617 3.973 4.258s2.96.727 4.405.257c1.445-.471 3.7-1.505 6.77-3.115l21.466-11.263 4.12 7.854-20.392 10.699c-4.658 2.444-8.061 3.965-10.207 4.55-2.145.584-4.177.66-6.101.219-1.92-.433-3.762-1.4-5.542-2.883-1.785-1.493-3.48-3.758-5.085-6.818q-2.907-5.537-3.122-9.068-.216-3.53.967-6.275c.79-1.83 1.836-3.3 3.16-4.443 1.95-1.68 5.103-3.657 9.445-5.935m7.618 143.688 46.094-6.22-1.992 9.372-34.021 4.14 29.49 17.18-1.96 9.212-39.597-24.34zm-19.723 56.5 13.579-30.376 39.98 17.871-13.229 29.595-6.756-3.02 9.61-21.498-8.879-3.969-8.936 19.99-6.756-3.02 8.936-19.99-10.833-4.842-9.96 22.28zM358.15 247.515l-8.622-3.689 32.857-33.575 8.614 3.684-1.096 47.164-8.782-3.757.445-10.653-16.149-6.909zM128.13 348.65c-.124 2.04-.78 4.574-1.96 7.615l-6.005 15.482-40.829-15.838 5.833-15.036c1.316-3.392 2.575-5.878 3.788-7.453a14.56 14.56 0 0 1 6.145-4.68c2.46-1.013 5.166-1.45 8.126-1.33 2.947.127 6.342.93 10.163 2.412 3.364 1.305 6.091 2.844 8.2 4.624q3.87 3.257 5.521 7.16c.844 1.969 1.18 4.318 1.018 7.044m26.08-42.972-18.414 27.714-36.476-24.235 17.94-27 6.164 4.095-13.031 19.613 8.1 5.382 12.117-18.238 6.164 4.096-12.117 18.237 9.883 6.567 13.505-20.327zm3.347-4.063-30.612-31.317 10.14-9.912c3.842-3.756 6.492-6.046 7.965-6.873q3.383-1.922 7.505-1.335 4.123.587 7.78 4.327c1.88 1.924 3.105 3.878 3.695 5.867.584 1.996.706 3.886.368 5.685-.345 1.79-.954 3.355-1.826 4.679-1.217 1.774-3.247 4.058-6.105 6.85l-4.111 4.02 11.544 11.809zm28.865-33.565c-5.35-1.397-9.848-5.08-13.485-11.053-2.321-3.814-3.697-7.368-4.137-10.658a20.5 20.5 0 0 1 .356-7.257q.825-3.614 2.775-6.32 2.601-3.61 7.17-6.395c5.52-3.361 10.971-4.328 16.372-2.926 5.397 1.416 9.951 5.172 13.667 11.276 3.685 6.051 4.923 11.79 3.718 17.201-1.199 5.42-4.557 9.805-10.051 13.15-5.564 3.387-11.03 4.388-16.385 2.982m37.228-15.91-13.193-41.759 17.759-5.61c4.462-1.41 7.828-2.057 10.086-1.947 2.269.106 4.303.928 6.123 2.46 1.823 1.54 3.126 3.534 3.906 6.003.992 3.14.896 6.014-.297 8.635-1.192 2.622-3.528 4.771-7.014 6.46q3.229.73 5.597 2.08 2.383 1.351 6.926 5.275l7.667 6.536-10.08 3.185-8.927-7.208q-4.785-3.828-6.397-4.714c-1.06-.584-2.09-.9-3.083-.928-1.002-.026-2.47.267-4.415.881l-1.71.54 5.51 17.44zm49.394-12.843-4.015-36.17-12.888 1.43-.817-7.355 34.53-3.833.816 7.355-12.826 1.424 4.015 36.17zm27.197-1.64 1.681-43.76 8.863.34-1.682 43.76zm26.135 2.242-7.426-45.916 9.422 1.746 5.028 33.9 16.402-29.929 9.261 1.717-23.295 40.221zM150.478 530.536l4.56 6.81-36.392 24.363-4.775-7.133 14.362-31.303-24.388 16.326-4.56-6.81 36.392-24.363 4.928 7.362-14.05 30.762zm-5.457 27.51c3.601-3.835 6.319-6.387 8.155-7.642s3.73-1.992 5.693-2.205c1.954-.22 4.012.09 6.18.909 2.175.826 4.518 2.41 7.037 4.777 3.04 2.854 5.015 5.366 5.92 7.544s1.288 4.258 1.14 6.246c-.145 1.988-.654 3.72-1.53 5.234-1.292 2.225-3.624 5.125-6.98 8.7l-16.009 17.047-6.465-6.071 16.245-17.3c2.582-2.75 4.168-4.602 4.773-5.559.953-1.566 1.297-3.228 1.012-4.979-.286-1.765-1.321-3.477-3.104-5.152-1.806-1.696-3.523-2.609-5.149-2.723-1.626-.115-3.034.283-4.246 1.2-1.211.918-3.004 2.633-5.376 5.16l-16.595 17.671-6.464-6.07zm-33.43-103.281c4.864 2.675 8.126 7.13 9.79 13.344 1.687 6.292 1.11 11.818-1.746 16.562-2.845 4.741-7.644 8.022-14.399 9.832-4.313 1.156-8.11 1.477-11.39.973a20.5 20.5 0 0 1-6.865-2.382q-3.237-1.808-5.285-4.441c-1.82-2.341-3.196-5.233-4.12-8.68-1.672-6.242-1.068-11.744 1.797-16.533 2.877-4.781 7.762-8.095 14.664-9.945 6.844-1.833 12.699-1.408 17.553 1.27m-22.202 56.743 39.811-18.246 3.695 8.062-39.812 18.246zM297.638 662.75c64.356 0 125.483-25.323 170.983-70.822s70.822-106.627 70.822-170.983-25.322-125.483-70.822-170.983-106.627-70.823-170.983-70.823-125.483 25.323-170.983 70.823-70.823 106.626-70.823 170.983c0 64.356 25.323 125.483 70.823 170.983S233.28 662.75 297.638 662.75m-3.907-59.544 4.562-9.044 4.563 9.044 8.473-5.55-.57 10.113 10.113-.571-5.551 8.473 9.044 4.563-9.044 4.562 5.551 8.474-10.114-.571.571 10.113-8.473-5.55-4.563 9.043-4.562-9.044-8.474 5.551.571-10.113-10.113.57 5.551-8.473-9.044-4.562 9.044-4.563-5.551-8.473 10.113.57-.57-10.113z" style="fill:#fff;fill-rule:evenodd"></path><path d="M379.288 435.785c0 22.317-9.046 42.522-23.671 57.147a81 81 0 0 1-10.13 8.594c-.118.86.127 1.547 2.002 1.344 4.008-.431 15.719-.784 23.532-.093 4.027.356 7.108 2.358 11.156 6.094.484.446 1.029.341 1.55-.01v-96.695l-7.183 2.662a81 81 0 0 1 2.744 20.957M433.6 568.602l-9.074 7.849 15.205 8.278zM462.39 552.766c.338 1.008 1.04 1.907 2.09 2.698 1.18.89 2.364 1.284 3.569 1.21q1.797-.125 3.368-1.625.775-.774 4.005-5.061l4.153-5.512-8.89-6.699-3.939 5.227c-2.552 3.387-3.994 5.606-4.347 6.667-.347 1.054-.353 2.096-.01 3.095zM370.803 234.034l11.03 4.72.78-17.296zM238.147 220.502c.894-.657 1.503-1.502 1.803-2.516.31-1.017.26-2.156-.137-3.41-.445-1.41-1.18-2.417-2.205-3.055q-1.535-.942-3.685-.632-1.08.18-6.199 1.798l-6.58 2.08 3.353 10.614 6.24-1.971c4.044-1.278 6.506-2.249 7.41-2.908M201.245 239.273c-2.613-4.293-5.505-6.924-8.677-7.881-3.169-.971-6.31-.503-9.435 1.4-3.117 1.898-4.982 4.501-5.59 7.795-.603 3.303.401 7.108 3.025 11.418 2.582 4.24 5.522 6.854 8.817 7.855 3.29.993 6.448.574 9.46-1.26 3.022-1.84 4.832-4.433 5.454-7.784.607-3.353-.409-7.198-3.054-11.543M155.125 269.58c.517-1.147.675-2.299.458-3.47-.21-1.162-.761-2.207-1.673-3.14-1.118-1.145-2.374-1.757-3.764-1.852-1.397-.088-2.691.265-3.905 1.08-.886.596-2.466 1.998-4.74 4.221l-3.04 2.972 8.722 8.922 3.448-3.37c2.486-2.43 3.976-4.215 4.494-5.363M109.714 338.171c-3.155-1.224-5.676-1.885-7.585-1.98-1.905-.105-3.52.165-4.857.795-1.328.632-2.464 1.646-3.394 3.056-.7 1.041-1.706 3.242-3.004 6.587l-1.43 3.688 27.029 10.485 2.378-6.13q1.33-3.436 1.535-5.112c.187-1.47.045-2.793-.415-3.977-.455-1.193-1.49-2.415-3.101-3.674-1.607-1.269-4-2.514-7.156-3.738M108.125 462.67c-3.047-1.527-7.022-1.633-11.936-.317-4.854 1.301-8.193 3.336-10.003 6.11-1.823 2.769-2.258 5.914-1.31 9.449.944 3.525 2.918 6.046 5.908 7.556 3 1.508 6.934 1.615 11.808.309 4.795-1.285 8.13-3.372 10.018-6.252 1.878-2.878 2.364-6.026 1.451-9.433-.915-3.417-2.895-5.884-5.936-7.423" style="fill:#fff;fill-rule:evenodd" data-source="https://football-logos.cc"></path><!-- source: https://football-logos.cc --></svg>