<svg xmlns="http://www.w3.org/2000/svg" viewBox="51.79 23.74 491.69 794.4"><!-- Source: https://football-logos.cc --><path d="M331.351 223.381c-.05-2.332-2.375-3.896-4.432-3.896h-2.437l.026 7.845h2.438c2.852 0 4.459-1.48 4.405-3.949m-6.87 18.68h-7.618v-29.4h10.056c6.882 0 12.216 3.88 12.216 11.2 0 6.247-5.733 9.737-12.189 9.737h-2.438zM302.998 227.39c0-5.6-3.438-7.69-8.635-7.69h-1.829v15.323h1.829c5.158 0 8.635-2.06 8.635-7.634m-8.853 14.672h-9.447V212.66h9.447c9.515 0 16.787 4.404 16.787 14.722 0 10.292-7.312 14.68-16.787 14.68M268.392 218.841c-1.296 0-2.917.445-2.917 2.018q0 .944 1.153 1.673c.77.487 2.21 1.1 4.332 1.803 4.581 1.518 8.272 3.529 8.272 8.991 0 5.944-6.24 9.065-10.941 9.16-5.683.115-10.615-2.604-13.412-6.405l5.309-4.308c1.908 2.27 4.657 4.641 7.569 4.641 1.497 0 4.195-.861 4.248-2.851.046-1.716-4.687-2.742-5.938-3.155-4.73-1.563-8.752-4.233-8.752-9.126 0-5.73 5.5-9.077 10.99-9.05 3.814.018 7.868 2.596 10.638 5.213l-4.637 4.494c-1.668-1.5-3.61-3.098-5.914-3.098" style="fill:#e2be29;fill-rule:evenodd" data-source="https://football-logos.cc"></path><path d="M395.38 161.447a8.91 8.91 0 0 0-8.249 12.967c-1.075 4.328-2.99 7.828-5.315 10.25-2.056 2.142-4.283 3.32-6.229 3.237-2.747-.119-5.203-1.19-7.201-3.093-2.148-2.046-3.872-5.056-5.024-8.925.19-12.472-.288-25.042-2.18-37.464-1.408-9.253-3.6-18.495-6.88-27.659a101 101 0 0 1 15.671.986c17.25 2.465 31.787 9.465 42.271 19.66 10.248 9.964 16.704 23.075 18.061 38.02q.272 2.99.263 6.116a8.4 8.4 0 0 0-2.703 3.87c-.855 2.495-2.53 4.946-4.823 6.626-1.761 1.29-3.91 2.082-6.32 1.97-2.774-.131-5.462-1.467-7.668-3.746-2.45-2.533-4.295-6.183-5.115-10.69a9 9 0 0 0-.247-1.014 8.909 8.909 0 0 0-8.312-11.111m-195.942-.214a8.91 8.91 0 0 0-8.934 11.179q-.186.56-.294 1.16c-.82 4.507-2.666 8.157-5.116 10.69-2.205 2.28-4.893 3.615-7.668 3.745-2.41.113-4.558-.679-6.32-1.97-2.293-1.68-3.968-4.13-4.822-6.625a8.4 8.4 0 0 0-2.606-3.79q.013-2.572.22-5.09c1.256-15.386 8.017-28.934 18.694-39.241 11-10.619 26.18-17.917 43.903-20.449 4.393-.628 8.96-.96 13.674-.974-3.459 9.456-5.75 18.998-7.203 28.55-1.892 12.423-2.369 24.993-2.18 37.465-1.152 3.87-2.876 6.879-5.023 8.925-1.998 1.903-4.455 2.974-7.202 3.093-1.945.083-4.173-1.095-6.229-3.237-2.344-2.442-4.27-5.978-5.34-10.355a8.91 8.91 0 0 0-7.553-13.076m97.647 112.458H159.808l-2.483-9.272c-4.116-15.371-6.845-25.7-9.303-36.036-2.547-10.716-4.898-21.735-8.231-38.383l-.098-.684q-.206-1.44-.367-2.87c-7.202-1.87-12.52-8.416-12.52-16.203 0-8.569 6.438-15.633 14.741-16.621 4.057-15.505 12.31-29.226 23.77-40.289 14.7-14.19 34.65-23.895 57.664-27.183 6.538-.934 13.3-1.354 20.234-1.216 4.937-8.284 10.96-15.953 18.19-22.704a99 99 0 0 1 19.164-14.007c-.9-2.115-1.399-4.442-1.399-6.886 0-9.716 7.876-17.592 17.593-17.592s17.592 7.876 17.592 17.592c0 2.244-.42 4.389-1.186 6.362 7.997 4.266 14.847 9.37 20.917 15.318 6.807 6.668 12.51 14.285 17.68 22.894 7.555-.243 14.813.156 21.72 1.143 22.596 3.228 41.911 12.665 56.13 26.491 11.246 10.934 19.253 24.553 23.157 39.987 7.942 1.307 14 8.203 14 16.516 0 7.55-4.998 13.932-11.867 16.019a99 99 0 0 1-.409 3.25l-.098.683c-3.157 15.772-5.531 26.768-8.308 38.38-2.846 11.904-5.447 21.712-9.282 36.034l-2.47 9.223h-9.584l-127.67.005zm49.421-98.312c.16-11.396-.297-22.932-2.05-34.448-1.785-11.727-4.914-23.298-10.12-34.458a8.4 8.4 0 0 1-.628-1.899c-5.088-9.403-10.514-17.35-17.092-23.795-5.363-5.254-11.631-9.631-19.302-13.146-7.278 3.478-13.557 7.833-18.928 12.848-7.095 6.626-12.668 14.414-16.913 22.872l-2.562 5.106c-4.67 10.545-7.54 21.44-9.218 32.472-1.754 11.516-2.21 23.052-2.05 34.448 1.39 3.398 4.018 6.316 7.272 8.483 3.957 2.635 8.695 4.12 13.244 4.039 4.388-.078 8.672-1.15 12.43-3.662 2.621-1.753 5.066-4.255 7.219-7.665-4.988-3.105-8.309-8.636-8.309-14.944 0-9.716 7.876-17.593 17.593-17.593s17.592 7.877 17.592 17.593c0 6.319-3.332 11.858-8.333 14.96 2.15 3.402 4.591 5.898 7.21 7.649 3.757 2.511 8.04 3.584 12.429 3.662 4.549.08 9.287-1.404 13.243-4.04 3.254-2.166 5.883-5.084 7.273-8.482m79.674 27.952c-3.125 1.135-6.558 1.709-10.25 1.535-7.153-.337-13.798-3.486-18.975-8.836a32 32 0 0 1-1.35-1.486 33 33 0 0 1-1.624 1.823c-5.407 5.634-12.225 8.69-19.121 8.393-6.95-.3-13.127-2.973-18.11-7.721a31 31 0 0 1-2.96-3.257 39.4 39.4 0 0 1-5.235 4.162c-6.684 4.453-14.847 6.958-22.83 6.816-7.463-.132-14.868-2.037-21.553-6.505a39.5 39.5 0 0 1-7.098-6.096 39.5 39.5 0 0 1-7.098 6.096c-6.684 4.468-14.09 6.373-21.553 6.505-7.982.142-16.145-2.363-22.83-6.816a39.4 39.4 0 0 1-5.234-4.162 31 31 0 0 1-2.96 3.257c-4.984 4.748-11.16 7.42-18.11 7.72-6.896.298-13.714-2.758-19.122-8.392a33 33 0 0 1-1.624-1.823 32 32 0 0 1-1.35 1.486c-5.177 5.35-11.821 8.5-18.974 8.836a26.2 26.2 0 0 1-10.197-1.515c1.527 7.233 2.888 13.328 4.301 19.273 1.971 8.291 3.995 16.14 6.634 26.082h118.128v.049l118.082-.005c2.889-10.84 4.993-18.906 6.72-26.129 1.338-5.592 2.69-11.665 4.293-19.29" style="fill:#e2be29;fill-rule:evenodd"></path><path d="M230.786 175.883c-.189-12.473.289-25.042 2.18-37.464 1.454-9.553 3.744-19.095 7.203-28.55-4.714.014-9.28.345-13.674.973-17.722 2.532-32.903 9.83-43.903 20.449-10.677 10.307-17.438 23.855-18.694 39.24a67 67 0 0 0-.22 5.091 8.4 8.4 0 0 1 2.606 3.79c.854 2.495 2.53 4.946 4.823 6.626 1.76 1.29 3.91 2.082 6.319 1.97 2.775-.131 5.463-1.467 7.668-3.746 2.45-2.533 4.295-6.183 5.116-10.69q.107-.6.294-1.16a8.909 8.909 0 1 1 16.488 1.897c1.07 4.377 2.996 7.913 5.34 10.355 2.056 2.142 4.284 3.32 6.23 3.237 2.746-.119 5.203-1.19 7.2-3.093 2.148-2.046 3.872-5.056 5.024-8.925M249.693 140.931c-1.754 11.516-2.21 23.052-2.05 34.448 1.39 3.398 4.018 6.316 7.272 8.483 3.957 2.635 8.695 4.12 13.244 4.039 4.388-.078 8.672-1.15 12.43-3.662 2.621-1.753 5.066-4.255 7.219-7.665-4.988-3.105-8.309-8.636-8.309-14.944 0-9.717 7.876-17.593 17.593-17.593s17.592 7.876 17.592 17.593c0 6.318-3.332 11.858-8.333 14.96 2.15 3.402 4.591 5.898 7.21 7.649 3.757 2.511 8.04 3.584 12.429 3.662 4.549.08 9.287-1.404 13.243-4.04 3.254-2.166 5.883-5.084 7.273-8.482.16-11.396-.297-22.932-2.05-34.448-1.785-11.727-4.914-23.298-10.12-34.458a8.4 8.4 0 0 1-.628-1.899c-5.088-9.403-10.514-17.35-17.092-23.795-5.363-5.255-11.631-9.631-19.302-13.147-7.278 3.479-13.557 7.834-18.928 12.85-7.095 6.625-12.668 14.413-16.913 22.871l-2.562 5.106c-4.67 10.545-7.54 21.44-9.218 32.472M361.183 138.419c1.891 12.422 2.368 24.991 2.18 37.464 1.151 3.87 2.875 6.879 5.023 8.925 1.998 1.903 4.454 2.974 7.201 3.093 1.946.083 4.173-1.095 6.23-3.237 2.325-2.422 4.24-5.922 5.314-10.25a8.909 8.909 0 1 1 16.56-1.856q.155.494.248 1.014c.82 4.507 2.665 8.157 5.115 10.69 2.206 2.28 4.894 3.615 7.669 3.745 2.41.113 4.558-.679 6.319-1.97 2.293-1.68 3.968-4.13 4.823-6.625a8.4 8.4 0 0 1 2.703-3.87 65 65 0 0 0-.263-6.115c-1.357-14.946-7.813-28.058-18.06-38.022-10.485-10.194-25.022-17.194-42.272-19.659a101 101 0 0 0-15.67-.986c3.28 9.164 5.471 18.406 6.88 27.659M268.423 204.76c-7.983.142-16.145-2.363-22.83-6.816a39.4 39.4 0 0 1-5.234-4.162 31 31 0 0 1-2.96 3.257c-4.984 4.748-11.16 7.42-18.11 7.72-6.896.298-13.714-2.758-19.122-8.392a33 33 0 0 1-1.624-1.823 32 32 0 0 1-1.35 1.486c-5.177 5.35-11.821 8.5-18.974 8.836a26.2 26.2 0 0 1-10.197-1.515c1.527 7.233 2.888 13.327 4.301 19.273 1.971 8.291 3.994 16.14 6.634 26.082h118.128v.049l118.082-.005c2.889-10.84 4.993-18.906 6.72-26.129 1.338-5.592 2.69-11.665 4.293-19.29-3.125 1.135-6.558 1.709-10.25 1.535-7.153-.337-13.798-3.486-18.975-8.836a32 32 0 0 1-1.35-1.486 33 33 0 0 1-1.624 1.823c-5.407 5.634-12.225 8.69-19.121 8.393-6.95-.3-13.127-2.973-18.11-7.721a31 31 0 0 1-2.96-3.257 39.4 39.4 0 0 1-5.235 4.162c-6.684 4.452-14.847 6.958-22.83 6.816-7.463-.132-14.868-2.037-21.553-6.505a39.5 39.5 0 0 1-7.098-6.096 39.5 39.5 0 0 1-7.098 6.096c-6.684 4.468-14.09 6.373-21.553 6.505m-11.108 16.522c0-5.73 5.5-9.077 10.99-9.05 3.813.018 7.868 2.596 10.638 5.213l-4.637 4.494c-1.668-1.5-3.61-3.098-5.914-3.098-1.296 0-2.917.445-2.917 2.018q0 .944 1.153 1.673c.77.487 2.21 1.1 4.332 1.803 4.581 1.518 8.272 3.529 8.272 8.991 0 5.944-6.24 9.065-10.941 9.16-5.683.115-10.615-2.604-13.412-6.405l5.309-4.308c1.908 2.27 4.657 4.641 7.569 4.641 1.497 0 4.195-.861 4.248-2.851.046-1.716-4.687-2.742-5.938-3.155-4.73-1.563-8.752-4.233-8.752-9.126m27.382 20.78V212.66h9.448c9.515 0 16.787 4.404 16.787 14.722 0 10.292-7.312 14.68-16.787 14.68zm32.166 0V212.66h10.056c6.882 0 12.216 3.88 12.216 11.2 0 6.248-5.733 9.738-12.189 9.738h-2.438l-.026 8.463z" style="fill:#ba0c34;fill-rule:evenodd"></path><path d="M292.534 219.7v15.323h1.829c5.158 0 8.635-2.06 8.635-7.634 0-5.6-3.438-7.69-8.635-7.69zM324.482 219.485l.026 7.845h2.438c2.852 0 4.459-1.48 4.405-3.949-.05-2.332-2.375-3.896-4.432-3.896z" style="fill:#ba0c34;fill-rule:evenodd"></path><path d="M288.586 522.895a78.2 78.2 0 0 0-35.318 12.186l.194.09c-8.898 19.286-11.019 37.001-7.952 53.227 3.233 17.101 12.253 32.707 25.196 46.87 9.765-6.41 17.054-16.468 21.52-30.214-11.552-12.559-17.246-26.974-17.367-41.764-.11-13.635 4.542-27.49 13.727-40.395" style="fill:#e2be29;fill-rule:evenodd"></path><path d="M236.818 590.026c-2.602-13.761-1.873-28.41 2.966-43.969-14.253 14.458-23.061 34.342-23.392 56.145-.005.323.007.139.007 1.296 0 14.488 3.807 28.086 10.475 39.85 13.796 1.554 25.8.287 35.76-3.828-13.181-14.875-22.385-31.34-25.817-49.494zM284.208 555.594c20.141-3.635 38.78-2.676 55.522 3.293 13.298 4.742 25.35 12.616 35.954 23.825-3.628-13.83-10.887-26.192-20.753-36.058-14.065-14.065-33.413-23.06-55.079-24.029l.06.05c-8.812 10.482-14.103 21.738-15.704 32.92" style="fill:#e2be29;fill-rule:evenodd"></path><path d="M336.786 567.233c-15.831-5.645-33.657-6.357-53.062-2.562.45 11.97 5.285 23.69 14.714 34.076 16.022-3.167 32.103-.887 45.863 7.044 11.004 6.343 20.472 16.265 27.169 29.86a81.3 81.3 0 0 0 6.744-36.05c-11.631-16.07-25.576-26.717-41.428-32.368" style="fill:#e2be29;fill-rule:evenodd" data-source="https://football-logos.cc"></path><path d="M274.036 643.628c-11.201 6.843-24.966 9.866-40.943 9.108a81 81 0 0 0 7.01 7.992 81.2 81.2 0 0 0 20.996 15.159c20.469-2.443 36.52-8.84 49.035-19.536 12.167-10.4 21.142-24.974 27.722-44.026-11.206-5.82-24.104-7.45-37.046-5.033-5.315 16.677-14.4 28.775-26.774 36.336" style="fill:#e2be29;fill-rule:evenodd"></path><path d="M315.883 663.07c-10.539 9.007-23.208 15.252-38.43 18.902a81 81 0 0 0 19.88 2.46c22.276 0 42.387-9.071 56.99-23.673a82.2 82.2 0 0 0 11.907-15.087c-4.896-12.516-12.11-21.987-20.711-28.5-7.04 19.605-16.651 34.799-29.636 45.898" style="fill:#e2be29;fill-rule:evenodd"></path><path d="M82.105 325.809c-3.077 39.124-2.958 75.236.732 109.116 4.045 37.136 12.41 71.56 25.6 104.322 18.877 46.888 45.276 93.226 79.617 136.85C218.23 714.428 254.49 750.6 297.11 783.136c43.871-33.09 80.719-69.04 111.3-108.052 32.507-41.47 58.032-86.462 77.477-135.209 13.436-33.68 22.356-68.393 26.586-105.562 3.837-33.727 3.796-69.542-.257-108.506-80.64.29-152.38.437-215.206.437-62.747 0-134.387-.146-214.904-.436M54.85 437.899c-4.284-39.324-3.98-81.455.374-127.509l1.209-12.774 12.786.047c66.144.247 142.038.372 227.79.372 85.753 0 161.647-.125 227.791-.372l12.464-.046 1.53 12.387c5.671 45.904 6.165 87.867 1.667 127.395-4.51 39.629-14.059 76.736-28.459 112.834-20.451 51.268-47.283 98.57-81.445 142.151-34.168 43.587-75.574 83.393-125.162 119.656l-8.347 6.105-8.347-6.16c-48.418-35.732-89.23-75.843-122.793-118.478-35.983-45.708-63.701-94.405-83.584-143.792-14.17-35.196-23.147-72.09-27.474-111.815" style="fill:#e2be29;fill-rule:evenodd"></path><path d="m247.383 528.336-13.67-107.932 13.675-15.272v-34.73l-8.477-11.096-8.085 11.096v13.381h-12.688v-13.381l-8.163-11.115-8.164 11.115v13.381h-12.688v-13.381l-8.207-11.115-8.326 11.115v34.751l12.902 15.252-25.394 200.24h32.101V590.71c0-9.53 7.819-17.847 17.348-17.847h.53q1.351.001 2.65.217c4.459-12.658 11.63-24.031 20.847-33.35a88.5 88.5 0 0 1 13.81-11.393M248.175 450.747l9.205 71.837c11.61-5.693 24.694-8.895 38.636-8.895.256 0 .172.009 1.369.027 13.667.207 26.552 3.291 38.066 8.66l9.484-71.629-9.59-11.942-10.577 11.942v12.742h-16.37v-12.742l-11.226-11.516-11.09 11.516v12.742h-16.37v-12.742l-10.178-11.622zM359.78 420.405 346.106 528.24a90.2 90.2 0 0 1 15.093 12.145c9.146 9.145 16.274 20.23 20.72 32.589q.945-.113 1.918-.113h.53c9.53 0 17.308 8.317 17.308 17.847v29.937h31.69l-25.362-200.241 13.675-15.273v-34.73l-8.477-11.096-8.085 11.096v13.381h-12.688v-13.381l-8.163-11.115-8.164 11.115v13.381h-12.688v-13.381l-8.207-11.115-8.326 11.115v34.751z" style="fill:#e2be29;fill-rule:evenodd"></path><path d="m408.002 420.405 25.361 200.24h-31.69V590.71c0-9.53-7.778-17.847-17.308-17.847h-.529q-.973 0-1.918.113c3.426 9.524 5.26 19.805 5.197 30.54-.143 24.728-10.243 47.23-26.525 63.512-16.204 16.204-38.527 26.271-63.257 26.271a70 70 0 0 1-.793-.004V782.7l.57.435c43.87-33.089 80.717-69.04 111.298-108.051 32.508-41.47 58.033-86.463 77.478-135.21 13.436-33.68 22.356-68.392 26.586-105.56 3.837-33.728 3.796-69.543-.257-108.507-80.64.29-152.38.436-215.206.436h-.47v113.644l.633-.656 11.227 11.516v12.742h16.368v-12.742l10.577-11.942 9.59 11.942-9.484 71.629a91 91 0 0 1 10.655 5.865l13.676-107.836-12.902-15.252v-34.751l8.326-11.115 8.207 11.115v13.381H376.1v-13.381l8.164-11.115 8.163 11.115v13.381h12.688v-13.381l8.085-11.096 8.477 11.096v34.73z" style="fill:#fff;fill-rule:evenodd"></path><path d="M288.586 522.895a78.2 78.2 0 0 0-35.318 12.186l.194.09c-8.898 19.286-11.019 37.001-7.952 53.227 3.233 17.101 12.253 32.707 25.196 46.87 9.765-6.41 17.054-16.468 21.52-30.214-11.552-12.559-17.246-26.974-17.367-41.764-.11-13.635 4.542-27.49 13.727-40.395m-128.488 97.75 25.394-200.24-12.902-15.252v-34.751l8.326-11.115 8.207 11.115v13.381h12.688v-13.381l8.164-11.115 8.163 11.115v13.381h12.688v-13.381l8.084-11.096 8.478 11.096v34.73l-13.675 15.273 13.67 107.931q.897-.598 1.81-1.174a88.4 88.4 0 0 0-15.62 12.567c-9.408 9.511-16.684 21.163-21.12 34.137q.135-.395.273-.787a16 16 0 0 0-2.65-.217h-.529c-9.53 0-17.348 8.318-17.348 17.847v29.937zm93.72-96.21.031-.018c12.462-6.834 26.793-10.728 42.167-10.728.255 0 .172.009 1.369.027 25.142.382 47.64 10.497 63.814 26.67 16.193 16.193 26.06 38.463 25.916 63.13-.143 24.727-10.243 47.23-26.525 63.511-16.204 16.204-38.527 26.271-63.257 26.271q-.475 0-.949-.006l.156.002V782.7c-42.374-32.423-78.445-68.443-108.486-106.603-34.341-43.624-60.74-89.962-79.617-136.85-13.19-32.761-21.555-67.186-25.6-104.322-3.69-33.88-3.809-69.992-.732-109.117 80.316.29 151.8.435 214.435.436v113.644l-10.459 10.859v12.742h-16.368v-12.742l-10.18-11.622-11.358 11.622 9.205 71.837zm44.62 74.312c16.022-3.167 32.103-.887 45.863 7.044 11.004 6.343 20.472 16.265 27.169 29.86a81.3 81.3 0 0 0 6.744-36.05c-11.631-16.07-25.576-26.717-41.428-32.368-15.832-5.645-33.657-6.357-53.062-2.562.45 11.97 5.285 23.69 14.714 34.076m-14.23-43.153c20.141-3.635 38.78-2.676 55.522 3.293 13.298 4.742 25.35 12.616 35.954 23.825-3.628-13.83-10.887-26.192-20.753-36.058-14.065-14.065-33.413-23.06-55.079-24.029l.06.05c-8.812 10.482-14.103 21.738-15.704 32.92m-21.573 83.926c-13.182-14.875-22.386-31.34-25.817-49.494-2.602-13.761-1.873-28.41 2.966-43.969-14.253 14.458-23.061 34.342-23.393 56.145-.005.323.007.139.007 1.296 0 14.488 3.808 28.086 10.475 39.85 13.797 1.554 25.802.287 35.762-3.828zm-29.542 13.216a81 81 0 0 0 7.01 7.992 81.2 81.2 0 0 0 20.996 15.159c20.469-2.443 36.52-8.84 49.035-19.536 12.167-10.4 21.142-24.974 27.722-44.026-11.206-5.82-24.104-7.45-37.046-5.033-5.315 16.677-14.4 28.775-26.774 36.336-11.201 6.843-24.966 9.866-40.943 9.108m112.426-35.564c-7.04 19.605-16.651 34.799-29.636 45.898-10.539 9.007-23.208 15.252-38.43 18.902a81 81 0 0 0 19.88 2.46c22.276 0 42.387-9.071 56.99-23.673a82.2 82.2 0 0 0 11.907-15.087c-4.896-12.515-12.11-21.987-20.711-28.5" style="fill:#003778;fill-rule:evenodd" data-source="https://football-logos.cc"></path><!-- source: https://football-logos.cc --></svg>