<svg xmlns="http://www.w3.org/2000/svg" viewBox="165.77 0 1441.61 1773"><!-- Source: https://football-logos.cc --><path fill-rule="evenodd" d="M166.42 0q26.36 42.71 37.53 58.28 6.35 8.86 20.02 23.49c10.83 11.6 22.18 20.19 35.52 29.59q5.41 3.81 17.71 10.29 13.73 7.25 25.46 10.93 15.85 4.97 25.1 6.63c21.96 3.93 44.02 4.79 66.05.18q29.48-6.18 56.8-20.87c15.54-8.35 30.93-20.8 43.56-32.85 18.19-17.35 32.53-38.82 44.76-60.74a.34.332-50.613 0 1 .55-.06c12.31 14.47 25.47 30.02 40.59 43.66 15.79 14.24 30.54 26.25 47.43 37.02 28.64 18.27 59.88 33.59 92.28 44.61q16.55 5.63 23.38 7.65 6.29 1.86 24.53 6.57c39.38 10.18 80.15 14.56 122.56 14.38q42.67-.18 80.22-6.7 21.09-3.65 45.33-10.33 26.4-7.26 44.37-13.86 23.58-8.67 49.89-21.89 24.49-12.3 42.81-25.24 21.93-15.5 39.08-30.81c14.92-13.31 28.28-28.8 41.78-44.99a.695.69 52.642 0 1 1.16.16q1.9 4.09 4.18 7.83 7.11 11.64 14.15 22.03c4.5 6.63 10.27 13.53 15.11 19.44q5.44 6.64 13.69 14.12 12.17 11.02 25.72 20.61c8.69 6.15 16.2 10.04 25.89 14.98 12.55 6.41 26.09 10.37 39.99 13.81q6.69 1.65 13.88 2.61 11 1.48 14.02 1.66 23.05 1.44 43.49-2.72 29.95-6.1 58.37-21.34 7.52-4.04 16.86-10.89 29.61-21.72 50.48-51.02 14.51-20.37 24.73-37.99 4.12-7.11 10.57-17.72a.733.733-29.378 0 1 1.36.38q-.18 616.85-.07 1093.11c.02 62.41-7.86 123.07-24.57 183.36-3.49 12.6-8.71 28.47-12.8 40.37q-12.44 36.26-29.01 70.46-5.08 10.49-14.66 29.09-4.45 8.65-19.26 32.99-6.54 10.76-15.68 23.95-14.78 21.33-16.4 23.47-26.81 35.64-58.05 68.29c-4.18 4.37-8.18 7.82-11.8 11.77q-3.27 3.57-8.89 8.78-19.96 18.51-32.48 28.92-19.72 16.4-49.33 37.43-17.37 12.34-43.78 27.95-25.44 15.05-42 22.75-30.35 14.11-37.41 17.08-114.74 48.22-239.7 51.82-6.69.19-13.38.52H836.03c-35.7-.92-71.39-3.67-106.57-9.75q-38.89-6.72-73.13-16.39-29.04-8.19-60.57-20.65-77.57-30.65-141.74-76.77c-6.3-4.53-11.74-8.01-17.06-12.06q-17.46-13.3-31.25-25.08-8.98-7.68-29.34-26.44c-5.36-4.94-10.13-10.1-15.22-15.18q-14.13-14.11-30.08-32.5c-25.58-29.51-46.59-58.31-66.97-91.43-6.45-10.49-11.84-20.83-18.19-31.87q-2.06-3.58-11.97-22.99-5.73-11.21-10.37-23.02c-.92-2.34-2.5-5.06-3.44-7.26q-31.56-74.28-45.42-154.11-2.07-11.91-5.17-41.74-3.78-36.38-3.77-71.5.11-385.8.15-1013.01.01-57.02-.13-81.25zm28.86 95.78c.23 13.25-.34 23.31-.22 36.3q.24 26.49.15 73.42-.25 131.21-.13 305.5.14 206.48.32 413 .08 86.92-.03 128.93-.14 59.77.46 71.65 2.01 39.97 6.9 71.29 17.07 109.47 71.88 210.75c11.58 21.4 24.64 41.12 38.7 62.08q5.16 7.7 10.65 14.63a.793.788 48.789 0 0 1.16.08q1.78-1.67 3.97-4.31c6.35-7.62 12.96-17.49 20.19-26.85q12.18-15.8 32.7-43.29 17.32-23.19 36.97-49.63c8.83-11.88 20.69-26.98 29.16-38.47 12.34-16.71 25.12-33.27 36.64-48.69q36.43-48.74 57.49-76.4 2.69-3.54 5.41-7.16 19.14-25.45 55.13-73.34 12.24-16.28 25.09-33.36 19.03-25.28 63.1-84.19c8.85-11.82 16.3-21.12 23.81-31.5q11.06-15.32 29.49-39.24 4.82-6.26 16.65-22.09c10.37-13.86 18.23-24.74 27.1-35.9 6.76-8.5 11.98-16.19 19.49-26.14q29-38.42 57.8-76.82l7.14-9.55q20.36-27.28 40.84-54.23 3.23-4.25 5.65-7.54 18.9-25.65 37.77-50.24.8-1.04 22.36-29.75 3.86-5.14 8.4-11.36c7.21-9.88 14.62-19.09 21.37-28.1q22.86-30.52 47.33-62.83 19.16-25.3 20.05-26.48 13.01-17.29 59.03-78.47 1.4-1.87 2.75-3.69 12.17-16.46 22.29-29.76c14-18.41 25.91-34.73 40.15-53.19q8.11-10.51 19.66-25.99 54.42-72.98 106.27-141.14a.455.453 31.294 0 0-.17-.69q-14.31-6.67-27.98-15.49c-14.58-9.39-28.03-19.38-40.28-32.21q-10.34-10.84-12.96-13.56c-5.27-5.49-9.78-11.52-14.34-17.42a1.223 1.22 48.664 0 0-1.83-.12q-20.16 20.34-41.96 37.39c-11.77 9.21-24.66 17.38-37.09 25.15q-18.59 11.63-36.56 19.95c-10.65 4.93-22.92 10.49-33.76 14.7-26.52 10.3-54.35 18.23-81.52 24.36q-18 4.06-40.94 7.1-38.11 5.05-75.68 4.87-19.02-.1-42.54-2.36c-25.29-2.43-49.04-6.02-73.26-11.94q-22.37-5.47-45.39-12.81-46.59-14.87-87.8-38.47-9.88-5.65-25.62-16.09-22.47-14.9-40.77-31.48-11.38-10.31-21.93-20.77a.761.754 41.201 0 0-1.13.07q-4.37 5.65-9.63 12.09-29.5 36.17-70.85 58.89-30.45 16.72-63.47 22.92-22.06 4.14-41.15 3.39-20.15-.79-33.75-3.25-25.51-4.64-54.23-17.68-9.17-4.16-18.41-9.87-16.96-10.49-31.41-22.85-2.63-2.24-15.73-14.08c-2.92-2.65-5.32-5.61-8.37-7.96a.36.359-71.47 0 0-.58.29m1265.8 288.04c12.58-16.1 19.15-34.19 21.01-54.9 2.37-26.37-3.63-57.77-20.7-78.01-14.42-17.09-34.71-25.96-57.11-27.87q-20.88-1.78-39.65 3.05c-21.69 5.59-41.35 21.14-50.78 41.52q-6.55 14.14-8.99 31.65c-3.98 28.64.69 59.97 18.99 82.86 10.94 13.67 27.48 23.74 44.36 27.37q14.68 3.15 30.81 2.7c22.91-.64 47.63-9.89 62.06-28.37m115.66-64.04q-1.9 1.84-3.66 4.3-11.22 15.66-29.59 39.92-16.59 21.92-32.95 43.81-53.23 71.22-61.36 81.88-13.68 17.94-25.13 33.13-31.09 41.29-42.04 56.38c-9.76 13.47-22.64 29.21-32.47 42.83-12.37 17.14-26.02 34.43-37.79 50.54q-10.01 13.71-33.99 45.44-42.45 56.19-47.99 63.74-3.67 5.01-7.16 9.63-31.77 42.01-34.1 45.13-18.81 25.17-28.11 37.38-15.11 19.84-27.97 37.48c-12.25 16.81-25.6 33.64-40.28 53.67q-9.15 12.49-18.5 24.82-38.41 50.68-39.49 52.07-4.13 5.31-20.32 27.24c-15 20.33-25.97 34.26-39.23 52.45-14.95 20.51-35.01 45.9-51.25 68.02q-7.76 10.56-17.74 23.54c-14.19 18.45-26.59 35.39-39.82 52.74q-11.98 15.7-22 29.22-24.6 33.17-41.24 54.94c-4.01 5.25-6.93 9.76-10.58 14.3q-3.04 3.81-8.09 10.59-8.02 10.79-16.16 21.48-10 13.14-31.75 41.82-10.39 13.68-24.48 32.76-2.32 3.15-8.75 11.69c-22.07 29.3-39.59 52.33-60.54 80.45q-20.79 27.92-31.49 42.02-12.14 16.01-23.7 31.15c-11.9 15.58-20.4 27.78-30.38 40.18a.613.606 32.607 0 0 .21.93q34.01 16.63 70.85 29.79c7.42 2.65 16.63 5.39 21.77 7.18q7.99 2.79 16.42 5.06 27.28 7.35 48.84 11.81 37.33 7.72 81.9 10.88 29.74 2.11 65.87 2.23 45.69.15 51.24.15 33.6 0 70.87-2.98 53.91-4.32 106-17.22c6.17-1.53 12.41-3.62 17.39-4.95 8.63-2.3 19.44-6.47 27.43-8.72 6.01-1.7 12.37-4.31 21.01-7.24q7.31-2.49 32.15-12.83c3.59-1.49 9.42-4.76 14.34-6.95q9.93-4.42 15.77-7.47 8.54-4.46 10.26-5.28 7-3.33 10.29-5.2 25.68-14.58 38.27-22.95 28.62-19.05 39.06-26.93 24.15-18.24 50.57-41.98 23.27-20.93 46.19-46.72 33.96-38.22 61.37-80.28 7.19-11.04 13.35-21.75 10.2-17.74 12.59-22.22 8.23-15.4 17.27-34.76 9.48-20.29 15.35-35.64 12.27-32.12 20.16-59.49 11.65-40.37 17.97-85.25 3.55-25.22 5.33-52.75 1.13-17.59 1.11-52.99-.13-202.93-.19-761.84a.536.534-22.245 0 0-.91-.38M1176.6 516.59a.531.527-63.567 0 1 .97-.33q6.42 10.04 11.7 18.16 25.69 39.54 54.27 83.29c3.63 5.55 9.08 13.72 13.05 17.97q8.46 9.04 21.88 7.56c13.65-1.51 16.66-13.05 16.66-24.74q-.01-59.48-.09-139.75c0-8.56-1.13-16.24-8.64-21.27q-4.21-2.83-10.3-2.31c-11.78 1.01-15.26 10.62-15.3 21.08q-.12 26.04.13 67.75c.06 9.97-.36 23.54-.26 32q.03 3.33.5 6.25a.575.555 88.283 0 1-.6.66q-.24-.02-.58-.37c-2.1-2.11-4.57-7.13-6.42-9.92-13.64-20.68-26.37-40.75-40.78-62.12q-4.63-6.86-17.73-27.73-3.48-5.55-12.84-18.95-4.64-6.64-11.91-8.28c-6.58-1.48-14.84-.24-20.27 4.14-7.37 5.94-7.47 14.66-7.51 23.57q-.14 28.25-.06 133.4c.01 4.63-.22 9.82.86 13.86q2.74 10.33 12.23 12.33 7.13 1.51 12.66-1.53c7.56-4.14 8.67-14.31 8.68-22.44q.01-9.03-.13-99.62 0-.15-.17-2.66m-163.81 304.03h72.79a1.086 1.069 79.148 0 1 1 .69q9.45 24.63 12.86 32.54 2.4 5.58 4.89 8.33c6 6.63 17.65 6.44 23.98.63 7.89-7.22 6.34-16.74 2.94-25.81q-5.77-15.4-12.63-32.08c-4.64-11.29-14.26-35.66-27.12-67.05q-3.43-8.35-14.21-35.77c-1.45-3.68-3.5-8.23-4.94-10.84-5.22-9.47-16.72-13.65-27.13-12.26-7.74 1.04-14.05 4.93-18.33 11.98q-3.5 5.77-4.66 9.02-4.71 13.25-8.15 21.87c-6.39 16-11.31 29.63-16.19 41.49-6.41 15.58-11.44 29.81-17.41 44.36-4.1 10-7 19.4-11.98 30.82q-3.24 7.43-2.1 14.73c1.53 9.8 11.18 15.15 21.01 13.62 6.61-1.02 9.92-6.43 12.26-12.22q7.17-17.82 12.56-33.64a.588.587-81.201 0 1 .56-.41M821.48 953.11a.27.269-68.533 0 1 .48-.21q.55.75 1 2.52 13.66 53.64 18.03 70.78 2.2 8.62 12.69 49.6c2.9 11.31 7 22.11 20.59 22.97q7.56.48 13.82-3.25c4.81-2.86 7.72-10.08 8.98-15.22 2.3-9.41 5.84-21.13 8.32-31.5 4.89-20.45 12.33-47.96 18.53-73.52q4.45-18.33 5.25-21.13.16-.56.54-.87a.368.365-19.76 0 1 .6.28q-.14 61.19-.1 119.44c.01 7.36.12 13.39 3.94 19.11 5.46 8.19 19.25 8.13 25.38.84 4.35-5.18 4.3-11.43 4.3-18.2q-.09-120.05-.04-137.24.03-8.52-.78-11.31c-3.36-11.6-13.06-13.54-23.75-13.55q-9.92 0-15.23.24c-7.24.33-15.76 4.4-17.8 11.87-3.22 11.73-6.32 22.42-9.62 35.2q-8.42 32.59-18.55 69.1-.74 2.69-1.38 6.85a.32.317-54.171 0 1-.6.1c-1.23-2.48-1.55-5.43-2.25-7.85q-3.39-11.65-3.98-14.02-9.15-37.02-20.61-77.88c-1.47-5.27-2.69-10.47-4.97-14.94-2.64-5.2-9.21-7.95-14.77-8.39q-1.64-.13-14.68-.2-10.59-.06-14.53 1.3c-11.97 4.15-12.21 14.13-12.2 26.38q.03 88.51.16 139.59.02 7.53 3.73 12.47c5.46 7.27 16.24 8.04 23.58 2.17 4.04-3.24 5.99-10.23 6.07-15.01q.35-20.95.1-56.17c-.1-13.66.5-28.88 0-41.82q-.23-5.97-.15-14.28.13-12.95-.1-14.25m-156.76 330.52h72.93a1.028 1.027 80.403 0 1 .97.69q7.08 20.02 13.25 34.06c3.32 7.54 7.83 12.92 16.72 12.42 6.11-.35 11.76-3.42 14.88-8.92 3.5-6.16 2.54-13.39-.2-20.4q-9.33-23.92-16.79-42.06c-6.29-15.27-13.15-34.18-18.34-46.85q-9.72-23.68-19.32-47.94c-2.27-5.73-4.56-10.5-7.99-14.71-6.78-8.32-18.99-10.39-28.86-7.19q-7.72 2.49-11.05 7.72-4.46 7-5.72 10.26-11.14 28.96-25.17 64.39c-6.49 16.38-12.91 34.26-19.74 50.88q-.86 2.08-8.51 21.31-3.14 7.89-4.15 12.79c-3.42 16.5 19.17 28.53 29.77 14.79 2.32-3.01 4.77-9.52 5.88-12.32q4.63-11.61 10.57-28.31a.925.923 9.892 0 1 .87-.61m-187.27 193.38c-3.67 1.89-6.94 5.8-7.65 9.78-2.39 13.33 3.75 26.77 12.63 36.56q11.82 13.02 29.09 18.18 13.16 3.93 23.02 4.02c9.85.08 17.11-.01 26.74-1.5q13.84-2.15 25.92-9.31 9.96-5.91 17.01-15.97c8.78-12.51 10.11-26.57 8.3-41.56-1.62-13.36-10.15-25.33-22.11-32.13q-9.18-5.21-15.88-7.75-5.71-2.16-16.96-4.86-17.58-4.22-31.43-8.82-8.61-2.86-14.22-8.31c-6.65-6.46-5.92-17.55.93-23.55q6.94-6.08 16.44-7.99c14.99-3 32.35.27 40.67 14.04q1.96 3.25 5.07 9.45c2.3 4.61 4.61 8.68 9.17 10.2 7.65 2.54 16.52-.39 20.18-8.05 8.34-17.46-9.3-37.85-24.25-44.91q-14.94-7.07-28.53-8.1c-18.73-1.41-35.74.29-52.51 8.93q-12.27 6.31-18.5 16.13-10.84 17.09-6.28 38.38c3.05 14.24 14.3 25.01 27.35 30.57 14.96 6.37 26.28 9.02 44.58 13.61 11.22 2.81 26.91 8.59 29.68 20.53q4.04 17.39-10.49 26.84c-7.51 4.88-16.1 6.2-25.1 6.31q-8.95.11-15.21-2.06-13.67-4.75-19.55-18.95-1.85-4.45-4.21-10.41-5-12.66-18.35-10.88-3.34.44-5.55 1.58" data-source="https://football-logos.cc"></path><path fill="#f76706" fill-rule="evenodd" d="M195.28 95.78a.36.359-71.47 0 1 .58-.29c3.05 2.35 5.45 5.31 8.37 7.96q13.1 11.84 15.73 14.08 14.45 12.36 31.41 22.85 9.24 5.71 18.41 9.87 28.72 13.04 54.23 17.68 13.6 2.46 33.75 3.25 19.09.75 41.15-3.39 33.02-6.2 63.47-22.92 41.35-22.72 70.85-58.89 5.26-6.44 9.63-12.09a.761.754 41.201 0 1 1.13-.07q10.55 10.46 21.93 20.77 18.3 16.58 40.77 31.48 15.74 10.44 25.62 16.09 41.21 23.6 87.8 38.47 23.02 7.34 45.39 12.81c24.22 5.92 47.97 9.51 73.26 11.94q23.52 2.26 42.54 2.36 37.57.18 75.68-4.87 22.94-3.04 40.94-7.1c27.17-6.13 55-14.06 81.52-24.36 10.84-4.21 23.11-9.77 33.76-14.7q17.97-8.32 36.56-19.95c12.43-7.77 25.32-15.94 37.09-25.15q21.8-17.05 41.96-37.39a1.223 1.22 48.664 0 1 1.83.12c4.56 5.9 9.07 11.93 14.34 17.42q2.62 2.72 12.96 13.56c12.25 12.83 25.7 22.82 40.28 32.21q13.67 8.82 27.98 15.49a.455.453 31.294 0 1 .17.69q-51.85 68.16-106.27 141.14-11.55 15.48-19.66 25.99c-14.24 18.46-26.15 34.78-40.15 53.19q-10.12 13.3-22.29 29.76-1.35 1.82-2.75 3.69-46.02 61.18-59.03 78.47-.89 1.18-20.05 26.48-24.47 32.31-47.33 62.83c-6.75 9.01-14.16 18.22-21.37 28.1q-4.54 6.22-8.4 11.36-21.56 28.71-22.36 29.75-18.87 24.59-37.77 50.24-2.42 3.29-5.65 7.54-20.48 26.95-40.84 54.23l-7.14 9.55q-28.8 38.4-57.8 76.82c-7.51 9.95-12.73 17.64-19.49 26.14-8.87 11.16-16.73 22.04-27.1 35.9q-11.83 15.83-16.65 22.09-18.43 23.92-29.49 39.24c-7.51 10.38-14.96 19.68-23.81 31.5q-44.07 58.91-63.1 84.19-12.85 17.08-25.09 33.36-35.99 47.89-55.13 73.34-2.72 3.62-5.41 7.16-21.06 27.66-57.49 76.4c-11.52 15.42-24.3 31.98-36.64 48.69-8.47 11.49-20.33 26.59-29.16 38.47q-19.65 26.44-36.97 49.63-20.52 27.49-32.7 43.29c-7.23 9.36-13.84 19.23-20.19 26.85q-2.19 2.64-3.97 4.31a.793.788 48.789 0 1-1.16-.08q-5.49-6.93-10.65-14.63c-14.06-20.96-27.12-40.68-38.7-62.08q-54.81-101.28-71.88-210.75-4.89-31.32-6.9-71.29-.6-11.88-.46-71.65.11-42.01.03-128.93-.18-206.52-.32-413-.12-174.29.13-305.5.09-46.93-.15-73.42c-.12-12.99.45-23.05.22-36.3M722.1 628.45l.23.84a2.586 2.438-53.62 0 1 .09.74q-.3 8.63-.2 10.97c.36 9.05 7.94 11.38 15.43 9.41q6.31-1.66 6.58-7.91.21-4.99.15-12.81a2.05 2.05-7.548 0 1 1.54-2.01q3.85-1 6.65-2.08 1.54-.59 8.99-5.58c10.34-6.91 15.96-20.78 18.18-32.54 4.08-21.52 4.32-44.2 2.45-66.23q-1.84-21.56-5.04-39.99c-4.77-27.45-8.92-51.49-14.13-77.1q-5.43-26.71-6.17-30.8-2.69-14.76-6.27-30.79Q745.33 319 740.56 294c-1.3-6.78-2.5-11.85-10.36-9.72-1.72.47-2.63 2.5-2.93 4.02q-3.39 16.89-6 27.43-2.21 8.89-5.91 27.47-3.09 15.46-11.73 57.12-3.32 15.99-13.53 74.7-2.21 12.71-3.96 25.38-3.35 24.29-3.37 48.64c-.01 12.35 1.1 24.87 3.38 36.63q1.69 8.75 4.16 14.31c4.23 9.51 10.67 18 19.75 23.2q5.96 3.42 11.16 4.44a1.141 1.14-1.64 0 1 .88.83m-450.23 1.59q0 .49-.14 11.92-.08 6.49 5.22 8.61c2.91 1.16 12.04 1.65 14.65-1.96q1.9-2.65 1.99-4.89.22-5.78-.19-13.38a2.002 1.998 81.432 0 1 1.51-2.05c12.47-3.13 23.97-11.66 29.19-23.43q4.48-10.09 6.1-21.36c.73-5.05 1.88-12.47 2.18-19.21q1.17-26.42-1.31-49.16-2.84-26.11-5.85-43.39-2.23-12.82-2.52-14.67-1.3-8.39-2.54-14.65-3.95-19.89-12.26-61.55-4.28-21.43-8.47-39.4c-2.67-11.44-4.64-25.21-7.55-36.76q-2.25-8.92-3.46-14.86c-1.49-7.35-10.79-8.08-12.3-.46-1.88 9.52-4.19 19.54-5.93 28.33q-5.96 30.18-11.46 55.79c-3.56 16.54-6.02 31.01-9.09 46.16q-9.6 47.36-15.5 96.6-2.78 23.25-1.44 46.75c.74 13.19 2.51 27.23 8.11 39.54 6.22 13.67 15.69 22.17 29.95 26.03a1.498 1.485 7.807 0 1 1.11 1.45m248.25 359.88c19.37-4.57 29.45-17.97 33.74-37.19q2.66-11.89 3.34-24.24c1.81-32.87-2.58-65.93-7.98-97.99-3.94-23.43-6.85-41.2-10.62-58.03q-1.04-4.64-7.98-41.72c-2.3-12.29-5.66-24.95-7.5-34.56q-4.6-23.99-9.63-44.87-1.5-6.22-7.72-5.12c-3.11.54-3.89 3.16-4.51 6.04-6.64 30.39-13.73 63.39-19.72 95.1-2.19 11.55-4.39 21.03-6.15 31.8q-1.62 9.91-4.45 23.89c-4.42 21.83-7.79 44.14-10.56 67.73q-1.52 12.98-2.21 32.73c-.7 19.86.29 40.28 7.15 58.7q8.21 22.09 30.35 28.27a1.921 1.907 10.484 0 1 1.4 2.02q-.56 6.11.24 12.85.63 5.37 4.95 7.23c3.56 1.54 11.31 1.68 14.25-1.81q1.93-2.29 2.15-5.64.34-5.39.16-13.51a1.694 1.672-7.632 0 1 1.3-1.68"></path><path fill="#fff" fill-rule="evenodd" d="M1461.08 383.82c-14.43 18.48-39.15 27.73-62.06 28.37q-16.13.45-30.81-2.7c-16.88-3.63-33.42-13.7-44.36-27.37-18.3-22.89-22.97-54.22-18.99-82.86q2.44-17.51 8.99-31.65c9.43-20.38 29.09-35.93 50.78-41.52q18.77-4.83 39.65-3.05c22.4 1.91 42.69 10.78 57.11 27.87 17.07 20.24 23.07 51.64 20.7 78.01-1.86 20.71-8.43 38.8-21.01 54.9m-120.368-66.734c-.025 13.937 2.097 26.273 8.519 38.662q9.549 18.422 29.172 24.559 5.636 1.763 14.438 1.779t14.445-1.727q19.644-6.067 29.26-24.454c6.465-12.366 8.632-24.695 8.657-38.632s-2.097-26.273-8.519-38.662q-9.549-18.422-29.172-24.56-5.636-1.762-14.438-1.778T1378.629 254q-19.644 6.066-29.26 24.454c-6.466 12.366-8.632 24.695-8.657 38.632"></path><path fill-rule="evenodd" d="M1393.074 252.273q8.802.016 14.438 1.778 19.623 6.138 29.172 24.56c6.422 12.389 8.544 24.725 8.519 38.662s-2.192 26.266-8.657 38.632q-9.616 18.387-29.26 24.454-5.643 1.743-14.445 1.727t-14.438-1.779q-19.623-6.137-29.172-24.559c-6.422-12.389-8.544-24.725-8.519-38.662s2.191-26.266 8.657-38.632q9.616-18.388 29.26-24.454 5.643-1.743 14.445-1.727M722.1 628.45a1.141 1.14-1.64 0 0-.88-.83q-5.2-1.02-11.16-4.44c-9.08-5.2-15.52-13.69-19.75-23.2q-2.47-5.56-4.16-14.31c-2.28-11.76-3.39-24.28-3.38-36.63q.02-24.35 3.37-48.64 1.75-12.67 3.96-25.38 10.21-58.71 13.53-74.7 8.64-41.66 11.73-57.12 3.7-18.58 5.91-27.47 2.61-10.54 6-27.43c.3-1.52 1.21-3.55 2.93-4.02 7.86-2.13 9.06 2.94 10.36 9.72q4.77 25 10.02 48.57 3.58 16.03 6.27 30.79.74 4.09 6.17 30.8c5.21 25.61 9.36 49.65 14.13 77.1q3.2 18.43 5.04 39.99c1.87 22.03 1.63 44.71-2.45 66.23-2.22 11.76-7.84 25.63-18.18 32.54q-7.45 4.99-8.99 5.58-2.8 1.08-6.65 2.08a2.05 2.05-7.548 0 0-1.54 2.01q.06 7.82-.15 12.81-.27 6.25-6.58 7.91c-7.49 1.97-15.07-.36-15.43-9.41q-.1-2.34.2-10.97a2.586 2.438-53.62 0 0-.09-.74zm10.1-301.54q-1.84 10.51-3.97 19.06c-3.4 13.66-6.04 32.37-8.97 45.51q-4.64 20.89-7.77 39.96-1.26 7.7-6.25 34.74-6.47 34.96-8.72 70.08-1.27 19.88 1.64 38.93c1.93 12.66 4.07 22.55 11.87 31.76q3.52 4.15 6.79 5.28 13.6 4.7 29.78 1.28c10.42-2.2 16.3-14.73 18.63-24.02q2.46-9.83 2.65-11.07 2.69-17.26 2.1-35.42-.53-16.61-1.61-24.44-1.79-13.1-2.54-19.83-1.85-16.65-2.87-22.21c-1.94-10.61-3.27-16.52-4.43-25.98-1.45-11.73-5.22-25.23-7.32-36.72-3.32-18.14-5.91-33.45-10.08-51.39q-4.35-18.76-7.44-35.52a.758.755 44.897 0 0-1.49 0M271.87 630.04a1.498 1.485 7.807 0 0-1.11-1.45c-14.26-3.86-23.73-12.36-29.95-26.03-5.6-12.31-7.37-26.35-8.11-39.54q-1.34-23.5 1.44-46.75 5.9-49.24 15.5-96.6c3.07-15.15 5.53-29.62 9.09-46.16q5.5-25.61 11.46-55.79c1.74-8.79 4.05-18.81 5.93-28.33 1.51-7.62 10.81-6.89 12.3.46q1.21 5.94 3.46 14.86c2.91 11.55 4.88 25.32 7.55 36.76q4.19 17.97 8.47 39.4 8.31 41.66 12.26 61.55 1.24 6.26 2.54 14.65.29 1.85 2.52 14.67 3.01 17.28 5.85 43.39 2.48 22.74 1.31 49.16c-.3 6.74-1.45 14.16-2.18 19.21q-1.62 11.27-6.1 21.36c-5.22 11.77-16.72 20.3-29.19 23.43a2.002 1.998 81.432 0 0-1.51 2.05q.41 7.6.19 13.38-.09 2.24-1.99 4.89c-2.61 3.61-11.74 3.12-14.65 1.96q-5.3-2.12-5.22-8.61.14-11.43.14-11.92m10.37-302.9q-.49 1.15-.78 2.6-3.69 18.44-7.34 34.49c-2.83 12.42-4.03 21.06-6.53 35.24q-1.77 10.07-5.42 26.32-3.16 14.05-5.37 28.96-8 53.95-8.07 54.48c-3.05 21.75-4.28 45.82-1.11 68.01 1.12 7.86 3.86 16.23 6.51 22.14q1.26 2.81 4.98 7.81c7.28 9.8 16.2 8.9 29.11 8.52 10.37-.31 18.83-6.55 23.34-15.95q1.77-3.68 4.15-12.47c5.68-20.95 4.88-42.59 2.55-64.53q-3.43-32.24-6.5-50.26-4.13-24.17-9.1-48.96c-1.01-5.04-2.03-12.49-3.52-19.32q-5.19-23.81-9.64-46.77-3.29-16.96-6.49-30.24a.407.407 14.462 0 0-.77-.07"></path><path fill="#f76706" fill-rule="evenodd" d="M1576.74 319.78a.536.534-22.245 0 1 .91.38q.06 558.91.19 761.84.02 35.4-1.11 52.99-1.78 27.53-5.33 52.75-6.32 44.88-17.97 85.25-7.89 27.37-20.16 59.49-5.87 15.35-15.35 35.64-9.04 19.36-17.27 34.76-2.39 4.48-12.59 22.22-6.16 10.71-13.35 21.75-27.41 42.06-61.37 80.28-22.92 25.79-46.19 46.72-26.42 23.74-50.57 41.98-10.44 7.88-39.06 26.93-12.59 8.37-38.27 22.95-3.29 1.87-10.29 5.2-1.72.82-10.26 5.28-5.84 3.05-15.77 7.47c-4.92 2.19-10.75 5.46-14.34 6.95q-24.84 10.34-32.15 12.83c-8.64 2.93-15 5.54-21.01 7.24-7.99 2.25-18.8 6.42-27.43 8.72-4.98 1.33-11.22 3.42-17.39 4.95q-52.09 12.9-106 17.22-37.27 2.98-70.87 2.98-5.55 0-51.24-.15-36.13-.12-65.87-2.23-44.57-3.16-81.9-10.88-21.56-4.46-48.84-11.81-8.43-2.27-16.42-5.06c-5.14-1.79-14.35-4.53-21.77-7.18q-36.84-13.16-70.85-29.79a.613.606 32.607 0 1-.21-.93c9.98-12.4 18.48-24.6 30.38-40.18q11.56-15.14 23.7-31.15 10.7-14.1 31.49-42.02c20.95-28.12 38.47-51.15 60.54-80.45q6.43-8.54 8.75-11.69 14.09-19.08 24.48-32.76 21.75-28.68 31.75-41.82 8.14-10.69 16.16-21.48 5.05-6.78 8.09-10.59c3.65-4.54 6.57-9.05 10.58-14.3q16.64-21.77 41.24-54.94 10.02-13.52 22-29.22c13.23-17.35 25.63-34.29 39.82-52.74q9.98-12.98 17.74-23.54c16.24-22.12 36.3-47.51 51.25-68.02 13.26-18.19 24.23-32.12 39.23-52.45q16.19-21.93 20.32-27.24 1.08-1.39 39.49-52.07 9.35-12.33 18.5-24.82c14.68-20.03 28.03-36.86 40.28-53.67q12.86-17.64 27.97-37.48 9.3-12.21 28.11-37.38 2.33-3.12 34.1-45.13 3.49-4.62 7.16-9.63 5.54-7.55 47.99-63.74 23.98-31.73 33.99-45.44c11.77-16.11 25.42-33.4 37.79-50.54 9.83-13.62 22.71-29.36 32.47-42.83q10.95-15.09 42.04-56.38 11.45-15.19 25.13-33.13 8.13-10.66 61.36-81.88 16.36-21.89 32.95-43.81 18.37-24.26 29.59-39.92 1.76-2.46 3.66-4.3m-230.7 720.53c13.69.94 31.7.04 49.19.07q10.36.02 22.34-2.3 18.87-3.64 32.75-16.7 13.4-12.6 19.39-26.86c9.91-23.57 10.32-51.7 5.83-77.27q-2.02-11.48-6.62-20.95c-5.65-11.63-11.64-20.63-21.76-28.38q-14.25-10.9-30.43-14.37c-7.21-1.55-15.79-1.76-23.54-1.67q-8 .09-45.45.17-13.5.03-21.74 9.59c-6.86 7.96-6.56 18.97-6.53 28.61q.09 35.08-.01 118.5-.01 6.54 2.44 14.12c3.53 10.96 13.25 16.69 24.14 17.44m-220.18 21.38c.12 22.02 5.2 45.29 22.92 60.03q18.4 15.3 43.48 17.27c16.65 1.3 31.86.51 47.34-5.41 8.94-3.41 15.94-8.73 22.36-15.14 6.96-6.94 12.23-15.82 14.98-25.71 3.79-13.6 4.36-27.62 4.36-42.21q0-35.31.05-62.49c.03-14.28.66-28.21-11.8-37.43-6.12-4.52-14.32-6-21.33-4.41-19.3 4.37-20.92 23.09-20.75 39.31q.24 23.51.07 77.41c-.01 3.54-.38 9.34-1.32 12.92-3.35 12.79-14.12 15.26-25.96 14.97-9.72-.24-16.02-5.06-18.87-14.14q-1.73-5.51-1.77-10.16-.42-52.45-.22-79c.11-14.12.22-32.4-15.34-39.24-11.95-5.25-27.55-1.49-34.04 9.95-4.03 7.1-4.4 17.29-4.4 26.54q0 32.91.24 76.94m383.917-74.061a27.99 27.22-97.5 0 0-23.334 31.304 27.99 27.22-97.5 0 0 30.64 24.197 27.99 27.22-97.5 0 0 23.334-31.303 27.99 27.22-97.5 0 0-30.64-24.198m-189.154 97.165a27.9 27.51-106.1 0 0-18.694 34.435 27.9 27.51-106.1 0 0 34.168 19.177 27.9 27.51-106.1 0 0 18.694-34.435 27.9 27.51-106.1 0 0-34.168-19.177m-3.023 315.376q-.33-3.89-.49-5.43-3.51-32.7-15.25-63.14-12.31-31.92-34.4-59.08-4.97-6.12-11.64-13.54-10.7-11.91-23.72-21.97c-17.21-13.3-31.47-23.63-50.01-31.62q-20.28-8.75-39.07-13.63-23.25-6.03-44.37-7.12-20.97-1.07-43.24 1.61-20.33 2.46-42.15 9.74c-37.16 12.42-70.15 33.01-96.56 61.21q-8.16 8.71-9.57 10.43c-14.32 17.54-26.75 37.16-35.92 58.55q-16.93 39.45-18.59 82.08-.91 23.33 2.11 44.74 1.07 7.64 3.23 16.02 3.77 14.65 8.65 28.15 12.16 33.65 34.62 62.35 32.02 40.92 76.26 64.13 23.26 12.2 43.94 18.09 14.21 4.05 33.1 7.01 15.9 2.5 33.63 2.12 21.78-.48 40.83-4.2 16.39-3.21 30.08-8.12c21.93-7.87 43-18 61.59-31.7q.07-.06 13.83-11 10.07-8.02 17.2-15.39 15.44-15.97 31.29-39.71 6.25-9.36 10.59-18.64 6.13-13.1 7.33-16.19 2.45-6.28 7.24-20.64 3.61-10.81 5.65-21.11 6.16-31.07 3.95-62.16-.03-.42-.14-1.84"></path><path fill="#086b3d" fill-rule="evenodd" d="M732.2 326.91a.758.755 44.897 0 1 1.49 0q3.09 16.76 7.44 35.52c4.17 17.94 6.76 33.25 10.08 51.39 2.1 11.49 5.87 24.99 7.32 36.72 1.16 9.46 2.49 15.37 4.43 25.98q1.02 5.56 2.87 22.21.75 6.73 2.54 19.83 1.08 7.83 1.61 24.44.59 18.16-2.1 35.42-.19 1.24-2.65 11.07c-2.33 9.29-8.21 21.82-18.63 24.02q-16.18 3.42-29.78-1.28-3.27-1.13-6.79-5.28c-7.8-9.21-9.94-19.1-11.87-31.76q-2.91-19.05-1.64-38.93 2.25-35.12 8.72-70.08 4.99-27.04 6.25-34.74 3.13-19.07 7.77-39.96c2.93-13.14 5.57-31.85 8.97-45.51q2.13-8.55 3.97-19.06M282.24 327.14a.407.407 83.026 0 1 .77.07q3.2 13.28 6.49 30.24 4.45 22.96 9.64 46.77c1.49 6.83 2.51 14.28 3.52 19.32q4.97 24.79 9.1 48.96 3.07 18.02 6.5 50.26c2.33 21.94 3.13 43.58-2.55 64.53q-2.38 8.79-4.15 12.47c-4.51 9.4-12.97 15.64-23.34 15.95-12.91.38-21.83 1.28-29.11-8.52q-3.72-5-4.98-7.81c-2.65-5.91-5.39-14.28-6.51-22.14-3.17-22.19-1.94-46.26 1.11-68.01q.07-.53 8.07-54.48 2.21-14.91 5.37-28.96 3.65-16.25 5.42-26.32c2.5-14.18 3.7-22.82 6.53-35.24q3.65-16.05 7.34-34.49.29-1.45.78-2.6"></path><path fill="#fff" fill-rule="evenodd" d="M1176.6 516.59q.17 2.51.17 2.66.14 90.59.13 99.62c-.01 8.13-1.12 18.3-8.68 22.44q-5.53 3.04-12.66 1.53-9.49-2-12.23-12.33c-1.08-4.04-.85-9.23-.86-13.86q-.08-105.15.06-133.4c.04-8.91.14-17.63 7.51-23.57 5.43-4.38 13.69-5.62 20.27-4.14q7.27 1.64 11.91 8.28 9.36 13.4 12.84 18.95 13.1 20.87 17.73 27.73c14.41 21.37 27.14 41.44 40.78 62.12 1.85 2.79 4.32 7.81 6.42 9.92q.34.35.58.37a.575.555 88.283 0 0 .6-.66q-.47-2.92-.5-6.25c-.1-8.46.32-22.03.26-32q-.25-41.71-.13-67.75c.04-10.46 3.52-20.07 15.3-21.08q6.09-.52 10.3 2.31c7.51 5.03 8.64 12.71 8.64 21.27q.08 80.27.09 139.75c0 11.69-3.01 23.23-16.66 24.74q-13.42 1.48-21.88-7.56c-3.97-4.25-9.42-12.42-13.05-17.97q-28.58-43.75-54.27-83.29-5.28-8.12-11.7-18.16a.531.527-63.567 0 0-.97.33"></path><path fill-rule="evenodd" d="M520.12 989.92a1.694 1.672-7.632 0 0-1.3 1.68q.18 8.12-.16 13.51-.22 3.35-2.15 5.64c-2.94 3.49-10.69 3.35-14.25 1.81q-4.32-1.86-4.95-7.23-.8-6.74-.24-12.85a1.921 1.907 10.484 0 0-1.4-2.02q-22.14-6.18-30.35-28.27c-6.86-18.42-7.85-38.84-7.15-58.7q.69-19.75 2.21-32.73c2.77-23.59 6.14-45.9 10.56-67.73q2.83-13.98 4.45-23.89c1.76-10.77 3.96-20.25 6.15-31.8 5.99-31.71 13.08-64.71 19.72-95.1.62-2.88 1.4-5.5 4.51-6.04q6.22-1.1 7.72 5.12 5.03 20.88 9.63 44.87c1.84 9.61 5.2 22.27 7.5 34.56q6.94 37.08 7.98 41.72c3.77 16.83 6.68 34.6 10.62 58.03 5.4 32.06 9.79 65.12 7.98 97.99q-.68 12.35-3.34 24.24c-4.29 19.22-14.37 32.62-33.74 37.19m-11.98-300.37a.724.723 26.248 0 0-1.18.4q-8.54 41.62-13.32 65.85c-1.76 8.95-3.76 18.9-4.54 25.2q-.26 2.15-3.7 18.81-8.64 41.85-12.53 84.45-1.57 17.22-1.77 27.48-.39 20.3 4.31 39.31 3.05 12.39 10.68 20.4 4.79 5.03 12.38 6.11 8.7 1.23 16.06.39c7.13-.82 14.91-4.51 18.47-10.22q6.06-9.68 8.53-22.65 2.26-11.81 2.8-20.1.99-15.25-.2-33.21-.25-3.73-2.14-18.83-5.19-41.64-15.42-93.53-2.64-13.37-5.24-26.86c-2.04-10.54-4.67-20.28-6.15-30.18q-.59-3.91-3.29-15.56-1.92-8.3-2.97-15.63-.16-1.09-.78-1.63"></path><path fill="#fff" fill-rule="evenodd" d="M1012.79 820.62a.588.587-81.201 0 0-.56.41q-5.39 15.82-12.56 33.64c-2.34 5.79-5.65 11.2-12.26 12.22-9.83 1.53-19.48-3.82-21.01-13.62q-1.14-7.3 2.1-14.73c4.98-11.42 7.88-20.82 11.98-30.82 5.97-14.55 11-28.78 17.41-44.36 4.88-11.86 9.8-25.49 16.19-41.49q3.44-8.62 8.15-21.87 1.16-3.25 4.66-9.02c4.28-7.05 10.59-10.94 18.33-11.98 10.41-1.39 21.91 2.79 27.13 12.26 1.44 2.61 3.49 7.16 4.94 10.84q10.78 27.42 14.21 35.77c12.86 31.39 22.48 55.76 27.12 67.05q6.86 16.68 12.63 32.08c3.4 9.07 4.95 18.59-2.94 25.81-6.33 5.81-17.98 6-23.98-.63q-2.49-2.75-4.89-8.33-3.41-7.91-12.86-32.54a1.086 1.069 79.148 0 0-1-.69zm9.61-28.487a.3.3 58.103 0 0 .284.4l53.495-.28a.3.3 76.984 0 0 .28-.403l-27.136-74.045a.3.3 24.529 0 0-.564.003z"></path><path fill="#086b3d" fill-rule="evenodd" d="M508.14 689.55q.62.54.78 1.63 1.05 7.33 2.97 15.63 2.7 11.65 3.29 15.56c1.48 9.9 4.11 19.64 6.15 30.18q2.6 13.49 5.24 26.86 10.23 51.89 15.42 93.53 1.89 15.1 2.14 18.83 1.19 17.96.2 33.21-.54 8.29-2.8 20.1-2.47 12.97-8.53 22.65c-3.56 5.71-11.34 9.4-18.47 10.22q-7.36.84-16.06-.39-7.59-1.08-12.38-6.11-7.63-8.01-10.68-20.4-4.7-19.01-4.31-39.31.2-10.26 1.77-27.48 3.89-42.6 12.53-84.45 3.44-16.66 3.7-18.81c.78-6.3 2.78-16.25 4.54-25.2q4.78-24.23 13.32-65.85a.724.723 26.248 0 1 1.18-.4"></path><path fill-rule="evenodd" d="m1022.4 792.133 26.359-74.325a.3.3 79.418 0 1 .564-.003l27.136 74.045a.3.3-69.819 0 1-.28.403l-53.495.28a.3.3 58.749 0 1-.284-.4M1395.23 1040.38c-17.49-.03-35.5.87-49.19-.07-10.89-.75-20.61-6.48-24.14-17.44q-2.45-7.58-2.44-14.12.1-83.42.01-118.5c-.03-9.64-.33-20.65 6.53-28.61q8.24-9.56 21.74-9.59 37.45-.08 45.45-.17c7.75-.09 16.33.12 23.54 1.67q16.18 3.47 30.43 14.37c10.12 7.75 16.11 16.75 21.76 28.38q4.6 9.47 6.62 20.95c4.49 25.57 4.08 53.7-5.83 77.27q-5.99 14.26-19.39 26.86-13.88 13.06-32.75 16.7-11.98 2.32-22.34 2.3m-58.1-174q-6.85 5.7-6.75 16.88.2 23.18.06 120.24-.01 6.22.98 12.33c1.76 10.83 9.74 13.56 19.59 13.54q9.61-.02 42.24.31 13.88.14 24.45-2.77c25.23-6.94 39.92-26.1 45.97-51.25q7.53-31.33-.8-63.08-5.03-19.14-17.6-31.93-3.42-3.48-6.92-5.8-6.24-4.14-7.7-4.79c-13.43-5.98-27.1-6.92-42.65-6.95q-28.66-.06-35.75.06c-5.88.11-11.45.16-15.12 3.21"></path><path fill="#fff" fill-rule="evenodd" d="M1337.13 866.38c3.67-3.05 9.24-3.1 15.12-3.21q7.09-.12 35.75-.06c15.55.03 29.22.97 42.65 6.95q1.46.65 7.7 4.79 3.5 2.32 6.92 5.8 12.57 12.79 17.6 31.93 8.33 31.75.8 63.08c-6.05 25.15-20.74 44.31-45.97 51.25q-10.57 2.91-24.45 2.77-32.63-.33-42.24-.31c-9.85.02-17.83-2.71-19.59-13.54q-.99-6.11-.98-12.33.14-97.06-.06-120.24-.1-11.18 6.75-16.88m25.11 136.2a.94.94-45 0 0 .94.94q16.4.07 30.83.05c13.61-.02 25.93-5.76 32.7-17.86q3.27-5.86 4.4-9.33 3.71-11.36 4.24-22.66c.72-15.22-.14-32.17-7.65-46.17-7.08-13.2-20.26-18.13-35.22-18.56q-5.34-.15-29.72-.29a.52.52 0 0 0-.52.52z"></path><path fill-rule="evenodd" d="M1362.24 1002.58V889.22a.52.52 0 0 1 .52-.52q24.38.14 29.72.29c14.96.43 28.14 5.36 35.22 18.56 7.51 14 8.37 30.95 7.65 46.17q-.53 11.3-4.24 22.66-1.13 3.47-4.4 9.33c-6.77 12.1-19.09 17.84-32.7 17.86q-14.43.02-30.83-.05a.94.94-45.007 0 1-.94-.94m11.069-102.098-.318 91.059a.41.41-7.38 0 0 .409.412l22.34.078a34.29 27.91-89.8 0 0 28.029-34.193l.081-23.299a34.29 27.91-89.8 0 0-27.79-34.388l-22.34-.078a.41.41 11.369 0 0-.411.409"></path><path fill="#f76706" fill-rule="evenodd" d="M1373.309 900.482a.41.41 37.026 0 1 .411-.409l22.34.078a34.29 27.91-89.8 0 1 27.79 34.388l-.081 23.299a34.29 27.91-89.8 0 1-28.029 34.193l-22.34-.078a.41.41 32.606 0 1-.409-.412z" data-source="https://football-logos.cc"></path><path fill="#fff" fill-rule="evenodd" d="M821.48 953.11q.23 1.3.1 14.25-.08 8.31.15 14.28c.5 12.94-.1 28.16 0 41.82q.25 35.22-.1 56.17c-.08 4.78-2.03 11.77-6.07 15.01-7.34 5.87-18.12 5.1-23.58-2.17q-3.71-4.94-3.73-12.47-.13-51.08-.16-139.59c-.01-12.25.23-22.23 12.2-26.38q3.94-1.36 14.53-1.3 13.04.07 14.68.2c5.56.44 12.13 3.19 14.77 8.39 2.28 4.47 3.5 9.67 4.97 14.94q11.46 40.86 20.61 77.88.59 2.37 3.98 14.02c.7 2.42 1.02 5.37 2.25 7.85a.32.317-54.171 0 0 .6-.1q.64-4.16 1.38-6.85 10.13-36.51 18.55-69.1c3.3-12.78 6.4-23.47 9.62-35.2 2.04-7.47 10.56-11.54 17.8-11.87q5.31-.24 15.23-.24c10.69.01 20.39 1.95 23.75 13.55q.81 2.79.78 11.31-.05 17.19.04 137.24c0 6.77.05 13.02-4.3 18.2-6.13 7.29-19.92 7.35-25.38-.84-3.82-5.72-3.93-11.75-3.94-19.11q-.04-58.25.1-119.44a.368.365-19.76 0 0-.6-.28q-.38.31-.54.87-.8 2.8-5.25 21.13c-6.2 25.56-13.64 53.07-18.53 73.52-2.48 10.37-6.02 22.09-8.32 31.5-1.26 5.14-4.17 12.36-8.98 15.22q-6.26 3.73-13.82 3.25c-13.59-.86-17.69-11.66-20.59-22.97q-10.49-40.98-12.69-49.6-4.37-17.14-18.03-70.78-.45-1.77-1-2.52a.27.269-68.533 0 0-.48.21"></path><path fill-rule="evenodd" d="M1148.78 1121.72c-17.72-14.74-22.8-38.01-22.92-60.03q-.24-44.03-.24-76.94c0-9.25.37-19.44 4.4-26.54 6.49-11.44 22.09-15.2 34.04-9.95 15.56 6.84 15.45 25.12 15.34 39.24q-.2 26.55.22 79 .04 4.65 1.77 10.16c2.85 9.08 9.15 13.9 18.87 14.14 11.84.29 22.61-2.18 25.96-14.97.94-3.58 1.31-9.38 1.32-12.92q.17-53.9-.07-77.41c-.17-16.22 1.45-34.94 20.75-39.31 7.01-1.59 15.21-.11 21.33 4.41 12.46 9.22 11.83 23.15 11.8 37.43q-.05 27.18-.05 62.49c0 14.59-.57 28.61-4.36 42.21-2.75 9.89-8.02 18.77-14.98 25.71-6.42 6.41-13.42 11.73-22.36 15.14-15.48 5.92-30.69 6.71-47.34 5.41q-25.08-1.97-43.48-17.27m-.6-164.06c-9.31 3.13-11.53 11.46-11.47 20.09q.22 36.25.18 72.5c-.03 21.85.49 48.95 19.93 63.68q6.86 5.21 9.42 6.38 15.21 6.95 31.95 7.83c17.54.91 33.86-1.44 48.7-11.54q12.29-8.36 17.63-23.38 5.13-14.44 5.31-29.01.4-33.54.09-88.84c-.04-6.77-1.67-12.88-7.94-16.41-9.84-5.53-20.74.29-22.54 11.22q-.68 4.09-.66 6.32.4 54.56.01 89.99c-.16 14.74-7.33 30.13-22.36 33.94-8.15 2.06-20.82 2.62-28.95-1.08-8.86-4.03-15.14-12-17.37-21.46-2.02-8.53-1.81-15.5-1.79-25.89q.06-20.49-.01-70.25c-.01-10.81-.7-22.68-13.85-24.66q-3.15-.48-6.28.57"></path><path fill="#fff" fill-rule="evenodd" d="M1148.18 957.66q3.13-1.05 6.28-.57c13.15 1.98 13.84 13.85 13.85 24.66q.07 49.76.01 70.25c-.02 10.39-.23 17.36 1.79 25.89 2.23 9.46 8.51 17.43 17.37 21.46 8.13 3.7 20.8 3.14 28.95 1.08 15.03-3.81 22.2-19.2 22.36-33.94q.39-35.43-.01-89.99-.02-2.23.66-6.32c1.8-10.93 12.7-16.75 22.54-11.22 6.27 3.53 7.9 9.64 7.94 16.41q.31 55.3-.09 88.84-.18 14.57-5.31 29.01-5.34 15.02-17.63 23.38c-14.84 10.1-31.16 12.45-48.7 11.54q-16.74-.88-31.95-7.83-2.56-1.17-9.42-6.38c-19.44-14.73-19.96-41.83-19.93-63.68q.04-36.25-.18-72.5c-.06-8.63 2.16-16.96 11.47-20.09"></path><path fill-rule="evenodd" d="M1509.777 987.629a27.99 27.22-97.5 0 1 30.64 24.198 27.99 27.22-97.5 0 1-23.334 31.303 27.99 27.22-97.5 0 1-30.64-24.197 27.99 27.22-97.5 0 1 23.334-31.304m3.372 11.517a16.46 15.81-91.5 0 0-15.374 16.868 16.46 15.81-91.5 0 0 16.236 16.04 16.46 15.81-91.5 0 0 15.374-16.868 16.46 15.81-91.5 0 0-16.236-16.04"></path><path fill="#fff" fill-rule="evenodd" d="M1513.149 999.146a16.46 15.81-91.5 0 1 16.236 16.04 16.46 15.81-91.5 0 1-15.374 16.868 16.46 15.81-91.5 0 1-16.236-16.04 16.46 15.81-91.5 0 1 15.374-16.868"></path><path fill-rule="evenodd" d="M1320.623 1084.794a27.9 27.51-106.1 0 1 34.168 19.177 27.9 27.51-106.1 0 1-18.694 34.435 27.9 27.51-106.1 0 1-34.168-19.177 27.9 27.51-106.1 0 1 18.694-34.435m7.287 10.228a16.56 15.85-90.9 0 0-15.588 16.807 16.56 15.85-90.9 0 0 16.108 16.309 16.56 15.85-90.9 0 0 15.588-16.807 16.56 15.85-90.9 0 0-16.108-16.309"></path><path fill="#fff" fill-rule="evenodd" d="M1327.91 1095.022a16.56 15.85-90.9 0 1 16.108 16.309 16.56 15.85-90.9 0 1-15.588 16.807 16.56 15.85-90.9 0 1-16.108-16.309 16.56 15.85-90.9 0 1 15.588-16.807M664.72 1283.63a.925.923 9.892 0 0-.87.61q-5.94 16.7-10.57 28.31c-1.11 2.8-3.56 9.31-5.88 12.32-10.6 13.74-33.19 1.71-29.77-14.79q1.01-4.9 4.15-12.79 7.65-19.23 8.51-21.31c6.83-16.62 13.25-34.5 19.74-50.88q14.03-35.43 25.17-64.39 1.26-3.26 5.72-10.26 3.33-5.23 11.05-7.72c9.87-3.2 22.08-1.13 28.86 7.19 3.43 4.21 5.72 8.98 7.99 14.71q9.6 24.26 19.32 47.94c5.19 12.67 12.05 31.58 18.34 46.85q7.46 18.14 16.79 42.06c2.74 7.01 3.7 14.24.2 20.4-3.12 5.5-8.77 8.57-14.88 8.92-8.89.5-13.4-4.88-16.72-12.42q-6.17-14.04-13.25-34.06a1.028 1.027 80.403 0 0-.97-.69zm9.41-28.867a.42.42-80.959 0 0 .394.564h52.792a.42.42 79.237 0 0 .395-.564l-26.396-72.709a.42.42 90 0 0-.79 0z"></path><path fill-rule="evenodd" d="m674.13 1254.763 26.395-72.709a.42.42-90 0 1 .79 0l26.396 72.709a.42.42-69.322 0 1-.395.564h-52.792a.42.42-49.763 0 1-.394-.564M1317.6 1400.17q.11 1.42.14 1.84 2.21 31.09-3.95 62.16-2.04 10.3-5.65 21.11-4.79 14.36-7.24 20.64-1.2 3.09-7.33 16.19-4.34 9.28-10.59 18.64-15.85 23.74-31.29 39.71-7.13 7.37-17.2 15.39-13.76 10.94-13.83 11c-18.59 13.7-39.66 23.83-61.59 31.7q-13.69 4.91-30.08 8.12-19.05 3.72-40.83 4.2-17.73.38-33.63-2.12-18.89-2.96-33.1-7.01-20.68-5.89-43.94-18.09-44.24-23.21-76.26-64.13-22.46-28.7-34.62-62.35-4.88-13.5-8.65-28.15-2.16-8.38-3.23-16.02-3.02-21.41-2.11-44.74 1.66-42.63 18.59-82.08c9.17-21.39 21.6-41.01 35.92-58.55q1.41-1.72 9.57-10.43c26.41-28.2 59.4-48.79 96.56-61.21q21.82-7.28 42.15-9.74 22.27-2.68 43.24-1.61 21.12 1.09 44.37 7.12 18.79 4.88 39.07 13.63c18.54 7.99 32.8 18.32 50.01 31.62q13.02 10.06 23.72 21.97 6.67 7.42 11.64 13.54 22.09 27.16 34.4 59.08 11.74 30.44 15.25 63.14.16 1.54.49 5.43m-195.56-199.22a.253.249-53.933 0 0-.07-.47q-29.93-4.94-59.13-2.11-13.26 1.28-29.59 5.41-14.67 3.72-28.66 9.12-10.54 4.08-16.78 7.42c-14.78 7.91-29.64 16.87-41.99 27.5q-7.42 6.39-10.24 9.01-26.83 24.96-43.68 56.57-1.4 2.63-2.27 5.3a1.161 1.137-54.603 0 0 .16 1.01q11.37 15.79 26.99 25.97c17.2 11.2 38.78 15.71 58.73 10.9a.797.795-3.222 0 0 .6-.67q.12-.96.29-5.57.37-9.73 4.39-22.08 5.4-16.55 15.89-32.11c8.1-12 17.21-23.11 28.36-33.1q14-12.54 29.52-23.44 11.3-7.94 32.19-19.57 14.72-8.19 35.29-19.09m51.41 120.61c1.16-16.74 7.26-33.81 19.54-45.56 8.97-8.58 20.13-15.16 32.31-16.4q5.34-.54 11.07-.58a.408.406-23.314 0 0 .28-.7c-14.1-13.63-30.12-25.67-47.51-34.61-4.95-2.54-11.32-6.35-17.3-8.88-7.29-3.08-14.55-5.17-21.7-7.73q-3.53-1.26-6.54-1.65a4.678 4.641 34.414 0 0-2.79.51c-21.74 11.61-42.15 21.85-62.62 33.99q-12.46 7.4-28.78 19.46-32.14 23.77-49.91 58.04c-9.99 19.26-13.21 39.38-8.07 60.2 4.46 18.05 15.95 31.56 32.64 39.63q6.32 3.06 14.52 4.1c13.33 1.7 28.51.21 39.96-6.91a1.193 1.179-18.764 0 0 .56-1.12c-.75-7.85-1.11-15.26.5-23.04 6.26-30.05 23.97-52.55 52.8-64.09 13.24-5.3 26.28-6.03 40.38-4.13a.582.577-83.515 0 0 .66-.53m66.49 251.57q.4 0 .92-.52 15.72-15.65 27.85-34.35 12.21-18.82 20.08-37.43 4.32-10.22 6.57-18.2c3.73-13.24 7.56-27.97 9.02-41.54 6.26-58.05-11.76-116.35-48.17-161.83-2.46-3.06-4.84-6.6-8.45-7.1q-7.2-1-14.77-1-6 0-12.94 2.63-12.35 4.68-19.47 12.96-14.4 16.76-14.46 38.45a1.321 1.308 13.755 0 0 .73 1.19q11.75 5.89 20.86 15.4c10.66 11.14 17.61 23.31 24.31 37.75q5.52 11.88 8.69 21.66c4.49 13.86 8.83 28.67 11.21 44.31 3.27 21.48 4.35 43.3 1.96 64.69q-1.63 14.54-2.73 20.78-3.7 20.96-11.62 41.58a.428.421 9.754 0 0 .41.57m-357.18-240.74q-7.31 18.36-12.15 37.92-3.76 15.24-5.06 40.69-.27 5.4.13 12.5a3.483 3.461 21.703 0 0 .96 2.21q14.96 15.66 22.54 23.13c9.46 9.33 21.1 19.11 29.91 26.05q6.83 5.37 25.76 18.25 20.07 13.65 42.42 22.56c28.53 11.37 60.08 19.1 90.94 17.78q25.85-1.11 41.59-20.72 14.37-17.91 12.92-40.76c-1.16-18.19-11.88-33.09-27.85-41.36q-3.84-1.99-9.85-4.16c-4.13-1.49-7.45-2.81-10.49-1.01-33.39 19.79-76.75 8.46-97.2-24.2q-8.86-14.15-10.52-31.29a.841.835-6.81 0 0-.96-.75c-7.17 1.06-12.67 2.17-18.87 1.97-29.8-.94-55.25-15.88-73.48-38.92a.435.431 36.298 0 0-.74.11m269.62 294.63q28.9-9.46 53.88-26.31c4.33-2.92 9.54-6.12 11.77-10.17 4.75-8.61 7.68-17.38 11.63-28.74 6.27-18.04 10.11-35.86 11.57-54.64q1.01-13.06 1.09-18.17.48-33.4-8.73-66.67c-4.66-16.79-9.93-32.99-18.4-47.83-7.25-12.71-14.17-22.77-25.34-31.37q-8.79-6.76-18.92-8.23c-19.43-2.82-38.56 2.34-53.49 15.06-13.47 11.48-21.87 25.31-25.08 42.96-1.03 5.7-.6 10.71-.52 17.38a2.146 2.129 9.153 0 0 1.45 1.99q7.59 2.56 13.16 5.02c15.77 6.98 28.31 18.88 34.69 35.04q6.7 16.98 3.93 34.74-3.66 23.48-21.06 40.82a.378.378-51.804 0 0 .07.59q16.63 10.26 26.93 25.64 18.72 27.95 7.72 59.52-2.44 6.99-6.8 12.73a.412.408-80.418 0 0 .45.64M867.1 1445.86q2.01 18.83 8.44 38.13 14.28 42.87 43.76 77.27 5.11 5.97 11.96 12.5 9.12 8.68 12.75 11.73c14.28 11.97 31.23 23.44 48.89 31.45q15.09 6.85 25.61 10.03 21.3 6.43 35.21 8.57 20.61 3.16 48.04 1.66 11.88-.65 26.71-3.98c2.88-.65 3.95-1.84 5.95-4.03 13.15-14.36 18.81-32.7 13.37-51.94-4.88-17.23-17.55-30.51-33.82-39.84a2.638 2.633-43.829 0 0-2.55-.05q-17.09 8.99-37.17 9.03c-31.4.06-63.07-7.12-91.9-18.99q-17.04-7.03-35.7-17.78-12.18-7.02-24.83-16.69-16.22-12.42-23.53-18.71-15.92-13.71-30.59-28.64a.351.349 19.875 0 0-.6.28"></path><path fill="#fff" fill-rule="evenodd" d="M1122.04 1200.95q-20.57 10.9-35.29 19.09-20.89 11.63-32.19 19.57-15.52 10.9-29.52 23.44c-11.15 9.99-20.26 21.1-28.36 33.1q-10.49 15.56-15.89 32.11-4.02 12.35-4.39 22.08-.17 4.61-.29 5.57a.797.795-3.222 0 1-.6.67c-19.95 4.81-41.53.3-58.73-10.9q-15.62-10.18-26.99-25.97a1.161 1.137-54.603 0 1-.16-1.01q.87-2.67 2.27-5.3 16.85-31.61 43.68-56.57 2.82-2.62 10.24-9.01c12.35-10.63 27.21-19.59 41.99-27.5q6.24-3.34 16.78-7.42 13.99-5.4 28.66-9.12 16.33-4.13 29.59-5.41 29.2-2.83 59.13 2.11a.253.249-53.933 0 1 .07.47"></path><path fill="#fff" fill-rule="evenodd" d="M1172.79 1322.09c-14.1-1.9-27.14-1.17-40.38 4.13-28.83 11.54-46.54 34.04-52.8 64.09-1.61 7.78-1.25 15.19-.5 23.04a1.193 1.179-18.764 0 1-.56 1.12c-11.45 7.12-26.63 8.61-39.96 6.91q-8.2-1.04-14.52-4.1c-16.69-8.07-28.18-21.58-32.64-39.63-5.14-20.82-1.92-40.94 8.07-60.2q17.77-34.27 49.91-58.04 16.32-12.06 28.78-19.46c20.47-12.14 40.88-22.38 62.62-33.99a4.678 4.641 34.414 0 1 2.79-.51q3.01.39 6.54 1.65c7.15 2.56 14.41 4.65 21.7 7.73 5.98 2.53 12.35 6.34 17.3 8.88 17.39 8.94 33.41 20.98 47.51 34.61a.408.406-23.314 0 1-.28.7q-5.73.04-11.07.58c-12.18 1.24-23.34 7.82-32.31 16.4-12.28 11.75-18.38 28.82-19.54 45.56a.582.577-83.515 0 1-.66.53"></path><path fill="#fff" fill-rule="evenodd" d="M1239.94 1573.13a.428.421 9.754 0 1-.41-.57q7.92-20.62 11.62-41.58 1.1-6.24 2.73-20.78c2.39-21.39 1.31-43.21-1.96-64.69-2.38-15.64-6.72-30.45-11.21-44.31q-3.17-9.78-8.69-21.66c-6.7-14.44-13.65-26.61-24.31-37.75q-9.11-9.51-20.86-15.4a1.321 1.308 13.755 0 1-.73-1.19q.06-21.69 14.46-38.45 7.12-8.28 19.47-12.96 6.94-2.63 12.94-2.63 7.57 0 14.77 1c3.61.5 5.99 4.04 8.45 7.1 36.41 45.48 54.43 103.78 48.17 161.83-1.46 13.57-5.29 28.3-9.02 41.54q-2.25 7.98-6.57 18.2-7.87 18.61-20.08 37.43-12.13 18.7-27.85 34.35-.52.52-.92.52M882.76 1332.39a.435.431 36.298 0 1 .74-.11c18.23 23.04 43.68 37.98 73.48 38.92 6.2.2 11.7-.91 18.87-1.97a.841.835-6.81 0 1 .96.75q1.66 17.14 10.52 31.29c20.45 32.66 63.81 43.99 97.2 24.2 3.04-1.8 6.36-.48 10.49 1.01q6.01 2.17 9.85 4.16c15.97 8.27 26.69 23.17 27.85 41.36q1.45 22.85-12.92 40.76-15.74 19.61-41.59 20.72c-30.86 1.32-62.41-6.41-90.94-17.78q-22.35-8.91-42.42-22.56-18.93-12.88-25.76-18.25c-8.81-6.94-20.45-16.72-29.91-26.05q-7.58-7.47-22.54-23.13a3.483 3.461 21.703 0 1-.96-2.21q-.4-7.1-.13-12.5 1.3-25.45 5.06-40.69 4.84-19.56 12.15-37.92"></path><path fill="#fff" fill-rule="evenodd" d="M1152.38 1627.02a.412.408-80.418 0 1-.45-.64q4.36-5.74 6.8-12.73 11-31.57-7.72-59.52-10.3-15.38-26.93-25.64a.378.378-51.804 0 1-.07-.59q17.4-17.34 21.06-40.82 2.77-17.76-3.93-34.74c-6.38-16.16-18.92-28.06-34.69-35.04q-5.57-2.46-13.16-5.02a2.146 2.129 9.153 0 1-1.45-1.99c-.08-6.67-.51-11.68.52-17.38 3.21-17.65 11.61-31.48 25.08-42.96 14.93-12.72 34.06-17.88 53.49-15.06q10.13 1.47 18.92 8.23c11.17 8.6 18.09 18.66 25.34 31.37 8.47 14.84 13.74 31.04 18.4 47.83q9.21 33.27 8.73 66.67-.08 5.11-1.09 18.17c-1.46 18.78-5.3 36.6-11.57 54.64-3.95 11.36-6.88 20.13-11.63 28.74-2.23 4.05-7.44 7.25-11.77 10.17q-24.98 16.85-53.88 26.31M469.8 1486.79c.71-3.98 3.98-7.89 7.65-9.78q2.21-1.14 5.55-1.58 13.35-1.78 18.35 10.88 2.36 5.96 4.21 10.41 5.88 14.2 19.55 18.95 6.26 2.17 15.21 2.06c9-.11 17.59-1.43 25.1-6.31q14.53-9.45 10.49-26.84c-2.77-11.94-18.46-17.72-29.68-20.53-18.3-4.59-29.62-7.24-44.58-13.61-13.05-5.56-24.3-16.33-27.35-30.57q-4.56-21.29 6.28-38.38 6.23-9.82 18.5-16.13c16.77-8.64 33.78-10.34 52.51-8.93q13.59 1.03 28.53 8.1c14.95 7.06 32.59 27.45 24.25 44.91-3.66 7.66-12.53 10.59-20.18 8.05-4.56-1.52-6.87-5.59-9.17-10.2q-3.11-6.2-5.07-9.45c-8.32-13.77-25.68-17.04-40.67-14.04q-9.5 1.91-16.44 7.99c-6.85 6-7.58 17.09-.93 23.55q5.61 5.45 14.22 8.31 13.85 4.6 31.43 8.82 11.25 2.7 16.96 4.86 6.7 2.54 15.88 7.75c11.96 6.8 20.49 18.77 22.11 32.13 1.81 14.99.48 29.05-8.3 41.56q-7.05 10.06-17.01 15.97-12.08 7.16-25.92 9.31c-9.63 1.49-16.89 1.58-26.74 1.5q-9.86-.09-23.02-4.02-17.27-5.16-29.09-18.18c-8.88-9.79-15.02-23.23-12.63-36.56"></path><path fill="#fff" fill-rule="evenodd" d="M867.1 1445.86a.351.349 19.875 0 1 .6-.28q14.67 14.93 30.59 28.64 7.31 6.29 23.53 18.71 12.65 9.67 24.83 16.69 18.66 10.75 35.7 17.78c28.83 11.87 60.5 19.05 91.9 18.99q20.08-.04 37.17-9.03a2.638 2.633-43.829 0 1 2.55.05c16.27 9.33 28.94 22.61 33.82 39.84 5.44 19.24-.22 37.58-13.37 51.94-2 2.19-3.07 3.38-5.95 4.03q-14.83 3.33-26.71 3.98-27.43 1.5-48.04-1.66-13.91-2.14-35.21-8.57-10.52-3.18-25.61-10.03c-17.66-8.01-34.61-19.48-48.89-31.45q-3.63-3.05-12.75-11.73-6.85-6.53-11.96-12.5-29.48-34.4-43.76-77.27-6.43-19.3-8.44-38.13" data-source="https://football-logos.cc"></path><!-- source: https://football-logos.cc --></svg>