<svg xmlns="http://www.w3.org/2000/svg" xml:space="preserve" viewBox="0 0 648.67 983.73"><!-- Source: https://football-logos.cc --><path d="M518.879 6031.67c32.16 0 58.328 26.17 58.328 58.33 0 32.17-26.168 58.34-58.328 58.34-32.164 0-58.332-26.17-58.332-58.34 0-32.16 26.168-58.33 58.332-58.33M546.875 6159.43c32.164 0 58.328 26.16 58.328 58.32 0 32.17-26.164 58.34-58.328 58.34s-58.328-26.17-58.328-58.34c0-32.16 26.164-58.32 58.328-58.32M607.25 6270.55c32.164 0 58.332 26.16 58.332 58.33 0 32.16-26.168 58.33-58.332 58.33-32.16 0-58.328-26.17-58.328-58.33 0-32.17 26.168-58.33 58.328-58.33M686.875 6366.8c32.164 0 58.328 26.16 58.328 58.33 0 32.16-26.164 58.33-58.328 58.33s-58.328-26.17-58.328-58.33c0-32.17 26.164-58.33 58.328-58.33" style="fill:#231f20;fill-opacity:1;fill-rule:nonzero;stroke:none" transform="matrix(.13333 0 0 -.13333 0 983.733)" data-source="https://football-logos.cc"></path><path d="M784.879 6438.55c32.164 0 58.328 26.17 58.328 58.33s-26.164 58.33-58.328 58.33-58.336-26.17-58.336-58.33 26.172-58.33 58.336-58.33M892.5 6500.68c32.164 0 58.328 26.16 58.328 58.32 0 32.17-26.164 58.34-58.328 58.34s-58.328-26.17-58.328-58.34c0-32.16 26.164-58.32 58.328-58.32M1010.63 6540.05c32.16 0 58.32 26.16 58.32 58.33 0 32.16-26.16 58.33-58.32 58.33-32.169 0-58.333-26.17-58.333-58.33 0-32.17 26.164-58.33 58.333-58.33" style="fill:#231f20;fill-opacity:1;fill-rule:nonzero;stroke:none" transform="matrix(.13333 0 0 -.13333 0 983.733)"></path><path d="M1127 6564.55c32.16 0 58.33 26.16 58.33 58.33 0 32.16-26.17 58.33-58.33 58.33s-58.33-26.17-58.33-58.33c0-32.17 26.17-58.33 58.33-58.33M1373.75 6569.8c32.16 0 58.33 26.17 58.33 58.33s-26.17 58.33-58.33 58.33-58.33-26.17-58.33-58.33 26.17-58.33 58.33-58.33M1584.63 6645.05c32.16 0 58.33 26.16 58.33 58.33 0 32.16-26.17 58.33-58.33 58.33-32.17 0-58.34-26.17-58.34-58.33 0-32.17 26.17-58.33 58.34-58.33M1696.63 6703.67c32.16 0 58.33 26.17 58.33 58.33s-26.17 58.33-58.33 58.33c-32.17 0-58.33-26.17-58.33-58.33s26.16-58.33 58.33-58.33M1816.5 6743.92c32.16 0 58.34 26.17 58.34 58.33s-26.18 58.34-58.34 58.34-58.33-26.18-58.33-58.34 26.17-58.33 58.33-58.33M1935.5 6758.8c32.17 0 58.33 26.16 58.33 58.33 0 32.16-26.16 58.33-58.33 58.33-32.16 0-58.33-26.17-58.33-58.33 0-32.17 26.17-58.33 58.33-58.33M2058 6756.17c32.17 0 58.33 26.17 58.33 58.33s-26.16 58.33-58.33 58.33c-32.16 0-58.33-26.17-58.33-58.33s26.17-58.33 58.33-58.33" style="fill:#231f20;fill-opacity:1;fill-rule:nonzero;stroke:none" transform="matrix(.13333 0 0 -.13333 0 983.733)"></path><path d="M2172.63 6731.67c32.16 0 58.33 26.17 58.33 58.33 0 32.17-26.17 58.34-58.33 58.34-32.17 0-58.33-26.17-58.33-58.34 0-32.16 26.16-58.33 58.33-58.33" style="fill:#231f20;fill-opacity:1;fill-rule:nonzero;stroke:none" transform="matrix(.13333 0 0 -.13333 0 983.733)"></path><path d="M4348.75 6021.46c-24.75 0-45.8-15.55-54.27-37.33 1.66 15.26 2.65 31.3 2.65 48.12 0 196.29-111.66 283.98-116.42 287.62l-9.83-9.22c-91.02 150.72-285.68 251.62-531.29 264.35 24.24 7.08 42.11 29.26 42.11 55.75 0 32.16-26.17 58.33-58.32 58.33-32.18 0-58.34-26.17-58.34-58.33 0-25.04 15.96-46.28 38.17-54.52-5.52.09-11 .27-16.59.27-26.89 0-101.96-10.19-105.14-10.62l-15.48-2.12.56-2.26c-7.65 3.71-16.13 5.96-25.18 5.96-17.91 0-33.77-8.28-44.48-21.03l-.6.93-32.98 20.55c5.1-1.45 10.36-2.49 15.93-2.49 32.16 0 58.33 26.17 58.33 58.33 0 32.17-26.17 58.34-58.33 58.34-32.17 0-58.34-26.17-58.34-58.34 0-20.62 10.83-38.68 27.03-49.05l-7.35-8.16C3253.3 6677.21 3097.3 6748 2911.7 6748c-197.79 0-326.45-80.43-331.84-83.86l-2.3-1.45-3.93-5.5c-.96 11.79-2.88 22.79-5.58 33.08 6.54-2.56 13.62-4.1 21.07-4.1 32.16 0 58.33 26.17 58.33 58.33s-26.17 58.33-58.33 58.33c-29.28 0-53.37-21.78-57.47-49.94-16.9 15.31-38.45 25.53-64.36 29.93 48.76 9.32 91.57 39.73 115.8 84.52l3.59 6.66h18.2v87.5h-2.44l-.14 1.35c-6.09 62.94-48.49 117.98-108.03 140.23l-4.89 1.83V7196h84v101.5h-84v80.5h-106.75v-80.5h-84V7196h84v-91.09l-4.9-1.83c-59.53-22.25-101.93-77.29-108.03-140.22l-.13-1.36h-2.44V6874h18.19l3.61-6.66c24.21-44.79 67.02-75.2 115.79-84.52-25.92-4.4-47.47-14.62-64.37-29.93-4.1 28.16-28.19 49.94-57.47 49.94-32.17 0-58.33-26.17-58.33-58.33s26.16-58.33 58.33-58.33c7.45 0 14.53 1.54 21.08 4.1-2.73-10.29-4.62-21.29-5.6-33.08l-3.93 5.5-2.29 1.45c-5.38 3.43-134.05 83.86-331.85 83.86-185.58 0-341.59-70.79-428.87-181.46l-7.36 8.17c16.2 10.36 27.03 28.43 27.03 49.04 0 32.17-26.18 58.34-58.34 58.34s-58.33-26.17-58.33-58.34c0-32.16 26.17-58.33 58.33-58.33 5.57 0 10.84 1.04 15.94 2.49l-30.34-18.9-2.66-1.65-.6-.93c-10.71 12.75-26.55 21.03-44.46 21.03-9.06 0-17.54-2.25-25.2-5.96l.57 2.26-15.48 2.12c-3.18.43-78.25 10.62-105.14 10.62-5.58 0-11.06-.18-16.59-.27 22.21 8.24 38.17 29.48 38.17 54.52 0 32.16-26.17 58.33-58.33 58.33-32.17 0-58.34-26.17-58.34-58.33 0-26.49 17.87-48.67 42.11-55.75-245.587-12.73-440.244-113.63-531.287-264.36l-9.828 9.23c-4.754-3.64-116.406-91.33-116.406-287.62 0-16.84.98-32.89 2.641-48.15-8.454 21.8-29.516 37.36-54.266 37.36-32.164 0-58.332-26.17-58.332-58.33s26.168-58.33 58.332-58.33c30.512 0 55.34 23.63 57.844 53.51 4.886-28.83 12.168-54.22 20.039-75.71-10.664 14.1-27.399 23.36-46.387 23.36-32.16 0-58.328-26.17-58.328-58.33 0-32.17 26.168-58.33 58.328-58.33 32.164 0 58.332 26.16 58.332 58.33 0 2.62-.437 5.11-.773 7.64 14.918-33.07 28.898-52.05 30.148-53.7l10.941-14.5 1.118 1.42 1.777-2.45c12.816-17.69 22.02-28.03 42.629-42.6l1.332-.94c-.816-1.48-1.293-2.37-1.293-2.37l-1.359-8.12 2.121-6.76c-13.66-1.5-25.528-5.25-35.801-10.6 3.746 7.71 6.035 16.23 6.035 25.35 0 32.17-26.168 58.34-58.332 58.34-32.16 0-58.328-26.17-58.328-58.34 0-32.16 26.168-58.33 58.328-58.33 6.309 0 12.27 1.26 17.965 3.13-16.442-22.44-23.57-49.35-24.934-68.03l-1.082-15.02h90.973c18.203-7.37 45.098-20.07 52.43-27.39l50.992-56.28 21.023-24.29c-14.074-20.68-7.375-56.68 17.805-87.48 27.336-33.42 64.906-46.45 87.75-31.49l119.373-134.13c21.26-21.29 59.58-32.69 108.46-32.69 9.4 0 18.2.77 26.61 1.96-5.08-1.6-8.1-2.6-8.42-2.71l-1.03-.36-.96-.51c-19.45-10.3-27.1-34.37-18.6-58.56 8.43-23.97 29.18-37.86 50.48-33.78l.92.17.89.31c.13.04.78.25 1.83.59l47.44-92.65-27.71-97.72 84.39-12.98 49.55-96.74c-18-8.97-27.93-14.49-28.56-14.84l-1.64-.94-1.34-1.34c-21.22-21.21-26.53-50.19-12.93-70.46 12.6-18.75 37.22-23.96 62.74-13.26 5.66 3.05 437.15 238.32 1059.96 238.32s1054.3-235.27 1058.59-237.64c26.89-11.38 51.5-6.17 64.1 12.58 13.61 20.27 8.3 49.24-12.92 70.46l-1.34 1.34-1.64.94c-.62.35-10.56 5.87-28.54 14.84l49.52 96.74 84.39 12.98-27.7 97.73 47.44 92.64c1.06-.34 1.7-.55 1.83-.59l.88-.31.93-.17c21.29-4.07 42.05 9.83 50.48 33.79 8.49 24.18.84 48.24-18.59 58.55l-.96.51-1.04.36c-.32.11-3.33 1.11-8.42 2.71 8.41-1.19 17.2-1.96 26.62-1.96 48.88 0 87.19 11.4 107.89 32.1.55.58 116.86 131.26 119.93 134.72 22.85-14.96 60.4-1.93 87.76 31.49 25.19 30.8 31.87 66.8 17.79 87.48l21.02 24.29 51 56.28c7.34 7.32 34.23 20.02 52.43 27.39h90.98l-1.09 15.02c-1.36 18.68-8.49 45.59-24.93 68.03 5.69-1.87 11.66-3.13 17.96-3.13 32.16 0 58.33 26.17 58.33 58.33 0 32.17-26.17 58.34-58.33 58.34-32.17 0-58.33-26.17-58.33-58.34 0-9.12 2.28-17.64 6.03-25.34-10.27 5.34-22.14 9.09-35.8 10.59l2.13 6.78-1.37 8.12-1.29 2.35 1.33.94c20.63 14.57 29.81 24.91 42.64 42.6l1.78 2.46 1.12-1.43 10.93 14.5c1.25 1.65 15.23 20.62 30.14 53.68-.33-2.52-.76-5.01-.76-7.62 0-32.17 26.16-58.33 58.33-58.33 32.15 0 58.32 26.16 58.32 58.33 0 32.16-26.17 58.33-58.32 58.33-18.99 0-35.73-9.26-46.37-23.35 7.86 21.49 15.13 46.86 20.03 75.68 2.5-29.88 27.32-53.49 57.84-53.49 32.16 0 58.32 26.17 58.32 58.33s-26.16 58.33-58.32 58.33M3598.88 6496c306.33 0 553-211.57 553-386.75 0-42.75-17.65-90.01-36.14-127.93-64 62.7-323.15 196.43-539.86 196.43-38.7 0-70.03-2.93-89.49-5.39l-.51-.06c-4.26 14.96-14.22 27.37-27.51 34.85l3.38 8.06c4.15-.94 8.45-1.54 12.88-1.54 32.15 0 58.32 26.17 58.32 58.33 0 29.96-22.77 54.43-51.88 57.68l.68 4.06c31.28 1.02 56.45 26.62 56.45 58.14 0 32.16-26.17 58.33-58.32 58.33-7.5 0-14.61-1.55-21.21-4.13l-1.47 7.17c20.28 5.77 36.09 22.07 40.89 42.75zm-1007.55 77 3.38 2.07c1.48.92 150.34 91.26 305.33 91.26 181.22 0 433.99-118.06 433.99-310.33 0-76.18-34.79-135.19-69.43-175.08l-11.27.7c-68.45 4.23-124.74 32.07-189.91 64.31-96.02 47.5-204.83 101.32-389.42 101.32-46.71 0-71.08-2.98-72.1-3.11l-.31-.04c-10.74 73.44-20.83 156.01-25 228.9zm-619.37 93.33c154.99 0 303.84-90.34 305.33-91.26l3.38-2.07h14.75c-4.19-72.89-14.28-155.46-25.02-228.9l-.31.04c-1.02.13-25.38 3.11-72.09 3.11-184.59 0-293.41-53.82-389.41-101.32-65.18-32.24-121.46-60.08-189.92-64.31l-11.27-.7c-34.64 39.89-69.44 98.9-69.44 175.08 0 192.27 252.78 310.33 434 310.33M1273.13 6496h100.79c4.79-20.68 20.6-36.98 40.9-42.75l-1.49-7.17c-6.59 2.58-13.7 4.13-21.2 4.13-32.17 0-58.34-26.17-58.34-58.33 0-31.54 25.2-57.15 56.5-58.15l.28-1.91.35-2.14c-29.09-3.25-51.88-27.72-51.88-57.68 0-32.16 26.17-58.33 58.34-58.33 4.43 0 8.72.6 12.87 1.54l.46-1.12 2.92-6.94c-13.3-7.49-23.28-19.9-27.52-34.88l-.49.09c-19.47 2.46-50.81 5.39-89.49 5.39-216.7 0-475.853-133.71-539.868-196.43-18.492 37.92-36.133 85.18-36.133 127.93 0 175.18 246.672 386.75 553.001 386.75" style="fill:#231f20;fill-opacity:1;fill-rule:nonzero;stroke:none" transform="matrix(.13333 0 0 -.13333 0 983.733)"></path><path d="M4294.79 6090c0-32.16 26.17-58.33 58.34-58.33 32.15 0 58.32 26.17 58.32 58.33 0 32.17-26.17 58.34-58.32 58.34-32.17 0-58.34-26.17-58.34-58.34M4266.79 6217.75c0-32.16 26.17-58.32 58.34-58.32 32.16 0 58.32 26.16 58.32 58.32 0 32.17-26.16 58.34-58.32 58.34-32.17 0-58.34-26.17-58.34-58.34M4206.42 6328.88c0-32.17 26.16-58.33 58.33-58.33 32.15 0 58.32 26.16 58.32 58.33 0 32.16-26.17 58.33-58.32 58.33-32.17 0-58.33-26.17-58.33-58.33M4126.79 6425.13c0-32.17 26.17-58.33 58.34-58.33 32.16 0 58.32 26.16 58.32 58.33 0 32.16-26.16 58.33-58.32 58.33-32.17 0-58.34-26.17-58.34-58.33" style="fill:#231f20;fill-opacity:1;fill-rule:nonzero;stroke:none" transform="matrix(.13333 0 0 -.13333 0 983.733)"></path><path d="M4087.13 6438.55c32.15 0 58.32 26.17 58.32 58.33s-26.17 58.33-58.32 58.33c-32.18 0-58.34-26.17-58.34-58.33s26.16-58.33 58.34-58.33M3979.5 6500.68c32.16 0 58.32 26.16 58.32 58.32 0 32.17-26.16 58.34-58.32 58.34s-58.34-26.17-58.34-58.34c0-32.16 26.18-58.32 58.34-58.32M3861.38 6540.05c32.16 0 58.32 26.16 58.32 58.33 0 32.16-26.16 58.33-58.32 58.33-32.17 0-58.34-26.17-58.34-58.33 0-32.17 26.17-58.33 58.34-58.33" style="fill:#231f20;fill-opacity:1;fill-rule:nonzero;stroke:none" transform="matrix(.13333 0 0 -.13333 0 983.733)"></path><path d="M3745 6564.55c32.16 0 58.32 26.16 58.32 58.33 0 32.16-26.16 58.33-58.32 58.33-32.17 0-58.34-26.17-58.34-58.33 0-32.17 26.17-58.33 58.34-58.33M3498.25 6569.8c32.16 0 58.32 26.17 58.32 58.33s-26.16 58.33-58.32 58.33-58.34-26.17-58.34-58.33 26.18-58.33 58.34-58.33M3287.38 6645.05c32.15 0 58.32 26.16 58.32 58.33 0 32.16-26.17 58.33-58.32 58.33-32.17 0-58.35-26.17-58.35-58.33 0-32.17 26.18-58.33 58.35-58.33M3175.37 6703.67c32.16 0 58.33 26.17 58.33 58.33s-26.17 58.33-58.33 58.33c-32.17 0-58.33-26.17-58.33-58.33s26.16-58.33 58.33-58.33M3055.5 6743.92c32.16 0 58.33 26.17 58.33 58.33s-26.17 58.34-58.33 58.34c-32.17 0-58.34-26.18-58.34-58.34s26.17-58.33 58.34-58.33M2936.5 6758.8c32.15 0 58.32 26.16 58.32 58.33 0 32.16-26.17 58.33-58.32 58.33-32.18 0-58.34-26.17-58.34-58.33 0-32.17 26.16-58.33 58.34-58.33M2814 6756.17c32.15 0 58.32 26.17 58.32 58.33s-26.17 58.33-58.32 58.33c-32.18 0-58.34-26.17-58.34-58.33s26.16-58.33 58.34-58.33" style="fill:#231f20;fill-opacity:1;fill-rule:nonzero;stroke:none" transform="matrix(.13333 0 0 -.13333 0 983.733)"></path><path d="M2699.38 6731.67c32.15 0 58.32 26.17 58.32 58.33 0 32.17-26.17 58.34-58.32 58.34-32.17 0-58.34-26.17-58.34-58.34 0-32.16 26.17-58.33 58.34-58.33M2432.5 4865C1091.21 4865 0 3773.79 0 2432.5 0 1091.22 1091.21 0 2432.5 0 3773.78 0 4865 1091.22 4865 2432.5 4865 3773.79 3773.78 4865 2432.5 4865m0-4585C1245.61 280 280 1245.61 280 2432.5S1245.61 4585 2432.5 4585 4585 3619.39 4585 2432.5 3619.39 280 2432.5 280" style="fill:#231f20;fill-opacity:1;fill-rule:nonzero;stroke:none" transform="matrix(.13333 0 0 -.13333 0 983.733)"></path><path d="M2432.5 4837C1104.53 4837 28.004 3760.47 28.004 2432.5 28.004 1104.54 1104.53 28.008 2432.5 28.008 3760.46 28.008 4837 1104.54 4837 2432.5 4837 3760.47 3760.46 4837 2432.5 4837m0-4584.996c-1202.33 0-2180.496 978.176-2180.496 2180.496 0 1202.34 978.166 2180.5 2180.496 2180.5 1202.34 0 2180.5-978.16 2180.5-2180.5 0-1202.32-978.16-2180.496-2180.5-2180.496" style="fill:#d29d2a;fill-opacity:1;fill-rule:nonzero;stroke:none" transform="matrix(.13333 0 0 -.13333 0 983.733)"></path><path d="M280 2432.5C280 1245.61 1245.61 280 2432.5 280S4585 1245.61 4585 2432.5 3619.39 4585 2432.5 4585 280 3619.39 280 2432.5" style="fill:#fff;fill-opacity:1;fill-rule:nonzero;stroke:none" transform="matrix(.13333 0 0 -.13333 0 983.733)"></path><path d="M336 2404.5C336 3591.39 1301.61 4557 2488.5 4557c332.55 0 647.72-75.84 929.17-211.08-295.38 152.7-630.36 239.08-985.17 239.08C1245.61 4585 280 3619.39 280 2432.5c0-853.1 498.922-1591.758 1220.24-1939.812C809.223 851.34 336 1573.66 336 2404.5" style="fill:#637e9e;fill-opacity:1;fill-rule:nonzero;stroke:none" transform="matrix(.13333 0 0 -.13333 0 983.733)"></path><path d="M2649.72 487.98C3997 1029 4648 2198.01 3980.95 3627.16 4236.68 3296.45 4389 2881.93 4389 2432.5c0-1005.41-762.3-1836.113-1739.28-1944.52" style="fill:#d3dfe6;fill-opacity:1;fill-rule:nonzero;stroke:none" transform="matrix(.13333 0 0 -.13333 0 983.733)"></path><path d="M3405.51 1874.47v478.26c10.32 12.97 83.94 105.57 83.94 105.57s-75.07 106.91-83.94 119.55v298.36c504.74-141.16 915.97-336.37 922.39-339.44l76.27-36.54-461.29 876.43-4.2-104.43c-.27-6.9-10-168.89-289.33-168.89-105.74 0-174.47 17.81-243.84 43.3v516.01c23.45 65.92 89.04 131.8 89.7 132.47l48.2 47.87-67.9.01H2832.6l69.99-50.68c.89-.66 87.64-64.17 135.42-133.38v-394.6c-84.66 16.46-188.31 29.84-320.26 37.46v864.7c12.18 32.96 88.61 119.75 140.68 172.5l47.05 47.67h-745.32l56.95-49.26c.6-.52 59.72-52.93 102.22-170.68v-860.06c-117.01-3.42-222.22-11.19-317.33-22.74v375.01c47.77 69.21 134.51 132.72 135.41 133.38l70 50.68h-710.82l48.19-47.88c.67-.67 66.26-66.55 89.72-132.47v-455.01c-327.04-104.03-478.63-275.56-635.629-453.25l-6.484-7.35.191.22-58.652-69.19c-82.77-99.76-160.953-193.99-330.328-277.63l-50.84-25.1 50.84-25.1c169.375-83.63 247.558-177.86 330.328-277.63l58.652-69.18 6.293-7.13c156.999-177.69 308.589-349.23 635.629-453.24v-27.55c0-206.77 257-427.74 684.83-481.27V863.613c-10.75-13.84-159.91-205.605-159.91-205.605H2894s-164.05 192.043-176.25 206.328v169.514c429.61 52.86 687.76 274.41 687.76 481.66v88.53c69.37 25.5 138.1 43.3 243.84 43.3 279.33 0 289.06-162 289.33-168.88l4.18-104.2 48.58 92.04 412.73 784.16-76.27-36.54c-6.42-3.08-417.65-198.28-922.39-339.45m-367.5 1089.12v-387.48c-6.04-11.11-63.84-117.64-63.84-117.64s56.66-92.21 63.84-103.88v-567.51c-106.78-20.51-214.36-36.48-320.26-45.97v575.48c6.64 11.69 81.09 142.52 81.09 142.52l-81.09 147.42v403.04c105.9-9.47 213.48-25.47 320.26-45.98m-718.68 48.27v-404.4c-7.86-12.4-93.96-148.38-93.96-148.38s85.72-130.87 93.96-143.43v-576.83c-111.92 8.65-218.51 24.53-317.33 46.04v569.73l63.82 103.88S2008.03 2565 2002 2576.11v389.72c98.82 21.51 205.41 37.37 317.33 46.03m-984.66-813.85c0 81.79 103.39 153.48 104.44 154.2l33.78 23.1-33.78 23.17c-1.05.71-104.44 72.4-104.44 154.2 0 98.18 113.31 205.82 299.83 292.96v-267.79c-8.87-12.64-83.94-119.55-83.94-119.55s73.62-92.6 83.94-105.57v-447.69c-186.52 87.15-299.83 194.78-299.83 292.97m741.08-739.24c75.07-7.2 156.01-12.2 243.58-14.75v-113.75c-108.27 28.32-190.13 77.39-243.58 128.5m642-129.3v119.43c103.92 5.98 190.29 15.56 263.64 27.41-52.71-57.63-141.48-115.46-263.64-146.84" style="fill:#5b758a;fill-opacity:1;fill-rule:nonzero;stroke:none" transform="matrix(.13333 0 0 -.13333 0 983.733)"></path><path d="M3321.5 1874.47v478.26c10.32 12.97 83.95 105.57 83.95 105.57s-75.08 106.91-83.95 119.55v298.36c504.74-141.16 915.97-336.37 922.39-339.44l76.28-36.54-461.29 876.43-4.2-104.43c-.28-6.9-10-168.89-289.34-168.89-105.73 0-174.47 17.81-243.84 43.3v516.01c23.46 65.92 89.05 131.8 89.71 132.47l48.19 47.87-67.9.01h-642.91l70-50.68c.89-.66 87.63-64.17 135.41-133.38v-394.6c-84.65 16.46-188.31 29.84-320.25 37.46v864.7c12.18 32.96 88.61 119.75 140.68 172.5l47.05 47.67h-745.32l56.95-49.26c.6-.52 59.72-52.93 102.22-170.68v-860.06c-117.01-3.42-222.22-11.19-317.33-22.74v375.01c47.78 69.21 134.51 132.72 135.41 133.38l70 50.68h-710.82l48.19-47.88c.67-.67 66.26-66.55 89.72-132.47v-455.01c-327.04-104.03-478.63-275.56-635.625-453.25l-6.484-7.35.187.22-58.652-69.19c-82.77-99.76-160.949-193.99-330.324-277.63l-50.84-25.1 50.84-25.1c169.375-83.63 247.554-177.86 330.324-277.63l58.652-69.18 6.297-7.13c156.995-177.69 308.585-349.23 635.625-453.24v-27.55c0-206.77 257-427.74 684.83-481.27V863.613c-10.75-13.84-159.91-205.605-159.91-205.605h734.57s-164.04 192.043-176.24 206.328v169.514c429.6 52.86 687.75 274.41 687.75 481.66v88.53c69.37 25.5 138.11 43.3 243.84 43.3 279.34 0 289.06-162 289.34-168.88l4.18-104.2 48.57 92.04 412.74 784.16-76.28-36.54c-6.42-3.08-417.65-198.28-922.39-339.45M2954 2963.59v-387.48c-6.03-11.11-63.83-117.64-63.83-117.64s56.65-92.21 63.83-103.88v-567.51c-106.77-20.51-214.35-36.48-320.25-45.97v575.48c6.64 11.69 81.09 142.52 81.09 142.52l-81.09 147.42v403.04c105.9-9.47 213.48-25.47 320.25-45.98m-718.67 48.27v-404.4c-7.86-12.4-93.96-148.38-93.96-148.38s85.72-130.87 93.96-143.43v-576.83c-111.92 8.65-218.51 24.53-317.33 46.04v569.73l63.82 103.88S1924.03 2565 1918 2576.11v389.72c98.82 21.51 205.41 37.37 317.33 46.03m-984.66-813.85c0 81.79 103.39 153.48 104.44 154.2l33.78 23.1-33.78 23.17c-1.05.71-104.44 72.4-104.44 154.2 0 98.18 113.31 205.82 299.83 292.96v-267.79c-8.87-12.64-83.94-119.55-83.94-119.55s73.62-92.6 83.94-105.57v-447.69c-186.52 87.15-299.83 194.78-299.83 292.97m741.08-739.24c75.07-7.2 156.02-12.2 243.58-14.75v-113.75c-108.26 28.32-190.13 77.39-243.58 128.5m642-129.3v119.43c103.92 5.98 190.28 15.56 263.63 27.41-52.7-57.63-141.47-115.46-263.63-146.84" style="fill:#231f20;fill-opacity:1;fill-rule:nonzero;stroke:none" transform="matrix(.13333 0 0 -.13333 0 983.733)"></path><path d="M2426.66 1703.34c-181.06 0-353.6 19.82-508.66 53.36V1589c0-27.68 15.22-62.92 44.77-99.05 120.57-12.92 256.98-19.95 412.57-19.95 245.91 0 418.84 16.13 548.42 39.36 19.94 29.16 30.24 56.95 30.24 79.64v169.25c-176.98-33.61-356.44-54.91-527.34-54.91M2633.75 3037.77c771-67.84 1622.25-475.76 1622.25-475.76l-373.33 709.34s-4.67-196.01-317.33-196.01c-323.81 0-318.98 162.49-931.59 198.37zM1222.67 2198.01c0 98 116.66 177.33 116.66 177.33s-116.66 79.34-116.66 177.34c0 210.28 443.46 443.26 1012.66 487.25v238.71c-849.33-25.12-1069.01-282.02-1305.767-549.92-108.297-122.55-182.891-247.38-397.559-353.38 214.668-105.99 289.262-230.84 397.559-353.38 154.417-174.73 301.617-344.77 620.937-448.89v302.35c-202.64 92.78-327.83 210.89-327.83 322.59M3321.5 1633.84c68.23 24.35 138.71 41.5 243.84 41.5 312.66 0 317.33-195.99 317.33-195.99L4256 2188.66s-418.57-200.57-934.5-343.84z" style="fill:#d29d2a;fill-opacity:1;fill-rule:nonzero;stroke:none" transform="matrix(.13333 0 0 -.13333 0 983.733)"></path><path d="M2263.33 4172.01V2599.34l-88.66-139.99 88.66-135.35v-587.14c53.4-3.54 107.85-5.52 163.33-5.52 58.75 0 118.61 2.64 179.09 7.4V2324l77 135.35-77 139.99v1572.67c15.6 51.79 148.75 186.66 148.75 186.66h-603.17s65.92-55.99 112-186.66M2605.75 1447.36c-68.96-3.44-145.32-5.36-230.41-5.36-38.52 0-75.75.47-112.01 1.3V854.004l-130.66-167.996h616.58l-143.5 167.996z" style="fill:#d29d2a;fill-opacity:1;fill-rule:nonzero;stroke:none" transform="matrix(.13333 0 0 -.13333 0 983.733)"></path><path d="M2263.33 4172.01V2599.34l-88.66-139.99 88.66-135.35v-587.14c53.4-3.54 107.85-5.52 163.33-5.52 58.75 0 118.61 2.64 179.09 7.4V2324l77 135.35-77 139.99v1572.67c15.6 51.79 148.75 186.66 148.75 186.66h-603.17s65.92-55.99 112-186.66M2605.75 1447.36c-68.96-3.44-145.32-5.36-230.41-5.36-38.52 0-75.75.47-112.01 1.3V854.004l-130.66-167.996h616.58l-143.5 167.996zM2982 3668v-409.34c122.57-26.05 203.69-58.43 276.34-87.47 11.98-4.78 23.65-9.44 35.16-13.94V3668c24.77 74.46 98 147 98 147H2835s96.82-70 147-147" style="fill:#d29d2a;fill-opacity:1;fill-rule:nonzero;stroke:none" transform="matrix(.13333 0 0 -.13333 0 983.733)"></path><path d="M3293.5 2883.95c-101.19 27.69-205.81 53.05-311.5 74.16V2569l-59.5-109.65 59.5-96.85V1589c0-87.33-118.53-233.03-348.25-288.77v-238.3c424.3 52.74 659.75 271.34 659.75 453.58v846.99l77 96.85-77 109.65zM1578.5 3216.25c89.84 26.7 192.59 48.45 311.5 64.14V3668c50.17 77 147 147 147 147h-556.5s73.22-72.54 98-147zM1890 1589v773.5l59.5 96.85L1890 2569v390.4c-116.56-27.01-221.68-61.69-311.5-101.16V2569l-77-109.65 77-96.85v-846.99c0-181.82 234.39-399.79 656.83-453.19v238.62C2007.52 1357.2 1890 1502.04 1890 1589" style="fill:#d29d2a;fill-opacity:1;fill-rule:nonzero;stroke:none" transform="matrix(.13333 0 0 -.13333 0 983.733)"></path><path d="M1578.5 3216.25c89.84 26.7 192.59 48.45 311.5 64.14V3668c50.17 77 147 147 147 147h-556.5s73.22-72.54 98-147zM1890 1589v773.5l59.5 96.85L1890 2569v390.4c-116.56-27.01-221.68-61.69-311.5-101.16V2569l-77-109.65 77-96.85v-846.99c0-181.82 234.39-399.79 656.83-453.19v238.62C2007.52 1357.2 1890 1502.04 1890 1589" style="fill:#d29d2a;fill-opacity:1;fill-rule:nonzero;stroke:none" transform="matrix(.13333 0 0 -.13333 0 983.733)"></path><path d="M2382.18 6961.55v128.47c-53.7-20.08-93.26-69.33-99-128.47zM2488.95 7090.02v-128.47h98.98c-5.72 59.14-45.29 108.39-98.98 128.47M2300.79 6874.05c25.91-47.89 76.59-80.5 134.78-80.5 58.16 0 108.84 32.61 134.76 80.5z" style="fill:#246bab;fill-opacity:1;fill-rule:nonzero;stroke:none" transform="matrix(.13333 0 0 -.13333 0 983.733)"></path><path d="M2590.88 6888v59.5h-115.51V7210h84.01v73.5h-84.01v80.5h-78.75v-80.5h-83.99V7210h83.99v-262.5h-115.49V6888zM892.98 5494.02l5.649 39.48c20.996 111.13-7.004 178.5-71.754 178.5l-10.496-59.5s-33.254 59.5-103.254 59.5c-87.5 0-94.496-96.25-94.496-96.25h78.75s46.371-18.37 59.496-31.5c23.516-23.51 39.078-42.67 72.355-80.89 16.715 10.73 41.106 6.74 63.75-9.34M1192.63 5572c-68.25 26.25-152.25 0-152.25 0s16.62 51.63 0 87.5c-91.88-39.37-129.505-159.25-129.505-159.25l-4.547-11.82-.687-4.82a128 128 0 0 0 11.07-11.93c11.844-14.47 19.348-30.06 22.797-44.72l13.031-7.58c27.539-5.44 107.261-18.95 189.341-11.88-7.88 46.38-49 64.75-49 64.75s73.5 29.75 99.75 99.75M1544.02 5717.36c16.35 14.75 37.91 23.81 61.61 23.81a91.6 91.6 0 0 0 43.4-10.9l3.85 7.98s39.5 120.95 45.5 197.75c-56 0-66.5-33.25-66.5-33.25s-26.25 87.5-82.25 112c-44.63-44.62-35-134.75-35-134.75s-33.9 7.68-61.25 0c0-50.75 85.75-154 85.75-154zM1661.36 5722.23c22.09-16.84 36.43-43.36 36.43-73.23 0-12.66-2.56-24.73-7.21-35.72l4.3-1.03s40.25-38.5 159.25-28c0 54.25-31.5 64.75-31.5 64.75s94.5 33.25 113.75 85.75c-47.25 33.25-129.5 31.5-129.5 31.5s8.75 45.5 0 73.5c-84-19.25-140-112-140-112zM1416.63 5559.75V5481l133.8 94.37c-22.4 16.83-36.97 43.53-36.97 73.63 0 22.3 7.96 42.77 21.19 58.73l-5.15 5.15s-70.87 51.62-153.12 41.12c1.91-49.08 24.5-82.25 24.5-82.25s-62.13-.87-105-71.75c52.5-52.5 120.75-40.25 120.75-40.25" style="fill:#cc9f3f;fill-opacity:1;fill-rule:nonzero;stroke:none" transform="matrix(.13333 0 0 -.13333 0 983.733)"></path><path d="M905.875 5462.83c23.25-28.44 29.07-62.14 12.988-75.3-16.09-13.15-47.98-.78-71.23 27.65-23.258 28.43-29.07 62.14-12.988 75.3 16.085 13.15 47.972.77 71.23-27.65" style="fill:#d55124;fill-opacity:1;fill-rule:nonzero;stroke:none" transform="matrix(.13333 0 0 -.13333 0 983.733)"></path><path d="M1300.14 5465.43c7.73-30.94-.46-59.63-18.27-64.08-17.82-4.45-38.52 17.03-46.26 47.98-7.72 30.94.46 59.63 18.27 64.07 17.82 4.46 38.52-17.02 46.26-47.97M2061.37 5612.11c2.81-31.77-9.75-58.84-28.05-60.45-18.29-1.61-35.39 22.83-38.19 54.61-2.81 31.78 9.75 58.82 28.05 60.44 18.29 1.62 35.39-22.82 38.19-54.6" style="fill:#fff;fill-opacity:1;fill-rule:nonzero;stroke:none" transform="matrix(.13333 0 0 -.13333 0 983.733)"></path><path d="M1683.79 5649c0-43.16-35-78.16-78.16-78.16-43.17 0-78.17 35-78.17 78.16 0 43.17 35 78.17 78.17 78.17 43.16 0 78.16-35 78.16-78.17" style="fill:#d55124;fill-opacity:1;fill-rule:nonzero;stroke:none" transform="matrix(.13333 0 0 -.13333 0 983.733)" data-source="https://football-logos.cc"></path><path d="M1388.63 6552s-77 10.5-103.25 10.5c-364.001 0-626.501-192.5-626.501-453.25 0-131.25 70-213.5 70-213.5l-61.25-101.5c12.684-17.5 21-26.39 39.375-39.37L786.625 5901s-80.496 113.18-80.496 208.25c0 189 260.746 400.75 567.001 400.75h105z" style="fill:#cc9f3f;fill-opacity:1;fill-rule:nonzero;stroke:none" transform="matrix(.13333 0 0 -.13333 0 983.733)"></path><path d="M684.309 5849c12.289 20.36 24.097 39.93 27.668 45.85-17.485 23.7-67.098 100.72-67.098 214.4 0 72.35 19.398 139.32 54.664 198.73l.254.77s-110.918-84.87-110.918-276.5c0-136.5 64.75-222.25 64.75-222.25zM1971.96 6680.33c160.99 0 312.67-93.33 312.67-93.33h11.54c.76 16.46 1.23 32.34 1.27 47.39l-12.81 17.95S2156.29 6734 1960.29 6734c-298.66 0-490-177.32-490-380.33 0-153.99 119.01-254.33 119.01-254.33l-35-56-1.29-14.79 2.23-.97c13.11-5.74 24.47-14.51 34.53-24.53l8.86 2.95 70 102.67S1523.95 6195 1523.95 6356c0 198.33 251.99 324.33 448.01 324.33" style="fill:#cc9f3f;fill-opacity:1;fill-rule:nonzero;stroke:none" transform="matrix(.13333 0 0 -.13333 0 983.733)"></path><path d="M1488.95 6509.13c0-5.63-1.04-10.96-2.54-16.11 11.5 25.29 26.06 49.25 43.45 71.59l-44.11-27.48-2.32-3.59c3.46-7.45 5.52-15.67 5.52-24.41M1500.33 6156.5c0-21.49-11.82-40.1-29.17-50.21l.59-1.41 7.95-6.7c6.28 2.32 12.98 3.78 20.05 3.78 23.65 0 43.97-14.21 53.12-34.5 6.59 10.56 14.22 22.76 18.39 29.43-28.51 27.33-114.97 121.31-114.97 256.78 0 45.24 9.06 88.12 25.45 127.94-9.88-18.25-28.95-30.81-51.11-30.81-.24 0-.46.06-.69.06l-1.94-2.98-1.84-8.84c14.65-10.61 24.3-27.74 24.3-47.16 0-27.89-19.71-51.22-45.91-56.93l-.17-.82.76-4.58c28.47-3.84 50.57-28.04 50.57-57.55 0-22.71-13.19-42.23-32.19-51.85l.11-.65 2.94-7c4.95 1.37 10.05 2.34 15.43 2.34 32.16 0 58.33-26.17 58.33-58.34" style="fill:#cc9f3f;fill-opacity:1;fill-rule:nonzero;stroke:none" transform="matrix(.13333 0 0 -.13333 0 983.733)"></path><path d="M655.957 5740c0-24.48-19.844-44.32-44.332-44.32-24.484 0-44.328 19.84-44.328 44.32 0 24.49 19.844 44.34 44.328 44.34 24.488 0 44.332-19.85 44.332-44.34M599.082 5847.63c0-24.49-19.844-44.33-44.332-44.33-24.484 0-44.328 19.84-44.328 44.33 0 24.48 19.844 44.33 44.328 44.33 24.488 0 44.332-19.85 44.332-44.33M567.582 5963.13c0-24.49-19.844-44.33-44.328-44.33-24.488 0-44.332 19.84-44.332 44.33 0 24.48 19.844 44.33 44.332 44.33 24.484 0 44.328-19.85 44.328-44.33M563.207 6090c0-24.48-19.844-44.32-44.328-44.32-24.488 0-44.332 19.84-44.332 44.32 0 24.49 19.844 44.34 44.332 44.34 24.484 0 44.328-19.85 44.328-44.34M591.207 6217.75c0-24.48-19.844-44.33-44.332-44.33s-44.332 19.85-44.332 44.33c0 24.49 19.844 44.34 44.332 44.34s44.332-19.85 44.332-44.34M651.582 6328.88c0-24.49-19.844-44.33-44.332-44.33-24.484 0-44.328 19.84-44.328 44.33 0 24.48 19.844 44.33 44.328 44.33 24.488 0 44.332-19.85 44.332-44.33M731.207 6425.13c0-24.49-19.844-44.33-44.332-44.33s-44.332 19.84-44.332 44.33c0 24.48 19.844 44.33 44.332 44.33s44.332-19.85 44.332-44.33M829.211 6496.88c0-24.49-19.852-44.33-44.332-44.33-24.488 0-44.332 19.84-44.332 44.33 0 24.48 19.844 44.33 44.332 44.33 24.48 0 44.332-19.85 44.332-44.33M936.832 6559c0-24.48-19.844-44.33-44.332-44.33s-44.332 19.85-44.332 44.33c0 24.49 19.844 44.34 44.332 44.34s44.332-19.85 44.332-44.34M1054.96 6598.38c0-24.49-19.85-44.33-44.33-44.33-24.493 0-44.337 19.84-44.337 44.33s19.844 44.33 44.337 44.33c24.48 0 44.33-19.84 44.33-44.33M1171.33 6622.88c0-24.49-19.84-44.33-44.33-44.33-24.48 0-44.33 19.84-44.33 44.33 0 24.48 19.85 44.33 44.33 44.33 24.49 0 44.33-19.85 44.33-44.33M1292.96 6630.75c0-24.48-19.85-44.33-44.33-44.33-24.49 0-44.33 19.85-44.33 44.33 0 24.49 19.84 44.33 44.33 44.33 24.48 0 44.33-19.84 44.33-44.33M1418.08 6628.13c0-24.49-19.84-44.33-44.33-44.33s-44.33 19.84-44.33 44.33c0 24.48 19.84 44.33 44.33 44.33s44.33-19.85 44.33-44.33M1544.08 6043.63c0-24.49-19.84-44.33-44.33-44.33-24.48 0-44.33 19.84-44.33 44.33 0 24.48 19.85 44.33 44.33 44.33 24.49 0 44.33-19.85 44.33-44.33M1486.33 6156.5c0-24.48-19.84-44.33-44.33-44.33-24.48 0-44.33 19.85-44.33 44.33 0 24.49 19.85 44.34 44.33 44.34 24.49 0 44.33-19.85 44.33-44.34M1441.71 6272c0-24.48-19.85-44.33-44.33-44.33-24.49 0-44.33 19.85-44.33 44.33 0 24.49 19.84 44.33 44.33 44.33 24.48 0 44.33-19.84 44.33-44.33M1436.45 6391.88c0-24.49-19.84-44.33-44.32-44.33-24.49 0-44.34 19.84-44.34 44.33 0 24.48 19.85 44.33 44.34 44.33 24.48 0 44.32-19.85 44.32-44.33M1474.96 6509.13c0-24.49-19.85-44.33-44.33-44.33-24.49 0-44.34 19.84-44.34 44.33 0 24.48 19.85 44.33 44.34 44.33 24.48 0 44.33-19.85 44.33-44.33M1537.08 6623.75c0-24.48-19.85-44.32-44.33-44.32s-44.33 19.84-44.33 44.32c0 24.49 19.85 44.34 44.33 44.34s44.33-19.85 44.33-44.34M1628.95 6703.38c0-24.49-19.84-44.33-44.32-44.33-24.49 0-44.34 19.84-44.34 44.33s19.85 44.33 44.34 44.33c24.48 0 44.32-19.84 44.32-44.33M1740.96 6762c0-24.48-19.85-44.33-44.33-44.33-24.49 0-44.33 19.85-44.33 44.33 0 24.49 19.84 44.33 44.33 44.33 24.48 0 44.33-19.84 44.33-44.33M1860.83 6802.25c0-24.48-19.85-44.33-44.33-44.33s-44.33 19.85-44.33 44.33c0 24.49 19.85 44.33 44.33 44.33s44.33-19.84 44.33-44.33M1979.84 6817.13c0-24.49-19.86-44.33-44.34-44.33s-44.33 19.84-44.33 44.33 19.85 44.33 44.33 44.33 44.34-19.84 44.34-44.33M2102.34 6814.5c0-24.48-19.86-44.33-44.34-44.33s-44.33 19.85-44.33 44.33c0 24.49 19.85 44.33 44.33 44.33s44.34-19.84 44.34-44.33M2216.96 6790c0-24.48-19.85-44.32-44.33-44.32-24.49 0-44.33 19.84-44.33 44.32 0 24.49 19.84 44.34 44.33 44.34 24.48 0 44.33-19.85 44.33-44.34M2327.2 6744.5c0-24.48-19.84-44.33-44.32-44.33-24.49 0-44.33 19.85-44.33 44.33 0 24.49 19.84 44.33 44.33 44.33 24.48 0 44.32-19.84 44.32-44.33" style="fill:#fff;fill-opacity:1;fill-rule:nonzero;stroke:none" transform="matrix(.13333 0 0 -.13333 0 983.733)"></path><path d="M2436 4966.5c634.1 0 1065.38-239.41 1065.38-239.41 45.51-19.08 68.62 26.79 34.5 60.91 0 0-437.5 248.5-1099.88 248.5-662.37 0-1099.87-248.5-1099.87-248.5-34.13-34.12-11.01-79.99 34.49-60.91 0 0 431.28 239.41 1065.38 239.41" style="fill:#cc9f3f;fill-opacity:1;fill-rule:nonzero;stroke:none" transform="matrix(.13333 0 0 -.13333 0 983.733)"></path><path d="M3654.3 5119.26c-83.42 24.8-507.82 139.49-1218.3 139.49s-1134.87-114.69-1218.3-139.49l46.56-90.92h157.7l-97.58-117.41 45.95-89.74c124.12 60.16 521.48 229.31 1065.67 229.31s941.54-169.15 1065.67-229.31l45.95 89.74-97.59 117.41h157.7zm-2104.67-129.42c-29.59 0-53.67 24.07-53.67 53.66 0 29.6 24.08 53.67 53.67 53.67 29.58 0 53.66-24.07 53.66-53.67 0-29.59-24.08-53.66-53.66-53.66m382.75 86.08-173.47-30.69c-12.73-2.26-25.58.59-36.18 7.99-10.6 7.42-17.68 18.51-19.94 31.25-4.65 26.29 12.96 51.45 39.25 56.11l173.47 30.69c26.28 4.64 51.46-12.95 56.11-39.24s-12.96-51.45-39.24-56.11m179.58 13.09c-29.6 0-53.67 24.07-53.67 53.66 0 29.6 24.07 53.67 53.67 53.67 29.59 0 53.66-24.07 53.66-53.67 0-29.59-24.07-53.66-53.66-53.66m450.91 19.82h-254.32c-24.13 0-43.75 19.63-43.75 43.75 0 24.13 19.62 43.75 43.75 43.75h254.32c24.12 0 43.75-19.62 43.75-43.75 0-24.12-19.63-43.75-43.75-43.75m197.17-19.82c-29.59 0-53.66 24.07-53.66 53.66 0 29.6 24.07 53.67 53.66 53.67 29.6 0 53.67-24.07 53.67-53.67 0-29.59-24.07-53.66-53.67-53.66m409.16-4.53c-2.25-12.75-9.32-23.84-19.92-31.26-10.63-7.4-23.45-10.25-36.18-7.99l-173.47 30.69c-26.29 4.66-43.9 29.82-39.25 56.11v.01c4.66 26.28 29.83 43.87 56.1 39.23l173.49-30.69c26.28-4.66 43.88-29.82 39.23-56.1m153.18-94.64c-29.59 0-53.67 24.07-53.67 53.66 0 29.6 24.08 53.67 53.67 53.67 29.58 0 53.66-24.07 53.66-53.67 0-29.59-24.08-53.66-53.66-53.66" style="fill:#cc9f3f;fill-opacity:1;fill-rule:nonzero;stroke:none" transform="matrix(.13333 0 0 -.13333 0 983.733)"></path><path d="M2436 5272.75c804.54 0 1238.17-144.96 1238.17-144.96 32.52-6.22 52.45 50.46 22.71 66.21 0 0-432.25 148.75-1260.88 148.75-828.62 0-1260.87-148.75-1260.87-148.75-29.75-15.75-9.82-72.43 22.7-66.21 0 0 433.63 144.96 1238.17 144.96M3979.02 5494.02l-5.64 39.48c-21 111.13 6.99 178.5 71.75 178.5l10.5-59.5s33.25 59.5 103.25 59.5c87.5 0 94.5-96.25 94.5-96.25h-78.75s-46.38-18.37-59.5-31.5c-23.52-23.51-39.08-42.67-72.36-80.89-16.72 10.73-41.11 6.74-63.75-9.34M3679.38 5572c68.25 26.25 152.24 0 152.24 0s-16.62 51.63 0 87.5c91.88-39.37 129.51-159.25 129.51-159.25l4.53-11.82.7-4.82c-3.83-3.63-7.53-7.6-11.08-11.93-11.83-14.47-19.34-30.06-22.78-44.72l-13.05-7.58c-27.54-5.44-107.25-18.95-189.32-11.88 7.87 46.38 48.99 64.75 48.99 64.75s-73.49 29.75-99.74 99.75M3327.98 5717.36c-16.35 14.75-37.91 23.81-61.6 23.81a91.6 91.6 0 0 1-43.41-10.9l-3.85 7.98s-39.49 120.95-45.49 197.75c56 0 66.5-33.25 66.5-33.25s26.25 87.5 82.25 112c44.62-44.62 35-134.75 35-134.75s33.89 7.68 61.25 0c0-50.75-85.76-154-85.76-154zM3210.64 5722.23c-22.09-16.84-36.44-43.36-36.44-73.23 0-12.66 2.57-24.73 7.22-35.72l-4.29-1.03s-40.25-38.5-159.26-28c0 54.25 31.51 64.75 31.51 64.75s-94.5 33.25-113.75 85.75c47.24 33.25 129.5 31.5 129.5 31.5s-8.75 45.5 0 73.5c83.99-19.25 140-112 140-112zM2310.88 5993.75c0-77 73.5-190.75 73.5-190.75l2.18-4.8c14.3 9.14 31.24 14.51 49.44 14.51s35.13-5.38 49.44-14.52l2.19 4.81s73.5 113.75 73.5 190.75c-63 0-70-14-70-14s14.44 66.94-55.13 136.5c-69.56-69.56-55.12-136.5-55.12-136.5s-7 14-70 14M2505.13 5794.25l-8.31-4.64c19.16-16.9 31.34-41.57 31.34-69.08 0-14.03-3.25-27.31-8.88-39.23l12.1-6.05s40.24-63 183.75-63c5.24 61.25-15.75 84-15.75 84s70-7 115.5 52.5c-36.75 68.25-129.51 68.25-129.51 68.25s25.38 32.38 19.26 77c-164.5-14-199.5-99.75-199.5-99.75M2172.63 5696.25s-21-22.75-15.75-84c143.5 0 183.75 63 183.75 63l12.08 6.04c-5.63 11.93-8.88 25.21-8.88 39.24 0 27.52 12.18 52.18 31.35 69.08l-8.3 4.64s-35 85.75-199.5 99.75c-6.13-44.62 19.25-77 19.25-77s-92.75 0-129.5-68.25c45.5-59.5 115.5-52.5 115.5-52.5" style="fill:#cc9f3f;fill-opacity:1;fill-rule:nonzero;stroke:none" transform="matrix(.13333 0 0 -.13333 0 983.733)"></path><path d="m3930.47 5409.59-9.59-5.59s-106.76-124.25-194.26-124.25c-97.99 0-118.99 99.75-118.99 99.75v9.64c-6.98-2.55-14.08-3.07-20.89-1.37-4.44 1.11-8.53 3.14-12.23 5.92l-1.88-3.69s-42-56-113.75-56c-180.15 0-188.46 207.26-190.15 222.95-.8-.01-1.56-.11-2.35-.11-16.91 0-32.7 4.64-46.32 12.61-.02 0-6.18-11.45-6.18-11.45s-47.26-168-180.25-168c-126.02 0-182.01 140-182.01 140l-1.44 9.15c-4.17-1.24-8.44-1.81-12.73-1.43-4.77.42-9.32 1.84-13.56 4.18l-3.76-11.9s-52.5-112-161.01-112c-106.74 0-197.74 133-197.74 210v4c-8.07-2.32-16.58-3.64-25.38-3.64s-17.31 1.32-25.37 3.64v-4c0-77-91-210-197.75-210-108.5 0-161 112-161 112l-3.77 11.9c-4.23-2.34-8.79-3.76-13.56-4.18-4.3-.38-8.57.19-12.73 1.43l-1.44-9.15s-55.99-140-182-140c-133 0-180.25 168-180.25 168s-6.17 11.45-6.19 11.45c-13.62-7.97-29.42-12.61-46.31-12.61-.79 0-1.57.1-2.36.11-1.69-15.69-10-222.95-190.14-222.95-71.75 0-113.75 56-113.75 56l-1.89 3.69c-3.7-2.78-7.79-4.81-12.23-5.92-6.82-1.7-13.91-1.18-20.88 1.37v-9.64s-21-99.75-119-99.75c-87.5 0-194.251 124.25-194.251 124.25l-9.606 5.59c-.113-9.54-2.187-18.23-6.812-25.15C998.219 5313.1 1054.38 5250 1054.38 5250c16.62-16.62 50.75-28 98-28 112 0 145.25 98 145.25 98s24.5-42 126-42c169.75 0 217 168 217 168s59.51-112 206.5-112c145.25 0 192.5 112 192.5 112s45.5-84 182-84c166.24 0 214.37 152.25 214.37 152.25S2484.12 5362 2650.37 5362c136.51 0 182.01 84 182.01 84s47.25-112 192.5-112c146.98 0 206.5 112 206.5 112s47.25-168 217-168c101.5 0 126 42 126 42s33.25-98 145.25-98c47.25 0 81.37 11.38 98 28 0 0 56.15 63.1 119.66 134.44-4.63 6.92-6.7 15.61-6.82 25.15" style="fill:#cc9f3f;fill-opacity:1;fill-rule:nonzero;stroke:none" transform="matrix(.13333 0 0 -.13333 0 983.733)"></path><path d="M3455.37 5559.75V5481l-133.8 94.37c22.39 16.83 36.97 43.53 36.97 73.63 0 22.3-7.97 42.77-21.2 58.73l5.16 5.15s70.88 51.62 153.13 41.12c-1.92-49.08-24.5-82.25-24.5-82.25s62.12-.87 105-71.75c-52.5-52.5-120.76-40.25-120.76-40.25" style="fill:#cc9f3f;fill-opacity:1;fill-rule:nonzero;stroke:none" transform="matrix(.13333 0 0 -.13333 0 983.733)"></path><path d="M3966.13 5462.83c-23.26-28.44-29.08-62.14-12.99-75.3 16.08-13.15 47.97-.78 71.24 27.65 23.25 28.43 29.06 62.14 12.98 75.3-16.09 13.15-47.97.77-71.23-27.65" style="fill:#d55124;fill-opacity:1;fill-rule:nonzero;stroke:none" transform="matrix(.13333 0 0 -.13333 0 983.733)"></path><path d="M3571.86 5465.43c-7.73-30.94.45-59.63 18.27-64.08 17.81-4.45 38.52 17.03 46.25 47.98 7.73 30.94-.45 59.63-18.27 64.07-17.82 4.46-38.51-17.02-46.25-47.97M2810.63 5612.11c-2.81-31.77 9.75-58.84 28.05-60.45 18.29-1.61 35.38 22.83 38.18 54.61 2.82 31.78-9.74 58.82-28.04 60.44-18.29 1.62-35.39-22.82-38.19-54.6" style="fill:#fff;fill-opacity:1;fill-rule:nonzero;stroke:none" transform="matrix(.13333 0 0 -.13333 0 983.733)"></path><path d="M3188.2 5649c0-43.16 35-78.16 78.18-78.16 43.16 0 78.16 35 78.16 78.16 0 43.17-35 78.17-78.16 78.17-43.18 0-78.18-35-78.18-78.17M2357.82 5720.53c0-43.17 35-78.17 78.18-78.17 43.16 0 78.16 35 78.16 78.17s-35 78.17-78.16 78.17c-43.18 0-78.18-35-78.18-78.17" style="fill:#d55124;fill-opacity:1;fill-rule:nonzero;stroke:none" transform="matrix(.13333 0 0 -.13333 0 983.733)"></path><path d="M3483.38 6552s76.99 10.5 103.24 10.5c364.01 0 626.51-192.5 626.51-453.25 0-131.25-70-213.5-70-213.5l61.25-101.5c-12.69-17.5-21-26.39-39.38-39.37L4085.37 5901s80.51 113.18 80.51 208.25c0 189-260.75 400.75-567 400.75h-105z" style="fill:#cc9f3f;fill-opacity:1;fill-rule:nonzero;stroke:none" transform="matrix(.13333 0 0 -.13333 0 983.733)"></path><path d="M4187.7 5849c-12.3 20.36-24.11 39.93-27.68 45.85 17.49 23.7 67.11 100.72 67.11 214.4 0 72.35-19.4 139.32-54.68 198.73l-.24.77s110.92-84.87 110.92-276.5c0-136.5-64.75-222.25-64.75-222.25zM2900.04 6680.33c-160.99 0-312.66-93.33-312.66-93.33h-11.54c-.78 16.46-1.23 32.34-1.28 47.39l12.82 17.95S2715.71 6734 2911.7 6734c298.67 0 490-177.32 490-380.33 0-153.99-119-254.33-119-254.33l35-56 1.28-14.79-2.22-.97c-13.12-5.74-24.47-14.51-34.53-24.53l-8.85 2.95-70 102.67S3348.04 6195 3348.04 6356c0 198.33-251.98 324.33-448 324.33" style="fill:#cc9f3f;fill-opacity:1;fill-rule:nonzero;stroke:none" transform="matrix(.13333 0 0 -.13333 0 983.733)"></path><path d="M3383.04 6509.13c0-5.63 1.05-10.96 2.56-16.11-11.51 25.29-26.08 49.25-43.45 71.59l44.1-27.48 2.32-3.59c-3.45-7.45-5.53-15.67-5.53-24.41M3371.66 6156.5c0-21.49 11.82-40.1 29.18-50.21l-.59-1.41-7.95-6.7c-6.28 2.32-12.98 3.78-20.05 3.78-23.66 0-43.97-14.21-53.12-34.5-6.6 10.56-14.23 22.76-18.4 29.43 28.51 27.33 114.97 121.31 114.97 256.78 0 45.24-9.05 88.12-25.45 127.94 9.88-18.25 28.96-30.81 51.13-30.81.23 0 .44.06.68.06l1.94-2.98 1.83-8.84c-14.64-10.61-24.3-27.74-24.3-47.16 0-27.89 19.72-51.22 45.92-56.93l.18-.82-.77-4.58c-28.48-3.84-50.57-28.04-50.57-57.55 0-22.71 13.19-42.23 32.19-51.85l-.1-.65-2.94-7c-4.95 1.37-10.07 2.34-15.44 2.34-32.17 0-58.34-26.17-58.34-58.34M2560.54 6637.17c0 49.01-15.17 134.16-124.54 134.16s-124.54-85.15-124.54-134.16c0-187.84-61.84-499.96-61.84-499.96l118.9-113.32c.86 4.49 2.08 9.3 3.49 14.25-11.98 14.44-19.21 32.99-19.21 53.17 0 4.82.5 9.51 1.29 14.1h-10.22l-48.67 46.39 1.38 7.46c17.1 91.92 56.89 322.5 56.89 477.91 0 81.69 44.1 92.17 82.53 92.17s82.54-10.48 82.54-92.17c0-155.65 39.78-386.06 56.89-477.91l1.38-7.46-48.67-46.39h-9.79c.77-4.59 1.28-9.28 1.28-14.1 0-20.37-7.36-39.04-19.53-53.54 1.36-4.81 2.54-9.49 3.38-13.88l118.9 113.32s-61.84 312.12-61.84 499.96" style="fill:#cc9f3f;fill-opacity:1;fill-rule:nonzero;stroke:none" transform="matrix(.13333 0 0 -.13333 0 983.733)"></path><path d="M4216.04 5740c0-24.48 19.85-44.32 44.33-44.32 24.49 0 44.33 19.84 44.33 44.32 0 24.49-19.84 44.34-44.33 44.34-24.48 0-44.33-19.85-44.33-44.34M4272.91 5847.63c0-24.49 19.86-44.33 44.34-44.33 24.49 0 44.32 19.84 44.32 44.33 0 24.48-19.83 44.33-44.32 44.33-24.48 0-44.34-19.85-44.34-44.33M4304.41 5963.13c0-24.49 19.86-44.33 44.34-44.33s44.32 19.84 44.32 44.33c0 24.48-19.84 44.33-44.32 44.33s-44.34-19.85-44.34-44.33M4308.79 6090c0-24.48 19.85-44.32 44.34-44.32 24.48 0 44.32 19.84 44.32 44.32 0 24.49-19.84 44.34-44.32 44.34-24.49 0-44.34-19.85-44.34-44.34M4280.79 6217.75c0-24.48 19.85-44.33 44.34-44.33 24.48 0 44.32 19.85 44.32 44.33 0 24.49-19.84 44.34-44.32 44.34-24.49 0-44.34-19.85-44.34-44.34M4220.41 6328.88c0-24.49 19.86-44.33 44.34-44.33 24.49 0 44.32 19.84 44.32 44.33 0 24.48-19.83 44.33-44.32 44.33-24.48 0-44.34-19.85-44.34-44.33M4140.79 6425.13c0-24.49 19.85-44.33 44.34-44.33 24.48 0 44.32 19.84 44.32 44.33 0 24.48-19.84 44.33-44.32 44.33-24.49 0-44.34-19.85-44.34-44.33M4042.78 6496.88c0-24.49 19.86-44.33 44.35-44.33 24.48 0 44.32 19.84 44.32 44.33 0 24.48-19.84 44.33-44.32 44.33-24.49 0-44.35-19.85-44.35-44.33M3935.17 6559c0-24.48 19.84-44.33 44.33-44.33 24.48 0 44.33 19.85 44.33 44.33 0 24.49-19.85 44.34-44.33 44.34-24.49 0-44.33-19.85-44.33-44.34M3817.04 6598.38c0-24.49 19.85-44.33 44.34-44.33 24.48 0 44.32 19.84 44.32 44.33s-19.84 44.33-44.32 44.33c-24.49 0-44.34-19.84-44.34-44.33M3700.66 6622.88c0-24.49 19.86-44.33 44.34-44.33s44.32 19.84 44.32 44.33c0 24.48-19.84 44.33-44.32 44.33s-44.34-19.85-44.34-44.33M3579.03 6630.75c0-24.48 19.86-44.33 44.35-44.33 24.48 0 44.32 19.85 44.32 44.33 0 24.49-19.84 44.33-44.32 44.33-24.49 0-44.35-19.84-44.35-44.33M3453.92 6628.13c0-24.49 19.84-44.33 44.33-44.33 24.48 0 44.33 19.84 44.33 44.33 0 24.48-19.85 44.33-44.33 44.33-24.49 0-44.33-19.85-44.33-44.33M3327.91 6043.63c0-24.49 19.86-44.33 44.34-44.33 24.49 0 44.32 19.84 44.32 44.33 0 24.48-19.83 44.33-44.32 44.33-24.48 0-44.34-19.85-44.34-44.33M3385.66 6156.5c0-24.48 19.86-44.33 44.34-44.33s44.32 19.85 44.32 44.33c0 24.49-19.84 44.34-44.32 44.34s-44.34-19.85-44.34-44.34M3430.28 6272c0-24.48 19.86-44.33 44.35-44.33 24.48 0 44.32 19.85 44.32 44.33 0 24.49-19.84 44.33-44.32 44.33-24.49 0-44.35-19.84-44.35-44.33M3435.54 6391.88c0-24.49 19.85-44.33 44.34-44.33 24.48 0 44.32 19.84 44.32 44.33 0 24.48-19.84 44.33-44.32 44.33-24.49 0-44.34-19.85-44.34-44.33M3397.04 6509.13c0-24.49 19.85-44.33 44.34-44.33 24.48 0 44.32 19.84 44.32 44.33 0 24.48-19.84 44.33-44.32 44.33-24.49 0-44.34-19.85-44.34-44.33M3334.91 6623.75c0-24.48 19.86-44.32 44.34-44.32 24.49 0 44.32 19.84 44.32 44.32 0 24.49-19.83 44.34-44.32 44.34-24.48 0-44.34-19.85-44.34-44.34M3243.04 6703.38c0-24.49 19.85-44.33 44.34-44.33 24.48 0 44.32 19.84 44.32 44.33s-19.84 44.33-44.32 44.33c-24.49 0-44.34-19.84-44.34-44.33M3131.04 6762c0-24.48 19.85-44.33 44.33-44.33 24.49 0 44.33 19.85 44.33 44.33 0 24.49-19.84 44.33-44.33 44.33-24.48 0-44.33-19.84-44.33-44.33M3011.16 6802.25c0-24.48 19.86-44.33 44.34-44.33 24.49 0 44.32 19.85 44.32 44.33 0 24.49-19.83 44.33-44.32 44.33-24.48 0-44.34-19.84-44.34-44.33M2892.16 6817.13c0-24.49 19.85-44.33 44.34-44.33 24.48 0 44.32 19.84 44.32 44.33s-19.84 44.33-44.32 44.33c-24.49 0-44.34-19.84-44.34-44.33M2769.66 6814.5c0-24.48 19.85-44.33 44.34-44.33 24.48 0 44.32 19.85 44.32 44.33 0 24.49-19.84 44.33-44.32 44.33-24.49 0-44.34-19.84-44.34-44.33M2655.04 6790c0-24.48 19.85-44.32 44.34-44.32 24.48 0 44.32 19.84 44.32 44.32 0 24.49-19.84 44.34-44.32 44.34-24.49 0-44.34-19.85-44.34-44.34M2544.8 6744.5c0-24.48 19.84-44.33 44.32-44.33 24.49 0 44.33 19.85 44.33 44.33 0 24.49-19.84 44.33-44.33 44.33-24.48 0-44.32-19.84-44.32-44.33M2464.29 6636c0-15.46-12.54-28-28-28-15.47 0-28 12.54-28 28s12.53 28 28 28c15.46 0 28-12.54 28-28M2477.42 6522.69c0-22.87-18.54-41.42-41.42-41.42-22.87 0-41.41 18.55-41.41 41.42s18.54 41.41 41.41 41.41c22.88 0 41.42-18.54 41.42-41.41M2490.25 6383.57c0-29.96-24.29-54.25-54.25-54.25-29.95 0-54.25 24.29-54.25 54.25 0 29.95 24.3 54.25 54.25 54.25 29.96 0 54.25-24.3 54.25-54.25M2498.43 6238.32c0-34.48-27.95-62.42-62.43-62.42-34.47 0-62.41 27.94-62.41 62.42 0 34.47 27.94 62.41 62.41 62.41 34.48 0 62.43-27.94 62.43-62.41M2426.11 6126.15l9.89 9.9 9.9-9.9c25.19-25.17 40.03-50.03 48.74-72.06 6.88 10.77 11 23.49 11 37.22 0 38.34-31.09 69.42-69.42 69.42-38.34 0-69.41-31.08-69.41-69.42 0-13.54 4.03-26.08 10.74-36.75 8.73 21.92 23.56 46.6 48.56 71.59" style="fill:#fff;fill-opacity:1;fill-rule:nonzero;stroke:none" transform="matrix(.13333 0 0 -.13333 0 983.733)"></path><path d="M2504.54 6637.17c0 72.12-35.39 78.16-68.54 78.16-33.16 0-68.54-6.04-68.54-78.16 0-158.81-41.56-396.85-57.12-480.47 11.83-11.28 19.58-18.66 39.13-37.3v.01h8.31c8.04 22.37 25.44 40.15 47.38 49.04-26.8 11.88-45.57 38.71-45.57 69.87 0 42.13 34.28 76.41 76.41 76.41 42.14 0 76.42-34.28 76.42-76.41 0-31.09-18.68-57.84-45.39-69.77 22.06-8.86 39.56-26.69 47.63-49.14h7.87c19.55 18.63 27.28 26.01 39.13 37.29-15.57 83.62-57.12 321.66-57.12 480.47m-68.25 40.83c23.15 0 42-18.84 42-42s-18.85-42-42-42c-23.16 0-42 18.84-42 42s18.84 42 42 42m-.29-99.9c30.55 0 55.43-24.85 55.43-55.41s-24.88-55.42-55.43-55.42c-30.56 0-55.41 24.86-55.41 55.42s24.85 55.41 55.41 55.41m0-262.78c-37.64 0-68.25 30.61-68.25 68.25 0 37.63 30.61 68.25 68.25 68.25s68.25-30.62 68.25-68.25c0-37.64-30.61-68.25-68.25-68.25" style="fill:#cc9f3f;fill-opacity:1;fill-rule:nonzero;stroke:none" transform="matrix(.13333 0 0 -.13333 0 983.733)"></path><path d="M2592.63 5152.58c0-16.42-13.32-29.75-29.76-29.75h-254.32c-16.44 0-29.76 13.33-29.76 29.75 0 16.43 13.32 29.76 29.76 29.76h254.32c16.44 0 29.76-13.33 29.76-29.76M1241.63 4936.17l22.16 78.17h128.34l-74.67-89.84zM3630.37 4936.17l-22.16 78.17h-128.33l74.66-89.84z" style="fill:#d44f2e;fill-opacity:1;fill-rule:nonzero;stroke:none" transform="matrix(.13333 0 0 -.13333 0 983.733)"></path><path d="M1589.29 5043.5c0-21.9-17.76-39.66-39.66-39.66-21.92 0-39.67 17.76-39.67 39.66 0 21.91 17.75 39.68 39.67 39.68 21.9 0 39.66-17.77 39.66-39.68M2151.62 5142.67c0-21.9-17.76-39.66-39.66-39.66-21.91 0-39.67 17.76-39.67 39.66 0 21.91 17.76 39.67 39.67 39.67 21.9 0 39.66-17.76 39.66-39.67" style="fill:#fff;fill-opacity:1;fill-rule:nonzero;stroke:none" transform="matrix(.13333 0 0 -.13333 0 983.733)"></path><path d="M1957.83 5129.59c3.31-18.71-9.17-36.57-27.89-39.88l-173.47-30.69c-18.72-3.32-36.57 9.17-39.89 27.89-3.31 18.71 9.17 36.57 27.9 39.88l173.47 30.69c18.71 3.32 36.57-9.17 39.88-27.89M2914.16 5129.59c-3.31-18.71 9.17-36.57 27.9-39.88l173.48-30.69c18.71-3.32 36.57 9.17 39.87 27.89 3.31 18.71-9.17 36.57-27.89 39.88l-173.47 30.69c-18.71 3.32-36.57-9.17-39.89-27.89" style="fill:#178151;fill-opacity:1;fill-rule:nonzero;stroke:none" transform="matrix(.13333 0 0 -.13333 0 983.733)"></path><path d="M3282.71 5043.5c0-21.9 17.76-39.66 39.67-39.66 21.9 0 39.66 17.76 39.66 39.66 0 21.91-17.76 39.68-39.66 39.68-21.91 0-39.67-17.77-39.67-39.68M2720.37 5142.67c0-21.9 17.77-39.66 39.67-39.66 21.91 0 39.68 17.76 39.68 39.66 0 21.91-17.77 39.67-39.68 39.67-21.9 0-39.67-17.76-39.67-39.67" style="fill:#fff;fill-opacity:1;fill-rule:nonzero;stroke:none" transform="matrix(.13333 0 0 -.13333 0 983.733)"></path><path d="M1563.22 5567.25 1402.63 5454v90.69c-25.15-.75-74.92 3.67-116.65 45.41l-7.76 7.76 5.68 9.39c31.09 51.39 71.3 68.88 95.56 75-7.2 15.69-15.87 40.41-17.07 71.21l-.5 12.81 12.72 1.62c55.43 7.08 105.28-11.8 134.91-26.94-26.31 34.78-70.14 98.77-70.14 139.05v10.61l10.21 2.87c17.54 4.92 36.64 4.3 50.27 2.86-.04 1.71-.14 2.75-.14 4.66 0 21.96 2.84 56.25 16.11 86.83-5.14-1.49-10.47-2.53-16.08-2.53-32.16 0-58.33 26.16-58.33 58.33 0 19.67 9.85 37.02 24.81 47.59l-3.5 2.94-6.59 5.95c-4.55-1.15-9.24-1.93-14.14-1.93-32.16 0-58.33 26.16-58.33 58.32 0 .67.18 1.3.2 1.97-16.98 2.14-48.42 5.27-87.74 5.27-219.97 0-479.083-138.12-533.259-195.56 17.942-34.47 34.801-58.55 35.164-59.07l5.067-7.13-90.719-166.48-.418-2.5 2.207-7.06c44.769-.35 75.457-22.02 93.781-40.62 2.567 14.55 7.18 40.68 7.18 40.68h11.742c26.73.01 49.285-10.17 65.25-29.43 25.609-30.89 33.184-82.98 22.688-150.32 19.867 40.4 58.058 99.55 120.047 126.12l12.5 5.36 5.71-12.34c6.52-14.05 8.66-29.86 8.66-44.6 0-11.17-1.31-21.24-2.81-29.95 30.86 6.36 88.13 13.69 138.73-5.77l12.96-4.99-4.87-12.99c-19.1-50.91-60.05-81.41-85.6-96.41 14.01-11.77 30.5-31.17 35.54-60.83l2.54-14.99-15.14-1.3c-66.56-5.74-131.07 1.64-169.728 7.89l.515-1.51c29.473-30.97 107.613-106.19 171.513-106.19 82.56 0 103.09 79.29 105 87.48v16.09c-12.86 10.53-23.22 28.09-28.34 48.61-5.95 23.8-3.85 47.44 5.62 63.23 5.61 9.33 13.5 15.5 22.83 17.83 9.32 2.33 19.19.6 28.53-5.01 15.78-9.46 28.75-29.34 34.69-53.16 5.95-23.81 3.85-47.45-5.62-63.22-.18-.29-.39-.5-.57-.78 1.7-3.33 3.39-6.62 3.65-7.13 3.31-4.17 40.97-49.69 101.96-49.69 138.37 0 169.6 129.56 175.9 206.8l.31 3.56a91.3 91.3 0 0 0-26.12 8.89M2359.56 5669.07c-4.21-2.1-8.28-4.14-9.72-4.86-11-13.99-60.74-65.96-192.96-65.96h-12.86l-1.09 12.8c-.62 7.25-.9 14.01-.9 20.31 0 23.27 3.9 39.68 8.23 51.55-26.88 2.72-71.12 14-104.25 57.34l-5.5 7.18 4.29 7.96c28.87 53.63 86.73 69.01 118.92 73.55-5.7 12.57-11.3 30.19-11.3 51.08 0 5.11.33 10.41 1.09 15.88l1.81 13.18 13.24-1.13c92.48-7.87 146.13-37.75 176.26-64.17-21.57 41.24-47.94 101.51-47.94 149.97v14h14c25.09 0 42.5-2.18 55.01-5.38.07 1.4.17 2.9.29 4.4l-131.79 125.62 1.49 7.54c.32 1.61 16.68 84.85 32.47 190.32 0 0-23.97 3-70.35 3-308.36 0-405.47-154.91-578.47-165.6 29.43-30.51 55.68-46.6 56.29-46.97l12.73-7.63-81.01-118.83-7.4-2.47c16.9-20.39 28.84-43.86 36.09-61.01 11.91 9.94 31.08 19.26 62.15 19.26h15.13l-1.17-15.09c-4.3-54.89-24.75-130.04-36.96-171.18 24.25 30.32 69.28 76.13 128.37 89.67l12.63 2.89 3.86-12.36c3.39-10.83 4.49-23.66 4.49-35.84 0-10.52-.84-20.34-1.76-28.22 27.44-1.24 83.63-7.04 121.46-33.67l8.79-6.18-3.7-10.09c-15.26-41.62-69.04-70.95-99.95-84.89 9.56-11.66 18.56-30.45 18.56-60.79v-12.81l-12.77-1.13c-107.16-9.45-154.56 19.78-166.68 29.03-.2.05-2.25.54-4.83 1.15-5.51-8.87-12.45-16.76-20.55-23.28 1.88-2.82 4.04-6.8 7.15-12.57l.73-1.36.42-1.48c.45-1.57 46.09-157.8 166.78-157.8 111.91 0 165.3 122.49 168.46 129.99.36 2.33 1.15 7.34 1.15 7.34l1.44 4.19c-.75.56-1.54.98-2.28 1.6-14.1 11.81-23.81 33.47-25.96 57.92-3.55 40.07 14.36 73.28 40.75 75.62h.01c9.57.85 19.05-2.41 27.4-9.4 14.1-11.81 23.81-33.47 25.97-57.92 2.16-24.44-3.61-47.47-15.43-61.58-.05-.06-.11-.1-.16-.15 2.09-6.61 4.79-15.17 5.15-16.28 2.09-4.29 51.55-103.33 148-103.33 100.55 0 183.74 129.77 183.74 196v9.32c-14.99 7.13-27.83 18.09-37.06 31.75M3308.79 5567.25 3469.38 5454v90.69c25.14-.75 74.91 3.67 116.64 45.41l7.76 7.76-5.67 9.39c-31.1 51.39-71.32 68.88-95.57 75 7.19 15.69 15.87 40.41 17.07 71.21l.51 12.81-12.73 1.62c-55.44 7.08-105.27-11.8-134.92-26.94 26.31 34.78 70.16 98.77 70.16 139.05v10.61l-10.23 2.87c-17.52 4.92-36.63 4.3-50.26 2.86.04 1.71.13 2.75.13 4.66 0 21.96-2.84 56.25-16.1 86.83 5.14-1.49 10.46-2.53 16.08-2.53 32.15 0 58.32 26.16 58.32 58.33 0 19.67-9.84 37.02-24.81 47.59l3.5 2.94 6.6 5.95c4.56-1.15 9.23-1.93 14.14-1.93 32.16 0 58.32 26.16 58.32 58.32 0 .67-.18 1.3-.18 1.97 16.96 2.14 48.42 5.27 87.74 5.27 219.97 0 479.07-138.12 533.24-195.56-17.94-34.47-34.8-58.55-35.16-59.07l-5.07-7.13 90.72-166.48.43-2.5-2.22-7.06c-44.76-.35-75.46-22.02-93.78-40.62-2.56 14.55-7.18 40.68-7.18 40.68h-11.73c-26.73.01-49.29-10.17-65.25-29.43-25.62-30.89-33.19-82.98-22.69-150.32-19.87 40.4-58.07 99.55-120.05 126.12l-12.5 5.36-5.71-12.34c-6.52-14.05-8.66-29.86-8.66-44.6 0-11.17 1.31-21.24 2.8-29.95-30.85 6.36-88.13 13.69-138.72-5.77l-12.96-4.99 4.87-12.99c19.09-50.91 60.05-81.41 85.6-96.41-14.01-11.77-30.5-31.17-35.54-60.83l-2.55-14.99 15.16-1.3c66.55-5.74 131.06 1.64 169.71 7.89l-.51-1.51c-29.48-30.97-107.61-106.19-171.51-106.19-82.56 0-103.1 79.29-105 87.48v16.09c12.85 10.53 23.22 28.09 28.35 48.61 5.95 23.8 3.84 47.44-5.63 63.23-5.61 9.33-13.5 15.5-22.84 17.83-9.32 2.33-19.18.6-28.52-5.01-15.77-9.46-28.75-29.34-34.7-53.16-5.94-23.81-3.84-47.45 5.64-63.22.16-.29.38-.5.55-.78-1.69-3.33-3.38-6.62-3.64-7.13-3.31-4.17-40.97-49.69-101.95-49.69-138.39 0-169.62 129.56-175.91 206.8l-.31 3.56a91.7 91.7 0 0 1 26.13 8.89M2512.44 5669.07c4.21-2.1 8.28-4.14 9.72-4.86 11-13.99 60.74-65.96 192.97-65.96h12.85l1.09 12.8c.62 7.25.9 14.01.9 20.31 0 23.27-3.91 39.68-8.23 51.55 26.89 2.72 71.11 14 104.24 57.34l5.5 7.18-4.28 7.96c-28.87 53.63-86.74 69.01-118.93 73.55 5.71 12.57 11.31 30.19 11.31 51.08 0 5.11-.34 10.41-1.1 15.88l-1.8 13.18-13.24-1.13c-92.48-7.87-146.13-37.75-176.26-64.17 21.57 41.24 47.95 101.51 47.95 149.97v14h-14c-25.09 0-42.5-2.18-55.02-5.38-.06 1.4-.18 2.9-.29 4.4l131.79 125.62-1.5 7.54c-.31 1.61-16.68 84.85-32.47 190.32 0 0 23.99 3 70.36 3 308.36 0 405.46-154.91 578.47-165.6-29.43-30.51-55.68-46.6-56.29-46.97l-12.74-7.63 81.02-118.83 7.4-2.47c-16.9-20.39-28.85-43.86-36.1-61.01-11.9 9.94-31.07 19.26-62.13 19.26h-15.15l1.19-15.09c4.29-54.89 24.74-130.04 36.95-171.18-24.26 30.32-69.28 76.13-128.37 89.67l-12.62 2.89-3.87-12.36c-3.38-10.83-4.5-23.66-4.5-35.84 0-10.52.85-20.34 1.76-28.22-27.44-1.24-83.62-7.04-121.46-33.67l-8.78-6.18 3.69-10.09c15.28-41.62 69.05-70.95 99.96-84.89-9.56-11.66-18.55-30.45-18.55-60.79v-12.81l12.76-1.13c107.15-9.45 154.56 19.78 166.68 29.03.19.05 2.25.54 4.82 1.15 5.53-8.87 12.46-16.76 20.57-23.28-1.89-2.82-4.05-6.8-7.17-12.57l-.72-1.36-.43-1.48c-.43-1.57-46.08-157.8-166.76-157.8-111.92 0-165.31 122.49-168.47 129.99-.36 2.33-1.14 7.34-1.14 7.34l-1.46 4.19c.75.56 1.55.98 2.28 1.6 14.11 11.81 23.82 33.47 25.97 57.92 3.54 40.07-14.35 73.28-40.76 75.62-9.58.85-19.05-2.41-27.39-9.4-14.11-11.81-23.82-33.47-25.98-57.92-2.16-24.44 3.6-47.47 15.43-61.58.05-.06.12-.1.16-.15-2.09-6.61-4.79-15.17-5.15-16.28-2.09-4.29-51.55-103.33-148-103.33-100.56 0-183.75 129.77-183.75 196v9.32c15 7.13 27.84 18.09 37.07 31.75" style="fill:#ce4a2f;fill-opacity:1;fill-rule:nonzero;stroke:none" transform="matrix(.13333 0 0 -.13333 0 983.733)"></path><path d="M2174.6 5351.51c-73.17 11.05-114.03 46.34-133.21 68.72-14.78-23.18-45.57-60.52-99.24-82.48 72.53 5.77 150.12 10.46 232.45 13.76M2436 5356.75c53.35 0 105-.64 155.13-1.81-88.11 21.1-134.67 86.39-155.13 125.22-20.45-38.83-67.02-104.12-155.11-125.22 50.11 1.17 101.77 1.81 155.11 1.81M1797.91 5324.32c-82.31 14.4-131.09 62.54-153.84 91.88-15.43-34.57-50.63-95.2-117-128.53 77.89 12.98 168.28 25.71 270.84 36.65M1402.03 5264.71c-54 3.32-84.37 18.68-100.47 31.31-11.64-20.98-35.59-53.83-77.33-72.88 38.66 10.62 98.13 25.52 177.8 41.57M2697.39 5351.51c73.18 11.05 114.03 46.34 133.21 68.72 14.79-23.18 45.58-60.52 99.24-82.48-72.53 5.77-150.11 10.46-232.45 13.76M3074.09 5324.32c82.3 14.4 131.08 62.54 153.84 91.88 15.42-34.57 50.62-95.2 117-128.53-77.89 12.98-168.28 25.71-270.84 36.65M3469.98 5264.71c53.98 3.32 84.36 18.68 100.46 31.31 11.63-20.98 35.58-53.83 77.33-72.88-38.66 10.62-98.13 25.52-177.79 41.57" style="fill:#883527;fill-opacity:1;fill-rule:nonzero;stroke:none" transform="matrix(.13333 0 0 -.13333 0 983.733)" data-source="https://football-logos.cc"></path><!-- source: https://football-logos.cc --></svg>