<svg xmlns="http://www.w3.org/2000/svg" viewBox="18.03 140.56 558.94 560.88"><!-- Source: https://football-logos.cc --><path d="M438.08 237.807c14.732 12.63 28.038 26.532 40.158 41.486 12.116 14.95 23.031 30.92 32.99 47.703l1.101 1.857-.852 1.98c-7.656 17.778-15.823 35.253-24.775 52.205-8.938 16.926-18.645 33.284-29.391 48.838l-1.996 2.889-3.203-1.41c-15.883-6.993-32.797-12.357-49.71-17.72-17.108-5.424-34.216-10.85-50.573-18.051l-2.467-1.086-.058-2.718c-.454-21.399-.031-44.52.392-67.64.421-23.04.842-46.08.391-67.341l-.065-3.058 2.872-1.028c13.046-4.67 26.396-8.648 40.14-11.726 13.71-3.071 27.692-5.208 42.007-6.193l1.72-.118zm33.58 46.834c-11.44-14.115-23.96-27.264-37.775-39.252-13.337 1.007-26.324 3.025-39.023 5.869-12.231 2.74-24.302 6.28-36.245 10.447.355 20.532-.048 42.55-.45 64.568-.404 22.056-.807 44.113-.445 64.61 15.16 6.475 31.2 11.561 47.238 16.647 15.985 5.068 31.97 10.138 47.342 16.656 9.747-14.373 18.641-29.474 26.893-45.1 8.46-16.022 16.26-32.641 23.618-49.625-9.474-15.794-19.79-30.8-31.153-44.82" style="fill:#1b1918;fill-rule:evenodd" data-source="https://football-logos.cc"></path><path d="M261.13 210.29a3.317 3.317 0 1 0-.184 6.631 3.317 3.317 0 0 0 .183-6.631" style="fill:none"></path><path d="M73.943 306.854c7.187 2.24 14.398 4.161 21.798 5.618 7.792 1.534 15.752 2.551 24.057 2.885 9.003-12.578 19.425-25.31 32.487-38.25 13.134-13.012 28.924-26.214 48.61-39.649l-13.128-52.96c-12.541 1.761-24.667 5.058-36.067 10.194-11.61 5.23-22.485 12.373-32.303 21.75-17.673 16.878-28.341 30.83-34.944 45.24-6.19 13.51-8.89 27.655-10.51 45.172m446.31 243.512c5.325-4.056 10.065-8.084 14.256-12.017 5.477-5.14 9.977-10.102 13.6-14.746a270.7 270.7 0 0 0 17.274-62.338c1.63-17.642-.185-34.72-3.606-50.922-3.705-17.543-9.332-34.2-14.524-49.44l-.338-.991.172-1.052c1.865-11.41 2.265-22.142.952-32.49-.967-7.627-2.876-15.088-5.825-22.507-13.41-28.11-31.517-53.553-53.31-75.313a273 273 0 0 0-44.42-35.91c-3.32-.103-6.27-.211-9.222-.318-2.06-.075-4.12-.15-6.239-.222 2.01 6.806 3.884 13.684 5.561 20.65 2.207 9.17 4.04 18.369 5.348 27.588l-8.404 1.163c-1.281-9.036-3.057-17.96-5.182-26.79-1.956-8.124-4.235-16.273-6.718-24.421-11.034-8.155-21.146-14.73-30.628-20.17a246 246 0 0 0-25.746-12.872c-21.259-5.343-43.507-8.184-66.41-8.184-29.562 0-57.981 4.724-84.56 13.455l-16.55 18.863 13.17 53.132 23.38 2.407-.864 8.437-23.504-2.42c-20.268 13.642-36.365 27.017-49.652 40.18-12.957 12.838-23.258 25.495-32.16 38.013 2.068 16.212 5.76 36.112 10.316 55.681 4.12 17.694 8.927 35.047 13.855 49.082l41.278.1 2.101.005 1.27 1.673 105.324 138.643 2.951 3.884-4.263 2.378c-14.613 8.148-29.641 15.662-45.163 22.416-15.548 6.764-31.603 12.773-48.247 17.899l-1.542.474-1.447-.657c-19.886-9.04-38.142-21.371-54.58-36.837-14.69-13.821-27.928-30.153-39.576-48.881-8.825-1.133-18.948-2.823-28.245-4.74a403 403 0 0 1-22.655-5.353c-.075 4.599.197 9.424.722 14.289.867 8.046 3.11 19.991 8.858 32.537a274.3 274.3 0 0 0 38.75 49.336c48.79 49.268 116.19 79.876 190.908 79.876 35.202 0 68.864-6.782 99.766-19.1a72 72 0 0 1-13.084-4.605l-2.02-.94-.372-2.216c-1.745-10.39-3.005-21.216-3.76-32.324a369 369 0 0 1-.813-28.51c-13.241-3.606-26.627-8.013-39.565-13.165-12.809-5.1-25.104-10.894-36.3-17.32l6.493-6.086c10.954 6.287 20.597 10.622 32.93 15.533 12.322 4.907 25.136 9.138 37.884 12.636l.72-.428a351 351 0 0 0 44.188-31.087c13.203-10.898 25.601-22.743 37.376-35.531 1.968-16.346 1.992-32.715.197-49.104-1.866-17.042-5.696-34.074-11.35-51.095l8.04-2.657c5.855 17.629 9.82 35.248 11.748 52.855 1.773 16.188 1.827 32.396.05 48.622 11.807 5.567 25.346 11.168 40.212 17.318 4.423 1.83 8.881 3.674 11.194 4.634m16.505-2.588a199 199 0 0 1-12.923 10.49c.081 3.334.045 6.763-.062 10.274q-.018.615-.04 1.228a274 274 0 0 0 13.025-21.992M142.767 430.072c-5.24-14.666-10.32-32.872-14.618-51.333-4.473-19.208-8.129-38.773-10.268-54.986-8.266-.41-16.13-1.44-23.768-2.943-7.796-1.535-15.399-3.568-22.982-5.942-6.797 13.057-29.624 57.26-40.668 82.995 1.845 18.262 4.606 35.417 8.364 51.623 4.823 20.795 10.96 40.103 17.963 58.43a391 391 0 0 0 25.04 6.03 369 369 0 0 0 22.032 3.869l.195-.654c5.02-16.827 10.698-32.892 17.307-47.874 6.214-14.088 13.27-27.245 21.403-39.215m46.652-254.357 6.194-7.102a268 268 0 0 0-21.318 9.707 156 156 0 0 1 15.124-2.605M29.29 381.14c11.206-25.174 33.5-68.526 36.045-73.463 1.308-14.877 3.328-27.5 7.4-39.44A270 270 0 0 0 29.29 381.14m120.801 53.224c-7.922 11.593-14.833 24.468-20.954 38.345-6.23 14.125-11.622 29.261-16.414 45.119 11.928 20.059 25.665 37.394 41.047 51.866 15.35 14.442 32.344 26.026 50.813 34.612 15.78-4.924 31.023-10.657 45.801-17.087 13.775-5.993 27.14-12.587 40.156-19.69l-101.088-133.07ZM49.59 530.356c-.617-6.398-.81-12.71-.393-18.57-7.282-18.955-13.656-38.914-18.64-60.406a444 444 0 0 1-3.67-17.283c1.719 34.055 9.657 66.531 22.703 96.259m361.43 137.186c29.008-13.587 55.252-32.166 77.63-54.616a275.5 275.5 0 0 0 25.946-30.092h-.01c.295-5.066.58-10.01.718-14.525.112-3.682.141-7.285.025-10.799-4.603-1.916-7.098-2.949-9.491-3.938-14.739-6.098-28.177-11.657-40.127-17.274-11.783 12.73-24.236 24.586-37.543 35.57a359 359 0 0 1-43.221 30.635c-.174 10.342.09 20.61.774 30.684.682 10.035 1.784 19.82 3.29 29.235a64.3 64.3 0 0 0 10.165 3.32 74 74 0 0 0 11.844 1.8m156.516-269.82a269.6 269.6 0 0 0-10.318-54.905c-.18 5.336-.718 10.774-1.59 16.347 4.094 12.023 8.424 24.911 11.908 38.559M429.577 183.64a271 271 0 0 0-17.048-8.78 373 373 0 0 1 12.152 8.624c1.723.051 3.34.103 4.896.156M18.03 420.063c0-154.505 124.304-279.503 278.815-279.503 77.266 0 147.316 31.328 198.04 81.978 50.697 50.621 82.087 120.53 82.087 197.743 0 77.299-31.489 147.636-82.31 198.625-50.748 50.913-120.761 82.534-197.942 82.534-77.065 0-146.588-31.575-196.92-82.4-50.575-51.07-81.77-121.563-81.77-198.977" style="fill:#000;fill-rule:evenodd"></path><path d="m120.63 319.667 27.3 112.2M53.43 511.967l55.95 10.65M380.28 601.966l-75.75-29.85" style="fill:none;stroke:#1b1918;stroke-width:.56690001;stroke-linecap:butt;stroke-linejoin:miter;stroke-dasharray:none"></path><path d="M548.32 362.27c-7.42-5.958-14.796-11.506-22.12-16.542-7.317-5.032-14.587-9.563-21.8-13.493l4.053-7.44c7.504 4.088 15.027 8.774 22.564 13.957 7.53 5.179 15.07 10.847 22.618 16.907z" style="fill:#1b1918;fill-rule:evenodd"></path><path d="M152.285 277.107c13.134-13.012 28.924-26.214 48.61-39.649l-13.128-52.96c-12.541 1.761-24.667 5.058-36.067 10.194-11.61 5.23-22.485 12.373-32.303 21.75-17.673 16.878-28.341 30.83-34.944 45.24-6.19 13.51-8.89 27.655-10.51 45.172 7.187 2.24 14.398 4.161 21.798 5.618 7.792 1.534 15.752 2.551 24.057 2.885 9.004-12.578 19.425-25.31 32.487-38.25M358.617 261.705c.355 20.532-.048 42.55-.45 64.568-.404 22.056-.807 44.113-.445 64.61 15.16 6.475 31.2 11.561 47.238 16.647 15.985 5.068 31.97 10.138 47.342 16.656 9.747-14.373 18.641-29.474 26.893-45.1 8.46-16.022 16.26-32.641 23.618-49.625-9.474-15.794-19.79-30.8-31.153-44.82-11.44-14.115-23.96-27.264-37.775-39.252-13.338 1.007-26.325 3.025-39.023 5.869-12.231 2.74-24.302 6.28-36.245 10.447M290.54 567.528 189.452 434.46l-39.36-.096c-7.923 11.593-14.834 24.468-20.955 38.345-6.23 14.125-11.622 29.261-16.414 45.118 11.928 20.06 25.666 37.395 41.047 51.867 15.35 14.442 32.344 26.026 50.813 34.612 15.78-4.924 31.023-10.657 45.801-17.087 13.775-5.993 27.14-12.587 40.156-19.69M49.196 511.787c-7.282-18.956-13.656-38.915-18.64-60.407a444 444 0 0 1-3.67-17.283c1.719 34.055 9.657 66.531 22.703 96.259-.617-6.398-.81-12.71-.393-18.57M465.71 536.298c-11.783 12.73-24.235 24.586-37.543 35.57a359 359 0 0 1-43.221 30.635c-.173 10.342.09 20.61.774 30.684.682 10.035 1.784 19.82 3.29 29.235a64.3 64.3 0 0 0 10.165 3.32 74 74 0 0 0 11.844 1.8c29.008-13.587 55.252-32.166 77.63-54.616a275.5 275.5 0 0 0 25.946-30.092h-.01c.295-5.066.58-10.01.718-14.525.112-3.682.141-7.285.025-10.799l-9.491-3.938c-14.739-6.098-28.177-11.657-40.127-17.274M555.627 359.164c4.094 12.023 8.424 24.911 11.908 38.559a269.6 269.6 0 0 0-10.318-54.906c-.18 5.336-.718 10.774-1.59 16.347M424.681 183.483l4.896.156a271 271 0 0 0-17.048-8.78 373 373 0 0 1 12.152 8.624" style="fill:#be2f21;fill-rule:evenodd"></path><path d="M29.29 381.14c11.206-25.174 33.5-68.526 36.045-73.463 1.308-14.877 3.328-27.5 7.4-39.44A270 270 0 0 0 29.29 381.14M71.13 314.868c-6.796 13.057-29.623 57.26-40.667 82.995 1.845 18.262 4.606 35.417 8.364 51.623 4.823 20.795 10.96 40.103 17.963 58.43a391 391 0 0 0 25.04 6.03 369 369 0 0 0 22.032 3.869l.195-.654c5.02-16.827 10.698-32.892 17.307-47.874 6.214-14.088 13.27-27.245 21.403-39.215-5.24-14.666-10.32-32.872-14.618-51.333-4.473-19.208-8.129-38.773-10.268-54.986-8.266-.41-16.13-1.44-23.768-2.943-7.796-1.535-15.399-3.568-22.982-5.942" style="fill:#fff;fill-rule:evenodd"></path><path d="M126.104 321.13c2.068 16.213 5.76 36.113 10.316 55.682 4.12 17.694 8.927 35.047 13.855 49.082l41.278.1 2.101.005 1.27 1.673L300.25 566.315l2.95 3.884-4.263 2.378c-14.613 8.148-29.641 15.662-45.163 22.416-15.548 6.764-31.603 12.773-48.247 17.899l-1.542.474-1.447-.657c-19.886-9.04-38.142-21.371-54.58-36.837-14.69-13.821-27.928-30.153-39.576-48.881-8.825-1.133-18.948-2.823-28.245-4.74a403 403 0 0 1-22.655-5.353c-.075 4.599.197 9.424.722 14.289.867 8.046 3.11 19.991 8.858 32.537a274.3 274.3 0 0 0 38.75 49.336c48.79 49.268 116.19 79.876 190.908 79.876 35.202 0 68.864-6.782 99.766-19.1a72 72 0 0 1-13.084-4.605l-2.02-.94-.372-2.216c-1.744-10.39-3.005-21.216-3.76-32.324a369 369 0 0 1-.813-28.51c-13.241-3.606-26.627-8.013-39.565-13.165-12.809-5.1-25.104-10.894-36.3-17.32l6.493-6.086c10.954 6.287 20.597 10.622 32.93 15.533 12.322 4.907 25.136 9.138 37.884 12.636l.72-.428a351 351 0 0 0 44.188-31.087c13.204-10.898 25.601-22.743 37.376-35.531 1.968-16.346 1.992-32.715.198-49.104-1.764-16.104-5.281-32.199-10.434-48.284-15.244-6.534-31.384-11.652-47.524-16.77-17.108-5.425-34.216-10.85-50.573-18.051l-2.467-1.086-.058-2.718c-.454-21.4-.031-44.52.392-67.64.421-23.04.842-46.08.391-67.342l-.065-3.058 2.872-1.027c13.046-4.67 26.396-8.648 40.14-11.727 12.375-2.771 24.97-4.782 37.832-5.871-1.204-7.541-2.74-15.006-4.52-22.405-1.956-8.123-4.235-16.272-6.718-24.42-11.034-8.155-21.146-14.73-30.628-20.171a246 246 0 0 0-25.746-12.871c-21.259-5.343-43.507-8.184-66.41-8.184-29.562 0-57.981 4.724-84.56 13.455l-16.55 18.863 13.17 53.132 23.38 2.407-.864 8.437-23.504-2.42c-20.268 13.641-36.365 27.017-49.652 40.18-12.957 12.838-23.258 25.495-32.16 38.013m131.618-107.616a3.317 3.317 0 1 1 6.632.183 3.317 3.317 0 0 1-6.632-.183M439.78 239.275c14.057 12.236 26.805 25.64 38.458 40.018 11.876 14.653 22.598 30.288 32.397 46.706 6.78 3.797 13.575 8.072 20.382 12.753 5.694 3.916 11.394 8.112 17.099 12.546.93-8.633.942-16.896-.077-24.928-.967-7.627-2.876-15.088-5.825-22.508-13.41-28.109-31.517-53.552-53.31-75.312a273 273 0 0 0-44.42-35.91c-3.32-.103-6.27-.211-9.222-.318l-6.239-.223c2.01 6.807 3.884 13.685 5.561 20.652 2.122 8.816 3.9 17.66 5.195 26.524M486.702 383.038c-8.684 16.446-18.095 32.355-28.48 47.513 5.214 16.423 8.778 32.838 10.575 49.241 1.773 16.188 1.827 32.396.05 48.622 11.807 5.567 25.346 11.168 40.212 17.318l11.194 4.634c5.325-4.056 10.065-8.084 14.256-12.017 5.477-5.14 9.977-10.102 13.6-14.746a270.7 270.7 0 0 0 17.274-62.338c1.63-17.642-.185-34.72-3.606-50.922-3.648-17.273-9.16-33.688-14.284-48.736-7.14-5.707-14.242-11.03-21.293-15.879-5.562-3.825-11.098-7.361-16.601-10.564-7.112 16.286-14.673 32.3-22.897 47.874M536.758 547.778a199 199 0 0 1-12.923 10.49c.081 3.334.045 6.763-.062 10.274l-.04 1.228a274 274 0 0 0 13.025-21.992" style="fill:#fff;fill-rule:evenodd"></path><path d="M163.125 250.213h273.501v287.705c0 10.138-4.144 19.352-10.821 26.029s-15.89 10.821-26.03 10.821h-82c-3.208 0-6.25.394-9.122 1.38-2.856.981-5.595 2.553-8.229 4.912l-2.79 2.5-2.824-2.467c-2.603-2.274-5.037-3.919-7.656-4.967-2.587-1.036-5.458-1.53-8.978-1.524l-82.453.15v.016h-.059c-10.104 0-19.296-4.147-25.97-10.825-6.651-6.657-10.787-15.85-10.805-25.966h-.016V250.213zm264.998 180.395c-6.463-1.115-13.354-1.456-19.357-.55-5.043.761-9.35 2.38-11.97 5.14-5.459 5.747-8.339 12.29-9.286 19.174-1.112 8.073.383 16.714 3.487 25.19 1.163 3.176 2.612 6.38 4.237 9.528 1.848 3.58 3.939 7.121 6.11 10.49 3.245 5.038 5.6 10.451 6.823 16.36 1.218 5.895 1.288 12.212-.038 19.055l-.05.249c-1.473 5.772-2.622 11.371-2.843 16.717-.188 4.546.276 9 1.765 13.363a28.43 28.43 0 0 0 12.792-7.39c5.14-5.139 8.33-12.225 8.33-20.016zM398.41 566.265c-1.409-4.842-1.848-9.713-1.645-14.636.255-6.149 1.49-12.254 3.067-18.442 1.069-5.646 1.012-10.8.03-15.552-.992-4.797-2.948-9.26-5.66-13.47-2.291-3.556-4.516-7.326-6.509-11.188-1.797-3.481-3.395-7.012-4.67-10.492-3.545-9.681-5.233-19.688-3.918-29.242.61-4.433 1.858-8.75 3.853-12.868l-30.318.057q.37.975.62 1.985c1.095 4.415.429 9.144-1.936 14.036-4.157 8.598-11.392 14.725-18.747 20.952-1.837 1.555-3.681 3.117-5.141 4.413-6.806 6.045-12.716 14.106-17.18 23.179-4.439 9.017-7.42 18.988-8.408 28.927h-.008l.029 35.899a30.6 30.6 0 0 1 4.027-1.714c3.84-1.319 7.788-1.844 11.88-1.844zm-10.006-134.371q1.059-1.292 2.246-2.544c4.053-4.268 10.065-6.671 16.853-7.696 6.472-.977 13.746-.713 20.62.352v-163.29H301.616l.133 163.366c7.25-1.014 14.29-1.18 21.08-.126 7.82 1.214 15.23 4.037 22.144 9.021q.676.489 1.302.997zm-86.59 71.087q.41-.874.834-1.738c4.928-10.013 11.521-18.973 19.174-25.77a279 279 0 0 1 5.274-4.546c6.663-5.641 13.218-11.192 16.588-18.162 1.485-3.072 1.944-5.878 1.339-8.322-.59-2.38-2.245-4.603-5-6.59-5.764-4.155-11.953-6.51-18.49-7.526-6.234-.968-12.855-.728-19.777.331zm-8.415 66.73-.254-310.994H167.377v279.261h-.017c.014 7.765 3.208 14.843 8.347 19.985 5.117 5.12 12.18 8.302 19.957 8.302h.059v.016l82.453-.15c4.652-.008 8.533.68 12.134 2.122 1.058.424 2.084.91 3.089 1.459" style="fill:#000;fill-rule:evenodd"></path><path d="m293.399 569.712-.254-310.995H167.377v279.261h-.017c.014 7.765 3.208 14.843 8.347 19.985 5.117 5.12 12.18 8.302 19.957 8.302h.059v.016l82.453-.15c4.652-.008 8.533.68 12.134 2.122 1.058.424 2.084.91 3.089 1.459" style="fill:#fff;fill-rule:evenodd"></path><path d="M453.512 579.772c6.37-6.667 12.638-13.444 18.601-20.548l-10.576-8.216c-8.934 10.285-18.566 20.142-29.126 29.428l44.914 47.791 11.556-11.13-17.957-18.688c5.897-5.467 6.097-5.715 11.486-11.682l-10.928-9.296-10.01 10.63zM409.646 647.507c9.327 12.652 22.5 13.444 35.29 4.476 11.85-8.308 11.779-22.966 5.236-31.985l-12.925 9.596c1.864 2.952 3.276 9.105-1.817 12.116-4.183 2.473-8.846 2.872-13.326-4.161l-8.086-12.694c-2.37-3.72-5.998-10.254.266-14.182 5.46-3.422 8.62-1.77 12.336 2.56l12.909-9.536c-8.415-11.068-22.133-12.71-32.724-5.274-12.865 9.033-14.46 22.137-7.416 33.1 3.257 5.07 6.154 10.42 10.257 15.984M368.72 661.837l-11.925 3.242 1.198-19.966zm7.422 12.058 5.989 9.31 16.563-5.151-40.146-58.437-13.989 4.051-6.24 69.97 17.221-2.97.349-11.458z" style="fill:#000;fill-rule:evenodd"></path><path d="m305.43 657.104-.201-14.135 9.87-.135c3.511-.048 7.3 2.568 7.435 6.707.14 4.27-2.539 7.398-7.678 7.456zm6.06 14.244 11.687 23.65 20.015-.445-14.48-26.623c6.945-3.44 11.442-10.018 11.136-19.37-.346-10.55-8.998-21.79-24.42-20.783-8.995.587-18.314.523-27.809.11l1.024 67.042 17.313-.043-.56-23.319z" style="fill:#000;fill-rule:evenodd"></path><path d="M261.2 681.184c-6.629-1.077-8.081-7.401-7.137-14.678l1.576-12.153c1.407-10.85 5.02-14.069 11.41-13.486 6.031.55 8.497 6.64 7.488 14.59l-1.72 13.54c-1.003 7.897-4.154 13.4-11.616 12.187m-23.683-20.233c-4.07 21.158 4.418 31.316 21.297 33.537 20.19 2.655 28.497-5.067 30.378-21.2l1.974-16.933c1.76-15.109-4.515-28.133-21.322-30.501-15.85-2.234-26.679 5.724-29.99 22.946z" style="fill:#000;fill-rule:evenodd"></path><path d="M252.445 623.79c-5.902-1.554-11.549-3.247-16.688-5.243l-25.419 21.979-2.374-30.058-17.789-7.869-23.88 59.277 15.957 6.872 11.911-29.156 2.442 19.903 10.528 4.129 15.583-12.547-11.898 29.453 16.501 5.807z" style="fill:#000;fill-rule:evenodd"></path><path d="m159.58 629.524-10.193-7.19 16.068-11.651zm-4.463 13.04-3.626 10.782 15.624 7.451 16.677-62.596-13.998-9.856-54.118 37.98 12.684 11.351 9.81-6.909zM125.865 618.938l-18.356-17.789 48.984-8.543 7.156-6.952-32.195-32.608-8.023 7.023 16.783 18.993-50.926 8.345-6.545 5.624 31.954 33.567zM463.659 620.765c-4.233-.285-7.887 2.92-8.172 7.153s2.708 7.855 6.94 8.14c4.234.284 8.095-2.845 8.38-7.078.284-4.232-2.916-7.93-7.149-8.215M491.354 596.018c-4.232-.285-7.886 2.92-8.171 7.153s2.708 7.855 6.94 8.14c4.234.284 8.095-2.845 8.38-7.078.284-4.233-2.916-7.93-7.149-8.215" style="fill:#000;fill-rule:evenodd"></path><path d="M389.1 386.883v-.028zm-17.288 45.042 16.592-.031q.264-.322.536-.643l-.06 17.099-.002.343c.99.418 3.39.53 4.823.157 3.944-1.029 8.061-4.853 12.304-6.33 2.419-.841 4.867-1.432 8.072-1.348l-.153-11.59-.112-8.495-1.376-104.386 4.021-3.85.025-10.114-5.078-.018-.805-18.093 2.125-3.747-.003-9.838-5.099.011.004 2.694-4.31.018.005-2.718-4.834.002-.005 2.69-4.302-.012.001-2.683h-5.097v9.31l2.247 4.295-.637 18.082-5.376-.003.02 9.986 4.012 4.06-.123 34.299-3.99.006v-2.69l-4.824-.001-.013 2.677-4.299.005.007-2.684-4.835-.001-.001 2.68-4.299.01-.005-2.682-4.825-.003.003 2.68h-4.305l-.005-2.681-4.829.009v2.672h-4.315l-.001-2.68h-4.8l.002 2.719-4.17-.002-.123-34.333 4.012-4.06.02-9.986-5.376.003-.637-18.082 2.246-4.296v-9.308h-5.096v2.682l-4.301.013-.004-2.69-4.835-.003.006 2.718-4.31-.018.003-2.694-5.099-.01-.003 9.838 2.126 3.746-.806 18.093-5.078.018.025 10.114 4.022 3.85-1.379 104.565-.111 8.477-.151 11.429c3.205-.084 5.653.507 8.071 1.348 4.243 1.477 8.36 5.301 12.304 6.33 1.433.374 3.834.26 4.823-.157l-.038-10.833-.036-10.057-.153-42.605v-.275q.087-.399.215-.787c.952-3.407 4.239-5.941 7.663-5.941h1.098c4.364 0 8.22 4.139 8.22 8.504v60.566c2.157 5.438 13.115 5.315 14.771-.009v-6.86zm-43.881-18.63a3.127 3.127 0 0 1 3.118 3.119v6.257h-6.3v-6.257a3.127 3.127 0 0 1 3.118-3.118zm76.194-110.753h-6.3v-6.257a3.127 3.127 0 0 1 3.118-3.118h.064a3.127 3.127 0 0 1 3.118 3.118zm-73 0h-6.3v-6.257a3.127 3.127 0 0 1 3.117-3.118h.064a3.127 3.127 0 0 1 3.118 3.118zm-.076 40.05h-6.3v-6.257a3.127 3.127 0 0 1 3.118-3.118h.064a3.127 3.127 0 0 1 3.118 3.118zm0 39.969h-6.3v-6.257a3.127 3.127 0 0 1 3.118-3.118h.064a3.127 3.127 0 0 1 3.118 3.118zm73.152-39.969h-6.3v-6.257a3.127 3.127 0 0 1 3.118-3.118h.064a3.127 3.127 0 0 1 3.118 3.118zm0 39.969h-6.3v-6.257a3.127 3.127 0 0 1 3.118-3.118h.064a3.127 3.127 0 0 1 3.118 3.118zm-6.3 40.11v-6.257a3.127 3.127 0 0 1 3.118-3.118h.064a3.127 3.127 0 0 1 3.118 3.118v6.257h-1.56z" style="fill:#fff;fill-rule:evenodd"></path><path d="M404.125 302.542h-6.3v-6.257a3.127 3.127 0 0 1 3.118-3.118h.064a3.127 3.127 0 0 1 3.118 3.118zm-24.367 75.587c.354.002.719-.002 1.098 0 3.88.029 7.414 3.912 8.246 7.948l-.224 62.616c.99.418 3.39.53 4.823.157 3.943-1.029 8.061-4.853 12.304-6.33 2.418-.841 4.867-1.432 8.072-1.348L412.436 316.7l4.021-3.85.025-10.114-5.078-.018-.805-18.093 2.125-3.747-.003-9.838-5.099.011.004 2.694-4.31.018.005-2.718-4.834.002-.005 2.69-4.302-.012v-2.683h-5.096v9.31l2.247 4.295-.637 18.082-5.376-.003.02 9.986 4.012 4.06-.123 34.299-3.99.006v-2.69l-4.824-.001-.014 2.677-4.298.005.007-2.684-4.836-.001v2.68l-4.3.01-.004-2.682-4.825-.003.003 2.68h-4.305l-.005-2.681-4.829.009v2.672h-4.315l-.001-2.68h-4.8l.002 2.719-4.17-.002-.123-34.333 4.012-4.06.02-9.986-5.376.003-.637-18.082 2.246-4.296v-9.308h-5.096v2.682l-4.301.013-.004-2.69-4.835-.003.006 2.718-4.311-.018.004-2.694-5.099-.01-.003 9.838 2.125 3.746-.805 18.093-5.078.018.025 10.114 4.022 3.85-1.641 124.47c3.204-.083 5.653.508 8.071 1.35 4.243 1.476 8.36 5.3 12.304 6.33 1.432.373 3.834.26 4.823-.158l-.228-63.77c.798-3.655 4.314-6.728 7.879-6.728h1.098c4.364 0 8.22 4.139 8.22 8.504v60.566c2.157 5.438 13.115 5.315 14.771-.009V386.69c0-4.363 3.949-8.58 7.947-8.56zm-54.934-75.587h6.3v-6.257a3.127 3.127 0 0 0-3.118-3.118h-.064a3.127 3.127 0 0 0-3.118 3.118zm-.075 40.05h6.3v-6.257a3.127 3.127 0 0 0-3.118-3.118h-.064a3.127 3.127 0 0 0-3.118 3.118zm0 39.969h6.3v-6.257a3.127 3.127 0 0 0-3.118-3.118h-.064a3.127 3.127 0 0 0-3.118 3.118zm0 40.11h6.3v-6.257a3.127 3.127 0 0 0-3.118-3.118h-.064a3.127 3.127 0 0 0-3.118 3.118zm79.452-80.079h-6.3v-6.257a3.127 3.127 0 0 1 3.118-3.118h.064a3.127 3.127 0 0 1 3.118 3.118zm0 39.969h-6.3v-6.257a3.127 3.127 0 0 1 3.118-3.118h.064a3.127 3.127 0 0 1 3.118 3.118zm0 40.11h-6.3v-6.257a3.127 3.127 0 0 1 3.118-3.118h.064a3.127 3.127 0 0 1 3.118 3.118z" style="fill:#000;fill-rule:evenodd"></path><path d="m339.254 351.106 4.64.002-.004-2.72h4.8l.001 2.68h4.315l.001-2.672 4.83-.009.004 2.681h4.305l-.003-2.68 4.825.004.005 2.68 4.298-.008.001-2.68h4.836l-.007 2.684 4.298-.005.014-2.676 4.824.002v2.689l4.294-.007" style="fill:none"></path><path d="M389.1 386.883c.015-4.59-3.793-8.72-8.244-8.754-.38-.003-.744.002-1.098 0-3.998-.02-7.946 4.197-7.946 8.56v60.567c-1.657 5.324-12.615 5.447-14.771.009v-60.567c0-4.365-3.857-8.503-8.22-8.503h-1.099c-4.065 0-7.937 3.571-7.937 7.937" style="fill:#00f;fill-rule:evenodd"></path><path d="M371.812 447.256c-1.657 5.324-12.615 5.447-14.771.009v-6.841l-4.4.008q.37.974.62 1.984c1.094 4.415.428 9.144-1.937 14.036-4.157 8.598-11.392 14.725-18.747 20.952-1.837 1.555-3.681 3.117-5.141 4.413-6.806 6.045-12.716 14.106-17.18 23.179-4.439 9.018-7.42 18.988-8.408 28.927h-.008l.029 35.899a30.6 30.6 0 0 1 4.027-1.714c3.84-1.319 7.788-1.844 11.88-1.844h80.634c-1.409-4.841-1.848-9.713-1.645-14.636.255-6.149 1.49-12.254 3.067-18.442 1.069-5.646 1.012-10.8.03-15.552-.992-4.797-2.948-9.26-5.66-13.47-2.291-3.556-4.516-7.326-6.509-11.188-1.797-3.481-3.395-7.012-4.67-10.492-3.545-9.681-5.233-19.688-3.918-29.242.61-4.433 1.858-8.75 3.853-12.868l-11.146.02z" style="fill:#59aad5;fill-rule:evenodd"></path><path d="M327.096 470.927c6.663-5.641 13.218-11.192 16.588-18.162 1.485-3.072 1.944-5.878 1.339-8.322-.59-2.377-2.24-4.598-4.99-6.583l.039 10.833c-.99.418-3.391.53-4.824.157-3.943-1.029-8.06-4.853-12.303-6.33-2.419-.841-4.867-1.432-8.072-1.348l.15-11.43c-4.275-.124-8.706.218-13.267.916l.059 72.323.833-1.738c4.928-10.013 11.521-18.973 19.174-25.77a279 279 0 0 1 5.274-4.546M387.51 454.372c-1.112 8.073.383 16.715 3.487 25.19 1.163 3.176 2.612 6.38 4.237 9.528 1.848 3.58 3.939 7.121 6.11 10.49 3.245 5.038 5.6 10.451 6.823 16.36 1.218 5.895 1.288 12.212-.038 19.055l-.05.249c-1.473 5.772-2.622 11.371-2.843 16.717-.188 4.546.276 9 1.765 13.363a28.43 28.43 0 0 0 12.792-7.39c5.14-5.139 8.33-12.225 8.33-20.016v-107.31c-4.675-.807-9.574-1.208-14.2-1.026l.153 11.59c-3.204-.084-5.653.507-8.071 1.348-4.243 1.477-8.36 5.301-12.304 6.33-1.432.374-3.834.26-4.823-.157l.001-.343a35 35 0 0 0-1.37 6.022z" style="fill:#4ba55f;fill-rule:evenodd"></path><path d="m362.143 348.389 4.825.003.005 2.68 4.299-.008v-2.68h4.836l-.007 2.684 4.299-.005.013-2.676 4.824.002v2.689l3.99-.006.123-34.3-4.012-4.06-.02-9.985 5.376.003.637-18.083-2.246-4.295-.001-9.308 5.097-.001v2.683l4.301.013.005-2.691 4.834-.002-.006 2.718 4.311-.019-.004-2.693 5.099-.01.003 9.837-2.125 3.747.805 18.093 5.078.018-.025 10.114-4.021 3.85 1.376 104.385c4.7-.164 9.6.19 14.31.92v-163.29H301.617l.133 163.366c4.548-.636 9.013-.94 13.386-.816l1.379-104.565-4.022-3.85-.025-10.114 5.078-.018.806-18.093-2.125-3.747.003-9.838 5.098.011-.004 2.694 4.311.018-.006-2.718 4.835.002.004 2.69 4.302-.012-.001-2.683h5.097v9.31l-2.247 4.295.637 18.082 5.376-.003-.02 9.986-4.012 4.06.123 34.333 4.17.002-.002-2.72h4.8v2.68h4.316v-2.671l4.83-.01.004 2.682h4.305z" style="fill:#fff;fill-rule:evenodd"></path><path d="M327.867 413.296a3.13 3.13 0 0 0-3.118 3.118v6.257h6.300000000000001v-6.257a3.127 3.127 0 0 0-3.119-3.118zM357.04 386.699c0-4.366-3.856-8.504-8.22-8.504h-1.098c-3.424 0-6.71 2.534-7.662 5.94q-.146.52-.216 1.063l.153 42.605a51 51 0 0 1 4.976 3.174q.676.489 1.302.997l10.766-.02zM401.019 413.296a3.127 3.127 0 0 0-3.118 3.118v6.257h6.300000000000001v-6.257a3.13 3.13 0 0 0-3.118-3.118zM397.9 382.56h6.3v-6.256a3.127 3.127 0 0 0-3.117-3.118h-.064a3.127 3.127 0 0 0-3.118 3.118zM397.9 342.592h6.3v-6.257a3.127 3.127 0 0 0-3.117-3.118h-.064a3.127 3.127 0 0 0-3.118 3.118zM397.825 302.542h6.3v-6.257a3.127 3.127 0 0 0-3.118-3.118h-.064a3.127 3.127 0 0 0-3.118 3.118zM331.124 302.542v-6.257a3.127 3.127 0 0 0-3.118-3.118h-.064a3.127 3.127 0 0 0-3.118 3.118v6.257zM331.049 336.335a3.127 3.127 0 0 0-3.118-3.118h-.064a3.127 3.127 0 0 0-3.118 3.118v6.257h6.3zM331.049 376.304a3.127 3.127 0 0 0-3.118-3.118h-.064a3.127 3.127 0 0 0-3.118 3.118v6.257h6.3z" style="fill:#fff;fill-rule:evenodd"></path><path d="M252.53 488.585a3.225 3.225 0 1 0 0 6.45 3.225 3.225 0 0 0 0-6.45" style="fill:#fbf9fa;fill-rule:evenodd" data-source="https://football-logos.cc"></path><path d="M252.53 488.585a3.225 3.225 0 1 0 0 6.45 3.225 3.225 0 0 0 0-6.45" style="fill:#fff;fill-rule:evenodd"></path><path d="M252.529 488.444a3.366 3.366 0 1 0 0 6.732 3.366 3.366 0 0 0 0-6.732" style="fill:#fff;fill-rule:evenodd"></path><path d="m268.008 433.135 27.942 11.143-.98 7.194c-.062.463-.756.604-1.188.429l-28.737-11.625c-2.023-.818-3-2.883-2.198-4.912l.005-.013a3.98 3.98 0 0 1 5.156-2.216z" style="fill:#000;fill-rule:evenodd;stroke:#1b1918;stroke-width:.21600001;stroke-linecap:butt;stroke-linejoin:miter;stroke-dasharray:none"></path><path d="m264.644 443.185 27.942 11.142c2.824 1.574 1.815 7.111-1.13 7.438-.455.05-1.035.186-1.8-.123l-27.976-11.317c-2.022-.818-3-2.883-2.197-4.912l.005-.012a3.98 3.98 0 0 1 5.156-2.217z" style="fill:none"></path><path d="M289.824 461.665c-1.126-.324-2.199-.095-2.63.912l-14.513 33.9c-.426.995-.73 1.926-.487 2.813 1.982 7.207-1.687 14.163-7.762 17.85-6.009 3.647-12.42 2.995-18.024-.455.125-1.789-.256-2.863-1.25-3.445l-33.188-19.462c-.744-.332-1.607-.35-2.212.05-.73.484-1.41.693-2.297.703-2.268-.055-4.18-1.445-4.15-3.834.016-1.194.546-2.306.95-3.473l4.064-11.748c.724-2.092 2.29-3.189 4.648-2.7 1.67.345 2.643 1.431 2.794 3.074.082.9.776 1.84 1.575 2.118L246 487.935c1.056-2.109 2.7-3.4 5.25-3.46l10.82-30.938c.414-1.314.213-2.558-.438-3.3" style="fill:none"></path><path d="M191.293 319.595a4.235 4.235 0 0 1 0-8.471l19.539.019q.452 0 .878.091l.002-.009 51.896 11.177 7.95-.082a4.236 4.236 0 0 1 .066 8.47l-8.155.085c-.396.03-.803.007-1.211-.08l-51.923-11.182Z" style="fill:#be2f21;fill-rule:evenodd"></path><path d="M191.293 330.933a4.236 4.236 0 0 1 0-8.47h21.093q.48 0 .93.102v-.003l48.084 10.85 12.765-.002a4.236 4.236 0 0 1 0 8.47l-13.054.002a4.3 4.3 0 0 1-1.13-.1l-48.084-10.85z" style="fill:#be2f21;fill-rule:evenodd"></path><path d="M191.293 342.555a4.236 4.236 0 0 1 0-8.47h22.293q.48 0 .93.102v-.003l44.305 10.083 16.494-.135a4.236 4.236 0 0 1 .067 8.47l-16.798.138a4.3 4.3 0 0 1-1.167-.097l-44.324-10.088z" style="fill:#be2f21;fill-rule:evenodd"></path><path d="M191.293 354.036a4.236 4.236 0 0 1 0-8.471h24.468q.517 0 .996.118l.001-.002 39.397 9.59 20.919-.25a4.236 4.236 0 0 1 .1 8.47l-21.3.254a4.2 4.2 0 0 1-1.209-.114l-39.423-9.596z" style="fill:#be2f21;fill-rule:evenodd"></path><path d="M191.293 365.374a4.236 4.236 0 0 1 0-8.47l25.368-.076q.533.001 1.028.126l.002-.01 36.498 9.15 24.868-.185a4.235 4.235 0 0 1 .033 8.47l-25.103.187c-.45.037-.915.002-1.378-.113l-36.507-9.153z" style="fill:#be2f21;fill-rule:evenodd"></path><path d="M190.918 377.333a4.236 4.236 0 0 1 0-8.47l27.89-.076q.525.002 1.012.122l.001-.006 31.903 7.947 29.016-.236a4.236 4.236 0 0 1 .067 8.47l-29.33.239a4.2 4.2 0 0 1-1.294-.114l-31.916-7.95z" style="fill:#be2f21;fill-rule:evenodd"></path><path d="M191.197 388.747a4.236 4.236 0 0 1-.034-8.47l28.782-.113q.577 0 1.11.143l.003-.01 28.438 7.624 33.17-.26a4.236 4.236 0 0 1 .067 8.47l-33.469.263c-.474.04-.962 0-1.448-.13l-28.447-7.627z" style="fill:#be2f21;fill-rule:evenodd"></path><path d="M191.293 400.099a4.236 4.236 0 0 1 0-8.471h30.599q.617.002 1.179.166l24.032 6.964 37.141-.37a4.236 4.236 0 0 1 .066 8.47l-37.612.376a4.2 4.2 0 0 1-1.36-.165l-24.052-6.971z" style="fill:#be2f21;fill-rule:evenodd"></path><path d="M191.293 307.973a4.236 4.236 0 0 1 0-8.471h18.693q.452 0 .879.091l.002-.009 55.524 11.908 3.3-.002a4.235 4.235 0 0 1 0 8.47l-3.496.003c-.384.027-.78 0-1.175-.083l-55.526-11.909z" style="fill:#4aa663;fill-rule:evenodd"></path><path d="M183.123 288.213c-1.422.894-2.33 2.252-2.33 3.772 0 1.519.906 2.875 2.326 3.77l-.065 250.375a4.236 4.236 0 0 0 8.47 0l.065-250.657c1.183-.885 1.917-2.121 1.917-3.488 0-1.483-.863-2.81-2.225-3.705l2.337-6.533a48.7 48.7 0 0 1-6.3-12.975c-1.903 5.817-3.934 9.934-6.337 13.05.77 2.13 1.422 4.26 2.142 6.391" style="fill:#000;fill-rule:evenodd"></path><path d="M182.34 300.645c3.272.492 6.499.508 9.674 0v8.1c-3.042.547-6.282.503-9.675 0z" style="fill:#4ba55f;fill-rule:evenodd"></path><path d="M182.34 312.125c3.272.492 6.499.508 9.674 0v8.1c-3.042.548-6.282.503-9.675 0zM182.34 323.747c3.272.492 6.499.508 9.674 0v8.1c-3.042.548-6.282.503-9.675 0zM182.34 335.37c3.272.491 6.499.507 9.674 0v8.1c-3.042.547-6.282.502-9.675 0zM182.34 346.991c3.272.493 6.499.508 9.674 0v8.1c-3.042.548-6.282.503-9.675 0zM182.34 358.472c3.272.492 6.499.508 9.674 0v8.1c-3.042.547-6.282.503-9.675 0zM182.34 370.094c3.272.492 6.499.508 9.674 0v8.1c-3.042.547-6.282.503-9.675 0zM182.34 381.574c3.272.492 6.499.508 9.674 0v8.1c-3.042.547-6.282.503-9.675 0zM182.34 393.196c3.272.492 6.499.508 9.674 0v8.1c-3.042.548-6.282.503-9.675 0z" style="fill:#be2f21;fill-rule:evenodd"></path><path d="m204.814 473.674-.937 15.825-3.638-2.212-3.15-.3c-4.673-.263-9.641.525-14.02-.882-1.77-.568-3.601-1.434-3.605-3.506-.002-1.027.285-1.814 1.2-2.475-1.237-.63-2.142-1.574-2.082-3.206.04-1.063.368-1.968 1.67-2.531-1.053-.525-2.046-1.407-2.025-3.338.017-1.523.972-2.727 2.962-3.338-1.536-.752-2.803-1.85-2.897-3.82-.123-2.577 1.893-3.921 5.072-3.455l5.587.637 1.95-2.437c2.613 1.85 5.315 3.58 7.838 5.55 2.16 1.684 3.053 3.713 3.338 5.7.283 1.978 1.234 3.33 2.737 3.788" style="fill:#1b1918;fill-rule:evenodd"></path><path d="m286.235 437.416-.966 2.684 8.027 3.2-.002-2.988zM293.303 451.79l-10.685-4.322-.907 2.522 10.875 4.337q.413.233.72.566z" style="fill:#fff;fill-rule:evenodd"></path><path d="M370.279 214.798c.821-.745 1.493-1.662 2.706-1.685.79-.015 1.205.652 1.43 1.243.67 1.755.248 3.101-.844 3.984-1.067.863-2.78 1.101-4.219.088-.473-.334-.6-1.047-.445-1.612.203-.739.805-1.502 1.372-2.018m-153.123-21.855a216 216 0 0 1 18.567-5.542q-.19-.39-.367-.796-.341.057-.697.058a4.254 4.254 0 0 1-1.202-8.336q-.075-1.027-.095-2.147a4.257 4.257 0 0 1-2.302-6.23l-1.602-.634c-5.784-2.445-14.063.038-17.312 6.217-3.219 6.121-.865 13.363 5.01 17.41m34.972-9.043c12.24-2.17 24.816-3.447 37.426-3.835-.437-9.397-7.789-17.212-17.375-17.953-10.381-.802-19.45 6.995-20.255 17.415a18 18 0 0 0 .204 4.373m53.782-3.84c12.66.382 25.226 1.66 37.389 3.83.257-1.435.344-2.9.23-4.375-.805-10.42-10.026-18.205-20.408-17.403-9.572.74-16.778 8.564-17.211 17.948m53.877 7.39a207 207 0 0 1 18.078 5.48c2.412-2.195 4.308-4.87 5.224-7.762.963-3.046.832-6.363-.876-9.611-2.929-5.57-10.213-8.699-18.509-6.043a4.003 4.003 0 0 1-1.95 6.33q.05 1.261-.027 2.588.079.023.155.05h.001l.071.025.007.002.077.029q.075.03.15.062h.001l.07.032.01.005.065.03.002.001.066.033.007.004q.106.054.208.115l.007.004.13.08.004.003.06.04.007.005.067.046q.064.046.127.094l.004.003q.06.046.12.096l.013.01.051.045.06.053.005.004.054.05.05.048.012.012.05.05.005.005q.054.055.107.114l.053.06.004.003.048.057v.001l.04.047.011.014.023.03.027.034.01.014.032.041.007.008.04.056.006.01.046.065.003.004.042.064.011.017.032.05.02.031.022.038.006.01.032.056.003.005.033.06.006.01.038.072.002.003.034.069.025.052.01.02.015.033.018.042.021.047.005.011.027.067.005.012.005.013.029.076.001.002.026.074.001.004.02.059.008.023.016.052.006.018.014.05.008.03.018.065.004.014.02.08v.002l.017.08.004.017.002.01.015.078.002.01.008.048.008.05.005.032.01.068.001.015.01.084.007.084.001.018.005.067.002.034v.012l.004.068v.048l.001.008.001.07v.016l-.001.087a4 4 0 0 1-4.094 3.906h-.023l-.005-.001h-.009l-.026-.001h-.014l-.005-.001h-.018l-.005-.001h-.018l-.004-.001h-.01l-.004-.001h-.014l-.004-.001h-.014l-.004-.001h-.009l-.005-.001h-.013l-.005-.001-.013-.001h-.009l-.004-.001h-.009l-.004-.002h-.018l-.004-.001h-.005l-.004-.001h-.009a34 34 0 0 1-.42 1.199zm10.768 11.962a202 202 0 0 0-11.165-3.295 4 4 0 0 1-2.901 1.15 4 4 0 0 1-1.823-.488q-.47.63-.974 1.257a4.001 4.001 0 0 1-5.47 5.674 52 52 0 0 1-4.69 3.65l4.762-.131-1.64 3.469 5.906 2.297-5.907 2.39 1.641 3.516-9.868.035c.161 3.442 3.622 7.831 10.919 4.51a4.001 4.001 0 1 1 6.765.337c.246.304.492.953 1.895.825 2.135-.194 3.6-2.285 3.551-5.66l-3.773-.035 1.522-3.504-5.731-2.378 5.87-2.508-1.689-3.328 8.883.82-.938-8.836 3.469 1.5zm-30.587-7.495c-10.639-1.816-21.586-2.929-32.621-3.335 1.37 3.386 3.7 6.25 7 8.285l-11.404 10.751 8.156-.328-1.032 3.516 5.626 2.25-5.532 2.321 1.618 3.54-9.939.046c.483 3.196 2.09 5.176 5.696 5.344 2.22.103 3.631-.285 5.105-1.624a4.043 4.043 0 1 1 7.435.65c1.137.787 2.35 1.325 3.772 1.28 4.048-.13 6.2-2.079 6.75-5.625l-10.125-.093 1.547-3.516-5.531-2.344 5.672-2.531-1.547-3.375 8.437.89-.469-8.672 3.61 1.454 2.25-5.72 1.5 2.813 3.975-5.9zm-51.953-3.324c-11 .417-21.96 1.533-32.662 3.354l.03.048 3.94 6.022 1.22-3 2.484 5.696 3.516-1.383-.796 8.086 8.718-.281-1.476 3.562 5.579 2.321-5.625 2.368 1.617 3.633-9.89-.047c.199 4.048 2.603 5.679 6.14 5.625 2.57-.04 3.62-.475 4.842-1.53a4.043 4.043 0 1 1 7.325.2c1.366.71 2.744 1.067 5.318 1.072 2.825.005 5.142-1.837 5.766-5.414h-10.125l1.64-3.516-5.718-2.437 5.718-2.344-1.734-3.422 8.8.917-11.83-11.236c3.289-2.03 5.74-4.905 7.203-8.294m-52.537 7.634c-3.582.942-7.116 1.97-10.593 3.084a22 22 0 0 1 1.088 1.363l3.328-1.453-.75 8.718 8.86-.702-1.594 3.328 5.766 2.437-5.672 2.39 1.594 3.61-3.868-.07c-.455 2.182.617 3.924 1.993 5.016 1.3 1.031 2.489.785 3.501-.272a4.043 4.043 0 1 1 6.888-.209c1.1.75 2.33 1.216 4.072 1.209 3.987-.019 6.501-2.679 6.75-5.743l-10.031.024 1.711-3.633-5.906-2.274 5.907-2.484-1.665-3.352 4.923.422a107 107 0 0 1-4.493-3.707 4.254 4.254 0 0 1-5.985-5.966q-.434-.513-.836-1.023a4.24 4.24 0 0 1-2.01.504 4.24 4.24 0 0 1-2.978-1.217m76.835-39.821a4.26 4.26 0 0 0-3.33-3.252c-2.686-4.591-5.397-6.768-11.513-6.819-6.247-.052-9.18 2.952-11.246 6.789a4.26 4.26 0 0 0-3.525 3.404 52 52 0 0 0-1.154-.434q.024-.222.024-.451a4.254 4.254 0 0 0-8.177-1.649 36 36 0 0 0-1.94-.233 4.256 4.256 0 0 0-8.21.223l-.458.071-.755.127a4.254 4.254 0 0 0-8.046 1.93v.037q-.577.199-1.14.415a4.255 4.255 0 0 0-7.145 4.214q-.447.397-.87.826a4.256 4.256 0 0 0-7.645.51q.043-.3.043-.611a4.254 4.254 0 0 0-8.344-1.176l-1.08-.445c-6.144-3.221-12.507-2.867-18.432.353-5.345 2.906-8.164 6.792-9.371 10.98a3.915 3.915 0 0 0-.628 7.717q.105 1.124.3 2.232a3.916 3.916 0 0 0 2.218 7.508q.41 1.004.846 1.938l.154.33a3.914 3.914 0 1 0 3.714 6.886q.387.633.788 1.26a3.915 3.915 0 1 0 4.576 6.349q.565.698 1.15 1.38a3.915 3.915 0 0 0 5.224 5.404q.707.646 1.436 1.267c-.4 3.147.003 5.155 1.095 6.317 1.549 1.646 3.892 2.31 6.686 2.027l4.933 5.354a4.046 4.046 0 0 0-4.99 3.931 4.045 4.045 0 0 0 3.27 3.97l-4.103 3.949 3.37 4.417a4.044 4.044 0 0 0 2.192 7.757l.063 2.546 131.157.187v-2.657a4.043 4.043 0 0 0-.002-8.086l4.877-3.788-3.815-4.275a4.043 4.043 0 0 0-.776-7.964l5.69-6.28c2.37.787 4.945.614 6.563-1.605 1.983-2.718 1.207-5.25-.844-7.488q.199-.122.396-.245a4.254 4.254 0 0 0 6.403-4.989q.45-.435.888-.886a4.255 4.255 0 0 0 5.17-6.626q.268-.429.529-.868a4.255 4.255 0 0 0 3.66-7.63q.175-.46.345-.929.217-.355.418-.715.322.05.66.051a4.255 4.255 0 0 0 1.891-8.065q.107-1.037.115-2.103a4.255 4.255 0 0 0-1.21-8.164c-2.715-9.523-19.309-15.002-29.193-12.227a4.254 4.254 0 0 0-7.224 3.576l-.347.241a4.256 4.256 0 0 0-7.51-.824 43 43 0 0 0-.819-.643 4.254 4.254 0 0 0-7.043-4.267q-.564-.255-1.13-.484a4.255 4.255 0 0 0-7.874-1.973 28 28 0 0 0-.828-.075l-.725-.052a4.256 4.256 0 0 0-8.153-.165q-1 .042-1.95.125a4.255 4.255 0 0 0-8.097 1.83l.001.092q-.625.288-1.203.623zm-75.61 7.143q.12-.22.215-.454-.038.258-.043.525zm-10.08 51.282c-.822-.745-1.494-1.661-2.707-1.684-.79-.015-1.204.65-1.43 1.242-.67 1.755-.248 3.101.844 3.984 1.068.863 2.78 1.101 4.219.088.474-.334.6-1.047.445-1.612-.203-.739-.804-1.502-1.372-2.018m98.715 21.156c-3.412.047-5.203 1.28-5.203 2.858 0 1.58 1.65 2.836 5.203 2.86 3.553.023 5.473-1.152 5.473-2.73 0-1.58-2.06-3.035-5.473-2.988m-33.808 2.785 2.962 2.77h6.55l2.74-2.747-2.798-2.687h-6.55zm-30.46-28.742a3.317 3.317 0 1 0-.185 6.632 3.317 3.317 0 0 0 .184-6.632m36.991 0a3.317 3.317 0 0 0-3.407 3.225c-.051 1.831 1.069 3.952 3.224 3.407s3.593-1.827 3.408-3.224-1.393-3.357-3.225-3.408m36.464-.07a3.317 3.317 0 1 0-.184 6.632 3.317 3.317 0 0 0 .184-6.632m12.6 28.882 2.962 2.77h6.55l2.74-2.746-2.798-2.688h-6.55zm-77.382-2.85c-3.413.047-5.203 1.28-5.203 2.858 0 1.58 1.65 2.835 5.203 2.859s5.472-1.151 5.472-2.73-2.06-3.035-5.472-2.987m-33.893 2.82 2.962 2.769h6.55l2.74-2.746-2.798-2.688h-6.55z" style="fill:#000;fill-rule:evenodd"></path><path d="m259.488 445.401.013-.032zm.253 3.331a4 4 0 0 1-.496-1.336c.073.473.241.923.492 1.33zm2.485 2.786a3 3 0 0 0-.196-.647l.044.042c.072.182.122.388.152.605m-.127 1.925.003-.012a5.2 5.2 0 0 0 .124-1.913c.108.579.074 1.241-.127 1.925zm-52.345 40.388.005-.003zm-2.293.7a4.3 4.3 0 0 0 2.252-.673c-.713.462-1.384.663-2.251.673m-2.696-.852c.715.522 1.637.814 2.63.85-.953.003-1.893-.295-2.63-.85m45.964 25.04a20.6 20.6 0 0 1-4.32-2.034zm42.54-109.084-.124-150.918H186.107a324 324 0 0 0-18.73 15.755v151.464l15.708.038.007-24.574q-.375-.047-.752-.104v-8.1q.377.057.754.105v-3.522q-.375-.05-.754-.105v-8.1q.379.057.757.105v-3.38a38 38 0 0 1-.757-.105v-8.1q.38.057.76.105v-3.522a40 40 0 0 1-.76-.105v-8.1q.381.057.763.106v-3.38a39 39 0 0 1-.763-.107v-8.1q.382.058.766.107v-3.522q-.381-.05-.766-.107v-8.1q.385.059.769.107v-3.522a40 40 0 0 1-.77-.107v-8.1q.387.06.773.108v-3.523a40 40 0 0 1-.772-.107v-8.1q.387.06.775.108v-3.38a40 40 0 0 1-.775-.108v-8.1q.39.058.778.108v-4.999c-1.42-.894-2.325-2.25-2.325-3.77s.908-2.877 2.33-3.771c-.72-2.13-1.373-4.26-2.142-6.391 2.403-3.116 4.433-7.233 6.337-13.05a48.7 48.7 0 0 0 6.3 12.975l-2.337 6.533c1.361.894 2.224 2.222 2.224 3.705 0 1.367-.734 2.603-1.916 3.488v4.029h18.397q.452 0 .879.091l.002-.009 55.524 11.908 3.3-.002a4.235 4.235 0 0 1 0 8.47l-3.496.003c-.384.027-.78 0-1.176-.083l-55.526-11.909h-17.479v.773q-.213.039-.428.073v2.307l19.246.018q.452.001.878.092l.002-.01 51.896 11.178 7.95-.082a4.236 4.236 0 0 1 .066 8.47l-8.155.084c-.396.031-.803.007-1.211-.08l-51.923-11.182-18.32-.018v.63q-.215.039-.432.074v2.163h20.804c.319 0 .63.036.93.1l48.084 10.85 12.765-.002a4.236 4.236 0 0 1 0 8.47l-13.055.002a4.3 4.3 0 0 1-1.129-.1l-48.084-10.85-19.883.001v.914a22 22 0 0 1-.435.074v2.164l22.007-.001q.48.002.93.1l44.305 10.083 16.494-.135a4.236 4.236 0 0 1 .066 8.47l-16.798.138a4.3 4.3 0 0 1-1.167-.098l-44.323-10.088-21.08.001v.914q-.217.039-.437.075v2.02h24.185q.515.002.996.116l39.397 9.59 20.92-.25a4.236 4.236 0 0 1 .099 8.47l-21.3.255a4.2 4.2 0 0 1-1.208-.114l-39.423-9.596h-23.228v1.056a23 23 0 0 1-.44.075l-.001 1.737 25.088-.075q.532.002 1.027.126l.002-.01 36.498 9.15 24.868-.186a4.235 4.235 0 0 1 .034 8.47l-25.104.188a4.2 4.2 0 0 1-1.377-.113l-36.508-9.153-24.087.071v1.2a23 23 0 0 1-.444.076v2.213l27.238-.073q.524.001 1.011.122l.001-.006 31.903 7.946 29.017-.235a4.236 4.236 0 0 1 .066 8.47l-29.33.238a4.2 4.2 0 0 1-1.294-.114l-31.915-7.95-26.254.071v.864a25 25 0 0 1-.446.076v2.005l28.377-.111q.577 0 1.11.143l.003-.01 28.438 7.624 33.17-.26a4.236 4.236 0 0 1 .066 8.47l-33.468.263c-.474.04-.962 0-1.448-.13l-28.447-7.627-27.355.107v.93q-.225.041-.45.076v1.878h30.328c.409 0 .805.058 1.179.166l24.032 6.965 37.141-.371a4.236 4.236 0 0 1 .066 8.47l-37.612.376a4.2 4.2 0 0 1-1.36-.165l-24.052-6.971h-29.272v1.198q-.225.04-.452.077l-.01 24.621 2.102.005 1.27 1.673 43.879 57.76-14.446-5.024-7.016-2.44c-.798-.277-1.492-1.218-1.575-2.118-.15-1.643-1.122-2.729-2.793-3.075-2.36-.488-3.925.609-4.649 2.701l-4.064 11.748-.067.193-.24.794-.341 1.127-.27.892c.038-.316.107-.628.194-.938l-3.297-2.005-3.15-.3c-1.822-.103-3.69-.046-5.55-.02l-.015 59.163a4.236 4.236 0 0 1-8.47 0l.015-60.025c-1.77-.568-3.602-1.434-3.605-3.506-.002-1.027.284-1.814 1.2-2.475-1.237-.63-2.142-1.574-2.082-3.206.04-1.063.368-1.968 1.67-2.531-1.053-.525-2.047-1.407-2.025-3.338.016-1.523.972-2.727 2.962-3.338-1.537-.752-2.803-1.85-2.897-3.82-.12-2.498 1.772-3.838 4.784-3.493l.007-25.954-15.707-.038v103.572h-.016c.014 7.765 3.208 14.843 8.347 19.985 5.117 5.12 12.18 8.302 19.957 8.302h.059v.016l82.453-.15c4.376-.007 8.07.6 11.49 1.873l.874-.476-36.509-48.059c.906.11 1.82.146 2.733.101a15.4 15.4 0 0 0 2.247-.281 16 16 0 0 0 2.859-.86q.744-.3 1.482-.682.543-.282 1.08-.607c6.075-3.687 9.744-10.643 7.762-17.85-.243-.887.061-1.819.487-2.814l14.513-33.9a1.64 1.64 0 0 1 1.129-.976 2.1 2.1 0 0 1 1.17-.015l.047.01.115.046c.766.31 1.346.175 1.8.124.757-.084 1.386-.512 1.855-1.128l-.005-5.744a2.9 2.9 0 0 0-.72-.566l-10.875-4.337.908-2.523.026-.072 2.625-7.295.025-.071.94-2.614 7.059 2.896zm-30.417 25.717a3.98 3.98 0 0 1 5.156-2.217l10.173 4.057-2.67 7.318-10.466-4.234c-2.023-.818-3-2.883-2.198-4.912zm-13.689 56.458a3.366 3.366 0 1 1 6.732 0 3.366 3.366 0 0 1-6.732 0m10.082-44.414a3 3 0 0 1-.045-.444 3.7 3.7 0 0 1 .283-1.54 3.8 3.8 0 0 0-.238 1.984" style="fill:#fff;fill-rule:evenodd"></path><path d="M294.389 409.552q-.569.033-1.12.083m-7.034 27.78 8.041 3.3zm7.058 2.897v-.015l-.023-28.489-.002-2.173-.217.02-.168.016-.299.031-.185.02-.302.036-.144.018-.413.054-.032.004q-.224.032-.446.066l-.01.002q-.216.033-.43.07l-.023.003q-.224.037-.444.078l-.015.003-.424.08-.001.001-.418.086-.017.003-.397.088-.008.002-.193.045-.237.057-.113.028-.307.078-.075.02-.334.09-.088.026-.3.086-.164.049-.218.066-.194.062-.196.063-.185.062-.2.068-.185.065-.19.068-.164.06-.24.092-.111.043-.242.095-.146.06-.215.089-.146.062-.218.095-.128.058-.234.107-.116.053-.229.11-.121.059-.217.108-.125.063-.213.11-.124.066-.23.126-.089.048-.246.14-.081.046-.238.14-.09.053-.189.116-.137.085-.183.117-.12.077q-.265.173-.522.351l-.078.054-.022.015a19 19 0 0 0-.575.42q-.142.106-.28.216l-.011.008-.06.047-.223.178-.055.045-.217.18-.098.084-.175.149-.113.1-.155.137-.107.098-.155.142-.114.108-.151.144-.092.089-.161.159-.095.094-.158.161-.1.105-.143.15-.093.1-.15.163-.111.123-.11.123-.125.144-.129.149-.08.096-.157.188-.072.087-.149.185-.08.1-.141.182-.079.102-.126.166-.097.13-.13.18-.069.093-.144.204-.068.097-.133.194-.07.104-.12.18-.087.131-.096.15-.099.154-.111.179-.075.12-.11.183-.07.116-.02.034-.167.286-.167.295-.016.027-.007.012-.173.314c-.486.9-1.535 1.226-3.187 1.05-2.581-.274-3.979 1.226-4.35 3.226-.264 1.419.371 3.17 1.616 3.68l11.467 4.705-.978 2.68-2.67 7.317-.96 2.626-9.908-3.951a3.98 3.98 0 0 0-5.156 2.216l-.005.012-.002.005-.002.005-.004.01-.028.074v.004l-.028.077-.005.015-.007.02-.024.075-.007.02-.01.036-.016.053-.002.006-.02.074-.006.02-.005.019-.017.068-.002.008-.016.075-.014.068-.005.026-.003.018-.013.076-.014.093-.009.075-.002.018-.002.018-.007.075v.018l-.006.075v.017l-.003.075v.017l-.002.026v.18l.008.156v.001l.006.076v.014l.009.075.002.014.01.075.002.014.012.075.002.013.014.075.003.013.015.075.003.012.018.074.012.048.014.05.02.074.004.011.023.074.003.01.012.034.018.05.027.074.028.07.005.012.004.01.03.073.005.009.033.072.004.009.003.006.036.073.037.071.005.008.038.07.004.009.04.07.006.007.042.07.005.006.044.069.005.007.047.068.004.006.048.068.035.046.02.027.005.006.052.066.005.005.053.065.004.005.056.065.004.005.058.064.004.004.06.063.003.004.062.062.004.004.063.062.004.003.066.06.003.003.067.06.003.003.069.058.003.003.07.058.004.003.073.056.003.002.075.056.003.002.076.055h.002q.076.054.156.105l.005.003h.002l.082.052h.001l.084.05.001.001.086.049.088.048h.001l.09.046.091.045.033.016.005.003.003.002.002.001.005.003.027.016.005.003.002.001.004.002.035.024.034.026.003.002.002.001.027.024.005.004h.001l.008.008.005.004.014.013.004.004.004.004.004.004.004.005.004.005.004.005.004.005.004.005.004.005.003.003.001.002.004.005.004.005.004.005.008.01.004.005.004.005h.001l.003.004.004.005.004.005.01.01.007.012.002.003.006.009.008.011.008.012.006.008.002.004.008.012.016.024v.002l.026.043.003.005.02.04.007.012.007.014.007.013.003.007.003.006.012.028.006.014.006.014.014.035.003.008.005.014.005.015.005.013v.001l.006.015.01.03.002.006.003.01.005.015.005.015.004.013v.002l.005.016.004.015.004.016.001.005.003.01.004.017.004.016.003.012.001.004.004.016.004.016.004.016v.003l.004.013.003.016.005.028v.005l.004.016.003.017.003.017v.002l.002.014.003.017.003.016.001.01.001.008.003.017.002.017.002.017.002.017.002.017.002.017a5.4 5.4 0 0 1-.153 1.94v.001l-.01.032-10.82 30.939c-2.55.058-4.194 1.35-5.25 3.46l-7.198-2.503-8.147-2.833-13.315-4.63c-.798-.278-1.492-1.219-1.574-2.119-.151-1.643-1.123-2.729-2.794-3.074-2.359-.488-3.925.608-4.649 2.7l-4.064 11.748-.005.013-.004.013-.005.013-.005.013v.004l-.004.01-.005.012-.005.013-.004.013-.002.006-.002.007-.005.013-.004.013-.005.012-.003.01v.003l-.006.013-.004.013-.005.013-.005.012-.005.014-.005.012-.004.013-.005.013v.003l-.004.01-.005.012-.005.013-.005.013-.002.006-.003.006-.004.013-.005.013-.005.012-.003.01v.003l-.006.013-.005.013-.005.013-.005.012-.005.013-.005.013-.005.013-.005.012v.003l-.004.01-.005.013-.005.013-.004.013-.003.006-.002.006-.005.012-.005.013-.005.013-.003.009v.003l-.006.013-.005.012-.005.013-.005.013-.005.013-.005.012-.005.013-.005.013v.003l-.005.01-.005.012-.005.013-.005.013-.002.006-.002.007-.005.012-.005.013-.004.013-.004.009v.003c-.156.418-.31.833-.427 1.251l-.006.022-.004.013-.003.008-.006.022-.006.022v.002l-.006.019-.006.021-.003.014-.002.008-.006.021-.006.022v.002l-.005.02-.005.02-.003.014-.002.009-.005.022-.005.021v.002l-.005.02-.005.022-.003.013-.002.009-.005.021-.005.022-.001.002-.004.02-.005.022-.002.013-.002.009-.005.021-.004.022v.002l-.004.02-.004.022-.002.013-.002.009-.004.021-.004.022v.002l-.005.02-.004.022-.002.013-.002.01-.004.022-.003.022-.003.021-.003.022-.002.013-.001.01-.003.022-.003.021v.001l-.003.021-.003.022-.001.012-.001.01-.003.023-.002.022-.003.022-.002.022v.012l-.001.01-.002.022-.002.022v.001l-.002.022-.002.022-.001.011-.001.01-.002.023-.001.022-.001.023-.001.022v.011l-.001.011-.001.022v.023l-.002.022v.045l-.001.022v.023c-.03 2.389 1.88 3.778 4.149 3.834.886-.011 1.566-.22 2.297-.703.604-.4 1.468-.382 2.211-.05l33.188 19.461c.994.582 1.376 1.657 1.25 3.446q.249.152.498.298l.03.017.043.025.188.106.035.02.007.005.033.018.197.11.03.015.086.047.16.085.038.02.23.118.022.011.014.007.227.114.006.003.022.01.033.016.237.114h.002q.264.125.529.24l.015.007.022.01.199.085.052.023.017.007.23.094.028.011.029.012.235.092h.003l.008.004.013.005.218.081.045.017.014.005.258.092.006.002.036.012.227.077.014.005.021.007q.128.043.255.082l.005.002.26.08.029.007.268.077.007.002.242.065.031.008.025.006q.264.068.528.128l.01.002.014.003q.266.06.533.11l.04.007q.264.05.529.09l.016.003.015.002.249.035.039.005.173.023.074.009.032.004.256.028.033.003.256.023.024.002.25.018.045.003.25.014h.029l.24.01.067.002.22.003.07.001h.255l.257-.005.058-.002.202-.007.053-.002.023-.001.255-.015h.021l.268-.02.02-.003.236-.022.04-.004.022-.002.231-.025.035-.004.015-.002.242-.032.03-.004.026-.004q.411-.059.822-.14l.017-.003q.137-.027.275-.058l.013-.003q.273-.06.548-.13l.024-.006h.003l.03-.009.258-.07h.002q.131-.036.262-.076l.023-.007.006-.002.008-.002q.137-.04.273-.085l.01-.003.241-.079.036-.012.015-.005q.135-.046.272-.095l.02-.007.232-.088.034-.012.025-.01q.261-.1.521-.211l.026-.01.033-.015.234-.102.027-.013q.125-.056.25-.114l.044-.02.24-.116.027-.013.046-.023.203-.102.06-.031.026-.013.203-.107.017-.01.012-.005.005-.003.017-.01.017-.008.017-.01.169-.092.017-.009.016-.009.017-.009.008-.005.01-.005.016-.01q.12-.066.236-.135l.017-.01.004-.002.013-.007q.135-.079.27-.16c6.074-3.687 9.743-10.643 7.762-17.85-.244-.887.06-1.819.486-2.814l14.513-33.9c.395-.922 1.327-1.191 2.347-.982l.115.047c.766.31 1.346.174 1.8.124.756-.084 1.464-.62 1.933-1.236l.004-5.538c-.204-.22-.531-.51-.807-.664l-10.875-4.337.908-2.523.008-.024.017-.048 2.23-6.196 1.36-3.784zm-44.13 51.498a3.366 3.366 0 1 1 6.732 0 3.366 3.366 0 0 1-6.732 0" style="fill:#000;fill-rule:evenodd"></path><path d="m287.194 462.577-14.513 33.9c-.426.995-.73 1.926-.487 2.813 1.344 4.889.089 9.662-2.754 13.378a17.8 17.8 0 0 1-6.083 5.085l30.032 39.533-.08-96.649c-.468.616-1.097 1.044-1.853 1.128-.455.05-1.035.186-1.8-.123a2 2 0 0 0-.163-.057 2.65 2.65 0 0 0-1.166.015c-.477.142-.911.46-1.133.977M285.27 440.1l8.026 3.2v-.08l-.002-2.908-7.059-2.896-.94 2.613zM189.42 175.715l6.194-7.102a268 268 0 0 0-21.32 9.707 156 156 0 0 1 15.125-2.605M261.13 210.29a3.317 3.317 0 0 0-3.35 3.94 3.318 3.318 0 0 0 6.457-1.508 3.32 3.32 0 0 0-3.108-2.432" style="fill:#fff;fill-rule:evenodd" data-source="https://football-logos.cc"></path><!-- source: https://football-logos.cc --></svg>