<svg xmlns="http://www.w3.org/2000/svg" viewBox="2.72 29.17 311.15 268.64"><!-- Source: https://football-logos.cc --><path fill="#fcfcfc" fill-rule="evenodd" d="M158.306 29.168q1.429 0 2.397.445C175.31 36.32 190.16 41.37 206.23 43.36q34.43 4.28 64.03-13.52a2.685 2.647 23.603 0 1 .86-.33q6.58-1.34 8.48 5.05a3.016 2.724-56.131 0 1 .12.83l.46 43.81a.42.42 89.301 0 0 .42.41q21.69.01 26.61-.01c7.05-.02 7.25 6.15 6.16 11.48a4.668 4.612 50.994 0 0-.09.91q.07 5.2-2.36 22.25-8.24 57.82-43.31 101.25-3.3 4.09-4 4.8c-2.26 2.29-3.42 4.2-5.5 6.27q-7.59 7.55-15.35 15.35c-1.74 1.74-3.88 2.88-5.53 4.75q-.42.48-2.17 1.95-19.31 16.18-40.55 29.16-17.95 10.97-33.992 19.53-.955.51-2.291.51-1.335-.001-2.291-.511-16.037-8.57-33.98-19.55-21.233-12.993-40.533-29.184-1.749-1.471-2.169-1.951c-1.649-1.871-3.788-3.012-5.527-4.753q-7.756-7.805-15.341-15.359c-2.079-2.072-3.238-3.982-5.497-6.274q-.699-.71-3.997-4.802-35.044-43.45-43.251-101.275-2.42-17.052-2.347-22.252a4.668 4.612-50.961 0 0-.089-.91c-1.087-5.33-.883-11.5 6.167-11.476q4.92.023 26.61.026a.42.42-89.268 0 0 .42-.41l.485-43.81a3.016 2.724 56.165 0 1 .121-.83q1.904-6.389 8.483-5.045a2.685 2.647-23.569 0 1 .86.331q29.589 17.817 64.022 13.557c16.071-1.981 30.924-7.022 45.534-13.72q.969-.445 2.399-.444m-.074 264.475q.237 0 .298-.033c26.08-14.12 51.15-29.27 73.92-48.33 1.92-1.61 3.16-3.13 4.97-4.38q1.37-.96 3.69-3.29l13.75-13.78c1.8-1.79 2.83-3.66 4.55-5.25q1.06-.99 3.46-3.92 35.83-43.84 43.85-100.65 2.29-16.19 2.79-28.72a1.452 1.442-88.854 0 0-1.44-1.51h-31.68a.66.66 89.514 0 1-.66-.66v-47a2.17 2.046 34.354 0 0-.19-.87q-.83-1.88-2.38-1.91a1.802 1.795-59.639 0 0-.95.25q-18.77 11.18-40.03 14-17.61 2.33-37.22-1.88-18.36-3.95-35.393-12.062-.681-.324-1.285-.324t-1.285.324q-17.036 8.105-35.397 12.048-19.612 4.202-37.221 1.865-21.259-2.828-40.025-14.015a1.802 1.795 59.661 0 0-.95-.251q-1.55.03-2.38 1.909a2.17 2.046-34.332 0 0-.191.87l-.018 47a.66.66-89.647 0 1-.66.66l-31.68-.012a1.452 1.442 88.876 0 0-1.441 1.509q.495 12.53 2.779 28.721 7.998 56.813 43.811 100.667 2.399 2.931 3.458 3.922c1.72 1.59 2.749 3.461 4.548 5.251l13.745 13.786q2.319 2.331 3.689 3.291c1.809 1.251 3.049 2.771 4.968 4.382 22.763 19.069 47.827 34.229 73.901 48.359q.061.033.299.033" data-source="https://football-logos.cc"></path><path fill-rule="evenodd" d="M158.282 33.324q.604 0 1.285.324Q176.6 41.76 194.96 45.71q19.61 4.21 37.22 1.88 21.26-2.82 40.03-14a1.802 1.795-59.639 0 1 .95-.25q1.55.03 2.38 1.91a2.17 2.046 34.354 0 1 .19.87v47a.66.66 90 0 0 .66.66h31.68a1.452 1.442-88.854 0 1 1.44 1.51q-.5 12.53-2.79 28.72-8.02 56.81-43.85 100.65-2.4 2.93-3.46 3.92c-1.72 1.59-2.75 3.46-4.55 5.25l-13.75 13.78q-2.32 2.33-3.69 3.29c-1.81 1.25-3.05 2.77-4.97 4.38-22.77 19.06-47.84 34.21-73.92 48.33q-.061.033-.298.033-.238 0-.299-.033c-26.074-14.13-51.138-29.29-73.901-48.359-1.919-1.611-3.159-3.131-4.968-4.382q-1.37-.96-3.689-3.291L61.63 223.792c-1.799-1.79-2.828-3.661-4.548-5.251q-1.059-.991-3.458-3.922-35.813-43.854-43.811-100.667-2.284-16.191-2.779-28.721a1.452 1.442 88.876 0 1 1.441-1.509l31.68.012a.66.66-89.611 0 0 .66-.66l.018-47a2.17 2.046-34.332 0 1 .191-.87q.83-1.879 2.38-1.909a1.802 1.795 59.661 0 1 .95.251Q63.12 44.733 84.379 47.561q17.609 2.337 37.221-1.865 18.361-3.943 35.397-12.048.681-.324 1.285-.324M45.03 39.3c-.87 20.91-.91 42.33 1.66 63.32a1.054 1.051 2.739 0 0 .82.9l108.45 23.56a.408.402-83.773 0 0 .49-.4V38.71a.337.334 78.091 0 0-.47-.31q-17.94 8.21-37.17 11.89c-24.84 4.76-51.18 1.24-73.04-11.4a.498.495-73.8 0 0-.74.41M214 134.35l3.45-.02.34.72q-.73 2.49-.4 4.82a1.073 1.054-88.524 0 0 .83.89l39.54 8.33a.566.561-72.694 0 0 .64-.34c14.02-34.91 14.3-72.6 13.1-109.65a.338.331-15.204 0 0-.5-.28q-24.79 13.78-52.94 13.57a.69.69.409 0 0-.7.69v8.52a.369.369-24.732 0 0 .65.24q2.78-3.26 6.24-3.78a.354.351 26.78 0 1 .22.66q-2.37 1.22-6.42 4.35-.54.42-1.25 1.39-1.08.29-1.22 1.57l-.52.83q-1.1 0-.94-1.12.28-1.85.04-2.7 1-.94.25-1.68l.13-8.18a1.315 1.312 2.542 0 0-1.22-1.33q-27.15-1.98-52.25-13.72a.983.981-77.399 0 0-1.4.89v88.3a1.728 1.715 6.021 0 0 1.37 1.68l52.31 11.03a.869.864 10.623 0 0 1.03-.7q.41-2.42-.38-4.98m-55.706 154.906q.076 0 .198-.066c38.578-21.12 75.298-44.64 103.218-79.45 28.26-35.24 41.3-76.83 43.64-121.68a.38.371 1.433 0 0-.38-.39h-29.44a.563.563-87.794 0 0-.56.52q-1.08 15-3.41 28.02-7.5 42.06-33.3 74.25c-21.35 26.64-50.07 47.5-79.853 63.906-.051.028-.031.022-.117.022s-.066.006-.117-.022c-29.787-16.399-58.512-37.252-79.869-63.886q-25.808-32.184-33.318-74.242-2.333-13.02-3.417-28.019a.563.563 87.78 0 0-.56-.52l-29.44.007a.38.371-1.447 0 0-.38.39c2.351 44.849 15.401 86.436 43.67 121.669 27.929 34.803 64.654 58.314 103.238 79.425q.121.066.197.066M59.36 151.56q6.09 15.34 16.28 29.29.24.32.9.44.02.59.35 1.07 6.94 9.97 16.06 19.17 7.54 8.45 17.1 15.66l16.51 12.89q8.04 6.25 17.21 11.39l12.22 7.44a.308.307 15.91 0 0 .47-.26V131.38a.461.46-83.757 0 0-.36-.45l-12.33-2.71-17.21-3.69-16.16-3.57-17.45-3.72-16.17-3.55q-7.35-1.88-14.78-3.25-1.11-.2-2.51.27.55-.07-.02-.68a.761.75-15.158 0 0-.39-.22l-11.2-2.36a.458.457-87.789 0 0-.55.51q2.99 22.22 12.03 43.6m101.27 97.26c39.89-22.71 76.76-52.58 95.92-95.43a.552.551-72.232 0 0-.39-.76l-95.28-20.08a.672.666 5.982 0 0-.81.65v115.29a.377.377-14.486 0 0 .56.33"></path><path fill="#fcfcfc" fill-rule="evenodd" d="M45.77 38.89c21.86 12.64 48.2 16.16 73.04 11.4q19.23-3.68 37.17-11.89a.337.334 78.091 0 1 .47.31v87.97a.408.402-83.773 0 1-.49.4L47.51 103.52a1.054 1.051 2.739 0 1-.82-.9c-2.57-20.99-2.53-42.41-1.66-63.32a.498.495-73.8 0 1 .74-.41m85.24 45.32a26.94 26.94 0 0 0-26.94-26.94 26.94 26.94 0 0 0-26.94 26.94 26.94 26.94 0 0 0 26.94 26.94 26.94 26.94 0 0 0 26.94-26.94"></path><path fill="#c40707" fill-rule="evenodd" d="m214.41 61.36-2.69.36a.796.786-89.4 0 1-.88-.91q.2-1.25-.65-1.87a.559.558 30.898 0 0-.84.21q-.73 1.52-1.68 1.97a.859.858 57.027 0 1-1.03-.22q-.8-.96-2.37-1.1a.347.344 67.526 0 0-.25.61l1.88 1.58a.301.3-35.105 0 1-.09.51l-2.33.89a.42.42 4.66 0 0-.24.54l.1.27a.422.418-21.184 0 0 .55.24l2.22-.84a.647.647-86.336 0 1 .8.91l-.42.77a.613.61 84.108 0 0 .93.76l1.96-1.65a.723.705 38.617 0 1 .81-.08l2.41 1.29a.543.54-8.499 0 0 .64-.86q-.5-.49-.62-.84a.608.605-18.577 0 1 .39-.78q.57-.18 1.15-.08.24.85-.04 2.7-.16 1.12.94 1.12-1.71 1.47-.54 3.19-.97.35-1.76 1.37-2.54-2.32-4.35-2.37-.73-1.31-1.94-2.26a.639.627 51.567 0 0-.64-.08q-.72.3-.6 1.33l-7.01-1.27q.41-.06.83-.13-.78-1.47-3-1.14a.01.01 1.736 0 0-.01.01v.25l-4.14-1.04-5.6-2.41a1.063 1.036-52.669 0 0-1.08.16l-.24.21a.401.399 75.146 0 1-.65-.38q.66-3.5-2.13-2.27-.65 1.57-1.61 2.55a.791.784-54.717 0 1-.91.16l-2.39-1.16a.608.607-84.794 0 0-.85.71q.17.61 1.27.81.41.07.55.26.26.38.11.81a.54.519-85.733 0 1-.39.35l-1.88.36a.481.479 84.082 0 0-.38.47v.32a.587.583 79.667 0 0 .79.55l2.25-.86a.464.46 82.491 0 1 .62.48q-.04.46-.52 1.24a.43.423 30.516 0 0 .16.6q.52.28 1.43-.29.48-.3 1.17-1.23a.588.584-57.733 0 1 .74-.17l2.78 1.4a.671.668-78.279 0 0 .97-.64q0-.06-.34-.53 1.31-.36 2.36-1.05a1.011 1.007 35.89 0 1 .82-.13l3.12.85q.74 2.37 3.88 1.41a.264.263 80.796 0 0 .18-.25q0-.13-.09-.26.53.26 1.13.31l11.31 4.73-.26.58-1.95.45c-4.94-2.03-10.13-.48-7.8 5.91q.64 1.76 1.22 3.27-.91 1.26-1.77 1.84a.722.72-37.217 0 1-.96-.13l-.62-.74a.536.534-54.896 0 0-.91.16q-.32.85-.72.9-.43.06-.71-.45-.29-.54-.56-.74a.599.598 12.382 0 0-.94.6q.16.84.83 1.68a1.43 1.406-65.065 0 1 .32.9v6.86a1.42 1.42-44.796 0 0 1.42 1.42h2.19a1.38 1.38 89.193 0 0 1.38-1.42q-.09-2.79-.17-6.68-.03-1.56 2.09-2.34l3.87 10.65q.74.93.36 1.7c-3.07 6.25-.22 13.64 6.76 15.29q.97.22 1.23.74.29.59.08 1.5.01.94-.87 1.49c-1.39.11-4.42 1.38-3.43 3.24q.44.8 1.76 1.48-.24.21-.1.74c-1.73 2.19-5.27 2.58-7.51 2.37a.584.582 2.276 0 0-.63.58v6.13a1.705 1.692 9.735 0 0 1.14 1.6q1.5.52 1.99 2.23a1.02 1.02-7.913 0 0 .98.74l7.81-.03q.79 2.56.38 4.98a.869.864 10.623 0 1-1.03.7L161.04 129a1.728 1.715 6.021 0 1-1.37-1.68v-88.3a.983.981-77.399 0 1 1.4-.89q25.1 11.74 52.25 13.72a1.315 1.312 2.542 0 1 1.22 1.33zm-25.428 32.916q.412-.002 1.055.202a1.006 1.005-81.104 0 0 1.313-.958V81.74a.429.383-32.296 0 1 .06-.21l1.28-2.17a.597.591-73.368 0 0-.48-.9q-.86-.04-1.54 1.05a.429.428 48.121 0 1-.748-.041q-.498-1.014-1.014-1.012-.517.003-1.005 1.021a.429.428-48.658 0 1-.748.048q-.69-1.083-1.55-1.035a.597.591 72.831 0 0-.471.904l1.3 2.158a.429.383 31.759 0 1 .062.21l.11 11.779a1.006 1.005 80.567 0 0 1.322.946q.641-.21 1.054-.212M185.26 83.32a.501.496-32.25 0 0-.95-.21q-.3.62-.65.89a.69.687 51.543 0 1-.94-.11l-.56-.67a.498.415 76.717 0 0-.16-.12q-.84-.37-1.01.45a.581.579 23.827 0 1-.91.35l-1.18-.87a.41.41 55.374 0 0-.57.09l-.19.26a.532.515-44.045 0 0-.02.6l1.1 1.62a.754.696 29.706 0 1 .13.41v7.89a.5.5-45 0 0 .5.5h3.47a.96.96-78.718 0 0 .96-.96v-7.29a1.948 1.89-28.202 0 1 .35-1.1q.63-.9.63-1.73m-1.83 23.48q.78-.04 1.32.36a.927.915-44.642 0 0 1.09 0q.05-.04.13-.1a.921.92-46.99 0 1 1.13-.04q.83.6 1.87-.1.45-.3.63-.16.33.27.34.28a.873.862 46.836 0 0 1.04.04q1.01-.69 1.99.13a.622.608-46.464 0 0 .81-.03q.71-.69 1.49-.1a1.273 1.243-71.23 0 0 1.99-1.01q.02-.51-.06-4.29a2.324 2.297 58.692 0 1 .28-1.18l2.11-3.94a.663.659 18.606 0 0-.48-.96q-1.31-.21-2.61.51a1.066 1.065-38.411 0 1-1.22-.14q-.76-.67-1.47.05a.742.741 54.882 0 1-1.2-.21q-.15-.34-.17-.36a.665.665 43.132 0 0-.93.03l-.52.55a.65.647-43.11 0 1-.98-.03q-.58-.73-1.58.09-.35.28-.87.09-.19-.06-.57-.51a.672.67 38.678 0 0-1.1.12q-.03.06-.06.13a.643.642 40.218 0 1-1.09.09q-.73-.98-1.58-.08a.828.82-45.732 0 1-1.17.02l-.07-.07a.98.971-40.5 0 0-1.08-.08q-1.01.56-1.78-.07a.641.64-89.328 0 0-.91.89q3.23 4.13 2.36 8.54a2.564 1.556 17.216 0 0 1.86 2.1q.3.11.6-.31a.595.585-73.038 0 1 .46-.25m2.58 14.99q3.08.51 5.83-.07l7.45-.03a.59.59 11.283 0 0 .59-.59v-5.92a.513.443-59.221 0 0-.03-.17l-2.13-5.6a.867.859 74.084 0 0-.96-.54q-1.19.2-1.65-.12-.64-.45-1.26.12-.54.51-1.34-.22a.831.825 46.412 0 0-1.08-.03q-1.09.87-1.58.16a.612.603-36.071 0 0-.87-.13q-1.06.81-1.84.17-.64-.54-1.25-.01-.65.57-1.45-.19a.764.764 0 0 0-1.06 0q-1.08 1.04-1.99-.24a.347.343 42.74 0 0-.58.02q-3.55 5.98-2.75 12.83a.506.497-2.599 0 0 .49.44z"></path><path fill="#fcfcfc" fill-rule="evenodd" d="m217.79 135.05 6.29.28a.971.967 10.357 0 0 .96-.66q.75-2.22 2.98-3.07a.927.922-10.706 0 0 .59-.86v-7.45a1.153 1.151-3.919 0 0-1.31-1.14q-3.2.43-5.96-.9a.91.909-51.744 0 1-.18-1.53c3.09-2.47-1-4.65-3.01-5.47a.915.821 27.786 0 1-.47-1.27q.28-.4.93-.63 7.57-2.61 8.74-10.37a3.954 3.734 47.175 0 0 .01-1.07q-.36-2.67-1.41-4.83a2.57 2.57-48.488 0 1-.12-1.97q2.65-7.69 5.62-14.34c1.87-4.19 1.05-9.54-4.84-7.8a.367.362 67.789 0 1-.42-.18l-.15-.25a.569.566-28.264 0 1 .24-.79l3.97-1.95q1.83-.38 3.2-1.54a1.316 1.313 24.517 0 1 .86-.32q.94.01 1.03-.62.11-.69.88-.86.91-.2 1.17-.14a.555.554 71.628 0 0 .48-.96q-.49-.42-1.43-.74a.527.526-80.796 0 1-.36-.5v-.42a.326.323 3.883 0 1 .37-.32l2.17.26a.86.247 28.997 0 1 .13.03q.15.09.05.4a.539.433 88.295 0 0 .59.69q2.43-1.38 1.61-2.56a.691.687 49.812 0 1 .07-.86q1.44-1.5 2.03-3.36a.424.419-69.646 0 0-.23-.51l-.04-.02a.43.425-65.27 0 0-.56.21q-1.14 2.44-3.41 4.52a1.554 1.447-73.608 0 1-.54.32q-1.72.58-2.98.91-.85.23-.81.99-.88-.27-1.77.32l-1.22-.73a.466.465-66.998 0 0-.69.28q-.3 1.17-1.79 1.07a.481.477 85.529 0 0-.5.59q.08.34.63 1.07a.595.595-76.994 0 1-.31.93q-.15.04-.49-.06a.67.67 15.973 0 0-.8.4q-.3.73-1.23 1.05-2.78.85-4.7 3.41a1.779 1.741 3.345 0 1-.54.47q-1.39.78-1.51-.55 3.04-2.61 6.25-4.99.28-.21.41-.18.18.04.65.03a.265.262 65.61 0 0 .17-.46q-.97-.87-1.22-.77a2.223 2.093 13.027 0 0-.48.28l-2.36 1.89a.377.376 55.796 0 1-.57-.11q-.16-.28-.02-.58.38-.68.46-1.38a.512.505 89.613 0 0-.57-.57q-.53.08-1.03.64a.997.98 60.813 0 0-.23.84q.14.75.73 1.26.85.31.43 1.1a.414.373-88.575 0 1-.18.19l-2.96 1.6a1.048 1.045 84.964 0 0-.51.61q-.24.69-.47 1.18a.77.72-41.028 0 1-1.39-.05q-.16-.54.55-1.04.42-.28.31-2.16-.04-.87 1.07-1.81 2.03-.64 1.51-2.02a.711.701 63.029 0 1 .27-.85q.37-.25 1.09-.19a.675.561-20.726 0 0 .59-1.04q-.45-.32-1.14-.52a.611.602-73.797 0 0-.75.42q-.7 2.35-3.42 1.49.71-.97 1.25-1.39 4.05-3.13 6.42-4.35a.354.351 26.78 0 0-.22-.66q-3.46.52-6.24 3.78a.369.369-24.732 0 1-.65-.24v-8.52a.69.69.409 0 1 .7-.69q28.15.21 52.94-13.57a.338.331-15.204 0 1 .5.28c1.2 37.05.92 74.74-13.1 109.65a.566.561-72.694 0 1-.64.34l-39.54-8.33a1.073 1.054-88.524 0 1-.83-.89q-.33-2.33.4-4.82m24.2-73.45q.83.59.95 1.85a1.12 1.117-10.014 0 0 1.39.97l5.73-1.44a.145.136 77.487 0 0 .1-.17l-.07-.25a.279.273 79.341 0 0-.3-.21q-2.96.43-5.7.42a.691.661 4.063 0 1-.68-.75q.07-.49.59-.78 2.89-1.63 4.42-3.8.52-.73-.13-1.44a.271.27-66.945 0 0-.47.19c.04 2.14-3.94 4.22-5.71 4.72a.388.388-35.143 0 0-.12.69m-13.2 1.61q-1.19-3.34-2.96-3.62a1.098 1.079 24.836 0 0-.98.35q-1.06 1.23-3.17 1.72a.328.327 44.159 0 0 .01.64q2.43.51 3.36-1.22a.654.654-9.744 0 1 1.16 0q1.43 2.73 3.38 1.78 1.57-.05 2.94-3.55a.292.291 80.582 0 0-.46-.33q-1.2 1.03-3.28 4.23m17.51 1.83a.906.818-54.875 0 0 1.63-.37q.1-.74-.54-.49-1.24.5-1.09.86m-1.41.88q-1.03.23-.19.97a.277.097 19.33 0 1 .05.04l.38.2a.534.533 17.164 0 1 .28.53q-.07.58-.57.59a.305.3 59.484 0 1-.15-.04l-2.35-1.15a1.31 1.304-56.451 0 0-1.56.32q-1.27 1.45-1.94 1.27a.561.551 20.461 0 1-.36-.77q.67-1.46.26-1.64a1.215.998 89.183 0 0-1.26 1.58q.37 1.18 1.08 1.47.81.34 1.68-.6.25-.26.88-.77a1.336 1.322-47.247 0 1 1.58-.07q1.37.93 3.41.48a.443.44-21.146 0 0 .29-.65l-.84-1.47a.637.63-21.26 0 0-.67-.29m-12.94 28.51q1.49 1.9-.9 3.17a.459.459 23.814 0 0 .33.85q2.06-.54 2.86 1.55a.601.598-50.292 0 0 1.15-.11l.28-1.52a1.145 1.141-5.425 0 1 .73-.88l2.99-1.14a.77.767-24.647 0 1 .95.35q2.38 4.39 5.17 6.37a1.024 1.022-31.086 0 1-.46 1.85l-5.21.68a1.2 1.2-59.759 0 0-.36.12c-3.93 2.11-1.49 4.25-.69 7.04a1.194 1.192 8 0 1-1.78 1.34l-2.67-1.67a.399.396-79.802 0 0-.6.42q.46 2.2-1.95 2.73a.378.376-37.039 0 0-.1.7q.19.1 1.16.13a.76.758-84.054 0 1 .72.89l-.24 1.28a.556.555 70.328 0 0 .97.46l2.13-2.53a.904.901 20.002 0 1 .69-.32h2.9a1.002.999-4.633 0 0 .99-1.16q-.52-3.24 3.54-4.73a.732.731 85.14 0 1 .97.82l-.52 2.9a1.157 1.114-43.899 0 0-.01.26q.34 2.76 2.76 2.3a1.124 1.123-6.416 0 1 1.33 1.06l.01.1a1.467 1.453 83.927 0 1-1.2 1.5q-1.25.23-1.94 1.75a.299.294-88.976 0 0 .38.4q1.44-.6 1.79.54a.403.402 61.479 0 0 .64.19q1.19-1 2.5.35a.452.452 14.895 0 0 .76-.44q-1.21-4.11 1.78-5.55a.472.468 60.624 0 0 .19-.69l-2.18-3.21a1.285 1.268 28.678 0 1-.21-.7v-5.54a.941.938-13.317 0 1 .52-.84c2.25-1.12 4-2.05 3.82-5.01-.13-2.24-2.8-6.64-1.47-10.07q1.02-2.63 1.17-6.17a.542.538-2.744 0 0-.61-.55l-.4.05a.754.744-87.73 0 0-.63.59l-1.63 8.17a1.552 1.443 48.1 0 0-.01.57q.38 2.27 1.67 6.17.75 2.27-1.13 3.33a1.685 1.681-24.996 0 1-2.4-.87l-2.68-7.04a1.414 1.39-39.152 0 1 .14-1.26q.57-.88 1.95-.82a.62.62 1.323 0 0 .65-.62v-1.14a1.153 1.141 73.064 0 1 .5-.95q1.15-.79.72-2.37a.788.786-19.235 0 1 .45-.93q.99-.42.27-1.66-.23-.41.05-.71.3-.3.41-.6a.576.568 16.719 0 0-.41-.75q-.19-.04-.55-.35-.17-.14.44-.97.38-.53.42-.63a.653.651-74.053 0 0-.46-.83c-4.14-1.08-6.21-.22-10.02 2.01q-.43.26-.45.6 0 .03-.25.64a.44.437-68.816 0 1-.56.25l-2.05-.8a.48.48-67.648 0 0-.62.28l-.15.36a.602.592-69.276 0 0 .34.77l3.05 1.18a1.418 1.411-79.425 0 1 .9 1.32v.36a.999.995 16.115 0 1-1.53.84l-3.92-2.45a1.228 1.222 15.983 0 1-.58-1.04v-2.5a.557.554 65.06 0 0-.98-.36l-.77.91a.604.601-51.098 0 1-.82.09q-1.12-.81-1.36-.75a.475.475 64.372 0 0-.26.74q1.05 1.45-.87 2.29a.338.335 46.126 0 0-.01.61q1.47.72 1.77 1.46a1.356 1.339-.358 0 0 .81.79q2.63.95 4.27 3.19a1.762 1.756 51.778 0 1-.28 2.39l-2.39 2.01a1.18 1.18 51.376 0 1-1.7-.19q-1.03-1.39-1.74-1.32a.417.411 68.081 0 0-.28.67"></path><path fill-rule="evenodd" d="M241.99 61.6a.388.388-35.143 0 1 .12-.69c1.77-.5 5.75-2.58 5.71-4.72a.271.27-66.945 0 1 .47-.19q.65.71.13 1.44-1.53 2.17-4.42 3.8-.52.29-.59.78a.691.661 4.063 0 0 .68.75q2.74.01 5.7-.42a.279.273 79.341 0 1 .3.21l.07.25a.145.136 77.487 0 1-.1.17l-5.73 1.44a1.12 1.117-10.014 0 1-1.39-.97q-.12-1.26-.95-1.85"></path><path fill-rule="evenodd" d="M230.25 68.8q-.48-.81 1.22-1.47 2.36.09 2.9-1.4a1.465 1.433-6.501 0 1 .61-.75q.46-.27.69-.62a.668.663-56.191 0 0-.18-.93q-.4-.26-.96-.23-.04-.76.81-.99 1.26-.33 2.98-.91a1.554 1.447-73.608 0 0 .54-.32q2.27-2.08 3.41-4.52a.43.425-65.27 0 1 .56-.21l.04.02a.424.419-69.646 0 1 .23.51q-.59 1.86-2.03 3.36a.691.687 49.812 0 0-.07.86q.82 1.18-1.61 2.56a.539.433 88.295 0 1-.59-.69q.1-.31-.05-.4a.86.247 28.997 0 0-.13-.03l-2.17-.26a.326.323 3.883 0 0-.37.32v.42a.527.526-80.796 0 0 .36.5q.94.32 1.43.74a.555.554 71.628 0 1-.48.96q-.26-.06-1.17.14-.77.17-.88.86-.09.63-1.03.62a1.316 1.313 24.517 0 0-.86.32q-1.37 1.16-3.2 1.54M131.01 84.21a26.94 26.94 0 0 1-26.94 26.94 26.94 26.94 0 0 1-26.94-26.94 26.94 26.94 0 0 1 26.94-26.94 26.94 26.94 0 0 1 26.94 26.94m-24.95-25.09h-6.7a1.71 1.7-90 0 0-1.7 1.71v5.7a2.454 2.446 10.712 0 0 1.56 2.28l3.46 1.35a1.958 1.952 16.466 0 0 2.62-1.42l1.77-8.37a1.039 1.033-84.093 0 0-1.01-1.25m11.61 4.34a.455.448 37.147 0 0-.1-.69q-3.68-2.3-7.89-3.24a.951.942 9.254 0 0-1.15.82q-.58 5.91-2.33 9.95a1.007 1.004 22.408 0 0 .56 1.34l3.44 1.34a1.089 1.085 23.158 0 0 1.38-.55q2.22-4.71 6.09-8.97m-35.581 8.336q-4.398 7.698-3.079 17.555a.386.383 67.739 0 0 .61.259q.3-.23.299-.617-.029-9.383 3.877-16.221t12.003-11.579q.334-.196.38-.572a.386.383-8.267 0 0-.533-.393q-9.16 3.871-13.557 11.568M84.13 89a1.197 1.177 68.086 0 0 .5-1.2c-.81-4.4 1.62-6.5 4.76-9.1a2.057 2.052 72.283 0 0 .72-1.4c.28-3.48 1.8-6.33 4.3-8.71q1.93-1.84 1.68-5.01a.382.381 72.667 0 0-.57-.3c-10.61 6.17-13.28 15.33-14.38 27.04a.361.359-14.299 0 0 .56.33zm40.77-17.98a.544.54 60.245 0 0 .21-.78q-2.17-3.4-5.48-6.04a.512.507-49.718 0 0-.69.06q-3.69 4.01-5.85 8.73a.751.749 30.719 0 0 .23.9q2 1.54 5.05 2.1a1.086 1.076 24.806 0 0 1.02-.37q2.67-3.14 5.51-4.6m-9.51 18.77q4.38-3.56 4.35-10.04a2.361 2.354-85.707 0 0-1.99-2.32q-2.79-.44-5.58-2.34a2.417 2.371 64.566 0 0-1.12-.41q-2.97-.32-5.48-2.16a2.717 2.623-23.706 0 0-1.38-.51q-3.99-.35-7.08-2.85a.911.908-47.745 0 0-1.21.06q-3.81 3.72-4.12 8.21a1.308 1.291 15.415 0 0 .72 1.25l22.29 11.17a.565.562 39.14 0 0 .6-.06m10.54-17.6a.503.5-20.831 0 0-.29.64c5.6 15.42-2.57 28.24-16.11 35.36a.402.401 23.052 0 0 .3.74q14.8-4.18 18.72-18.74 2.22-8.23-1.88-17.71a.552.548 67.705 0 0-.71-.3zm-14.97 33.32c11.87-7.31 17.63-17.89 13.23-32.21a.058.051-28.909 0 0-.09-.02l-3.68 3.1a.445.444 53.868 0 0-.09.58c2.91 4.43-.5 11.21-4 14.05a1.708 1.69-20.315 0 0-.62 1.33q.06 4.94-4.38 10.18-.79.93-.93 2.65a.369.367 76.114 0 0 .56.34m-.8-4.3q3.75-3.76 3.92-8.92a1.542 1.529-75.803 0 0-.85-1.44L91.41 79.91a1 .978-45.637 0 0-.9.02q-4.74 2.52-4.31 7.99a2.028 2.021-78.293 0 0 1.06 1.62l22.03 11.79a.742.74 37.071 0 0 .87-.12m-1.57 1.59L85.6 90.49a.99.969-45.597 0 0-.96.02q-1.79 1.08-2.91 3.12a2.59 2.56 45.096 0 0 .01 2.47q6.58 11.82 20.73 13.38c3.11.34 5.98-3.25 6.55-5.72a.872.859-69.551 0 0-.43-.96"></path><path fill="#fcfcfc" fill-rule="evenodd" d="M214.41 61.36q.75.74-.25 1.68-.58-.1-1.15.08a.608.605-18.577 0 0-.39.78q.12.35.62.84a.543.54-8.499 0 1-.64.86l-2.41-1.29a.723.705 38.617 0 0-.81.08l-1.96 1.65a.613.61 84.108 0 1-.93-.76l.42-.77a.647.647-86.336 0 0-.8-.91l-2.22.84a.422.418-21.184 0 1-.55-.24l-.1-.27a.42.42 19.29 0 1 .24-.54l2.33-.89a.301.3-35.105 0 0 .09-.51l-1.88-1.58a.347.344 67.526 0 1 .25-.61q1.57.14 2.37 1.1a.859.858 57.027 0 0 1.03.22q.95-.45 1.68-1.97a.559.558 30.898 0 1 .84-.21q.85.62.65 1.87a.796.786-89.4 0 0 .88.91z"></path><path fill-rule="evenodd" d="M229.59 62.86q-.4.17-.8.35 2.08-3.2 3.28-4.23a.292.291 80.582 0 1 .46.33q-1.37 3.5-2.94 3.55"></path><path fill="#e2b6d0" fill-rule="evenodd" d="m107.07 60.37-1.77 8.37a1.958 1.952 16.466 0 1-2.62 1.42l-3.46-1.35a2.454 2.446 10.712 0 1-1.56-2.28v-5.7a1.71 1.7-90 0 1 1.7-1.71h6.7a1.039 1.033-84.093 0 1 1.01 1.25M117.67 63.46q-3.87 4.26-6.09 8.97a1.089 1.085 23.158 0 1-1.38.55l-3.44-1.34a1.007 1.004 22.408 0 1-.56-1.34q1.75-4.04 2.33-9.95a.951.942 9.254 0 1 1.15-.82q4.21.94 7.89 3.24a.455.448 37.147 0 1 .1.69"></path><path fill-rule="evenodd" d="M191.9 64.72q-.13.58.17 1.17l-3.12-.85a1.011 1.007 35.89 0 0-.82.13q-1.05.69-2.36 1.05-.46-.12-.62-.33a.611.586 62.615 0 1 .28-.95q.95-.28 1.89-.44a.581.576-42.697 0 0 .05-1.13q-1.23-.32-2.84.26a.765.765-3.595 0 1-1.01-.89q.3-1.35-1.32-2.71 2.79-1.23 2.13 2.27a.401.399 75.146 0 0 .65.38l.24-.21a1.063 1.036-52.669 0 1 1.08-.16z"></path><path fill="#858483" fill-rule="evenodd" d="M228.79 63.21q.4-.18.8-.35-1.95.95-3.38-1.78a.654.654-56.305 0 0-1.16 0q-.93 1.73-3.36 1.22a.328.327 44.159 0 1-.01-.64q2.11-.49 3.17-1.72a1.098 1.079 24.836 0 1 .98-.35q1.77.28 2.96 3.62"></path><path fill="#e2b6d0" fill-rule="evenodd" d="M83.796 72.772q-3.906 6.838-3.877 16.221.001.387-.299.617a.386.383 67.739 0 1-.61-.259q-1.319-9.857 3.079-17.555 4.397-7.697 13.557-11.568a.386.383-8.267 0 1 .533.393q-.046.376-.38.572-8.097 4.74-12.003 11.579"></path><path fill="#fcfcfc" fill-rule="evenodd" d="M182.2 60.03q1.62 1.36 1.32 2.71a.765.765-3.595 0 0 1.01.89q1.61-.58 2.84-.26a.581.576-42.697 0 1-.05 1.13q-.94.16-1.89.44a.611.586 62.615 0 0-.28.95q.16.21.62.33.34.47.34.53a.671.668-78.279 0 1-.97.64l-2.78-1.4a.588.584-57.733 0 0-.74.17q-.69.93-1.17 1.23-.91.57-1.43.29a.43.423 30.516 0 1-.16-.6q.48-.78.52-1.24a.464.46 82.491 0 0-.62-.48l-2.25.86a.587.583 79.667 0 1-.79-.55v-.32a.481.479 84.082 0 1 .38-.47l1.88-.36a.54.519-85.733 0 0 .39-.35q.15-.43-.11-.81-.14-.19-.55-.26-1.1-.2-1.27-.81a.608.607-84.794 0 1 .85-.71l2.39 1.16a.791.784-54.717 0 0 .91-.16q.96-.98 1.61-2.55"></path><path fill="#858483" fill-rule="evenodd" d="M218.65 67.17q-.36-.81-2.62-.57-.17-.35-.45-.57.14-1.28 1.22-1.57 2.72.86 3.42-1.49a.611.602-73.797 0 1 .75-.42q.69.2 1.14.52a.675.561-20.726 0 1-.59 1.04q-.72-.06-1.09.19a.711.701 63.029 0 0-.27.85q.52 1.38-1.51 2.02"></path><path fill-rule="evenodd" d="m232.76 63.72-2.14 1.31a.729.726 66.21 0 0-.32.83l.35 1.13q-.73.05-.91.31-1.35 1.93-3.38 1.02.93-.32 1.23-1.05a.67.67 56.534 0 1 .8-.4q.34.1.49.06a.595.595 85.846 0 0 .31-.93q-.55-.73-.63-1.07a.481.477 85.529 0 1 .5-.59q1.49.1 1.79-1.07a.466.465-66.998 0 1 .69-.28z"></path><path fill="#e2b6d0" fill-rule="evenodd" d="M81.14 90.32c1.1-11.71 3.77-20.87 14.38-27.04a.382.381 72.667 0 1 .57.3q.25 3.17-1.68 5.01c-2.5 2.38-4.02 5.23-4.3 8.71a2.057 2.052 72.283 0 1-.72 1.4c-3.14 2.6-5.57 4.7-4.76 9.1a1.197 1.177 68.086 0 1-.5 1.2l-2.43 1.65a.361.359-14.299 0 1-.56-.33M124.9 71.02q-2.84 1.46-5.51 4.6a1.086 1.076 24.806 0 1-1.02.37q-3.05-.56-5.05-2.1a.751.749 30.719 0 1-.23-.9q2.16-4.72 5.85-8.73a.512.507-49.718 0 1 .69-.06q3.31 2.64 5.48 6.04a.544.54 60.245 0 1-.21.78"></path><path fill-rule="evenodd" d="M246.3 65.04q-.15-.36 1.09-.86.64-.25.54.49a.906.818-54.875 0 1-1.63.37M196.04 65.76q.09.3-.08.41-.26.35-.6.45-1.58-.74-3.29-.73-.3-.59-.17-1.17zM219.61 71.65q-1.25 1.01-1.24 2.4l-1.65.73-.67-.53.46-4.43a.779.761-53.796 0 0-.06-.42q-.63-1.36-.42-2.8 2.26-.24 2.62.57-1.11.94-1.07 1.81.11 1.88-.31 2.16-.71.5-.55 1.04a.77.72-41.028 0 0 1.39.05q.23-.49.47-1.18a1.048 1.045 84.964 0 1 .51-.61l2.96-1.6a.414.373-88.575 0 0 .18-.19q.42-.79-.43-1.1.61-.12.64-.79-.14.3.02.58a.377.376 55.796 0 0 .57.11l2.36-1.89a2.223 2.093 13.027 0 1 .48-.28q.25-.1 1.22.77a.265.262 65.61 0 1-.17.46q-.47.01-.65-.03-.13-.03-.41.18-3.21 2.38-6.25 4.99"></path><path fill-rule="evenodd" d="m199.05 66.64-3.09-.47q.17-.11.08-.41v-.25a.01.01 33.299 0 1 .01-.01q2.22-.33 3 1.14M195.36 66.62l.68.17q.09.13.09.26a.264.263 80.796 0 1-.18.25q-3.14.96-3.88-1.41 1.71-.01 3.29.73"></path><path fill="#fcfcfc" fill-rule="evenodd" d="M216.03 66.6q-.21 1.44.42 2.8a.779.761-53.796 0 1 .06.42l-.46 4.43q-.27.04-.5.08a1.423 1.341 49.897 0 1-.69-.08l-6.38-2.42-11.31-4.73q.52-.33 1.05-.33l7.01 1.27q1.65 1.1 3.18 1.01 1.81.05 4.35 2.37.6.9 1.47.89a.571.57-88.958 0 0 .57-.55q.02-.76-.28-1.71-1.17-1.72.54-3.19l.52-.83q.28.22.45.57"></path><path fill-rule="evenodd" d="M244.89 65.92a.637.63-21.26 0 1 .67.29l.84 1.47a.443.44-21.146 0 1-.29.65q-2.04.45-3.41-.48a1.336 1.322-47.247 0 0-1.58.07q-.63.51-.88.77-.87.94-1.68.6-.71-.29-1.08-1.47a1.215.998 89.183 0 1 1.26-1.58q.41.18-.26 1.64a.561.551 20.461 0 0 .36.77q.67.18 1.94-1.27a1.31 1.304-56.451 0 1 1.56-.32l2.35 1.15a.305.3 59.484 0 0 .15.04q.5-.01.57-.59a.534.533 17.164 0 0-.28-.53l-.38-.2a.277.097 19.33 0 0-.05-.04q-.84-.74.19-.97"></path><path fill="#858483" fill-rule="evenodd" d="M199.05 66.64q-.42.07-.83.13-.53 0-1.05.33-.6-.05-1.13-.31l-.68-.17q.34-.1.6-.45z"></path><path fill-rule="evenodd" d="M208.41 69.05q-1.53.09-3.18-1.01-.12-1.03.6-1.33a.639.627 51.567 0 1 .64.08q1.21.95 1.94 2.26"></path><path fill="#858483" fill-rule="evenodd" d="M230.65 66.99q.13.2.82.34-1.7.66-1.22 1.47l-3.97 1.95a.569.566-28.264 0 0-.24.79l.15.25a.367.362 67.789 0 0 .42.18c5.89-1.74 6.71 3.61 4.84 7.8q-2.97 6.65-5.62 14.34a2.57 2.57-48.488 0 0 .12 1.97q1.05 2.16 1.41 4.83a3.954 3.734 47.175 0 1-.01 1.07q-1.17 7.76-8.74 10.37-.65.23-.93.63a.915.821 27.786 0 0 .47 1.27c2.01.82 6.1 3 3.01 5.47a.91.909-51.744 0 0 .18 1.53q2.76 1.33 5.96.9a1.153 1.151-3.919 0 1 1.31 1.14v7.45a.927.922-10.706 0 1-.59.86q-2.23.85-2.98 3.07a.971.967 10.357 0 1-.96.66l-6.29-.28-.34-.72q1.54-.66 4.86-.16a1.848 1.828-70.628 0 0 1.87-.91q.7-1.22 2.61-2.55a1.223 1.205 72.888 0 0 .52-1v-5.46a.886.882-4.704 0 0-1.03-.87q-3.7.62-6.35-2.02-.23-.23-.71-.28a.654.654-6.246 0 0-.64.98l4.13 7.15a.268.26-36.703 0 1-.05.31l-.04.04a.54.538-41.818 0 1-.74-.04q-2.25-2.35-3.42-4.99-1.15-2.61-1.17-2.63a.763.753-22.273 0 0-.9-.37q-1.13.34-2.87.02a1.065 1.065 15.419 0 0-1.2.68q-1.37 3.79-4.33 7.27a.366.365-59.573 0 1-.42.11l-.3-.12a.516.514 30.536 0 1-.21-.81q2.53-3.03 4-7.09a.777.776 20.873 0 0-.44-.98q-.04-.01-.4.12-.14-.53.1-.74l8.37.22a.504.503 64.641 0 0 .32-.9q-3.08-2.46-2.43-6.89a.914.904 84.739 0 1 .6-.73q11.83-4.21 7.45-15.82a1.971 1.957-80.336 0 0-.57-.81c-4.4-3.68-6.47-5.75-7.29-11.75a2.041 2.009 60.12 0 1 .39-1.49q1.18-1.52 1.23-3.09a.8.8-.382 0 1 .77-.78q4.03-.22 4.2-4.07a1.078 1.077 73.248 0 0-1.71-.92q-1.72 1.24-3.28 1.09-.01-1.39 1.24-2.4.12 1.33 1.51.55a1.779 1.741 3.345 0 0 .54-.47q1.92-2.56 4.7-3.41 2.03.91 3.38-1.02.18-.26.91-.31m-6.4 25.67q1.64-5.97 5-13.3c1.27-2.77 1.79-4.87-1.58-5.84a2.477 2.477-70.624 0 0-2.98 1.43c-1 2.44-1.26 3.31-4.19 4.22a1.173 1.17 4.468 0 0-.68.58l-1.26 2.51a1.881 1.794 58.271 0 0-.19.9q.3 6.44 5.15 9.77a.479.471-64.855 0 0 .73-.27m-6.24 23.36c.18.75 1.16 1.67 1.33 2.58q.12.63.71.56a1.263 1.109-18.728 0 0 1.01-1.75q-.66-.99-2.54-1.82a.372.372 4.839 0 0-.51.43"></path><path fill="#e2b6d0" fill-rule="evenodd" d="M115.39 89.79a.565.562 39.14 0 1-.6.06L92.5 78.68a1.308 1.291 15.415 0 1-.72-1.25q.31-4.49 4.12-8.21a.911.908-47.745 0 1 1.21-.06q3.09 2.5 7.08 2.85a2.717 2.623-23.706 0 1 1.38.51q2.51 1.84 5.48 2.16a2.417 2.371 64.566 0 1 1.12.41q2.79 1.9 5.58 2.34a2.361 2.354-85.707 0 1 1.99 2.32q.03 6.48-4.35 10.04"></path><path fill="#858483" fill-rule="evenodd" d="M214.52 70.05q.3.95.28 1.71a.571.57-88.958 0 1-.57.55q-.87.01-1.47-.89.79-1.02 1.76-1.37M216.05 74.25l.67.53-1.03.26a1.634 1.499-47.464 0 1-.58.05q-3.86-.36-6.89-2.68l.26-.58 6.38 2.42a1.423 1.341 49.897 0 0 .69.08q.23-.04.5-.08"></path><path fill="#e2b6d0" fill-rule="evenodd" d="m125.93 72.19.03-.01a.552.548 67.705 0 1 .71.3q4.1 9.48 1.88 17.71-3.92 14.56-18.72 18.74a.402.401 23.052 0 1-.3-.74c13.54-7.12 21.71-19.94 16.11-35.36a.503.5-20.831 0 1 .29-.64M206.27 72.86q-.26.39-.2.7l-3.92-.51a1.73 1.696-49.138 0 0-.73.06q-2.1.64-2.52 2.02-.49 1.58.21 3.07 3.83 8.18 6.27 16.3-.23.11-.95.05l-3.87-10.65-.87-1.86q-.58-1.51-1.22-3.27c-2.33-6.39 2.86-7.94 7.8-5.91"></path><path fill="#fcfcfc" fill-rule="evenodd" d="M208.22 72.41q3.03 2.32 6.89 2.68a1.634 1.499-47.464 0 0 .58-.05l1.03-.26 1.65-.73q1.56.15 3.28-1.09a1.078 1.077 73.248 0 1 1.71.92q-.17 3.85-4.2 4.07a.8.8-.382 0 0-.77.78q-.05 1.57-1.23 3.09a2.041 2.009 60.12 0 0-.39 1.49c.82 6 2.89 8.07 7.29 11.75a1.971 1.957-80.336 0 1 .57.81q4.38 11.61-7.45 15.82a.914.904 84.739 0 0-.6.73q-.65 4.43 2.43 6.89a.504.503 64.641 0 1-.32.9l-8.37-.22q-1.32-.68-1.76-1.48c-.99-1.86 2.04-3.13 3.43-3.24q-.27 1.57-1.54 2.65a.617.612-36.67 0 0-.12.8l.03.05a.522.517 55.444 0 0 .74.14q2.58-1.9 1.76-5.13.21-.91-.08-1.5-.26-.52-1.23-.74c-6.98-1.65-9.83-9.04-6.76-15.29q.38-.77-.36-1.7.72.06.95-.05.15.02.27.04a.387.378-53.238 0 0 .32-.05q6.09-4.03 6.64-11.45a2.009 2-65.416 0 0-.58-1.57q-.86-.87-.79-2.09a.832.823-86.45 0 0-.76-.87q-4.26-.29-4.41-4.95-.06-.31.2-.7z"></path><path fill="#c40707" fill-rule="evenodd" d="M206.07 73.56q.15 4.66 4.41 4.95a.832.823-86.45 0 1 .76.87q-.07 1.22.79 2.09a2.009 2-65.416 0 1 .58 1.57q-.55 7.42-6.64 11.45a.387.378-53.238 0 1-.32.05q-.12-.02-.27-.04-2.44-8.12-6.27-16.3-.7-1.49-.21-3.07.42-1.38 2.52-2.02a1.73 1.696-49.138 0 1 .73-.06z"></path><path fill="#e2b6d0" fill-rule="evenodd" d="M110.4 105.17q.14-1.72.93-2.65 4.44-5.24 4.38-10.18a1.708 1.69-20.315 0 1 .62-1.33c3.5-2.84 6.91-9.62 4-14.05a.445.444 53.868 0 1 .09-.58l3.68-3.1a.058.051-28.909 0 1 .09.02c4.4 14.32-1.36 24.9-13.23 32.21a.369.367 76.114 0 1-.56-.34"></path><path fill="#fcfcfc" fill-rule="evenodd" d="M224.25 92.66a.479.471-64.855 0 1-.73.27q-4.85-3.33-5.15-9.77a1.881 1.794 58.271 0 1 .19-.9l1.26-2.51a1.173 1.17 4.468 0 1 .68-.58c2.93-.91 3.19-1.78 4.19-4.22a2.477 2.477-70.624 0 1 2.98-1.43c3.37.97 2.85 3.07 1.58 5.84q-3.36 7.33-5 13.3"></path><path fill-rule="evenodd" d="M188.908 78.457q.516-.002 1.014 1.012a.429.428 48.121 0 0 .748.041q.68-1.09 1.54-1.05a.597.591-73.368 0 1 .48.9l-1.28 2.17a.429.383-32.296 0 0-.06.21v11.78a1.006 1.005-81.104 0 1-1.313.958q-.643-.204-1.055-.202-.413.002-1.054.212a1.006 1.005 80.567 0 1-1.322-.946l-.11-11.779a.429.383 31.759 0 0-.062-.21l-1.3-2.158a.597.591 72.831 0 1 .471-.904q.86-.048 1.55 1.035a.429.428-48.658 0 0 .748-.048q.488-1.018 1.005-1.021m-.825 7.395q.009.754.188 1.201a.686.684-47.117 0 0 1.289-.049q.117-.372.108-1.169-.009-.798-.134-1.167a.686.684 45.823 0 0-1.29-.02q-.169.451-.161 1.204"></path><path fill="#c40707" fill-rule="evenodd" d="M232.23 93.76q.71-.07 1.74 1.32a1.18 1.18 51.376 0 0 1.7.19l2.39-2.01a1.762 1.756 51.778 0 0 .28-2.39q-1.64-2.24-4.27-3.19a1.356 1.339-.358 0 1-.81-.79q-.3-.74-1.77-1.46a.338.335 46.126 0 1 .01-.61q1.92-.84.87-2.29a.475.475 64.372 0 1 .26-.74q.24-.06 1.36.75a.604.601-51.098 0 0 .82-.09l.77-.91a.557.554 65.06 0 1 .98.36v2.5a1.228 1.222 15.983 0 0 .58 1.04l3.92 2.45a.999.995 16.115 0 0 1.53-.84v-.36a1.418 1.411-79.425 0 0-.9-1.32l-3.05-1.18a.602.592-69.276 0 1-.34-.77l.15-.36a.48.48-36.597 0 1 .62-.28l2.05.8a.44.437-68.816 0 0 .56-.25q.25-.61.25-.64.02-.34.45-.6c3.81-2.23 5.88-3.09 10.02-2.01a.653.651-74.053 0 1 .46.83q-.04.1-.42.63-.61.83-.44.97.36.31.55.35a.576.568 16.719 0 1 .41.75q-.11.3-.41.6-.28.3-.05.71.72 1.24-.27 1.66a.788.786-19.235 0 0-.45.93q.43 1.58-.72 2.37a1.153 1.141 73.064 0 0-.5.95v1.14a.62.62 1.323 0 1-.65.62q-1.38-.06-1.95.82a1.414 1.39-39.152 0 0-.14 1.26l2.68 7.04a1.685 1.681-24.996 0 0 2.4.87q1.88-1.06 1.13-3.33-1.29-3.9-1.67-6.17a1.552 1.443 48.1 0 1 .01-.57l1.63-8.17a.754.744-87.73 0 1 .63-.59l.4-.05a.542.538-2.744 0 1 .61.55q-.15 3.54-1.17 6.17c-1.33 3.43 1.34 7.83 1.47 10.07.18 2.96-1.57 3.89-3.82 5.01a.941.938-13.317 0 0-.52.84v5.54a1.285 1.268 28.678 0 0 .21.7l2.18 3.21a.472.468 60.624 0 1-.19.69q-2.99 1.44-1.78 5.55a.452.452 14.895 0 1-.76.44q-1.31-1.35-2.5-.35a.403.402 61.479 0 1-.64-.19q-.35-1.14-1.79-.54a.299.294-88.976 0 1-.38-.4q.69-1.52 1.94-1.75a1.467 1.453 83.927 0 0 1.2-1.5l-.01-.1a1.124 1.123-6.416 0 0-1.33-1.06q-2.42.46-2.76-2.3a1.157 1.114-43.899 0 1 .01-.26l.52-2.9a.732.731 85.14 0 0-.97-.82q-4.06 1.49-3.54 4.73a1.002.999-4.633 0 1-.99 1.16h-2.9a.904.901 20.002 0 0-.69.32l-2.13 2.53a.556.555 70.328 0 1-.97-.46l.24-1.28a.76.758-84.054 0 0-.72-.89q-.97-.03-1.16-.13a.378.376-37.039 0 1 .1-.7q2.41-.53 1.95-2.73a.399.396-79.802 0 1 .6-.42l2.67 1.67a1.194 1.192 8 0 0 1.78-1.34c-.8-2.79-3.24-4.93.69-7.04a1.2 1.2-21.451 0 1 .36-.12l5.21-.68a1.024 1.022-31.086 0 0 .46-1.85q-2.79-1.98-5.17-6.37a.77.767-24.647 0 0-.95-.35l-2.99 1.14a1.145 1.141-5.425 0 0-.73.88l-.28 1.52a.601.598-50.292 0 1-1.15.11q-.8-2.09-2.86-1.55a.459.459 23.814 0 1-.33-.85q2.39-1.27.9-3.17a.417.411 68.081 0 1 .28-.67"></path><path fill="#e2b6d0" fill-rule="evenodd" d="M109.29 101.33 87.26 89.54a2.028 2.021-78.293 0 1-1.06-1.62q-.43-5.47 4.31-7.99a1 .978-45.637 0 1 .9-.02l21.82 10.94a1.542 1.529-75.803 0 1 .85 1.44q-.17 5.16-3.92 8.92a.742.74 37.071 0 1-.87.12"></path><path fill-rule="evenodd" d="m199.69 82.04.87 1.86q-2.12.78-2.09 2.34.08 3.89.17 6.68a1.38 1.38 89.193 0 1-1.38 1.42h-2.19a1.42 1.42 44.774 0 1-1.42-1.42v-6.86a1.43 1.406-65.065 0 0-.32-.9q-.67-.84-.83-1.68a.599.598 12.382 0 1 .94-.6q.27.2.56.74.28.51.71.45.4-.05.72-.9a.536.534-54.896 0 1 .91-.16l.62.74a.722.72-37.217 0 0 .96.13q.86-.58 1.77-1.84m-3.473 5.37a1.7.76-90.1 0 0-.757 1.701 1.7.76-90.1 0 0 .763 1.699 1.7.76-90.1 0 0 .757-1.701 1.7.76-90.1 0 0-.763-1.699M185.26 83.32q0 .83-.63 1.73a1.948 1.89-28.202 0 0-.35 1.1v7.29a.96.96-53.159 0 1-.96.96h-3.47a.5.5 45 0 1-.5-.5v-7.89a.754.696 29.706 0 0-.13-.41l-1.1-1.62a.532.515-44.045 0 1 .02-.6l.19-.26a.41.41 42.838 0 1 .57-.09l1.18.87a.581.579 23.827 0 0 .91-.35q.17-.82 1.01-.45a.498.415 76.717 0 1 .16.12l.56.67a.69.687 51.543 0 0 .94.11q.35-.27.65-.89a.501.496-32.25 0 1 .95.21m-3.567 4.19a1.64.76-89.2 0 0-.783 1.629 1.64.76-89.2 0 0 .737 1.651 1.64.76-89.2 0 0 .783-1.629 1.64.76-89.2 0 0-.737-1.651" data-source="https://football-logos.cc"></path><path fill="#fcfcfc" fill-rule="evenodd" d="M189.668 85.835q.009.797-.108 1.169a.686.684-47.117 0 1-1.289.049q-.179-.447-.188-1.201-.008-.753.161-1.204a.686.684 45.823 0 1 1.29.02q.125.369.134 1.167M181.693 87.51a1.64.76-89.2 0 1 .737 1.651 1.64.76-89.2 0 1-.783 1.629 1.64.76-89.2 0 1-.737-1.651 1.64.76-89.2 0 1 .783-1.629M196.217 87.41a1.7.76-90.1 0 1 .763 1.699 1.7.76-90.1 0 1-.757 1.701 1.7.76-90.1 0 1-.763-1.699 1.7.76-90.1 0 1 .757-1.701"></path><path fill="#fcfcfc" fill-rule="evenodd" d="M158.29 254.388c.086 0 .066.006.117-.022C188.19 237.96 216.91 217.1 238.26 190.46q25.8-32.19 33.3-74.25 2.33-13.02 3.41-28.02a.563.563-87.794 0 1 .56-.52h29.44a.38.371 1.433 0 1 .38.39c-2.34 44.85-15.38 86.44-43.64 121.68-27.92 34.81-64.64 58.33-103.218 79.45q-.122.066-.198.066t-.197-.066c-38.584-21.111-75.309-44.622-103.238-79.425-28.269-35.233-41.319-76.82-43.67-121.669a.38.371-1.447 0 1 .38-.39l29.44-.007a.563.563 87.78 0 1 .56.52q1.084 14.999 3.417 28.019 7.51 42.058 33.318 74.242c21.357 26.634 50.082 47.487 79.869 63.886.051.028.031.022.117.022m136.376-147.954a.425.425 47.066 0 1-.473.371l-14.351-1.839a.882.873-82.248 0 0-.981.753l-.282 2.086a.89.89-66.73 0 0 .761 1.002l17.557 2.184a.425.425-45.325 0 0 .473-.372l1.527-12.171a.767.757-83.548 0 0-.674-.858l-1.71-.18a.784.776-83.459 0 0-.857.689zm-271 4.799.397 2.835a1.078 1.066 71.494 0 1-.53 1.078l-2.594 1.48a1.101 1.083 71.682 0 0-.545 1.108l.316 2.341a.556.555-18.655 0 0 .823.407l15.548-8.85a1.114 1.089 79.887 0 0 .548-.807q.101-.724-.013-1.54-.116-.825-.411-1.494a1.114 1.089 84.172 0 0-.75-.625l-17.38-4.24a.556.555 2.715 0 0-.679.617l.338 2.338a1.101 1.083-87.623 0 0 .829.916l2.901.71a1.078 1.066-87.435 0 1 .805.891zm271.933 10.773a8.33 8.33 0 0 0-7.04-9.446l-2.81-.41a8.33 8.33 0 0 0-9.446 7.041l-.222 1.523a8.33 8.33 0 0 0 7.04 9.446l2.81.41a8.33 8.33 0 0 0 9.446-7.041zM32.031 132.282q-2.077 2.051-6.41 6.517a1.107 1.103 60.218 0 0-.281 1.041l.57 2.25a.69.69-62.911 0 0 .84.5l16.21-4.07a.878.876-14.357 0 0 .63-1.06l-.38-1.51a.95.95 24.698 0 0-1.15-.69l-9.77 2.46a.248.231-26.017 0 1-.23-.07q-.25-.26.045-.618.089-.11 2.224-2.218 2.076-2.052 6.409-6.518a1.107 1.103 60.218 0 0 .281-1.041l-.57-2.25a.69.69-88.416 0 0-.84-.5l-16.21 4.07a.878.876-14.357 0 0-.63 1.06l.38 1.51a.95.95-58.911 0 0 1.15.69l9.77-2.46a.248.231-26.017 0 1 .23.07q.25.26-.044.618-.09.11-2.224 2.219m249.805 1.993q-.491-2.256-3.241-3.19c-5.321-1.83-7.113 7.728-8.59 12.434a.55.55 23.464 0 0 .368.688l17.018 5.326a.646.639 17.918 0 0 .806-.407q2.934-9.031 3.127-10.716.411-3.517-3.302-5.33-2.738-1.345-5.694 1.355a.302.3 62.788 0 1-.492-.16M49.077 152.229q-2.204-5.714-2.218-5.966a.568.559-5 0 0-.639-.527q-1.269.16-2.186.836a.569.566-29.241 0 0-.187.658l1.433 3.738a.727.727 5.83 0 1-.424.937l-12.678 4.853a.73.722-16.217 0 0-.454.815q.116.604.35 1.209.237.614.556 1.14a.73.722-25.968 0 0 .883.299l12.654-4.917a.727.727-66.548 0 1 .943.409l1.448 3.732a.569.566-12.944 0 0 .581.362q1.134-.115 2.181-.848a.568.559-37.185 0 0 .119-.82q-.159-.196-2.362-5.91m217.707.033q-2.313 6.001-2.48 6.207a.597.587 37.167 0 0 .126.861q1.1.77 2.29.89a.597.594 12.925 0 0 .61-.38l1.52-3.92a.763.763 55.946 0 1 .99-.43l13.29 5.16a.767.759 25.95 0 0 .928-.315q.335-.552.58-1.188.248-.644.37-1.278a.767.759 16.199 0 0-.476-.856l-13.316-5.093a.763.763 57.209 0 1-.446-.983l1.504-3.926a.597.594 29.223 0 0-.197-.692q-.963-.709-2.296-.876a.597.587 4.981 0 0-.67.553q-.015.265-2.327 6.266m7.724 21.822q-.51 1.048-1.02 1.544a2.723 2.716 34.869 0 1-3.012.535q-5.695-2.535-11.361-5.52a.725.724 25.171 0 0-1.003.361l-.964 2.276a.696.693-64.712 0 0 .321.9q5.218 2.674 11.278 5.398c4.203 1.895 7.003-.389 8.774-4.022s1.845-7.247-2.236-9.39q-5.879-3.096-11.2-5.559a.696.693-63.314 0 0-.907.302l-1.198 2.161a.725.724 26.803 0 0 .333 1.012q5.842 2.624 11.347 5.55a2.723 2.716 17.105 0 1 1.434 2.701q-.077.708-.586 1.751m-221.262-4.007a.642.641-27.873 0 1 .876.269l3.868 7.417a.891.886 61.534 0 0 1.217.365l1.238-.684a.839.837-28.311 0 0 .339-1.125l-5.708-10.707a.561.554-27.716 0 0-.749-.229l-15.066 8.011a.581.575 61.772 0 0-.23.779l5.901 11.042a.784.778-27.9 0 0 1.052.319l1.388-.726a.79.784-28.264 0 0 .326-1.069l-4.203-7.705a.656.656-19.277 0 1 .264-.889l3.264-1.747a.616.614-28.075 0 1 .841.255l3.608 6.912a.756.75 62.016 0 0 1.022.317l1.46-.778a.751.75 61.784 0 0 .309-1.025l-3.738-6.821a.623.616 61.59 0 1 .247-.844zm204.939 6.904a.65.65-1.735 0 0-.207-.895l-1.667-1.042a.65.65 27.729 0 0-.895.207l-6.212 9.938a.65.65 39.223 0 0 .207.896l15.108 9.45a.65.65-52.617 0 0 .896-.206l1.361-2.178a.65.65-24.502 0 0-.207-.896l-5.778-3.611a.65.65 79.991 0 1-.207-.895l3.552-5.688a.65.65-22.118 0 0-.207-.895l-1.668-1.042a.65.65 25.029 0 0-.895.207l-3.571 5.708a.65.65-22.073 0 1-.896.206l-2.688-1.68a.65.65-52.14 0 1-.206-.896zM62.18 204.85q6.97-.63 9.99-7.46.89-2.03-.17-4.67c-3.24-8.08-11.34-8.37-16.58-2.11-3.8 4.53-1.78 9.52 2.48 13a2.102 2.068 19.757 0 1 .78 1.62v2.35a.85.84-90 0 0 .84.85h1.47a.66.66-15.182 0 0 .66-.66v-2.34a.585.582-2.707 0 1 .53-.58m187.278-6.766a.69.69-55.483 0 0-.972.084l-5.322 6.315a.69.69-14.198 0 1-.972.083l-2.163-1.821a.69.69 78.452 0 1-.084-.973l5.8-6.875a.69.69-43.963 0 0-.083-.972l-1.435-1.21a.69.69-39.513 0 0-.972.082l-8.26 9.795a.69.69-49.851 0 0 .083.973l13.545 11.42a.69.69 24.794 0 0 .972-.082l8.5-10.076a.69.69-40.189 0 0-.083-.972l-1.434-1.21a.69.69 39.032 0 0-.973.083l-6.03 7.154a.69.69-21.037 0 1-.973.083l-2.884-2.43a.69.69 80.433 0 1-.083-.973l5.32-6.314a.69.69 5.738 0 0-.083-.973zM74.641 218.78q-.759-.815-1.027-1.44a2.602 2.596-34.088 0 1 .557-2.869q4.214-4.21 8.82-8.239a.693.692-43.786 0 0 .022-1.018l-1.698-1.641a.665.663 46.331 0 0-.913-.023q-4.176 3.737-8.684 8.207c-3.132 3.098-2.056 6.379.577 9.205s5.829 4.132 9.142 1.227q4.777-4.18 8.8-8.081a.665.663 47.729 0 0 .042-.912l-1.516-1.81a.693.692-42.154 0 0-1.017-.051q-4.345 4.31-8.843 8.216a2.602 2.596-51.852 0 1-2.901.352q-.605-.312-1.361-1.123m147.861-2.602 13.158 12.574a.43.43-81.415 0 0 .608-.014l5.285-5.531a8.13 7.84 43.7 0 0-.461-11.285l-2.025-1.934a8.13 7.84 43.7 0 0-11.294.051l-5.285 5.531a.43.43 37.278 0 0 .014.608M97.739 224.79a.644.643-48.797 0 1 .917-.062l6.276 5.559a.893.888 40.61 0 0 1.27-.094l.915-1.083a.841.839-49.234 0 0-.086-1.175l-9.176-7.981a.562.556-48.64 0 0-.784.054l-11.237 12.893a.583.577 40.848 0 0 .063.812l9.478 8.225a.786.779-48.824 0 0 1.098-.078l1.04-1.176a.792.786-49.187 0 0-.078-1.118l-6.693-5.709a.657.657-11.46 0 1-.071-.926l2.431-2.805a.617.616-48.999 0 1 .879-.062l5.852 5.18a.757.751 41.093 0 0 1.07-.069l1.089-1.252a.753.751 40.861 0 0-.079-1.07l-5.94-5.048a.624.617 40.666 0 1-.072-.879zm120.961 5.28q.8-2.17-1.02-4.44c-3.51-4.41-10.17 2.7-13.95 5.88a.553.553-43.733 0 0-.06.78l11.51 13.66a.647.64 50.423 0 0 .9.09q7.34-6.05 8.41-7.37 2.24-2.75.08-6.28-1.59-2.61-5.54-1.92a.303.301-84.706 0 1-.33-.4m-14.305 20.622q-.929.707-1.61.921a2.729 2.722 61.664 0 1-2.935-.883q-3.95-4.84-7.67-10.07a.727.726 51.966 0 0-1.06-.13l-1.89 1.6a.698.695-37.916 0 0-.12.95q3.46 4.75 7.65 9.924c2.904 3.593 6.441 2.815 9.666.366 3.226-2.45 4.924-5.649 2.242-9.41q-3.86-5.425-7.508-10.033a.698.695-36.519 0 0-.947-.139l-2.048 1.391a.727.726 53.598 0 0-.16 1.056q4.04 4.987 7.643 10.091a2.729 2.722 43.9 0 1 .063 3.065q-.389.598-1.316 1.301m-86.275-2.472q3.61 1.32 5.75-1.57 2.88-3.89-1.18-7.17-1.97-1.59-7.24-5.43a.608.602-53.512 0 0-.84.13l-10.01 13.7a.65.644-54.003 0 0 .14.91l1.96 1.43a.628.622 36.329 0 0 .88-.13l3.8-5.2a.578.572 34.556 0 1 .78-.14q2 1.32 2.03 3.23.04 2.52-.33 6.44a1.57 1.555 21.018 0 0 .64 1.42l2.43 1.78a.491.487 18.211 0 0 .78-.39v-8.72a.308.305-80.034 0 1 .41-.29m78.929 11.109a.64.64-39.766 0 0 .172-.889l-1.092-1.61a.64.64-75.761 0 0-.889-.171l-6.86 4.652a.64.64.602 0 1-.889-.171l-8.082-11.94a.64.64-63.773 0 0-.889-.17l-2.111 1.431a.64.64-3.304 0 0-.171.889l9.883 14.6a.64.64-29.118 0 0 .889.171zm-64.556 3.247 2.43 1.515a1.078 1.066 21.412 0 1 .487 1.099l-.53 2.94a1.102 1.084 21.6 0 0 .5 1.13l2 1.26a.556.556-68.738 0 0 .84-.37l3.19-17.61a1.115 1.09 29.805 0 0-.266-.939q-.492-.542-1.191-.978-.708-.441-1.411-.644a1.115 1.09 34.09 0 0-.96.174l-14.41 10.613a.556.556-47.367 0 0 .037.917l2.012 1.242a1.102 1.084 42.295 0 0 1.235-.048l2.407-1.77a1.078 1.066 42.483 0 1 1.2-.046zm44.307 1.984q1.31 4.36-3.59 5.72a1.69 1.656-42.215 0 1-1.04-.04c-3.16-1.15-7.65-7-5.19-10.43 1.1-1.53 3.35-3.05 5.08-1.85q.58.41 1.15.65a.728.707 35.732 0 0 .74-.11l1.94-1.63a.772.771 41.791 0 0-.07-1.23q-2.11-1.41-4.03-1.65a3.304 2.981-42.748 0 0-.83.01c-9.34 1.41-10.64 10.84-4.64 16.89 3.5 3.52 7.98 3.68 11.83.48q3.76-3.13 2.41-7.86a.619.614-14.617 0 0-.74-.43l-2.54.64a.677.672 74.959 0 0-.48.84"></path><path fill="#e2b6d0" fill-rule="evenodd" d="M109.02 103.76c-.57 2.47-3.44 6.06-6.55 5.72q-14.15-1.56-20.73-13.38a2.59 2.56 45.096 0 1-.01-2.47q1.12-2.04 2.91-3.12a.99.969-45.597 0 1 .96-.02l22.99 12.31a.872.859-69.551 0 1 .43.96M83.82 92.6c-2.2 2.09-.28 4.86 1.41 6.89q5.67 6.75 13.64 8.08c4 .67 6.88 1.11 8.65-2.71a1.414 1.41 25.545 0 0-.66-1.86q-8.26-4.05-20.08-10.83a2.575 2.416-51.44 0 0-2.96.43"></path><path fill="#e2b6d0" fill-rule="evenodd" d="M83.82 92.6a2.575 2.416-51.44 0 1 2.96-.43Q98.6 98.95 106.86 103a1.414 1.41 25.545 0 1 .66 1.86c-1.77 3.82-4.65 3.38-8.65 2.71q-7.97-1.33-13.64-8.08c-1.69-2.03-3.61-4.8-1.41-6.89"></path><path fill-rule="evenodd" d="M182.97 107.05q-.3.42-.6.31a2.564 1.556 17.216 0 1-1.86-2.1q.87-4.41-2.36-8.54a.641.64-89.328 0 1 .91-.89q.77.63 1.78.07a.98.971-40.5 0 1 1.08.08l.07.07a.828.82-45.732 0 0 1.17-.02q.85-.9 1.58.08a.643.642 40.218 0 0 1.09-.09q.03-.07.06-.13a.672.67 38.678 0 1 1.1-.12q.38.45.57.51.52.19.87-.09 1-.82 1.58-.09a.65.647-43.11 0 0 .98.03l.52-.55a.665.665 43.132 0 1 .93-.03q.02.02.17.36a.742.741 54.882 0 0 1.2.21q.71-.72 1.47-.05a1.066 1.065-38.411 0 0 1.22.14q1.3-.72 2.61-.51a.663.659 18.606 0 1 .48.96l-2.11 3.94a2.324 2.297 58.692 0 0-.28 1.18q.08 3.78.06 4.29a1.273 1.243-71.23 0 1-1.99 1.01q-.78-.59-1.49.1a.622.608-46.464 0 1-.81.03q-.98-.82-1.99-.13a.873.862 46.836 0 1-1.04-.04q-.01-.01-.34-.28-.18-.14-.63.16-1.04.7-1.87.1a.921.92-46.99 0 0-1.13.04q-.08.06-.13.1a.927.915-44.642 0 1-1.09 0q-.54-.4-1.32-.36a.595.585-73.038 0 0-.46.25m2.275-6.786a.84.84 0 0 0-.837-.843l-.66-.002a.84.84 0 0 0-.843.837l-.01 2.72a.84.84 0 0 0 .837.843l.66.002a.84.84 0 0 0 .843-.837zm9.667-.044a.78.78 0 0 0-.773-.787l-.66-.006a.78.78 0 0 0-.787.773l-.024 2.84a.78.78 0 0 0 .773.787l.66.006a.78.78 0 0 0 .787-.773zM294.666 106.434l.99-8.335a.784.776-83.459 0 1 .857-.689l1.71.18a.767.757-83.548 0 1 .674.858l-1.527 12.171a.425.425-39.083 0 1-.473.372l-17.557-2.184a.89.89-67.399 0 1-.761-1.002l.282-2.086a.882.873-82.248 0 1 .981-.753l14.351 1.839a.425.425 15.368 0 0 .473-.371"></path><path fill="#fcfcfc" fill-rule="evenodd" d="M185.235 102.984a.84.84 0 0 1-.843.837l-.66-.002a.84.84 0 0 1-.837-.843l.01-2.72a.84.84 0 0 1 .843-.837l.66.002a.84.84 0 0 1 .837.843zM194.888 103.06a.78.78 0 0 1-.787.773l-.66-.006a.78.78 0 0 1-.773-.787l.024-2.84a.78.78 0 0 1 .787-.773l.66.006a.78.78 0 0 1 .773.787z"></path><path fill-rule="evenodd" d="m23.666 111.233-.397-2.835a1.078 1.066-87.435 0 0-.805-.891l-2.901-.71a1.101 1.083-87.623 0 1-.829-.916l-.338-2.338a.556.555 2.715 0 1 .679-.617l17.38 4.24a1.114 1.089 84.172 0 1 .75.625q.295.669.411 1.494.114.816.013 1.54a1.114 1.089 79.887 0 1-.548.807l-15.548 8.85a.556.555-18.655 0 1-.823-.407l-.316-2.341a1.101 1.083 71.682 0 1 .545-1.108l2.594-1.48a1.078 1.066 71.494 0 0 .53-1.078zm3.282-2.81a.44.44-88.356 0 0-.526.491l.499 3.639a.44.44-56.088 0 0 .638.332l4.877-2.523a.44.44 33.741 0 0-.112-.821z"></path><path fill="#fcfcfc" fill-rule="evenodd" d="m59.49 110.71-.13 40.85q-9.04-21.38-12.03-43.6a.458.457-87.789 0 1 .55-.51l11.2 2.36a.761.75-15.158 0 1 .39.22q.57.61.02.68"></path><path fill-rule="evenodd" d="M191.84 121.72q-.09-3.81-1.78-7.43a1.108 1.103-33.552 0 0-1.75-.35c-1.79 1.65-2.13 5.4-2.3 7.85l-7.46-.12a.506.497-2.599 0 1-.49-.44q-.8-6.85 2.75-12.83a.347.343 42.74 0 1 .58-.02q.91 1.28 1.99.24a.764.764 0 0 1 1.06 0q.8.76 1.45.19.61-.53 1.25.01.78.64 1.84-.17a.612.603-36.071 0 1 .87.13q.49.71 1.58-.16a.831.825 46.412 0 1 1.08.03q.8.73 1.34.22.62-.57 1.26-.12.46.32 1.65.12a.867.859 74.084 0 1 .96.54l2.13 5.6a.513.443-59.221 0 1 .03.17v5.92a.59.59 36.855 0 1-.59.59z"></path><path fill="#fcfcfc" fill-rule="evenodd" d="m26.948 108.423 5.376 1.118a.44.44 73.134 0 1 .112.821l-4.877 2.523a.44.44-60.862 0 1-.638-.332l-.499-3.639a.44.44-63.881 0 1 .526-.491"></path><path fill="#008236" fill-rule="evenodd" d="m76.78 113.69-.24 67.6q-.66-.12-.9-.44-10.19-13.95-16.28-29.29l.13-40.85q1.4-.47 2.51-.27 7.43 1.37 14.78 3.25"></path><path fill-rule="evenodd" d="M295.377 123.529a8.33 8.33 0 0 1-9.446 7.041l-2.81-.41a8.33 8.33 0 0 1-7.04-9.446l.222-1.523a8.33 8.33 0 0 1 9.446-7.041l2.81.41a8.33 8.33 0 0 1 7.04 9.446zm-16.098-3.389a6.65 5.37-169.6 0 0 5.572 6.482 6.65 5.37-169.6 0 0 7.51-4.082 6.65 5.37-169.6 0 0-5.572-6.482 6.65 5.37-169.6 0 0-7.51 4.082"></path><path fill="#fcfcfc" fill-rule="evenodd" d="M191.84 121.72q-2.75.58-5.83.07c.17-2.45.51-6.2 2.3-7.85a1.108 1.103-33.552 0 1 1.75.35q1.69 3.62 1.78 7.43M92.95 117.24v84.29q-9.12-9.2-16.06-19.17-.33-.48-.35-1.07l.24-67.6z"></path><path fill="#858483" fill-rule="evenodd" d="M212.86 113.78q.82 3.23-1.76 5.13a.522.517 55.444 0 1-.74-.14l-.03-.05a.617.612-36.67 0 1 .12-.8q1.27-1.08 1.54-2.65.88-.55.87-1.49"></path><path fill="#fcfcfc" fill-rule="evenodd" d="M218.52 115.59q1.88.83 2.54 1.82a1.263 1.109-18.728 0 1-1.01 1.75q-.59.07-.71-.56c-.17-.91-1.15-1.83-1.33-2.58a.372.372 4.839 0 1 .51-.43M279.279 120.14a6.65 5.37-169.6 0 1 7.51-4.082 6.65 5.37-169.6 0 1 5.572 6.482 6.65 5.37-169.6 0 1-7.51 4.082 6.65 5.37-169.6 0 1-5.572-6.482"></path><path fill="#008236" fill-rule="evenodd" d="M110.4 120.96q-.1 60.26.05 91.79.01 2.31-.4 4.44-9.56-7.21-17.1-15.66v-84.29z"></path><path fill="#fcfcfc" fill-rule="evenodd" d="m217.45 134.33-3.45.02-7.81.03a1.02 1.02-7.913 0 1-.98-.74q-.49-1.71-1.99-2.23a1.705 1.692 9.735 0 1-1.14-1.6v-6.13a.584.582 2.276 0 1 .63-.58c2.24.21 5.78-.18 7.51-2.37q.36-.13.4-.12a.777.776 20.873 0 1 .44.98q-1.47 4.06-4 7.09a.516.514 30.536 0 0 .21.81l.3.12a.366.365-59.573 0 0 .42-.11q2.96-3.48 4.33-7.27a1.065 1.065 15.419 0 1 1.2-.68q1.74.32 2.87-.02a.763.753-22.273 0 1 .9.37q.02.02 1.17 2.63 1.17 2.64 3.42 4.99a.54.538-41.818 0 0 .74.04l.04-.04a.268.26-36.703 0 0 .05-.31l-4.13-7.15a.654.654 24.268 0 1 .64-.98q.48.05.71.28 2.65 2.64 6.35 2.02a.886.882-4.704 0 1 1.03.87v5.46a1.223 1.205 72.888 0 1-.52 1q-1.91 1.33-2.61 2.55a1.848 1.828-70.628 0 1-1.87.91q-3.32-.5-4.86.16M126.56 124.53v105.55l-16.51-12.89q.41-2.13.4-4.44-.15-31.53-.05-91.79z"></path><path fill-rule="evenodd" d="M32.031 132.282q2.134-2.109 2.224-2.219.294-.358.044-.618a.248.231-26.017 0 0-.23-.07l-9.77 2.46a.95.95-59.191 0 1-1.15-.69l-.38-1.51a.878.876-14.357 0 1 .63-1.06l16.21-4.07a.69.69-62.836 0 1 .84.5l.57 2.25a1.107 1.103 60.218 0 1-.281 1.041q-4.333 4.466-6.409 6.518-2.135 2.108-2.224 2.218-.295.358-.045.618a.248.231-26.017 0 0 .23.07l9.77-2.46a.95.95 25.371 0 1 1.15.69l.38 1.51a.878.876-14.357 0 1-.63 1.06l-16.21 4.07a.69.69-59.828 0 1-.84-.5l-.57-2.25a1.107 1.103 60.218 0 1 .281-1.041q4.333-4.466 6.41-6.517"></path><path fill="#008236" fill-rule="evenodd" d="M143.77 128.22v113.25q-9.17-5.14-17.21-11.39V124.53z"></path><path fill="#fcfcfc" fill-rule="evenodd" d="M143.77 241.47V128.22l12.33 2.71a.461.46-83.757 0 1 .36.45v117.27a.308.307 15.91 0 1-.47.26z"></path><path fill-rule="evenodd" d="M281.836 134.275a.302.3 62.788 0 0 .492.16q2.956-2.7 5.694-1.355 3.713 1.813 3.302 5.33-.193 1.685-3.127 10.716a.646.639 17.918 0 1-.806.407l-17.018-5.326a.55.55 40.807 0 1-.368-.688c1.477-4.706 3.269-14.264 8.59-12.434q2.75.934 3.241 3.19m-7.277 7.231 3.003.982a.6.6 17.544 0 0 .757-.384l1.277-3.907a2.69 2.03-71.9 0 0-1.094-3.187l-.285-.094a2.69 2.03-71.9 0 0-2.765 1.927l-1.277 3.906a.6.6 43.045 0 0 .384.757m7.212 2.147 3.715 1.251a.56.56-32.456 0 0 .709-.353l1.439-4.274a3.03 2.32-71.4 0 0-1.233-3.612l-.379-.127a3.03 2.32-71.4 0 0-3.165 2.131l-1.439 4.275a.56.56 47.96 0 0 .353.709"></path><path fill="#008236" fill-rule="evenodd" d="M160.63 248.82a.377.377-14.486 0 1-.56-.33V133.2a.672.666 5.982 0 1 .81-.65l95.28 20.08a.552.551-72.232 0 1 .39.76c-19.16 42.85-56.03 72.72-95.92 95.43"></path><path fill="#fcfcfc" fill-rule="evenodd" d="M274.559 141.506a.6.6-21.235 0 1-.384-.757l1.277-3.906a2.69 2.03-71.9 0 1 2.765-1.927l.285.094a2.69 2.03-71.9 0 1 1.094 3.187l-1.277 3.907a.6.6 40.313 0 1-.757.384zM281.771 143.653a.56.56 61.525 0 1-.353-.709l1.439-4.275a3.03 2.32-71.4 0 1 3.165-2.131l.379.127a3.03 2.32-71.4 0 1 1.233 3.612l-1.439 4.274a.56.56-29.074 0 1-.709.353z"></path><path fill-rule="evenodd" d="M49.077 152.229q2.203 5.714 2.362 5.91a.568.559-37.185 0 1-.119.82q-1.047.733-2.181.848a.569.566-12.944 0 1-.581-.362l-1.448-3.732a.727.727-66.557 0 0-.943-.409l-12.654 4.917a.73.722-25.968 0 1-.883-.299q-.319-.526-.556-1.14-.234-.605-.35-1.209a.73.722-16.217 0 1 .454-.815l12.678-4.853a.727.727-24.075 0 0 .424-.937l-1.433-3.738a.569.566-29.241 0 1 .187-.658q.917-.676 2.186-.836a.568.559-5 0 1 .639.527q.014.252 2.218 5.966M284.638 159.147q-.245.636-.58 1.188a.767.759 25.95 0 1-.928.315l-13.29-5.16a.763.763 16.584 0 0-.99.43l-1.52 3.92a.597.594 12.925 0 1-.61.38q-1.19-.12-2.29-.89a.597.587 37.167 0 1-.126-.861q.167-.206 2.48-6.207 2.312-6.001 2.327-6.266a.597.587 4.981 0 1 .67-.553q1.333.167 2.296.876a.597.594 29.223 0 1 .197.692l-1.504 3.926a.763.763 1.258 0 0 .446.983l13.316 5.093a.767.759 16.199 0 1 .476.856q-.122.634-.37 1.278M274.508 174.084q.509-1.043.586-1.751a2.723 2.716 17.105 0 0-1.434-2.701q-5.505-2.926-11.347-5.55a.725.724 26.803 0 1-.333-1.012l1.198-2.161a.696.693-63.314 0 1 .907-.302q5.321 2.463 11.2 5.559c4.081 2.143 4.007 5.756 2.236 9.39-1.771 3.633-4.571 5.917-8.774 4.022q-6.06-2.724-11.278-5.398a.696.693-64.712 0 1-.321-.9l.964-2.276a.725.724 25.171 0 1 1.003-.361q5.666 2.985 11.361 5.52a2.723 2.716 34.869 0 0 3.012-.535q.51-.496 1.02-1.544M53.246 170.077l-2.474 1.337a.623.616 61.59 0 0-.247.844l3.738 6.821a.751.75 61.784 0 1-.309 1.025l-1.46.778a.756.75 62.016 0 1-1.022-.317l-3.608-6.912a.616.614-28.075 0 0-.841-.255l-3.264 1.747a.656.656-29.842 0 0-.264.889l4.203 7.705a.79.784-28.264 0 1-.326 1.069l-1.388.726a.784.778-27.9 0 1-1.052-.319l-5.901-11.042a.581.575 61.772 0 1 .23-.779l15.066-8.011a.561.554-27.716 0 1 .749.229l5.708 10.707a.839.837-28.311 0 1-.339 1.125l-1.238.684a.891.886 61.534 0 1-1.217-.365l-3.868-7.417a.642.641-27.873 0 0-.876-.269M258.185 176.981l-4.18 6.688a.65.65-69.685 0 0 .206.896l2.688 1.68a.65.65-53.214 0 0 .896-.206l3.571-5.708a.65.65 70.703 0 1 .895-.207l1.668 1.042a.65.65-17.245 0 1 .207.895l-3.552 5.688a.65.65 88.713 0 0 .207.895l5.778 3.611a.65.65-64.281 0 1 .207.896l-1.361 2.178a.65.65-22.557 0 1-.896.206l-15.108-9.45a.65.65 67.228 0 1-.207-.896l6.212-9.938a.65.65 62.402 0 1 .895-.207l1.667 1.042a.65.65 64.2 0 1 .207.895M61.65 205.43v2.34a.66.66 33.745 0 1-.66.66h-1.47a.85.84-90 0 1-.84-.85v-2.35a2.102 2.068 19.757 0 0-.78-1.62c-4.26-3.48-6.28-8.47-2.48-13 5.24-6.26 13.34-5.97 16.58 2.11q1.06 2.64.17 4.67-3.02 6.83-9.99 7.46a.585.582-2.707 0 0-.53.58m-2.94-6.14v-.73a1.191 1.189 41.32 0 1 2.37-.15l.29 2.22a.723.721 78.03 0 0 .92.6c4.47-1.28 9.3-5.63 4.82-10.25-3.88-3.99-13.42 3.37-9.12 8.56a.408.402 25.481 0 0 .72-.25"></path><path fill="#fcfcfc" fill-rule="evenodd" d="M58.71 199.29a.408.402 25.481 0 1-.72.25c-4.3-5.19 5.24-12.55 9.12-8.56 4.48 4.62-.35 8.97-4.82 10.25a.723.721 78.03 0 1-.92-.6l-.29-2.22a1.191 1.189 41.32 0 0-2.37.15z"></path><path fill-rule="evenodd" d="m249.458 198.084 1.414 1.191a.69.69-2.943 0 1 .083.973l-5.32 6.314a.69.69 69.7 0 0 .083.973l2.884 2.43a.69.69-69.952 0 0 .973-.083l6.03-7.154a.69.69 76.818 0 1 .973-.083l1.434 1.21a.69.69-17.427 0 1 .083.972l-8.5 10.076a.69.69 62.833 0 1-.972.082l-13.545-11.42a.69.69-15.021 0 1-.083-.973l8.26-9.795a.69.69-15.61 0 1 .972-.082l1.435 1.21a.69.69-12.152 0 1 .083.972l-5.8 6.875a.69.69 22.12 0 0 .084.973l2.163 1.821a.69.69-44.384 0 0 .972-.083l5.322-6.315a.69.69-50.01 0 1 .972-.084M74.641 218.78q.756.811 1.361 1.123a2.602 2.596-51.852 0 0 2.901-.352q4.498-3.906 8.843-8.216a.693.692-42.154 0 1 1.017.051l1.516 1.81a.665.663 47.729 0 1-.042.912q-4.023 3.901-8.8 8.081c-3.313 2.905-6.51 1.599-9.142-1.227-2.633-2.826-3.709-6.107-.577-9.205q4.508-4.47 8.684-8.207a.665.663 46.331 0 1 .913.023l1.698 1.641a.693.692-43.786 0 1-.022 1.018q-4.606 4.029-8.82 8.239a2.602 2.596-34.088 0 0-.557 2.869q.268.625 1.027 1.44M222.502 216.178a.43.43 83.967 0 1-.014-.608l5.285-5.531a8.13 7.84 43.7 0 1 11.294-.051l2.025 1.934a8.13 7.84 43.7 0 1 .461 11.285l-5.285 5.531a.43.43-6.942 0 1-.608.014zm5.048-.587 8.331 8.187a.42.42-34.063 0 0 .594-.005l2.502-2.547a4.57 4.07 44.5 0 0-.407-6.106l-2.411-2.369a4.57 4.07 44.5 0 0-6.112-.3l-2.502 2.546a.42.42-34.083 0 0 .005.594"></path><path fill="#fcfcfc" fill-rule="evenodd" d="M227.55 215.591a.42.42-8.669 0 1-.005-.594l2.502-2.546a4.57 4.07 44.5 0 1 6.112.3l2.411 2.369a4.57 4.07 44.5 0 1 .407 6.106l-2.502 2.547a.42.42-8.645 0 1-.594.005z"></path><path fill-rule="evenodd" d="m97.739 224.79-1.838 2.136a.624.617 40.666 0 0 .072.879l5.94 5.048a.753.751 40.861 0 1 .079 1.07l-1.089 1.252a.757.751 41.093 0 1-1.07.069l-5.852-5.18a.617.616-48.999 0 0-.879.062l-2.431 2.805a.657.657-51.84 0 0 .071.926l6.693 5.709a.792.786-49.187 0 1 .078 1.118l-1.04 1.176a.786.779-48.824 0 1-1.098.078l-9.478-8.225a.583.577 40.848 0 1-.063-.812l11.237-12.893a.562.556-48.64 0 1 .784-.054l9.176 7.981a.841.839-49.234 0 1 .086 1.175l-.915 1.083a.893.888 40.61 0 1-1.27.094l-6.276-5.559a.644.643-48.797 0 0-.917.062M218.7 230.07a.303.301-84.706 0 0 .33.4q3.95-.69 5.54 1.92 2.16 3.53-.08 6.28-1.07 1.32-8.41 7.37a.647.64 50.423 0 1-.9-.09l-11.51-13.66a.553.553-8.924 0 1 .06-.78c3.78-3.18 10.44-10.29 13.95-5.88q1.82 2.27 1.02 4.44m-10.024 2.266 2.023 2.402a.59.59-66.089 0 0 .831.071l3.396-2.86a2.35 1.73-40.1 0 0 .684-2.837l-.554-.658a2.35 1.73-40.1 0 0-2.912.191l-3.397 2.86a.59.59-57.273 0 0-.071.831m4.857 5.753 2.52 3.003a.53.53-9.708 0 0 .746.065l3.746-3.143a2.64 2-40 0 0 .737-3.229l-.63-.751a2.64 2-40 0 0-3.308.165l-3.746 3.143a.53.53 17.591 0 0-.065.747"></path><path fill="#fcfcfc" fill-rule="evenodd" d="M208.676 232.336a.59.59-6.809 0 1 .071-.831l3.397-2.86a2.35 1.73-40.1 0 1 2.912-.191l.554.658a2.35 1.73-40.1 0 1-.684 2.837l-3.396 2.86a.59.59-.441 0 1-.831-.071zM213.533 238.089a.53.53-69.307 0 1 .065-.747l3.746-3.143a2.64 2-40 0 1 3.308-.165l.63.751a2.64 2-40 0 1-.737 3.229l-3.746 3.143a.53.53 13.933 0 1-.746-.065z"></path><path fill-rule="evenodd" d="M206.426 253.37c-3.225 2.449-6.762 3.227-9.666-.366q-4.19-5.174-7.65-9.924a.698.695-37.916 0 1 .12-.95l1.89-1.6a.727.726 51.966 0 1 1.06.13q3.72 5.23 7.67 10.07a2.729 2.722 61.664 0 0 2.935.883q.681-.214 1.61-.921.927-.703 1.316-1.301a2.729 2.722 43.9 0 0-.063-3.065q-3.603-5.104-7.643-10.091a.727.726 53.598 0 1 .16-1.056l2.048-1.391a.698.695-36.519 0 1 .947.139q3.648 4.608 7.508 10.033c2.682 3.761.984 6.96-2.242 9.41M117.71 248.51v8.72a.491.487 18.211 0 1-.78.39l-2.43-1.78a1.57 1.555 21.018 0 1-.64-1.42q.37-3.92.33-6.44-.03-1.91-2.03-3.23a.578.572 34.556 0 0-.78.14l-3.8 5.2a.628.622 36.329 0 1-.88.13l-1.96-1.43a.65.644-54.003 0 1-.14-.91l10.01-13.7a.608.602-53.512 0 1 .84-.13q5.27 3.84 7.24 5.43 4.06 3.28 1.18 7.17-2.14 2.89-5.75 1.57a.308.305-80.034 0 0-.41.29m-1.851-9.825-2.221 3.035a.4.4-62.478 0 0 .087.559l3.841 2.811a2.18 1.92 36.2 0 0 2.893-.262l.425-.581a2.18 1.92 36.2 0 0-.625-2.837l-3.841-2.811a.4.4 45 0 0-.559.086"></path><path fill="#fcfcfc" fill-rule="evenodd" d="M115.859 238.685a.4.4-12.747 0 1 .559-.086l3.841 2.811a2.18 1.92 36.2 0 1 .625 2.837l-.425.581a2.18 1.92 36.2 0 1-2.893.262l-3.841-2.811a.4.4 77.253 0 1-.087-.559z"></path><path fill-rule="evenodd" d="m197.049 259.329-10.039 6.792a.64.64 1.261 0 1-.889-.171l-9.883-14.6a.64.64-5.624 0 1 .171-.889l2.111-1.431a.64.64.07 0 1 .889.17l8.082 11.94a.64.64-22.439 0 0 .889.171l6.86-4.652a.64.64-77.54 0 1 .889.171l1.092 1.61a.64.64.754 0 1-.172.889M139.953 250.623q.699.436 1.191.978a1.115 1.09 29.805 0 1 .266.939l-3.19 17.61a.556.556-68.738 0 1-.84.37l-2-1.26a1.102 1.084 21.6 0 1-.5-1.13l.53-2.94a1.078 1.066 21.412 0 0-.487-1.099l-2.43-1.515-2.43-1.515a1.078 1.066 42.483 0 0-1.2.046l-2.407 1.77a1.102 1.084 42.295 0 1-1.235.048l-2.012-1.242a.556.556-47.367 0 1-.037-.917l14.41-10.613a1.115 1.09 34.09 0 1 .96-.174q.703.203 1.411.644m-5.926 9.334q.947.595 1.658.935a.414.413 18.993 0 0 .579-.282c.545-2.443 1.452-5.668 1.066-5.911s-2.898 1.975-4.862 3.527a.414.413 45.277 0 0-.002.644q.614.492 1.561 1.087M176.8 264.56a.677.672 74.959 0 1 .48-.84l2.54-.64a.619.614-14.617 0 1 .74.43q1.35 4.73-2.41 7.86c-3.85 3.2-8.33 3.04-11.83-.48-6-6.05-4.7-15.48 4.64-16.89a3.304 2.981-42.748 0 1 .83-.01q1.92.24 4.03 1.65a.772.771 41.791 0 1 .07 1.23l-1.94 1.63a.728.707 35.732 0 1-.74.11q-.57-.24-1.15-.65c-1.73-1.2-3.98.32-5.08 1.85-2.46 3.43 2.03 9.28 5.19 10.43a1.69 1.656-42.215 0 0 1.04.04q4.9-1.36 3.59-5.72"></path><path fill="#fcfcfc" fill-rule="evenodd" d="M137.33 254.699c.386.243-.521 3.468-1.066 5.911a.414.413 18.993 0 1-.579.282q-.711-.34-1.658-.935t-1.561-1.087a.414.413 45.277 0 1 .002-.644c1.964-1.552 4.476-3.769 4.862-3.527" data-source="https://football-logos.cc"></path><!-- source: https://football-logos.cc --></svg>