<svg xmlns="http://www.w3.org/2000/svg" viewBox="226.49 320.42 349.25 482.71"><!-- Source: https://football-logos.cc --><path d="M324.26-601.573s-86.782 60.694-154.396 60.694c0 200.182 113.16 284.357 135.761 301.339 24.227-14.11 126.178-92.639 126.178-301.339-31.41 0-107.542-60.694-107.542-60.694" style="fill:#e0ba4f;fill-opacity:1;fill-rule:nonzero;stroke:none" transform="matrix(1.33333 0 0 1.33333 0 1122.52)" data-source="https://football-logos.cc"></path><path d="M306.195-316.91c-41.533-44.929-67.463-105.157-75.55-175.507 34.597-9.916 66.928-25.792 90.474-39.096 16.458 11.547 33.943 22.491 51.17 31.089-7.437 97.203-40.782 153.884-66.094 183.514m17.834-277.94c-15.978 10.715-87.655 56.422-148.61 59.12 1.261 123.186 47.478 225.713 130.603 289.561 21.702-13.943 118.706-87.678 120.272-289.83-31.36-4.96-88.386-48.058-102.265-58.851" style="fill:#000;fill-opacity:1;fill-rule:nonzero;stroke:none" transform="matrix(1.33333 0 0 1.33333 0 1122.52)"></path><path d="M244.69-504.28c-2.057 1.648-5.955 4.233-9.853 5.39-5.385 1.599-9.283.745-11.998-2.275-2.672-3.034-4.16-8.3-4.16-14.722.045-14.543 7.182-24.966 16.86-27.839 3.809-1.132 6.743-.9 8.189-.355l-1.402 8.395c-1.62-.623-3.59-.816-6.832.145-5.56 1.653-9.808 7.584-9.808 17.056 0 9.08 3.853 13.19 9.327 11.564 1.488-.442 2.715-1.066 3.24-1.546v-9.21l-4.554 1.352v-7.72l10.991-3.262zM266.814-529.295l-10.565 4.087v10.379l11.8-4.565v8.108l-18.277 7.068v-43.719l17.682-6.836v8.107l-11.205 4.333v9.082l10.565-4.085zM278.684-540.353l2.49-1.144c3.155-1.449 5.023-4.77 5.023-8.598 0-3.956-1.743-5.232-4.65-3.897-1.536.705-2.408 1.234-2.863 1.64zm-6.269-15.868c2.034-1.517 5.022-3.28 8.426-4.843 4.153-1.906 7.058-2.266 9.052-.651 1.7 1.294 2.614 3.924 2.614 7.944 0 5.515-2.532 10.505-4.94 12.972v.195c1.951.336 3.03 2.695 3.737 6.392.87 4.595 1.701 9.921 2.242 11.36l-6.477 2.974c-.415-1.042-1.121-4.286-1.91-9.308-.788-5.15-1.992-6.024-4.608-4.89l-1.867.86v17.188l-6.269 2.877zM297.043-524.606v-43.72l7.168-3.835 5.64 13.003c1.61 3.744 3.183 8.35 4.43 12.614l.081-.043c-.365-5.58-.483-11.418-.483-18.035v-12.713l5.636-3.017v43.719l-6.442 3.448-5.802-13.76c-1.609-3.875-3.421-8.482-4.71-12.916l-.16.085c.202 5.731.282 11.85.282 18.985v13.166zM330.225-575.521v43.72l-5.708-3.952v-43.72zM335.138-572.063l5.83 3.685v19.33l.076.05c.58-1.32 1.197-2.485 1.815-3.652l5.868-10.82 7.26 4.591-8.61 13.171 9.033 30.818-6.835-4.322-6.407-22.93-2.2 3.215v14.27l-5.83-3.687zM372.638-524.866l-1.7-10.165c-.444-2.827-.93-6.39-1.334-9.131l-.124-.064c-.365 2.404-.807 5.48-1.212 7.797l-1.66 8.409zm-6.922 3.775-1.9 10.225-6.394-3.344 8.335-39.359 8.054 4.215 8.5 48.166-6.637-3.473-2.103-12.323zM281.228-276.104c-.996.03-3.356-1.154-6.344-4.383-8.594-9.286-13.02-26.516-13.02-42.972 0-19.607 6.05-23.902 13.574-15.769 2.914 3.148 5.125 6.904 6.123 9.172l-1.182 8.957c-1.105-2.304-2.691-5.043-4.72-7.233-4.426-4.784-7.893-2.304-7.893 10.566 0 11.512 2.95 21.947 7.93 27.328 1.733 1.875 3.578 3.101 4.721 3.226zM285.33-328.294l6.178 5.472v46.553l10.894 9.652v10.912l-17.072-15.127zM311.778-314.233v32.994c0 9.974 1.883 13.446 5.102 10.774 3.344-2.772 5.182-9.073 5.182-19.304v-32.994l6.354-5.27v32.23c0 17.73-4.39 29.813-11.745 35.914-7.107 5.893-11.246 1.227-11.246-17.02v-32.056zM338.704-291.281c.533-.36 1.17-1.1 2.093-2.17 2.446-2.84 4.607-7.65 4.607-13.704 0-5.798-2.16-5.591-4.857-2.465l-1.843 2.139zm0-25.493 1.774-2.055c2.87-3.331 4.358-7.873 4.358-12.139 0-4.345-1.38-5.044-3.827-2.204-1.204 1.397-1.877 2.349-2.305 3.1zm-5.353-15.7c1.419-2.327 4.254-6.215 6.984-9.381 3.298-3.827 5.318-5.402 7.057-4.947 1.665.201 2.835 2.764 2.835 8.048 0 5.033-1.242 11.16-3.9 16.72v.17c2.73-1.464 4.752 1.222 4.752 8.642 0 5.284-.995 10.529-2.483 15.07-1.739 5.34-4.645 10.588-9.397 16.098-2.657 3.086-4.641 4.965-5.848 5.938z" style="fill:#e0ba4f;fill-opacity:1;fill-rule:nonzero;stroke:none" transform="matrix(1.33333 0 0 1.33333 0 1122.52)"></path><path d="M236.576-488.525c8.233 64.911 31.97 120.847 69.46 163.435 23.77-29.574 53.12-83.217 60.556-172.168-13.39-6.867-28.602-15.982-45.769-27.866-22.505 12.515-52.268 26.912-84.247 36.6" style="fill:#fff;fill-opacity:1;fill-rule:nonzero;stroke:none" transform="matrix(1.33333 0 0 1.33333 0 1122.52)"></path><path d="M198.988-479.043c-1.09 3.97-5.59 21.005-5.59 31.63 0 2.516.255 4.669.865 6.206 3.377 9.734 8.133 13.732 11.534 15.364 3.197 1.536 6.725 1.75 9.932.603 5.258-1.877 13.532-7.592 9.867-24.75-1.432-8.752-21.346-27.775-23.612-29.914l-2.192-2.07z" style="fill:#e0ba4f;fill-opacity:1;fill-rule:nonzero;stroke:none" transform="matrix(1.33333 0 0 1.33333 0 1122.52)"></path><path d="M215.118-426.944c5.592-1.998 11.943-7.52 8.707-22.669-1.39-8.487-23.084-28.974-23.084-28.974.002 0-7.985 28.748-4.79 36.734 5.058 14.642 13.576 16.907 19.167 14.91" style="fill:#80d636;fill-opacity:1;fill-rule:nonzero;stroke:none" transform="matrix(1.33333 0 0 1.33333 0 1122.52)"></path><path d="M211.178-417.894a6.61 6.61 0 0 0 6.602 6.605c3.64 0 6.602-2.963 6.602-6.605a6.61 6.61 0 0 0-6.602-6.601 6.61 6.61 0 0 0-6.602 6.601" style="fill:#e0ba4f;fill-opacity:1;fill-rule:nonzero;stroke:none" transform="matrix(1.33333 0 0 1.33333 0 1122.52)"></path><path d="M222.572-417.894a4.793 4.793 0 1 1-9.586 0 4.793 4.793 0 0 1 9.586 0" style="fill:#80d636;fill-opacity:1;fill-rule:nonzero;stroke:none" transform="matrix(1.33333 0 0 1.33333 0 1122.52)"></path><path d="M219.936-405.786c-.233 2.555-.874 10.322-.874 18.35 0 7.916.625 16.08 2.884 19.733 5.036 8.981 10.421 12.082 14.054 13.09 3.417.948 6.928.54 9.885-1.15 4.845-2.778 11.985-9.856 5.358-26.102-2.95-8.367-25.901-23.587-28.51-25.297l-2.522-1.65z" style="fill:#e0ba4f;fill-opacity:1;fill-rule:nonzero;stroke:none" transform="matrix(1.33333 0 0 1.33333 0 1122.52)"></path><path d="M244.986-357.337c5.153-2.95 10.431-9.5 4.58-23.846-2.863-8.113-27.825-24.463-27.825-24.463.002 0-2.799 29.709 1.751 37.007 7.557 13.52 16.34 14.251 21.494 11.302" style="fill:#80d636;fill-opacity:1;fill-rule:nonzero;stroke:none" transform="matrix(1.33333 0 0 1.33333 0 1122.52)"></path><path d="M248.036-355.396v.003c-3.586.643-5.978 4.08-5.338 7.662a6.55 6.55 0 0 0 2.727 4.254 6.55 6.55 0 0 0 4.935 1.08 6.56 6.56 0 0 0 4.254-2.72 6.56 6.56 0 0 0 1.084-4.939c-.642-3.585-4.079-5.976-7.662-5.34" style="fill:#e0ba4f;fill-opacity:1;fill-rule:nonzero;stroke:none" transform="matrix(1.33333 0 0 1.33333 0 1122.52)"></path><path d="M253.916-349.737a4.79 4.79 0 0 1-3.875 5.558 4.79 4.79 0 1 1-1.687-9.433 4.795 4.795 0 0 1 5.562 3.875" style="fill:#80d636;fill-opacity:1;fill-rule:nonzero;stroke:none" transform="matrix(1.33333 0 0 1.33333 0 1122.52)"></path><path d="M402.872-479.904c-2.262 2.138-22.139 21.127-23.618 29.973-.62 2.923-.901 5.52-.901 7.816 0 11.134 6.422 15.32 10.779 16.875 3.206 1.148 6.732.932 9.93-.603 3.407-1.634 8.177-5.637 11.56-15.418 3.294-8.233-3.925-34.808-4.762-37.812l-.8-2.895z" style="fill:#e0ba4f;fill-opacity:1;fill-rule:nonzero;stroke:none" transform="matrix(1.33333 0 0 1.33333 0 1122.52)" data-source="https://football-logos.cc"></path><path d="M389.74-426.944c-5.59-1.998-11.942-7.52-8.708-22.669 1.392-8.487 23.085-28.974 23.085-28.974s7.987 28.748 4.792 36.734c-5.06 14.642-13.577 16.907-19.17 14.91" style="fill:#80d636;fill-opacity:1;fill-rule:nonzero;stroke:none" transform="matrix(1.33333 0 0 1.33333 0 1122.52)"></path><path d="M380.475-417.894a6.613 6.613 0 0 0 6.604 6.605c3.639 0 6.603-2.963 6.603-6.605 0-3.64-2.964-6.601-6.603-6.601-3.64 0-6.604 2.962-6.604 6.601" style="fill:#e0ba4f;fill-opacity:1;fill-rule:nonzero;stroke:none" transform="matrix(1.33333 0 0 1.33333 0 1122.52)"></path><path d="M382.286-417.894a4.792 4.792 0 1 0 9.584.002 4.792 4.792 0 0 0-9.584-.002" style="fill:#80d636;fill-opacity:1;fill-rule:nonzero;stroke:none" transform="matrix(1.33333 0 0 1.33333 0 1122.52)"></path><path d="M382.124-407.162c-2.604 1.707-25.52 16.905-28.528 25.355-1.899 4.68-2.663 8.601-2.663 11.87 0 8.062 4.597 12.2 8.04 14.173 2.96 1.69 6.468 2.099 9.89 1.15 3.64-1.014 9.04-4.113 14.085-13.143 4.47-7.165 2.889-37.287 1.615-38.977l-1.02-1.358z" style="fill:#e0ba4f;fill-opacity:1;fill-rule:nonzero;stroke:none" transform="matrix(1.33333 0 0 1.33333 0 1122.52)"></path><path d="M359.872-357.337c-5.153-2.95-10.43-9.5-4.578-23.846 2.862-8.113 27.824-24.463 27.824-24.463s2.8 29.709-1.752 37.007c-7.555 13.52-16.339 14.251-21.494 11.302" style="fill:#80d636;fill-opacity:1;fill-rule:nonzero;stroke:none" transform="matrix(1.33333 0 0 1.33333 0 1122.52)"></path><path d="M351.888-354.31a6.57 6.57 0 0 0-2.727 4.254 6.58 6.58 0 0 0 1.086 4.939 6.57 6.57 0 0 0 4.254 2.722 6.55 6.55 0 0 0 4.932-1.083 6.53 6.53 0 0 0 2.726-4.253c.639-3.582-1.752-7.019-5.334-7.663a6.55 6.55 0 0 0-4.937 1.083" style="fill:#e0ba4f;fill-opacity:1;fill-rule:nonzero;stroke:none" transform="matrix(1.33333 0 0 1.33333 0 1122.52)"></path><path d="M350.944-349.737a4.79 4.79 0 0 0 3.874 5.558 4.79 4.79 0 0 0 5.56-3.87 4.796 4.796 0 0 0-3.875-5.563 4.793 4.793 0 0 0-5.559 3.875" style="fill:#80d636;fill-opacity:1;fill-rule:nonzero;stroke:none" transform="matrix(1.33333 0 0 1.33333 0 1122.52)"></path><path d="M301.126-348.738h9.28v-67.63s1.94-10.132 1.932-10.132c-.871.288-1.73.56-2.599.79-.662.179-1.351.316-2.058.44l-1.88 8.359-3.617-7.934a46 46 0 0 1-4.031-.212l2.973 8.993z" style="fill:#c6a34b;fill-opacity:1;fill-rule:nonzero;stroke:none" transform="matrix(1.33333 0 0 1.33333 0 1122.52)"></path><path d="M310.406-396.326c3.925-.714 8.723-1.115 6.675 3.58-.36.874-1.25 2.549-1.892 3.214-.982 1.031-2.174.41-3.264 1.066-1.555.94-.054 1.251 1.122 1.323 2.737.18 3.628-1.011 5.42-2.754 1.491-1.442 1.98-4.99 3.978-5.6 1.463-.443 4.167 1.016 4.634 2.57.36 1.176.179 1.488-.672 2.386-.64.668-1.485 1.595-2.233 2.075-1.114.734-2.21.267-3.423.712-.225 2.56 5.919-.01 6.892-.712 2.023-1.488 2.794-4.195 4.523-6.017.957-1-10.563-6.567-2.903-9.357 4.59 4.367 17.04 7.105 17.967-2.523-2.5.325-5.537 2.598-8.208 2.598-3.076 0-3.771-1.644-6.592-3.537-5.527-3.713-10.132-2.673-16.403-2.344-1.556.086-3.524.272-5.62.44l-9.281.151c-1.357-.137-2.59-.36-3.606-.754-2.44-.952-4.924-4.282-6.162-6.638-.627-1.206-.361-2.352-.548-3.553-.473-3.01-2.26-1.78-3.893-.55-1.961 1.467-4.045 3.2-6.37 3.948-1.9.619-5.017.958-4.377 3.894.778 3.547 5.878 2.164 7.984 3.687 1.655 1.2 2.603 3.448 3.682 5.166.784 1.228 1.314 1.45.668 2.632-.385.706-1.3 1.305-1.756 2.038-1.908 3.069-2.308 7.558-5.748 9.316.446 1.132 2.668.654 3.45.133 1.17-.773 1.19-2.661 2.103-3.75 1.332-1.621 3.244-2.598 4.517-4.313.812-1.087 1.262-2.49 2.145-3.485-.231 2.8.114 5.52-.904 8.08-.286.703-.53 2.15-1.043 2.684-.722.729-1.97.56-2.562 1.586 1.704 1.572 3.955-.215 4.802-1.723.98-1.737 1.828-4.304 3.8-5.029 1.157-.422 2.483-.413 3.818-.317z" style="fill:#80d636;fill-opacity:1;fill-rule:nonzero;stroke:none" transform="matrix(1.33333 0 0 1.33333 0 1122.52)"></path><path d="M310.419-453.633v-47.581h-9.578v47.58h-44.733v9.572h99.032v-9.571z" style="fill:#c6a34b;fill-opacity:1;fill-rule:nonzero;stroke:none" transform="matrix(1.33333 0 0 1.33333 0 1122.52)"></path><path d="M302.963-499.884c-4.258-1.065-21.562 10.649-21.562 10.649s-14.333 21.458-22.361 31.7c-1.703 2.173 1.463 14.219 3.993 16.748s8.65 11.31 11.447 14.108 8.253.267 8.253.267l14.375 11.714 17.57-2.213 34.339-30.532s3.727-2.661 2.394-8.25c-1.33-5.591-11.713-15.972-11.713-15.972s.139-11.579-2.925-14.643-21.565-.266-23.427-2.129c-1.865-1.862-6.123-10.38-10.383-11.447" style="fill:#80d636;fill-opacity:1;fill-rule:nonzero;stroke:none" transform="matrix(1.33333 0 0 1.33333 0 1122.52)" data-source="https://football-logos.cc"></path><!-- source: https://football-logos.cc --></svg>