<svg xmlns="http://www.w3.org/2000/svg" xml:space="preserve" viewBox="21.68 22 213.65 213.65"><!-- Source: https://football-logos.cc --><path d="M963.305 171.789c-437.051 0-792.852 356.129-792.852 793.524 0 437.037 355.801 793.137 792.852 793.137 436.635 0 792.455-356.1 792.455-793.137 0-437.395-355.82-793.524-792.455-793.524" style="fill:#fff;fill-opacity:1;fill-rule:evenodd;stroke:none" transform="matrix(.13333 0 0 -.13333 0 257.333)" data-source="https://football-logos.cc"></path><path d="M442.418 959.605s-4.633 15.625-15.367 24.786c-6.141 5.242-22.149 15.809-29.09 19.289-6.938 3.47-19.184-.68-28.109-.68-8.922 0-11.219 3.21-12.211 5.19-.989 1.98-6.196.84-9.875 7.53-2.461 4.48-7.696 11.38 1.672 21.76 8.105 8.97 10.71 9.03 14.648 24.25 3.98 15.37 14.879 22.31 28.758 26.77 9.406 3.03 22.804 5.46 29.746 1.98 7.629-3.81 10.906-7.43 20.82-5.95 15.879 2.39 21.817-2.47 75.36-19.83 53.543-17.34 85.269-17.34 109.562-17.34 55.523 0 65.438 11.4 88.242 8.92 20.914-2.27 43.629-22.81 43.629-22.81l5.949-9.42c5.953-9.42 3.969-65.437 3.969-65.437z" style="fill:#231f20;fill-opacity:1;fill-rule:evenodd;stroke:none" transform="matrix(.13333 0 0 -.13333 0 257.333)"></path><path d="M360.148 1097.71s1.043-9.42 4.016-17.74c3.344-9.37 3.68-12.38 12.379-16.39 10.215-4.72 18.738-4.69 28.445-3.35s10.039 4.02 10.039 8.03c0 4.02-5.355 7.7-11.711 7.03-6.359-.67-9.707-3.34-22.418 4.68-10.925 6.91-16.734 16.07-20.75 17.74" style="fill:#fff;fill-opacity:1;fill-rule:evenodd;stroke:none" transform="matrix(.13333 0 0 -.13333 0 257.333)"></path><path d="M359.148 1097.6c.043-.39 1.094-9.63 4.071-17.96l.832-2.37c2.664-7.62 3.765-10.77 12.074-14.6 10.285-4.75 19.031-4.81 29-3.44 10.148 1.4 10.906 4.49 10.906 9.03 0 1.8-.886 3.59-2.496 5.04-2.535 2.28-6.394 3.4-10.324 2.99l-3.113-.46c-4.528-.79-8.442-1.47-18.664 4.99-6.125 3.87-10.563 8.41-14.129 12.05-2.711 2.77-4.856 4.97-6.774 5.77l-1.57.66zm17.817-33.11c-7.535 3.47-8.414 5.99-11.02 13.45l-.836 2.38c-2.074 5.79-3.191 12.16-3.671 15.37 1.253-.99 2.71-2.46 4.433-4.23 3.445-3.52 8.168-8.34 14.488-12.33 10.875-6.88 15.145-6.14 20.082-5.29l2.981.45c3.316.35 6.676-.6 8.766-2.49 1.187-1.06 1.839-2.32 1.839-3.54 0-3.47 0-5.77-9.175-7.04-9.895-1.36-18.012-1.29-27.887 3.27" style="fill:#231f20;fill-opacity:1;fill-rule:evenodd;stroke:none" transform="matrix(.13333 0 0 -.13333 0 257.333)"></path><path d="M379.555 1107.75c0-.27.019-6.56 1.715-12.65 1.675-6.05 4.628-11.98 4.753-12.23l.375-.76 17.543 5.35-.812 1.13c-.07.11-1.852 2.54-7.633 6.29-5.504 3.55-14.09 13.43-14.176 13.53l-1.765 2.03zm3.648-12.11c-.957 3.43-1.344 6.97-1.515 9.34 2.894-3.17 8.523-9.08 12.718-11.79 3.199-2.08 5.071-3.7 6.086-4.69-2.332-.71-11.719-3.57-13.043-3.97-.828 1.76-2.949 6.44-4.246 11.11M1218.17 782.145c89.68 0 127.17 43.503 150.59 81.652 21.5 35.019 24.09 48.855 24.09 226.213 0 152.6-2.34 157.95 18.29 167.54 19 8.84 30.9 10.83 30.9 10.83v3.67h-140.88v-4.01s14.95 1.79 24.76-10.71c9.81-12.48 7.7-32.12 7.7-158.62 0-182.71 4.68-200.776-9.71-226.882-24.85-45.086-54.87-61.578-105.41-61.906h-6.02c-50.53.328-80.55 16.82-105.41 61.906-14.39 26.106-9.71 44.172-9.71 226.882 0 126.5-2.12 146.14 7.7 158.62 9.82 12.5 24.76 10.71 24.76 10.71v4.01H988.941v-3.67s11.899-1.99 30.899-10.83c20.63-9.59 18.29-14.94 18.29-167.54 0-177.358 2.59-191.194 24.09-226.213 23.43-38.149 60.91-81.652 150.59-81.652z" style="fill:#231f20;fill-opacity:1;fill-rule:evenodd;stroke:none" transform="matrix(.13333 0 0 -.13333 0 257.333)"></path><path d="M1369.12 750.375c43.81-148.27 59.87-266.066 6.33-335.668-74.44-96.773-184.72-80.316-238.27-33.461-31.34 27.418-45.5 21.414-58.89 5.352s-8.03-60.235-8.03-60.235h-4.02l-40.16 372.117 5.36 1.34s4.65-31.402 29.45-109.761c33.46-105.75 95.03-244.954 203.46-214.172 104.36 29.636 92.36 165.98 84.33 222.203-14.51 101.574-178.03 603.69-214.17 764.32-15.56 69.15 25.43 155.28 104.41 176.02 80.06 21.03 117.28-16.63 140.54-25.43 24.77-9.37 23.43 10.04 23.43 19.41s-4.68 27.44-4.68 27.44l2.67 1.34 76.97-263.03-2.67-1.34s-23.43 66.26-58.24 122.48c-34.8 56.22-98.63 126.88-179.36 91.69-52.2-22.76-54.79-89.77-46.85-139.88 28.11-177.36 149.2-521.934 178.39-620.735" style="fill:#231f20;fill-opacity:1;fill-rule:evenodd;stroke:none" transform="matrix(.13333 0 0 -.13333 0 257.333)"></path><path d="m1303.67 598.945-189.24.485v12.043l24.09 4.019c15.03.914 21.42 14.336 21.42 38.817V963.52c0 26.773-37.48 22.75-37.48 22.75l-1.34 16.92h196.69c45.34 0 80.36-2.46 105.04-7.401 24.66-4.93 46.99-12.973 66.97-24.113 31.77-17.906 56.34-41.762 73.73-71.531 17.38-29.79 26.07-63.036 26.07-99.758 0-36.918-8.74-70.309-26.23-100.18-17.48-29.883-42.2-53.68-74.17-71.391-19.19-10.601-40.22-18.234-63.09-22.886-22.88-4.66-57.09-6.985-102.64-6.985zm-94.2 379.301V620.848h139.21c39.3 0 70.94 12.043 101.73 29.445 29.6 16.73 82.99 53.547 82.99 153.937 0 99.051-62.91 139.208-99.06 155.274-33.91 15.074-52.11 18.742-91.02 18.742z" style="fill:#231f20;fill-opacity:1;fill-rule:evenodd;stroke:none" transform="matrix(.13333 0 0 -.13333 0 257.333)"></path><path d="M804.105 637.133c-5.32.762-9.816-4.016-5.355-5.356s5.355-3.121 10.266-3.121c4.906 0 6.242-1.785 10.707-2.238 4.461-.441 11.152 1.344 12.937-1.332s7.145-4.016 8.477-1.785c1.34 2.23 4.91 1.336 8.035 3.117 3.121 1.785 5.801 8.484 4.016 10.715s-7.141 1.785-10.711.89c-3.571-.89-6.247 1.786-10.707 1.34s-8.477-3.57-11.153-1.34c-2.679 2.231-8.929 0-10.715-.89-1.781-.895-2.675-.442-5.797 0M801.875 625.086c-5.352-.484-11.156-1.34-16.059-1.34-4.914 0-10.265-.891-14.281-.891-4.019 0-5.801-1.339-1.789-4.019 4.02-2.676 6.699-1.336 12.496-.445 5.801.894 7.137-2.676 10.707-.446 3.571 2.235 8.035 1.34 9.817 2.676 1.785 1.344 4.015 4.914-.891 4.465M846.047 615.719c-3.125 2.226-16.508 1.781-24.098 0-7.582-1.789-9.816-7.145-12.047-6.696-2.226.446.004 3.122-10.257 3.122-10.266 0-13.387-3.122-18.293-2.676-4.911.445-12.942-1.785-12.497-4.02.446-2.23 2.68-4.015 12.047-2.672 9.368 1.336 13.387 1.786 22.309 1.786s13.387.445 16.062 2.23c2.676 1.781 12.946 4.461 19.188 3.57 6.246-.894 13.832.891 7.586 5.356M823.738 599.652c-6.261 0-12.941-2.23-15.617-4.91-2.676-2.679-1.785-5.351 4.91-4.012 6.692 1.333 11.598 3.567 16.957 3.118 5.352-.442 9.367.894 6.688 2.679-2.676 1.786-6.688 3.125-12.938 3.125M795.18 589.391c-3.996-.403-8.477-1.34-12.492.894-4.016 2.231-12.043-.894-13.833-3.57-1.785-2.68-1.785-5.356 3.571-4.02 5.351 1.34 6.691-.89 15.617-.89 8.922 0 15.168 2.23 14.723 5.355-.446 3.125-3.121 2.672-7.586 2.231M821.063 580.023c-6.645.825-15.172.891-16.063-1.785-.895-2.675-.895-8.484 4.457-8.484 5.359 0 9.816 4.465 13.836 3.125 4.016-1.336 8.027-5.801 13.383-3.125 5.355 2.68 8.926 4.465 13.832 4.465 4.91 0 7.14 4.91 0 5.355-7.137.449-11.602 1.34-16.508 1.785-4.91.446-9.371-1.785-12.937-1.336M644.371 652.305c-2.996.883-2.68-2.68-5.355-1.789-2.676.894-10.707 4.019-10.262 0 .445-4.016 4.016-5.797 8.922-5.797 4.91 0 18.742 4.011 6.695 7.586M598.414 651.41c-4.449.371-6.246-3.125-8.48-5.351-2.231-2.235 2.234-4.02 6.25-2.235 4.011 1.785 7.582 7.141 2.23 7.586M647.941 631.777c-7.128.375-13.832-3.574-16.066 0-2.23 3.571-5.797 3.567-7.582 1.786-1.789-1.786-9.816-1.786-12.496-4.465-2.676-2.68 0-3.567 2.23-6.243 2.231-2.675 3.571-5.8-3.57-5.8-7.137 0-14.723-1.34-21.859-.895-7.141.445-9.817-.89-5.801-4.906 4.016-4.02 7.582-6.691 13.387-3.57 5.796 3.125 15.171 4.019 20.074 3.57 4.91-.445 11.601 1.781 10.711 4.461-.891 2.676-9.817 9.371-3.125 7.586 6.695-1.785 9.816-.446 11.152-4.91 1.344-4.461 8.481-7.582 13.391-3.571 4.91 4.016 8.031 16.512-.446 16.957M614.922 602.777c-5.731.879-10.707-1.789-12.942 0-2.23 1.786-12.046.891-13.382-2.23-1.34-3.129-4.016-6.25 8.472-6.25 12.496 0 18.743-1.781 23.653.894 4.906 2.68 9.371-.449 9.371 3.571 0 4.015-.895 6.242-4.91 6.242s-4.461-3.125-10.262-2.227M639.461 605.898c-2.957-1.265-5.801-4.91-.445-5.804 5.355-.891 9.371-1.781 12.047 1.34 2.679 3.129 1.335 6.25-4.016 6.25-5.356 0-4.461-.45-7.586-1.786M644.816 596.527c-4.457 0-6.246-1.336-8.925-2.23-2.676-.891-.895-3.121 5.355-3.121 6.246 0 14.277 5.351 3.57 5.351M583.688 587.16c-5.817 0-13.387.445-17.848-2.234-4.461-2.676-5.801-5.801 0-6.246s9.812-2.676 11.156-.446c1.336 2.231 4.016 3.567 6.246 1.782 2.231-1.782 8.926 1.343 7.137 3.574-1.781 2.23-2.231 3.57-6.691 3.57M649.723 585.375c-5.297.883-16.508-3.57-25.43-3.125-8.926.445-12.051-6.246-12.938-8.477-.898-2.234 5.352-7.14.887-7.14-4.461 0-25.429 0-32.57.894-7.137.895-17.402-4.015-17.402-6.691 0-2.68 2.679-1.785 14.726-2.68 12.043-.894 35.246-4.465 39.711-.449 4.461 4.02 3.566 9.82 7.137 9.82s9.816 3.567 10.265-2.679c.442-6.246-2.234-12.938 7.582-11.157 9.817 1.786 12.493 2.239 10.707 8.036-1.781 5.8-8.921 3.121-6.242 7.136 2.676 4.016 11.602 15.172 3.567 16.512M375.316 651.855c-4.964-.453-12.937-4.464-9.812-5.796 3.117-1.34 8.922-3.125 11.601.441 2.676 3.57 3.122 5.805-1.789 5.355M373.98 622.855c-4.125-2.472-9.371-7.14-6.25-7.14 3.125 0 5.801-.445 12.051.89 6.246 1.34 8.473 4.465 3.121 6.696-5.351 2.23-6.695.89-8.922-.446M435.105 646.059c-4.062.621-10.261.441-9.367-3.571.891-4.019 5.356-4.465 9.367-4.465 4.02 0 5.805 7.141 0 8.036M419.047 628.203c-8.082 0-16.512-1.785-16.512-4.012s4.461-3.57 14.281-4.461c9.813-.894 17.399 2.68 12.047 4.907-5.355 2.23-6.25 3.566-9.816 3.566M390.934 594.297c-4.016 0-8.032-.449-11.153-4.465-3.125-4.012-8.926-4.457-12.496-4.906-3.566-.449-9.816.894-9.367-4.012.445-4.91 5.352-8.926 9.367-8.035 4.016.894 8.922 5.801 11.153 3.57 2.234-2.23 7.144-4.461 7.144 0 0 4.465.445 2.68 5.801.446 5.355-2.231 14.277-.446 9.367-4.461-4.906-4.012-12.496-2.68-17.848-2.231-5.351.445-21.418-2.234-24.539-6.25-3.125-4.015-6.246-12.043 5.801-12.043 12.043 0 17.844.891 19.633 4.91 1.785 4.016 12.941 6.243 20.973 6.243 8.027 0 8.027 2.234 16.058 1.343 8.035-.894 12.496 0 15.617 1.336 3.125 1.336 10.707-1.785 6.692 4.012-4.012 5.801-10.262 4.465-17.399 3.57-7.14-.89-14.726-.445-9.816 3.125 4.906 3.567 8.476 4.016 14.277 1.785s7.141-3.57 11.156-1.785c4.012 1.785 8.926 3.125 8.032 7.586s-8.926 2.676-8.477 6.25c.445 3.563 7.582 10.703-3.125 9.367-10.707-1.339-22.758-3.125-28.113-8.476-5.348-5.356-6.246-7.586-12.934-4.91-6.695 2.675-7.14 4.464-4.914 4.91 2.235.441 4.91 3.121-.89 3.121M377.551 608.129c-3.973-.75-10.266 4.016-9.371-.895.89-4.91 0-7.582 6.691-7.14 6.695.453 14.277-.442 14.727 3.125.445 3.57-4.91 6.25-12.047 4.91" style="fill:#b3cce3;fill-opacity:1;fill-rule:evenodd;stroke:none" transform="matrix(.13333 0 0 -.13333 0 257.333)"></path><path d="M956.703 524.246s-33.465-1.785-56.223.891c-22.753 2.676-32.125 1.34-37.476 5.801-5.356 4.46-7.141 8.48-6.695 12.046.449 3.567-7.586 1.34-12.047.45-4.457-.895-13.387-.45-15.617 1.336-2.231 1.781.445 4.464 7.14 6.25 6.692 1.781 13.832 1.335 11.156 8.031-2.679 6.691-1.785 9.371-9.82 7.137-8.031-2.235-16.058-1.34-20.523-1.34-4.461 0-4.461-6.688-16.953-9.813-12.497-3.125-28.559-3.125-26.774-6.25 1.789-3.117 5.801-10.262-1.336-9.812-7.14.445-102.625 9.812-122.703 9.812s-30.34-1.34-49.973 1.336c-19.632 2.68-30.343 2.234-47.296.899-16.958-1.344-86.563 4.46-98.165 5.351-11.601.891-21.414 6.692-37.925 1.785-16.504-4.91-10.703-10.711-23.2-11.152-12.492-.453-16.957 4.906-26.769.887-9.816-4.012-12.492-9.817-16.957-9.817s-37.926-37.922-20.078-58.449c17.844-20.523 94.144-105.746 151.254-146.348 57.117-40.605 63.804-41.5 63.804-41.5s1.789 2.68 10.266 8.481 18.293 5.355 27.219 1.781c8.922-3.566 20.078.445 33.465-.441 13.382-.895 32.121 0 42.382 2.675 10.27 2.676 16.512 9.372 16.512-.449 0-9.808-.441-17.844-7.141-15.168-6.687 2.68-4.015 5.801-26.32 5.801-22.312 0-42.84-.894-41.941-5.355.886-4.457 14.722-5.352 17.844-9.372 3.125-4.011 7.14-6.687 4.91-13.828-2.231-7.14-5.356-13.832-5.356-13.832l21.863-12.941s2.68 5.801 5.356 13.387c2.676 7.582 0 11.601 4.461 11.601s11.156-2.676 14.723 0c3.574 2.676 8.476 4.016 15.171-1.34 6.692-5.355 15.172-12.941 9.372-22.304-5.801-9.371-10.262-17.407-10.262-17.407l83.883-25.878s2.675 6.695 6.246 13.835c3.566 7.137 5.8 10.707 2.23 15.168-3.566 4.465-.445 6.696 3.125 6.696 3.567 0 12.938-.899 16.059-6.25 3.125-5.352 4.465-8.922 11.605-7.582 7.137 1.336 10.707 3.121 24.985 1.336 14.277-1.786 24.539-.45 33.91-.45s16.511-1.336 8.922-3.121c-7.586-1.785-17.399-4.906-25.43-5.797-8.031-.898-13.832-10.707-9.367-12.046 4.457-1.344 11.152 0 17.844 4.011 6.695 4.016 18.292 7.586 24.097 3.571 5.801-4.016 17.399-4.461 32.57-4.461 15.172 0 32.571-2.235 40.157-.45 7.586 1.782 10.261 2.235 10.261 2.235l.895 54.879s-19.188-2.231-24.098.898c-4.906 3.117-6.246 19.625 4.465 20.52a760 760 0 0 0 18.738 1.336zM777.777 1058.33c-4.453.22-6.691-1.33-5.351-3.56 1.34-2.24 6.246-6.26 8.926-2.68 2.675 3.56 5.351 5.8-3.575 6.24M622.504 1115.44c-8.703 3.58-21.863-2.23-24.535-4.01-2.68-1.79-5.356-6.25 2.226-5.36 7.586.9 16.957 1.34 24.098-.44 7.137-1.79 15.617 2.68-1.789 9.81M570.301 1101.17c-4.461 0-8.473-6.69-3.121-8.92 5.355-2.24 12.047-1.35 10.707 2.67-1.336 4.02-3.121 6.25-7.586 6.25M567.18 1079.3c-6.582-1.79-8.926-3.56-4.016-6.69 4.906-3.12 9.816-.45 12.047 4.02 2.23 4.46-3.121 4.01-8.031 2.67M536.395 1100.27c-4.465 0-13.387-2.67-24.098-1.78s-13.828 0-25.879 0c-12.047 0-38.82 1.34-36.59-2.23 2.235-3.57 8.035-7.58 13.836-6.25 5.797 1.34 8.477 1.79 13.383-.44s14.723-4.47 19.633-.45c4.906 4.02 7.59 4.91 13.832 1.34 6.246-3.57 16.961-2.23 22.312 1.34s7.586 8.47 3.571 8.47M541.297 1116.78c-4.442.41-17.844-.44-16.504-5.35 1.336-4.91 5.352-8.03 13.383-4.91 8.035 3.12 12.941 9.37 3.121 10.26M511.852 1114.56c-4.805 2.4-15.172.44-20.524-.9-5.355-1.34-12.492-5.8-17.402-4.02-4.906 1.79-22.309 3.57-25.879.9-3.57-2.68-7.586-4.91 2.68-4.91 10.257 0 14.273-2.23 20.968-2.23 6.692 0 15.168.89 23.203 3.57 8.032 2.67 16.954-.45 18.293.89 1.336 1.34 2.231 4.91-1.339 6.7M599.305 1138.2c-9.36.63-23.653 0-36.141-1.34-12.496-1.34-27.664-4.02-31.684-1.78-4.007 2.23-13.824-2.24-23.64-2.24s-38.379.9-46.406-.44c-8.036-1.34-30.789-1.34-29.895-6.25.891-4.9 1.336-6.24 9.816-4.46 8.473 1.79 24.54 3.57 36.141 2.24 11.598-1.35 19.184-2.24 26.324 0 7.141 2.22 15.618.44 29.004.44s26.774 6.7 39.266 6.25 29-3.13 30.785 1.33c1.785 4.47 3.125 5.8-3.57 6.25M578.332 1156.94c-8.082 0-27.215.9-27.215-3.57 0-4.46 4.461-9.82 9.813-8.92 5.355.89 11.605 4.01 17.402 4.91 5.805.89 11.602 7.58 0 7.58M576.996 1178.36c-6.344 1.95-17.848-1.34-32.57-1.79-14.727-.44-31.684-.44-25.883-4.9 5.801-4.47 9.816-4.91 16.062-4.02 6.25.89 9.372 3.57 17.852 1.33 8.473-2.22 10.707.9 13.828 1.34 3.125.45 10.262-3.12 12.047-1.34 1.785 1.79 4.465 7.59-1.336 9.38M510.066 1148.46c-1.418 3.31-24.093-.89-42.386.45s-34.805.45-40.602 2.68c-5.805 2.23-22.754 2.23-31.234 0-8.477-2.23-30.789-3.57-48.192-4.46-17.398-.9-24.988 0-14.277-5.36 10.707-5.35 16.512-8.03 21.863-3.57 5.356 4.46 7.586 4.01 22.758 4.01 15.168 0 21.414-.88 28.109-.88 6.692 0 12.493 4.91 21.415 2.67 8.925-2.23 15.175-2.23 29.449-1.79 14.281.45 20.527 0 27.219-1.33 6.695-1.34 27.218 4.46 25.878 7.58M321.328 1114.11c-7.14 0-18.738-.45-26.773.45-8.032.88-27.66 2.22-42.832.44-15.172-1.79-18.743-1.79-31.235-.44-12.492 1.33-20.968-2.24-15.613-4.47 5.352-2.23 16.957-1.34 29-3.12 12.047-1.79 26.328-5.36 35.246-3.57 8.93 1.78 10.711 5.8 20.082 4.91 9.371-.9 31.238-3.13 34.805 0 3.566 3.12 6.246 5.8-2.68 5.8M283.852 1094.92c-3.008.85-2.68-1.34-8.036-1.34-5.351 0-8.921 1.79-12.937.45s-6.246-3.13-14.277-2.68c-8.036.45-11.602 3.13-18.739.45-7.14-2.68-12.496-5.8-4.465-6.25 8.028-.45 20.524 2.24 25.879 1.34 5.356-.89 8.926 1.79 16.508-1.34 7.586-3.12 17.403-3.57 20.973-1.78 3.566 1.78 9.367 7.13-4.906 11.15M310.621 1062.8c-6.644.8-20.973 1.78-26.324.44-5.356-1.34-9.817-.89-15.617 1.78-5.801 2.68-18.742 1.35-26.328.89-7.586-.43-11.602 1.34-20.079.9s-17.398-3.57-13.386-6.69c4.019-3.12 9.82-4.91 15.176-2.68s7.136 1.79 10.261 0c3.121-1.79 8.922-.89 12.492.45s4.461.89 12.047-.45c7.586-1.33 17.848-3.12 29-1.33 11.157 1.78 37.481 4.9 22.758 6.69M268.68 1038.25c-12.035.75-39.262-2.67-47.301-.44-8.027 2.23-8.473-.9-6.242-2.68 2.23-1.79 8.476-.89 12.937-3.57s8.035-4.46 19.633-3.12c11.602 1.34 23.199 4.46 29.895 4.9 6.695.46 12.046-2.22 15.171-4.9 3.122-2.68 12.493.89 14.723 4.46s-7.137 7.14-18.738 5.8c-11.602-1.34-12.942-.89-20.078-.45M479.277 1182.82c-4.035.17-2.675-3.12-13.828-3.57-11.156-.45-32.574-.89-40.605-3.12-8.028-2.24-10.262-5.81-1.785-6.25 8.48-.44 8.925 2.68 26.328 2.23 17.398-.44 26.769-4.91 31.23-4.91 4.465 0 9.371 15.18-1.34 15.62M337.84 1165.42c-5.356 0-6.695-2.68-24.543-4.02-17.844-1.33-23.649-2.22-29.895-1.33-6.246.88-11.597 4.02-21.414 0-9.816-4.02-16.511-2.23-27.664-1.34-11.156.89-22.758-.45-29.898 2.67-7.137 3.13-12.047 4.91-12.047 4.91l-6.691-18.29s3.121-1.34 10.261-1.34c7.141 0 27.219-1.34 40.16 0 12.938 1.34 22.754 5.36 27.664 4.46 4.907-.89 9.368-.89 21.415.9 12.046 1.78 34.8 5.35 42.386 3.12s16.957-2.23 18.297 3.57-5.355 6.69-8.031 6.69M405.211 1177.47c-5.348.21-11.602-3.13-14.723-1.34-3.121 1.78-9.816 6.24-17.847 4.46-8.032-1.79-14.278-.89-20.524-.45-6.246.45-13.387 4.01-23.648 3.57-10.262-.44-9.371-3.12-28.559-3.57-19.187-.44-35.246 0-45.512 0-10.261 0-25.875 0-29.89 2.23-4.02 2.24-8.926 0-12.496 0-3.567 0-13.832 1.34-13.832 1.34l-3.571-11.15s8.036 1.33 17.403 1.33 18.738-3.12 23.648-2.67c4.906.45 15.617 3.12 21.863 1.34 6.25-1.79 18.293-3.12 24.985-1.34 6.695 1.78 17.851-.9 22.758 0 4.91.89 9.812 4.91 20.527 3.12 10.703-1.78 20.078-4.02 35.691-3.12 15.621.89 27.668-3.12 35.7-1.34 8.027 1.79 18.738 7.14 8.027 7.59M203.98 1200.22s4.465 1.34 17.852 2.68c13.383 1.34 32.121 2.23 39.262.89s11.597 1.34 17.847 0c6.247-1.34 11.602-6.25 3.125-9.37s-13.386-4.46-17.847-1.78c-4.465 2.67-7.141 5.35-13.832 4.01s-17.407-2.23-22.758-1.34c-5.356.89-10.262.89-18.293-1.78s-11.156-2.23-11.156-2.23z" style="fill:#b3cce3;fill-opacity:1;fill-rule:evenodd;stroke:none" transform="matrix(.13333 0 0 -.13333 0 257.333)"></path><path d="M565.395 1202.9c-4.446-.41-11.602-2.68-28.555-2.24-16.957.45-29 .9-29 4.02s11.152 5.8 18.734 7.14c7.586 1.34 13.836.89 16.953 4.47 3.129 3.56 7.59 3.12 10.266 1.78s8.035 1.34 6.246 5.36c-1.785 4.01-12.047 6.68-28.109 6.68s-78.977-4.46-89.684-4.01-39.711-3.12-52.648-1.78c-12.942 1.33-60.684 2.23-69.61 0-8.922-2.23-19.183-5.36-33.906-3.13-14.727 2.24-32.574 1.34-47.297 0s-20.078-3.56-14.277-6.24 12.043-4.02 22.754-1.34c10.707 2.68 24.543 4.46 35.246 0 10.711-4.47 19.187-6.25 41.941-4.02 22.762 2.23 40.606 5.8 60.242 2.23 19.633-3.57 49.075-4.91 62.02-6.69 12.934-1.79 19.184-4.47 2.676-5.36-16.512-.89-29.008-1.78-37.035-.44-8.028 1.33-15.168-2.23-36.145-1.79-20.969.45-28.105-.44-24.984-3.57 3.121-3.11 13.386-4.9 49.972-4.9 36.59 0 84.332-.45 88.793 1.79 4.461 2.22 4.461 10.25 7.137 10.25 2.68 0 5.359-5.8 12.5-5.8 7.133 0 19.629-2.23 37.922-1.34 18.293.9 25.433-.44 25.433 4.47 0 4.9-2.679 4.9-7.585 4.46M542.191 1245.29c-4.382.82-12.492-.9-18.296.89-5.797 1.78-23.196 3.12-36.582 1.33-13.387-1.78-19.629-3.56-16.063 0 3.566 3.58 10.703 10.28 4.461 10.28-6.25 0-14.277-3.13-41.051-3.58-26.769-.45-49.523 3.12-58.453 7.14-8.922 4.02-34.355 4.02-53.543 3.56-19.18-.44-43.277-1.33-58.891-.44-15.621.9-26.328-1.79-28.558-4.9-2.235-3.13 2.23-4.91 10.262-4.91s15.171 2.67 20.972.45c5.797-2.24 8.031-4.91 19.188-2.68 11.152 2.23 22.754 4.9 46.847 3.57 24.094-1.34 37.926-.9 37.032-4.02s.449-5.8-29-5.35c-29.45.44-60.235 2.23-77.637-1.34s-16.063-5.36-23.649-6.25c-7.585-.9-17.851-4.02-11.156-7.14 6.692-3.12 16.957-2.23 38.375-1.34 21.414.89 38.817 5.8 51.758 4.02 12.938-1.78 17.844-1.34 30.789 2.23 12.934 3.57 20.52 2.23 42.387 1.78 21.859-.45 39.262-3.56 53.094-4.9 13.836-1.35 17.847-2.68 36.14 1.34 18.293 4.01 20.969 6.68 33.91 3.56 12.946-3.12 23.203-4.9 27.664-.45 4.465 4.47 7.141 5.81 0 7.15M535.945 1269.38c-10.101-2.02-20.523-6.25-25.433-4.91-4.907 1.34-20.078 5.36-20.973-1.34-.887-6.69 6.25-8.02 15.172-8.02 8.926 0 11.602 0 19.633-2.24 8.031-2.23 12.941-1.78 23.203 1.79s12.051 9.37 10.262 12.49c-1.786 3.12-17.399 3.12-21.864 2.23M242.352 1296.15s3.125-4.01 8.925-5.8c5.801-1.78 20.969-2.23 39.711-3.12 18.739-.89 30.34-.45 37.035-3.57 6.692-3.12 18.739-4.02 32.125-.9 13.383 3.13 14.723 4.92 10.707 10.27-4.015 5.35-7.585 2.67-11.601 1.34-4.016-1.34-15.617-1.34-30.34 6.69-14.726 8.03-35.695 7.14-43.277 8.48-7.586 1.34-22.313 8.92-9.371 9.82 12.937.89 36.14 1.78 44.617 1.33 8.476-.44 17.847-9.81 24.094-8.48 6.246 1.34 13.832 7.59 1.785 14.29-12.047 6.69-33.91 7.13-49.082 4.01s-27.215-5.8-33.016 0c-5.801 5.79-7.586 4.46-7.586 4.46s20.078 38.37 41.496 69.6c21.414 31.24 34.356 40.16 34.356 40.16s11.597-2.68 18.738-2.68 8.48-.89 20.531-1.78c12.043-.89 19.625-2.68 23.645 1.78 4.015 4.47 2.676 6.7-7.59 8.93-10.258 2.23-26.324.45-37.031.9-10.707.44-11.598 3.12-11.598 3.12l9.371 8.47s4.016-.89 9.367-.44c5.356.44 8.477.45 11.153-1.79 2.683-2.23 9.371-4.91 12.492-.89 3.129 4.02 3.129 5.35-1.781 8.03s-9.372 1.79-12.497 1.79c-3.121 0-12.492 1.33-12.492 1.33s58.899 73.63 97.715 103.07c38.817 29.45 162.86 121.81 343.121 162.87 73.832 16.81 161.074 13.82 161.074 13.82l-.445-370.33s-169.109-58.89-266.375-70.95c-97.269-12.04-115.562-12.04-129.398-18.29-13.828-6.24-26.325-11.15-42.387-10.71-16.059.45-18.293-2.23-19.633-5.8s-23.199-10.27-35.691-11.15c-12.496-.9-55.774 2.23-67.824 3.12-12.047.89-25.879 8.03-36.141 8.03s-21.859-.89-27.664-.89c-5.797 0-13.383 4.46-22.754 5.35-9.371.9-24.984-2.68-40.602.45-15.621 3.12-32.129 3.12-32.129 3.12z" style="fill:#b3cce3;fill-opacity:1;fill-rule:evenodd;stroke:none" transform="matrix(.13333 0 0 -.13333 0 257.333)"></path><path d="M555.578 1349.69c-10.691-.76-19.187.45-16.062-4.9 3.125-5.36 14.726-8.48 21.863-6.7 7.137 1.79 11.601 3.57 19.633 3.57 8.027 0 9.816 1.34 8.476 4.47-1.34 3.12-11.156 2.23-18.742 2.67-7.582.45-8.918 1.34-15.168.89M416.813 1305.07c-4.59-3.06-7.141-4.46 0-7.13 7.14-2.68 13.382-2.24 21.867-.45 8.472 1.78 23.199 3.12 39.261 2.67 16.063-.43 27.664.45 42.387 1.35 14.727.89 32.129 2.67 37.926 7.13 5.801 4.47.894 5.8-7.141 4.91-8.027-.89-41.047-4.46-50.863-2.67-9.816 1.78-26.324-2.68-39.711-5.36s-24.543-.89-30.785.44c-6.25 1.35-11.602 0-12.941-.89M463.664 1280.54c-10.191-1.28-32.57 2.22-29.898-3.12 2.679-5.37 4.914-4.47 16.957-4.47 12.047 0 29.894.89 33.914 2.23 4.015 1.34 9.367.89 9.367 3.57s-4.465 4.91-12.492 4.46c-8.032-.45-14.282-2.23-17.848-2.67M514.973 1288.57c2.879-2.16 11.601-2.23 19.632-1.34 8.036.89 16.063 2.23 20.973 6.69 4.906 4.46 6.25 7.14-6.695 4.02-12.938-3.13-22.754-4.47-27.664-4.91-4.906-.45-8.028-3.13-6.246-4.46M587.258 318.551c-2.852.207-8.926-3.567-.445-7.133 8.476-3.574 7.585-4.918 16.953-1.789 9.371 3.121 17.402 3.121 23.648 2.672 6.246-.442 16.063 3.129 15.172 6.25-.895 3.125-4.465 7.582-13.832 6.25-9.367-1.344-35.25-6.696-41.496-6.25M764.84 374.773c6.363 2.118 11.156 7.137 18.293 3.122 7.137-4.016 8.035-9.368 16.957-10.262 8.926-.891 16.062-.891 15.168-4.016-.891-3.125-4.906-6.246-14.274-4.461-9.371 1.785-17.851 4.461-26.773 4.907-8.926.449-12.047 9.816-9.371 10.71M792.949 336.395c6.774-.84 12.047-1.778 20.078 0 8.036 1.789 15.176 0 16.961-3.118 1.778-3.121 4.012-7.589-5.804-8.031-9.817-.445-25.43-4.016-29.004.887-3.567 4.914-5.801 10.711-2.231 10.262M797.859 283.305c7.59.843 16.063.886 16.957-2.235.891-3.117 1.336-7.136-10.265-8.027-11.602-.898-24.094-.449-24.985 4.012-.894 4.461 1.336 4.91 7.582 4.91 6.25 0 6.696.894 10.711 1.34M782.242 264.117c7.887 1.578 19.633 4.461 30.785 4.461 11.157 0 16.961-2.676 16.063-7.586-.887-4.906-3.567-6.691-15.168-6.691-11.602 0-18.742-2.68-28.106-.891-9.375 1.781-12.5 8.918-3.574 10.707M821.063 244.039c6.714-1.684 8.027-2.676 8.925-7.141.887-4.46-3.574-4.91-8.484-4.91-4.906 0-6.688 1.789-7.582 7.141-.895 5.359 5.351 5.355 7.141 4.91M847.832 234.223c8.879 1.617 20.523.89 24.988 2.23 4.457 1.34 12.938 1.785 9.817-3.566-3.125-5.36-8.926-6.25-16.512-6.696-7.586-.449-12.047-1.339-17.402 2.231-5.352 3.566-5.801 4.906-.891 5.801M850.953 250.73c8.945 1.68 14.277 4.461 18.293.891 4.016-3.562 8.031-10.258 1.34-10.258s-12.938-3.125-18.293 0c-5.352 3.125-8.477 8.028-1.34 9.367M869.695 292.227c5.664-1.254 12.942-2.231 8.477-8.036-4.461-5.796-9.817-7.136-12.942-1.332-3.117 5.797-3.566 11.153 4.465 9.368" style="fill:#fff;fill-opacity:1;fill-rule:evenodd;stroke:none" transform="matrix(.13333 0 0 -.13333 0 257.333)"></path><path d="M446.262 364.512s2.23 8.027 9.371 10.261c7.137 2.231 24.984 8.922 56.215 7.586 31.238-1.339 46.406 0 44.175-4.464-2.234-4.461-7.582-11.598-12.05-12.051-4.457-.442-10.703 2.683-20.078 3.129-9.368.445-25.43-4.016-20.075-7.586 5.352-3.571 13.832-4.461 24.539-4.016 10.711.445 13.383-.894 16.512-5.355 3.121-4.461 8.918-4.907 8.918.445 0 5.355 4.02 12.051 6.25 8.926 2.231-3.121 8.477-15.172 3.125-18.742-5.355-3.571-10.707-6.25-22.758-2.231-12.047 4.016-20.523-.891-16.953-4.461 3.567-3.57 11.152-5.797 28.555-5.797s35.246-3.125 25.433-10.261c-9.816-7.145-19.187-8.036-31.23-12.497-12.051-4.464-16.512-8.925-16.512-8.925s-21.418 6.695-45.511 24.984c-24.094 18.297-37.926 41.055-37.926 41.055M757.699 394.406s16.512-3.574 15.621-7.144c-.894-3.567-2.234-5.793-12.945-4.903-10.703.891-15.613-.894-15.168-4.464.445-3.567 5.356-6.25 10.262-4.016s7.59.894 8.031-4.016c.449-4.906 16.512-7.136 8.035-8.476s-20.078 1.785-32.574 3.125c-12.492 1.332-29.895 4.906-44.172 3.121-14.277-1.789-19.187 1.785-20.973 7.14-1.785 5.352-18.293 10.258 8.032 9.813 26.328-.441 75.851 9.82 75.851 9.82M733.16 356.926c8.465-1.414 10.262-6.25 20.973-6.25 10.707 0 15.613.449 17.402-2.235 1.785-2.675-4.019-8.027-12.047-10.703-8.031-2.675-20.527-4.91-29.449-1.343-8.926 3.574-18.297 7.144-24.543 6.25-6.246-.891-16.062-1.782-20.078 2.234-4.016 4.012-5.801 6.246 8.926 5.351 14.722-.89 26.324 1.344 30.34 1.786 4.015.445.445 6.25 8.476 4.91M752.348 326.133c9.281 1.551 24.984-3.563 24.539-6.238-.446-2.68.445-8.477-21.418-8.036-21.864.442-38.817.891-48.184 7.141-9.371 6.246-4.465 10.711 1.336 9.816s4.906-6.25 12.492-3.128c7.586 3.128 8.032 3.128 14.727.445 6.691-2.676 13.832-.442 16.508 0M697.465 315.875c3.414-1.141 12.941-12.051 5.355-14.727-7.586-2.675-11.601-6.242-19.632-1.781-8.032 4.457-8.926 9.367-1.786 12.492s13.387 4.911 16.063 4.016M684.078 291.336c5.805-2.32 13.836 1.781 18.742.891 4.91-.891 4.91-.45 12.938.894 8.031 1.336 17.847 0 21.863.895 4.02.89 12.942-.004 16.957-1.789 4.016-1.786 7.586-3.129-1.336-5.356-8.929-2.226-4.469-3.566 1.781-3.566s11.602-4.02 11.153-5.805c-.446-1.781-13.828-2.672-21.414-3.121-7.582-.445-25.434 7.586-27.66 5.351-2.231-2.23-7.145-6.242-1.344-8.031 5.801-1.781 12.941-4.015 18.742-6.687 5.801-2.68 13.828-1.785 21.863-1.34 8.032.445 19.633.445 16.508-4.465-3.125-4.906-10.262-7.586-26.769-5.348-16.508 2.227-39.266-.004-52.204-3.129-12.941-3.121-17.847 0-24.097 4.016-6.246 4.016-9.817 6.25 1.785 8.481 11.602 2.226 21.863 6.242 25.879 5.8 4.019-.449 10.262 2.231 8.031 5.352s-9.812 4.906-20.523 3.574c-10.707-1.34-13.387-.008-11.157 6.238 2.235 6.25 8.032 8.039 10.262 7.145M714.871 213.25s4.457 8.035 5.797 18.738c1.336 10.711 2.676 15.621 8.926 14.282 6.246-1.34 18.734-5.356 26.769-5.356 8.032 0 15.617.004 16.508-4.461.895-4.465.449-12.047-8.031-12.492-8.477-.445-15.168-4.906-18.738-12.492s-4.461-8.926-4.461-8.926l-25.883 8.926z" style="fill:#f7d5a4;fill-opacity:1;fill-rule:evenodd;stroke:none" transform="matrix(.13333 0 0 -.13333 0 257.333)"></path><path d="M665.34 381.02s-6.246-2.672-6.246-13.387c0-10.707 9.816-16.508 7.136-19.192-2.675-2.675-10.257-5.796-6.246-12.937 4.016-7.133 8.926-10.258 8.481-20.52-.449-10.261-1.336-39.711 5.351-30.793 6.696 8.93 4.911 11.157 3.571 22.313-1.336 11.156-1.336 15.617-3.571 18.297-2.23 2.676-.89 6.687 2.235 8.918 3.117 2.234 6.246 10.261.441 10.261-5.797 0-8.027 4.02-4.012 6.696 4.012 2.679 10.266 9.371 8.032 19.637-2.231 10.261-4.02 15.613-4.02 15.613s-7.137-1.781-11.152-4.906" style="fill:#c75f22;fill-opacity:1;fill-rule:evenodd;stroke:none" transform="matrix(.13333 0 0 -.13333 0 257.333)"></path><path d="M956.703 385.926s-72.285.894-78.531-3.567c-6.246-4.464-6.692-12.941 3.125-12.046 9.816.89 14.277.445 33.019 1.335 18.735.891 42.387 0 42.387 0zM957.148 369.418s-4.015-1.344-5.804-2.23c-1.781-.891-6.242-4.012-12.043-3.571-5.801.446-9.371-1.781-14.723-3.125-5.355-1.336-19.187-4.015-27.219-4.461-8.031-.445-11.16-.445-15.171-2.226-4.016-1.789-16.958-8.481-5.356-11.602 11.602-3.129 12.496-8.031 10.711-8.926s-10.711-.894-10.711-.894-11.152-11.598-1.785-11.598c9.371 0 16.066-.449 24.098 1.336s12.043 10.262 17.847 11.598c5.797 1.344 21.86-1.778 26.328-5.348 4.453-3.57 11.153-7.141 3.567-10.266-7.586-3.121-25.438-.445-36.59-1.785-11.152-1.336-27.664-2.234-29.895-5.351-2.23-3.125-8.027-11.602 5.797-11.602 13.836 0 30.348 1.336 39.719 2.672 9.363 1.344 31.672 1.344 31.672 1.344l-.442 34.355s-8.925-.445-9.816 4.465c-.894 4.906 10.258 4.461 10.258 4.461zM957.148 286.43s-10.261 2.226-22.312 2.226c-12.047 0-53.988 0-56.219-.89-2.23-.895-10.707-5.801-3.121-7.137 7.586-1.344 16.063-2.234 28.106-1.789 12.05.445 14.281-4.91 9.816-6.695-4.457-1.782-12.043-3.567-18.734-1.782-6.696 1.782-10.266-.445-12.047-4.015-1.789-3.571-2.235-8.926 4.906-7.141s16.059 1.34 15.168-2.676c-.895-4.015-4.906-6.246-11.598-4.91-6.695 1.344-17.851 4.465-20.082 1.789-2.23-2.68-4.015-11.156 8.032-12.937 12.05-1.789 17.851-1.789 30.343-1.789 12.489 0 20.524-.891 16.063-3.571-4.461-2.675-11.153-4.011-6.246-6.242 4.91-2.234 9.367-6.695 1.785-7.141-7.59-.445-29.449 1.336-37.481-1.339-8.031-2.676-16.957-5.356-7.14-6.692 9.812-1.34 21.863-6.25 46.402-4.461 24.543 1.785 33.465 4.461 33.465 4.461l.894 21.864s-15.171.89-17.402 8.027c-2.23 7.14 2.231 8.48 8.481 8.48h8.921l.442 13.383s-6.246-4.461-12.047-2.676c-5.797 1.789-14.273 8.481-5.352 9.817 8.926 1.34 16.957 4.019 16.957 4.019z" style="fill:#f7d5a4;fill-opacity:1;fill-rule:evenodd;stroke:none" transform="matrix(.13333 0 0 -.13333 0 257.333)"></path><path d="M853.188 385.035c6.64-.832 14.277-.004 21.417-3.125 7.137-3.121 10.708-5.351 8.032-9.371-2.676-4.012-5.805-7.137-14.727-1.789-8.922 5.363-15.617 7.145-16.508 9.824-.894 2.676-1.785 4.906 1.786 4.461M866.125 361.836c6.629-.953 18.742-1.789 17.848-8.481-.891-6.691-5.356-9.375-5.356-13.386 0-4.016 3.125-7.586 1.344-13.383-1.789-5.801-6.699-10.266-5.805-14.727.891-4.461 8.032-12.492 0-9.82-8.031 2.684-11.152 1.785-11.152 8.93 0 7.136 6.691 4.461 4.012 12.043-2.672 7.586-3.571 12.492-1.336 14.726 2.23 2.231 6.695 5.801 2.675 9.817-4.011 4.019-11.597 15.617-2.23 14.281" style="fill:#c75f22;fill-opacity:1;fill-rule:evenodd;stroke:none" transform="matrix(.13333 0 0 -.13333 0 257.333)"></path><path d="M955.141 1385.84s-8.7 2.68-14.723 5.35c-6.023 2.68-10.711 0-16.063.67-5.359.67-15.394 6.69-21.417 8.7s-11.379-4.68-14.059-1.34c-2.676 3.35-2.5 9.18-13.383 8.7-15.394-.67-20.043 9.37-26.101 9.37-8.7 0-15.395 4.69-36.145 4.01-20.746-.66-24.852-2.76-30.785-8.69-3.344-3.35-9.367-2-16.067-3.35-6.687-1.34-5.351-7.36-12.043-5.35-6.695 2.01-13.382.66-19.41-2.01-6.023-2.68-10.039-4.68-16.058-5.35-6.028-.67-13.391-4.69-19.414-4.69s-9.368-3.34-16.059-4.68c-6.695-1.34-17.402 1.34-20.082-2.01-2.676-3.35-5.355-4.68-8.031-2.68-2.676 2.01-12.043-3.35-14.727-5.35-2.676-2.01 3.153-2.65-13.383-14.06-19.41-13.38-33.464-17.4-33.464-20.08 0-4.68-16.063-20.07-19.407-26.1-3.351-6.02-11.379-21.42-11.379-26.1s6.024-10.05 3.344-15.39c-2.676-5.36-6.687-12.72-7.359-24.1s7.359-14.72 7.359-18.07c0-3.34.871-19.61 4.684-23.42 6.027-6.03 2.664-10.54 6.695-19.42 3.348-7.36 7.277-16.83 10.711-19.4 5.352-4.02 10.039-8.7 11.375-14.73 1.34-6.02 9.371-8.7 19.406-16.73 10.043-8.03 16.735-16.06 18.074-20.75 1.34-4.68 8.032-6.02 10.04-9.37s7.933-9.27 14.054-10.04c5.352-.67 8.703 2.01 13.391-.67 4.683-2.67 9.363-4.01 14.055-1.33 4.679 2.67 12.714 2.67 16.058-2.68 3.348-5.35 8.699-6.02 15.395-6.7 6.691-.66 11.375-2.67 13.382-4.68 2.012-2.01 7.368 1.34 10.708 0 3.347-1.34 6.027-.67 8.703 0 2.679.67 8.031-.67 12.05-2.01 4.016-1.34 10.707-2.01 13.383.67s8.699 1.34 13.387 2.68c4.684 1.34 9.367 8.03 14.055 8.7 4.683.67 14.054 3.34 20.078-4.68 6.023-8.04 8.031-16.07 13.386-16.73 5.352-.68 13.387 10.7 21.415 12.04 8.031 1.34 17.402 6.69 22.757 4.69 5.352-2.02 9.368 0 13.387 2 4.016 2.01 4.684-1.33 10.039-1.33 5.352 0 12.715 2.67 20.078 6.02 7.364 3.34 8.703 7.36 16.731 6.02 8.031-1.34 11.379-2.01 11.379-2.01z" style="fill:#48ae3a;fill-opacity:1;fill-rule:evenodd;stroke:none" transform="matrix(.13333 0 0 -.13333 0 257.333)"></path><path d="M939.074 1301.84c-1.109-.74-4.679-3.01-4.347-7.03.332-4.01 1.339-6.69 5.019-6.69 3.684 0 3.348 1.67 1.672 4.02-1.672 2.34-3.008 3.34-1.672 5.69 1.34 2.34 1.34 5.35-.672 4.01M928.367 1301.17c-1.332-.13-5.019-1.33-4.683-5.02.336-3.68 1.675-5.69 3.011-7.69 1.336-2.01 3.68-3.01 5.02-2.34s-.668 3.67-.668 7.02c0 3.34.668 8.37-2.68 8.03M901.262 1291.14c-2.032.11-1.672-3.35-2.004-6.37-.336-3-.672-10.7 2.004-11.04 2.679-.33 2.679 2.01 2.679 7.02 0 5.03 3.012 10.05-2.679 10.39M890.555 1298.16c-1.59-1.27-5.02-1.68-5.688-7.7-.672-6.02-3.679-13.71-1.34-17.06 2.344-3.35 4.688-5.36 6.356-3.35 1.676 2-1.336 3.01-1.004 5.69.34 2.68 4.016 1.68 3.348 7.03s0 8.03 1.003 10.71c1.008 2.67-1.003 6.02-2.675 4.68M877.5 1289.13c-2.355-.22-2.676-3.68-3.34-6.36-.672-2.68-4.015-11.04-1.676-13.06 2.34-2 5.016-4.68 4.684 1.01-.336 5.69 1.34 9.03 2.344 11.71s1.676 7.03-2.012 6.7M862.777 1280.09c-2.05-.91-4.347-3.34-2.675-5.02 1.671-1.67 4.015-2.01 5.355 1s.336 5.36-2.68 4.02M852.742 1289.46c-1.676 0-7.027-5.36-6.695-10.71.336-5.35 2.676-11.38 5.687-12.05 3.012-.66 3.348 2.68 1.672 6.03-1.672 3.34 0 6.02 1.34 8.02 1.344 2.02-.332 8.71-2.004 8.71M842.367 1290.13c-1.707 0-7.027-3.01-7.367-9.04-.332-6.02-.332-11.71 3.688-13.38 4.015-1.67 2.007 2 1.335 5.35-.668 3.35.672 4.69 2.68 9.04 2.004 4.35 2.004 8.03-.336 8.03M823.625 1286.12c-1.195-.6-3.68-2.68-3.68-6.03 0-3.34 2.004-5.02 1.004-7.03-1.004-2-.668-7.36 2.344-7.36 3.008 0 2.34 1.67 2.34 4.35s2.34 2.68 2.34 5.36c0 2.67-2.672 3.67-3.008 6.36-.336 2.67.668 5.35-1.34 4.35M784.141 1284.44c-1.59-.53-5.02-3.01-5.356-7.69-.336-4.7 1.336-7.7 4.348-8.04 3.012-.33 2.683 1 1.672 4.02-1.004 3.01 3.015 1.34 2.683 5.35-.34 4.02-1.343 7.03-3.347 6.36M783.133 1295.48c-1.004 0-3.012-2-6.02-3.68-3.015-1.67-7.027-2.67-8.031-7.36-1.008-4.69-1.34-12.05 1.336-11.71 2.68.33 3.012-.34 3.348 5.35.332 5.69 2.007 7.7 4.011 7.7 2.012 0 2.012 2.01 3.684 4.01 1.672 2.01 4.016 5.69 1.672 5.69M761.047 1284.77c-1.285-.36-3.348-1-4.348-6.02-1.004-5.02-1.34-8.36 1.672-10.37s2.344-.34 3.012 4.35c.672 4.69 2.008 12.72-.336 12.04M761.047 1301.51c-4.008-.41-7.359-3.68-9.031-8.03-1.676-4.35-5.36-10.04-3.348-13.39 2.004-3.34 2.676-4.02 4.012 1.34 1.34 5.36 1.34 10.04 4.019 12.71 2.676 2.68 7.696 7.7 4.348 7.37M748.668 1305.52c-2.363 0-7.695-6.36-8.367-10.71s-1.004-13.38 1.34-13.38c2.343 0 2.343 3.01 3.343 8.7 1.004 5.68 8.032 15.39 3.684 15.39M731.598 1300.5c-2.004 0-4.684-2-3.68-7.02s1.34-8.71 5.687-8.03c4.352.67 5.692 2 2.012 4.01-3.683 2.01 0 11.04-4.019 11.04M678.395 1295.15c-2.012 0-4.02-3.01-3.352-9.03.672-6.03 2.68-8.7 5.355-8.7s4.016 1.33 1.676 4.35c-2.347 3 .332 13.38-3.679 13.38M659.984 1289.13c-2.332.17-2.007-5.69-1.336-10.05.668-4.35 4.352-6.02 6.024-5.68 1.676.33 2.676 3.01 1.004 5.35-1.676 2.34-1.34 10.04-5.692 10.38M651.621 1285.78c-1.234-.62-2.344-5.03-1.34-7.36 1.004-2.35 5.02-7.36 5.02-4.69 0 2.68-2.004 3.35-1.676 8.04.336 4.68-.668 4.68-2.004 4.01M643.926 1285.78c-2.672.38-4.352-6.36-3.012-10.71 1.336-4.35 4.684-8.7 7.695-7.36s1.672 3.01-1.339 6.36c-3.016 3.35-1.004 11.38-3.344 11.71M634.219 1284.77c-2.231-.25-5.692-7.02-3.348-14.05 2.344-7.02 5.356-10.71 8.367-9.03 3.012 1.67 2.723 2.86-1.004 6.35-5.351 5.02 1.676 17.41-4.015 16.73M620.832 1265.03c-.644-1.93 2.012-6.36 4.688-6.69 2.675-.34 4.683 2 1.003 5.02-3.679 3.01-5.023 3.68-5.691 1.67M606.109 1268.38c-1.632-.37-4.015-2.68-2.679-6.69 1.34-4.02 2.343-7.03 5.023-5.69 2.672 1.33-.336 3.68-.336 6.69s1.004 6.36-2.008 5.69M604.438 1339.99c-1.129-.28-.75-3.94-1.676-6.36-1.223-3.2-3.489-5.4-2.34-6.36 2.004-1.67 1.004-2.34 4.016 2.35 3.011 4.68 10.707 13.05 0 10.37M615.145 1343.34c-.747-3.74-6.024-12.05-5.02-15.06 1-3.01 2.004-3.68 4.688 2.34 2.671 6.02 8.031 13.05 5.015 14.39-3.012 1.34-4.351 0-4.683-1.67M634.887 1352.04c-2.5-2.23-6.36-7.03-3.68-8.7 2.676-1.68 3.344-1.68 5.691 3.01 2.34 4.68 1 8.37-2.011 5.69M647.941 1357.39c-4.546-4.54-9.039-10.71-7.699-14.05 1.34-3.35 3.016-2.01 6.36 3.01 3.347 5.02 8.367 10.04 6.695 12.04-1.676 2.01-4.02.34-5.356-1M663 1356.39c-2.75-.25-3.348-3.68-3.348-7.36 0-3.69 1.004-14.06 4.016-13.39 3.008.67 3.348 1.68 2.344 7.7s4.347 13.72-3.012 13.05M673.039 1347.35c-3.066-2.22-3.348-6.69-2.012-9.03 1.34-2.35 4.352-1.68 6.028-2.35 1.672-.66 4.347-.33 6.359 0 2.008.34 3.344 0 4.684-2 1.336-2.01 2.675-.34 3.011 1.34.336 1.67-2.011 1.33-1.004 4.01 1.004 2.68.668 6.02-3.011 3.68s-6.024-4.68-6.364-2.01c-.332 2.68-4.011 9.04-7.691 6.36M713.527 1357.73c-1.601-3.01.672-3.35 3.684-1.68 3.012 1.68 4.684 1.34 4.016-.66-.668-2.01 3.347-5.02 4.683-1.68 1.34 3.35.668 6.36 3.348 9.03 2.676 2.68 3.531 7.71-2.344 6.03-4.687-1.34-10.711-6.03-13.387-11.04M745.988 1393.54c-4.078-2.52-6.691-5.7-5.355-6.36 1.34-.67 5.691-.67 8.367 2.34s6.359 4.68 3.348 5.68c-3.012 1.01-2.008 1.01-6.36-1.66M772.426 1400.89c-3.012-.33-3.68-5.69-6.36-11.37-2.675-5.69-3.343-13.06.332-17.4 3.688-4.35 7.032-7.03 6.7-.67-.34 6.35-5.692 8.7-2.68 15.06 3.012 6.35 8.031 15.06 2.008 14.38M783.469 1396.55c-3.77-3.02-5.352-10.04-5.02-16.06.336-6.03 4.684-7.04 5.352-3.69.672 3.35-1.672 7.36 0 9.71 1.676 2.34 6.469 4.92 4.019 11.04-1.34 3.34-2.675.33-4.351-1M802.211 1406.92c-1.699-.19-3.684-4.35-5.02-9.37-1.343-5.02-5.019-10.04-6.023-14.73-1.008-4.68 1.672-11.37 5.02-5.68 3.339 5.68 1.335 9.7 5.015 13.72 3.684 4.01 10.043 17.06 1.008 16.06M808.57 1397.22c-1.672-3.72-1.675-8.37-4.351-10.71-2.68-2.35-2.344-6.69 1.672-7.03 4.011-.34 4.351 1.01 4.011 3.68-.332 2.68 1.344 3.68 4.02 1.34s4.351-3.01 4.683 1c.336 4.02 3.016 5.36 4.688 8.04 1.672 2.67 3.008 2.34 3.008-5.36 0-7.69-.668-13.05 2.344-12.72 3.011.34 4.683.34 4.351 10.04-.336 9.7.332 13.05 1.672 15.73 1.344 2.68-.332 5.02-2.34 3.34-2.012-1.67.332 3.02-3.683 3.02-4.016 0-3.344-1.67-6.024-4.35-2.676-2.68-2.676-5.69-4.348-5.69-1.675 0-6.695 6.36-9.703-.33M846.047 1408.93c-3.524-1.96-4.688-7.36 0-7.03 4.683.33 10.043 4.69 8.367 6.69-1.672 2.02-5.355 2.02-8.367.34M824.629 1363.08c-2.77-1.23-7.359-10.71-7.695-14.72-.336-4.02 2.675-8.37 6.023-8.7 3.344-.34 3.68 1 2.676 4.68s-2.34 6.03-.332 10.71 2.344 9.36-.672 8.03M838.688 1371.11c-2.075-5.17-9.04-12.04-9.04-18.4s1.004-9.04 4.352-8.71c3.348.34 2.344 5.03 2.344 9.04 0 4.02 2.344 4.69 5.687 9.04s5.688 11.71 2.012 12.38c-3.684.67-4.688-1.67-5.355-3.35M842.031 1352.71c0-3.35-.336-7.37 3.344-6.69 3.684.66 3.016 3.01 3.684 8.02.668 5.03 2.675 8.04 4.687 11.05 2.004 3.01 1 7.36-3.016 4.68-4.011-2.67-8.699-12.71-8.699-17.06M863.781 1370.45c-3.511-2.41-10.375-11.38-10.375-16.41 0-5.01 2.684-11.04 6.364-9.03 3.675 2.01 1.335 4.02 2.675 7.03 1.336 3.01 5.02 6.69 3.68 8.36-1.336 1.68-.668 3.35 1.34 5.02 2.008 1.68 2.68 9.38-3.684 5.03M875.16 1364.09c-2.969-1.09-8.363-7.37-9.367-12.05-1.004-4.69.332-11.05 3.344-8.7 3.011 2.34 3.011 5.02 4.351 8.7 1.336 3.68 9.035 14.72 1.672 12.05" style="fill:#f7d5a4;fill-opacity:1;fill-rule:evenodd;stroke:none" transform="matrix(.13333 0 0 -.13333 0 257.333)"></path><path d="M897.582 1323.93c-1.672 2.34 1.34 6.69 5.688 11.71 4.351 5.02 10.375 11.38 11.378 5.02s0-7.7-4.351-9.04c-4.352-1.33-11.039-10.03-12.715-7.69M916.32 1389.18c-2.281-2.07-6.355-8.36-4.687-10.71 1.676-2.34 1.34-2.34 4.359-.67 3.004 1.68 4.68.34 6.352 0 1.676-.33 5.355 3.02 4.019 5.36-1.343 2.34-6.359 9.37-10.043 6.02M928.703 1371.11c-2.555-.53-6.359-2.67-6.695-7.02-.336-4.36 2.347-7.37 6.023-4.02 3.684 3.35 7.028 12.38.672 11.04M931.715 1387.51c-1.985-2.78-1.004-4.69 6.695-7.36 7.695-2.68 10.707-3.35 10.375-7.03-.34-3.68 1.336-10.38 3.008-4.02s3.68 11.72-1.672 15.4c-5.351 3.68-16.734 5.35-18.406 3.01M615.477 1234.25c-2.977-.43-6.692-3.02-6.692-9.37 0-6.36 2.68-7.03 4.352-6.36 1.676.67 2.34 3.01 2.676 7.02.335 4.01 4.351 9.38-.336 8.71M648.609 1228.22c-2.699 0-2.343-4.02-5.019-2.01s-5.02-.33-5.356-4.01 4.016-6.36 6.02-8.7c2.012-2.35 3.016-.34 7.367.67 4.352 1 9.035 3.68 6.02 6.02-3.012 2.34-1.336 8.03-9.032 8.03M604.438 1196.77c-2.727-2.39-9.04-12.39-7.368-13.73 1.676-1.33 3.352-7.02 5.356-1.67 2.012 5.35 2.012 7.7 5.023 10.38 3.008 2.67-.336 7.36-3.011 5.02M609.457 1184.05c-2.617-.66-5.355-7.7-4.687-10.38.668-2.67 5.355-3.01 6.023.34.672 3.35 1.336 10.71-1.336 10.04M625.184 1181.37c-3.133-1.17-10.039-9.37-9.371-17.4s3.011-9.04 5.355-7.36c2.344 1.67 3.348 2.34 4.684-2.34 1.339-4.69 3.679-11.72 9.035-10.72 5.355 1.01 3.683 4.35 5.355 6.7 1.672 2.34 6.696 7.7 3.016 9.7-3.684 2.01-4.02-2.67-7.031-6.02-3.012-3.34-5.688-2.34-5.02 1.34s2.008 8.7 3.68 10.71c1.676 2 1.676 5.69-.336 6.36-2.004.66-5.352-2.34-6.356-6.36s-6.023-6.36-5.351-2.01c.668 4.35 2.004 7.7 4.683 10.37 2.676 2.68 5.688 10.04-2.343 7.03M709.516 1238.59c-2.012 0-4.688-4.68-5.36-2-.664 2.68-4.347 4.35-7.359.66-3.012-3.68-1.004-9.03-6.359-11.71-5.352-2.67-7.364-10.7-5.016-13.05 2.34-2.34 3.676-2.34 5.687-1 2.004 1.33 7.364 3.01 6.356-1.34-1.004-4.35-.668-6.02 3.012-5.35 3.679.66 2.679-3.02 6.023-3.02 3.348 0 3.684 1.68 5.359 3.02 1.668 1.33 5.016.66 5.016-1.01s3.684-4.01 6.023 0c2.344 4.01 5.356 7.7 6.36 3.35s2.008-12.38 5.687-7.03c3.684 5.35 7.028 10.04 3.348 11.38-3.684 1.33-2.344 3.35-.672 6.36 1.676 3.01-.668 7.69-4.348 6.69s-8.699-7.7-7.699-4.02c1.004 3.68-1.336 4.69-4.683 3.68-3.348-1-5.692 1.34-3.348 2.68s9.035 7.37 3.348 6.69c-5.692-.67-6.36-9.37-10.707-9.37-4.356 0-4.016 3.01-1.34 5.7 2.679 2.67 6.695 8.69.672 8.69M755.695 1220.52c-1.398 1.14-4.351-5.35-7.027-6.35-2.68-1.01-6.695-6.7-6.695-11.05s1.004-7.03 6.023-5.02 5.02 2.35 6.024 7.03c1.003 4.69 7.027 11.04 1.675 15.39M776.773 1219.52c-4.332-.39-7.691-6.02-11.707-13.72-4.019-7.7-5.023-12.38 0-12.38 5.02 0 7.024 0 7.024 6.03 0 6.01 1.008 10.03 4.015 12.04 3.016 2.01 4.352 8.37.668 8.03M787.82 1212.16c-2.644.53-3.347-3.02-.672-4.36 2.68-1.33 4.688-5.35 0-3.34-4.683 2.01-10.035 4.02-9.703 1 .332-3.01 2.344-8.03 10.375-8.03 8.028 0 13.383 2.35 8.7 7.37-4.684 5.02-7.028 7.02-8.7 7.36M820.949 1221.86c-3.969-.76-4.015-8.03-8.035-9.37-4.016-1.34-7.359-7.03-1.668-8.03 5.688-1 7.359-4.01 9.703 2.68s8.699 16.4 0 14.72M651.957 1206.8c-2.711-1.96-4.016-5.02 2.004-9.03 6.023-4.02 8.367-7.03 10.375-3.68 2.012 3.34 1.008 5.36-3.348 8.36-4.343 3.01-5.355 7.03-9.031 4.35M664.672 1211.49c-2.145-2.5-3.012-5.02.672-7.7 3.679-2.68 6.355-4.34 9.031-2.68 2.68 1.68 1.004 4.35-1.676 5.02-2.672.67-4.011 4.02-3.008 5.36 1.004 1.33-3.015 2.34-5.019 0M678.055 1141.21c-3.309-.5-4.348-6.02-4.684-10.03-.332-4.02-.332-11.72 5.024-12.05 5.351-.34 5.351-.67 4.351 5.69-1.008 6.36 2.004 17.39-4.691 16.39M737.621 1116.12c-2.992-1.5-3.676-7.03-1.336-12.72 2.344-5.69 4.348-10.38 6.36-3.01 2.003 7.36 3.343 15.39 1.339 16.39-2.011 1.01-4.355.34-6.363-.66M752.016 1116.12c-.743 2.51-5.692-7.37-6.028-13.39-.332-6.03 1.008-12.05 3.684-7.36 2.676 4.68 4.016 15.06 2.344 20.75M772.426 1132.18c-2.422-2.05-2.008-13.72 2.008-13.72 4.015 0 4.687-1 4.687 4.35s-2.348 13.05-6.695 9.37M764.059 1109.09c-1.309-3.93-2.004-8.7 1.007-12.05 3.008-3.34 7.024-4.35 10.036-1.34 3.015 3.01 1.671 7.7 4.019 6.03 2.34-1.68 5.02-5.03 10.039-2.35s8.699 4.02 9.703 10.04c1.004 6.03 0 7.36-5.019 6.7-5.02-.67-8.699-4.69-11.043-6.37-2.344-1.67-3.348 2.01-5.688 1.68-2.343-.33-3.347-5.69-5.691-4.02-2.34 1.68-6.024 5.69-7.363 1.68" style="fill:#c75f22;fill-opacity:1;fill-rule:evenodd;stroke:none" transform="matrix(.13333 0 0 -.13333 0 257.333)"></path><path d="M635.223 1199.45c-2.625-.53-4.352-1.68-1.34-3.36 3.015-1.67 7.363-1.67 7.031-5.02-.34-3.34 1-5.02 4.012-6.69 3.015-1.67 6.023-4.68 6.023.34 0 5.01-1 6.02-4.347 7.36-3.344 1.34-6.36 8.37-11.379 7.37M662.328 1185.05c-1.609-.46-1.672-7.69-2.344-11.38-.668-3.67-4.683-10.37-1-14.05 3.68-3.68 6.36-3.01 7.028-.67.664 2.34-3.012 4.35-2.012 8.36 1.008 4.03 3.016 19.08-1.672 17.74M673.371 1188.07c-3.047-.52-5.687-6.7-5.019-16.73.671-10.05 4.687-18.08 9.703-18.41 5.019-.34 9.707-.68 7.367 3.68-2.348 4.34-7.027 7.36-7.027 15.73 0 8.36-1.008 16.39-5.024 15.73M687.762 1190.4c-2.981-2.79-6.692-11.04-4.688-17.06 2.012-6.03 5.356-11.71 9.707-10.37 4.352 1.33 4.684 3.35 1.004 6.69s-5.687 8.7-4.015 12.38c1.675 3.68 3.343 13.38-2.008 8.36" style="fill:#f7d5a4;fill-opacity:1;fill-rule:evenodd;stroke:none" transform="matrix(.13333 0 0 -.13333 0 257.333)"></path><path d="M700.145 1187.73c-2.247-4.49-7.364-8.7-3.348-14.39s5.687-5.69 7.359-3.02c1.672 2.68.34 5.03-1 7.71-1.34 2.67 1.672 5.35 2.008 9.36.332 4.02-3.68 3.01-5.019.34M712.523 1191.75c-2.496-1.43-7.027-7.37-6.023-12.05s3.348-6.36 5.691-6.36c2.34 0 3.348 1.68 1.004 4.34-2.343 2.69-.672 3.36.668 6.7 1.336 3.35 3.348 10.04-1.34 7.37M719.551 1189.07c-1.672-1.34 2.008-4.35-.664-5.36-2.684-1-3.016-4.68 1-4.35 4.015.34 7.027.67 7.027-2 0-2.68 5.356-3.02 5.688-1.01.339 2.01-.332 4.35-1.004 6.69s-1 5.36-4.348 4.35c-3.348-1-6.023 3.01-7.699 1.68M696.797 1144.23c-2.258-1.32-9.703-4.02-9.703-7.03s.332-6.36 6.691-11.72c6.36-5.35 7.028-7.35 9.707-4.01 2.676 3.35 2.336 3.35-1.676 7.03-4.015 3.68-6.359 7.03-3.343 7.03 3.011 0 7.023-4.35 12.047-4.35 5.019 0 10.039-.67 7.023 3.01-3.012 3.68-5.684 3.01-10.371 7.36s-6.359 5.02-10.375 2.68M707.84 1147.9c-.508-3.04-.336-4.68 4.351-7.02 4.684-2.34 13.719-5.69 15.059-2.34 1.34 3.34.332 6.35-6.691 10.03-7.032 3.68-12.383 1.34-12.719-.67M755.359 1181.37c-2.621-3.27-7.031-6.35-4.351-10.71 2.68-4.34 6.691-4.68 11.379-8.03 4.683-3.34 7.027-3.34 6.695 0-.336 3.35-9.371 9.04-7.027 10.71 2.34 1.68 6.691 2.01 8.031-1.67 1.336-3.69 7.359-11.38 10.707-7.37 3.348 4.02 3.348 4.69-2.344 9.37-5.691 4.69-7.695 10.71-12.051 11.05-4.343.33-3.675-3.01-5.683-3.68-2.012-.67-4.016 2-5.356.33M789.828 1197.1c-2.656.48-.336-6.7-3.348-6.36-3.011.33-9.367.67-10.707-2.34-1.339-3.02-2.343-8.7 4.016-11.38 6.356-2.68 9.035-3.01 9.035-.34 0 2.68-.336 5.7 3.012 4.69 3.344-1 6.691-2.34 6.359 1.34-.336 3.68-1.34 4.34-4.351 6.69-3.016 2.35-4.016 4.35-.336 2.68 3.683-1.68 9.039-7.03 11.715-2.35 2.675 4.69 5.351 5.03 1 8.37-4.348 3.35-6.356 4.02-7.696 2.01-1.336-2.01-5.019-3.68-8.699-3.01M824.297 1194.42c-1.988-2.65-2.008-4.35 2.34-9.7 4.351-5.36 9.375-9.7 11.043-7.36 1.675 2.34.668 4.01-3.68 7.36-4.352 3.35-2.008 10.04-4.352 10.37-2.339.33-4.347.67-5.351-.67M840.359 1193.42c0-3.02 3.344-6.7 3.684-9.37.328-2.68 2.34-7.7 7.023-8.03 4.684-.34 7.7 3.01 2.34 5.69-5.351 2.67-9.035 7.69-9.363 10.7-.34 3.01-3.684 4.69-3.684 1.01M856.758 1193.09c-.266-4.79 3.68-12.39 7.359-15.06 3.684-2.68 7.028-1.01 8.703-2.35 1.672-1.34 5.688-1 3.68 2.68s-1.34 10.04-1.676 15.06c-.332 5.02-2.676 5.35-4.011 2.34-1.34-3.01-4.016-3.68-5.02-.67s-8.703 4.02-9.035-2M878.844 1191.07c1.57-2.36 8.699-8.36 11.711-11.37 3.011-3.02 10.039-6.36 10.707-.67s-.668 8.7-5.016 9.37c-4.351.67-8.371 4.35-12.383 5.02-4.015.67-5.691-1.34-5.019-2.35" style="fill:#f7d5a4;fill-opacity:1;fill-rule:evenodd;stroke:none" transform="matrix(.13333 0 0 -.13333 0 257.333)"></path><path d="M835 1197.77c2.793-.62 3.688-1.34 7.703 2.68 4.016 4.01 7.36 7.69 10.371 10.37 3.016 2.68 6.356 2 7.364 5.69 1.003 3.68 2.339 8.37 5.355 8.37 3.008 0 3.344-2.01 1.004-4.69-2.344-2.67-.34-6.02-3.684-7.7-3.343-1.67-6.691-4.35-6.691-8.03s1.672-3.35 5.351 0c3.684 3.34 4.02 6.36 7.364 6.02 3.347-.33 5.687 1.34 6.695 5.69 1 4.35 2.676 4.69 5.688 6.03s2.675 4.01 4.351 6.35c1.672 2.35 6.692 4.35 5.352 9.38-1.34 5.02-2.344.66-4.016-1.01s-3.344-.67-4.348 1.01c-1.007 1.67-5.691 0-6.691-3.68-1.008-3.69-4.688-6.7-5.695-3.69-1 3.01-6.02 4.69-10.035.34s-10.711-12.72-13.051-17.07c-2.344-4.35-4.016-10.37-8.699-12.05-4.688-1.67-6.696-3.34-3.688-4.01M885.535 1208.81c4.035-.93 8.367 4.69 12.047 9.04s5.688 4.68 8.703 8.7c3.008 4.01 12.043 10.37 9.707 15.39-2.347 5.02-8.703 1.67-11.047-.67-2.343-2.34-3.015-6.69-4.683-8.7-1.676-2.01-4.352-2.01-5.36-4.68-1-2.68 0-6.7-4.011-9.37-4.02-2.68-9.703-8.7-5.356-9.71M888.879 1193.42c3.652-.58 4.351 2.67 8.367 2.67s3.016 0 5.024 3.36c2.003 3.34 2.003 7.35 5.351 7.02 3.348-.34 5.02-2.01 3.012-4.02-2.008-2-3.68-6.36.672-5.02 4.347 1.34 5.687 3.02 6.691 6.7 1 3.67 3.348 7.69 4.684 4.01 1.34-3.68-.672-6.36-2.34-8.03-1.676-1.67 1.004-8.7 3.68-5.35 2.675 3.34 5.687 8.7 5.355 12.04-.336 3.35-5.02 5.36-3.684 8.04 1.34 2.68 7.364 7.36 4.684 9.7-2.676 2.34-4.684-1.34-6.691-.34-2.012 1.01.336 5.35-3.68 5.03-4.012-.34-4.352-5.03-7.363-6.03s-.668-3.01-3.012-5.35c-2.34-2.35-4.352-1.68-6.359-4.35-2.008-2.68-2.676-8.37-7.696-11.05-5.019-2.67-13.051-8.03-6.695-9.03M920.34 1179.36c-2.344-3.34-4.348-5.35-6.024-10.04-1.675-4.68-4.351-9.37-1.343-12.04 3.019-2.68 5.355-4.69 6.023 1.67.672 6.35 2.348 10.71 4.02 14.39 1.675 3.68-.336 9.37-2.676 6.02M933.723 1190.74c-1.825-3.19 2.343-9.7-1.004-11.71-3.344-2.01-5.356-7.69-3.012-11.72 2.34-4.01 4.688-6.68.668-9.03-4.012-2.34-9.031-8.7-3.344-8.7s11.379 4.35 13.047 8.37c1.676 4.01 3.016 6.35 6.363 9.7s3.348 6.02 2.004 12.72c-1.336 6.68-3.011 6.02-5.015 2.67-2.012-3.34-4.356-2-4.356 2.01 0 4.02-2.672 10.37-5.351 5.69M910.297 1148.57c-4.164-1.66-5.688-6.36-7.695-10.7-2.008-4.35-3.012-5.69-6.356-7.03-3.351-1.34-5.691-3.68-2.008-3.01 3.68.67 8.364.33 7.36-2.68s-5.688-6.69-2.676-7.36c3.008-.67 5.687.34 7.363 3.35 1.672 3.01 4.684 4.68 4.684 1.33 0-3.34-3.68-7.02 0-9.37 3.679-2.34 9.371-5.35 10.039 1.34.664 6.7.336 9.38 4.012 11.04 3.683 1.68 7.027 4.69 4.019 4.69-3.012 0-3.012 4.02-2.676 6.69.332 2.68-6.359 4.69-8.703 2.34-2.344-2.34-4.351-6.69-4.687-.33-.332 6.36-1 10.37-2.676 9.7M935.395 1127.49c-2.278-1.44-11.375-12.71-12.047-16.39-.668-3.69.336-8.71 4.351-3.69 4.016 5.02 5.02 10.05 8.703 14.73 3.676 4.68 5.352 9.37-1.007 5.35M941.754 1119.46c-2.367-2.96-7.027-6.03-6.695-9.03.336-3.02 1.007-3.69 3.015-2.35 2.004 1.34-.332-3.34 2.672-4.01 3.016-.67 4.688-1.01 6.363 2.67 1.676 3.69 8.364 8.37 5.016 11.39-3.34 3.01-6.355 3.01-4.348 5.01 2.012 2.01 3.012 5.02-.332 3.02-3.347-2.01-4.351-5.02-5.691-6.7M838.02 1162.3c-2.645-.44-3.352-2.01-5.36-7.03s-4.687-8.7-7.359-12.38c-2.68-3.69-3.68-7.03-1.676-13.72 2.008-6.7 6.363-21.09 8.703-29.12s5.02-15.06 7.36-14.72c2.343.33 3.683 3.68 6.027 10.04 2.34 6.36 5.351 13.38 7.027 17.73 1.672 4.36-1.008 9.37 1.672 13.39 2.676 4.02 9.031 11.38 8.699 16.06-.336 4.69-4.683-3.35-8.699-9.37s-8.031-12.71-13.055-13.05c-5.015-.33-5.015 2.01-5.687 4.35s-7.699-.33-8.363 5.69c-.672 6.03 1.336 8.7 3.007 6.03 1.676-2.68 5.696-3.69 6.028.33s3.344 7.7 3.679 4.02c.336-3.69 1.672-17.41 4.348-7.7 2.68 9.7 4.352 14.72 7.031 17.06 2.676 2.34 1.34 3.35-.336 4.36-1.671 1-2.343 5.02-4.683 5.02s-3.348-6.7-5.024-5.7c-1.671 1.01 2.684 9.71-3.339 8.71" style="fill:#c75f22;fill-opacity:1;fill-rule:evenodd;stroke:none" transform="matrix(.13333 0 0 -.13333 0 257.333)"></path><path d="M812.246 1116.12c-3.316-1.45-6.023-4.02-6.355-9.38-.336-5.35 1.672-8.69 5.687-14.38 4.016-5.7 5.356-8.71 7.363-12.72s3.008-9.04 4.016-21.09c1.004-12.04 5.016-19.4 5.016-28.77s0-27.11-1-37.479c-1.004-10.375-2.676-35.137-2.676-35.137h39.148s-2.004 11.371-3.343 48.186c-1.336 36.81 2.343 64.58 3.343 71.95 1.008 7.36-3.007 11.71-1 20.75s2.344 12.04-3.347 10.37c-5.692-1.68-1.34-5.02-2.676-7.7-1.34-2.67-3.68-6.35-1.676-9.04 2.012-2.67 3.684-5.68 1.344-9.03-2.344-3.35 0-9.7-2.684-11.7-2.676-2.02-4.347 4-7.691.66-3.348-3.35-16.399.34-21.086 10.37-4.684 10.04-6.691 15.73-6.691 24.43s-.336 12.05-5.692 9.71" style="fill:#c75f22;fill-opacity:1;fill-rule:evenodd;stroke:none" transform="matrix(.13333 0 0 -.13333 0 257.333)" data-source="https://football-logos.cc"></path><path d="M871.145 1155.6c-2.696 0-1.34-4.35-3.344-9.03-2.008-4.69-9.035-18.74-11.711-28.11-2.684-9.37-6.363-21.08-10.715-29.78-4.348-8.71-5.352-11.05-8.027-7.7-2.68 3.34-3.348 9.03-7.7 19.74-4.347 10.71-4.347 23.43-8.699 28.78-4.351 5.36-6.691 2.01-8.367-2.34-1.672-4.35 1.676-7.03 3.68-12.72 2.011-5.69.226-15.06 5.242-25.87 4.109-8.86 9.484-16.29 8.812-26-.668-9.7 1.676-14.05 4.02-20.75 2.34-6.69 4.012-21.07 3.012-28.77-1.004-7.7-3.348-13.39-1.336-18.745 2.008-5.352 3.343-11.379 0-16.399-3.352-5.019-1.344-8.027 0-12.711 1.336-4.683 2.676-8.371 2.676-8.371l14.054.34s-3.683 6.024-6.023 11.371c-2.348 5.36-3.684 12.719-.672 17.735 3.012 5.027 8.031 4.023 7.027 8.707-1.004 4.683-4.015 4.683-4.683 8.703-.672 4.02 3.011 2.67 2.339 5.68-.667 3.02-4.347 2.01-3.011 7.03 1.34 5.02 4.015 5.36 2.679 9.04-1.339 3.68-4.683 8.03-2.679 11.04 2.008 3.01 2.008 4.35-2.004 10.38-4.02 6.02-3.684 11.37-2.012 14.72 1.672 3.34-1 7.7 2.012 10.04 3.008 2.34 6.562-2.98 7.805-1.12 3.125 4.69.668 7.7 2.343 11.38 1.672 3.68 3.907 6.81.895 9.15s-3.684 4.01-1.676 6.02-.336-.11 2.008 4.91c2.34 5.02 6.469 3.23 6.914 4.46.941 2.59 1.117 2.68 5.469 14.06 4.347 11.37 10.707 24.09 6.695 31.78-4.02 7.7-2.68 3.35-5.023 3.35" style="fill:#f7d5a4;fill-opacity:1;fill-rule:evenodd;stroke:none" transform="matrix(.13333 0 0 -.13333 0 257.333)"></path><path d="M195.727 761.844s7.785.89 17.179.89c20.074 0 39.489-37.48 39.489-37.48V607.461s13.382-30.785 22.753-45.512 70.946 177.36 70.946 177.36 28.777 22.757 51.535 22.757c34.133 0 58.226-49.531 58.226-49.531v-334.64h87.672v361.414s35.473 30.785 54.887 30.785c37.477 0 61.57-43.5 61.57-43.5V381.246h90.356v354.043s33.461 36.145 57.558 36.145c34.133 0 58.227-53.539 58.227-53.539V379.234h90.352l1.339 409.602-771.011-2.008z" style="fill:#c75f22;fill-opacity:1;fill-rule:evenodd;stroke:none" transform="matrix(.13333 0 0 -.13333 0 257.333)"></path><path d="M266.223 735.961s-21.414 38.375-41.942 39.266c-17.828.773-28.554-13.383-28.554-13.383s-12.942 60.234-20.969 106.636c-8.031 46.403-6.692 91.469-6.692 91.469h787.075l1.336-569.34h-76.965l.668 337.329s-21.414 54.207-58.231 54.207c-34.801 0-56.883-48.192-56.883-48.192l.668-340.66h-91.691v343.34s-26.773 44.844-56.891 44.844c-37.48 0-59.566-45.516-59.566-45.516V388.605H469.91v336.649s-24.094 48.191-56.887 48.191c-37.484 0-58.898-38.156-58.898-38.156V471.594H338.73s-24.761 32.793-44.843 61.578c-20.078 28.777-27.438 44.84-27.438 44.84z" style="fill:#f7d5a4;fill-opacity:1;fill-rule:evenodd;stroke:none" transform="matrix(.13333 0 0 -.13333 0 257.333)"></path><path d="M878.172 708.52v-4.016h78.976v4.016zM877.5 660.336v-4.016h78.977v4.016zM877.5 614.82v-4.011h78.977v4.011zM876.832 565.961v-4.012h79.422v4.012zM877.5 520.453v-4.015h78.977v4.015zM876.832 480.297v-4.016h79.871v4.016zM878.172 442.816v-4.011h78.976v4.011zM877.5 405.336v-4.02h78.977v4.02zM671.363 708.52v-4.016h93.703v4.016zM673.594 660.336v-4.016h91.472v4.016zM673.371 614.156v-4.019h91.914v4.019zM673.371 565.297v-4.02h91.914v4.02zM674.043 520.453v-4.015h91.242v4.015zM673.594 479.629v-4.02h91.918v4.02zM673.816 442.145v-4.012h91.696v4.012zM674.043 405.336v-4.02h91.691v4.02zM467.23 478.957v-4.016h90.356v4.016zM467.23 707.852v-4.012h90.356v4.012zM466.563 660.336v-4.016h90.351v4.016zM466.563 614.156v-4.019h91.023v4.019zM467.23 565.961v-4.012h90.356v4.012zM467.23 520.453v-4.015h90.356v4.015zM467.23 443.488v-4.015h90.356v4.015zM467.902 405.336v-4.02h89.684v4.02zM263.102 707.852v-4.012h91.023v4.012zM263.102 660.336v-4.016h91.023v4.016zM263.773 614.156v-4.019h90.352v4.019zM271.805 565.297v-4.02h82.32v4.02zM298.574 521.121v-4.012h55.551v4.012zM327.352 480.297v-4.016h26.773v4.016zM166.277 928.047v-4.016h791.539v4.016zM168.73 879.859v-4.019h789.758v4.019zM177.434 831.672v-4.016h779.043v4.016zM906.953 790.844v-4.016h30.789v4.016zM703.711 790.844v-4.016h33.019v4.016zM494.004 791.516V787.5h36.367v4.016zM294.781 791.516V787.5h34.578v4.016z" style="fill:#c75f22;fill-opacity:1;fill-rule:evenodd;stroke:none" transform="matrix(.13333 0 0 -.13333 0 257.333)"></path><path d="M307.273 707.184v-48.856h4.016v48.856zM307.273 879.191v-48.859h4.016v48.859zM247.707 927.379v-48.856h4.016v48.856zM199.52 877.852v-48.856h4.015v48.856zM307.273 612.816v-48.859h4.016v48.859zM362.156 926.715v-48.863h4.016v48.863zM406.328 879.191v-48.859h4.016v48.859zM459.203 927.379v-48.856h4.016v48.856zM510.734 877.852v-48.856h4.02v48.856zM510.734 707.184v-48.856h4.02v48.856zM510.734 613.484v-48.855h4.02v48.855zM510.734 519.785v-43.504h4.02v43.504zM510.734 442.145v-38.813h4.02v38.813zM308.613 959.949v-34.578h4.016v34.578zM510.066 959.727v-34.356h4.016v34.356zM574.988 927.379v-48.856H579v48.856zM625.184 879.191v-48.859h4.015v48.859zM718.215 706.516V657.66h4.012v48.856zM718.215 613.484v-48.187h4.012v48.187zM718.215 519.785v-42.832h4.012v42.832zM718.215 441.258v-37.926h4.012v37.926zM725.574 879.191v-48.859h4.02v48.859zM670.027 927.379v-48.856h4.016v48.856zM766.398 928.047v-48.856h4.02v48.856zM819.273 877.852v-48.856h4.02v48.856zM866.797 926.715v-48.863h4.016v48.863zM915.652 878.523v-48.859h4.016v48.859zM918.328 707.852V659h4.016v48.852zM725.574 959.949v-33.234h4.02v33.234zM935.734 959.727v-33.012h4.012v33.012zM918.996 612.148v-48.855h4.02v48.855zM918.996 519.785v-42.168h4.02v42.168zM918.996 442.145V401.32h4.02v40.825zM922.543 759.695l-45.07-31.23 2.289-3.297s41.554 28.801 43.851 30.395c2.172-1.7 32.301-25.2 32.301-25.2l2.469 3.172-34.629 27.008zM718.609 760.578l-46.402-33.019 1.387-4.309s43.871 31.582 46.144 33.203c2.231-1.683 45.328-34.547 45.328-34.547l.219 4.688-45.027 34.172zM511.117 759.668l-45.066-32.793 2.363-3.242s41.641 30.297 43.883 31.933c2.242-1.636 45.289-32.765 45.289-32.765v4.683l-45.289 33.051zM310.105 760.117l-48.183-35.023 2.359-3.246s44.649 32.453 46.969 34.136c2.254-1.746 42.875-33.183 42.875-33.183l-.227 4.91-42.57 33.297z" style="fill:#c75f22;fill-opacity:1;fill-rule:evenodd;stroke:none" transform="matrix(.13333 0 0 -.13333 0 257.333)"></path><path d="M934.754 786.641c-9.473-13.536-12.879-26.875-13.02-27.434l3.899-.977c.031.129 3.387 13.211 12.414 26.11 7.414 10.59 20.226 20.898 20.359 20.996l-2.511 3.141c-.543-.434-13.387-10.758-21.141-21.836" style="fill:#c75f22;fill-opacity:1;fill-rule:evenodd;stroke:none" transform="matrix(.13333 0 0 -.13333 0 257.333)"></path><path d="M740.398 795.535c-16.062-17.828-22.468-35.398-22.738-36.137l3.781-1.359c.25.699 25.903 69.613 100.508 69.613 32.094 0 58.629-11.664 78.871-34.664 15.157-17.226 20.895-34.711 20.95-34.886l3.828 1.23c-.239.742-6 18.34-21.653 36.184-14.472 16.492-40.445 36.152-81.996 36.152-40.492 0-66.699-19.652-81.551-36.133" style="fill:#c75f22;fill-opacity:1;fill-rule:evenodd;stroke:none" transform="matrix(.13333 0 0 -.13333 0 257.333)"></path><path d="M533.367 795.207c-16.375-17.988-22.914-35.727-23.179-36.477l3.777-1.367c.254.707 26.414 70.293 102.523 70.293 32.739 0 59.809-11.781 80.457-35.011 15.453-17.391 21.309-35.04 21.368-35.211l3.82 1.234c-.242.746-6.117 18.508-22.078 36.52-14.746 16.644-41.219 36.484-83.567 36.484-41.273 0-67.984-19.832-83.121-36.465" style="fill:#c75f22;fill-opacity:1;fill-rule:evenodd;stroke:none" transform="matrix(.13333 0 0 -.13333 0 257.333)"></path><path d="M330.621 794.164c-15.945-18.484-22.305-36.703-22.57-37.465l3.801-1.308c.246.722 25.73 72.265 99.828 72.265 31.867 0 58.211-12.105 78.32-35.98 15.063-17.887 20.77-36.043 20.824-36.227l3.84 1.184c-.234.765-5.949 19.004-21.496 37.508-14.375 17.125-40.188 37.531-81.488 37.531-40.258 0-66.301-20.399-81.059-37.508" style="fill:#c75f22;fill-opacity:1;fill-rule:evenodd;stroke:none" transform="matrix(.13333 0 0 -.13333 0 257.333)"></path><path d="M223.59 831.668c-44.36-.477-45.945-3.277-46.824-4.684l3.343-5.351c.059.066 1.196 5.57 43.524 6.019 60.062.641 85.515-68.902 85.762-69.605l3.785 1.348c-.258.722-26.641 72.945-89.59 72.273M587.113 825.082l14.055-48.184 3.855 1.125-14.05 48.184zM379.008 824.953l19.859-53.984 3.766 1.383-19.856 53.984zM333.945 794.797l37.707-38.594 2.871 2.801-37.707 38.594z" style="fill:#c75f22;fill-opacity:1;fill-rule:evenodd;stroke:none" transform="matrix(.13333 0 0 -.13333 0 257.333)"></path><path d="m250.633 756.215 3.078-2.574 36.59 43.726-3.082 2.574zM219.684 774.473l3.843-1.168 16.731 55.105-3.844 1.164zM447.008 754.043l2.969-2.699 39.492 43.504-2.977 2.699zM427.797 767.867l3.914-.898 13.387 58.226-3.918.899zM630.637 778.078l3.816-1.234 15.395 47.515-3.817 1.239zM653.512 760.645l3.133-2.512L691 800.965l-3.129 2.515zM539.945 798.973l32.125-40.828 3.157 2.484-32.125 40.828zM740.289 792.703l39.266-35.691 2.695 2.972-39.262 35.692zM781.34 821.406l22.082-44.176 3.594 1.797-22.086 44.168zM830.27 779.75l3.886-1.004 12.5 48.406-3.894 1zM858.672 760.758l3.301-2.293 31.906 45.957-3.301 2.293z" style="fill:#c75f22;fill-opacity:1;fill-rule:evenodd;stroke:none" transform="matrix(.13333 0 0 -.13333 0 257.333)"></path><path d="M162.582 963.973c0-441.891 359.504-801.399 801.395-801.399 441.673 0 801.003 359.508 801.003 801.399 0 107.877-21.23 212.637-63.1 311.377-40.43 95.33-98.26 181.01-171.9 254.65-73.63 73.64-159.31 131.47-254.64 171.89-98.74 41.87-203.49 63.09-311.363 63.09-441.891 0-801.395-359.32-801.395-801.007m16.059 0c0 432.827 352.3 784.947 785.336 784.947 105.703 0 208.343-20.8 305.093-61.82 93.43-39.61 177.39-96.29 249.56-168.46s128.85-156.14 168.46-249.56c41.02-96.75 61.83-199.4 61.83-305.107 0-433.035-352.13-785.332-784.943-785.332-433.036 0-785.336 352.297-785.336 785.332" style="fill:#231f20;fill-opacity:1;fill-rule:evenodd;stroke:none" transform="matrix(.13333 0 0 -.13333 0 257.333)"></path><path d="M965.848 175.105h-10.707V1759.96h10.707z" style="fill:#231f20;fill-opacity:1;fill-rule:evenodd;stroke:none" transform="matrix(.13333 0 0 -.13333 0 257.333)"></path><path d="M798.664 1578.02c0-89.25 72.609-161.86 161.863-161.86 89.253 0 161.863 72.61 161.863 161.86 0 89.26-72.61 161.86-161.863 161.86-89.254 0-161.863-72.6-161.863-161.86" style="fill:#f7d5a4;fill-opacity:1;fill-rule:evenodd;stroke:none" transform="matrix(.13333 0 0 -.13333 0 257.333)"></path><path d="M1104.23 1547.86c-6.95-7.84-12.02-14.66-12.23-14.94l5.37-3.99c.05.06 5.12 6.88 11.87 14.5 7.47 8.45 9.88 10.87 9.9 10.9l-4.73 4.72c-.11-.09-2.51-2.51-10.18-11.19M1104.03 1571.77c-6.09-6.09-11.09-12.41-11.3-12.67l5.25-4.15c.05.06 4.98 6.28 10.78 12.09 4.4 4.39 10.17 9.51 10.23 9.57l-4.44 5.01c-.24-.22-5.98-5.31-10.52-9.85M1102.96 1588.77c-5.36-5.7-8.7-9.69-8.84-9.86l5.15-4.28c.03.03 3.35 4.01 8.56 9.55 5.03 5.34 8.54 7.93 8.57 7.96l-3.94 5.4c-.16-.11-4-2.93-9.5-8.77M1090.16 1601.73l-11.78-13.8 5.17-4.25 11.65 13.64c4.66 5.32 11.36 11.37 11.43 11.43l-4.48 4.97c-.28-.25-7.06-6.36-11.99-11.99M1081.07 1620.07l-10.68-12.68 5.09-4.35 10.73 12.75c6.39 7.66 13.19 13.21 13.26 13.26l-4.21 5.2c-.3-.24-7.36-5.98-14.19-14.18M1077.46 1634.88c-7.72-8.74-12.08-14.74-12.26-14.99l5.43-3.93c.04.07 4.36 6.02 11.83 14.47 6.57 7.42 11.48 12.14 11.53 12.19l-4.63 4.83c-.2-.2-5.15-4.94-11.9-12.57M1069.48 1642.63c-8.41-9.08-11.18-12.87-11.3-13.03l5.41-3.94c.03.04 2.73 3.72 10.8 12.42 8.16 8.82 13.16 13.5 13.21 13.55l-4.57 4.89c-.21-.2-5.2-4.88-13.55-13.89M1022.37 1611.62c-18.43-40.55-21.91-77.36-22.04-78.91l6.67-.6c.03.37 3.53 37.28 21.46 76.74 14.37 31.62 35.25 52.69 35.46 52.89l-4.72 4.74c-.9-.89-21.93-22.08-36.83-54.86M996.449 1583.1c-10.019-32.92-11.769-49.66-11.844-50.36l6.661-.67c.015.17 1.789 16.89 11.584 49.08 7.67 25.2 18.03 44.36 18.14 44.55l-5.88 3.2c-.44-.8-10.78-19.91-18.661-45.8M980.695 1581.03c-6.988-24.65-10.746-46.32-10.781-46.53l6.594-1.13c.035.21 3.734 21.54 10.633 45.83 6.773 23.88 14.889 36.44 14.969 36.56l-5.594 3.67c-.352-.54-8.731-13.43-15.821-38.4M959.172 1631.13c-23.734-47.81-29.215-88.04-29.438-89.74l6.641-.87c.051.41 5.582 40.89 28.793 87.64 19.199 38.66 46.732 69.55 47.012 69.85l-4.98 4.47c-.29-.31-28.407-31.84-48.028-71.35M921.406 1568.72c-1.699-8.51-2.054-15.26-2.07-15.54l6.687-.34c.004.06.344 6.57 1.946 14.57 1.515 7.58 4.855 12.85 4.886 12.91l-5.621 3.62c-.168-.25-4.05-6.33-5.828-15.22M908.363 1566.77c-1.699-7.84-2.383-17.66-2.406-18.07l6.676-.46c.008.1.676 9.75 2.273 17.11 1.703 7.83 5.77 16.99 5.813 17.08l-6.114 2.73c-.175-.4-4.386-9.87-6.242-18.39M889.629 1575.14c-1.688-7.77-2.691-16.03-2.731-16.38l6.645-.8c.012.09 1.008 8.31 2.625 15.75 1.512 6.96 3.91 10.98 3.937 11.02l-5.707 3.5c-.117-.21-2.996-4.93-4.769-13.09" style="fill:#c75f22;fill-opacity:1;fill-rule:evenodd;stroke:none" transform="matrix(.13333 0 0 -.13333 0 257.333)"></path><path d="m1025.46 1596.05 5.93-3.09 15.74 30.11-5.94 3.1zM1029.6 1576.52l5.69-3.52 22.42 36.14-5.69 3.53zM1037.6 1562.09l5.75-3.43 21.75 36.47-5.75 3.43zM1041.01 1542.44l5.62-3.63 26.1 40.49-5.62 3.63zM1057.61 1534l5.89-3.18 16.06 29.63-5.89 3.19zM1054.01 1504.21l5.72-3.47 25.77 42.5-5.72 3.47zM1051.39 1479.88l5.61-3.66 30.45 46.86-5.61 3.64zM1054.47 1464.58l5.47-3.85 30.79 43.84-5.48 3.85z" style="fill:#c75f22;fill-opacity:1;fill-rule:evenodd;stroke:none" transform="matrix(.13333 0 0 -.13333 0 257.333)"></path><path d="M1034.88 1629.5c.2-.18 19.76-18.22 36.61-61.31 14.24-36.41 13.17-82.23 13.16-82.69l6.69-.18c.05 1.93 1.13 47.61-13.62 85.31-17.49 44.73-37.51 63.09-38.35 63.85zM861.617 1512.5c-6.496-3.25-12.105-5.57-12.16-5.59l2.547-6.19c.242.1 5.879 2.43 12.609 5.79 7.313 3.66 11.703 9.45 11.887 9.69l-5.352 4.02c-.035-.05-3.675-4.79-9.531-7.72M881.004 1506.27c-7.649-5.1-15.422-8.37-15.5-8.4l2.578-6.18c.34.15 8.426 3.54 16.633 9.01 8.289 5.52 14.113 11.99 14.359 12.26l-4.988 4.47c-.055-.06-5.531-6.13-13.082-11.16M900.82 1495.94c-8.664-5.46-17.465-9.06-17.55-9.1l2.519-6.2c.383.16 9.414 3.86 18.598 9.63 5.992 3.78 12.699 10.58 12.98 10.87l-4.773 4.69c-.059-.07-6.446-6.53-11.774-9.89M929.496 1495.2c-14.152-9.65-28.191-14.61-28.332-14.66l2.199-6.32c.61.21 14.985 5.28 29.903 15.45 14.789 10.09 24.789 19.71 25.203 20.11l-4.649 4.81c-.097-.09-10.035-9.64-24.324-19.39M943.277 1489.22c-12.957-8.42-28.082-14.71-28.234-14.77l2.559-6.18c.636.26 15.832 6.57 29.32 15.34 13.437 8.73 26.926 20.54 27.492 21.04l-4.414 5.03c-.137-.12-13.703-12-26.723-20.46M970.297 1486.48c-19.137-13.29-32.332-18.66-32.461-18.71l2.484-6.21c.563.22 13.969 5.65 33.797 19.43 19.762 13.73 30.143 24.04 30.573 24.47l-4.729 4.74c-.106-.1-10.441-10.36-29.664-23.72M985.695 1480.65c-16.027-10.18-30.968-16.17-31.121-16.22l2.469-6.23c.629.26 15.656 6.27 32.238 16.8 22.829 14.5 30.319 26.57 30.629 27.08l-5.71 3.49c-.07-.12-7.17-11.37-28.505-24.92M1001.32 1475.97c-13.265-8.41-26.285-13.49-26.418-13.54l2.418-6.24c.555.21 13.739 5.35 27.58 14.13 13.97 8.86 21.06 16.91 21.36 17.24l-5.04 4.41c-.06-.08-6.83-7.71-19.9-16M1017.53 1470.85c-6.37-5.09-11.42-7.92-11.47-7.94l3.24-5.86c.22.13 5.57 3.1 12.41 8.57 5.04 4.04 10.7 10.65 10.93 10.92l-5.09 4.35c-.05-.07-5.48-6.41-10.02-10.04M857.156 1459.69l3.883-5.45 12.715 9.03-3.879 5.46zM886.023 1450.38l3.711-5.57 20.079 13.39-3.711 5.57zM896.781 1436.7l3.606-5.65 20.414 13.06-3.602 5.64zM931.324 1438.52l-12.996-9.99 4.016-5.36 13.109 10.08c6.258 4.89 12.356 12.62 12.61 12.95l-5.258 4.14c-.055-.08-5.871-7.43-11.481-11.82M956.609 1437.73c-10.828-9.52-15.89-13.59-15.945-13.62l4.184-5.23c.207.17 5.211 4.17 16.183 13.82 11.149 9.8 14.989 14.63 15.149 14.84l-5.262 4.14c-.035-.05-3.727-4.66-14.309-13.95M973.336 1436.72c-8.5-7.52-16.793-13.84-16.875-13.9l4.055-5.33c.082.06 8.562 6.53 17.254 14.21 8.839 7.82 14.582 15.21 14.82 15.52l-5.293 4.1c-.059-.07-5.621-7.23-13.961-14.6M995.945 1437.25c-7.656-7.66-14.125-11.91-14.187-11.95l3.648-5.61c.289.19 7.082 4.64 15.274 12.83 8.45 8.44 11.03 15.3 11.14 15.59l-6.27 2.34c-.02-.06-2.29-5.89-9.605-13.2M1014.25 1438.49c-5.82-6.33-11.8-8.85-11.86-8.88l2.54-6.2c.29.13 7.35 3.05 14.25 10.54 6.82 7.42 9.78 13.24 9.89 13.49l-5.98 3c-.02-.05-2.7-5.29-8.84-11.95" style="fill:#c75f22;fill-opacity:1;fill-rule:evenodd;stroke:none" transform="matrix(.13333 0 0 -.13333 0 257.333)"></path><path d="M840.852 1533.43c-8.844-27.7-4.329-56.07-4.129-57.26l6.601 1.08c-.023.14-1.195 7.55-1.195 18.27 0 10.11 1.047 23.18 5.098 35.87 7.363 23.05 19.464 35.63 22.5 35.98.453-.18 1.578-1.02 2.589-1.78 6.047-4.52 18.629-13.94 57.707-26.48 33.024-10.58 53.598-9.18 65.883-8.33 4.564.31 8.164.56 10.114-.04 7.88-2.45 20.56-21.71 24.47-41.95 3.61-18.61 2.64-48.47 2.62-48.77l6.69-.23c.05 1.25 1.01 30.92-2.73 50.27-4.18 21.57-17.76 43.57-29.07 47.07-3.14.98-7.08.7-12.551.33-11.808-.82-31.586-2.17-63.379 8.03-38.011 12.19-50.437 21.49-55.738 25.46-2.527 1.89-4.195 3.14-6.527 3.14-8.657 0-21.918-18.63-28.953-40.66M839.59 1616.87c-21.922-23.41-30.277-63.51-30.621-65.2l6.554-1.33c.086.39 8.34 39.94 28.95 61.96 32.761 34.98 55.207 35.41 55.429 35.41l.067 6.7c-1.016.01-25.309-.08-60.379-37.54" style="fill:#c75f22;fill-opacity:1;fill-rule:evenodd;stroke:none" transform="matrix(.13333 0 0 -.13333 0 257.333)"></path><path d="M859.871 1618.68c-18.195-12.6-23.203-30.24-23.406-30.98l6.449-1.79c.043.16 4.652 16.11 20.766 27.26 15.925 11.03 24.043 11.12 24.129 11.12l.199 6.69c-1.004.04-10.332.02-28.137-12.3M854.805 1590.26c-10.606-9.9-13.535-20.2-13.657-20.63l6.45-1.79c.023.09 2.629 8.99 11.777 17.52 8.738 8.16 15.734 8.14 16.027 8.14l.227 6.69c-.399.02-9.887.27-20.824-9.93M914.07 1715.59c-25.543-4.48-35.226-14.27-35.629-14.69l4.801-4.66c.086.08 8.848 8.7 31.985 12.76 22.32 3.92 27.773 2.26 27.996 2.19l-.203.08 2.824 6.07c-1.403.65-7.832 2.46-31.774-1.75" style="fill:#c75f22;fill-opacity:1;fill-rule:evenodd;stroke:none" transform="matrix(.13333 0 0 -.13333 0 257.333)"></path><path d="M899.332 1658.02c-27.754-50.49-32.644-85.37-32.844-86.83l6.637-.89c.043.35 4.977 35.21 32.074 84.5 16.27 29.59 46.098 62.61 46.399 62.95l-4.961 4.49c-1.242-1.36-30.653-33.92-47.305-64.22M837.59 1509.25c1.574-1.28 39.23-31.3 94.832-46.04 55.769-14.78 103.568-2.32 105.568-1.78l-1.73 6.47c-.47-.13-48.147-12.52-102.127 1.78-54.156 14.36-91.969 44.47-92.344 44.77z" style="fill:#c75f22;fill-opacity:1;fill-rule:evenodd;stroke:none" transform="matrix(.13333 0 0 -.13333 0 257.333)" data-source="https://football-logos.cc"></path><!-- source: https://football-logos.cc --></svg>