<svg xmlns="http://www.w3.org/2000/svg" xmlns:xlink="http://www.w3.org/1999/xlink" viewBox="18.3 91.13 558.68 659.63"><!-- Source: https://football-logos.cc --><path d="M298.709 209.147c-13.9 6.182-27.65 8.526-41.403 7.804-13.561-.712-27.1-4.404-40.77-10.333l-30.44 41.226c7.424 15.133 13.422 31.022 17.625 48.138 4.274 17.4 6.692 36.07 6.87 56.505.064 7.237-.858 14.184-2.4 20.96-1.542 6.77-3.692 13.345-6.094 19.86-3.922 10.64-7.16 20.93-9.448 30.528-2.12 8.887-3.425 17.158-3.707 24.535-.22 5.772.396 11.21 1.658 16.154 1.342 5.263 3.417 9.954 5.99 13.884l-.002.002 1.171 1.68c7.864 11.276 15.808 22.668 28.685 31.762 4.716 3.33 9.613 5.799 14.745 7.384 5.134 1.586 10.515 2.296 16.197 2.111 4.214-.137 8.478-.145 12.874-.077 4.421.068 8.92.211 13.62.377 3.156.112 6.22 1.17 9.088 2.988 2.467 1.565 4.796 3.7 6.912 6.28 2.04-2.618 4.378-4.727 6.948-6.286 3.076-1.866 6.473-2.935 10.08-3.132 5.633-.308 11.845-.345 18.556-.384 2.647-.015 5.375-.032 8.2-.066 7.603-.092 13.72-1.586 19.03-3.913 5.333-2.337 9.885-5.528 14.317-8.988 5.244-4.094 9.746-8.819 13.857-13.985 4.138-5.2 7.879-10.845 11.58-16.742 3.497-5.575 5.575-11.317 6.564-17.153.994-5.86.895-11.826.037-17.82-1.278-8.932-3.218-17.755-5.617-26.56-2.404-8.823-5.278-17.662-8.416-26.592-2.879-8.193-5.053-16.518-6.313-25.092a115.6 115.6 0 0 1-.833-26.659c1.318-15.632 3.594-30.998 7.38-46.068 3.72-14.8 8.903-29.317 16.076-43.52l-30.48-40.878c-12.258 6.006-25.945 9.41-40.138 9.81-13.81.388-28.095-2.068-42-7.74m-41.26 4.98c13.494.708 26.993-1.635 40.654-7.81l.556-.25.568.234c13.709 5.683 27.798 8.145 41.403 7.762 14.18-.398 27.843-3.888 40.01-10.041l1.06-.537.711.952 31.707 42.525.523.703-.402.787c-7.266 14.23-12.499 28.814-16.242 43.71-3.745 14.902-5.997 30.12-7.304 45.614-.759 9-.42 17.634.811 26.016 1.234 8.402 3.363 16.554 6.18 24.571 3.15 8.963 6.04 17.857 8.472 26.78 2.436 8.941 4.403 17.881 5.694 26.905.896 6.265.998 12.519-.047 18.683-1.05 6.19-3.254 12.28-6.964 18.194-3.754 5.982-7.55 11.71-11.756 16.996-4.233 5.32-8.886 10.198-14.334 14.45-4.592 3.586-9.324 6.9-14.926 9.354-5.626 2.465-12.097 4.048-20.127 4.146-2.803.033-5.552.05-8.221.065-6.633.04-12.774.076-18.423.385a18.7 18.7 0 0 0-8.763 2.722c-2.705 1.64-5.139 4-7.203 7.013l-1.123 1.637-1.18-1.592c-2.207-2.976-4.688-5.398-7.332-7.074-2.458-1.558-5.047-2.464-7.671-2.556-4.73-.168-9.232-.312-13.553-.378-4.346-.067-8.567-.059-12.753.078-6.001.195-11.687-.556-17.115-2.233-5.43-1.677-10.591-4.275-15.543-7.772-13.27-9.372-21.362-20.975-29.37-32.46l-1.197-1.714-.028-.034c-2.74-4.185-4.946-9.165-6.368-14.737-1.32-5.178-1.966-10.883-1.734-16.95.29-7.604 1.619-16.057 3.773-25.089 2.313-9.7 5.584-20.098 9.547-30.849 2.374-6.438 4.493-12.91 5.994-19.505 1.5-6.589 2.396-13.326 2.335-20.319-.176-20.193-2.567-38.647-6.793-55.852-4.223-17.197-10.283-33.146-17.795-48.334l-.381-.771.514-.697 31.623-42.827.673-.91 1.033.457c13.728 6.064 27.28 9.843 40.808 10.552" style="fill:#232a3b;fill-rule:evenodd" data-source="https://football-logos.cc"></path><path d="M298.72 200.527c-13.997 7.034-28.377 9.472-42.8 8.432-14.133-1.02-28.285-5.383-42.137-12.028l-36.997 49.277c7.712 15.744 13.69 31.063 17.976 47.714 4.388 17.041 6.992 35.437 7.859 57.065.308 7.689-.787 14.94-2.603 22.01-1.81 7.05-4.289 13.795-6.804 20.617-3.813 10.343-6.725 20.65-8.776 30.37-2.208 10.467-3.424 20.25-3.696 28.666-.174 5.414.597 10.648 2.157 15.685 1.668 5.382 4.24 10.546 7.527 15.475l.058.083c4.023 6.667 8.88 13.392 14.66 19.71 5.093 5.57 10.926 10.854 17.565 15.542 4.888 3.452 10.105 6.032 15.567 7.725 5.497 1.704 11.252 2.52 17.177 2.43a549.215 549.215 0 0 1 27.97.278c6.486.23 12 7.35 16.677 13.692l.325-.444v-.008c4.49-6.146 9.95-13.621 17.456-13.81 5.222-.13 10.99-.18 17.182-.232 3.486-.03 7.108-.06 10.878-.109 7.458-.095 13.918-1.556 19.653-3.883 5.763-2.339 10.801-5.552 15.39-9.134 5.462-4.264 10.29-9.244 14.739-14.68 4.483-5.48 8.561-11.4 12.506-17.514 4.358-6.753 6.99-12.885 8.408-18.879 1.42-5.994 1.636-11.895 1.163-18.175-.705-9.346-2.56-18.867-5.045-28.395-2.485-9.525-5.635-19.161-8.902-28.663-.88-2.56-1.674-4.726-2.413-6.745-4.635-12.655-7.269-19.847-5.173-47.043 1.21-15.703 3.608-30.548 7.605-45.285 3.895-14.363 9.309-28.622 16.62-43.467l-37.044-49.75c-13.07 6.891-27.954 11.468-43.298 12.156-13.778.618-27.914-1.899-41.43-8.682zm-42.5 4.196c14.008 1.01 27.968-1.431 41.528-8.46l.972-.504.972.503c13.11 6.795 26.868 9.314 40.275 8.712 15.288-.685 30.138-5.427 43.065-12.515l1.618-.887 1.106 1.485 38.917 52.265.779 1.046-.58 1.163c-7.474 15.004-12.973 29.377-16.898 43.853-3.927 14.478-6.282 29.064-7.471 44.487-2.026 26.29.492 33.167 4.923 45.266.779 2.126 1.614 4.408 2.446 6.828 3.269 9.504 6.433 19.196 8.985 28.979 2.55 9.78 4.455 19.552 5.178 29.142.504 6.686.266 12.996-1.262 19.454-1.529 6.46-4.338 13.026-8.973 20.208-4.04 6.26-8.212 12.318-12.788 17.912-4.612 5.636-9.656 10.829-15.42 15.328-4.885 3.814-10.253 7.236-16.403 9.731-6.177 2.507-13.143 4.081-21.198 4.184-3.738.047-7.385.078-10.895.108-6.139.052-11.86.101-17.115.233-5.408.136-10.146 6.73-14.135 12.082-.399.535-2.112 2.455-2.361 2.699l-1.42 1.392-1.471-1.436c-.746-.728-.972-1.1-1.195-1.404-4.238-5.799-9.398-12.596-14.126-12.763a546 546 0 0 0-27.77-.278c-6.372.096-12.561-.78-18.473-2.613-5.902-1.83-11.52-4.605-16.763-8.307-6.874-4.854-12.936-10.349-18.246-16.156-6.017-6.579-11.041-13.524-15.174-20.375h.001c-3.484-5.24-6.218-10.747-8.001-16.504-1.694-5.469-2.53-11.16-2.34-17.064.28-8.668 1.523-18.704 3.779-29.397a223.6 223.6 0 0 1 8.942-30.967c2.499-6.78 4.961-13.478 6.688-20.202 1.72-6.702 2.76-13.558 2.47-20.798-.856-21.332-3.415-39.443-7.726-56.185-4.306-16.722-10.375-32.125-18.252-48.05l-.576-1.166.784-1.044 38.83-51.718 1.057-1.408 1.575.777c13.882 6.843 28.05 11.348 42.142 12.364" style="fill:#232a3b;fill-rule:evenodd"></path><path d="M298.709 209.148c-13.9 6.18-27.65 8.525-41.403 7.803-13.561-.712-27.1-4.404-40.77-10.333l-30.44 41.226c7.424 15.133 13.422 31.022 17.625 48.138 4.274 17.4 6.692 36.07 6.87 56.505.064 7.237-.858 14.184-2.4 20.96-1.542 6.77-3.692 13.345-6.094 19.86-3.922 10.64-7.16 20.93-9.448 30.528-2.12 8.887-3.425 17.158-3.707 24.535-.22 5.772.396 11.21 1.658 16.154 1.342 5.263 3.417 9.954 5.988 13.886l1.171 1.68c7.864 11.276 15.808 22.668 28.684 31.762 4.716 3.33 9.614 5.798 14.746 7.384 5.134 1.586 10.515 2.296 16.197 2.111 4.214-.137 8.478-.145 12.874-.078 4.421.068 8.92.212 13.62.378 3.156.112 6.22 1.17 9.088 2.988 2.467 1.564 4.796 3.7 6.912 6.28 2.04-2.618 4.378-4.727 6.947-6.286 3.077-1.866 6.474-2.935 10.08-3.132 5.634-.308 11.846-.345 18.557-.384 2.647-.015 5.375-.032 8.2-.066 7.603-.092 13.72-1.586 19.03-3.913 5.333-2.337 9.885-5.528 14.317-8.988 5.244-4.094 9.746-8.819 13.857-13.985 4.138-5.2 7.878-10.845 11.58-16.742 3.497-5.575 5.575-11.317 6.564-17.153.994-5.86.894-11.826.037-17.82-1.278-8.932-3.218-17.755-5.617-26.56-2.404-8.823-5.279-17.662-8.417-26.593-2.878-8.193-5.053-16.517-6.312-25.092a115.6 115.6 0 0 1-.833-26.658c1.318-15.632 3.594-30.999 7.38-46.068 3.72-14.8 8.903-29.317 16.075-43.52l-30.479-40.878c-12.258 6.006-25.946 9.41-40.138 9.81-13.811.388-28.095-2.068-42-7.74" style="fill:#fff;fill-rule:evenodd"></path><path d="M312.759 398.227c.581 1.713.945 4.896.322 6.645-1.661.899-1.762.276-3.426.017-2.511-.392-10.857.988-12.121-1.224-.336-2.549.093-2.822.569-4.784.396-1.633.335-3.438.281-5.264-.051-1.772-.029-3.66-.02-5.44.034-6.753 1.526-5.25 3.908-4.6l.709.522c.368.665.34.464.292 1.005 1.012.317 1.404.858 1.992 1.55.661.78 1.306 1.188 1.921 1.895.656.754 2.901 3.875 2.97 4.653l.919.99c.269.416.409.943.563 1.362.38 1.027.734 1.534 1.12 2.673m-9.747-31.495c-.582 3.497-.59 10.9-2.798 11.896-3.138.348-4.133-2.168-4.322-4.873-.233-3.336 1.236-6.499 1.32-7.88.125-1.634.805-2.16.981-3.806.013-.006.152.814.252-.552l1.378-1.791c.892-1.555 3.313-5.471 3.554-6.632.57.067.134.2.568-.324.31-.375.209-.316.28-.601l1.21-.94c2.9-3.148 3.41-2.11 10.823-2.182 7.521-.073 6.83-.63 9.536 5.177.86 1.843 1.538 3.274 2.057 5.625.676 3.066 2.485 9.38 2.765 11.746.51 4.32-1.002 3.896-2.004 5.227-5.992.083-6.606 3.27-6.854-8.228-.088-4.046-1.506-6.632-1.17-7.799l-1.23-.295c-.17 2.72.998 7.716 1.076 11.086.033 1.425-.256 2.97-.142 4.311l-.765.86c-2.691 4.115-6.034 4.64-6.316-.536-.27-4.958.653-10.503.094-15.265-1.792.558-2.884 6.004-2.986 7.636-.304 4.875.884 8.212-1.065 9.463-.211.86-1.77 2.273-4.37 1.902-1.727-3.45-.872-7.67-.029-11.364.88-3.849.48-1.961 1.585-4.858.75-1.966 1.632-2.56 1.352-5.428-.811.028-.648-.04-1.054.264-.633 1.82-1.904 2.537-2.414 4.562-.312.223-.215.196-.02.1-.3 1.511-1.047 2.029-1.292 3.5m18.604 42.825c-5.658.33-4.332-4.59-5.146-9.096-.607-3.363-1.977-9.428 3.504-9.03.223.342 1.889 2.573 1.901 2.585.18 1.428.712 2.546.918 3.725.482 2.759.484 5.832.19 8.625-.23 2.183-.41 1.737-1.367 3.191m4.425-12.886a3 3 0 0 0-.37-.247c.014-.017-.003-.09-.159-.325-.397-.602-.012.003-.289-.635-.339-.782.268-.217-.443-.912-.085-2.4-1.966-2.788-2.434-4.058-.416-1.127-.087-4.904-.077-6.409.036-5.112 2.675-3.458 5.478-4.194.997-.262 1.648-.335 2.822-.256 1.06 4.611 1.02 20.52.726 25.894-.33 1.65-.11 3.888.596 5.088 1.762 3 2.318 5.101 3.837 7.854l1.919 3.79c.856 1.97.119 3.246-.586 4.7-2.094 4.318.728 7.364-.122 10.382-.354 1.255-1.73 2.725-3.004 3.093-.188.34-.191.243-.42.233-.114 1.312-.489.896-2.255 2.228l-5.064 3.632c-.866.616-1.458 1.166-2.325 1.794-.872.294-.898.453-1.625.865l-.634.369c-.425.228-.175.222-.759.343-.16.918.168.313-1.686 1.83-.464.379-1.597 1.144-2.152 1.411-2.07.995-3.657.54-5.069-.779-.569-2.727.887-1.982 1.182-3.677.63-.22.009.29.84-.515 1.876-1.815.283-3.68 4.948-5.148 5.064-1.592 6.1-3.605 7.946-4.031 1.185-2.924 6.293-2.47 1.972-10.89-.917-1.786-1.324-3.068-2.325-3.616.302-1.7-1.587-2.81-1.408-5.182-.796-.067-.575-.11-.873-1.224a7.3 7.3 0 0 1-.267-1.624c-.08-1.379.437-2.585.112-3.653.313-.324.292-.257.589-.734.36-.578.163-.234.428-.964 1.05-2.885 1.771-2.334 2.087-5.54.336-3.398-1.323-6.493-1.136-8.893m7.438-4.958c.005-4.546-.38-8.883.316-13.174.02-.026.972-1.747 1.173-2.126.662-1.248.418-1.636.404-3.196-.103-2.054-.956-3.344-.659-5.495.68-1.627 5.3-.022 6.011.359 1.028.55 1.11.613 2.375.986 2.523.745 7.42 4.48 8.987 7.175 2.296 3.945 5.327 15.656 5.875 20.489.6 5.286.066 12.975-2.186 17.344-.805 1.563-1.515 3.332-1.24 5.344.488 3.558 4.94 11.177 6.765 12.924l.42.402c1.334 1.28.763.758 1.686 2.09l.114.158c.227.324.242.436.52.78.488 1.45 1.26 2.175 2.113 3.737.893 1.632.69 2.523.684 4.694-.02 8.224 4.952 22.377 2.201 27.743-3.724.54-2.598-3.341-3.21-5.55-.519-1.87-2.168-14.46-3.134-18.767-.234-1.044-.807-2.24-1.021-3.37-.853-.854-.143-.48-1.484-1.29-.425-.255-.67-.362-.99-.65-.422-.385-.377-.228-.455-.679-.86-.277-1.437-.663-1.895-1.311-.285-.402-.277-.597-.659-.967-.854-.828-.15-.273-1.044-.669.038-1.373-4.773-6.125-5.979-7.824-2.427-3.42-2.522-2.917-4.913-5.692-.506-.589-.757-1.134-1.348-1.718l-.832-.173c-.278-.813-1.894-2.926-2.519-4.242l-4.35-9.287c-2.27-3.547-1.732-13.08-1.726-18.045m25.987 21.568c2.378-7.506 1.086-14.134 2.03-17.127 3.151-.804 5.018 2.148 5.656 4.229.851 2.772.382 6.306-.097 9.159-1.168 6.961-2.477 8.01-4.228 12.861-.123.34-.306.802-.448.994-.436.59.005.224-.743.666l-.06.168c-.286 1.1.452.534-.745 1.063-.368.162-.657.097-1.007-.013-1.349-.424-2.472-3.926-2.58-4.757-.236-1.804 1.745-5.737 2.222-7.243m8.611 3.798c.404-1.844 1.433-3.277 1.677-5.25.598-4.844 1.188-8.4-.265-13.048-.116-.37-.95-2.59-.952-2.593l-1.531-1.646c-1.038-1.173-.938-1.261-2.167-2.17-1.464-1.083-1.583-.747-2.444-1.373l-1.07-1.153-.112-.157c-1.378-2.026-.854-3.92-1.366-5.758-.393-1.407-1.017-2.79.495-3.15.478-.112.257-.08.744-.046 1.593.108 4.953 2.304 6.68 3.226.658.35-.122.156 1.089.496-.014 1.07-.041.257.213.682.031.053.464.53.536.586.472.362.554.557 1.117.278l.06 1.232c.598.442 1.858 2.771 2.208 3.705l2.806 9.14c1.129 4.367.564 12.732 1.356 16.332s-.17.72 1.185 4.796c.543 1.633.55 3.374-.203 4.68l-3.023-.064c-.017 3.522.607 6.029.123 9.725-.413 3.163-.469 3.997-.353 7.038.19 4.999-3.842.517-4.593-1.074-.52-1.1-.995-1.555-1.463-2.645l-3.53-7.285c-.83-1.486-1.337-2.392-.948-4.185.31-1.429.64-2.09 1.489-2.503.094-1.47.393-.422.571-1.635zm15.159 14.705c1.317-5.154-2.464-9.856-2.809-16.136.127-4.099-.362-13.282-1.277-16.99-.148-.596-.145-.193-.363-1.239-.354-1.705-.27-2.636-1.342-3.263.064-.907-1.181-3.707-1.572-4.655-1.56-3.79-.902-1.326-2.304-4.234-.695-1.445-3.573-3.905-4.903-4.92-4.993-3.814-5.415-3.373-11.864-4.413-1.82-.294-2.857-3.239-4.846-4.966-.9-.781-1.286-.178-1.565-1.139-1.695-.422-4.125-2.688-5.841-3.34-.707-.27-1.223-.323-1.889-.64-.597-.286-.601-.388-1.48-.691-1.258-.436-2.07-.527-3.07-1.186-.841-4.854.983-5.783 1.51-7.065.872-2.112-.923-4.226-2.152-5.56-2.501-.428-5.776 1.1-7.852-.158-.87-1.695.416-2.402.91-3.918.19-.09.02.041.36-.274l.242-.245c.763-.813 1.379-1.58 1.311-2.642l.247-.378c1.766-3.417-.217-3.079 4.778-3.283 1.084-.044 1.883-.303 2.849-.656a24 24 0 0 0 2.436-1.035c2.017-1.002.88-.923 2.434-1.364 2.262-2.785 2.104-1.998 4.062-6.546 1.767-4.103 1.822-9.772.34-14.303-.4-1.218-1.415-2.52-2.357-3.128-3.034-1.954-7.44 1.578-8.593 1.718-.867 1.068-2.425 1.216-2.605-.639-.14-1.434.079-3.22.215-4.459.763-6.97 1.334-9.817-.257-16.551-.692-2.93-2-4.828-.475-7.342 2.582-4.258 4.304-7.38 4.41-13.826.079-4.886-1.823-7.695-6.538-7.513-2.419.093-3.29.37-3.863 1.1-.456-.038.056-.165-.635.033-1.178.338-.277.062-.528.315-2.18.432-1.957 1.235-4.686 1.065-.183-.24-.448-.521-.613-.708-1.171-1.328-1.514-1.48-1.844-2.498-.53-.327-1.097-.668-1.683-1.044-2.774-1.78-11.17-2.25-14.97 2.79-.144 2.62-.977.645-1.13 4.27-.188 4.381-.441 5.853 1.658 8.497 2.911 3.668 10.957-.515 12.261 3.162.935 2.636-1.639 5.15-2.703 7.296-1 .797-1.688 1.78-2.728 2.533-.747.54-2.314 1.75-2.786 2.225-.412.2-.35.157-.805.39l-.55.297c-.865.392-.338.29-1.583.44-1.062.204-6.174 3.118-4.266 6.658l2.243 3.717c1.066 1.503 1.61 2.141 1.485 4.532-.75.406-1.482.546-2.262.98-2.593 1.438-2.985 2.335-4.263 4.953-1.501 3.074-1.365 5.865-3.395 9.175l-1.509-.003c-1.163-1.352-3.856-2.837-5.813-2.55-.192-.632.306-.088-.549-.774-.125-.1-.663-.365-.874-.494-.53-.323-1.07-.62-1.223-1.252-1.233-.368-.856-.231-1.47-1.304-.284-.497-.495-1.075-.856-1.26-.934-3.882-1.583-1.908-1.896-5.177h-1.623l-.15-.037-.169-.038-.169-.018-.187-.02-.206-.018-.225-.056-.104-.019h-.194c-.658.652-2.132.434-3.344.396-.794-.025-1.519-.09-2.004-.41l-.017-.004h-.244l-.13-.02h-.095l-.112-.018h-.188l-.056-.019h-.337l-.057-.018h-.075l-.168-.02-.132-.018h-.15l-.15-.019h-.357l-.168-.019h-.206l-.206-.018h-.26c-.281 1.922-1.233 2.329-1.632 4.252l-.417.926c-.653.49-.795 1.129-2.083 1.394-1.024.212-2.141.138-3.163.068-1.104-.081-3.007.553-3.98.832-7.105 2.034-4.359 1.025-10.413 4.577-2.593 1.521-7.13-1.453-14.918 3.606l-.572.442c-.322 1.152.088.464-.87 1.368-.374.353-.612.523-1.02.888-.938.842-1.289.938-1.726 2.181-.76.234-1.838 2.208-2.192 3.044-1.877 4.44-1.882 9.301.798 12.9 1.929.131.992-.964 4.002-2.875 6.059-3.848 5.85-.752 7.285 3.166.156.426.068.427.276.832l.749.885c-.32 2.61 2.53 5.952 3.67 8.262l3.83 6.047c1.285 1.368 1.166 2.388 2.57 5.006l.097.173.095.172.095.169.417.918c.715 1.499 2.973 2.719 3.905 3.027.956 1.35 2.298 1.147 3.21 2.729.691 1.199.853 3.128 1.072 4.651.253 1.757 1.853 8.909-.053 9.751-.587.949-1.765 1.246-2.693 2.152-.686.67-2.212 2.055-2.151 2.899-.659.4-.389.143-.838.626l-.901 1.825c-.318.828-.6 1.976-.69 2.851-.68 6.584-.047 3.68-1.792 9.11-.214.664-.604 1.758-1.004 2.533-.834 1.615-1.616 2.968-2.44 4.593l-2.062 5.303c-.541 1.455-1.098 4.18-1.16 5.906-.342 9.635.643 9.323 2.04 12.36.947 2.06 2.015 3.091 3.04 3.353.214 1.09-.055 1.065.912 1.463-.17.93 1.007 5.227.03 9.025-.79 3.068-1.67 4.36-2.77 7.002-1.058 2.546-4.572 7.876-5.19 9.467-.284.732-.514 1.069-.832 1.613-.558.95-.24.85-1.038 1.155l-5.832 8.822c-1.907 2.828-1.252 2.646-1.24 2.813.004.057.057.266.063.228l.303.337c1.05.386.822.33 3.73.25 1.378-.038 2.21-.243 3.519-.307 3.26-.159 5.843.162 6.336-1.763 1.882-2.956 2.404-4.601 3.981-7.133.373-.6.495-1.273.925-2.083l9.447-16.101c.546-1.26 1.42-2.964 1.255-3.945.551-.574 1.974-5.302 2.043-5.597.87-3.741 3.932-11.505 4.374-12.482.382-.842 2.132-7.678 3.3-10.782.483-1.281.68-2.388 1.239-3.75 4.159-10.139 10.429-4.766 15.584-7.708.99-.565.665-.408 1.378-1.118.57-.567.76-.552 1.4-.993l4.72-4.851c.912-.862 1.954-.596 3.59-.506 4.915.271 4.987 1.033 5.766 2.72l.357.608c-.309 2.18.737 5.57.437 8.438-1.373.856-1.998 1.947-4.44 3.19-.747.38-.618.317-1.212.693-.459.29-.043.06-.516.32-1.6.876-2.35 2.158-1.438 3.094.54.555 15.521 1.323 18.177 1.32 5.747-.01 7.287-2.539 9.54 2.748 1.625 3.816-.393 4.367-2.584 6.153-3.444 2.806-5.313 2.552-6.552 3.215-4.379 1.788-4.692 2.624-5.773 5.052-.59 1.322-2.51 3.604-4.152 3.972.029.544-.346.632-.994 1.04-.506.317-.977.655-1.499.98-1.23 2.117-3.268 2.14-4.258 6.677-.467 2.135-.81 7.687.223 9.634 2.35.776 7.795-1.072 9.64-1.765 1.766-.664 3.051-.24 3.44-2.173.337-1.683-.034-3.715.67-5.032.58-.997.52-.47 1.914-1.238l.17-.1.174-.103 1.762-.928c1.05-.706 1.94-1.086 2.216-1.981l3.738-2.679c1.018-.615.897-.517 1.122-1.008 1.14-.041 3.79-2.075 4.883-2.799.997-.66.214-.398 1.645-1.567.78-.638 1.376-.83 2.092-1.47.406-.699-.034-.245.628-.702.094-.065 3.537-2.101 4.416-3.081.768-.803.58-1.781.86-3.013.608-3.537-.69-4.268-.874-6.792-.142-1.975.11-1.994.548-2.289-.066-.855-.32-.567.23-.838.88-3.186 3.992 1.212 4.731 2.077.75.877 3.323 3.526 3.62 4.31.553 1.285 1.415 1.616 2.619 3.057.852 1.02 1.437 1.882 1.349 3.322h.07v.075l.15.076.15.074c1.61.802 2.392 2.606 3.052 3.105.957.722 2.174 1.036 3.071 2.066 1.393 1.597 4.553 20.402 3.992 23.616-.418.772-.812 1.162-1.809 1.523-.218.22-.95.75-1.292 1.256-1.505 1.283-3.28 4.125-2.965 6.973.439.326.852.723 1.454 1.26.73.651 5.44 3.817 6.712 3.444.869-.255 3.018-3.753 4.14-4.36.732-2.23 2.403-3.229 3.07-7.287.5-3.03.66-6.173.272-9.199l-2.433-12.399c-.337-1.515-1.449-4.514 1.06-4.084 1.92.33 2.144 1.222 2.566 1.85l.117.171c1.093 1.484 4.5 3.319 4.534-.234.716-.915.18-2.933.6-3.975.367-.862-.41-2.755-.616-4.133l.013-4.025c.287-1.05.232-2.9.935-3.679.821-.948 2.616-.723 4.043-1.126zm-72.979-44.197c-.58-1.647-1.119-2.504-.883-4.41 1.554-1.013 2.438-.733 4.709-.708.85.01 1.822-.07 2.645.037 2.13.276 1.707 1.057 1.784 1.263.293 1.008.552.537.566 2.227.01 1.149-.157 1.449-.427 2.454-.418 1.133-.235.934-1.826 1.041-.818.055-1.673.15-2.488.073-1.054-.1-3.612-1.435-3.624-1.464-.042-.106-.157-.069-.237-.1zm8.574 25.314c.95-.525 1.533.044 1.788 1.096.354 1.464.733 8.793-.49 10.633-5.367.675-4.639-2.282-3.209-8.01l.76-2.496c.727-1.167-.003-.373.75-.653.022-.25.007-.377-.015-.437.058.014.18-.002.416-.133m-23.677-27.176-.065 17.143c-.242 2.17-1.284 2.714-2.164 3.968-.916 1.346-3.263 3.694-4.583 4.83-3.703 3.184-7.832.135-12.94 3.069-.88.506-3.702 3.388-4.015 4.57-1.96 1.65-4.278 11.222-5.22 14.817-.537 2.046-.321 1.517-1.032 1.943l-.076.257c-.085 1.078-.492 1.626-.815 2.756l-2.275 8.33c-.806 2.198-2.112 7.514-3.488 10.305-.733 1.486-1.692 3.196-2.437 4.657l-7.935 12.367c-.468.234-3.519.166-3.62-1.964-.042-.9.194-1.153.627-1.557.3-.919 1.421-2.46 1.527-3.09.508-3.006 4.191-5.822 5.936-15.452.495-2.735 1.993-2.762 2.64-4.75.576-.199 1.576-3.974 2.248-5.7.656-1.689.874-1.09 2.215-1.833.282-.156.823-.594 1.11-.783 1.023-.673.73.07 1.17-1.199-3.92.098-1.633.999-3.474 1.018-.558-1.073-.938-5.694-.295-7.135.304-.683 2.133-3.56 2.315-5.836l.196-.173.155-.282.276-.56c.239-.588.213-.693.384-1.27.266-.894.51-1.774.796-2.739l1.729-4.935c.574-1.198.77-11.962.198-13.09-.692-.165-.587-.196-1.076.204-.214.175-.578.708-1.105 1.09-1.874 1.361-1.917 1.657-2.812 1.495l.03.661c-1.127.297-1.378.73-2.202 1.29-.416.284-.635.492-1.2.522l-1.217-.366c-.895-1.684.608-8.17 1.36-9.617 1.561-3.007 4.532-3.16 8.11-2.342.847.193 1.86.115 2.724.3.563.12-.24-.058.572.175 3.759 1.078 8.066.617 11.302-1.255 1.378-.797 2.743-1.432 1.808-3.477-1.827-.711-2.23.538-3.436 1.535-.888.735-1.822 1.48-2.97 1.975-1.58.682-6.52.08-7.494-.692-3.163-2.505 5.816-3.512 7.652-4.957 1.007-.791.623-.841 1.342-1.817.739-1.004 1.956-1.739 2.698-2.78 1.2.087 3.43-1.266 3.939-2.118 1.033-.421.532-.08 1.075-1.317.114-.26.175-.503.34-.738.503-.714.074-.373.762-.62-.102-2.6 5.965-7.114 8.734-.194l.074.182.08.173.088.164c.958 1.729 1.742 1.596 1.734 4.842m-5.394-22.956c-1.482 2.198-.155-.42-2.087 3.346-.339.66-.845 1.383-.786 1.867-1.174.58-1.107.72-1.789 1.792-.659 1.036-3.73 4.95-3.81 5.767-1.602.633-1.802 2.59-3.513 3.174-.12.783-.714 1.247-1.426 1.904-.375.347-.488.482-.84.784-.723.621-.216.325-1.128.78.061.575.042.136-.237.155-.54 1.098-1.05 1.268-1.981 1.992-1.175.913-7.608 5.047-8.957 1.974-.372-.849-.246-3.367-.147-4.31 2.287-1.592 3.094-.405 5.329-1.203 1.973-.704 3.524-1.62 4.685-3.17.264-.354.484-.568.76-.87l3.545-4.63c.46-.438.012-.275.76-.382.251-.974.237-.716.736-1.413l2.22-2.62c2.678-2.248 3.655-4.83 4.525-5.836.475-.55 1.103-.877 1.731-1.525.992-1.024 1.795-2.365 2.737-3.26.368-.89.375-.842.944-1.47.802-.886.501-.09.863-1.393.15-.185.496-.467.64-.635.36-.421.125-.084.328-.447.275-.492.085-.077.177-.48 1.495-.707.695-1.11 2.812-.922.067 1.95-.396 1.705-.604 3.529-.427.26-1.387 2.132-1.899 2.919-.459.707-.573.8-1.02 1.402-.778 1.044-.17.856-1.376 1.354-.202.721-.67 1.054-1.192 1.827m24.81 47.488c.306 2.384-.48 2.937-.863 4.866-.718.542-.812 1.103-2.056 1.005-3.153-.25-3.153-4.87-1.038-5.59.029-.072.046-.259.067-.225.266.428.185-.41.237-.484 1.989-.09 1.921-.597 3.653.428m-7.481 13.77c.075-3.135 6.073-4.394 5.717.401-1.803.58-4.333.448-5.717-.402m25.166-61.333c-.412-.115-.122.437-.498-.48-.609-2.144-5.95-7.704.805-7.867 3.468-.083 4.41-.036 3.097 5.14-.426 1.68-.532 2.537-1.92 2.648-.385.799-.327.495-1.484.559m-12.759-17.034c-1.895 1.186-9.213 1.743-10.604 1.21-1.117-3.25.462-3.843 2.874-4.59 2.664-.823 3.388-1.325 7.21-.445l.32.733zm2.143-2.993c-.238-.85-1.056-1.617-.495-2.615.905-1.675 8.832-2.207 7.717 3.25-.563 1.345-3.643 3.22-6.503.17-.618-.659.023-.202-.803-.713zm5.21-10.243c.13 1.632 1.931 5.295-1.624 5.034-2.084-.154-2.351-1.953-2.685-3.978-.76-4.606 1.255-4.193 1.674-7.288.382-5.871-2.1-8.727-.543-10.297.73-1.492 4.146.98 4.668 1.46 1.202 1.109 3.247 2.998 2.943 4.632 1.216-.079.517 2.969.406 3.307-.345 1.046-1.023 1.466-2.227 1.812-1.28.367-2.046.332-2.522 1.646-.39 1.073-.203 2.323-.09 3.672m4.79 1.76c-1.06-1.342-.847-3.983-.355-5.02l.092-.167.104-.157.367-.418c1.05-.918 2.268.022 2.992.67 1.218 1.085 1.087 1.786 3.469 1.722-.128-2.975-2.594-.504-2.901-7.09-.014-.295-.068-1.458-.03-1.676.346-1.915.283-.841.798-1.02.728-1.338 6.581-3.756 7.382-4.032.006-.007.435-1.123 2.045-.47 1.199.485 1.808 3.558 1.904 4.742.56 6.926-2.823 16.498-11.395 15.693-1.576-.214-2.26-1.116-3.315-1.312zm-27.12 11.739c-1.59.158-2.93-.29-3.99-1.292-.675-.637-.373-.565-1.086-.83.177-1.365-.84-2.28-.152-3.582 1.01-1.911 4.712-.185 5.544 1.17.436.711.394 1.087.39 1.918-.006 1.2-.079 1.502-.509 1.754zm-.702-8.686c-.053-.03-.426.114-.64-1.007-.22-1.16.188-3.275.556-4.35 1.527-4.46 5.477-10.605 5.985-12.997l.218-1.238c3.253-1.355 3.512-.44 6.62.071 3.155.519 4.673-.738 4.776 3.278l-.979 15.236c-1.986 1.038-3.68 2.014-5.862 3.116-2.311.487-3.534 1.365-6.588.943-1.09-.15-2.056-.336-2.725-.856-.81-.63-1.334-1.27-1.361-2.196m14.454-23.144c-.726.437-4.925 1.628-6.25-1.095-.276-.57-.42-1.352-.97-1.99l.206-.483c.077-1.935-.713-3.126.23-4.624.75-1.194 1.669-1.739 2.413-2.72 1.605-.11 2.398-.188 3.292 1.124.88-.018.995.146 1.943.75l.84.565c.67.386.128.276.979.379-.362 1.942-1.296 7.262-2.683 8.094m5.551-12.473c-2.457 1.941-4.314 2.307-5.654-.444-.7-1.435.311-3.205 1.155-4.03 1.7-1.664 2.434-2.391 5.518-2.394l-.117.603c.515.375.603.228.61 1.166.213.127.457-.036.46 1.347.005 1.412-.912 2.916-1.972 3.752m.592 9.829c-.012-.007-1.416-.22-.755-2.079.254-.714.868-.872 1.846-.746.825.105 1.218.493 1.793 1.058l1.324 1.11c-.17 1.452.196 2.4-1.475 2.431-1.028.02-2.377-.398-2.544-1.383zm2.811-21.956c-1.446-.029-2.6.069-3.212-1.048-.702-1.28-.25-2.634.647-3.394.778-.658 5.103-2.499 5.998-2.672.002-.001 3.966-2.337 3.31.68a3 3 0 0 0-.06.368c-.038.006-.12.071-.288.283-2.343 2.972-1.494 3.405-5.227 5.103zm2 17.454c.341-6.588-3.149-6.831-1.975-12.55.127-.617.385-1.184.815-1.56.091-.081.544-.342.612-.38l1.06-.636c2.045.595 2.406-.04 3.158 2.266 1.42 4.366 1.584 13.34-.281 14.722-.504.374-1.222.334-1.84-.12-1.12-.824.104-.447-1.734-1.146zm2.984-29.787c-2.243.33-2.656-.342-4.154-.355-1.3-.203-1.096-.375-1.853-1.371-2.956-3.887.456-5.034.584-5.503.031-.112.114-.12.163-.187 1.04-.183 1.525-.705 2.338-1.032 1.975-.518 5.683-2.256 7.053.13.478.832 1.781 6.194-.774 6.985-1.548.817-.655.934-3.357 1.333m-31.7 72.679c1.742.766.8 4.595-2.158 4.28-1.68-4.192 1.454-4.59 2.157-4.28m-4.375-10.791c-.974-.383-1.935-1.266-2.01-2.553-.086-1.492 2.841-4.997 4.393-8.193 3.092-6.368 1.368-12.15 4.51-12.635l.153-.108c.394-.515-.2-.291.806-.81.895-.463 2.339-.07 3.119.267.216 1.754-.486 1.758-.881 3.56-.166.147-1.196 2.419-1.437 2.897-.322.64-.964 2.897-.915 3.488l-.691.997c-.071.158-.233.755-.323 1.02-.325.951-.372.996-.637 2.124-.538 2.292-2.803 10.424-6.087 9.946m12.506-36.306c-2.074-.17-.726-.038-1.271-.607-.614-.13-.103.51-.722-.648-.372-.694-.287-.474-.268-1.43.063-.885.312-1.001.946-1.372.755-.442 2.684-1.724 3.484-1.715 2.965.032 1.876 6.103-2.169 5.772m12.224-8.922c-1.831 2.236-4.496 2.968-7.683 2.446l.038-1.592c.68-.94 1.833-1.648 2.224-2.513.49-.329.217-.138.574-.443l2.047-2.122c.825-.473 2.941-.788 3.375 1.213l-.044.004c.628.752.287-.748.46 1.092.03.321-.054.497-.14.721zm-6.782-23.14c-.735 1.673.062 3.073-3.009 5.95-2.14 2.004-4.581-.283-4.62-3.213-.024-1.792.046-4.27 1.196-5.623 1.46-1.718 4.013-2.749 6.451-2.71 1.86.028 1.598.388 1.695.652 2.753-.664 5.157 3.33 5.968 4.327 2.703 3.324 1.576 9.661-.61 10.591-1.012-.463-1.554-1.43-2.103-2.158-1.269-1.685-.017-2.108-2.226-6.46-.628-1.237-.97-1.853-2.742-1.356m-37.515 96.004c-1.167.9-4.987 3.459-5.621 4.793-1.802-.117-3.128 2.292-5.814.927-.217-2.393.75-4.888.869-7.618.124-2.88.303-5.704.789-8.26.504-2.648 1.29-5 1.39-7.5.083-2.105.005-3.927-.813-5.8-.188-.43-.157-.408-.391-.724-.319-.43-.385-.416-.753-.724-.357-.854-1.65-1.747-2.288-2.013-.384-.944.037-.229-.696-.773-3.086-2.29-3.556-.459-1.654 3.276.72 1.413 1.24 2.473 1.84 4.106 1.708 4.645-.078 7.11-.78 10.253-.621.925-.742 1.33-1.59 2.076-1.276.045-2.104-.272-2.32-1.122-.691-.374-.175-.042-.647-.392-.18-.134-.282-.317-.31-.353-.315-1.782-.706-2.76-1.052-4.785-.22-1.286-.736-3.14-1.154-4.576-.87-2.995-.673-7.041-1.74-9.955-3.17-8.658-7.392-10.604-1.717-12.632l1.945-.975.178-.166c2.794.418 6.603-4.396 15.893-.098.636.295 1.524.842 1.791.888.492.753 3.964 2.976 4.715 3.45.819.515 1.22.928 2.171 1.622 1.473 1.073 1.611.972 1.953 2.152.08.846.005.302.869 1.002l9.899 8.875 1.03 1.131c.192.267.449.87.496 1.38.082.89-.54 2.385-.883 3.144l-.514.776c-.617.836-.596 1.175-1.008 1.427-.728 3.356-11.128 14.908-14.083 17.188m5.719-45.141c.18 1.691 3.13 4.98-.017 4.967-1.888-.008-5.46-2.151-5.715-2.223-1.644-.237-3.027-1.398-4.242-2.56l-1.194-.966-.235-.306c-1.395-5.093 1.018-4.457 5.674-4.333 2.11.056 3.113.072 4.12 1.28.66.792 1.499 2.938 1.609 4.14m-37.98 9.049-.145 2.058c-.682.483-1.817 1.058-1.999 1.915l-2.432 2.372c-3.415 3.206-5.06 2.96-7.198 4.476-.308.218-.364.242-.63.482l-.306.307-.305.35-1.899-.211c-1.332-6.705 5.351-12.821 9.903-13.29.227-.024 1.494-.067 1.673-.04 1.13.168 1.181-.244 1.08.684.956-.149.393-.283 1.343.234.422.23.001.007.535.39zm10.653 22.364c2.558 4.954.94 14.01-4.358 9.781-.904-.721-.32-.43-1.385-.814-.222-.603-.858-1.087-1.218-1.48l-3.444-5.535c-1.303-2.226-3.074-6.32-.508-8.186.87-.264.712-.328 1.149-.467.641-.203.409-.23 1.142-.156.85.085.536.148 1.328.553.3.154.223.154.185.148l.37.1c.064.648.495 1.679.861 2.386 3.594.212 2.817-2.256 5.878 3.67m6.047 57.523c.597.644-.468 6.43-.742 7.507-.416 1.637-.136-.736-.985 3.33-.306 1.461-.4 2.157-.397 3.85-.994.079-.9-.076-1.906 3.057-1.578.1-2.505.46-2.855-2.82.048-1.85-.27-3.127.052-5.003.233-1.359.633-2.616.887-3.936.389-1.902 3.002-6.356 4.64-6.447 1.557-.086.951.184 1.306.462m-8.11 2.282c1.906 2.514-2.241 13.189-1.999 18.66.169 3.804.27 3.147-1.638 5.586-1.84.12-2.112-.186-2.553-1.827-.357-1.326-.568-2.157-.576-3.755-.015-2.988.368-4.572 1.2-7.097l3.488-9.383c.442-1.176.923-2.087 2.078-2.184m1.207 25c.427.94 1.386 1.116 1.323 2.622-.056 1.327-.959 1.604-1.026 3.026-1.209.762-.18 1.377-2.047 2.357-1.686-.072-1.936-.812-2.206-2.377l.029-.738c-.879-.597-.253.81-.865-.95-.382-1.103.39-2.383.908-3.151 1.368-2.024 1.702-1.215 3.884-.789m-12.406 39.586c1.945-.352 2.836.1 4.141.814.378 3.845-2.554 5.048-6.206 4.334-.068-.408-.225-.883-.114-1.29.296-1.095.178-.617.868-.888.026-.535.14-.603.444-.758.218-1.278.355-1.257.867-2.212m62.053-19.232c.288-1.088 1.418-2.696 2.311-3.228 1.47-.875 3.525.021 4.36.843 1.06 1.043.542 2.515.463 4.252-.1 2.187-.496 2.126-1.436 2.68l-.886.676c-.93-.131-1.318.223-1.44.308-1.308.263-3.228.933-3.827-.496l-.18-3.683c.373-1.195.234-.606.713-1.06zm57.461 17.981c1.624-2.006 2.497-2.3 5.836-.298.163 1.307-.067 1.884-.707 2.746-3.467 4.669-3.149 1.165-6.027.11.056-.625-.242-.491.083-1.638l.061-.163zm-97.042-113.38c.827 5.754-4.819 5.364-4.928 3.344-1.174-.15-3.464-4.955 2.64-4.497 1.17.088 1.448.54 2.288 1.153m63.168-83.814c.447 2.036.135 2.208-1.9 1.914-.198-1.915-.034-2.205 1.9-1.914M288.4 333.125c-1.659-.136-.453-.511-1.93-.822-.237-1.764-1.184-1.279-.6-3.416 3.123-2.823 8.057 1.51 5.307 5.354-.713.007-1.108-.046-1.752-.317zm-32.231 37.743c-.188-.018-.81-.188-.915-.252-.695-.422-.281.085-.49-.626-1.6-.304-2.014-1.846-1.544-3.524 4.804-.889 6.798 4.768 2.949 4.402m-4.086-29.455c1.158.634.183 2.615-.273 3.156-1.477.109-1.793-.041-2.344-.995-.962-2.708 2.482-4.472 2.617-2.161m-6.528-2.156c.942 1.662.056 3.367-.36 4.82-.938.159-.967.52-2.092.547-1.225.029-1.476-.452-2.121-.932l.158-.04c-.457-1.573-.892-3.273.348-4.126 1.048-.72 3.076-.836 4.067-.27" style="fill:#232a3b;fill-rule:evenodd"></path><path d="m254.6 239.904 9.346 10.866M250.065 245.006l9.627 11.166" style="fill:red;fill-rule:evenodd"></path><path d="M250.525 239.054h12.854a1.414 1.414 0 0 1 1.417 1.417v13.058l-.002.033c-.07 1.721-1.974 2.591-3.944 3.49-1.297.593-2.63 1.201-3.143 1.937l-.742 1.065-.68-1.108c-.45-.731-1.807-1.304-3.136-1.865-2.029-.855-4.008-1.69-4.037-3.539l-.003-.013V240.47c0-.388.16-.742.416-.998l.003-.003c.256-.256.61-.416.998-.416zm.284 5.516 9.405 10.91c1.44-.657 2.812-1.294 2.883-1.951h-.001v-2.447l-8.882-10.328h-3.405zm7.817 11.665-7.817-9.068v6.362h-.003c.029.738 1.496 1.357 3 1.991 1.183.499 2.386 1.006 3.223 1.732.456-.382 1.007-.712 1.597-1.017m4.47-15.48h-6.645l6.645 7.726z" style="fill:#1b1918;fill-rule:evenodd"></path><path d="m271.008 225.107 8.859-2.925 1.58-.522v93.545H270.18v-49.274h-50.015l2.374-2.104 16.483-14.6-15.684-15.583-2.07-2.057h48.912v-6.207zm-.828 38.414v-29.524h-43.078l14.52 14.427.908.901-.959.85-15.066 13.346zm8.858-38.53-6.449 2.13v85.675h6.45z" style="fill:#232a3b;fill-rule:evenodd"></path><path d="M253.148 257.081c-2.028-.855-4.008-1.69-4.037-3.539l-.003-.013V240.47c0-.388.16-.742.42-1.002.256-.256.61-.415.998-.415h12.854a1.414 1.414 0 0 1 1.417 1.417v13.058l-.003.033c-.07 1.721-1.973 2.591-3.943 3.49-1.298.593-2.631 1.201-3.144 1.937l-.741 1.065-.68-1.108c-.45-.731-1.807-1.304-3.137-1.865zm17.032-23.084h-43.078l14.52 14.427.908.902-.959.849-15.066 13.346h43.675Z" style="fill:#0155eb;fill-rule:evenodd"></path><path d="m250.80899999999997 244.57 9.405 10.91c1.44-.657 2.812-1.294 2.882-1.951v-2.447l-8.882-10.328h-3.405zM256.45 240.754l6.646 7.727v-7.727zM258.62600000000003 256.235l-7.817-9.068-.003 6.362c.029.738 1.496 1.357 3 1.991 1.183.499 2.386 1.006 3.223 1.732.456-.382 1.007-.712 1.597-1.017" style="fill:#0155eb;fill-rule:evenodd"></path><path d="m23.965 173.24 547.412.739 5.602.008-2.404 5.044-269.46 565.137-3.143 6.591-3.224-6.563L20.795 178.32l-2.498-5.087zm541.81 7.79-536.142-.723 272.23 554.224z" style="fill:#232a3b;fill-rule:evenodd"></path><path d="M350.833 608.772c0-10.323-2.258-20.023-6.225-28.464a14.3 14.3 0 0 0-4.953 3.681c-1.89 2.155-3.525 5.1-5.358 9.114-.819 1.79-.928 3.919-.465 6.057.501 2.311 1.664 4.604 3.327 6.502 2.738 3.124 7.247 5.58 11.64 7.975.603.328 1.203.655 1.79.978a70 70 0 0 0 .244-5.843m-50.45-59.074c-.21 5.386-.96 9.437-1.979 12.583 3.353-3.982 6.928-7.878 10.517-11.75a43.4 43.4 0 0 0-8.476-.833zM289.22 574.56a13.8 13.8 0 0 1-3.1 1.158c-2.992.73-6.242.5-9.505-.509-3.833-1.183-7.071-2.773-10.44-4.426-1.032-.506-2.078-1.02-3.177-1.537a59 59 0 0 0-2.428 3.408c.663.25 1.343.503 2.026.756 3.95 1.463 8.014 2.97 11.644 5.276 3.733 2.372 6.008 5.534 7.025 9.048q.35 1.216.5 2.472a70 70 0 0 1 1.847-5.02c1.507-3.664 3.415-7.194 5.608-10.626m-23.818-8.235c.803.386 1.598.776 2.386 1.162 3.224 1.583 6.324 3.104 9.906 4.21 2.65.819 5.24 1.018 7.563.451 2.088-.508 3.992-1.653 5.561-3.543 1.325-1.595 2.741-3.633 3.855-6.776 1.026-2.896 1.8-6.72 2.028-11.97-12.128 1.046-23.072 7.13-31.299 16.466m47.591-14.778c-10.333 11.137-20.79 22.407-25.984 35.035-2.787 6.776-5.01 15.217-3.86 22.34.819 5.072 3.415 9.495 8.897 12.106 6.541 3.116 11.992 2.554 16.577-.164 4.783-2.835 8.75-8 12.084-13.855 3.788-6.655 6.778-13.545 9.138-20.622 2.228-6.682 3.902-13.565 5.16-20.599-6.097-6.742-13.635-11.722-22.011-14.241m25.065 17.918c-1.092 5.528-2.46 10.983-4.167 16.348.955-1.628 1.934-3.028 3-4.241 1.737-1.98 3.67-3.443 6.052-4.548a59.5 59.5 0 0 0-4.885-7.559m-8.178 27.23a115 115 0 0 1-5.978 12.127 75 75 0 0 1-.9 1.54 14.2 14.2 0 0 1 3.196-.82c4.14-.556 8.302.767 12.08 3.529 2.377 1.739 4.969 3.332 7.561 4.927 1.316.809 2.632 1.619 4 2.503a67 67 0 0 0 .302-1.926c-1.045-.594-2.07-1.151-3.099-1.712-4.678-2.55-9.479-5.165-12.648-8.782-2.078-2.372-3.533-5.244-4.162-8.143a15 15 0 0 1-.352-3.244m-19.04 27.127-.345.209c-5.612 3.326-12.212 4.048-20.032.322-6.746-3.213-9.938-8.638-10.941-14.854-.385-2.38-.437-4.874-.242-7.394-1.617 3.507-3.575 6.7-6.18 9.057-3.36 3.039-7.674 4.63-13.491 3.667-1.856-.307-3.8-1.031-5.63-1.913a41 41 0 0 1-3.894-2.165q.064 2.268.271 4.492c16.56 2.926 31.568 8.616 44.145 16.55 12.35 7.792 22.362 17.751 29.212 29.39a50.6 50.6 0 0 0 8.462-6.52 86 86 0 0 0-1.823-1.083c-2.731-1.597-7.055-4.123-13.8-9.164v-.007q-.429-.322-.825-.646c-4.74-3.9-6.483-8.642-6.296-13.42.086-2.206.593-4.407 1.409-6.521m38.215.555c-1.594-1.057-3.37-2.15-5.145-3.241-2.618-1.611-5.237-3.221-7.806-5.1-3.019-2.207-6.268-3.274-9.417-2.851-2.9.39-5.794 2.056-8.44 5.272q-.407.493-.786 1l.005.003c-2.466 3.3-4.213 7.198-4.364 11.027-.144 3.688 1.23 7.372 4.958 10.44q.336.276.691.542l.003-.005c6.573 4.912 10.79 7.377 13.455 8.934 1.063.621 1.888 1.103 2.589 1.589q.592-.648 1.168-1.318c6.155-7.174 10.737-16.193 13.09-26.293zM250.1 606.358c1.425.991 3.388 2.24 5.478 3.246 1.553.748 3.16 1.355 4.623 1.597 4.554.754 7.884-.449 10.44-2.761 2.703-2.446 4.665-6.176 6.31-10.216 1.309-3.217 1.642-6.52.789-9.468-.773-2.673-2.542-5.102-5.47-6.962-3.312-2.104-7.179-3.537-10.939-4.93-.908-.337-1.812-.672-2.723-1.023-5.042 8.785-8.122 19.242-8.508 30.517m.72 12.704c1.835 12.25 6.888 23.197 14.104 31.607 9.107 10.613 21.667 17.178 35.522 17.178 7.129 0 13.914-1.738 20.063-4.871-6.545-11.094-16.129-20.608-27.963-28.074-11.899-7.507-26.07-12.943-41.725-15.84m88.37-54.944c9.82 11.446 15.895 27.235 15.895 44.654s-6.074 33.209-15.895 44.654c-9.9 11.536-23.596 18.673-38.744 18.673s-28.845-7.137-38.744-18.673c-9.82-11.445-15.896-27.235-15.896-44.654s6.075-33.208 15.896-44.654c9.9-11.536 23.596-18.672 38.744-18.672s28.845 7.136 38.744 18.672" style="fill:#232a3b;fill-rule:evenodd"></path><path d="M323.016 663.658c-13.431-24.126-40.63-41.192-74.212-46.819" style="fill:red;fill-rule:evenodd"></path><path d="M321.411 664.55c-6.552-11.77-16.475-21.83-28.866-29.648-12.483-7.875-27.469-13.472-44.043-16.25l.604-3.626c17.057 2.857 32.503 8.633 45.396 16.767 12.908 8.142 23.26 18.653 30.12 30.973zM188.061 439.909h58.95v2.834h-58.95zm77.626.006h52.5v2.823h-52.5zm70.575-.006h19.05v2.834h-19.05zm40.276 0h33.674v2.834h-33.674z" style="fill:#232a3b;fill-rule:evenodd"></path><path d="m318.635 564.925-21.15 45.75" style="fill:red;fill-rule:evenodd"></path><path d="M317.351 564.332a1.415 1.415 0 0 1 2.569 1.185l-2.356 5.095 4.965 2.667a1.415 1.415 0 0 1-1.34 2.492l-4.814-2.586-3.716 8.037 5.134 2.702a1.414 1.414 0 0 1-1.317 2.502l-5.005-2.634-3.417 7.391 5.112 2.802a1.415 1.415 0 0 1-1.362 2.48l-4.94-2.707-4.687 10.14 7.056 3.645a1.414 1.414 0 0 1-1.296 2.514l-6.948-3.59-2.22 4.8a1.415 1.415 0 0 1-2.568-1.185l2.272-4.914-6.36-3.286a1.414 1.414 0 0 1 1.295-2.514l6.253 3.23 4.717-10.203-5.849-3.205a1.415 1.415 0 0 1 1.362-2.48l5.677 3.11 3.397-7.347-5.314-2.797a1.414 1.414 0 0 1 1.317-2.502l5.185 2.729 3.726-8.06-5.815-3.122a1.415 1.415 0 0 1 1.34-2.492l5.664 3.042z" style="fill:#232a3b;fill-rule:evenodd" data-source="https://football-logos.cc"></path><path d="m292.76 600.625 15.825 8.175M312.485 595.225l-13.275-7.275M317.135 585.175l-12.826-6.75M321.86 574.525l-13.126-7.05" style="fill:red;fill-rule:evenodd"></path><path d="M292.545 634.902c-11.899-7.507-26.07-12.943-41.725-15.84 1.834 12.25 6.887 23.197 14.103 31.607 9.107 10.613 21.667 17.178 35.522 17.178 7.129 0 13.914-1.738 20.064-4.872-6.546-11.094-16.13-20.607-27.965-28.073" style="fill:#fe291b;fill-rule:evenodd"></path><path d="M250.357 615.241c16.561 2.927 31.568 8.617 44.145 16.552 12.35 7.79 22.363 17.75 29.212 29.388a50.6 50.6 0 0 0 8.462-6.519 86 86 0 0 0-1.823-1.083c-2.731-1.597-7.055-4.123-13.8-9.164v-.007q-.429-.322-.825-.646c-4.74-3.9-6.483-8.642-6.296-13.42.086-2.206.593-4.407 1.409-6.521l-.345.209c-5.612 3.326-12.212 4.048-20.032.322-6.746-3.213-9.938-8.638-10.941-14.854-.385-2.38-.437-4.874-.242-7.394-1.617 3.507-3.575 6.7-6.18 9.057-3.36 3.039-7.674 4.63-13.491 3.667-1.856-.307-3.8-1.031-5.63-1.913a41 41 0 0 1-3.894-2.165 70 70 0 0 0 .271 4.491" style="fill:#fe291b;fill-rule:evenodd"></path><path d="M313.103 630.486c-.145 3.689 1.23 7.372 4.957 10.44l.692.542.003-.005c6.573 4.913 10.79 7.377 13.454 8.934 1.064.622 1.888 1.103 2.59 1.59q.592-.65 1.167-1.318c6.156-7.174 10.737-16.194 13.09-26.293-1.594-1.058-3.37-2.15-5.145-3.242-2.619-1.61-5.237-3.22-7.807-5.1-3.018-2.207-6.267-3.274-9.416-2.85-2.901.39-5.795 2.055-8.441 5.271q-.406.494-.786 1l.005.004c-2.465 3.299-4.213 7.197-4.363 11.026zM292.047 621.027c6.541 3.116 11.992 2.554 16.577-.164 4.783-2.835 8.75-8 12.084-13.855 3.788-6.655 6.778-13.545 9.138-20.622 2.228-6.682 3.902-13.565 5.16-20.599-6.097-6.742-13.635-11.722-22.011-14.241-10.334 11.137-20.79 22.407-25.985 35.035-2.787 6.776-5.01 15.217-3.86 22.34.819 5.072 3.415 9.495 8.897 12.106m17.795-11.58a1.414 1.414 0 0 1-1.904.61l-6.95-3.59-2.218 4.8a1.415 1.415 0 0 1-2.57-1.185l2.273-4.914-6.36-3.286a1.414 1.414 0 0 1 1.295-2.514l6.253 3.23 4.717-10.203-5.849-3.205a1.415 1.415 0 0 1 1.362-2.48l5.677 3.11 3.397-7.347-5.314-2.797a1.414 1.414 0 0 1 1.317-2.502l5.185 2.729 3.726-8.06-5.815-3.122a1.415 1.415 0 0 1 1.34-2.492l5.664 3.042 2.283-4.939a1.415 1.415 0 0 1 2.569 1.185l-2.356 5.095 4.965 2.667a1.415 1.415 0 0 1-1.34 2.492l-4.814-2.586-3.716 8.037 5.134 2.702a1.414 1.414 0 0 1-1.317 2.502l-5.005-2.634-3.417 7.391 5.112 2.802a1.415 1.415 0 0 1-1.362 2.48l-4.94-2.707-4.687 10.14 7.056 3.645c.694.357.966 1.21.61 1.905M270.64 608.44c2.703-2.445 4.665-6.176 6.31-10.216 1.309-3.217 1.642-6.52.789-9.468-.773-2.673-2.542-5.102-5.47-6.962-3.312-2.104-7.179-3.537-10.939-4.93-.908-.337-1.812-.672-2.723-1.022-5.042 8.784-8.122 19.24-8.508 30.516 1.425.991 3.388 2.24 5.478 3.246 1.553.748 3.16 1.355 4.623 1.597 4.554.754 7.884-.449 10.44-2.761" style="fill:#fe291b;fill-rule:evenodd"></path><path d="M274.242 578.685c3.732 2.372 6.007 5.534 7.024 9.048q.35 1.216.5 2.472a70 70 0 0 1 1.847-5.02c1.507-3.664 3.415-7.194 5.608-10.626a13.8 13.8 0 0 1-3.1 1.158c-2.992.73-6.242.5-9.505-.509-3.833-1.183-7.071-2.773-10.44-4.426-1.032-.506-2.078-1.02-3.177-1.537a59 59 0 0 0-2.428 3.408l2.026.756c3.95 1.463 8.014 2.97 11.644 5.276M277.695 571.696c2.65.819 5.24 1.018 7.563.451 2.088-.508 3.992-1.653 5.561-3.543 1.325-1.595 2.741-3.633 3.855-6.776 1.026-2.896 1.8-6.72 2.028-11.97-12.128 1.046-23.072 7.13-31.299 16.466l2.386 1.162c3.224 1.583 6.324 3.104 9.906 4.21M300.382 549.698c-.209 5.386-.958 9.437-1.978 12.583 3.353-3.982 6.928-7.878 10.517-11.75a43.4 43.4 0 0 0-8.476-.833zM338.059 569.464c-1.093 5.528-2.46 10.983-4.167 16.348.955-1.628 1.934-3.028 3-4.241 1.737-1.98 3.67-3.443 6.052-4.548a59.5 59.5 0 0 0-4.885-7.559M339.655 583.99c-1.89 2.154-3.525 5.099-5.358 9.113-.819 1.79-.928 3.919-.465 6.057.501 2.311 1.664 4.604 3.327 6.502 2.738 3.124 7.247 5.58 11.64 7.975l1.79.978a70 70 0 0 0 .244-5.843c0-10.323-2.257-20.023-6.225-28.464a14.3 14.3 0 0 0-4.953 3.681" style="fill:#fe291b;fill-rule:evenodd"></path><path d="M334.395 608.08c-2.078-2.372-3.533-5.244-4.162-8.143a15 15 0 0 1-.352-3.244 115 115 0 0 1-5.978 12.128l-.9 1.54a14.2 14.2 0 0 1 3.196-.82c4.14-.556 8.302.767 12.08 3.529 2.377 1.739 4.969 3.332 7.561 4.927 1.316.809 2.632 1.619 4 2.503a67 67 0 0 0 .302-1.926c-1.045-.594-2.07-1.151-3.099-1.712-4.678-2.55-9.479-5.165-12.648-8.782" style="fill:#fe291b;fill-rule:evenodd"></path><path d="M147.8 420.879V180.466l-61.2-.082v115.9zM449.293 180.873v244.454l61.2-128.354V180.954ZM339.189 653.426c-3.029 3.53-6.413 6.647-10.085 9.274v14.7l13.54-28.396a61 61 0 0 1-3.455 4.422" style="fill:#fff;fill-rule:evenodd"></path><path d="M338.828 148.576c.055 6.799 4.769 13.932 14.351 14.01l41.991.347c13.518.11 15.29-11.222 15.29-22.936V91.131h-16.356V147h-39.761v-8.597h-15.598ZM268.207 162.749h66.121V146.67h-50.33v-12.608h40.486v-14.838h-40.486v-12.61h50.374V91.132h-66.165zM146.713 106.95h39.67v39.95h-39.67Zm-15.754 55.799 56.733-.113c8.006-.016 14.888-4.402 14.831-18.125l-.16-38.479c-.05-11.824-9.84-14.873-19.42-14.878l-51.984-.023zM107.502 162.749h15.46v-15.56h-15.46zM25.595 144.25c0 12.975 6.042 18.619 14.957 18.598l42.922-.1c3.738-.008 6.613-1.599 8.728-3.214 2.116-1.616 5.021-6.478 5.048-9.526l.132-15.079c.06-6.905-2.146-16.098-16.527-16.1l-38.015-.01c-.878 0-1.456-.48-1.578-1.215l-.018-9.426c.111-.754 1.046-1.82 1.909-1.814l38.603.276-.028 6.292h16.199v-2.275c0-16.768-8.34-19.46-17.4-19.468l-40.4-.041c-4.5-.005-14.158.863-14.26 13.09l-.151 17.927c-.048 5.714 6.146 12.757 11.687 12.768l30.955.069 12.232.04c.77.002 1.423.18 1.402.978l-.267 9.777c-.03 1.13-.644 1.489-1.76 1.486l-38.566-.116.028-5.879H25.595ZM212.951 162.749h15.46v-15.56h-15.46zM420.57 162.749h66.12V146.67h-50.33v-12.608h40.487v-14.838H436.36v-12.61h50.374V91.132h-66.165z" style="fill:#000001;fill-rule:evenodd"></path><defs><linearGradient id="a"><stop offset="0%" stop-color="#045feb"></stop><stop offset="12%" stop-color="#fff"></stop><stop offset="0%" stop-color="#d6d6d6"></stop></linearGradient><linearGradient xlink:href="#a" id="b" x1="0" x2="0" y1="0" y2="1" gradientTransform="rotate(180 .5 .5)" gradientUnits="objectBoundingBox"></linearGradient></defs><path d="m85.896 180.383-56.263-.076L85.896 294.85zm424.702.572v115.798l55.177-115.723zm-93.741 235.989c2.55 9.78 4.455 19.552 5.178 29.142.504 6.686.266 12.996-1.262 19.454-1.529 6.46-4.338 13.026-8.973 20.208-4.04 6.26-8.212 12.318-12.788 17.912-3.277 4.004-6.772 7.785-10.588 11.252v38.075l59.74-125.291V180.87l-59.74-.08v15.85l36.25 48.68.778 1.047-.58 1.163c-7.474 15.004-12.973 29.377-16.898 43.853-3.927 14.478-6.282 29.064-7.471 44.487-2.026 26.29.492 33.167 4.923 45.266.779 2.126 1.614 4.408 2.446 6.828 3.269 9.504 6.433 19.196 8.985 28.979zm-146.07-212.465c9.092-.996 18.112-3.629 26.961-8.217l.972-.503.972.503c10.047 5.208 20.475 7.903 30.834 8.608v-24.157l-59.74-.081zm47.194 328.765c-5.408.136-10.146 6.73-14.135 12.082q-.068.091-.18.228c9.892.666 19.072 4.379 26.86 10.343V533.05c-4.429.042-8.617.094-12.545.193zm-21.303 12.35c-4.094-5.557-8.942-11.622-13.405-11.78-4.322-.153-8.47-.25-12.486-.3v22.062c7.552-5.668 16.386-9.233 25.891-9.982zM329.104 662.7c-8.331 5.961-18.146 9.399-28.66 9.399-10.936 0-21.117-3.72-29.657-10.13v9.294l31.076 63.268 27.241-57.131zM186.85 486.085Zm-37.385-305.616v243.798l59.74 121.621V513.67a118 118 0 0 1-7.183-7.21c-6.017-6.579-11.041-13.524-15.172-20.376-3.485-5.24-6.219-10.746-8.002-16.503-1.694-5.469-2.53-11.161-2.34-17.064.28-8.668 1.523-18.704 3.779-29.397a223.6 223.6 0 0 1 8.942-30.967c2.499-6.78 4.961-13.478 6.688-20.202 1.72-6.702 2.76-13.559 2.47-20.798-.856-21.332-3.415-39.443-7.726-56.185-4.306-16.722-10.375-32.125-18.252-48.05l-.576-1.166.784-1.044 36.587-48.732V180.55z" style="fill:url(#b);stroke:#1b1918;stroke-width:.56690001;stroke-linecap:butt;stroke-linejoin:miter;stroke-dasharray:none"></path><path d="M86.6 180.384v115.9l61.2 124.595V180.466ZM214.078 192.359c13.882 6.843 28.05 11.348 42.142 12.364 4.866.351 9.727.285 14.567-.244v-23.847l-61.584-.083v15.427l2.242-2.986 1.058-1.408zM237.03 530.923c-5.902-1.83-11.52-4.605-16.763-8.307a110.5 110.5 0 0 1-11.064-8.946v32.217l38.064 77.494a73 73 0 0 1-1.462-14.609c0-17.419 6.075-33.208 15.896-44.654a57.4 57.4 0 0 1 9.086-8.542v-22.063l-1.782-.02a560 560 0 0 0-13.502.043c-6.372.096-12.561-.78-18.473-2.613M270.787 661.968a57 57 0 0 1-8.346-7.696l8.346 16.991zM329.104 662.7v14.7l1.422-2.982 12.117-25.414a61 61 0 0 1-3.454 4.422c-3.029 3.53-6.413 6.647-10.085 9.274M339.189 564.118c9.82 11.446 15.895 27.235 15.895 44.654 0 6.963-.97 13.665-2.762 19.934l36.102-75.72v-38.074a85 85 0 0 1-4.832 4.076c-4.885 3.814-10.253 7.236-16.403 9.731-6.177 2.507-13.143 4.081-21.198 4.184-3.738.047-7.385.078-10.895.108l-4.57.04v22.846a57.5 57.5 0 0 1 8.663 8.221M339.967 204.974c15.288-.685 30.138-5.427 43.065-12.515l1.618-.887 1.106 1.486 2.668 3.583v-15.85l-57.898-.078v24.157a84 84 0 0 0 9.441.104M449.293 180.873v244.454l61.2-128.354V180.954Z" style="fill:#fff;fill-rule:evenodd"></path><path d="M512.207 106.88h40.126v17.343h-40.126zm.455-15.745h39.596c8.834 0 16.061 7.227 16.061 16.061v55.652h-15.986v-22.804h-40.126v22.804H496.6v-55.652c0-8.833 7.227-16.061 16.061-16.061" style="fill:#000001;fill-rule:evenodd"></path><path d="M189.892 423.182c2.313-9.7 5.584-20.098 9.547-30.849 2.374-6.438 4.493-12.91 5.994-19.505 1.5-6.589 2.396-13.326 2.335-20.319-.176-20.193-2.567-38.647-6.793-55.852-4.223-17.197-10.283-33.146-17.795-48.334l-.381-.771.514-.697 31.623-42.827.673-.91 1.033.457c13.728 6.064 27.28 9.843 40.808 10.552 13.493.708 26.992-1.635 40.653-7.81l.556-.25.568.234c13.709 5.683 27.798 8.145 41.403 7.762 14.18-.398 27.843-3.888 40.01-10.041l1.06-.537.711.952 31.707 42.525.523.703-.402.787c-7.266 14.23-12.499 28.814-16.242 43.71-3.745 14.902-5.997 30.12-7.304 45.614-.759 9-.42 17.634.811 26.016 1.234 8.402 3.363 16.554 6.18 24.571 3.15 8.963 6.04 17.857 8.472 26.78 2.436 8.941 4.403 17.881 5.694 26.905.896 6.265.998 12.519-.047 18.683-1.05 6.19-3.254 12.28-6.964 18.194-3.754 5.982-7.55 11.71-11.756 16.996-4.233 5.32-8.886 10.198-14.334 14.45-4.592 3.586-9.324 6.9-14.926 9.354-5.626 2.465-12.097 4.048-20.127 4.146-2.803.033-5.552.05-8.221.065-6.633.04-12.774.076-18.423.385a18.7 18.7 0 0 0-8.763 2.722c-2.705 1.64-5.139 4-7.203 7.013l-1.123 1.637-1.18-1.592c-2.207-2.976-4.688-5.398-7.332-7.074-2.458-1.558-5.047-2.464-7.671-2.556-4.73-.168-9.232-.312-13.553-.378-4.346-.067-8.567-.059-12.753.078-6.001.195-11.688-.556-17.115-2.233-5.43-1.677-10.591-4.275-15.543-7.772-13.27-9.372-21.362-20.975-29.37-32.46l-1.197-1.714-.028-.034c-2.74-4.185-4.946-9.165-6.368-14.737-1.32-5.178-1.966-10.883-1.734-16.95.29-7.604 1.619-16.057 3.773-25.089m230.6-176.379-37.044-49.748c-13.07 6.89-27.954 11.467-43.298 12.155-13.778.618-27.914-1.899-41.43-8.683-13.997 7.034-28.377 9.472-42.8 8.432-14.133-1.02-28.285-5.383-42.137-12.028l-36.997 49.277c7.712 15.744 13.69 31.063 17.976 47.714 4.388 17.041 6.992 35.437 7.859 57.065.308 7.689-.787 14.94-2.603 22.01-1.81 7.05-4.289 13.795-6.804 20.617-3.813 10.343-6.725 20.65-8.776 30.37-2.208 10.467-3.424 20.25-3.696 28.666-.174 5.414.597 10.648 2.157 15.685 1.668 5.382 4.24 10.546 7.527 15.475l.058.083c4.023 6.667 8.88 13.392 14.66 19.71 5.093 5.57 10.926 10.854 17.565 15.542 4.888 3.452 10.105 6.032 15.567 7.725 5.497 1.704 11.252 2.52 17.177 2.43a549.215 549.215 0 0 1 27.97.278c6.486.23 12 7.35 16.677 13.692l.325-.444v-.008c4.49-6.146 9.95-13.621 17.456-13.81 5.222-.13 10.99-.18 17.182-.232 3.486-.03 7.108-.06 10.878-.109 7.458-.095 13.918-1.556 19.653-3.883 5.763-2.339 10.801-5.552 15.39-9.134 5.462-4.264 10.29-9.244 14.739-14.68 4.483-5.48 8.561-11.4 12.506-17.514 4.358-6.753 6.99-12.885 8.408-18.879 1.42-5.994 1.636-11.895 1.163-18.175-.705-9.346-2.56-18.867-5.045-28.395-2.485-9.525-5.635-19.161-8.902-28.663-.88-2.56-1.674-4.726-2.413-6.745-4.635-12.655-7.269-19.847-5.173-47.043 1.21-15.703 3.608-30.548 7.605-45.285 3.895-14.363 9.309-28.622 16.62-43.467z" style="fill:#fff;fill-rule:evenodd" data-source="https://football-logos.cc"></path><!-- source: https://football-logos.cc --></svg>