<svg xmlns="http://www.w3.org/2000/svg" xml:space="preserve" viewBox="25.02 11.66 206.97 234.33"><!-- Source: https://football-logos.cc --><path d="M963.781 85.04s858.299 401.909 769.729 1604.21c0 0-156.65-20.43-258.83-20.43-333.8 0-510.899 173.7-510.899 173.7s-177.093-173.7-510.89-173.7c-102.18 0-258.848 20.43-258.848 20.43C105.484 486.949 963.781 85.04 963.781 85.04" style="fill:#231f20;fill-opacity:1;fill-rule:nonzero;stroke:none" transform="matrix(.13333 0 0 -.13333 0 257.333)" data-source="https://football-logos.cc"></path><path d="M963.781 1804.17c-56.269-45.79-229.07-164.32-510.89-164.32-76.196 0-179.754 10.85-231.098 16.85-2.801-46.38-5.098-92.35-5.098-136.29 0-966.859 650.071-1350.93 747.086-1402.785z" style="fill:#fff;fill-opacity:1;fill-rule:nonzero;stroke:none" transform="matrix(.13333 0 0 -.13333 0 257.333)"></path><path d="M883.734 1297.57H779.75c-9.469-15.8-18.746-29.23-26.102-39.18h130.086zM904.168 1297.57v-39.18h59.613v39.18zM883.734 1409.97h-61.039c-1.363-10.86-3.648-21.71-6.742-32.36h67.781zM904.168 1409.97v-32.36h59.613v32.36zM861.605 1237.96H738.988v-61.3h122.617zM882.039 1237.96v-61.3h81.742v61.3zM883.734 1525.77h-59.589v-34.06h59.589zM904.168 1525.77v-34.06h59.613v34.06zM858.203 1430.41h105.578v40.86H858.203zM963.781 1546.2v44.27h-23.84v57.91h-44.265v-57.91h-37.473v57.91h-64.711V1546.2h170.289M809.016 1357.17c-5.196-13.72-11.301-26.89-17.778-39.17h172.543v39.17z" style="fill:#231f20;fill-opacity:1;fill-rule:nonzero;stroke:none" transform="matrix(.13333 0 0 -.13333 0 257.333)"></path><path d="M1043.83 1377.61h67.79c-3.11 10.65-5.39 21.5-6.74 32.36h-61.05zM1023.39 1409.97h-59.609v-32.36h59.609zM1045.52 1237.96h-81.739v-61.3h81.739zM1065.96 1237.96v-61.3h122.62v61.3zM1043.83 1258.39h130.08a490 490 0 0 0-26.08 39.18h-104zM1023.39 1297.57h-59.609v-39.18h59.609zM963.781 1430.41h105.569v40.86H963.781zM1103.42 1546.2h30.65v102.18h-64.72v-57.91h-37.46v57.91h-44.277v-57.91h-23.832v-44.27zM963.781 1357.17V1318h172.539c-6.48 12.28-12.57 25.45-17.77 39.17zM1023.39 1525.77h-59.609v-34.06h59.609zM1043.83 1525.77v-34.06h59.59v34.06z" style="fill:#fff;fill-opacity:1;fill-rule:nonzero;stroke:none" transform="matrix(.13333 0 0 -.13333 0 257.333)"></path><path d="M741.543 1021.05c0-8.82-7.141-15.96-15.965-15.96-8.816 0-15.965 7.14-15.965 15.96v55.22c-6.742 4.44-11.496 12.78-11.496 22.69 0 14.46 9.715 26.18 21.715 26.18.93 0 1.715-.49 2.602-.63 1.046.22 2.023.63 3.144.63 8.824 0 15.965-7.14 15.965-15.96zm222.238 64.5H793.395c-6.981 41.64-34.629 72.8-67.817 72.8-38.445 0-69.605-41.74-69.605-93.23 0-51.5 31.16-93.241 69.605-93.241 33.188 0 60.836 31.161 67.817 72.801h170.386z" style="fill:#231f20;fill-opacity:1;fill-rule:nonzero;stroke:none" transform="matrix(.13333 0 0 -.13333 0 257.333)" data-source="https://football-logos.cc"></path><path d="M1249.02 1074.48h-13.18v11.07H963.781v-40.87h102.179v-29.38h20.44v29.38h39.59v-29.38h20.44v29.38h42.15v-29.38h20.43v29.38h26.83v10.21h13.18z" style="fill:#fff;fill-opacity:1;fill-rule:nonzero;stroke:none" transform="matrix(.13333 0 0 -.13333 0 257.333)"></path><path d="M491.434 875.309c-5.145 22.07-14.954 45.363-41.196 45.363-26.484 0-49.043-25.008-49.043-82.883s22.559-82.879 49.043-82.879c25.012 0 36.535 22.785 41.196 45.363l18.64-4.918c-5.398-31.386-25.504-56.89-59.836-56.89-39.726 0-69.152 36.562-69.152 99.324 0 62.781 29.426 99.328 69.152 99.328 33.844 0 53.465-25.031 59.102-57.402zM560.598 742.398h-24.766v28.68h24.766zM609.391 759.559h18.879c47.578.5 68.421 24.523 68.421 79.945 0 48.793-19.617 76.016-59.101 76.516h-28.199zm26.972 173.625c55.43 0 80.434-39.973 80.434-94.422 0-60.801-25.004-96.364-85.582-96.364h-41.926v190.786zM766.09 742.398h-24.766v28.68h24.766zM887.891 920.426h-.493l-25.015-100.055h52.234zm69.39-178.028h-20.59l-17.414 60.809h-62.039l-16.441-60.809h-20.594l53.703 190.786h28.449z" style="fill:#231f20;fill-opacity:1;fill-rule:nonzero;stroke:none" transform="matrix(.13333 0 0 -.13333 0 257.333)"></path><path d="M983.879 759.559h81.421v-17.161H963.781v190.786h20.098zM1173.81 916.02h-76.02V853h57.62v-17.164h-57.62v-93.438h-20.09v190.786h96.11zM1227.53 920.426h-.5l-25-100.055h52.22zm69.39-178.028h-20.6l-17.42 60.809h-62.02l-16.45-60.809h-20.59l53.7 190.786h28.44zM1322.66 845.391h26.97c39.49 0 47.33 17.406 47.33 35.066 0 26.242-16.42 35.563-43.64 35.563h-30.66zm25.01 87.793c59.35 0 69.41-31.391 69.41-53.469 0-22.789-14.47-41.184-36.04-48.293l36.52-89.024h-22.31l-34.57 85.832h-38.02v-85.832h-20.09v190.786zM1448.73 837.789c0-57.875 22.55-82.879 49.01-82.879 26.51 0 49.06 25.004 49.06 82.879s-22.55 82.883-49.06 82.883c-26.46 0-49.01-25.008-49.01-82.883m118.18 0c0-62.762-29.41-99.324-69.17-99.324-39.71 0-69.12 36.562-69.12 99.324 0 62.781 29.41 99.328 69.12 99.328 39.76 0 69.17-36.547 69.17-99.328M994.434 527.824c48.536 0 68.976 22.133 68.976 80.024 0 11.117-2.89 39.031-4.71 55.379-23.49 13.07-49.93 21.398-78.055 23.804-2.895-51.746-27.918-33.285-27.918-117.504 0-31.515 11.894-41.703 41.707-41.703M1088.1 571.242c0-64.562 47.79-98.758 68.75-110.656 1.67 10.258 2.77 20.738 2.77 31.469 0 57.859-25.37 109.789-65.41 145.668-2.41-15.223-6.11-42.309-6.11-66.481M934.004 685.422c-40.977-6.231-78.836-25.027-108.703-54.883-19.895-19.898-34.801-43.406-44.5-68.949 27.871 3.051 145.59 22.207 153.203 123.832M1014.03 360.086c40.02 0 24.67 42.547 81.72 99.602 0 21.296-21.27 43.429-55.33 43.429-58.76 0-86.857-39.16-86.857-82.582 40.871-40.875 36.648-60.449 60.467-60.449M1128.96 440.109c-24.23 0-67.11-44.843-71.5-119.957 44.52 24.348 78.57 65.52 93.64 114.871-6.03 2.493-14.18 5.086-22.14 5.086M778.902 428.039c26.618-76.594 99.336-131.816 184.879-131.816 20.074 0 39.429 3.05 57.679 8.699-86.921 82.262-184.921 106.453-242.558 123.117M932.281 496.309c0 28.101-6.816 49.929-22.988 69.828-42.199 0-107.898-15.008-134.059-21.438-4.699-16.937-7.296-34.582-7.296-52.644 0-14.641 1.746-28.895 4.816-42.621 25.629-7.883 88.184-26.344 110.992-26.344 28.988 0 48.535 45.121 48.535 73.219" style="fill:#fff;fill-opacity:1;fill-rule:nonzero;stroke:none" transform="matrix(.13333 0 0 -.13333 0 257.333)"></path><path d="M1057.46 320.152c4.39 75.114 47.27 119.957 71.5 119.957 7.96 0 16.11-2.593 22.14-5.086-15.07-49.351-49.12-90.523-93.64-114.871M778.902 428.039c57.637-16.664 155.637-40.855 242.558-123.117-18.25-5.649-37.605-8.699-57.679-8.699-85.543 0-158.261 55.222-184.879 131.816m-10.964 64.016c0 18.062 2.597 35.707 7.296 52.644 26.161 6.43 91.86 21.438 134.059 21.438 16.172-19.899 22.988-41.727 22.988-69.828 0-28.098-19.547-73.219-48.535-73.219-22.808 0-85.363 18.461-110.992 26.344-3.07 13.726-4.816 27.98-4.816 42.621m57.363 138.484c29.867 29.856 67.726 48.652 108.703 54.883-7.613-101.625-125.332-120.781-153.203-123.832 9.699 25.543 24.605 49.051 44.5 68.949m215.119-127.422c34.06 0 55.33-22.133 55.33-43.429-57.05-57.055-41.7-99.602-81.72-99.602-23.819 0-19.596 19.574-60.467 60.449 0 43.422 28.097 82.582 86.857 82.582m-59.775 183.914c28.125-2.406 54.565-10.734 78.055-23.804 1.82-16.348 4.71-44.262 4.71-55.379 0-57.891-20.44-80.024-68.976-80.024-29.813 0-41.707 10.188-41.707 41.703 0 84.219 25.023 65.758 27.918 117.504m178.975-194.976c0-10.731-1.1-21.211-2.77-31.469-20.96 11.898-68.75 46.094-68.75 110.656 0 24.172 3.7 51.258 6.11 66.481 40.04-35.879 65.41-87.809 65.41-145.668M963.781 708.328c-57.765 0-112.074-22.492-152.926-63.344-40.851-40.843-63.355-95.152-63.355-152.929 0-119.258 97.02-216.274 216.281-216.274 119.259 0 216.279 97.016 216.279 216.274 0 119.269-97.02 216.273-216.279 216.273" style="fill:#231f20;fill-opacity:1;fill-rule:nonzero;stroke:none" transform="matrix(.13333 0 0 -.13333 0 257.333)" data-source="https://football-logos.cc"></path><!-- source: https://football-logos.cc --></svg>