<svg xmlns="http://www.w3.org/2000/svg" viewBox="0 0 300 360" xml:space="preserve"><!-- Liverpool FC — escudo custom del hub (reemplazable por el oficial sin tocar codigo) -->
<defs>
<linearGradient id="lfcRed" x1="0" y1="0" x2="0" y2="1"><stop offset="0" stop-color="#e2173a"/><stop offset="1" stop-color="#9c0820"/></linearGradient>
</defs>
<path d="M150 16 L280 52 L280 168 Q280 272 150 344 Q20 272 20 168 L20 52 Z" fill="url(#lfcRed)" stroke="#F6EB61" stroke-width="7"/>
<path d="M150 30 L266 62 L266 166 Q266 258 150 322 Q34 258 34 166 L34 62 Z" fill="none" stroke="#F6EB61" stroke-width="2" opacity=".5"/>
<rect x="48" y="70" width="204" height="40" rx="7" fill="#00582b" stroke="#F6EB61" stroke-width="1.5"/>
<text x="150" y="98" text-anchor="middle" font-family="'Arial Narrow',Arial,sans-serif" font-weight="700" font-size="23" letter-spacing="2" fill="#F6EB61">LIVERPOOL</text>
<text x="150" y="218" text-anchor="middle" font-family="'Arial Black',Arial,sans-serif" font-weight="900" font-size="90" fill="#ffffff">LFC</text>
<text x="150" y="292" text-anchor="middle" font-family="Arial,sans-serif" font-weight="700" font-size="20" letter-spacing="3" fill="#F6EB61">EST. 1892</text>
<path d="M70 62 C61 50 63 36 70 28 C77 36 79 50 70 62 Z" fill="#F6EB61"/>
<path d="M230 62 C221 50 223 36 230 28 C237 36 239 50 230 62 Z" fill="#F6EB61"/>
</svg>
