<svg xmlns="http://www.w3.org/2000/svg" viewBox="0 0 100 100" role="img" aria-labelledby="title desc">
  <title id="title">Paris Saint-Germain crest</title>
  <desc id="desc">Simplified circular Paris Saint-Germain crest with Eiffel tower and fleur-de-lis.</desc>
  <circle cx="50" cy="50" r="49" fill="#0b1d48"/>
  <circle cx="50" cy="50" r="43" fill="none" stroke="#ffffff" stroke-width="2.4"/>
  <circle cx="50" cy="50" r="36.5" fill="none" stroke="#cf102d" stroke-width="7.5"/>
  <circle cx="50" cy="50" r="24.5" fill="#0b1d48" stroke="#ffffff" stroke-width="1.8"/>
  <path d="M50 22 L60 53 L55.2 53 L58.8 66 L41.2 66 L44.8 53 L40 53 Z" fill="#cf102d"/>
  <path d="M50 34 L55.8 52 L44.2 52 Z" fill="#ffffff" opacity="0.92"/>
  <path d="M50 66 C46 61, 44 58, 44 54 C44 51.5, 46 49.5, 48.3 49.5 C49.1 49.5, 49.7 49.8, 50 50.2 C50.3 49.8, 50.9 49.5, 51.7 49.5 C54 49.5, 56 51.5, 56 54 C56 58, 54 61, 50 66 Z" fill="#f2c94c"/>
  <path d="M50 51.3 L51.3 54.2 L54.5 54.6 L52.1 56.8 L52.7 59.9 L50 58.3 L47.3 59.9 L47.9 56.8 L45.5 54.6 L48.7 54.2 Z" fill="#f2c94c"/>
  <text x="50" y="18.5" text-anchor="middle" font-family="Arial, Helvetica, sans-serif" font-size="9.2" font-weight="700" fill="#ffffff" letter-spacing="1.6">PARIS</text>
  <text x="50" y="86.5" text-anchor="middle" font-family="Arial, Helvetica, sans-serif" font-size="6.2" font-weight="700" fill="#ffffff" letter-spacing="1.2">SAINT-GERMAIN</text>
</svg>
